<?xml version="1.0" encoding="UTF-8"?>
<svg id="Layer_1" data-name="Layer 1" xmlns="http://www.w3.org/2000/svg" viewBox="0 0 511.68 511.9">
  <defs>
    <style>
      .cls-1 {
        opacity: .8;
      }
    </style>
  </defs>
  <g class="cls-1">
    <path d="M406.33,464.45c8-6.35,16.25-12.45,23.75-19.4,8.73-8.1,16.65-16.99,24.15-26.23s14.32-19.93,21.31-30.15c7.33-10.72,12.54-23.9,17.65-35.83,1.09-2.55,1.4-5.1,2.31-7.72,1.06-3.06,2.21-6.09,3.23-9.16,2.13-6.42,4-12.93,5.6-19.5,2.99-12.26,5.08-24.73,6.25-37.3,2.34-25.33.94-51.02-4.34-75.91s-13.09-46.85-24.5-68.14c-11.12-20.74-24.76-40.14-40.99-57.2-3.99-4.19-8.13-8.24-12.41-12.14-4.31-3.93-9-6.71-13.42-10.4-8.9-7.42-18.34-14.18-28.23-20.22-18.87-11.53-39.34-20.38-60.64-26.3-42.76-11.89-88.57-11.72-131.35,0-43.91,12.03-82.82,36.27-115.66,67.5C42.25,111.34,17.45,157.11,6.22,206.39c-10.17,44.61-7.7,92.07,6.17,135.6,14.32,44.94,41.07,85.75,77.23,116.12,9.61,8.07,19.8,15.42,30.93,21.27s21.78,9.71,33.06,13.66c26.67,9.34,53.56,16.45,81.86,18.31,13.28.87,26.59.69,39.85-.42,2.75-.23,4.99-6.21,7.66-6.43-26.53,2.22-53.31.56-79.31-5.2-13.17-2.92-26.01-6.99-38.74-11.41-10.97-3.8-21.93-7.64-32.37-12.74-40.89-19.94-73.82-57.73-94.84-97.48C-5.61,295.75-1.48,193.28,49.11,115.48c13.37-20.57,29.85-40.63,49.26-55.76s39.5-26.47,61.51-35.3c39.42-15.83,82.76-21.44,124.89-15.95,42.47,5.54,83.16,22.41,116.9,48.83,8.62,6.75,17.16,12.92,25.05,20.6s15.81,16.55,22.8,25.59c13.76,17.79,25.07,37.37,34.29,57.86,2.23,4.95,3.48,10.36,5.36,15.52,2.1,5.76,3.98,11.6,5.64,17.5,3.31,11.81,5.72,23.86,7.24,36.03,3.01,24.11,2.53,48.65-1.36,72.64-1.93,11.89-4.69,23.64-8.28,35.14-1.72,5.5-4.3,10.96-5.63,16.55-1.45,6.09-4.7,11.86-7.32,17.65-2.48,5.47-4.98,10.94-7.76,16.27-3.05,5.84-7.06,11.08-10.51,16.71-6.31,10.31-14.31,19.55-21.96,28.87-3.44,4.19-7.73,7.47-11.32,11.51-4.3,4.85-9.17,8.48-14.22,12.5-2.35,1.87-5.52,4.75-7.37,6.22h0Z"/>
  </g>
  <path d="M14.24,12.36l-2.26,1.18-2.44,1.58-2.96,2.81-1.94,2.3-.95,1.39-1.6,2.81-.71,2.24-.5,2.08-.07,2.61.25,2.8.33,1.85.74,2.55.92,2.19,2,3.62,1.51,2.29,2.63,3.47,8.87,9.24,10.84,10.63,25.96,24.96,22.41,21.62,14.66,13.84,30.4,28.91,25.83,24.49s4.71,4.55,4.94,4.67c.23.12,2.03,1.91,2.03,1.91l3.14,2.9,10.46,8.29,11.85,9.99,11.9,11.5,5.76,6.54,2.19,3.73,2.11,4.98,1.32,5.13.23,3.18.27,2.91s.42,1.54.43,1.62c.01.08.48.85.48.85l1.57,1.46,24.89,25.44,25.08,26.5,25.56,26.45s17.92,17.84,17.96,18.12c.05.28,10.73,11.14,10.73,11.14l12.8,13.57,25.34,26.37,25.78,27.23,5.58,5.98,18.52,19.89s12.05,13.01,12.07,13.13c.02.12,6.46,6.55,6.46,6.55l6.35,6.61s3.75,3.55,3.78,3.7c.03.16,2.5,1.58,2.5,1.58l.52-.09.51-.58-1.1-2.52-1.44-2.34-2.86-4.32-4.95-5.69-11.31-13.27-17.51-20.44-16-18.19s-7.59-8.99-7.71-8.96-15.82-17.17-15.82-17.17l-14.96-16.23-24.33-25.99-22.79-24.48-21.5-23-16.05-17.53-10.25-11.02-7.75-8.51-7.65-8.41-1.76-2.28-1.4-2.1-.79-1.44-.51-1.25-.43-1.26-.13-1.93.03-1.47.29-1.6.5-1.15.47-1.06,2.3-2.37,1.63-1.27,1.34-1.05,1.88-.75,2.09-.5h1.81s2.02,0,2.02,0l2.07.56,1.35.41,1.86,1.21,3.66,3.03,5.39,4.91,14.16,13.81,12.49,12.53,15.45,15.04s18.46,18.11,18.48,18.23,4.91,4.76,4.91,4.76l9.39,9.39,6.07,5.97,17.22,16.91,8.19,7.94,16.57,16.26,6.58,6.28,22.12,21.18,22.6,21.34,11.7,11.05s7.96,7.37,8.08,7.56,5.99,5.25,5.99,5.25l3.9,3.44,6.69,5.53,3.62,2.31,2.6,1.2,1.29.54.27-.33-.14-.79-.45-1.38-1.34-1.99s-3.21-3.77-3.23-3.64c-.02.13-6.31-6.37-6.31-6.37l-9.84-10.08-9.49-9.05-4.71-4.79-9.88-10.32-5.75-5.54-7.68-7.87-11.9-11.7-8.96-9.06-9.2-9.47-8-8.06-7.11-7.2-15.23-15.24-10.48-10.9-9.58-9.84-7.95-8.15-6.74-6.74-8.72-9.11-14.99-15.24-11.84-11.83-7.37-7.28-14.52-14.23-10.54-10.32-6.99-7.19-1.14-1.09-2.27-.77-2.19-.05-4.1-.88-4.92-1.1-3.64-1.29-3.24-1.81-2.39-1.88-6.22-6.11-5.65-6.13-7.02-8.32-2.69-3.37-4.48-5.32-3.53-4.4-2.48-3.13-4.8-5.27-2.26-2.56-5.67-6.29-10.44-11.6-13.67-14.75-11.22-12.31-12.49-13.22-7.8-8.3-18.56-20.33-9.35-9.89-12.63-14.01-7.48-7.67-17.38-18.55-7.34-7.77-6.07-5.48-3.37-1.87-3.7-1.4-3.53-.9-5.04-.14-2.52.17-2.14.71-2.67.97ZM128.78,130.66c4.57-.89,8.99,2.15,9.86,6.78.88,4.63-2.12,9.11-6.69,10s-8.99-2.15-9.86-6.78c-.88-4.63,2.12-9.11,6.69-10ZM82.7,84.7c4.57-.89,8.99,2.15,9.86,6.78s-2.12,9.11-6.69,10-8.99-2.15-9.86-6.78,2.12-9.11,6.69-10ZM36,38.37c4.57-.89,8.99,2.15,9.86,6.78s-2.12,9.11-6.69,10-8.99-2.15-9.86-6.78c-.88-4.63,2.12-9.11,6.69-10Z"/>
  <path d="M467.08,33.37c-5.59-5.54-12.93-14.67-19.35-19.29,0,0-4.63-1.81-4.63-1.81l-2.65-1.44s-1.98-.32-1.98-.32C311.77,150.49,157.14,281.71,39.88,429.06c-12.19,20.65-21.96,45.38-21.63,69.84.02.24.13,4.96.13,4.96.29.5,1.22,3.72,1.72,4.16,27.25-8.56,54.69-26.96,77.77-43.91,75.48-57.09,145.9-125.2,213.77-191.18-5.63-10.24-19.84-20.88-26.19-30.86-.9-1.52-3.75-4.28-4.9-5.49-4.15-9.54,9.03-14.84,15.15-19,12.09-8.07,26.39-16.2,38.74-23.77,42.36-36.73,80.16-88.49,117.31-130.51,5.84-7.1,17.59-16.02,17.6-26.1l-2.28-3.85ZM437.47,51.12c-10.87-1.21-8.74-18.49,2.09-16.95,10.87,1.21,8.74,18.49-2.09,16.95Z"/>
  <polyline points="251.57 315.99 190.99 371.95 123.97 428.9 86.72 459.88 55.34 480.41"/>
</svg>