<?xml version="1.0" encoding="UTF-8"?>
<svg id="Layer_1" data-name="Layer 1" xmlns="http://www.w3.org/2000/svg" viewBox="0 0 2000.49 1998">
  <defs>
    <style>
      .cls-1 {
        opacity: .8;
      }

      .cls-2 {
        fill: #a88fa8;
      }
    </style>
  </defs>
  <g class="cls-1">
    <path class="cls-2" d="M482.35,1720.39c-62.31-35.33-120.55-77.7-173.21-126.27-51.66-47.66-97.91-101.18-137.49-159.27-38.98-57.19-71.49-118.78-96.53-183.3-24.98-64.35-42.5-131.59-51.82-199.99-9.42-69.16-10.43-139.45-2.81-208.83,3.89-35.43,10.01-70.62,18.31-105.28,5.39-22.52,12.21-44.6,18.58-66.86,3.16-11.05,5.6-22.3,9.39-33.15s7.61-21,11.77-31.36c32.13-80.06,76.62-156.26,129.91-224.05,25.8-32.82,53.82-63.82,83.16-93.5,31.29-31.66,65.93-60,101.95-86.1,67.25-48.73,140.59-88.8,217.57-119.89,70.49-28.46,144.1-49.11,219.07-61.64,74.44-12.44,150.22-16.9,225.6-13.21,75.12,3.68,149.85,15.44,222.38,35.35,72.65,19.94,143.06,48.06,209.24,84.08,33.6,18.29,66.11,38.61,97.25,60.83,7.73,5.52,15.38,11.16,22.94,16.91,3.79,2.88,7.56,5.8,11.3,8.74,3.35,2.63,6.66,6.08,10.56,7.83,3.6,1.62,7.32,2.12,10.56,4.5,4.12,3.02,8.05,6.38,12.02,9.6,8.11,6.59,16.11,13.31,23.99,20.17,59.72,51.94,112.49,111.58,157.26,176.82,22.02,32.09,42.14,65.47,60.46,99.81,9.11,17.07,18.41,34.34,26.13,52.1,1.89,4.36,1.02,8.36,2.15,12.79,1.33,5.23,4.39,10.42,6.47,15.4,4.07,9.77,7.96,19.62,11.65,29.53,29.57,79.4,46.79,163.28,51.41,247.86,4.64,84.97-3.4,170.58-23.61,253.25-10.09,41.29-23.21,81.84-39.22,121.22-1.91,4.71-3.57,8.49-3.73,13.6-.18,5.64-3.17,10.08-5.72,14.97-5.18,9.94-10.18,19.97-15.13,30.03-9.88,20.09-19.54,40.29-30.07,60.06-5.42,10.18-11.06,20.24-16.99,30.13s-13.96,18.11-20.4,27.4c-6.18,8.91-11.66,18.31-18,27.1s-13.11,17.67-19.99,26.26c-13.43,16.76-27.62,32.88-41.85,48.96-7.49,8.46-14.89,17.01-22.41,25.44-7.33,8.22-15.91,15.04-24.28,22.15-15.41,13.09-28.19,28.68-44.22,41.12-16.52,12.81-33.88,24.5-50.68,36.93-2.41,1.79-5.47,4.82-7.37,6.22,32.78-24.25,66.37-46.61,94.47-76.43,7.36-7.81,15.86-14.37,23.99-21.33,7.22-6.19,13.74-12.8,20-19.95,14.55-16.61,29.37-32.99,43.69-49.8,14.16-16.63,28.65-33.66,40.45-52.08,6.02-9.39,12.1-18.74,18.66-27.76,3.34-4.6,6.81-9.11,10.42-13.5,3.99-4.85,7.02-10.16,10.16-15.59,11.53-19.93,21.88-40.5,32.01-61.16,4.85-9.9,9.67-19.81,14.57-29.68,2.5-5.02,5.02-10.03,7.58-15.03s6.33-10.44,8.08-15.96c1.34-4.23.33-8.51,2.01-12.73,2.09-5.24,4.31-10.43,6.37-15.69,4-10.19,7.81-20.46,11.42-30.8,7.1-20.32,13.45-40.91,19.02-61.7,11.24-41.92,19.35-84.68,24.22-127.81,9.63-85.23,6.59-171.87-9.36-256.16-8-42.23-19.23-83.85-33.63-124.36-3.64-10.24-7.48-20.41-11.53-30.5-1.97-4.92-3.99-9.82-6.05-14.69-1.91-4.51-4.78-9.19-5.16-14.14s-.93-8.29-3.13-12.92c-2.32-4.89-4.67-9.76-7.05-14.61-4.28-8.72-8.67-17.38-13.16-25.98-36.63-70.09-80.73-136.31-132.78-195.92-26.81-30.71-55.66-59.63-86.3-86.52-7.63-6.69-15.36-13.26-23.2-19.71s-14.69-13.24-24.08-16.44c-8.12-2.77-15.05-10.37-21.8-15.54-7.75-5.94-15.6-11.76-23.53-17.45-62.6-44.93-130.73-82.03-202.26-110.65-70.79-28.32-144.84-48.34-220.17-60-75.46-11.68-152.21-14.97-228.4-10.01-76.58,4.99-152.62,18.32-226.31,39.79-78.08,22.75-153.58,54.65-224.24,94.91-69.66,39.69-134.27,87.92-193.05,142.4-30.88,28.62-59.41,60.53-86.13,93.03-27.24,33.14-52.28,68.14-74.44,104.89-22.99,38.13-43.95,77.71-61.51,118.64-8.81,20.54-17.64,41.59-23.18,63.26-5.97,23.34-13.64,46.2-19.7,69.52-18.24,70.21-27.31,142.87-27.13,215.4.18,70.26,9.07,140.44,26.17,208.58,17.09,68.11,42.34,134.12,74.82,196.37,32.72,62.72,72.76,121.6,118.94,175.19,46.82,54.32,99.94,103.16,157.95,145.31,28.57,20.76,58.33,39.87,89.06,57.29,1.07.61,6.71-6.97,7.66-6.43h0Z"/>
  </g>
  <g>
    <path class="cls-2" d="M54.38,31.68c-4.53,2.19-8.95,4.34-13.27,6.93-4.69,2.81-8.36,5.89-12.48,9.52-7.09,6.24-13.19,13.17-18.15,21.22C.04,86.29-2.6,108.95,2.56,128.22s17.31,36.58,30.5,50.88c7.33,7.95,15.71,15.15,23.49,22.66,5.36,5.17,10.68,10.34,16.19,15.34,32.35,29.35,64.93,58.43,97.57,87.46,29.66,26.38,59.29,52.79,88.9,79.23,31.76,28.35,63.71,56.46,95.77,84.47s64.02,56.31,96.02,84.46c27.94,24.59,55.92,49.13,83.9,73.67,15.06,13.21,30.18,26.37,45.19,39.64,7.26,6.42,14.6,12.73,21.93,19.04,6.68,5.75,13.06,11.95,20.18,17.18,32.53,23.86,65.86,47.31,95.97,74.22,16.27,14.54,32.71,28.66,47.75,44.46,3.69,3.87,7.9,7.61,11.23,11.8,3.06,3.85,5.67,8.52,8.15,12.78,4.62,7.94,8.28,16.8,10.73,25.64,1.3,4.68,3.15,9.42,3.53,14.28.44,5.55.91,11.09,1.46,16.63.43,4.38,1.2,9.36,4.3,12.69,2.03,2.17,4.6,3.89,6.79,5.92,16.52,15.31,32.73,30.95,49.09,46.43,27.94,26.42,55.71,52.93,83.2,79.81,27.58,26.97,55.08,54.02,82.95,80.7,30.11,28.83,59.88,58.05,90.51,86.33,19.36,17.87,38.87,35.6,57.87,53.86,14.26,13.7,28.32,27.68,42.73,41.27,25.45,24.01,50.01,48.99,75.22,73.26,28.81,27.74,57.78,55.34,86.38,83.29,31.69,30.96,63.59,61.71,95.06,92.9,30.66,30.39,61.29,60.8,91.89,91.24,14.71,14.63,29.37,29.31,43.93,44.09,12.35,12.55,25.52,24.26,38.2,36.47,7.11,6.85,14.13,13.79,21.52,20.33,3.68,3.26,7.19,7.21,11.16,10.08,2.14,1.55,5.55,3.91,8.12,4.57,2.25.59,3.11-.53,4.65-2.14.78-.81,1.83-8.92,1.37-9.91-4.09-8.66-8.96-16.23-14.52-24.01-6.17-8.62-12.86-15.92-20.15-23.66-14.48-15.38-28.69-31.01-43-46.55-25.43-27.61-50.83-55.28-76.51-82.67-27.15-28.95-54.73-57.46-81.68-86.6-12.6-13.63-26.04-26.46-39.12-39.63-12.6-12.69-25.13-25.45-37.76-38.12-27.21-27.31-54.41-54.64-81.83-81.74-27.54-27.22-55.13-54.39-82.59-81.69-28.18-28.01-56.32-56.05-84.56-84-28.54-28.25-57.28-56.3-85.52-84.84-30.88-31.21-61.81-62.35-92.94-93.31-11.77-11.7-23.32-23.62-34.96-35.45-14.08-14.3-30.32-28.11-40.94-45.38-2.38-3.87-4.67-8.13-5.86-12.55-1.11-4.13-.77-8.83-.68-13.08l-1.33,9.73c.8-4.05,1.85-7.25,3.62-10.96s4.85-6.1,7.89-9c5.03-4.8,11.3-9.78,17.83-12.17,7.25-2.66,13.93-3.2,21.58-3.2,7.01,0,15.19,1.3,21.29,4.97,13.66,8.21,25.63,19.32,37.77,29.56,11.24,9.48,21.94,19.64,32.86,29.48,23.9,21.57,47.51,43.43,71.12,65.33,21.21,19.67,42.98,38.75,64.43,58.15,23.82,21.53,47.81,42.92,71.2,64.92,19.9,18.7,40.27,37.04,60.48,55.42,25.2,22.92,50.4,45.83,75.61,68.74,18.53,16.84,37.23,33.48,55.76,50.31,25.3,22.97,50.53,46,76.14,68.62,24.53,21.68,49.01,43.41,73.51,65.11,20.16,17.86,40.45,35.57,60.74,53.28,23.13,20.2,46.26,40.41,69.39,60.61s47.4,41.93,72.06,61.72c22.97,18.44,45.27,39.61,72.85,50.81,1.08.44,3.81,2.11,4.9,1.89,1.7-.35,1.6-3.48,1.79-4.78.69-4.88.88-8-.94-12.58-2.75-6.91-9.46-12.83-14.5-18.11-9.26-9.7-19.74-18.51-29.5-27.79-23.96-22.77-48.15-44.98-72.94-66.83-20.96-18.48-40.02-39-60.63-57.85-11.3-10.33-22.8-20.38-33.92-30.92-10.38-9.84-20.79-19.61-31.36-29.24-23.24-21.15-46.41-42.35-69.25-63.93-22.49-21.25-44.93-42.54-67.54-63.66-23.65-22.1-47.34-44.14-71.1-66.13-20.04-18.55-39.55-37.64-59.33-56.47-22.6-21.51-45.11-43.14-67.89-64.47-21.01-19.67-41.69-39.66-62.64-59.38-22.21-20.9-44.32-41.91-66.71-62.62s-44.84-41.53-67.48-62.05c-23.18-21.02-46.36-42.04-69.55-63.05-11.23-10.17-22.57-20.21-33.54-30.66-7.01-6.67-13.94-13.42-21.02-20.01-1.88-1.75-3.7-3.8-6.01-4.84-3.35-1.51-7.21-2.48-10.86-2.56-7.54-.16-14.69-1.86-22.08-3.36s-14.67-2.47-21.65-4.76c-8.23-2.7-15.33-5.57-22.99-9.63-5.34-2.83-10.16-6.89-14.63-10.95-12.45-11.31-24.58-22.67-36.44-34.59-11.15-11.19-21.59-23.05-32.23-34.71-9.75-10.69-19.17-21.7-28.91-32.42-9.03-9.94-17.16-20.89-26.58-30.46-21.12-21.46-42.05-43.11-63.05-64.7-23.41-24.07-47.11-47.83-70.87-71.56-18.65-18.62-36.77-37.78-55.6-56.22-23.83-23.33-47.66-46.66-71.43-70.06-23.1-22.74-45.64-46.05-68.4-69.12-17.42-17.65-35.57-34.58-52.88-52.34-23.79-24.4-47.55-48.57-72.28-72.02-23.07-21.87-45.31-44.66-67.93-66.99-9.83-9.71-19.72-19.35-29.59-29.03-4.68-4.59-9.95-8.59-14.97-12.79-3.33-2.78-6.56-5.81-10.05-8.4-2.49-1.85-5.5-3.06-8.25-4.47-11.69-5.98-25.75-11.13-38.97-11.48-7.97-.21-16.36-1.01-24.3.19-6.57.99-13.38,4.06-19.66,6.18-1.47.5-.02,9.45-1.37,9.91,4.59-1.55,9.18-3.13,13.81-4.56,5-1.54,9.61-2.09,14.89-2.19s11.01.28,16.5.42c4.57.12,8.74,1.34,13.21,2.39,9.36,2.22,18.15,5.78,26.68,10.15,9.51,4.87,17.18,12.63,25.36,19.47,12.52,10.47,23.74,22.65,35.35,34.12,18.06,17.83,36.12,35.67,54.18,53.5,12.94,12.78,26.15,25.25,39.35,37.76,15.22,14.43,29.43,30.06,44.07,45.08,25.95,26.63,52.86,52.35,78.98,78.82,26.89,27.25,53.94,54.29,81.3,81.07s55.67,55.59,83.52,83.41c30.61,30.57,61.04,61.25,91.2,92.26,12.31,12.65,24.52,25.4,36.9,37.97,7.76,7.89,15.31,15.7,22.52,24.08,5.62,6.54,11.19,13.13,16.98,19.51,26.3,28.94,51.21,59.6,80.21,85.94,7.89,7.17,15.47,15.03,24.09,21.31s16.91,10.46,26.63,13.65c8.89,2.91,18.02,4.58,27.19,6.42,5,1,10.12,2.45,15.19,2.99,2.73.29,5.61-.24,8.33.18,2.45.38,5.24,1.41,7.53,2.3,3.13,1.22,5.45,3.9,7.89,6.22,4.81,4.58,9.62,9.16,14.43,13.73,5.68,5.41,11.35,10.8,17.17,16.06,14.3,12.95,28.6,25.9,42.88,38.85,30.16,27.35,60.4,54.62,90.29,82.27,31.35,29,62.61,58.11,93.59,87.51,28.64,27.18,57.31,54.33,85.96,81.51,28.55,27.08,56.78,54.49,85.33,81.58,28.88,27.41,58.45,54.13,87.53,81.34,28.2,26.39,56.17,53.03,84.37,79.42,30.22,28.28,61.06,55.87,91.1,84.34,12.47,11.82,25.56,22.92,37.92,34.86,15.6,15.07,31.09,30.28,47.03,44.99,13.04,12.03,26.99,23.1,39.87,35.31,14.99,14.21,29.98,28.43,44.96,42.66,6.96,6.61,14.44,12.84,21.04,19.76,6.87,7.21,14,13.96,15.93,24.08l1.37-9.91c-1.72,1.97-3.77.21-6.05-.71-2.48-1-4.93-2.09-7.39-3.14-4.95-2.11-9.45-5.1-14.07-7.84-9.19-5.44-17.41-12.78-25.89-19.26-14.67-11.22-29.73-22.86-43.39-35.25-15.18-13.76-31.06-26.81-46.49-40.3-13.29-11.61-26.57-23.21-39.86-34.82-30.75-26.86-61.61-53.59-92.17-80.67-33.43-29.61-67.05-59.02-100.32-88.81-31.18-27.93-61.96-56.3-93.11-84.26-29.85-26.79-59.39-53.92-89.06-80.91-28.07-25.54-55.9-51.32-83.93-76.89-33.52-30.58-67.19-60.99-100.9-91.36-27.82-25.06-54.98-50.83-82.77-75.92-16.25-14.67-32.41-29.35-49.15-43.46-6.93-5.85-13.97-11.96-21.59-16.86-8.76-5.64-18.05-7.33-28.34-7.32-5.25,0-9.78.41-14.88,1.89s-8.7,3.73-13,6.85c-8.02,5.82-16.16,11.93-18.97,21.85s-4.08,22.23-.24,31.78,10.14,17.12,16.57,24.61c7.04,8.2,15.19,15.61,22.76,23.31,5.73,5.82,11.46,11.64,17.19,17.46,15.49,15.73,31.08,31.36,46.73,46.93,26.75,26.61,52.96,53.76,79.75,80.32,28.52,28.27,57.13,56.46,85.62,84.77,29.47,29.29,58.87,58.64,88.41,87.86,31.5,31.16,63.13,62.19,94.54,93.43,27.16,27.02,54.08,54.28,81.04,81.5,14.42,14.56,29.43,28.68,43.52,43.53,13.1,13.8,25.78,27.98,38.89,41.77,30.46,32.04,60.77,64.17,90.8,96.61,26.69,28.83,53.08,57.95,80.01,86.55,7.29,7.74,13.98,15.04,20.15,23.66,5.57,7.78,10.43,15.35,14.52,24.01l1.37-9.91c-1.39,1.45-2.35,2.73-4.44,2.26-2.61-.59-6.21-3.16-8.33-4.69-3.96-2.86-7.47-6.82-11.16-10.08-7.51-6.64-14.63-13.69-21.86-20.65-12.15-11.71-24.84-22.87-36.65-34.92-29.73-30.32-60.02-60.11-90.15-90.04-23.99-23.83-47.99-47.65-72.18-71.28-27.9-27.26-55.64-54.69-83.74-81.74-31.43-30.25-62.99-60.37-94.28-90.77-15.31-14.87-30.47-29.89-45.71-44.83-13.8-13.54-28.11-26.55-41.94-40.06-25.17-24.62-51.53-48.02-77-72.35-32.4-30.95-64.74-61.98-97.1-92.97-29.14-27.9-57.73-56.39-86.57-84.59-26.79-26.19-54.21-51.73-81.43-77.47-8.13-7.69-16.25-15.37-24.38-23.06-3.95-3.74-9.07-7.39-12.63-11.42-2.89-3.27-3.6-8.25-4.01-12.44-.52-5.27-.98-10.53-1.39-15.81-.36-4.57-1.86-8.85-3.08-13.26-1.11-4-2.07-7.82-3.79-11.58-4.47-9.74-8.72-19.34-15.15-28.02-5.98-8.06-14.16-15.05-21.08-22.33-5.17-5.44-11.09-10.21-16.68-15.21-9.66-8.63-19.32-17.26-28.97-25.9-14.44-12.91-30.54-24.17-45.81-36.07-14.58-11.37-30.03-21.61-44.65-32.93s-27.17-23.28-40.48-35.04c-14.96-13.22-30.03-26.34-45.04-39.51-26.42-23.18-52.85-46.35-79.24-69.57-32.36-28.48-64.67-57.02-97.09-85.43-28.11-24.64-56.31-49.17-84.19-74.06-28.31-25.27-56.61-50.55-84.97-75.78-31.1-27.67-62.35-55.18-93.18-83.15-15.17-13.76-30.22-27.53-44.96-41.74-6.74-6.5-14.21-12.68-20.15-19.94s-12.25-15.05-17.28-23.49c-4.84-8.12-9.06-16.11-11.39-25.36-2.21-8.74-2.28-17.64-2.01-26.58l-1.37,9.91c1.68-6.51,3.15-13.13,6.71-18.89,3.8-6.17,7.67-11.68,12.55-17.04,4.46-4.9,9.48-9.84,14.83-13.74,5.63-4.1,12.24-7.04,18.48-10.06,1.72-.83-.24-9.13,1.37-9.91Z"/>
    <path class="cls-2" d="M503.84,472.39c12.55-2,25.71,2.36,33.45,12.74,3.97,5.33,5.07,10.86,5.97,17.26.39,2.82-1.69.06.49-2.23-.3.31-.36,1.42-.53,1.84-.56,1.39-1,2.78-1.67,4.13-1.33,2.68-3.06,5.17-5.1,7.36-18.07,19.46-54.88,10.38-58-17.26-.1-.87-.05-1.78-.17-2.64-.47-3.22.24,1.57-.49,2.23.81-.72,1.15-3.67,1.66-4.82,1.39-3.12,3.32-6.01,5.64-8.52,5.01-5.39,11.6-8.67,18.76-10.1,1.14-.23.36-9.7,1.37-9.91-15.03,3.01-24.9,14.03-27.04,28.98-.93,6.5-1.97,12.83-.19,19.3,2.05,7.43,7,13.8,13.48,17.93,13.22,8.42,31.54,6.75,42.72-4.36,4.82-4.78,7.71-10.8,8.84-17.45,1.01-5.94,2.21-12.35,1.26-18.37-2.93-18.4-21.52-28.83-39.06-26.04-1.03.16-.48,9.77-1.37,9.91Z"/>
    <path class="cls-2" d="M322.48,305.01c12.55-2,25.71,2.36,33.45,12.74,3.97,5.33,5.07,10.86,5.97,17.26.39,2.82-1.69.06.49-2.23-.3.31-.36,1.42-.53,1.84-.56,1.39-1,2.78-1.67,4.13-1.33,2.68-3.06,5.17-5.1,7.36-18.07,19.46-54.88,10.38-58-17.26-.1-.87-.05-1.78-.17-2.64-.47-3.22.24,1.57-.49,2.23.81-.72,1.15-3.67,1.66-4.82,1.39-3.12,3.32-6.01,5.64-8.52,5.01-5.39,11.6-8.67,18.76-10.1,1.14-.23.36-9.7,1.37-9.91-15.03,3.01-24.9,14.03-27.04,28.98-.93,6.5-1.97,12.83-.19,19.3,2.05,7.43,7,13.8,13.48,17.93,13.22,8.42,31.54,6.75,42.72-4.36,4.82-4.78,7.71-10.8,8.84-17.45,1.01-5.94,2.21-12.35,1.26-18.37-2.93-18.4-21.52-28.83-39.06-26.04-1.03.16-.48,9.77-1.37,9.91Z"/>
    <path class="cls-2" d="M138.66,136.29c12.55-2,25.71,2.36,33.45,12.74,3.97,5.33,5.07,10.86,5.97,17.26.39,2.82-1.69.05.49-2.23-.3.31-.36,1.42-.53,1.84-.56,1.39-1,2.78-1.67,4.13-1.33,2.68-3.06,5.17-5.1,7.36-18.07,19.46-54.88,10.38-58-17.26-.1-.87-.05-1.78-.17-2.64-.47-3.22.24,1.57-.49,2.23.81-.72,1.15-3.67,1.66-4.82,1.39-3.12,3.31-6.01,5.64-8.52,5.01-5.39,11.6-8.67,18.76-10.1,1.14-.23.36-9.7,1.37-9.91-15.03,3.01-24.9,14.03-27.04,28.98-.93,6.5-1.97,12.83-.19,19.3,2.05,7.43,7,13.8,13.48,17.93,13.22,8.42,31.54,6.75,42.72-4.36,4.82-4.78,7.71-10.8,8.84-17.45,1.01-5.94,2.21-12.35,1.26-18.37-2.93-18.4-21.52-28.83-39.06-26.04-1.03.16-.48,9.77-1.37,9.91Z"/>
  </g>
  <g>
    <path class="cls-2" d="M1840.93,111.51c-14.52-13.37-27.97-27.86-42.17-41.56-7.24-6.99-14.64-13.83-22.48-20.15-4.89-3.94-9.56-7.82-15.47-9.96-4.66-1.69-9.48-3.16-14.05-5.09-3.58-1.51-6.9-4.08-10.59-5.28-4.58-1.49-8.27-1.13-12.65.36-3.99,1.35-5.37,2.31-8.41,5.42-4.1,4.19-8.21,8.37-12.32,12.55-63.06,64.08-127.23,127.07-192.09,189.34-65.77,63.13-132.25,125.52-199.11,187.5-67.44,62.53-135.26,124.66-203.13,186.73-68.1,62.28-136.26,124.5-204.15,187.01-67.54,62.18-134.82,124.64-201.52,187.72-66.45,62.84-132.32,126.31-197.23,190.73-63.95,63.46-126.99,127.86-188.67,193.53-30.6,32.57-60.87,65.46-90.74,98.7-14.84,16.52-29.59,33.12-44.23,49.82-7.3,8.32-14.57,16.66-21.81,25.03-3.39,3.92-7.17,7.72-10.26,11.89-3.43,4.62-6.24,9.91-9.22,14.83-44.18,73.02-78.29,157.29-75.75,243.97.12,4.28-.56,9.41.37,13.59.55,2.49,2.14,5.29,3.07,7.66s1.83,5.58,3.71,7.5l.17-.04c87.91-25.7,169.11-69.01,246.29-117.66,81.05-51.09,158.2-108.28,234.32-166.38,77.54-59.18,153.53-120.37,228.42-182.85,75.12-62.67,149.13-126.65,222.54-191.31,72.77-64.09,144.94-128.85,217.05-193.69,2.07-1.86,4.14-3.72,6.21-5.59,1.55-1.4,1.86-1.1,1.41-2.95-.14-.58-1.1-1.76-1.37-2.18-2.43-3.77-5.08-7.4-7.85-10.92-5.94-7.53-12.46-14.58-19.16-21.43-14.38-14.68-29.69-28.41-44.3-42.86-6.87-6.8-13.61-13.75-19.87-21.12-5.17-6.09-9.4-12.98-14.85-18.81s-13.66-10.76-16.07-18.32c-1.95-6.11-1.83-12.58.57-18.54,5.3-13.13,18.69-21.91,30.3-28.94,13.52-8.19,27.47-15.63,41.01-23.79,40.46-24.4,82.14-46.69,123.4-69.69,5.18-2.89,10.35-5.79,15.51-8.7s9.21-6.69,13.61-10.29c8.38-6.87,16.68-13.84,24.9-20.9,17.09-14.68,33.84-29.76,50.32-45.12,33.6-31.35,66.05-63.92,97.81-97.12,63.58-66.48,124.38-135.54,186.01-203.8,29.78-32.98,59.75-65.8,90.43-97.95,12.36-12.95,25.5-25.06,38-37.87s24.56-26.43,30.27-43.2c1.73-5.08,4.55-13,1.46-17.84-2.56-3.99-5.12-7.99-7.67-11.98-.47-.73-9.08,3.82-9.47,3.21,2.49,3.88,4.98,7.77,7.47,11.65,3.09,4.82.78,11.78-.86,16.96-4.96,15.68-16.02,28.94-27.12,40.71-11.63,12.33-24.47,23.45-36.13,35.76-13.69,14.45-27.34,28.95-40.87,43.55-58.31,62.92-114.84,127.46-172.7,190.79-57.99,63.47-117.27,125.96-180.82,183.93-15.51,14.15-31.28,28.02-47.35,41.53-7.72,6.49-15.35,13.8-23.7,19.47-8.75,5.95-18.8,10.57-28.05,15.7-39.17,21.73-78.64,43-116.95,66.25-12.34,7.49-25.1,14.21-37.46,21.65-11.12,6.7-23.45,14.74-29.59,26.62-2.71,5.25-3.8,11.13-2.82,16.98.51,3.05,1.38,6.78,3.38,9.15,2.45,2.9,5.69,5.34,8.4,7.99,5.53,5.38,9.86,11.14,14.53,17.23,5.37,7,11.31,13.56,17.43,19.91,25.56,26.54,56.11,49.57,77.2,80.1.99,1.43,1.95,2.88,2.87,4.36.07.12,1.34,1.83,1.33,2.17-.03.64-2.87,2.58-3.45,3.1-4.37,3.93-8.74,7.86-13.12,11.79-8.3,7.46-16.6,14.92-24.9,22.38-16.88,15.17-33.77,30.32-50.68,45.46-67.88,60.79-136.01,121.3-204.8,181.06-69.41,60.29-139.49,119.8-210.66,178.01-71.05,58.11-143.18,114.9-216.76,169.77-71.5,53.32-144.01,105.46-220.64,151.23-38.32,22.89-77.68,44.18-118.51,62.25-10.74,4.76-21.59,9.28-32.54,13.53-12.67,4.92-25.63,10.28-38.87,13.42-2.07.49-2.84.97-4.24-.49-.88-.91-1.36-2.85-1.83-3.97-1.2-2.89-2.55-5.89-3.47-8.88-1.18-3.84-.64-8.56-.75-12.6-2.34-82.87,27.59-162.86,68.53-233.73,5.19-8.98,10.2-18.62,16.39-26.95,6.18-8.33,13.75-15.93,20.56-23.75,14.18-16.28,28.47-32.48,42.85-48.59,28.35-31.77,57.06-63.2,86.09-94.35,58.9-63.2,119.08-125.21,180.15-186.31,62.01-62.04,124.94-123.15,188.47-183.64,64.01-60.95,128.61-121.27,193.52-181.27,64.87-59.96,130.05-119.6,195.25-179.21,65.07-59.49,130.17-118.96,195.01-178.71,64.61-59.54,128.98-119.35,192.79-179.75,62.85-59.49,125.16-119.55,186.61-180.49,29.43-29.19,58.66-58.59,87.65-88.22l-9.47,3.21c3.08.46,6.28.57,9.12,1.82,3.19,1.4,6.16,3.31,9.36,4.67,7.4,3.13,15.4,4.55,21.98,9.29,26.79,19.29,48.02,45.21,72.18,67.47,1.22,1.12,8.35-4.25,9.47-3.21Z"/>
    <path class="cls-2" d="M1724.38,176.17c-13.2-1.54-24.38-9.49-27.42-22.86-2.6-11.47,1.21-24.37,10.2-32.09,2.41-2.07,5.07-3.35,7.85-4.81-7.31,3.84-5.95,1.64-3.15,1.38.63-.06,1.27-.2,1.91-.28,2.02-.24,4.07-.29,6.11-.18,7.24.37,14.54,2.23,20.36,6.71,9.49,7.32,12.88,20.02,10.23,31.45-1.49,6.42-4.84,12.42-9.8,16.81-1.26,1.12-2.62,2.12-4.06,3.01-.61.37-1.23.73-1.87,1.06-.73.37-1.47.72-2.22,1.02,5.2-1.61,6.71-2.17,4.53-1.66-4.38.42-8.22.97-12.66.44-3.02-.36-6.52,3.56-9.47,3.21,8.6,1.02,15.85-1.2,23.85-4.01,6.49-2.28,12.04-5.82,16.05-11.52,7.68-10.91,8.28-26.76.2-37.63-10.07-13.54-28.31-13.89-42.91-8.94-6.6,2.24-12.64,4.71-17.35,10.07s-7.23,11.81-7.89,18.62c-1.73,17.82,10.69,31.39,28.06,33.41,3.02.35,6.51-3.55,9.47-3.21Z"/>
  </g>
  <path class="cls-2" d="M987.41,1141.79c-1.32,1.12-2.63,2.25-3.95,3.37-3.67,3.13-7.33,6.27-11,9.4-5.57,4.76-11.14,9.52-16.71,14.28-7.12,6.08-14.24,12.17-21.36,18.25-8.15,6.96-16.3,13.93-24.44,20.89-8.83,7.55-17.67,15.1-26.5,22.65s-18.14,15.51-27.22,23.26l-26.57,22.71c-8.28,7.08-16.56,14.15-24.84,21.23-7.25,6.2-14.5,12.39-21.75,18.59-5.78,4.94-11.56,9.88-17.34,14.82l-11.79,10.08c-1.63,1.4-3.24,2.82-4.9,4.19-.98.81-1.99,1.57-2.99,2.35-3.31,2.6-6.63,5.21-9.94,7.81-5.25,4.13-10.5,8.25-15.74,12.38-6.85,5.38-13.69,10.76-20.54,16.15-8.05,6.33-16.09,12.65-24.14,18.98-8.83,6.95-17.67,13.89-26.5,20.84-9.3,7.31-18.61,14.63-27.91,21.94s-18.72,14.72-28.08,22.08-18.01,14.16-27.01,21.24c-8.33,6.55-16.66,13.1-25,19.65-7.25,5.7-14.49,11.39-21.74,17.09-5.78,4.54-11.55,9.08-17.33,13.63-3.93,3.09-7.85,6.17-11.78,9.26-1.69,1.33-3.38,2.67-5.08,3.99-1.58,1.24-3.18,2.45-4.78,3.68l-15.99,12.31c-7.89,6.07-15.78,12.14-23.66,18.21-9.24,7.11-18.47,14.21-27.71,21.32-9.29,7.15-18.59,14.3-27.88,21.45-8.06,6.2-16.12,12.4-24.18,18.6-5.63,4.33-11.26,8.67-16.89,13-1.89,1.45-3.73,3.05-5.71,4.39-3.36,2.26-6.96,4.22-10.43,6.31-7.82,4.73-15.63,9.46-23.45,14.2-9.88,5.98-19.76,11.96-29.64,17.95s-19.56,11.84-29.34,17.76c-7.41,4.48-14.81,8.97-22.22,13.45-2.8,1.69-5.6,3.39-8.39,5.08.04-.02.86,1.22.92,1.19,3.01-1.82,6.02-3.65,9.03-5.47,7.54-4.56,15.08-9.13,22.61-13.69,9.79-5.93,19.58-11.86,29.37-17.78s19.82-12,29.72-18c7.66-4.64,15.32-9.27,22.98-13.91,3.25-1.97,6.65-3.79,9.79-5.93,2.13-1.45,4.13-3.17,6.17-4.74,5.71-4.39,11.42-8.79,17.13-13.18,8.15-6.27,16.31-12.55,24.46-18.82,9.31-7.17,18.63-14.33,27.94-21.5,9.18-7.06,18.36-14.12,27.53-21.19,7.84-6.03,15.68-12.07,23.53-18.1,5.21-4.01,10.41-8.01,15.62-12.02,1.47-1.13,2.96-2.26,4.42-3.41,1.8-1.41,3.6-2.83,5.39-4.24,3.99-3.14,7.99-6.28,11.98-9.42,5.84-4.59,11.68-9.18,17.52-13.77,7.29-5.73,14.59-11.47,21.88-17.2,8.34-6.55,16.67-13.11,25.01-19.66,9.05-7.12,18.11-14.24,27.16-21.36s18.73-14.72,28.09-22.09c9.26-7.28,18.52-14.56,27.78-21.84s17.68-13.9,26.53-20.85l24.02-18.89c6.79-5.34,13.58-10.68,20.38-16.02l15.58-12.25c3.21-2.52,6.42-5.04,9.62-7.57.94-.74,1.89-1.45,2.81-2.22,1.75-1.45,3.46-2.96,5.19-4.43,3.99-3.41,7.99-6.82,11.98-10.24,5.86-5.01,11.72-10.02,17.59-15.03,7.3-6.24,14.6-12.47,21.9-18.71,8.28-7.08,16.56-14.16,24.85-21.23,8.93-7.63,17.87-15.27,26.8-22.9s18.08-15.45,27.12-23.18c8.82-7.54,17.63-15.07,26.45-22.61,8.14-6.96,16.28-13.92,24.42-20.87,7.02-6,14.04-12,21.06-18,5.53-4.72,11.05-9.45,16.58-14.17,3.58-3.06,7.17-6.12,10.75-9.19,1.22-1.04,2.44-2.08,3.66-3.13.03-.02-.93-1.18-.92-1.19h0Z"/>
  <g>
    <path class="cls-2" d="M492.12,1597.63c-13.1,74.84-20.86,150.38-23.05,226.16-.04,1.33,15.49,5.36,15.48,6.52,1.3-75.93,7.69-151.58,19.88-226.37.21-1.28-12.51-5.19-12.31-6.3h0Z"/>
    <path class="cls-2" d="M491.08,1614.02c-2.37,22,2.73,44.1,9.53,64.54,9.08,27.31,24.8,52.65,44.39,72.81,11.26,11.58,24.38,21.51,38.49,29.9,10.94,6.51,23.35,12.27,36.13,14.06,26.18,3.68,58.14-1.62,76.75-20.06,15.88-15.73,24.19-36.81,23.82-60.57-.02-1-13.59-2.57-13.57-3.39-1.29,97.78,25.24,190.21,77.03,272.29,1.27,2.02,16.12.5,17.35,2.36-52.71-82.25-80.71-173.45-80.8-271.26-4.53-1.1-9.05-2.23-13.57-3.39.06,20.5-7.16,42.88-21.7,57.43-20.67,20.68-54.47,24.87-82.49,21.6,4.93,1.61,9.87,3.19,14.81,4.74-39.38-16.97-71.87-45.68-91.35-83.72-14.75-28.82-24.15-58.96-22.27-91.03.09-1.49-12.67-4.95-12.54-6.31h0Z"/>
    <path class="cls-2" d="M767.03,1844.11c30.12,4.18,60.32,7.47,90.56,9.64,3.57.26,7.17.52,10.75.7,8.76.43-8.19-.85.19-.11,4.49.39,9.07.75,13.49.98,8.83.46,20.19-.26,28.42-4.1,8.31-3.87,8.06-9.1,5.84-15.79-2.94-8.87-8.45-18.55-14.33-25.75-11.65-14.25-28.03-28.36-46.67-31.99-13.43-2.61-28.58-4.69-41.51-1.48-13.81,3.43-28.75,9.93-37.2,21.1-8.28,10.94-9.62,18.78-7.39,32.68,2.41,15.04,11.5,31.5,23.17,42.32,9.21,8.55,18.48,15.03,29.56,20.92,9.02,4.79,21.68,6.37,31.82,7.06,11.34.77,49.38.21,43.02-18.92-.44-1.32-15.38.06-15.81-1.14,5.24,15.32-21.63,19.04-31.13,19.15-2.84.03.32.08.83.18-1.18-.23-2.35-.53-3.5-.83-2.91-.78-5.45-1.85-8.07-3.08-4.73-2.22-9.26-4.7-13.54-7.4-7.92-5-14.92-10.8-20.78-17.16-9.64-10.46-16.31-23.98-20.05-37.11-2.4-8.42-2.49-21.36,2.76-29.06,6.66-9.76,16.63-17.48,27.52-22.29,6.02-2.66,12.58-4.63,19.38-5.55,3.19-.43,6.34-.39,9.55-.59,4.5-.28-5.71-1.61-1.34-.08,2.13.75,4.44,1.19,6.54,1.99,16.1,6.12,29.93,18.78,39.98,32.75,5.06,7.03,9.3,14.6,11.78,22.51,1.76,5.6,3.62,10.67-2.44,14.77-7.65,5.17-20.13,5.76-28.98,5.64-6.2-.08,1.26-.14,1.51.37-.09-.19-3.54-.33-3.9-.36-2.02-.18-4.04-.38-6.07-.55-6.59-.54-13.23-.94-19.81-1.5-29.72-2.53-59.38-6.15-88.95-10.63,3.68.58,10.12,2.04,14.8,2.71h0Z"/>
    <path class="cls-2" d="M944.38,1843.37c6.78,26.38,21.71,48.43,39.98,67.54,1.85,1.93,14.38-1.96,16.2-.16-18.53-19.48-33.79-40.75-40.92-67.03-.26-.94-15.06.43-15.26-.34h0Z"/>
    <path class="cls-2" d="M964.11,1847.31c-4.41-12.42,5.71-23.7,15.94-29.09,3.91-2.06,8.29-3.58,12.82-4.47.91-.18,1.83-.33,2.75-.45,2.51-.31,1.23-.35-3.87-.17.09.1,5.05,1.42,5.8,1.8,6.33,3.14,11.53,7.64,16,12.36,19.62,20.74,28.74,48.22,43.4,72.12.85,1.38,15.24-2.3,16.02-1.07-12.77-21.48-23.09-44.68-37.94-64.21-7.22-9.49-17.09-20.21-29.51-21.29-12.84-1.12-27.5-.75-39.63,4.94-10.58,4.96-21.62,16.95-17.08,29.24.47,1.28,14.83-.85,15.31.29h0Z"/>
    <path class="cls-2" d="M1042.36,1838.62c-2.04-9.77,4.43-22.04,11.26-28.3,4.58-4.2,10.22-8.26,16.49-11.05,3.23-1.44,6.63-2.62,10.12-3.52.67-.17,5.15-1.55,5.57-1.2.17.14-10.78.35-4.35.36,1.75,0,3.47-.05,5.22.03,13.49.56,25.37,7.58,35.18,16.34,10.21,9.11,19.49,19.48,28.36,29.92,9.14,10.75,18.34,21.82,29.66,30.32,2.16,1.62,13.55-4.11,15.62-2.61-23.18-18.58-40.04-44.1-62.5-62.46-4.98-4.07-10.9-7.85-17.42-10.38-7.51-2.91-15.94-2.94-24.12-2.27-15.99,1.31-31.72,3.07-44.06,10.77-10.82,6.76-22.74,19.29-20.2,34.75.08.51,15.1-1.04,15.17-.7h0Z"/>
    <path class="cls-2" d="M1296.32,1794.58c-17.9.52-35.67,4.67-52.96,8.9-9.04,2.21-18.03,4.91-26.39,8.71-7.04,3.19-17.71,8.15-18.23,14.72-1.38,17.31,26.74,23.53,39.97,24.85,20.63,2.05,40.96-.49,61.14-5.46,18.69-4.6,37.33-10.64,54.45-19.35,8.22-4.18,16.22-9.6,22.54-15.79,8.16-7.99,8.37-15.45.28-21.91-11.17-8.9-26.61-11.6-40.46-9.89-14.46,1.79-28.72,6.13-42.73,10.36-33.69,10.17-66.14,23.04-96.36,41.33,3.58-2.29,11.44-.53,15.05-2.83,20.74-13.19,43.59-23.19,66.68-32.34,7.02-2.78,14.19-5.39,21.43-7.76,1.14-.37,2.29-.72,3.43-1.1,6-2.03-6.55,1.31-.52.16,4.2-.8,8.4-1.82,12.54-2.57,9.17-1.67,21.33-2.4,30.39.77,9.68,3.39,31.71,17.24,16.61,29.49-12.43,10.08-25.41,17.98-40.4,24.04-4.18,1.69-8.62,3.06-12.98,4.51-6.76,2.25,3.54-.59-3.38.92-2.91.64-5.8,1.29-8.73,1.84-8.83,1.67-17.88,2.82-26.67,3.04-16.3.41-34.76-1.8-48.56-10.48-5.43-3.42-9.45-8.64-8.73-14.68.78-6.55,9.64-10.84,16.23-14.09,3.67-1.81,7.49-3.4,11.39-4.82,2.02-.74,4.07-1.43,6.13-2.09,2.01-.64,4.04-1.24,6.08-1.8-4.03.87-4.37.92-1.11.31,9.41-1.77,19.56-2.9,29.25-3.1,4.81-.1,9.87-3.73,14.62-3.9h0Z"/>
    <path class="cls-2" d="M1365.74,1748c31.78,10.91,63.95,20.57,96.44,28.72,1.05.26,6.11-2.55,7.25-3.04,1.14-.49,6.1-3.44,7.18-3.19-32.71-7.85-65.08-16.91-96.91-27.47-.99-.33-5.89,2.06-6.99,2.45-1.1.39-5.96,2.87-6.96,2.52h0Z"/>
    <path class="cls-2" d="M1274.46,1729.95c4.77.64,9.55,1.25,14.35,1.82.4.05,1.82-.48,2.02-.53,1.62-.45,3.23-.91,4.85-1.38,1.61-.47,3.22-.95,4.83-1.44.46-.14,1.55-.68,1.99-.63-4.81-.51-9.61-1.06-14.38-1.64-.4-.05-1.81.47-2.01.53-1.61.44-3.22.89-4.83,1.34-1.61.45-3.22.89-4.82,1.35-.46.13-1.56.64-1.99.59h0Z"/>
    <path class="cls-2" d="M1513.95,1657c18.39,46.79,4.52,95.77-18.95,137.82.51-.86,6.24-2.73,7.39-3.25,1.34-.6,6.67-2.26,7.31-3.41,23.15-41.55,36.11-91.56,17.06-138.1.18.44-13.04,6.34-12.81,6.94h0Z"/>
    <path class="cls-2" d="M1380.9,1728.8c119.27-7.98,235.86-34.15,346.8-77.59,4.71-1.84,8.36-7.99,12.97-9.89-110.92,44.82-227.12,73.16-346.08,82.31-4.54.35-9.21,4.9-13.69,5.17h0Z"/>
  </g>
  <g>
    <path class="cls-2" d="M492.12,1597.63c-13.1,74.84-20.86,150.38-23.05,226.16-.04,1.33,15.49,5.36,15.48,6.52,1.3-75.93,7.69-151.58,19.88-226.37.21-1.28-12.51-5.19-12.31-6.3h0Z"/>
    <path class="cls-2" d="M491.08,1614.02c-2.37,22,2.73,44.1,9.53,64.54,9.08,27.31,24.8,52.65,44.39,72.81,11.26,11.58,24.38,21.51,38.49,29.9,10.94,6.51,23.35,12.27,36.13,14.06,26.18,3.68,58.14-1.62,76.75-20.06,15.88-15.73,24.19-36.81,23.82-60.57-.02-1-13.59-2.57-13.57-3.39-1.29,97.78,25.24,190.21,77.03,272.29,1.27,2.02,16.12.5,17.35,2.36-52.71-82.25-80.71-173.45-80.8-271.26-4.53-1.1-9.05-2.23-13.57-3.39.06,20.5-7.16,42.88-21.7,57.43-20.67,20.68-54.47,24.87-82.49,21.6,4.93,1.61,9.87,3.19,14.81,4.74-39.38-16.97-71.87-45.68-91.35-83.72-14.75-28.82-24.15-58.96-22.27-91.03.09-1.49-12.67-4.95-12.54-6.31h0Z"/>
    <path class="cls-2" d="M767.03,1844.11c30.12,4.18,60.32,7.47,90.56,9.64,3.57.26,7.17.52,10.75.7,8.76.43-8.19-.85.19-.11,4.49.39,9.07.75,13.49.98,8.83.46,20.19-.26,28.42-4.1,8.31-3.87,8.06-9.1,5.84-15.79-2.94-8.87-8.45-18.55-14.33-25.75-11.65-14.25-28.03-28.36-46.67-31.99-13.43-2.61-28.58-4.69-41.51-1.48-13.81,3.43-28.75,9.93-37.2,21.1-8.28,10.94-9.62,18.78-7.39,32.68,2.41,15.04,11.5,31.5,23.17,42.32,9.21,8.55,18.48,15.03,29.56,20.92,9.02,4.79,21.68,6.37,31.82,7.06,11.34.77,49.38.21,43.02-18.92-.44-1.32-15.38.06-15.81-1.14,5.24,15.32-21.63,19.04-31.13,19.15-2.84.03.32.08.83.18-1.18-.23-2.35-.53-3.5-.83-2.91-.78-5.45-1.85-8.07-3.08-4.73-2.22-9.26-4.7-13.54-7.4-7.92-5-14.92-10.8-20.78-17.16-9.64-10.46-16.31-23.98-20.05-37.11-2.4-8.42-2.49-21.36,2.76-29.06,6.66-9.76,16.63-17.48,27.52-22.29,6.02-2.66,12.58-4.63,19.38-5.55,3.19-.43,6.34-.39,9.55-.59,4.5-.28-5.71-1.61-1.34-.08,2.13.75,4.44,1.19,6.54,1.99,16.1,6.12,29.93,18.78,39.98,32.75,5.06,7.03,9.3,14.6,11.78,22.51,1.76,5.6,3.62,10.67-2.44,14.77-7.65,5.17-20.13,5.76-28.98,5.64-6.2-.08,1.26-.14,1.51.37-.09-.19-3.54-.33-3.9-.36-2.02-.18-4.04-.38-6.07-.55-6.59-.54-13.23-.94-19.81-1.5-29.72-2.53-59.38-6.15-88.95-10.63,3.68.58,10.12,2.04,14.8,2.71h0Z"/>
    <path class="cls-2" d="M944.38,1843.37c6.78,26.38,21.71,48.43,39.98,67.54,1.85,1.93,14.38-1.96,16.2-.16-18.53-19.48-33.79-40.75-40.92-67.03-.26-.94-15.06.43-15.26-.34h0Z"/>
    <path class="cls-2" d="M964.11,1847.31c-4.41-12.42,5.71-23.7,15.94-29.09,3.91-2.06,8.29-3.58,12.82-4.47.91-.18,1.83-.33,2.75-.45,2.51-.31,1.23-.35-3.87-.17.09.1,5.05,1.42,5.8,1.8,6.33,3.14,11.53,7.64,16,12.36,19.62,20.74,28.74,48.22,43.4,72.12.85,1.38,15.24-2.3,16.02-1.07-12.77-21.48-23.09-44.68-37.94-64.21-7.22-9.49-17.09-20.21-29.51-21.29-12.84-1.12-27.5-.75-39.63,4.94-10.58,4.96-21.62,16.95-17.08,29.24.47,1.28,14.83-.85,15.31.29h0Z"/>
    <path class="cls-2" d="M1042.36,1838.62c-2.04-9.77,4.43-22.04,11.26-28.3,4.58-4.2,10.22-8.26,16.49-11.05,3.23-1.44,6.63-2.62,10.12-3.52.67-.17,5.15-1.55,5.57-1.2.17.14-10.78.35-4.35.36,1.75,0,3.47-.05,5.22.03,13.49.56,25.37,7.58,35.18,16.34,10.21,9.11,19.49,19.48,28.36,29.92,9.14,10.75,18.34,21.82,29.66,30.32,2.16,1.62,13.55-4.11,15.62-2.61-23.18-18.58-40.04-44.1-62.5-62.46-4.98-4.07-10.9-7.85-17.42-10.38-7.51-2.91-15.94-2.94-24.12-2.27-15.99,1.31-31.72,3.07-44.06,10.77-10.82,6.76-22.74,19.29-20.2,34.75.08.51,15.1-1.04,15.17-.7h0Z"/>
    <path class="cls-2" d="M1296.32,1794.58c-17.9.52-35.67,4.67-52.96,8.9-9.04,2.21-18.03,4.91-26.39,8.71-7.04,3.19-17.71,8.15-18.23,14.72-1.38,17.31,26.74,23.53,39.97,24.85,20.63,2.05,40.96-.49,61.14-5.46,18.69-4.6,37.33-10.64,54.45-19.35,8.22-4.18,16.22-9.6,22.54-15.79,8.16-7.99,8.37-15.45.28-21.91-11.17-8.9-26.61-11.6-40.46-9.89-14.46,1.79-28.72,6.13-42.73,10.36-33.69,10.17-66.14,23.04-96.36,41.33,3.58-2.29,11.44-.53,15.05-2.83,20.74-13.19,43.59-23.19,66.68-32.34,7.02-2.78,14.19-5.39,21.43-7.76,1.14-.37,2.29-.72,3.43-1.1,6-2.03-6.55,1.31-.52.16,4.2-.8,8.4-1.82,12.54-2.57,9.17-1.67,21.33-2.4,30.39.77,9.68,3.39,31.71,17.24,16.61,29.49-12.43,10.08-25.41,17.98-40.4,24.04-4.18,1.69-8.62,3.06-12.98,4.51-6.76,2.25,3.54-.59-3.38.92-2.91.64-5.8,1.29-8.73,1.84-8.83,1.67-17.88,2.82-26.67,3.04-16.3.41-34.76-1.8-48.56-10.48-5.43-3.42-9.45-8.64-8.73-14.68.78-6.55,9.64-10.84,16.23-14.09,3.67-1.81,7.49-3.4,11.39-4.82,2.02-.74,4.07-1.43,6.13-2.09,2.01-.64,4.04-1.24,6.08-1.8-4.03.87-4.37.92-1.11.31,9.41-1.77,19.56-2.9,29.25-3.1,4.81-.1,9.87-3.73,14.62-3.9h0Z"/>
    <path class="cls-2" d="M1365.74,1748c31.78,10.91,63.95,20.57,96.44,28.72,1.05.26,6.11-2.55,7.25-3.04,1.14-.49,6.1-3.44,7.18-3.19-32.71-7.85-65.08-16.91-96.91-27.47-.99-.33-5.89,2.06-6.99,2.45-1.1.39-5.96,2.87-6.96,2.52h0Z"/>
    <path class="cls-2" d="M1274.46,1729.95c4.77.64,9.55,1.25,14.35,1.82.4.05,1.82-.48,2.02-.53,1.62-.45,3.23-.91,4.85-1.38,1.61-.47,3.22-.95,4.83-1.44.46-.14,1.55-.68,1.99-.63-4.81-.51-9.61-1.06-14.38-1.64-.4-.05-1.81.47-2.01.53-1.61.44-3.22.89-4.83,1.34-1.61.45-3.22.89-4.82,1.35-.46.13-1.56.64-1.99.59h0Z"/>
    <path class="cls-2" d="M1513.95,1657c18.39,46.79,4.52,95.77-18.95,137.82.51-.86,6.24-2.73,7.39-3.25,1.34-.6,6.67-2.26,7.31-3.41,23.15-41.55,36.11-91.56,17.06-138.1.18.44-13.04,6.34-12.81,6.94h0Z"/>
    <path class="cls-2" d="M1380.9,1728.8c119.27-7.98,235.86-34.15,346.8-77.59,4.71-1.84,8.36-7.99,12.97-9.89-110.92,44.82-227.12,73.16-346.08,82.31-4.54.35-9.21,4.9-13.69,5.17h0Z"/>
  </g>
</svg>