<?xml version="1.0" encoding="UTF-8"?>
<svg id="Layer_1" data-name="Layer 1" xmlns="http://www.w3.org/2000/svg" viewBox="0 0 511.68 513.09">
  <defs>
    <style>
      .cls-1 {
        opacity: .8;
      }
    </style>
  </defs>
  <g class="cls-1">
    <path d="M406.33,464.45c8-6.35,16.25-12.45,23.75-19.4,8.73-8.1,16.65-16.99,24.15-26.23s14.32-19.93,21.31-30.15c7.33-10.72,12.54-23.9,17.65-35.83,1.09-2.55,1.4-5.1,2.31-7.72,1.06-3.06,2.21-6.09,3.23-9.16,2.13-6.42,4-12.93,5.6-19.5,2.99-12.26,5.08-24.73,6.25-37.3,2.34-25.33.94-51.02-4.34-75.91s-13.09-46.85-24.5-68.14c-11.12-20.74-24.76-40.14-40.99-57.2-3.99-4.19-8.13-8.24-12.41-12.14-4.31-3.93-9-6.71-13.42-10.4-8.9-7.42-18.34-14.18-28.23-20.22-18.87-11.53-39.34-20.38-60.64-26.3-42.76-11.89-88.57-11.72-131.35,0-43.91,12.03-82.82,36.27-115.66,67.5C42.25,111.34,17.45,157.11,6.22,206.39c-10.17,44.61-7.7,92.07,6.17,135.6,14.32,44.94,41.07,85.75,77.23,116.12,9.61,8.07,19.8,15.42,30.93,21.27s21.78,9.71,33.06,13.66c26.67,9.34,53.56,16.45,81.86,18.31,13.28.87,26.59.69,39.85-.42,2.75-.23,4.99-6.21,7.66-6.43-26.53,2.22-53.31.56-79.31-5.2-13.17-2.92-26.01-6.99-38.74-11.41-10.97-3.8-21.93-7.64-32.37-12.74-40.89-19.94-73.82-57.73-94.84-97.48C-5.61,295.75-1.48,193.28,49.11,115.48c13.37-20.57,29.85-40.63,49.26-55.76s39.5-26.47,61.51-35.3c39.42-15.83,82.76-21.44,124.89-15.95,42.47,5.54,83.16,22.41,116.9,48.83,8.62,6.75,17.16,12.92,25.05,20.6s15.81,16.55,22.8,25.59c13.76,17.79,25.07,37.37,34.29,57.86,2.23,4.95,3.48,10.36,5.36,15.52,2.1,5.76,3.98,11.6,5.64,17.5,3.31,11.81,5.72,23.86,7.24,36.03,3.01,24.11,2.53,48.65-1.36,72.64-1.93,11.89-4.69,23.64-8.28,35.14-1.72,5.5-4.3,10.96-5.63,16.55-1.45,6.09-4.7,11.86-7.32,17.65-2.48,5.47-4.98,10.94-7.76,16.27-3.05,5.84-7.06,11.08-10.51,16.71-6.31,10.31-14.31,19.55-21.96,28.87-3.44,4.19-7.73,7.47-11.32,11.51-4.3,4.85-9.17,8.48-14.22,12.5-2.35,1.87-5.52,4.75-7.37,6.22h0Z"/>
  </g>
  <g>
    <path d="M14.93,7.41c-4.39,2.3-8.07,5.3-10.71,9.56C1.15,21.92.55,28.44.2,34.13c-.69,11.23,6.82,19.41,14.06,26.96,14.38,14.98,29.76,29.04,44.7,43.46,32.2,31.07,64.28,62.5,97.39,92.59,7.59,6.9,16.17,12.71,23.76,19.63s17.24,15.02,21.21,25.25c.82,2.11,1.53,4.34,1.88,6.58s-.17,5.36.92,7.54c1.73,3.45,6.5,6.85,9.13,9.54,7.49,7.66,15.03,15.27,22.39,23.05,30.28,32,61.12,63.44,91.65,95.2,31.21,32.48,61.64,65.71,92.84,98.2,1.63,1.69,8.43,10.24,10.49,7.91.81-.91,1.84-8.82,1.37-9.91-4.21-9.63-12.54-17.43-19.27-25.33s-13.2-15.51-19.87-23.21c-13.27-15.3-26.73-30.4-40.44-45.31-28.57-31.06-57.78-61.53-86.28-92.66-8.22-8.98-16.54-17.86-24.73-26.85-4.27-4.69-8.67-9.3-12.83-14.09-3.21-3.7-5.66-7.35-5.56-12.36l-1.33,9.73c1.33-7.23,10-11.39,16.71-8.91s12.29,9.83,17.24,14.65c12.22,11.92,24.3,23.99,36.51,35.93,22.67,22.15,45.18,44.48,67.8,66.68,24.37,23.92,49.22,47.33,74.05,70.78,5.56,5.25,11.16,10.42,16.91,15.46,3.19,2.79,6.35,5.7,9.75,8.24,1.26.94,6.59,4.91,8.01,3.91.96-.69,1.22-7.72,1.25-8.84.04-1.71-.23-2.75-1.14-4.23-2.11-3.45-5.58-6.25-8.38-9.12-5.53-5.68-11.04-11.36-16.78-16.83-11.37-10.83-22.04-22.39-33.18-33.46-12-11.94-23.86-24.01-35.79-36.02-22.6-22.75-45.01-45.69-67.33-68.71-11.25-11.6-22.68-23.03-34.2-34.36-5.61-5.52-11.24-11.01-16.86-16.52-2.96-2.89-5.95-5.75-8.85-8.7-2.52-2.56-5.43-7.08-9.01-8.13-7.46-2.19-14.96-1.69-21.23-7.27s-11.57-11.88-16.88-18.18c-9.79-11.6-19.4-23.23-29.56-34.52-22.65-25.17-46.04-49.66-68.87-74.66-10.59-11.59-21.18-23.24-32.1-34.51-5.98-6.17-11.77-12.52-17.65-18.79-4.73-5.03-9.51-11.19-15.47-14.8-6.84-4.15-14.36-4.42-21.69-1.75-1.52.56.03,9.4-1.37,9.91,10.9-3.97,20.07-.5,28.22,7.2s15.21,16.04,22.7,24.03c13.92,14.86,27.85,29.71,41.59,44.75,28.32,31.02,57.8,61.02,84.73,93.26,6.52,7.81,12.77,15.88,19.99,23.07,4.04,4.02,7.74,7.8,13.31,9.54,2.19.68,4.44,1.12,6.68,1.61s5.38.29,7.4,1.4c3.74,2.06,6.68,6.62,9.76,9.65,3.55,3.5,7.12,6.97,10.68,10.46,7.73,7.58,15.49,15.13,23.14,22.79,30.27,30.26,59.86,61.19,89.98,91.6,29.48,29.77,59.25,59.26,88.57,89.18,3.05,3.11,7.53,6.43,8.32,10.94l1.37-9.91c-3.06,3.78-41.9-34.44-45.87-38.18-16.62-15.69-33.26-31.36-49.67-47.26s-32.02-31.2-47.89-46.94-32.02-31.46-48.01-47.21c-7.87-7.75-15.64-15.6-23.55-23.31-6.2-6.04-13.83-16.01-23.61-12.9-4.67,1.49-7.84,5.63-8.58,10.3-.9,5.67-2.35,11.21.75,16.36,5.1,8.46,13.48,15.78,20.19,23,15.39,16.54,30.67,33.18,46.07,49.7,15.54,16.66,31.11,33.28,46.63,49.95,14.07,15.11,27.97,30.36,41.6,45.86,14.95,17,29.5,34.33,44.36,51.4,3.29,3.78,6.17,7.77,8.19,12.37l1.37-9.91c-2.05,2.31-8.82-6.17-10.49-7.91-3.33-3.47-6.8-6.8-10.06-10.34-7.51-8.15-15.04-16.29-22.59-24.4-13.27-14.25-26.59-28.46-40.06-42.51-30.25-31.53-60.84-62.71-91.06-94.26-14.77-15.42-29.4-30.93-44.33-46.19-2.31-2.36-6.39-5.27-7.9-8.29-1.07-2.14-.55-5.08-.9-7.38s-1.05-4.59-1.89-6.75c-3.88-10-12.62-17.04-20.18-24.27s-15.6-12.75-23.28-19.26-14.16-13.27-21.15-19.9c-15.23-14.44-30.4-28.92-45.63-43.35-14.76-13.98-29.39-28.09-44.04-42.17-7.97-7.67-15.97-15.31-23.87-23.05-7.15-7.01-15.25-13.9-20-22.85-2.28-4.3-3.08-8.58-2.94-13.43L.21,33.72c1.79-7.5,6.59-12.86,13.35-16.4,1.77-.92-.29-9.04,1.37-9.91Z"/>
    <path d="M128.09,135.61c4.25-.59,8.36,1.64,9.64,5.88,1.2,3.96-2.43,1.16,1.26-4.55-.47.73-.69,1.59-1.22,2.3-1.24,1.66-3.1,2.85-5.14,3.24-3.87.73-7.8-1.4-9.33-5.02-.81-1.93-.27-5.36-1.11.5s-.43,2.48.77.88c1.28-1.72,3.08-2.72,5.14-3.24.34-.09.67-4.47.73-4.95s.34-4.89.63-4.96c-7.29,1.83-7.24,9.56-7.97,15.71s2.87,12.28,9.78,10.97,7.17-9.51,7.91-15.21c.37-2.84.49-5.53-1.24-8.01-1.95-2.8-5.17-3.92-8.47-3.46-.96.13-.55,9.79-1.37,9.91Z"/>
    <path d="M82.02,89.65c4.25-.59,8.36,1.64,9.64,5.88,1.2,3.96-2.43,1.16,1.26-4.55-.47.73-.69,1.59-1.22,2.3-1.24,1.66-3.1,2.85-5.14,3.24-3.87.73-7.8-1.4-9.33-5.02-.81-1.93-.27-5.36-1.11.5s-.43,2.48.77.88c1.28-1.72,3.08-2.72,5.14-3.24.34-.09.67-4.47.73-4.95s.34-4.89.63-4.96c-7.29,1.83-7.24,9.56-7.97,15.71s2.87,12.28,9.78,10.97,7.17-9.51,7.91-15.21c.37-2.84.49-5.53-1.24-8.01-1.95-2.8-5.17-3.92-8.47-3.46-.96.13-.55,9.79-1.37,9.91Z"/>
    <path d="M35.32,43.32c4.25-.59,8.36,1.64,9.64,5.88,1.2,3.96-2.43,1.16,1.26-4.55-.47.73-.69,1.59-1.22,2.3-1.24,1.66-3.1,2.85-5.14,3.24-3.87.73-7.8-1.4-9.33-5.02-.81-1.93-.27-5.36-1.11.5s-.43,2.48.77.88c1.28-1.72,3.08-2.72,5.14-3.24.34-.09.67-4.47.73-4.95s.34-4.89.63-4.96c-7.29,1.83-7.24,9.56-7.97,15.71s2.87,12.28,9.78,10.97,7.17-9.51,7.91-15.21c.37-2.84.49-5.53-1.24-8.01-1.95-2.8-5.17-3.92-8.47-3.46-.96.13-.55,9.79-1.37,9.91Z"/>
  </g>
  <g>
    <path d="M466.97,28.37c-8.16-8.23-15.21-18.76-26.64-22.54-2.75-.91-3.83,1.73-5.54,3.61-3.18,3.49-6.36,6.97-9.56,10.44-6.22,6.75-12.49,13.46-18.79,20.14-25.09,26.6-50.74,52.67-76.6,78.52-52.53,52.52-105.94,104.16-157.72,157.43-25.76,26.49-51.11,53.39-75.68,81-12.03,13.52-23.88,27.21-35.47,41.11-5.85,7.01-11.64,14.07-17.35,21.19s-9.8,15.13-13.53,23.41c-7.06,15.69-11.87,32.63-11.96,49.93-.02,2.95.07,5.89.15,8.84.01.47.03.93.05,1.4.04,1.56-.05-2.17-.02-.48.02.79.03,1.4.05,2.17.05,2.01.05,3.66.61,5.54.19.63.6,2.64,1.26,2.96,1.02.49,5.53-1.87,6.54-2.24,34.53-12.74,64.74-36.12,93.29-58.77,60.38-47.91,116.37-101.04,171.68-154.63,6.69-6.48,13.36-12.96,20.04-19.45.65-.63.27-9.14-.23-10-4.59-7.92-11.6-14.11-17.83-20.7-2.88-3.04-5.57-6.19-7.99-9.61-2.22-3.13-5.63-5.32-6.06-9.3l.24,9.82c.19-7.44,8.92-11.19,14.33-14.54,8.82-5.47,17.52-11.1,26.43-16.42,4.58-2.74,9.61-5.2,13.9-8.36s8.45-7.52,12.45-11.33c7.51-7.14,14.75-14.57,21.81-22.16,29.27-31.48,55.41-65.68,83.81-97.92,5.92-6.73,14.89-13.37,16.6-22.71.59-3.24.21-6.76.11-10.02-.08-2.7-.98-3.97-2.38-6.32,1.46,2.47-1.27,7.47.23,10l2.28,3.85-.24-9.82c-.51,10.47-10.43,17.8-16.83,25.02-7.8,8.8-15.39,17.79-22.94,26.81-16.07,19.21-31.87,38.65-48.46,57.41-8.3,9.38-16.8,18.6-25.65,27.48s-16.84,17.22-27.08,23.38c-11.1,6.67-22.18,13.33-33.06,20.34-5.54,3.57-14.7,7.16-15.53,14.66-.38,3.44-.17,7.38.21,10.83.31,2.79,1.5,3.89,3.34,5.88s3.13,4.13,4.74,6.21c7.43,9.58,17.67,16.92,23.8,27.51l-.23-10c-36.79,35.76-73.65,71.48-111.71,105.89s-75.21,67.01-116.4,95.54c-11.5,7.97-23.33,15.51-35.75,21.96-5.82,3.02-11.77,5.8-17.87,8.21-1.37.54-8.71,4.14-9.81,3.49-.97-.57-1.31-3.21-1.72-4.16l.16,5c-.07-2.74-.15-5.47-.22-8.21-.08-3.33.37,5.08.18,4.58-.44-1.15.21-4.45.35-5.94.29-3.21.73-6.41,1.3-9.58,2.11-11.64,6.04-22.93,11-33.66,2.33-5.03,4.89-9.95,7.65-14.76,3.02-5.26,7.42-9.89,11.25-14.59,7.46-9.16,15.03-18.22,22.7-27.2,30.73-35.99,62.98-70.66,95.91-104.64,66.99-69.12,136.84-135.4,204.02-204.34,18.27-18.75,36.35-37.7,54.08-56.96,2.4-2.6,4.79-5.21,7.17-7.83,1.3-1.43,3.3-4.78,5.06-5.18s4.21,1.62,5.79,2.28c9.33,3.88,15.55,13.5,22.52,20.53-.49-.49-.05-4.24-.06-5-.02-.89.49-4.34-.16-5Z"/>
    <path d="M437.36,46.12c-2.16-.32-4.1-1.17-5.46-2.93-.65-.85-.92-1.75-1.35-2.7-.54-1.2-.34-4.95-.15,2.52.18,7.03-.17,3.84.29,2.5,1.42-4.15,4.31-6.93,8.98-6.34,2.05.26,3.95,1.1,5.29,2.71.65.78,1.12,1.69,1.43,2.66.14.44.19.91.33,1.35-3.34-10.4.51-9.19-.32-6.37-1.29,4.36-4.27,7.12-9.04,6.61.35.04-.27,9.94.23,10,7,.75,9.34-5.15,9.25-11.04s.8-14.87-7.38-15.91c-6.99-.89-9.33,5.25-9.25,11.04.1,6.33-.81,14.7,7.38,15.91-.48-.07.4-9.9-.23-10Z"/>
  </g>
  <path d="M251.11,315.4c-4.46,4.12-8.93,8.25-13.39,12.37l-26.56,24.54c-6.42,5.93-12.85,11.87-19.27,17.8-2.72,2.52-5.61,4.86-8.43,7.26-8.37,7.11-16.73,14.22-25.1,21.33s-17.27,14.67-25.9,22.01c-3.34,2.83-6.65,5.69-10.02,8.49-8.02,6.67-16.03,13.33-24.05,20-4.78,3.98-9.39,8.29-14.6,11.71l-26.71,17.48c-.73.48-1.46.96-2.19,1.43.02-.02.88,1.21.92,1.19,7.74-5.06,15.48-10.13,23.22-15.19,2.71-1.77,5.57-3.42,8.17-5.35,2.13-1.58,4.11-3.42,6.15-5.11,8.74-7.27,17.48-14.54,26.22-21.81,3.17-2.64,6.33-5.29,9.48-7.97,7.8-6.63,15.61-13.26,23.41-19.89,8.98-7.63,17.95-15.25,26.93-22.88,4.04-3.43,8.17-6.78,12.13-10.31,4.92-4.38,9.69-8.95,14.53-13.43,8.87-8.19,17.73-16.38,26.6-24.57,6.15-5.69,12.31-11.37,18.46-17.06l.94-.87s-.94-1.16-.92-1.19h0Z"/>
</svg>