<?xml version="1.0" encoding="UTF-8"?>
<svg id="Layer_10" xmlns="http://www.w3.org/2000/svg" version="1.1" viewBox="0 0 1200 1200">
  <!-- Generator: Adobe Illustrator 30.2.1, SVG Export Plug-In . SVG Version: 2.1.1 Build 1)  -->
  <defs>
    <style>
      .st0 {
        fill: #e8b4a0;
      }

      .st1 {
        opacity: .8;
      }
    </style>
  </defs>
  <g class="st1">
    <path class="st0" d="M924.91,1020.7c12.27-9.79,25.23-18.85,36.48-29.85,5.66-5.53,10.48-11.78,16.32-17.13,5.61-5.14,10.95-10.17,15.75-16.1,9.98-12.31,20.21-24.42,29.73-37.1,9.95-13.26,17.76-27.82,27.51-41.19,9.88-13.55,16.52-29.68,23.44-44.91,3.56-7.83,7.06-15.68,10.72-23.47,1.69-3.6,3.91-7.23,5.21-10.99,1.05-3.01.65-6.09,1.82-9.15,11.51-30.07,20.09-61.29,25.82-92.97,11.34-62.81,11.29-127.69-.56-190.42-5.94-31.45-14.91-62.25-26.7-92.01-1.21-3.06-1.1-5.51-1.75-8.58-.74-3.54-2.91-7.14-4.4-10.44-3.17-7.03-6.46-14.01-9.88-20.93-6.53-13.24-13.51-26.26-20.97-39-14.99-25.59-31.94-50.03-50.92-72.83-9.49-11.41-19.49-22.4-29.95-32.92-5.5-5.53-11.12-10.93-16.87-16.19-4.87-4.46-9.77-9.68-15.32-13.28-4.23-2.75-8.78-4.51-13.31-6.62l8.59,4.77c-12.85-9.67-24.78-20.44-37.91-29.8-12.32-8.78-25.06-16.98-38.13-24.59-25.43-14.8-51.74-27.99-79.23-38.53-58-22.25-120.12-33.37-182.22-33.04-62.53.34-124.9,12.26-183.19,34.9-63.93,24.84-122.64,62.24-172.3,109.53-51.64,49.17-92.34,110.07-120.55,175.4-7.3,16.91-13.91,34.21-18.34,52.1s-9.92,36.21-13.48,54.7c-6.13,31.92-9.31,64.39-9.52,96.89-.42,64.41,10.83,128.84,33.11,189.28,22.35,60.61,55.81,117.08,98.74,165.38,24.37,27.42,51.75,52.59,81.75,73.75,24.96,17.61,52.53,31.85,80.94,42.98,35.42,13.88,72.05,26.35,109.08,35.15,37.51,8.91,75.97,13.77,114.52,14.5,18.96.36,37.91-.32,56.81-1.94-2.72.23-5.95-5.08-8.75-4.84-75.77,6.49-150.99-3.7-223.08-27.46-34.62-11.41-71.01-22.61-102.41-41.56s-58.81-42.66-83.93-68.4c-44.59-45.68-80.29-99.78-105.28-158.5-24.59-57.76-38.83-119.86-42.04-182.54-1.62-31.56-.45-63.26,3.53-94.61,1.99-15.66,4.65-31.24,8.05-46.65,2.09-9.47,4.72-18.81,7.27-28.16s4.45-18.54,7.44-27.59c22.02-66.72,58.86-128.48,104.89-181.36,44.51-51.13,99.52-92.81,160.3-122.74,55.69-27.43,116.13-44.86,177.93-50.94,60.23-5.92,121.48-1.09,179.96,14.53,62.13,16.6,119.94,45.17,170.28,85.24,5.69,4.53,11.03,9.95,17.01,14.06,4.26,2.92,9.05,4.69,13.67,6.84l-8.59-4.77c11.62,8.74,22.19,19.52,32.41,29.83s20.05,21.13,29.37,32.33c18.45,22.17,35,45.89,49.68,70.71,7.37,12.47,14.28,25.2,20.75,38.16,3.2,6.4,6.29,12.85,9.28,19.36,1.5,3.26,2.98,6.54,4.43,9.83s1.77,5.89,2.3,9.34,2.49,6.91,3.73,10.12c1.37,3.56,2.7,7.14,3.98,10.73,2.67,7.46,5.16,14.99,7.46,22.57,4.53,14.87,8.35,29.96,11.47,45.19,12.53,61.08,13.79,124.39,4.15,185.98-4.84,30.93-12.43,61.43-22.71,91-2.27,6.54-5.83,13.22-6.38,20.12-.28,3.62-2.26,6.72-3.8,9.94-1.88,3.93-3.72,7.89-5.53,11.85-6.79,14.83-13.3,29.8-20.78,44.31-1.77,3.43-3.5,6.92-5.47,10.23-2.23,3.75-5.11,7.14-7.57,10.76-4.52,6.65-8.32,13.76-12.79,20.44-8.7,12.99-18.35,25.28-28.23,37.38-4.93,6.04-9.84,12.09-14.79,18.11s-10.38,10.49-15.78,15.59c-5.37,5.07-9.84,10.95-15.16,16.07-5.64,5.44-11.7,10.41-17.86,15.23s-12.06,9.27-18,14.01c.94-.75,7.7,5.68,8.75,4.84h0Z"/>
  </g>
  <g>
    <path class="st0" d="M106.51,94.74l-4.65,2.43-5.01,3.25-6.09,5.78-3.99,4.74-1.95,2.86-3.29,5.78-1.47,4.61-1.02,4.28-.15,5.38.51,5.76.67,3.81,1.52,5.24,1.89,4.5,4.11,7.45,3.11,4.7,5.4,7.13,18.24,19.01,22.3,21.87,53.39,51.34,46.09,44.47,30.15,28.47,62.52,59.47,53.14,50.38s9.69,9.36,10.16,9.61c.47.25,4.18,3.92,4.18,3.92l6.47,5.96,21.51,17.05,24.38,20.55,24.48,23.65,11.85,13.46,4.51,7.68,4.35,10.25,2.71,10.54.48,6.53.55,5.99s.86,3.17.88,3.34c.03.16.98,1.74.98,1.74l3.24,3.01,51.2,52.34,51.58,54.51,52.58,54.41s36.85,36.7,36.95,37.27c.1.57,22.06,22.92,22.06,22.92l26.33,27.91,52.13,54.25,53.03,56,11.48,12.3,38.1,40.91s24.77,26.77,24.82,27.01c.04.24,13.29,13.47,13.29,13.47l13.06,13.6s7.72,7.29,7.77,7.62c.06.32,5.14,3.25,5.14,3.25l1.07-.19,1.06-1.19-2.27-5.19-2.96-4.81-5.88-8.88-10.19-11.7-23.26-27.3-36.01-42.04-32.91-37.42s-15.61-18.48-15.86-18.44-32.54-35.31-32.54-35.31l-30.76-33.38-50.04-53.45-46.87-50.35-44.22-47.32-33.01-36.06-21.09-22.67-15.95-17.5-15.74-17.29-3.62-4.69-2.88-4.33-1.62-2.97-1.05-2.57-.88-2.6-.28-3.96.06-3.02.6-3.29,1.02-2.36.97-2.18,4.72-4.87,3.35-2.61,2.75-2.17,3.87-1.54,4.3-1.03h3.72s4.15,0,4.15,0l4.26,1.15,2.77.84,3.82,2.48,7.53,6.24,11.09,10.11,29.12,28.41,25.7,25.77,31.77,30.94s37.96,37.25,38,37.5,10.1,9.79,10.1,9.79l19.31,19.32,12.49,12.28,35.41,34.79,16.84,16.34,34.07,33.44,13.53,12.93,45.51,43.58,46.49,43.9,24.06,22.72s16.38,15.17,16.62,15.54,12.31,10.81,12.31,10.81l8.02,7.07,13.77,11.38,7.44,4.75,5.34,2.46,2.65,1.11.56-.69-.29-1.62-.92-2.84-2.75-4.1s-6.61-7.75-6.65-7.49c-.04.26-12.97-13.11-12.97-13.11l-20.24-20.74-19.53-18.61-9.69-9.86-20.33-21.22-11.82-11.4-15.8-16.19-24.47-24.07-18.43-18.64-18.92-19.47-16.46-16.58-14.63-14.82-31.34-31.35-21.55-22.42-19.71-20.25-16.35-16.76-13.87-13.87-17.94-18.73-30.83-31.36-24.35-24.34-15.16-14.97-29.87-29.27-21.68-21.23-14.37-14.78-2.34-2.25-4.68-1.58-4.5-.1-8.44-1.81-10.13-2.26-7.49-2.65-6.66-3.72-4.91-3.87-12.79-12.56-11.62-12.61-14.44-17.11-5.54-6.94-9.21-10.95-7.26-9.05-5.11-6.43-9.86-10.83-4.65-5.26-11.67-12.93-21.47-23.86-28.11-30.35-23.08-25.32-25.69-27.19-16.04-17.07-38.17-41.81-19.24-20.34-25.98-28.81-15.39-15.77-35.75-38.16-15.09-15.99-12.48-11.28-6.94-3.84-7.62-2.88-7.27-1.86-10.37-.29-5.18.35-4.39,1.47-5.49,2ZM342.08,338.06c9.4-1.83,18.48,4.42,20.29,13.95,1.8,9.53-4.36,18.74-13.76,20.57s-18.48-4.42-20.29-13.95c-1.8-9.53,4.36-18.74,13.76-20.57ZM247.31,243.53c9.4-1.83,18.48,4.42,20.29,13.95,1.8,9.53-4.36,18.74-13.76,20.57-9.4,1.83-18.48-4.42-20.29-13.95-1.8-9.53,4.36-18.74,13.76-20.57ZM151.26,148.23c9.4-1.83,18.48,4.42,20.29,13.95,1.8,9.53-4.36,18.74-13.76,20.57-9.4,1.83-18.48-4.42-20.29-13.95-1.8-9.53,4.36-18.74,13.76-20.57Z"/>
    <g>
      <path class="st0" d="M109.55,90.77c-5.18,2.71-9.5,5.53-13.74,9.56-4.45,4.23-8.26,9.26-11.83,14.23-6.39,8.89-9.07,18.01-7.63,28.93,2.81,21.29,20.73,37.57,34.99,51.97,15.65,15.8,31.87,31.07,47.9,46.48,15.65,15.05,31.29,30.1,46.91,45.17,17.24,16.64,34.55,33.18,51.97,49.64,16.62,15.69,33.14,31.49,49.7,47.24,14.7,13.99,29.43,27.95,44.15,41.92,15.83,15.01,31.23,31.03,47.87,45.14,16.28,13.81,33.92,26.06,49.31,40.93s35.14,30.48,41.84,52.45c1.71,5.6,2.51,10.82,3,16.6.24,2.83.28,5.83,1.29,8.52.87,2.3,2.63,3.51,4.36,5.19,7.88,7.7,15.42,15.77,23.13,23.64,14.81,15.14,29.57,30.28,44.12,45.66,14.72,15.55,29.36,31.17,44.24,46.56,15.89,16.45,31.57,33.13,47.76,49.28,17.69,17.65,34.91,35.68,52.39,53.52,13.27,13.54,26.06,27.57,39.2,41.25,15.33,15.95,30.74,31.82,45.95,47.88,16.59,17.52,33.27,34.96,49.77,52.57,16.17,17.26,32.27,34.59,48.37,51.91,14.28,15.36,28.59,30.59,43.11,45.72,3.74,3.89,7.42,7.81,11.32,11.54,2.65,2.54,8.8,10.71,12.36,6.68.73-.83,6.32-6.98,5.96-7.81-4.55-10.4-11.25-19.04-18.66-27.55-7.58-8.71-15.01-17.55-22.51-26.34-13.12-15.4-26.21-30.83-39.48-46.1-27.9-32.13-56.14-63.85-84.97-95.13-29.45-31.95-59.22-63.6-88.83-95.41-30.19-32.43-60.65-64.63-90.57-97.32-14.75-16.12-29.73-32.04-44.44-48.19-7.85-8.62-15.7-17.24-23.55-25.86-6.35-6.98-14.76-15-16.63-24.66-1.01-5.2.32-9.84,2.4-14.52l-6.08,7.94c3.38-3.49,6.98-7.52,11.31-9.85s10.57-3.03,15.55-2.38c11.07,1.44,19.81,12,27.61,19.11,16.66,15.19,32.4,31.52,48.31,47.48,14.18,14.22,28.7,28.1,43.03,42.17,16.95,16.64,33.98,33.21,50.77,50,17.07,17.07,34.31,33.97,51.53,50.88,15.46,15.19,31.03,30.27,46.5,45.45,15.16,14.88,30.51,29.54,45.85,44.23,16.71,16,33.45,31.95,50.27,47.83,16.13,15.23,32.18,30.55,48.39,45.69,9.14,8.53,18.24,17.04,27.67,25.24,7.67,6.67,15.19,14.02,23.56,19.79,4.62,3.18,9.38,5.6,14.55,7.76l.12-.13c1.81-2.23,5.74-5.61,6.42-8.34.53-2.12-1.36-4.98-2.49-6.66-2.6-3.87-5.79-7.34-9.14-10.55-8.48-8.15-16.5-16.85-24.72-25.27-14.6-14.96-29.96-29.1-44.42-44.2-30.37-31.71-62.25-61.96-92.85-93.46-30.59-31.49-61.93-62.24-92.41-93.84-30.46-31.59-61.23-62.88-92-94.18-30.37-30.89-61.44-61.09-92.39-91.4-7.2-7.05-14.03-14.46-21.24-21.49-3.94-3.84-10.31-3.05-15.4-4.15s-10.16-1.92-15.03-3.48c-11.51-3.68-18.92-10.84-27.37-19.14-7.15-7.02-13.8-14.52-20.26-22.18-14.05-16.65-27.18-34.22-41.84-50.32-14.13-15.52-27.97-31.32-42.14-46.82-30-32.82-60.37-65.28-90.82-97.68-13.95-14.85-27.3-30.26-41.26-45.09-15.01-15.95-29.46-32.45-44.49-48.36-16.27-17.22-32.71-34.27-48.91-51.56-13.28-14.17-26.29-31.38-45.89-36.49-5.28-1.38-10.26-1.77-15.75-1.67s-10.01,1.98-15.06,3.82c-2.68.97-3.48,6.99-6.08,7.94,5.1-1.86,9.69-3.73,15.18-3.81,5.92-.09,11.32.31,16.98,2.01,4.87,1.46,9.7,3.53,14.01,6.26,4.64,2.95,8.78,7.37,12.77,11.16,6.34,6.02,12.13,12.7,18.11,19.08,9.6,10.25,19.2,20.49,28.8,30.74,28.38,30.29,56.76,60.57,84.75,91.23,28.25,30.94,56.99,61.44,85.46,92.17,15.88,17.14,31.64,34.35,47.27,51.7,6.37,7.07,12.68,14.2,19.09,21.23,7.14,7.84,13.59,16.1,20.35,24.27,13.46,16.29,26.49,33.26,41.49,48.18,7.86,7.82,15.33,16.23,26.03,20.02,5.04,1.79,10.11,2.89,15.34,4.03,2.68.58,5.43,1.4,8.15,1.7,2.96.33,5.42,0,8.2,1.43,4.51,2.32,8.49,8.07,11.98,11.66,3.01,3.1,6.03,6.18,9.12,9.2,7.43,7.28,14.87,14.56,22.3,21.84,15.87,15.56,31.78,31.08,47.49,46.79,31.63,31.63,62.82,63.69,94.05,95.71,29.82,30.58,59.69,61.07,89.74,91.42,30.62,30.92,61.52,61.59,91.91,92.73,29.35,30.08,59.57,59.27,88.92,89.34,6.57,6.74,16.77,14.17,18.49,23.92,1.99-2.6,3.97-5.2,5.96-7.81-1.64,2.02-12.96-5.86-14.69-7.02-4.77-3.18-9.04-7.25-13.45-10.9-7.65-6.34-15.36-12.94-22.52-19.81-15.08-14.46-30.48-28.6-45.68-42.95-16.4-15.49-32.86-30.92-49.15-46.52s-34.01-32.33-50.85-48.67c-16.79-16.28-33.41-32.74-50.17-49.05-15.85-15.44-31.59-30.99-47.35-46.52-15.14-14.93-30.17-29.96-45.32-44.88-17.37-17.11-34.83-34.13-52.3-51.15-15.15-14.75-29.92-29.88-45.06-44.65-7.72-7.53-15.37-15.14-23.51-22.23-3.85-3.35-8.2-7.78-13.18-9.29s-9.86-2.13-14.8-1.03c-10.01,2.22-20.23,12.56-24.27,21.77-4.58,10.43.7,19.75,7.05,27.99s13.66,15.31,20.53,22.85c8.03,8.82,16.1,17.59,24.22,26.32,14.39,15.47,28.52,31.18,42.88,46.67,14.83,16,29.81,31.85,44.68,47.81,15.47,16.6,30.89,33.24,46.38,49.82,16.5,17.66,33.09,35.23,49.55,52.93,14.02,15.08,27.92,30.28,41.82,45.46,14.66,16,28.98,32.15,43.31,48.43,16.01,18.2,31.94,36.45,47.71,54.87,13.99,16.33,27.8,32.81,41.92,49.02,7.2,8.27,13.66,16.77,18.08,26.88l5.96-7.81c-3.4,3.84-11.39-6.22-13.71-8.47-4.08-3.93-7.91-8.12-11.83-12.21-6.4-6.66-13.01-13.1-19.25-19.92-16.77-18.35-33.76-36.49-50.7-54.68-27.39-29.41-54.96-58.66-82.81-87.64-31.05-32.31-61.83-64.91-92.88-97.21-30.11-31.32-61.19-61.68-91.06-93.25-32.64-34.49-65.05-69.3-98.83-102.69-3.46-3.42-5.28-5.62-5.74-10.65-.51-5.55-.92-10.74-2.3-16.15-2.65-10.34-7.35-19.62-14.39-27.61-15.07-17.11-32-32.2-49.4-46.86-8.51-7.17-17.26-14.03-25.98-20.95-8.16-6.47-15.57-14.08-23.09-21.27-17.13-16.39-34.42-32.64-51.62-48.95-31.23-29.61-62.46-59.24-93.66-88.88-32.64-31-64.84-62.49-97.29-93.7-14.63-14.07-29.87-28.1-43.21-43.42-12.84-14.74-23.96-37.21-13.22-56.06.67-1.17,1.33-2.35,2.05-3.48.42-.65.88-1.26,1.3-1.91-7.48,11.53-7.26,9.21-4.86,6.42,1.86-2.16,3.64-4.18,5.7-6.14,3.97-3.77,8.2-6.37,13.05-8.91,2.7-1.41,3.43-6.55,6.08-7.94Z"/>
      <path class="st0" d="M339.04,342.03c6.81-1.05,13.52,1.46,17.49,7.23,1.91,2.78,2.98,6.06,3.1,9.43.06,1.76-.14,3.52-.6,5.22-.7,2.59-3.94,7.12,1.63-.02l.92-1.14c-6.04,6.68-16.02,8.29-23.44,2.77-3.35-2.49-5.69-6.14-6.62-10.2-.5-2.2-.6-4.45-.25-6.68.49-3.17,4.3-8.99-1.23-1.9l-.92,1.14c2.74-3.03,5.96-4.93,9.93-5.86.88-.21,2.52-3.21,3.08-3.94s2.11-3.79,3-4c-5.51,1.29-8.91,4.49-12.26,8.81-2.81,3.63-6.07,7.23-7.29,11.77-3.28,12.17,7.46,24.31,19.99,21.88,5.04-.98,8.59-4.09,11.64-8.01s6.61-7.74,7.91-12.57c3.38-12.54-7.51-23.8-19.99-21.88-.79.12-2.58,3.29-3.08,3.94s-2.2,3.88-3,4Z"/>
      <path class="st0" d="M244.27,247.5c6.81-1.05,13.52,1.46,17.49,7.23,1.91,2.78,2.98,6.06,3.1,9.43.06,1.76-.14,3.52-.6,5.22-.7,2.59-3.94,7.12,1.63-.02l.92-1.14c-6.04,6.68-16.02,8.29-23.44,2.77-3.35-2.49-5.69-6.14-6.62-10.2-.5-2.2-.6-4.45-.25-6.68.49-3.17,4.3-8.99-1.23-1.9l-.92,1.14c2.74-3.03,5.96-4.93,9.93-5.86.88-.21,2.52-3.21,3.08-3.94s2.11-3.79,3-4c-5.51,1.29-8.91,4.49-12.26,8.81-2.81,3.63-6.07,7.23-7.29,11.77-3.28,12.17,7.46,24.31,19.99,21.88,5.04-.98,8.59-4.09,11.64-8.01s6.61-7.74,7.91-12.57c3.38-12.54-7.51-23.8-19.99-21.88-.79.12-2.58,3.29-3.08,3.94s-2.2,3.88-3,4Z"/>
      <path class="st0" d="M148.22,152.2c6.81-1.05,13.52,1.46,17.49,7.23,1.91,2.78,2.98,6.06,3.1,9.43.06,1.76-.14,3.52-.6,5.22-.7,2.59-3.94,7.12,1.63-.02l.92-1.14c-6.04,6.68-16.02,8.29-23.44,2.77-3.35-2.49-5.69-6.14-6.62-10.2-.5-2.2-.6-4.45-.25-6.68.49-3.17,4.3-8.99-1.23-1.9l-.92,1.14c2.74-3.03,5.96-4.93,9.93-5.86.88-.21,2.52-3.21,3.08-3.94s2.11-3.79,3-4c-5.51,1.29-8.91,4.49-12.26,8.81-2.81,3.63-6.07,7.23-7.29,11.77-3.28,12.16,7.46,24.31,19.99,21.88,5.04-.98,8.59-4.09,11.64-8.01s6.61-7.74,7.91-12.57c3.38-12.54-7.51-23.8-19.99-21.88-.79.12-2.58,3.29-3.08,3.94s-2.2,3.88-3,4Z"/>
    </g>
  </g>
  <g>
    <path class="st0" d="M1037.91,137.94c-11.5-11.4-26.59-30.17-39.8-39.67,0,0-9.52-3.73-9.52-3.73l-5.46-2.96-4.08-.65C718.45,378.85,400.43,648.77,159.24,951.87c-25.08,42.48-45.16,93.34-44.48,143.66.04.48.27,10.19.27,10.19.59,1.03,2.51,7.66,3.54,8.57,56.06-17.61,112.49-55.47,159.96-90.33,155.24-117.44,300.09-257.54,439.69-393.25-11.58-21.06-40.81-42.94-53.87-63.48-1.85-3.12-7.71-8.8-10.09-11.28-8.54-19.62,18.57-30.53,31.15-39.08,24.87-16.6,54.28-33.31,79.69-48.88,87.12-75.55,164.87-182.02,241.29-268.45,12.02-14.61,36.18-32.96,36.2-53.69l-4.69-7.91ZM607.52,718.99c-30.96,28.6-61.93,57.21-92.89,85.81-17.93,16.56-35.89,32.7-54.49,48.5l-103.45,87.91c-24.28,20.64-48.92,40.86-73.42,61.24-4.26,3.54-8.39,7.38-12.84,10.68-5.17,3.83-10.86,7.11-16.24,10.63-16.1,10.54-32.2,21.08-48.31,31.62-.95.62-3.18.55-4.33.72-3.49.54-6.99,1.04-10.49,1.54-3.5.5-7,.99-10.51,1.45-.22.03-3.79.14-4.36.51,1.54-1.01,3.09-2.02,4.63-3.03,18.35-12.01,36.71-24.03,55.06-36.04,10.84-7.09,20.42-16.12,30.37-24.39,23.26-19.34,46.55-38.63,69.6-58.22,34.91-29.67,69.83-59.34,104.74-89.01,19.57-16.63,38.22-34.22,57.09-51.65,27.38-25.29,54.76-50.59,82.14-75.88.67-.62,3.38-.58,4.33-.72,3.49-.54,6.99-1.04,10.49-1.54,3.5-.5,7-.99,10.51-1.45-.16.02,4.04-.21,4.36-.51-.66.61-1.31,1.21-1.97,1.82ZM977.01,174.46c-22.36-2.5-17.97-38.04,4.3-34.87,22.36,2.5,17.97,38.04-4.3,34.87Z"/>
    <g>
      <path class="st0" d="M1042.48,135.93c-7.6-7.59-14.61-15.74-22.05-23.49-5.66-5.9-12.2-14.01-19.96-17.05-2.38-.93-4.88-1.75-7.2-2.82-1.88-.86-3.62-2.32-5.57-3-5.46-1.91-12.1,2.11-15.61,5.98-33.52,36.97-67.69,73.34-102.28,109.3-70.35,73.13-142.41,144.59-214.57,215.92-72.64,71.81-145.43,143.5-216.79,216.59-70.53,72.24-139.72,145.87-205.66,222.35-16.25,18.85-32.3,37.87-48.11,57.08-7.87,9.56-15.67,19.16-23.42,28.82s-13.59,20.15-19.19,31.22c-11.25,22.24-20.47,45.65-26.11,69.97-2.79,12.06-4.71,24.34-5.45,36.7-.45,7.5-1.23,16.24-.08,23.77.35,2.3,1.56,5.13,2.56,7.25,1.11,2.35,1.76,1.56,4.3.73,2.82-.93,5.62-1.89,8.41-2.9,10.1-3.66,19.98-7.88,29.79-12.26,21.99-9.82,43.08-21.44,63.51-34.17,43.67-27.21,84.38-58.81,124.41-91.05,82-66.03,160.17-136.67,236.71-208.9,38.28-36.12,76.16-72.67,113.93-109.32,4.47-4.33,8.93-8.67,13.39-13,2.45-2.38,4.9-4.76,7.35-7.14,1.99-1.93,6.29-4.65,7.34-7.14.58-1.37.27-1.4-.66-2.95-.59-.98-1.21-1.94-1.85-2.88-1.33-1.98-2.75-3.91-4.23-5.79-3.49-4.46-7.28-8.68-11.15-12.8-7.68-8.19-15.76-16.01-23.27-24.36-6.37-7.08-11.25-15.31-17.8-22.18-2.98-3.12-5.14-4.96-5.78-9.43-.51-3.57.2-7.05,1.89-10.22,3.65-6.85,10.71-11.54,17.12-15.55,18.51-11.59,36.91-23.36,55.64-34.6,11.04-6.62,22.12-13.17,33.11-19.85,10.02-6.08,18.53-15.12,27.04-23.14,17.67-16.64,34.61-34.04,51.07-51.87,33.76-36.56,65.55-74.88,97.33-113.16,15.6-18.79,31.21-37.59,47.06-56.18,7.7-9.02,15.55-17.9,23.31-26.87,6.32-7.31,13.28-14,19.71-21.21,6.16-6.92,12.25-14.6,15.06-23.56,1-3.21,2.12-7.08.7-10.16-1.06-2.3-2.66-4.48-3.95-6.66-.24-.41-8.99,4.3-9.16,4.01,1.24,2.1,2.69,4.16,3.76,6.34,1.46,2.97.73,6.01-.14,9.23-2.45,9.02-8.4,16.78-14.45,23.71-6.01,6.88-12.69,13.13-18.71,20-6.98,7.97-13.94,15.95-20.83,23.99-30.13,35.12-59.28,71.07-89.12,106.43-29.96,35.5-60.58,70.53-93.54,103.29-8.08,8.03-16.31,15.92-24.7,23.63-3.72,3.42-7.48,6.8-11.28,10.14-4.44,3.9-9.39,6.73-14.45,9.78-21.11,12.71-42.44,25.06-63.09,38.5-6.61,4.3-13.36,8.33-20.02,12.54-6,3.79-12.4,8.14-16.12,14.36-1.72,2.88-2.71,6.14-2.56,9.52.2,4.19,1.76,6.71,4.58,9.61,6.23,6.4,10.79,13.97,16.62,20.71,13.25,15.32,29.29,28.45,40.79,45.25.68.99,3.65,4.53,3.57,5.76-.09,1.41-4.96,4.82-6.01,5.84-4.68,4.55-9.36,9.09-14.04,13.64-8.72,8.47-17.44,16.93-26.17,25.38-71.12,68.86-142.8,137.2-216.93,202.83-37.09,32.84-74.8,64.99-113.34,96.11-37.61,30.38-75.79,60.17-116.41,86.46-20.79,13.46-42.22,26.02-64.63,36.59-6.51,3.07-13.18,5.78-19.94,8.27-2.95,1.08-5.92,2.12-8.9,3.11-2.59.86-3.89,2.15-5.12-.46-2.55-5.4-2.63-9.86-2.77-15.72-1.12-45.41,14.75-90.19,35.92-129.76,2.45-4.59,4.9-9.24,7.65-13.66,3.21-5.17,7.53-9.83,11.35-14.57,7.21-8.96,14.48-17.87,21.8-26.74,14.89-18.06,30-35.94,45.28-53.67,30.83-35.78,62.38-70.93,94.44-105.61,64.73-70.01,131.51-138.09,198.95-205.49,67.94-67.9,136.58-135.09,204.63-202.88,67.21-66.95,133.89-134.46,198.6-203.84,15.33-16.44,30.54-32.98,45.63-49.64l-9.16,4.01c3.87.62,6.06,2,9.59,3.63,3.93,1.82,8.17,2.64,11.63,5.33,14.1,10.98,25.07,25.48,37.65,38.05.91.91,8.35-4.82,9.16-4.01Z"/>
      <path class="st0" d="M602.94,721c-50.02,46.21-99.28,93.44-151.18,137.55-52.54,44.65-104.96,89.45-158.05,133.45-7.15,5.93-14.29,11.86-21.36,17.89-6.66,5.68-13.91,10.21-21.26,14.93-16.68,10.71-33.19,21.71-49.78,32.57l8.99-3.95c-3.25,1.25-7.73,1.21-11.16,1.7-4.08.59-8.16,1.2-12.25,1.72-.56.07-6.02.88-6.12.75.02.03,11.16-7.3,12.14-7.94,15.57-10.19,31.17-20.34,46.72-30.58,14.4-9.48,27.07-21.51,40.3-32.51,14.16-11.77,28.32-23.53,42.41-35.38,56.79-47.71,114.2-95.04,168.6-145.47,15.48-14.35,31-28.66,46.51-42.99,7.58-7,15.16-14,22.73-21,3.91-3.61,7.82-7.23,11.73-10.84,1.96-1.81,3.91-3.61,5.87-5.42,2.1-1.94,4.48-5.06,7.06-6.31l-9,3.93c6.08-1.2,12.44-1.72,18.59-2.58,2.42-.34,4.84-.68,7.28-.9,2.67-.25,3.79-.97,1.25,1.38,2.3-2.12,6.83-1.86,9.16-4.01.66-.61,1.31-1.21,1.97-1.82l-.17.06c-1.76.62-4.09.46-5.95.69-4.68.57-9.34,1.29-14,1.98-2.89.42-6.14.45-8.96,1.21-2.17.58-4.32,1.83-6.36,2.74-6.77,3.01-11.95,9.46-17.35,14.45-7.09,6.55-14.18,13.1-21.27,19.65-28.6,26.42-56.91,53.19-85.91,79.17s-59.07,50.65-88.7,75.82c-29.67,25.22-59.39,50.37-89.34,75.26-13.81,11.48-27.11,24.1-41.85,34.39-15.93,11.12-32.55,21.37-48.81,32.01-4.08,2.67-8.24,5.26-12.26,8.03-1.9,1.31-1.62.73.28.67,1.14-.04,2.28-.17,3.41-.29,7.62-.83,16.11-1.38,23.54-3.25,4.66-1.17,9.42-3.94,13.41-6.54,8.33-5.45,16.66-10.9,24.99-16.35,15.41-10.09,31.55-19.37,45.54-31.39,14.48-12.45,29.39-24.43,44.07-36.64,29.93-24.9,59.5-50.22,89.16-75.43,29.37-24.96,58.95-49.67,87.47-75.59s57.37-52.89,86.02-79.36c7.02-6.48,14.03-12.96,21.05-19.44-2.3,2.12-6.83,1.86-9.16,4.01Z"/>
      <path class="st0" d="M981.59,172.45c-9.39-1.29-15.29-8.87-14.7-18.3.26-4.15,1.75-8.32,4.5-11.48.74-.85,1.59-1.5,2.4-2.26,3.86-3.61-5.9,1.77-4.23,1.57,2.49-.3,4.62-.72,7.18-.4,9.37,1.19,15.29,8.96,14.7,18.3-.26,4.16-1.75,8.32-4.5,11.48-.54.62-1.13,1.21-1.76,1.74-3.63,3.06-2.55-.97,4.01-1.18-2.61.08-4.88.84-7.6.52-2.89-.34-6.34,4.34-9.16,4.01,4.48.52,8.02-.58,12.05-2.32s8.09-3.08,11.06-6.17c5.66-5.89,6.79-15.93,2.57-22.91-4.65-7.71-14.61-9.18-22.43-5.94-8.32,3.45-15.82,6.78-17.64,16.54s4.01,19.38,14.39,20.81c2.85.39,6.38-4.39,9.16-4.01Z"/>
    </g>
  </g>
  <g class="st1">
    <path class="st0" d="M918.87,1022.99c15.47-12.35,31.7-23.65,44.7-38.74,6.1-7.08,13.72-12.59,19.91-19.56,6.68-7.52,12.83-15.62,19.18-23.43,12.78-15.74,24.08-31.97,34.89-49.09,2.6-4.12,5.32-8.15,8.23-12.05,3.3-4.41,5.78-9.23,8.31-14.12,4.84-9.34,9.29-18.87,13.64-28.45,4.86-10.69,9.63-21.42,14.76-31.98,1.58-3.25,2.79-6.57,3.98-9.98s1.16-6.24,1.83-9.62l-3.26,9.26c33.27-85.1,45.94-177.24,33.75-267.99-3.09-22.97-7.72-45.74-13.92-68.08-3.14-11.31-6.67-22.51-10.61-33.57-1.87-5.26-3.83-10.48-5.88-15.67-.97-2.45-1.99-4.58-2.2-7.21-.19-2.46-.57-4.31-1.56-6.63-17.15-40.1-38.97-78.6-64.7-113.81-12.9-17.65-26.91-34.51-41.97-50.36-7.65-8.05-15.56-15.85-23.73-23.37-3.93-3.62-7.91-7.17-11.95-10.66s-8.73-5-12.78-8.47c-31.65-27.09-66.74-50.12-104.2-68.35-73.22-35.62-155.02-52.48-236.35-49.6-83.6,2.96-165.82,26.74-238.43,68.2-79.77,45.56-146.71,112.41-192.58,192.02-21.65,37.57-41,78.59-51.44,120.83-5.75,23.25-12.29,46.03-16.14,69.72-3.41,21.04-5.55,42.28-6.42,63.57-3.44,84.17,13.2,169,48.38,245.56,36.95,80.39,95.07,153.45,168.34,203.63,38.58,26.43,82.77,41.73,126.87,56.22,48.12,15.81,97.66,25.94,148.31,28.5,24.62,1.24,49.29.76,73.85-1.34,1.44-.12,2.03-9.32,3.33-9.43-49.45,4.23-99.39,1.73-148.14-7.6-24.79-4.75-49.12-11.41-73.1-19.26-22.78-7.46-45.65-15.13-67.79-24.34-42.09-17.5-78.85-43.44-112.11-74.42-31.83-29.64-59.74-63.44-83-100.18-44.18-69.81-71.34-150.01-79.45-232.19-4.07-41.19-3.37-82.85,2.15-123.88,3.09-22.98,7.87-45.5,13.99-67.86,3.83-14.01,7.03-28.04,12.26-41.63,4.37-11.33,9.2-22.49,14.39-33.46,39.05-82.56,97.55-154.84,172.21-207.76,68.64-48.65,149.03-80.44,232.46-91.41,78.76-10.36,159.79-2.2,234.68,24.42,38.23,13.58,74.75,31.91,108.46,54.48,8.53,5.71,16.89,11.69,25.04,17.93,4.01,3.06,7.96,6.19,11.87,9.37s8.15,7.89,12.67,10.56c1.58.93,3.5,1.15,5.09,2.08,2.23,1.3,4.21,3.49,6.16,5.19,4.23,3.69,8.39,7.45,12.49,11.28,8.1,7.57,15.95,15.41,23.54,23.5,29.1,31.05,54.06,65.79,75.01,102.81,10.55,18.64,20.08,37.85,28.73,57.44,2.03,4.59,1.95,9.12,3.78,13.72,2.16,5.46,4.26,10.95,6.23,16.48,3.76,10.5,7.15,21.13,10.19,31.85,25.17,88.93,25.46,184.53,2.05,273.86-3.56,13.57-7.55,27.08-12.39,40.25-1.44,3.92-2.97,7.81-4.35,11.75-1.16,3.31-1.16,6.21-1.83,9.62,1.09-3.09,2.17-6.18,3.26-9.26-3.55,9.07-8.35,17.81-12.37,26.68s-7.8,17.29-11.91,25.83-7.96,17.68-13.62,25.15-10.38,15.39-15.2,23.35c-9.14,15.12-20.64,28.95-31.8,42.6-5.78,7.07-11.27,14.6-17.57,21.21-5.66,5.93-12.29,10.86-17.65,17.09-13.22,15.32-29.53,26.83-45.25,39.38-2.24,1.79-1.15,7.69-3.33,9.43h0Z"/>
  </g>
  <g>
    <path class="st0" d="M106.51,94.74l-4.65,2.43-5.01,3.25-6.09,5.78-3.99,4.74-1.95,2.86-3.29,5.78-1.47,4.61-1.02,4.28-.15,5.38.51,5.76.67,3.81,1.52,5.24,1.89,4.5,4.11,7.45,3.11,4.7,5.4,7.13,18.24,19.01,22.3,21.87,53.39,51.34,46.09,44.47,30.15,28.47,62.52,59.47,53.14,50.38s9.69,9.36,10.16,9.61c.47.25,4.18,3.92,4.18,3.92l6.47,5.96,21.51,17.05,24.38,20.55,24.48,23.65,11.85,13.46,4.51,7.68,4.35,10.25,2.71,10.54.48,6.53.55,5.99s.86,3.17.88,3.34c.03.16.98,1.74.98,1.74l3.24,3.01,51.2,52.34,51.58,54.51,52.58,54.41s36.85,36.7,36.95,37.27c.1.57,22.06,22.92,22.06,22.92l26.33,27.91,52.13,54.25,53.03,56,11.48,12.3,38.1,40.91s24.77,26.77,24.82,27.01c.04.24,13.29,13.47,13.29,13.47l13.06,13.6s7.72,7.29,7.77,7.62c.06.32,5.14,3.25,5.14,3.25l1.07-.19,1.06-1.19-2.27-5.19-2.96-4.81-5.88-8.88-10.19-11.7-23.26-27.3-36.01-42.04-32.91-37.42s-15.61-18.48-15.86-18.44-32.54-35.31-32.54-35.31l-30.76-33.38-50.04-53.45-46.87-50.35-44.22-47.32-33.01-36.06-21.09-22.67-15.95-17.5-15.74-17.29-3.62-4.69-2.88-4.33-1.62-2.97-1.05-2.57-.88-2.6-.28-3.96.06-3.02.6-3.29,1.02-2.36.97-2.18,4.72-4.87,3.35-2.61,2.75-2.17,3.87-1.54,4.3-1.35,3.72,1h4.15l4.26.46,2.77.84,3.82,2.48,7.53,6.24,11.09,10.11,29.12,28.41,25.7,25.77,31.77,30.94s37.96,37.25,38,37.5,10.1,9.79,10.1,9.79l19.31,19.32,12.49,12.28,35.41,34.79,16.84,16.34,34.07,33.44,13.53,12.93,45.51,43.58,46.49,43.9,24.06,22.72s16.38,15.17,16.62,15.54,12.31,10.81,12.31,10.81l8.02,7.07,13.77,11.38,7.44,4.75,5.34,2.46,2.65,1.11.56-.69-.29-1.62-.92-2.84-2.75-4.1s-6.61-7.75-6.65-7.49c-.04.26-12.97-13.11-12.97-13.11l-20.24-20.74-19.53-18.61-9.69-9.86-20.33-21.22-11.82-11.4-15.8-16.19-24.47-24.07-18.43-18.64-18.92-19.47-16.46-16.58-14.63-14.82-31.34-31.35-21.55-22.42-19.71-20.25-16.35-16.76-13.87-13.87-17.94-18.73-30.83-31.36-24.35-24.34-15.16-14.97-29.87-29.27-21.68-21.23-14.37-14.78-2.34-2.25-4.68-1.58-4.5-.1-8.44-1.81-10.13-2.26-7.49-2.65-6.66-3.72-4.91-3.87-12.79-12.56-11.62-12.61-14.44-17.11-5.54-6.94-9.21-10.95-7.26-9.05-5.11-6.43-9.86-10.83-4.65-5.26-11.67-12.93-21.47-23.86-28.11-30.35-23.08-25.32-25.69-27.19-16.04-17.07-38.17-41.81-19.24-20.34-25.98-28.81-15.39-15.77-35.75-38.16-15.09-15.99-12.48-11.28-6.94-3.84-7.62-2.88-7.27-1.86-10.37-.29-5.18.35-4.39,1.47-5.49,2ZM342.08,338.06c9.4-1.83,18.48,4.42,20.29,13.95,1.8,9.53-4.36,18.74-13.76,20.57s-18.48-4.42-20.29-13.95c-1.8-9.53,4.36-18.74,13.76-20.57ZM247.31,243.53c9.4-1.83,18.48,4.42,20.29,13.95,1.8,9.53-4.36,18.74-13.76,20.57-9.4,1.83-18.48-4.42-20.29-13.95-1.8-9.53,4.36-18.74,13.76-20.57ZM151.26,148.23c9.4-1.83,18.48,4.42,20.29,13.95,1.8,9.53-4.36,18.74-13.76,20.57-9.4,1.83-18.48-4.42-20.29-13.95-1.8-9.53,4.36-18.74,13.76-20.57Z"/>
    <g>
      <path class="st0" d="M102.2,92.2c-14.12,7.39-27.45,20.76-27.58,37.72-.12,15.25,7.92,29.72,17.96,40.8,24.11,26.62,51.06,50.92,76.93,75.8,22.22,21.37,44.21,42.99,66.63,64.15,27.5,25.97,54.9,52.04,82.31,78.11,22.82,21.71,45.12,44.19,68.63,65.14,5.42,4.83,10.56,9.87,16.26,14.39,6.38,5.06,12.86,10.01,19.09,15.26,7.28,6.14,14.83,12.06,21.89,18.45s13.42,12.96,20.11,19.43c10.94,10.57,21.6,22.33,25.55,37.44,1.19,4.55,2.23,8.71,2.58,13.38.28,3.74.07,8.3,1.84,11.7,1.13,2.18,3.41,3.7,5.15,5.45,2.55,2.58,5.07,5.18,7.61,7.78,26.4,26.99,52.59,54.11,78.54,81.53,22.46,23.74,45.06,47.38,67.97,70.69s46.28,46.69,68.85,70.62c22.86,24.23,46.11,48.08,69.07,72.21,22.74,23.9,45.44,47.84,67.93,71.99,24.08,25.86,47.76,52.16,72.48,77.39,6.29,6.42,12.51,12.86,18.89,19.19,3.44,3.41,7.56,5.59,11.76,8.04,1.19.7,3.42,2.72,4.89,2,2.11-1.02-.23-4.34-.92-5.73-7.25-14.49-19.56-26.33-29.98-38.56-22.2-26.05-44.43-52.07-67.04-77.77-10.24-11.64-20.23-24.37-30.84-35.39-11.43-11.87-22.32-24.27-33.48-36.39-25.26-27.4-50.68-54.63-76.15-81.84-20.43-21.83-40.74-43.78-61.15-65.63-23.5-25.15-46.68-50.58-70.12-75.78-11.62-12.49-23.16-25.03-34.64-37.64-9.84-10.8-27.25-24.84-24.15-41.36,1.29-6.86,7.82-13.03,13.88-16.14,1.73-.89,3.83-1.55,5.71-2.05,2.23-.59,3.09.18,5.41.47,3.86.49,7.36.15,11.18,1.3l-8.47-4.98c8.44,5.48,15.95,12.65,23.19,19.61,9.32,8.97,18.57,18.02,27.78,27.1,16.02,15.78,31.83,31.74,47.94,47.43s32.13,30.95,47.69,46.9c14.2,14.56,28.94,28.68,43.45,42.93,16.95,16.65,33.94,33.26,50.95,49.85,15.86,15.48,31.6,31.07,47.62,46.39,15.36,14.69,30.63,29.47,46.05,44.09,16.37,15.52,32.81,30.97,49.21,46.46,16.89,15.95,33.73,31.89,51.15,47.25,8.58,7.56,17.12,15.18,26.79,21.32,5.03,3.19,10.28,6.54,15.92,8.58,1.4.51,1.78,1.08,2.2-.39.25-.88-.74-3.16-1.09-3.89-.93-1.96-2.44-3.79-3.84-5.45-4.17-4.99-8.22-8.68-14.28-11.38l8.61,5.08c-9.09-7.59-17.16-17.43-25.44-25.91-8.38-8.58-17.06-16.81-25.74-25.09-7.85-7.48-15.22-15.5-22.72-23.33s-14.86-14.67-22.16-22.16c-17.03-17.45-34.52-34.43-51.67-51.77-15.55-15.73-30.97-31.58-46.51-47.31s-32.29-32.1-48.07-48.51-33.03-34.3-49.75-51.26-32-32.8-48.07-49.14c-16.46-16.74-33.04-33.37-49.75-49.87-16.71-16.5-33.52-32.88-50.29-49.31-3.22-3.16-6.42-6.32-9.56-9.55-4.19-4.31-8.22-9.54-13.03-13.19-10.32-7.84-23.42-7.36-35.53-10.57-5.9-1.56-9.04-3.3-14.24-6.21l8.01,4.75c-16.14-12.72-29.41-29.07-42.57-44.74-12.42-14.78-24.13-30.12-37.1-44.43-26.33-29.06-52.77-57.99-79.19-86.97-27.88-30.59-56.52-60.48-84.43-91.05-24.67-27.03-49.83-53.59-74.85-80.29-14.3-15.26-28.17-31.3-43.16-45.91-8.25-8.05-16.88-14.75-27.34-19.75-8.47-4.05-17.21-5.59-26.55-5.24-5.11.19-9.49,2.03-14.25,3.76,1.94-.71,6.57,5.82,8.61,5.08,3.73-1.36,7.57-3.14,11.52-3.58,4.31-.47,9.19-.52,13.47.04,7.91,1.02,15.23,4.71,22.1,8.52l-8.45-5c14.05,12.7,26.82,26.47,39.76,40.28s27.23,27.93,40.25,42.35c27.14,30.06,54.6,59.84,82.12,89.55,26.99,29.14,54.17,58.1,81.17,87.23,13.04,14.08,25.84,28.37,38.7,42.62,6.81,7.54,13.83,14.96,20.45,22.66,6.13,7.14,11.77,14.74,17.84,21.95,12.04,14.32,23.44,29.29,36.73,42.52,8.18,8.14,15.51,14.95,25.61,20.64,8.81,4.96,17.74,7.07,27.58,9.18,4.77,1.02,9.25,1.13,13.89,2.69l-8.61-5.08c14.82,14.23,29.06,29.12,43.74,43.51,15.95,15.63,31.92,31.24,47.71,47.03,31.65,31.64,62.84,63.75,94.09,95.79,29.43,30.18,58.92,60.28,88.58,90.23,31,31.3,62.02,62.56,93.01,93.86,30.06,30.35,60.44,60.37,90.39,90.84,4.22,4.29,8.31,7.35,13.66,10.09l-8.45-5c3.32,3.17,7.37,7.47,9.37,11.69.4.83.91,2.18.95,3.11.08,1.67.22,1.64-1.28,1.5-2.24-.22-5.06-2.26-7.06-3.18l8.47,4.98c-18.84-12.04-35.25-28.31-51.59-43.5-15.16-14.09-30.14-28.36-45.19-42.57-16.56-15.63-33.1-31.27-49.54-47.02-15.37-14.72-30.89-29.3-46.08-44.21-15.86-15.57-31.83-31.03-47.68-46.61-16.09-15.81-32.31-31.5-48.25-47.45-16.83-16.83-33.79-33.51-50.76-50.2-15.45-15.19-31.09-30.18-46.5-45.41-16.5-16.31-32.85-32.75-49.46-48.95-7.2-7.03-14.6-13.81-22.35-20.23-4.23-3.51-9.62-7.16-14.71-9.11-2.28-.87-4.81-1.03-7.22-1.11s-5.35-1.04-7.59-.83c-5.1.49-10.07,4.21-13.72,7.5-3.9,3.51-6.76,7.34-7.32,12.7-1.03,9.84,5.19,18.43,11.43,25.42,15.74,17.62,31.84,34.93,47.93,52.23,13.14,14.13,25.97,28.55,39.15,42.64,14.98,16.03,29.99,32.04,44.94,48.1,15.21,16.34,30.38,32.72,45.63,49.01,16.11,17.21,32.31,34.36,48.34,51.64,15.42,16.62,30.71,33.35,46.03,50.06,14.36,15.66,28.29,31.58,42.32,47.53,16.06,18.26,31.98,36.62,47.8,55.09,13.87,16.2,27.61,32.51,41.61,48.6,3.49,4.01,6.37,8.2,9.25,12.69,1.44,2.24,8.01,10.77,3.27,11.63l1.28.71c4.08,2.35,2.15,1.02.95-.21-1.32-1.36-2.72-2.66-4.09-3.97-1.49-1.42-2.94-2.84-4.36-4.32-3.84-4-7.65-8.05-11.54-12-7.82-7.94-15.42-15.93-22.97-24.12-16.33-17.73-32.79-35.35-49.22-52.99-27.67-29.71-55.61-59.16-83.73-88.43-30.36-31.59-60.12-63.83-90.86-95.03-30.33-30.79-60.8-61.42-90.51-92.82-31.67-33.46-62.95-67.59-96.02-99.69-2.31-2.24-3.9-3.54-4.62-6.79-.53-2.39-.67-4.85-.87-7.3-.47-5.77-1.3-11.24-3.14-16.79-1.63-4.93-4.01-9.73-6.63-14.19-2.89-4.91-6.66-8.84-10.43-13.13-14.95-16.97-32.55-31.53-49.8-46.06-7.81-6.58-16.13-12.53-23.93-19.11s-14.31-13.25-21.32-19.94c-17.38-16.6-34.88-33.06-52.31-49.6-31.08-29.5-62.27-58.91-93.27-88.5-32.74-31.25-65.17-62.82-97.79-94.19-14.29-13.74-29.46-27.51-42.33-42.63-13.63-16.01-23.53-38.3-11.54-57.94,5.35-8.77,13.03-14.96,22.02-19.66-1.5.79-7-5.92-8.61-5.08Z"/>
      <path class="st0" d="M346.39,340.6c4.03-.62,7.71-.07,11.36,1.72l-3.19-1.82c-4.57-2.68.06,1.2,1.06,2.79,1.19,1.88,2.02,4,2.43,6.19.82,4.32-.02,8.89-2.33,12.63-4.86,7.85-14.69,10.18-22.79,6.21l3.19,1.82c4.79,2.8.57-.51-.33-1.72-1.05-1.41-1.87-2.97-2.46-4.62-1.12-3.18-1.31-6.64-.56-9.92,1.58-6.84,6.89-11.69,13.61-13.27-.67.16-3.63-2.2-4.28-2.58-.76-.45-3.44-2.71-4.33-2.5-12.25,2.88-18.35,17.38-10.6,27.82,2.92,3.94,7.56,6.13,11.7,8.53,4.39,2.55,8.86,4.25,14.04,3.25,12.48-2.42,18.12-17.69,10.6-27.82-2.82-3.8-7.19-5.9-11.18-8.23-4.69-2.74-8.98-4.41-14.55-3.55.78-.12,3.55,2.15,4.28,2.58.85.5,3.32,2.65,4.33,2.5Z"/>
      <path class="st0" d="M251.62,246.07c4.03-.62,7.71-.07,11.36,1.72l-3.19-1.82c-4.57-2.68.06,1.2,1.06,2.79,1.19,1.88,2.02,4,2.43,6.19.82,4.32-.02,8.89-2.33,12.63-4.86,7.85-14.69,10.18-22.79,6.21l3.19,1.82c4.79,2.8.57-.51-.33-1.72-1.05-1.41-1.87-2.97-2.46-4.62-1.12-3.18-1.31-6.64-.56-9.92,1.58-6.84,6.89-11.69,13.61-13.27-.67.16-3.63-2.2-4.28-2.58-.76-.45-3.44-2.71-4.33-2.5-12.25,2.88-18.35,17.38-10.6,27.82,2.92,3.94,7.56,6.13,11.7,8.53,4.39,2.55,8.86,4.25,14.04,3.25,12.48-2.42,18.12-17.69,10.6-27.82-2.82-3.8-7.19-5.9-11.18-8.23-4.69-2.74-8.98-4.41-14.55-3.55.78-.12,3.55,2.15,4.28,2.58.85.5,3.32,2.65,4.33,2.5Z"/>
      <path class="st0" d="M155.57,150.77c4.03-.62,7.71-.07,11.36,1.72l-3.19-1.82c-4.57-2.68.06,1.2,1.06,2.79,1.19,1.88,2.02,4,2.43,6.19.82,4.32-.02,8.89-2.33,12.63-4.86,7.85-14.69,10.18-22.79,6.21l3.19,1.82c4.79,2.8.57-.51-.33-1.72-1.05-1.41-1.87-2.97-2.46-4.62-1.12-3.18-1.31-6.64-.56-9.92,1.58-6.84,6.89-11.69,13.61-13.27-.67.16-3.63-2.2-4.28-2.58-.76-.45-3.44-2.71-4.33-2.5-12.25,2.88-18.35,17.38-10.6,27.82,2.92,3.94,7.56,6.13,11.7,8.53,4.39,2.55,8.86,4.25,14.04,3.25,12.48-2.42,18.12-17.69,10.6-27.82-2.82-3.8-7.19-5.9-11.18-8.23-4.69-2.74-8.98-4.41-14.55-3.55.78-.12,3.55,2.15,4.28,2.58.85.5,3.32,2.65,4.33,2.5Z"/>
    </g>
  </g>
  <g>
    <path class="st0" d="M1037.91,137.94c-11.5-11.4-26.59-30.17-39.8-39.67,0,0-9.52-3.73-9.52-3.73l-5.46-2.96-4.08-.65C718.45,378.85,400.43,648.77,159.24,951.87c-25.08,42.48-45.16,93.34-44.48,143.66.04.48.27,10.19.27,10.19.59,1.03,2.51,7.66,3.54,8.57,56.06-17.61,112.49-55.47,159.96-90.33,155.24-117.44,300.09-257.54,439.69-393.25-11.58-21.06-40.81-42.94-53.87-63.48-1.85-3.12-7.71-8.8-10.09-11.28-8.54-19.62,18.57-30.53,31.15-39.08,24.87-16.6,54.28-33.31,79.69-48.88,87.12-75.55,164.87-182.02,241.29-268.45,12.02-14.61,36.18-32.96,36.2-53.69l-4.69-7.91ZM607.52,718.99c-30.96,28.6-61.93,57.21-92.89,85.81-17.93,16.56-35.89,32.7-54.49,48.5l-103.45,87.91c-24.28,20.64-48.92,40.86-73.42,61.24-4.26,3.54-8.39,7.38-12.84,10.68-5.17,3.83-10.86,7.11-16.24,10.63-16.1,10.54-32.2,21.08-48.31,31.62-.95.62-3.18.55-4.33.72-3.49.54-6.99,1.04-10.49,1.54-3.5.5-7,.99-10.51,1.45-.22.03-3.79.14-4.36.51,1.54-1.01,3.09-2.02,4.63-3.03,18.35-12.01,36.71-24.03,55.06-36.04,10.84-7.09,20.42-16.12,30.37-24.39,23.26-19.34,46.55-38.63,69.6-58.22,34.91-29.67,69.83-59.34,104.74-89.01,19.57-16.63,38.22-34.22,57.09-51.65,27.38-25.29,54.76-50.59,82.14-75.88.67-.62,3.38-.58,4.33-.72,3.49-.54,6.99-1.04,10.49-1.54,3.5-.5,7-.99,10.51-1.45-.16.02,4.04-.21,4.36-.51-.66.61-1.31,1.21-1.97,1.82ZM977.01,174.46c-22.36-2.5-17.97-38.04,4.3-34.87,22.36,2.5,17.97,38.04-4.3,34.87Z"/>
    <g>
      <path class="st0" d="M1038.2,132.95c-11.27-11.27-21.26-23.84-33.25-34.39-4.16-3.66-7.57-5.68-12.63-7.67-3.01-1.18-5.76-3.14-8.75-4.23-.85-.31-3.23-.98-4.12-.72-1.05.31-2.84,2.99-3.68,3.91-1.78,1.97-3.57,3.93-5.36,5.89-6.17,6.77-12.36,13.53-18.57,20.26-12.47,13.53-25.03,26.98-37.65,40.36-51.09,54.17-103.3,107.27-155.94,159.94-53.24,53.26-106.92,106.07-160.44,159.05-53.35,52.81-106.54,105.8-158.94,159.55-52.14,53.49-103.51,107.76-153.37,163.39-24.63,27.49-48.89,55.31-72.68,83.53-11.8,14.01-23.49,28.12-35.04,42.34-5.75,7.07-11.65,14.07-17.16,21.33s-9.27,15.67-13.28,23.54c-16.25,31.92-28.44,66.51-31.6,102.36-1.05,11.95-1.41,23.88-1.11,35.87.04,1.48.04,2.79.4,4.18s1.61,6.68,2.92,7.46c1.67.98,8.17-2.21,10.2-2.93,4.43-1.57,8.83-3.25,13.18-5.02,35.06-14.23,67.74-33.94,98.99-55.14s61.31-44.45,90.89-68.11c60.79-48.61,119.47-99.83,176.9-152.35,57.47-52.56,113.7-106.46,169.63-160.66,13.4-12.98,26.78-25.99,40.16-38.99.69-.67,1.07-9.13.59-9.98-9.44-16.73-24.56-29.7-37.58-43.54-6.16-6.55-11.59-13.38-16.78-20.7-2.16-3.05-4.88-5.7-7.48-8.36-2.74-2.8-3.68-5.8-3.74-9.76l-.05,1.46c-.5,10.07-.3,4.96.88,2.26.61-1.39,1.39-2.7,2.29-3.93,2.04-2.81,4.63-5.19,7.34-7.34,5.5-4.36,11.69-7.72,17.66-11.36,17.62-10.73,34.82-22.12,52.54-32.71,9.42-5.63,18.85-11.23,28.22-16.93,8.71-5.31,16.23-13.51,23.67-20.47,15.35-14.36,30.15-29.32,44.55-44.63,58.74-62.42,110.97-130.49,167.21-195.09,6.41-7.37,12.81-14.71,19.59-21.75s14.23-14.65,19.49-23.36c4.32-7.15,5.81-14.2,6.3-22.39.15-2.44.68-5-.27-7.22-1.04-2.42-2.79-4.71-4.14-6.98,1.39,2.34-2.02,7.57-.59,9.98,1.13,1.9,2.45,5.6,4.14,6.98.85.7.4,3.16.57-1.55.19-5.08-.16-1.06-.5.16-.7,2.57-1.71,5.05-2.91,7.42-4.76,9.46-12.25,17.33-19.51,24.9-15.89,16.57-30.68,34.2-45.49,51.73-33.29,39.41-65.72,79.56-99.53,118.54-33.02,38.07-67.33,75.26-105.2,108.59-9.49,8.35-21.76,14.16-32.6,20.64-11.46,6.84-22.92,13.71-34.22,20.8-8.8,5.52-17.39,11.34-26.31,16.67-6.98,4.18-14.55,8.65-19.41,15.36-4.25,5.88-4.66,14.16-4.28,21.21.31,5.7,3.18,8.05,6.86,11.98s6.36,8.42,9.65,12.64c15.29,19.66,36.7,34.81,49.06,56.71l.59-9.98c-54.77,53.24-109.6,106.42-165.4,158.58s-113.09,103.8-171.96,153.04c-57.39,48.01-116.04,96.17-180.69,134.2-16.01,9.42-32.46,18.13-49.48,25.6-8.11,3.55-16.34,6.82-24.71,9.71-1.84.64-3.84,1.55-5.77,1.92-2.17.42-1.77.6-2.65-1.27-.94-1.99-2.1-4.62-2.55-6.78-.75-3.63-.25-8.05-.28-11.77-.08-9.67,1.26-19.27,3.03-28.76,3.37-18.12,8.87-35.82,15.77-52.9s14.52-32.2,23.36-47.46c4.49-7.75,11.02-14.6,16.66-21.56s11.54-14.19,17.36-21.24c22.85-27.7,46.19-55,69.91-81.96,48.44-55.05,98.46-108.69,149.34-161.48,51.41-53.35,103.71-105.83,156.28-158.04,52.62-52.26,105.52-104.25,158.11-156.55,52.12-51.83,103.94-103.96,154.82-157,24.92-25.97,49.61-52.15,73.98-78.63,6.2-6.74,12.39-13.49,18.55-20.27,1.89-2.07,4.77-6.66,7.35-7.08,1.48-.24,3.15.58,4.45,1.16,3.08,1.39,5.87,2.95,9.04,4.19,4.96,1.94,8.41,4.52,12.43,8.14,11.48,10.37,21.21,22.47,32.14,33.4-.41-.41.31-4.32.35-4.99.05-.79.82-4.42.25-4.99Z"/>
      <path class="st0" d="M607.81,714c-54.21,50.08-107.87,100.74-164.11,148.54-56.46,47.98-112.32,96.9-170.05,143.34-7.55,6.07-16.07,10.88-24.16,16.17-8.88,5.81-17.77,11.63-26.65,17.44-4.44,2.91-8.88,5.81-13.33,8.72-3.61,2.36-6.09,2.67-10.29,3.3-4.66.7-9.33,1.36-14,2-2.71.37-6.12.25-8.74,1.11l-.59,9.98c15.72-10.29,31.45-20.58,47.17-30.88,7.62-4.99,15.37-9.81,22.53-15.46,6.5-5.13,12.66-10.66,18.99-15.99,28.94-24.33,58.08-48.41,86.89-72.9,28.84-24.51,57.68-49.02,86.52-73.53,28.17-23.94,54.95-49.51,82.1-74.59,15.65-14.45,31.29-28.91,46.94-43.36,3.75-3.47,7.52-7.97,11.73-10.84,2.58-1.76,6.34-1.6,9.44-2.06,4.66-.69,9.33-1.35,14-1.99,2.17-.29,4.92-.14,6.99-.87l.59-9.98c-.66.61-1.31,1.21-1.97,1.82-.59.54-.3,4.17-.35,4.99s.35,4.45-.25,4.99c.66-.61,1.31-1.21,1.97-1.82,1.21-1.12-.67-9.54.59-9.98-1.37.48-2.93.37-4.36.51-4.39.44-8.77,1.2-13.13,1.83-3.2.46-6.43.83-9.62,1.3-3.91.58-6.35,4.06-9.19,6.68-13.93,12.87-27.87,25.74-41.8,38.62-27.49,25.4-54.59,51.3-82.8,75.9-56.73,49.5-114.6,97.82-172.5,145.94-15.1,12.55-29.6,25.64-46.06,36.41-17.95,11.75-35.9,23.5-53.85,35.24-1.33.87.67,9.57-.59,9.98,1.89-.62,4.15-.5,6.12-.75,4.09-.52,8.17-1.13,12.25-1.72,3.3-.48,7.23-.45,10.41-1.41,3.99-1.21,8.24-5.15,11.74-7.44,15.2-9.95,30.35-19.99,45.68-29.73s28.22-22.21,41.91-33.56c14.02-11.62,28.04-23.24,41.97-34.98,56.65-47.71,113.94-94.99,168.36-145.23,30.97-28.6,61.93-57.21,92.89-85.81.59-.54.3-4.17.35-4.99s-.35-4.45.25-4.99Z"/>
      <path class="st0" d="M977.3,169.47c-4.6-.63-8.79-2.58-11.54-6.44-1.13-1.58-1.95-3.35-2.47-5.21-.31-1.08-.34-2.21-.62-3.28-.87-3.36-1.53,6.64-.18,3.28,1.64-4.08,2.7-7.6,6.42-10.4,3.51-2.65,7.81-3.38,12.1-2.84s8.29,2.34,11.04,5.77c1.3,1.62,2.24,3.5,2.85,5.48.29.94.41,1.9.64,2.85.08.55.14,1.11.17,1.67.54-5.19.57-6.56.11-4.12-1.55,3.74-2.52,7.14-5.78,9.88-3.62,3.05-8.14,3.89-12.75,3.36.11.01-.85,9.95-.59,9.98,9.07,1.05,16.48-4.35,18.52-13.24,1.64-7.15,2.55-17.59-1.41-24.14-4.57-7.57-15.84-10.05-23.29-5.34-7.98,5.04-8.07,14.57-8.47,22.96-.47,9.92,4.15,18.32,14.65,19.76-.18-.03.92-9.94.59-9.98Z"/>
    </g>
  </g>
</svg>