<svg xmlns="http://www.w3.org/2000/svg" width="512" height="512"><path d="M469 85c4.643 4.518 6.567 10.08 7.5 16.375-1.733 12.566-11.734 20.41-20.375 28.75a4080 4080 0 0 0-8.055 7.883l-1.931 1.889c-4.267 4.19-8.363 8.458-12.139 13.103l-2.45 2.992C406.32 188.49 391.31 224.064 379 263l-.786 2.482q-2.38 7.524-4.75 15.05-2.923 9.282-5.86 18.558-.801 2.54-1.597 5.08c-8.058 25.508-20.25 50.657-38.007 70.83-.73.84-1.46 1.678-2.21 2.543A397 397 0 0 1 319 385l-2.156 2.39c-23.75 25.214-61.553 42.487-96.25 43.732-4.137.085-8.27.124-12.406.128l-2.23.003c-11.553-.01-22.675-.637-33.958-3.253l-1.97-.438C138.58 420.417 112.137 404.1 89 382l-1.696-1.617c-17.63-17.177-41.332-49.929-41.866-75.32.319-9.709 6.087-16.335 12.778-22.951C68.666 272.454 88.486 260 103 260l.496-1.674c1.766-5.657 4.035-10.618 7.067-15.701l1.31-2.22c3.46-5.68 7.34-10.444 11.998-15.206C126 223 126 223 127.661 220.707L129 219h2v-2c24.859-21.446 54.336-31.097 87-29 28.026 2.658 54.734 16.494 73 38v2c30.106-13.394 54.84-32.693 76-58l2.473-2.879a507 507 0 0 0 15.394-18.88c3.627-4.647 7.398-9.154 11.226-13.637a345 345 0 0 0 7.72-9.354c32.403-40.752 32.403-40.752 45.5-45 7.25-.674 13.614.664 19.687 4.75M147.332 235.11C131.804 254.39 131.804 254.39 132 265c2 2 2 2 4.418 2.367C139 267 139 267 140.738 265.383l1.575-2.258 1.812-2.492L146 258c14.4-19.26 31.904-28.768 54-37 1-1 1-1 1.25-3.875-.25-3.125-.25-3.125-1.398-4.793-16.071-11.561-43.12 11.554-52.52 22.777m66.73 3.077c-2.976 4.06-2.976 4.06-3.062 6.813.803 3.291 1.635 4.696 4.25 6.875 3.477 1.422 5.188 1.262 8.75.125 2.375-1.625 2.375-1.625 4-4 .45-3.602.412-6.021-1-9.375-2.6-2.113-4.685-2.591-7.996-2.86-2.004.235-2.004.235-4.941 2.423M307 251l.516 1.879q.777 2.842 1.546 5.687a737 737 0 0 0 2.063 7.399L312.25 270l1.078 3.813C314 277 314 277 313 280c-2.789 2.048-5.932 3.536-9 5.125l-2.833 1.468c-38.618 19.431-83.14 25.89-125.98 25.72l-2.901-.006c-14.61-.047-28.908-.478-43.286-3.307l-2.811-.552c-10.503-2.143-20.514-4.74-30.189-9.448-.125-7.384.363-14.645 1-22-9.909 2.865-21.607 9.936-27 19-1.99 4.667-2.327 7.845-.937 12.75 7.529 12.63 21.717 17.24 35.18 20.852 21.67 5.407 43.75 6.94 66.007 6.773l3.372-.014c16.953-.083 33.622-.566 50.378-3.361l3.742-.618c37.13-6.32 88.454-15.885 112.258-48.382 2.267-4.735 2.686-8.827 2-14-2.916-7.481-8.387-10.698-15.387-14.191-6.349-2.771-12.77-3.915-19.613-4.809m-149.812 26.188c-1.613 2.461-1.621 3.923-1.188 6.812 1.188 1.813 1.188 1.813 3 3 2.855.428 4.345.407 6.813-1.125 1.732-2.735 1.59-4.712 1.187-7.875-3.517-2.345-6.094-3.249-9.812-.812"/></svg>