<?xml version="1.0" encoding="UTF-8"?>
<!-- Generator: visioncortex VTracer 0.6.12 -->
<svg version="1.1" xmlns="http://www.w3.org/2000/svg" width="512" height="512">
  <metadata>
                <![CDATA[
            {
  "prompt": {
    "32": {
      "inputs": {
        "filename_prefix": [
          "35",
          0
        ],
        "svg": [
          "34",
          0
        ]
      },
      "class_type": "SaveSVGNode",
      "_meta": {
        "title": "SaveSVGNode"
      }
    },
    "33": {
      "inputs": {
        "mode": "spline",
        "filter_speckle": 4,
        "corner_threshold": 60,
        "length_threshold": 4.0,
        "splice_threshold": 45,
        "image": [
          "39",
          0
        ]
      },
      "class_type": "TS_ImageToSVGStringBW_Vtracer",
      "_meta": {
        "title": "Image to SVG String BW_Vtracer"
      }
    },
    "34": {
      "inputs": {
        "SVG_String": [
          "33",
          0
        ]
      },
      "class_type": "TS_SVGStringToSVGBytesIO",
      "_meta": {
        "title": "SVG String to SVG BytesIO"
      }
    },
    "35": {
      "inputs": {
        "value": "Icons/bread-"
      },
      "class_type": "PrimitiveString",
      "_meta": {
        "title": "String"
      }
    },
    "39": {
      "inputs": {
        "image": "bread-_00016_.png"
      },
      "class_type": "LoadImage",
      "_meta": {
        "title": "Load Image"
      },
      "is_changed": [
        "916eb05de1a0358d319a1942b7de55ad111949a9c98bfcd71b0b2c4f87438f42"
      ]
    }
  },
  "workflow": {
    "id": "ffc75dbf-0481-4313-853d-f0e2b2f0378d",
    "revision": 0,
    "last_node_id": 39,
    "last_link_id": 51,
    "nodes": [
      {
        "id": 32,
        "type": "SaveSVGNode",
        "pos": [
          -3794.3422054720877,
          -769.3913161360373
        ],
        "size": [
          270,
          344
        ],
        "flags": {},
        "order": 4,
        "mode": 0,
        "inputs": [
          {
            "name": "svg",
            "type": "SVG",
            "link": 42
          },
          {
            "name": "filename_prefix",
            "type": "STRING",
            "widget": {
              "name": "filename_prefix"
            },
            "link": 44
          }
        ],
        "outputs": [],
        "properties": {
          "cnr_id": "comfy-core",
          "ver": "0.17.2",
          "Node name for S&R": "SaveSVGNode"
        },
        "widgets_values": [
          "Icons/apps-"
        ]
      },
      {
        "id": 33,
        "type": "TS_ImageToSVGStringBW_Vtracer",
        "pos": [
          -4477.5666671420095,
          -847.343527805959
        ],
        "size": [
          314.01666259765625,
          234.66665649414062
        ],
        "flags": {},
        "order": 2,
        "mode": 0,
        "inputs": [
          {
            "name": "image",
            "type": "IMAGE",
            "link": 51
          }
        ],
        "outputs": [
          {
            "name": "STRING",
            "shape": 6,
            "type": "STRING",
            "links": [
              41
            ]
          }
        ],
        "properties": {
          "cnr_id": "comfyui-tosvg",
          "ver": "1.0.1",
          "Node name for S&R": "TS_ImageToSVGStringBW_Vtracer"
        },
        "widgets_values": [
          "spline",
          4,
          60,
          4,
          45
        ]
      },
      {
        "id": 34,
        "type": "TS_SVGStringToSVGBytesIO",
        "pos": [
          -4063.448243802166,
          -778.4199219709982
        ],
        "size": [
          225,
          72
        ],
        "flags": {},
        "order": 3,
        "mode": 0,
        "inputs": [
          {
            "name": "SVG_String",
            "type": "STRING",
            "link": 41
          }
        ],
        "outputs": [
          {
            "name": "SVG",
            "type": "SVG",
            "links": [
              42
            ]
          }
        ],
        "properties": {
          "cnr_id": "comfyui-tosvg",
          "ver": "1.0.1",
          "Node name for S&R": "TS_SVGStringToSVGBytesIO"
        },
        "widgets_values": []
      },
      {
        "id": 35,
        "type": "PrimitiveString",
        "pos": [
          -4443.914561307049,
          -543.3653138472193
        ],
        "size": [
          270,
          108
        ],
        "flags": {},
        "order": 0,
        "mode": 0,
        "inputs": [],
        "outputs": [
          {
            "name": "STRING",
            "type": "STRING",
            "links": [
              44
            ]
          }
        ],
        "properties": {
          "cnr_id": "comfy-core",
          "ver": "0.17.2",
          "Node name for S&R": "PrimitiveString"
        },
        "widgets_values": [
          "Icons/bread-"
        ]
      },
      {
        "id": 39,
        "type": "LoadImage",
        "pos": [
          -4951.757252972162,
          -904.6317954209197
        ],
        "size": [
          282.8333435058594,
          364
        ],
        "flags": {},
        "order": 1,
        "mode": 0,
        "inputs": [],
        "outputs": [
          {
            "name": "IMAGE",
            "type": "IMAGE",
            "links": [
              51
            ]
          },
          {
            "name": "MASK",
            "type": "MASK",
            "links": null
          }
        ],
        "properties": {
          "cnr_id": "comfy-core",
          "ver": "0.17.2",
          "Node name for S&R": "LoadImage"
        },
        "widgets_values": [
          "bread-_00016_.png",
          "image"
        ]
      }
    ],
    "links": [
      [
        41,
        33,
        0,
        34,
        0,
        "STRING"
      ],
      [
        42,
        34,
        0,
        32,
        0,
        "SVG"
      ],
      [
        44,
        35,
        0,
        32,
        1,
        "STRING"
      ],
      [
        51,
        39,
        0,
        33,
        0,
        "IMAGE"
      ]
    ],
    "groups": [],
    "config": {},
    "extra": {
      "ds": {
        "scale": 0.7513148009015783,
        "offset": [
          5702.199252972161,
          1222.6169395859583
        ]
      },
      "workflowRendererVersion": "Vue",
      "frontendVersion": "1.41.20",
      "VHS_latentpreview": false,
      "VHS_latentpreviewrate": 0,
      "VHS_MetadataImage": true,
      "VHS_KeepIntermediate": true
    },
    "version": 0.4
  }
}
                ]]>
            </metadata>
            
<path d="M0 0 C52.99852412893415 -1.1700093814269366 104.51101372082519 19.442563484624998 142.89892578125 55.68115234375 C144.30434142081708 57.00246731339615 145.726287265805 58.3061334714605 147.14892578125 59.60888671875 C171.3698056540738 82.57696246022081 186.423237832246 116.95218663946986 187.60595703125 150.29248046875 C188.22090729430153 183.22279005053724 178.70968383380614 210.86915688142466 155.886474609375 234.875244140625 C123.78263656823594 267.8182735519171 74.90529440045333 280.6407687061433 30.36767578125 284.06201171875 C29.063144531250032 284.17287109375 27.758613281250007 284.28373046875 26.41455078125 284.39794921875 C22.40030408489315 284.69861142070386 18.38992648004438 284.91508846887297 14.36767578125 285.06201171875 C13.985227050781248 285.0763525390625 13.985227050781248 285.0763525390625 12.0498046875 285.14892578125 C-43.21422451391555 286.8935245052907 -112.12348984047003 274.01920250065734 -154.13232421875 235.37451171875 C-155.98379068287844 233.6211741849611 -157.80847290191272 231.84441186929553 -159.63232421875 230.06201171875 C-160.29748046875 229.44712890625 -160.96263671875 228.83224609374997 -161.64794921875 228.19873046875 C-180.18127300773187 210.70894968590449 -191.463703687593 183.16234882576646 -192.742431640625 157.885498046875 C-193.76493714073 118.41333424746173 -179.09011364732316 86.90457426620898 -152.90966796875 58.17138671875 C-151.63232421875 57.06201171875 -151.63232421875 57.06201171875 -149.63232421875 57.06201171875 C-149.63232421875 56.40201171875 -149.63232421875 55.74201171875001 -149.63232421875 55.06201171875 C-147.54452303330683 53.24797120747877 -145.4518701176168 51.550908752378604 -143.25732421875 49.87451171875 C-142.6139208984375 49.3783837890625 -141.970517578125 48.88225585937499 -141.3076171875 48.37109375 C-139.42265793731718 46.92550358882909 -137.5294264899009 45.49161378736727 -135.63232421875 44.06201171875 C-134.77638671875 43.41361328125001 -133.92044921875 42.765214843750016 -133.03857421875 42.09716796875 C-122.62729164483801 34.520464040817444 -111.04854499346447 28.66861975744007 -99.5107421875 23.0224609375 C-94.94157505964631 20.769991125273236 -90.52650428634075 18.324898821159707 -86.13232421875 15.74951171875 C-81.33934103382802 12.970341400879036 -76.89764963744545 10.757624989177344 -71.63232421875 9.06201171875 C-70.96458984374999 8.809355468749999 -70.29685546874998 8.556699218749998 -69.60888671875 8.29638671875 C-63.09212738001557 5.89671360484779 -56.49034822972453 4.989244556968487 -49.63232421875 4.06201171875 C-48.91044921874999 3.9253710937500017 -48.188574218750006 3.7887304687500034 -47.44482421875 3.64794921875 C-43.19219004650222 2.886018929555604 -39.85040469556441 3.365011592072875 -35.69482421875 4.24951171875 C-31.53913891321622 5.0341877019066885 -29.230927840740463 5.297859487231989 -25.50732421875 3.24951171875 C-17.87869348571178 -0.8108885101251815 -8.4342391428778 0.1986919627426289 0 0 Z M-10.52685546875 12.07763671875 C-13.110074808478771 13.285375630830984 -15.166656244486262 13.333570027810424 -18.00732421875 13.43701171875 C-23.01620028277145 13.795737590709095 -25.543790518472548 15.08853266400277 -29.63232421875 18.06201171875 C-32.804057122798554 18.78013992344023 -35.65222224684254 19.11599323871735 -38.90185546875 18.93701171875 C-45.10633951354484 18.60775220061828 -45.10633951354484 18.60775220061828 -48.38232421875 21.43701171875 C-49.12482421875001 22.303261718750008 -49.867324218750014 23.169511718750016 -50.63232421875 24.06201171875 C-54.37971007711002 26.039798699551113 -58.41417031851671 26.70973657058255 -62.54638671875 27.49951171875 C-64.63232421875 28.06201171875 -64.63232421875 28.06201171875 -67.63232421875 30.06201171875 C-67.77669921875 30.53638671875001 -67.77669921875 30.53638671875001 -68.50732421875 32.93701171875 C-69.85604889471801 36.6834691519945 -71.50227020387223 37.714471207591686 -74.63232421875 40.06201171875 C-75.94482421875 42.31201171875 -75.94482421875 42.31201171875 -76.63232421875 44.06201171875 C-78.94232421875 44.06201171875 -81.25232421875 44.06201171875 -83.63232421875 44.06201171875 C-83.81794921875002 44.94888671875 -84.00357421875 45.83576171875001 -84.19482421875 46.74951171875 C-86.14794959896909 51.250191942733096 -88.52307825677269 52.4747087056532 -92.63232421875 55.06201171875 C-92.30232421875002 56.712011718750006 -91.97232421875 58.36201171875001 -91.63232421875 60.06201171875 C-92.12732421875 60.22701171874999 -92.12732421875 60.22701171874999 -94.63232421875 61.06201171875 C-95.81982421875 64.12451171875 -95.81982421875 64.12451171875 -96.63232421875 67.06201171875 C-97.45732421874999 67.22701171874999 -97.45732421874999 67.22701171874999 -101.63232421875 68.06201171875 C-101.30232421875002 70.70201171874999 -100.97232421875 73.34201171875 -100.63232421875 76.06201171875 C-100.96232421874998 76.22701171874999 -100.96232421874998 76.22701171874999 -102.63232421875 77.06201171875 C-104.97127122018367 81.92602882517969 -106.594816412873 86.88052774951254 -108.06982421875 92.06201171875 C-108.28082763671875 92.79822753906251 -108.49183105468751 93.53444335937502 -108.709228515625 94.29296875 C-109.1419175660073 95.80941297542853 -109.57234282069561 97.32650498196355 -110.00048828125 98.84423828125 C-110.59771481569209 100.94053110925302 -111.21778484356776 103.02869513460305 -111.84326171875 105.11669921875 C-114.00345941321592 112.60844866977015 -115.21623725553599 119.26028475502642 -114.63232421875 127.06201171875 C-111.63232421875 126.06201171875 -111.63232421875 126.06201171875 -110.38623046875 123.95263671875 C-109.99306640625 123.08123046875 -109.59990234374999 122.20982421874999 -109.19482421875 121.31201171875 C-107.34716146004456 117.42422133064059 -105.42152260195246 114.35833708071652 -102.63232421875 111.06201171875 C-101.57241203274074 109.57484810892305 -100.53232291585152 108.07345047549293 -99.50732421875 106.56201171875 C-99.00974609374998 105.82982421874999 -98.51216796874999 105.09763671874998 -97.99951171875 104.34326171875 C-96.63232421875 102.06201171875 -96.63232421875 102.06201171875 -95.63623046875 99.55419921875 C-94.59187424610423 96.96159505513907 -93.30876753149693 94.9621379153449 -91.69482421875 92.68701171875 C-89.70241301880688 89.8386720796905 -88.34804721620662 87.4524348538703 -87.38232421875 84.12451171875 C-86.80482421875001 83.11388671875 -86.22732421875 82.10326171874999 -85.63232421875 81.06201171875 C-83.12209018604105 80.39261597669429 -80.6490758303656 80.11064584076189 -78.07373046875 79.78076171875 C-75.00153347538924 78.8763069239046 -74.30544777695013 77.84336249589518 -72.69482421875 75.12451171875 C-72.35580078125 74.43486328124999 -72.01677734375 73.74521484375 -71.66748046875 73.03466796875 C-70.57522530359523 70.95320057854943 -69.29543303498662 69.69732484446456 -67.63232421875 68.06201171875 C-67.46732421875001 67.36076171874998 -67.30232421875002 66.65951171875 -67.13232421875 65.93701171875 C-66.96732421875001 65.31826171875 -66.80232421875002 64.69951171874999 -66.63232421875 64.06201171875 C-65.64232421874999 63.732011718750016 -64.65232421875001 63.40201171875 -63.63232421875 63.06201171875 C-63.40544921874999 62.58763671874999 -63.40544921874999 62.58763671874999 -62.25732421875 60.18701171875 C-60.63232421875 57.06201171875 -60.63232421875 57.06201171875 -58.37841796875 55.72998046875 C-55.04196438585632 53.703429003749136 -52.64473472409162 51.13155440642089 -50.06982421875 48.24951171875 C-49.60124999999999 47.74097656250001 -49.132675781249986 47.23244140624999 -48.64990234375 46.70849609375 C-46.33951151725904 44.15898789500682 -44.46755401302872 41.792506392164285 -42.65966796875 38.83544921875 C-40.25599138456792 35.547182600697454 -38.565058629796 34.81235653477222 -34.75732421875 33.49951171875 C-29.79117966826749 31.605334335191884 -26.251035938721998 29.982282748719683 -22.63232421875 26.06201171875 C-22.63232421875 24.742011718750007 -22.63232421875 23.422011718750014 -22.63232421875 22.06201171875 C-21.353574218749998 22.330136718749998 -20.074824218749995 22.598261718749995 -18.75732421875 22.87451171875 C-12.69705260645543 23.570108932110855 -8.754972905819926 20.994110135309143 -3.63232421875 18.06201171875 C0.9870643454474362 15.75696470884867 5.239861520389184 14.714642624677737 10.36767578125 14.06201171875 C13.74267578125 13.12451171875 13.74267578125 13.12451171875 16.36767578125 12.06201171875 C16.69767578125004 11.402011718750003 17.027675781249968 10.742011718750007 17.36767578125 10.06201171875 C-6.3105436490543525 9.817345846335826 -6.3105436490543525 9.817345846335826 -10.52685546875 12.07763671875 Z M65.36767578125 18.06201171875 C65.36767578125 18.722011718749997 65.36767578125 19.382011718749993 65.36767578125 20.06201171875 C66.02767578125003 20.06201171875 66.68767578125 20.06201171875 67.36767578125 20.06201171875 C67.36767578125 19.402011718750003 67.36767578125 18.742011718750007 67.36767578125 18.06201171875 C66.70767578124997 18.06201171875 66.04767578125 18.06201171875 65.36767578125 18.06201171875 Z M39.36767578125 20.06201171875 C39.69767578125004 21.382011718749993 40.02767578124997 22.702011718749986 40.36767578125 24.06201171875 C42.01767578124998 24.06201171875 43.66767578125001 24.06201171875 45.36767578125 24.06201171875 C45.36767578125 23.402011718750003 45.36767578125 22.742011718750007 45.36767578125 22.06201171875 C42.36767578125 20.06201171875 42.36767578125 20.06201171875 39.36767578125 20.06201171875 Z M5.36767578125 31.06201171875 C5.36767578125 31.722011718749997 5.36767578125 32.38201171874999 5.36767578125 33.06201171875 C9.133922492418662 34.317427289139545 10.73956511875133 33.43263130236062 14.36767578125 32.06201171875 C14.36767578125 31.07201171874999 14.36767578125 30.08201171875001 14.36767578125 29.06201171875 C8.74267578125 28.81201171875 8.74267578125 28.81201171875 5.36767578125 31.06201171875 Z M-4.63232421875 31.06201171875 C-4.63232421875 32.38201171874999 -4.63232421875 33.702011718749986 -4.63232421875 35.06201171875 C-3.642324218749991 35.06201171875 -2.6523242187500102 35.06201171875 -1.63232421875 35.06201171875 C-1.63232421875 34.07201171874999 -1.63232421875 33.08201171875001 -1.63232421875 32.06201171875 C-2.622324218750009 31.732011718750016 -3.6123242187499898 31.402011718750003 -4.63232421875 31.06201171875 Z M-103.63232421875 35.06201171875 C-105.13821809747316 36.346802131152685 -106.63689797284292 37.64005253634292 -108.13232421875 38.93701171875 C-108.54998046875 39.29666015625 -108.54998046875 39.29666015625 -110.66357421875 41.11669921875 C-111.31326171875 41.758652343749986 -111.96294921875 42.40060546875 -112.63232421875 43.06201171875 C-112.63232421875 43.72201171875 -112.63232421875 44.38201171874999 -112.63232421875 45.06201171875 C-113.29232421875 45.06201171875 -113.95232421875 45.06201171875 -114.63232421875 45.06201171875 C-116.90487815979628 48.21757607664861 -118.7193797900415 51.67931093228674 -120.63232421875 55.06201171875 C-121.16728515624999 55.984980468749995 -121.70224609375 56.90794921874999 -122.25341796875 57.85888671875 C-130.55243454587213 72.51151449082599 -133.0579449343862 88.34489597585184 -130.63232421875 105.06201171875 C-127.43777028186963 103.46473475030982 -126.75947705091366 100.27499052874916 -125.63232421875 97.06201171875 C-125.04380388553315 94.61899842441875 -124.5232209107532 92.15867139972744 -124.06982421875 89.68701171875 C-123.81891126315514 88.3705312438316 -123.56761036655826 87.05412464770188 -123.31591796875 85.73779296875 C-123.09033203125 84.52478515625 -122.86474609375 83.31177734375001 -122.63232421875 82.06201171875 C-120.90389479529074 72.77970555572813 -120.90389479529074 72.77970555572813 -117.63232421875 69.06201171875 C-117.63232421875 68.40201171875 -117.63232421875 67.74201171875 -117.63232421875 67.06201171875 C-118.29232421875 67.06201171875 -118.95232421875 67.06201171875 -119.63232421875 67.06201171875 C-119.63232421875 66.07201171874999 -119.63232421875 65.08201171874998 -119.63232421875 64.06201171875 C-119.03033203125 64.05041015625 -118.42833984375 64.03880859374999 -117.80810546875 64.02685546875 C-115.63232421875 63.06201171875 -115.63232421875 63.06201171875 -114.17529296875 59.81591796875 C-113.71206003860601 58.42252406429952 -113.26089542984539 57.025078570875365 -112.81982421875 55.62451171875 C-110.4193112134615 48.578809284867134 -107.35983938428487 42.88049192248522 -102.63232421875 37.06201171875 C-102.96232421874998 36.40201171875 -103.29232421875 35.74201171875001 -103.63232421875 35.06201171875 Z M55.24267578125 34.74951171875 C54.904296875 34.78270507812499 54.904296875 34.78270507812499 53.19189453125 34.95068359375 C48.28471174690509 35.55340333612119 45.338863125366515 37.22464348850764 41.36767578125 40.06201171875 C37.49267578125 40.81201171875 37.49267578125 40.81201171875 34.36767578125 41.06201171875 C34.36767578125 42.05201171875001 34.36767578125 43.04201171875002 34.36767578125 44.06201171875 C33.96355468749999 44.00271484375 33.96355468749999 44.00271484375 31.91845703125 43.70263671875 C23.394732454010523 42.67444316299131 23.394732454010523 42.67444316299131 19.05517578125 44.31201171875 C16.339022994455092 48.73833477871207 17.50486475494813 53.107255330085934 18.36767578125 58.06201171875 C17.583925781250002 58.37138671874999 16.800175781250005 58.680761718750006 15.99267578125 58.99951171875 C13.36767578125 60.06201171875 13.36767578125 60.06201171875 11.36767578125 61.06201171875 C6.124624578509383 61.457713696315324 3.7695244091115114 60.703120895466895 -0.63232421875 58.06201171875 C-4.44482421875 57.87451171875 -4.44482421875 57.87451171875 -7.63232421875 58.06201171875 C-7.574316406250006 58.809667968750006 -7.516308593750011 59.55732421875001 -7.45654296875 60.32763671875 C-7.092241259298532 68.2798226050617 -7.092241259298532 68.2798226050617 -9.44482421875 71.68701171875 C-13.379189192299663 73.38418876616359 -16.849248855319615 73.48584707553695 -21.09326171875 73.72607421875 C-23.63232421875 74.06201171875 -23.63232421875 74.06201171875 -26.31982421875 75.93701171875 C-27.63232421875 78.06201171875 -27.63232421875 78.06201171875 -27.63232421875 81.06201171875 C-28.18919921874999 81.26826171875001 -28.74607421875001 81.47451171875 -29.31982421875 81.68701171875 C-32.62835653451725 83.65424714974677 -34.34788701397062 85.95263885668916 -36.63232421875 89.06201171875 C-36.63232421875 90.05201171875001 -36.63232421875 91.04201171874999 -36.63232421875 92.06201171875 C-37.18919921874999 92.12388671874999 -37.74607421875001 92.18576171875 -38.31982421875 92.24951171875 C-41.64392105411255 93.4174376338774 -43.32212400128361 95.44783778845908 -45.63232421875 98.06201171875 C-45.962324218749984 98.76326171875002 -46.29232421875 99.46451171875 -46.63232421875 100.18701171875 C-47.63232421875 102.06201171875 -47.63232421875 102.06201171875 -49.94482421875 103.24951171875 C-53.34013283759188 105.53937101982939 -54.33388522516401 107.93560504234301 -56.17529296875 111.51904296875 C-58.3100975564368 115.24493515798349 -61.00955920151392 118.42167671768291 -63.76513671875 121.70263671875 C-66.11076987972444 124.66657485521142 -68.3196801418857 127.49879133442846 -69.06982421875 131.24951171875 C-69.25544921875002 131.84763671874998 -69.44107421875 132.44576171875002 -69.63232421875 133.06201171875 C-70.25107421875 133.35076171875 -70.86982421875001 133.63951171875 -71.50732421875 133.93701171875 C-74.68867032816854 135.62125377667746 -75.26630041461397 137.77750018969158 -76.63232421875 141.06201171875 C-77.14404296875 144.71044921875 -77.14404296875 144.71044921875 -77.31982421875 148.43701171875 C-77.3526953125 149.05962890625 -77.3526953125 149.05962890625 -77.51904296875 152.21044921875 C-77.55642578125 153.15146484374998 -77.59380859375 154.09248046875 -77.63232421875 155.06201171875 C-73.04462170111503 153.47125663121756 -69.26194976297751 151.05808549267965 -65.25732421875 148.37451171875 C-64.92317504882811 148.1513830566406 -64.92317504882811 148.1513830566406 -63.232177734375 147.022216796875 C-58.48652155884636 143.78931477498531 -54.5200558408944 140.28545275673417 -50.63232421875 136.06201171875 C-47.663372889789514 133.28685616844228 -44.59330948606265 130.97708044661272 -41.00732421875 129.06201171875 C-37.59323645792415 127.03884860122355 -35.95502435371856 125.21424761620733 -33.63232421875 122.06201171875 C-30.647959929162738 120.07243552569184 -29.308779725901303 119.70842886114258 -25.88232421875 119.18701171875 C-21.77172455609613 118.43151800361682 -18.897644114632726 117.2818462789935 -15.39794921875 115.06591796875 C-12.738561466938336 113.55383245499866 -9.916479245128983 112.75181061039001 -7.01123046875 111.82763671875 C0.6250125911597024 109.36999527418135 7.120269529486791 106.16673042571631 13.81689453125 101.73388671875 C15.96437909689331 100.32634706469895 18.11732208585181 99.04378426781008 20.36767578125 97.81201171875 C22.82449295008547 96.37886837026264 24.5452570176285 95.20603379359878 26.36767578125 93.06201171875 C27.687675781249993 93.72201171875 29.007675781249986 94.38201171875 30.36767578125 95.06201171875 C30.800800781250018 94.62888671875001 31.23392578124998 94.19576171874999 31.68017578125 93.74951171875 C32.23705078124999 93.19263671875001 32.79392578124998 92.63576171874999 33.36767578125 92.06201171875 C33.811113281250016 91.59537109375 34.25455078125003 91.12873046875 34.71142578125 90.64794921875 C37.17029287807753 88.29346798924061 39.94929980015263 86.42853741347301 42.72314453125 84.46435546875 C43.26583984374997 84.00158203125 43.80853515625 83.53880859374999 44.36767578125 83.06201171875 C44.36767578125 82.40201171875 44.36767578125 81.74201171875 44.36767578125 81.06201171875 C45.08955078125001 80.91763671875 45.81142578125002 80.77326171875 46.55517578125 80.62451171875 C49.83037147879298 78.80495855344833 49.95538927210521 78.00779351052296 51.36767578125 74.68701171875 C53.033232959164366 71.36121863186023 53.91733949803256 70.26340069546913 57.36376953125 68.72216796875 C59.649314137025385 68.07619679186229 61.945405255118715 67.4663935160547 64.25048828125 66.89404296875 C68.06173444836173 65.87675545797958 70.39569520836176 64.60942363836847 73.36767578125 62.06201171875 C73.36767578125 61.40201171875 73.36767578125 60.74201171875001 73.36767578125 60.06201171875 C73.91294921874999 60.24119140624998 74.45822265624997 60.42037109374999 75.02001953125 60.60498046875 C82.87078999304777 62.819300342590395 88.35437909949997 60.81964715968766 95.36767578125 57.06201171875 C97.0565745049604 55.756953614064685 98.72800368288279 54.42840513405599 100.36767578125 53.06201171875 C100.69767578125004 54.05201171875001 101.02767578124997 55.04201171875002 101.36767578125 56.06201171875 C103.17236328125 56.87451171875 103.17236328125 56.87451171875 105.36767578125 57.06201171875 C107.37548828125 56.24951171875 107.37548828125 56.24951171875 109.49267578125 55.06201171875 C114.66504794054549 52.548978989108946 118.83406853001395 52.99918944920154 124.36767578125 54.06201171875 C124.36767578125 53.07201171874999 124.36767578125 52.08201171874998 124.36767578125 51.06201171875 C108.04111301773105 40.901331701028084 92.61903556199184 37.74434985132115 73.70703125 35.364013671875 C72.21928246729334 35.1719509246189 70.73344353108786 34.96391420462459 69.2509765625 34.734619140625 C64.3999359325503 34.01294248356999 60.065515752721524 34.131556308147196 55.24267578125 34.74951171875 Z M-1.63232421875 38.06201171875 C-1.63232421875 39.05201171875001 -1.63232421875 40.04201171874999 -1.63232421875 41.06201171875 C-0.9723242187500318 41.06201171875 -0.3123242187500068 41.06201171875 0.36767578125 41.06201171875 C0.36767578125 40.07201171874999 0.36767578125 39.08201171875001 0.36767578125 38.06201171875 C-0.29232421874996817 38.06201171875 -0.9523242187499932 38.06201171875 -1.63232421875 38.06201171875 Z M-17.63232421875 43.06201171875 C-17.962324218750013 44.05201171875001 -18.292324218749997 45.04201171874999 -18.63232421875 46.06201171875 C-17.64232421874999 46.06201171875 -16.65232421875001 46.06201171875 -15.63232421875 46.06201171875 C-15.962324218750013 45.07201171874999 -16.292324218749997 44.08201171875001 -16.63232421875 43.06201171875 C-16.962324218750013 43.06201171875 -17.292324218749997 43.06201171875 -17.63232421875 43.06201171875 Z M-28.63232421875 44.06201171875 C-28.63232421875 45.38201171874999 -28.63232421875 46.702011718749986 -28.63232421875 48.06201171875 C-27.312324218750007 48.392011718749984 -25.992324218750014 48.72201171875 -24.63232421875 49.06201171875 C-24.63232421875 47.74201171875001 -24.63232421875 46.422011718750014 -24.63232421875 45.06201171875 C-25.952324218749993 44.732011718750016 -27.272324218749986 44.40201171875 -28.63232421875 44.06201171875 Z M-36.63232421875 51.06201171875 C-36.63232421875 52.38201171874999 -36.63232421875 53.702011718749986 -36.63232421875 55.06201171875 C-35.97232421875 54.732011718750016 -35.31232421875001 54.40201171875 -34.63232421875 54.06201171875 C-34.96232421875001 53.07201171874999 -35.29232421875 52.08201171875001 -35.63232421875 51.06201171875 C-35.96232421875001 51.06201171875 -36.29232421875 51.06201171875 -36.63232421875 51.06201171875 Z M-21.63232421875 58.06201171875 C-21.962324218750013 59.05201171875001 -22.292324218749997 60.04201171874999 -22.63232421875 61.06201171875 C-21.64232421874999 61.06201171875 -20.65232421875001 61.06201171875 -19.63232421875 61.06201171875 C-19.63232421875 60.07201171874999 -19.63232421875 59.08201171875001 -19.63232421875 58.06201171875 C-20.292324218749997 58.06201171875 -20.952324218749993 58.06201171875 -21.63232421875 58.06201171875 Z M-53.63232421875 65.06201171875 C-53.63232421875 66.05201171875001 -53.63232421875 67.04201171875002 -53.63232421875 68.06201171875 C-52.31232421875001 68.06201171875 -50.992324218750014 68.06201171875 -49.63232421875 68.06201171875 C-49.96232421875001 67.07201171874999 -50.29232421875 66.08201171874998 -50.63232421875 65.06201171875 C-51.62232421875001 65.06201171875 -52.61232421874999 65.06201171875 -53.63232421875 65.06201171875 Z M121.36767578125 70.06201171875 C122.02767578125003 71.71201171875 122.68767578125 73.36201171875001 123.36767578125 75.06201171875 C124.02767578125003 74.40201171875 124.68767578125 73.74201171875 125.36767578125 73.06201171875 C124.70767578124997 72.07201171874999 124.04767578125 71.08201171874998 123.36767578125 70.06201171875 C122.70767578124997 70.06201171875 122.04767578125 70.06201171875 121.36767578125 70.06201171875 Z M94.36767578125 75.06201171875 C94.03767578125002 75.22701171875002 94.03767578125002 75.22701171875002 92.36767578125 76.06201171875 C92.69767578124998 77.38201171875 93.02767578125003 78.70201171874999 93.36767578125 80.06201171875 C94.02767578125003 80.22701171875002 94.02767578125003 80.22701171875002 97.36767578125 81.06201171875 C96.99267578125 78.62451171875 96.99267578125 78.62451171875 96.36767578125 76.06201171875 C95.70767578124997 75.73201171875002 95.04767578125 75.40201171875 94.36767578125 75.06201171875 Z M72.36767578125 78.06201171875 C70.30517578125 79.68701171875 70.30517578125 79.68701171875 68.36767578125 82.06201171875 C68.61767578125 85.31201171875 68.61767578125 85.31201171875 69.36767578125 88.06201171875 C71.68017578125 88.74951171875 71.68017578125 88.74951171875 74.36767578125 89.06201171875 C76.18017578125 87.99951171875 76.18017578125 87.99951171875 77.36767578125 86.06201171875 C77.55517578125 82.87451171875 77.55517578125 82.87451171875 77.36767578125 80.06201171875 C76.54267578125001 79.73201171875002 76.54267578125001 79.73201171875002 72.36767578125 78.06201171875 Z M83.36767578125 83.06201171875 C83.03767578125002 83.72201171875 82.70767578124997 84.38201171875 82.36767578125 85.06201171875 C83.35767578125001 86.38201171875 84.34767578125002 87.70201171874999 85.36767578125 89.06201171875 C86.68767578125 88.73201171875002 88.00767578124999 88.40201171875 89.36767578125 88.06201171875 C88.70767578124997 86.41201171875 88.04767578125 84.76201171874999 87.36767578125 83.06201171875 C86.04767578125 83.06201171875 84.72767578125001 83.06201171875 83.36767578125 83.06201171875 Z M140.36767578125 86.06201171875 C139.70767578124997 87.38201171875 139.04767578125 88.70201171874999 138.36767578125 90.06201171875 C139.02767578125003 90.72201171875 139.68767578125 91.38201171875 140.36767578125 92.06201171875 C141.68767578125 92.06201171875 143.00767578125 92.06201171875 144.36767578125 92.06201171875 C144.36767578125 90.41201171875 144.36767578125 88.76201171874999 144.36767578125 87.06201171875 C143.04767578125 86.73201171875002 141.72767578125 86.40201171875 140.36767578125 86.06201171875 Z M45.36767578125 90.06201171875 C45.03767578124996 91.71201171875 44.70767578125003 93.36201171875001 44.36767578125 95.06201171875 C45.19267578124999 95.22701171875002 45.19267578124999 95.22701171875002 49.36767578125 96.06201171875 C49.69767578125004 94.41201171875 50.02767578124997 92.76201171874999 50.36767578125 91.06201171875 C48.71767578125002 90.73201171875002 47.06767578124999 90.40201171875 45.36767578125 90.06201171875 Z M66.36767578125 95.06201171875 C66.36767578125 96.05201171875001 66.36767578125 97.04201171875002 66.36767578125 98.06201171875 C67.02767578125003 97.73201171875002 67.68767578125 97.40201171875 68.36767578125 97.06201171875 C68.36767578125 96.40201171875 68.36767578125 95.74201171875 68.36767578125 95.06201171875 C67.70767578124997 95.06201171875 67.04767578125 95.06201171875 66.36767578125 95.06201171875 Z M52.36767578125 100.06201171875 C53.24267578125 104.93701171875 53.24267578125 104.93701171875 54.36767578125 106.06201171875 C56.03384693232175 106.10265003950786 57.70155672973419 106.1047327200709 59.36767578125 106.06201171875 C59.05517578125 104.18701171875 59.05517578125 104.18701171875 58.36767578125 102.06201171875 C55.36767578125 100.06201171875 55.36767578125 100.06201171875 52.36767578125 100.06201171875 Z M106.36767578125 103.06201171875 C106.03767578125002 104.05201171875001 105.70767578124997 105.04201171875002 105.36767578125 106.06201171875 C105.69767578124998 106.72201171875 106.02767578125003 107.38201171875 106.36767578125 108.06201171875 C108.01767578124998 107.73201171875002 109.66767578125001 107.40201171875 111.36767578125 107.06201171875 C110.70767578124997 105.74201171875 110.04767578125 104.42201171875001 109.36767578125 103.06201171875 C108.37767578124999 103.06201171875 107.38767578124998 103.06201171875 106.36767578125 103.06201171875 Z M82.36767578125 109.06201171875 C82.03767578125002 110.38201171875 81.70767578124997 111.70201171874999 81.36767578125 113.06201171875 C82.68767578125 112.73201171875002 84.00767578124999 112.40201171875 85.36767578125 112.06201171875 C85.03767578125002 111.07201171874999 84.70767578124997 110.08201171874998 84.36767578125 109.06201171875 C83.70767578124997 109.06201171875 83.04767578125 109.06201171875 82.36767578125 109.06201171875 Z M37.36767578125 113.06201171875 C35.61767578125 114.87451171875 35.61767578125 114.87451171875 34.36767578125 117.06201171875 C34.69767578125004 118.05201171875001 35.02767578124997 119.04201171875002 35.36767578125 120.06201171875 C39.24267578125 119.18701171875 39.24267578125 119.18701171875 40.36767578125 118.06201171875 C40.40831410200781 116.39584056767825 40.410396782570956 114.7281307702658 40.36767578125 113.06201171875 C39.37767578124999 113.06201171875 38.38767578124998 113.06201171875 37.36767578125 113.06201171875 Z M68.36767578125 117.06201171875 C68.36767578125 118.38201171875 68.36767578125 119.70201171874999 68.36767578125 121.06201171875 C69.68767578125 121.72201171875 71.00767578124999 122.38201171875 72.36767578125 123.06201171875 C72.99267578125 121.18701171875 72.99267578125 121.18701171875 73.36767578125 119.06201171875 C72.70767578124997 118.40201171875 72.04767578125 117.74201171875 71.36767578125 117.06201171875 C70.37767578124999 117.06201171875 69.38767578124998 117.06201171875 68.36767578125 117.06201171875 Z M50.36767578125 121.06201171875 C49.68017578125 122.87451171875 49.68017578125 122.87451171875 49.36767578125 125.06201171875 C50.55517578125 126.87451171875 50.55517578125 126.87451171875 52.36767578125 128.06201171875 C54.55517578125 127.74951171875 54.55517578125 127.74951171875 56.36767578125 127.06201171875 C56.410396782570956 125.3958926672342 56.40831410200781 123.72818286982175 56.36767578125 122.06201171875 C55.36767578125 121.06201171875 55.36767578125 121.06201171875 52.80517578125 120.99951171875 C52.00080078125001 121.02013671875 51.196425781250014 121.04076171874999 50.36767578125 121.06201171875 Z M62.36767578125 122.06201171875 C61.70767578125003 122.72201171875 61.04767578125001 123.38201171875 60.36767578125 124.06201171875 C60.36767578125 125.38201171875 60.36767578125 126.70201171874999 60.36767578125 128.06201171875 C61.68767578124999 127.73201171875002 63.007675781249986 127.40201171875 64.36767578125 127.06201171875 C64.69767578124998 125.41201171875 65.02767578125003 123.76201171874999 65.36767578125 122.06201171875 C64.37767578124999 122.06201171875 63.38767578124998 122.06201171875 62.36767578125 122.06201171875 Z M94.36767578125 128.06201171875 C93.05517578125 131.18701171875003 93.05517578125 131.18701171875003 92.36767578125 134.06201171875 C87.76347397737948 136.70942775597555 83.65071531768274 135.92834577038886 78.63720703125 135.05810546875 C76.36767578125 135.06201171875 76.36767578125 135.06201171875 74.69189453125 136.28466796875 C73.31498197416528 138.1327364450732 72.30927675276143 139.96151724383986 71.36767578125 142.06201171875 C70.55685546874997 141.88541015625 69.74603515625 141.70880859375 68.91064453125 141.52685546875 C63.752147053574845 140.7161486474623 59.972678581404125 140.12920725628928 55.33642578125 142.82373046875 C52.592891263393994 145.1549641531642 49.98197455654656 147.58769114559533 47.36767578125 150.06201171875 C43.99009085293511 152.51091981178433 40.40664790018013 154.5196071566615 36.71142578125 156.44873046875 C30.64670930560851 159.62270983306234 24.99452778934335 162.91811894184394 20.36767578125 168.06201171875 C20.36767578125 168.72201171874997 20.36767578125 169.38201171875 20.36767578125 170.06201171875 C24.773933451994708 169.45995549046506 28.59580337074965 168.34029531565216 32.74267578125 166.74951171875 C38.49962513838102 164.64124799824765 44.21320659533279 163.0035899529579 50.173583984375 161.5888671875 C56.02621823803361 160.1884179431741 61.77546562041823 158.51124818908926 67.521240234375 156.72412109375 C71.8200913795705 155.4144333862954 75.92244177185955 154.5880407107585 80.36767578125 154.06201171875 C80.20267578124998 153.73201171875002 80.20267578124998 153.73201171875002 79.36767578125 152.06201171875 C78.70767578125003 152.06201171875 78.04767578125 152.06201171875 77.36767578125 152.06201171875 C78.74267578125 150.56201171875 78.74267578125 150.56201171875 80.36767578125 149.06201171875 C81.02767578124997 149.06201171875 81.68767578125 149.06201171875 82.36767578125 149.06201171875 C82.53267578125002 149.88701171875 82.53267578125002 149.88701171875 83.36767578125 154.06201171875 C84.80678918090632 153.7784128517318 86.24393095948022 153.48479772645345 87.68017578125 153.18701171875 C88.08042968749999 153.10580078124997 88.08042968749999 153.10580078124997 90.10595703125 152.69482421875 C92.36767578125 152.06201171875 92.36767578125 152.06201171875 95.36767578125 150.06201171875 C97.92278329281083 149.6305200528904 100.42171860261311 149.2773877295989 102.99267578125 148.99951171875 C110.24581714250655 148.18387035749345 110.24581714250655 148.18387035749345 111.36767578125 147.06201171875 C112.56392578125002 147.00013671875 113.76017578124998 146.93826171875003 114.99267578125 146.87451171875 C119.4779665808108 146.3985546015304 121.74443983385879 144.51146789110987 124.92236328125 141.43701171875 C126.67641081164203 139.76829623037708 127.73986925734363 139.05931727014953 130.18798828125 139.06982421875 C130.56826171875002 139.08916015625 130.56826171875002 139.08916015625 132.49267578125 139.18701171875 C137.31243971174172 139.23612139489765 141.83252768747246 138.6192141126701 146.55517578125 137.74951171875 C146.88751220703125 137.69061767578125 146.88751220703125 137.69061767578125 148.5693359375 137.392578125 C153.19339089091687 136.49578475062242 157.12325280590255 135.02732819371633 161.36767578125 133.06201171875 C161.36767578125 132.40201171875 161.36767578125 131.74201171875 161.36767578125 131.06201171875 C159.01399185282912 130.58036983378355 156.65977422736046 130.10164523987513 154.30517578125 129.62451171875 C153.64839843749996 129.4898046875 152.99162109375004 129.35509765625 152.31494140625 129.21630859375 C144.2139505346194 127.58014787583446 136.44271320930062 126.87998722400386 128.18017578125 126.87451171875 C127.1959765625 126.86226562500002 126.21177734374999 126.85001953124998 125.19775390625 126.83740234375 C124.24964843750001 126.83546875000002 123.30154296875003 126.83353515624998 122.32470703125 126.83154296875 C121.46852783203127 126.82743408203123 120.61234863281248 126.82332519531252 119.730224609375 126.819091796875 C117.18908767182523 127.0803743485813 115.55967659579721 127.78379313022955 113.36767578125 129.06201171875 C113.20267578125004 128.56701171875 113.20267578125004 128.56701171875 112.36767578125 126.06201171875 C105.99441042022175 122.87537903823588 100.38692492707162 124.5440046166313 94.36767578125 128.06201171875 Z M36.36767578125 129.06201171875 C35.70767578125003 130.38201171875 35.04767578125001 131.70201171875 34.36767578125 133.06201171875 C34.862675781250005 133.39201171875 34.862675781250005 133.39201171875 37.36767578125 135.06201171875 C38.02767578124997 134.73201171875 38.68767578124999 134.40201171875 39.36767578125 134.06201171875 C39.99267578125 131.99951171875 39.99267578125 131.99951171875 40.36767578125 130.06201171875 C39.04767578125001 129.73201171875 37.727675781250014 129.40201171875 36.36767578125 129.06201171875 Z M10.36767578125 172.06201171875 C9.34826388465882 173.04221546547228 8.345212221796487 174.04004180363324 7.36767578125 175.06201171875 C4.68017578125 175.74951171875 4.68017578125 175.74951171875 2.36767578125 176.06201171875 C2.037675781249959 177.05201171875 1.7076757812500318 178.04201171875002 1.36767578125 179.06201171875 C6.3648153657479725 178.68722624991267 9.404727094595216 176.96962735326542 13.46533203125 174.27294921875 C15.666611832174283 172.87172388345937 17.90292279874933 171.9092705564846 20.36767578125 171.06201171875 C16.365557586549244 169.72797232051641 14.288039339568172 170.6618818764935 10.36767578125 172.06201171875 Z " fill="#000000" transform="translate(258.63232421875,113.93798828125)"/>
<path d="M0 0 C2 0.875 2 0.875 3.25 3.4375 C3.3737499999999727 3.8396874999999966 3.3737499999999727 3.8396874999999966 4 5.875 C2.25 6.625 2.25 6.625 0 6.875 C-2.25 5.0625 -2.25 5.0625 -4 2.875 C-4 2.2150000000000034 -4 1.5550000000000068 -4 0.875 C-2 -0.125 -2 -0.125 0 0 Z " fill="#000000" transform="translate(287,192.125)"/>
<path d="M0 0 C0.9900000000000091 0 1.9799999999999898 0 3 0 C2.6699999999999875 1.6500000000000057 2.3400000000000034 3.3000000000000114 2 5 C1.009999999999991 4.6699999999999875 0.020000000000010232 4.340000000000003 -1 4 C-0.6699999999999875 2.680000000000007 -0.3400000000000034 1.3600000000000136 0 0 Z " fill="#000000" transform="translate(251,218)"/>
<path d="M0 0 C0.9900000000000091 0.3300000000000125 1.9799999999999898 0.6599999999999966 3 1 C2.6699999999999875 2.6500000000000057 2.3400000000000034 4.300000000000011 2 6 C1.009999999999991 5.6699999999999875 0.020000000000010232 5.340000000000003 -1 5 C-0.6699999999999875 3.3499999999999943 -0.3400000000000034 1.6999999999999886 0 0 Z " fill="#000000" transform="translate(188,250)"/>
</svg>
