<svg xmlns="http://www.w3.org/2000/svg" width="512" height="512"><path d="M258.632 113.938c52.999-1.17 104.511 19.443 142.9 55.681a441 441 0 0 0 4.25 3.928c24.22 22.968 39.274 57.343 40.456 90.683.615 32.93-8.896 60.577-31.72 84.583C382.416 381.756 333.539 394.58 289 398l-3.953.336c-4.014.3-8.025.517-12.047.664l-2.318.087c-55.264 1.745-124.173-11.13-166.182-49.774A486 486 0 0 1 99 344l-2.016-1.863C78.451 324.647 67.17 297.1 65.89 271.823c-1.023-39.472 13.652-70.98 39.833-99.714C107 171 107 171 109 171v-2a129 129 0 0 1 6.375-5.187l1.95-1.504A843 843 0 0 1 123 158l2.594-1.965c10.411-7.577 21.99-13.428 33.528-19.075 4.569-2.252 8.984-4.697 13.378-7.273 4.793-2.779 9.235-4.991 14.5-6.687l2.023-.766c6.517-2.4 13.119-3.307 19.977-4.234l2.188-.414c4.252-.762 7.594-.283 11.75.602 4.155.784 6.463 1.048 10.187-1 7.629-4.06 17.073-3.051 25.507-3.25m-10.527 12.078c-2.583 1.207-4.64 1.256-7.48 1.359-5.009.359-7.536 1.652-11.625 4.625-3.172.718-6.02 1.054-9.27.875-6.204-.33-6.204-.33-9.48 2.5L208 138c-3.747 1.978-7.782 2.648-11.914 3.438C194 142 194 142 191 144l-.875 2.875c-1.349 3.746-2.995 4.777-6.125 7.125-1.312 2.25-1.312 2.25-2 4h-7l-.562 2.688c-1.954 4.5-4.329 5.725-8.438 8.312l1 5-3 1c-1.187 3.063-1.187 3.063-2 6l-5 1 1 8-2 1c-2.339 4.864-3.962 9.819-5.437 15l-.64 2.231q-.65 2.274-1.291 4.551a484 484 0 0 1-1.843 6.273c-2.16 7.491-3.373 14.143-2.789 21.945 3-1 3-1 4.246-3.11l1.191-2.64c1.848-3.888 3.774-6.954 6.563-10.25q1.589-2.232 3.125-4.5l1.508-2.219C162 216 162 216 162.996 213.492c1.044-2.592 2.328-4.592 3.941-6.867 1.993-2.848 3.347-5.235 4.313-8.562L173 195c2.51-.67 4.983-.951 7.559-1.281 3.072-.905 3.768-1.938 5.379-4.656l1.027-2.09c1.092-2.082 2.372-3.338 4.035-4.973l.5-2.125.5-1.875 3-1 1.375-2.875C198 171 198 171 200.254 169.668c3.336-2.027 5.734-4.598 8.309-7.48l1.42-1.542c2.31-2.549 4.182-4.916 5.99-7.873 2.403-3.288 4.094-4.023 7.902-5.335 4.966-1.895 8.506-3.518 12.125-7.438v-4l3.875.813c6.06.695 10.002-1.88 15.125-4.813 4.62-2.305 8.872-3.347 14-4 3.375-.937 3.375-.937 6-2l1-2c-23.678-.245-23.678-.245-27.895 2.016M324 132v2h2v-2zm-26 2 1 4h5v-2c-3-2-3-2-6-2m-34 11v2c3.766 1.255 5.372.37 9-1v-3c-5.625-.25-5.625-.25-9 2m-10 0v4h3v-3zm-99 4a732 732 0 0 0-4.5 3.875l-2.531 2.18L146 157v2h-2c-2.273 3.156-4.087 6.617-6 10l-1.621 2.797c-8.3 14.653-10.805 30.486-8.379 47.203 3.195-1.597 3.873-4.787 5-8q.884-3.666 1.563-7.375l.753-3.95L136 196c1.728-9.282 1.728-9.282 5-13v-2h-2v-3l1.824-.035C143 177 143 177 144.457 173.754q.694-2.09 1.356-4.191c2.4-7.046 5.46-12.745 10.187-18.563zm158.875-.312-2.05.2c-4.908.603-7.854 2.275-11.825 5.112-3.875.75-3.875.75-7 1v3l-2.45-.36c-8.523-1.028-8.523-1.028-12.863.61-2.716 4.426-1.55 8.795-.687 13.75l-2.375.938C272 174 272 174 270 175c-5.243.396-7.598-.359-12-3-3.812-.187-3.812-.187-7 0l.176 2.266c.364 7.952.364 7.952-1.988 11.359-3.935 1.697-7.405 1.799-11.649 2.04-2.539.335-2.539.335-5.226 2.21C231 192 231 192 231 195l-1.687.625c-3.309 1.967-5.029 4.266-7.313 7.375v3l-1.687.188c-3.325 1.167-5.003 3.198-7.313 5.812l-1 2.125c-1 1.875-1 1.875-3.312 3.063-3.396 2.29-4.39 4.686-6.231 8.269-2.135 3.726-4.834 6.903-7.59 10.184-2.345 2.964-4.554 5.796-5.304 9.547L189 247l-1.875.875c-3.181 1.684-3.759 3.84-5.125 7.125-.512 3.648-.512 3.648-.687 7.375l-.2 3.773L181 269c4.588-1.59 8.37-4.004 12.375-6.687l2.025-1.353c4.746-3.233 8.712-6.737 12.6-10.96 2.969-2.775 6.039-5.085 9.625-7 3.414-2.023 5.052-3.848 7.375-7 2.984-1.99 4.324-2.354 7.75-2.875 4.11-.755 6.985-1.905 10.484-4.121 2.66-1.512 5.482-2.314 8.387-3.238 7.636-2.458 14.132-5.661 20.828-10.094A96 96 0 0 1 279 211.75c2.457-1.433 4.178-2.606 6-4.75l4 2 1.313-1.312L292 206l1.344-1.414c2.459-2.355 5.238-4.22 8.011-6.184L303 197v-2l2.188-.437c3.275-1.82 3.4-2.617 4.812-5.938 1.666-3.326 2.55-4.424 5.996-5.965a222 222 0 0 1 6.887-1.828c3.811-1.017 6.145-2.285 9.117-4.832v-2l1.652.543c7.851 2.214 13.335.215 20.348-3.543a174 174 0 0 0 5-4l1 3c1.805.813 1.805.813 4 1 2.008-.812 2.008-.812 4.125-2 5.172-2.513 9.341-2.063 14.875-1v-3c-16.327-10.16-31.749-13.318-50.66-15.698q-2.232-.287-4.457-.63c-4.85-.721-9.185-.602-14.008.016M257 152v3h2v-3zm-16 5-1 3h3l-1-3zm-11 1v4l4 1v-4zm-8 7v4l2-1-1-3zm15 7-1 3h3v-3zm-32 7v3h4l-1-3zm175 5 2 5 2-2-2-3zm-27 5-2 1 1 4 4 1c-.375-2.437-.375-2.437-1-5zm-22 3c-2.062 1.625-2.062 1.625-4 4 .25 3.25.25 3.25 1 6 2.313.688 2.313.688 5 1 1.813-1.062 1.813-1.062 3-3 .188-3.187.188-3.187 0-6zm11 5-1 2 3 4 4-1-2-5zm57 3-2 4 2 2h4v-5zm-95 4-1 5 5 1 1-5zm21 5v3l2-1v-2zm-14 5c.875 4.875.875 4.875 2 6 1.666.04 3.334.043 5 0-.312-1.875-.312-1.875-1-4-3-2-3-2-6-2m54 3-1 3 1 2 5-1-2-4zm-24 6-1 4 4-1-1-3zm-45 4c-1.75 1.813-1.75 1.813-3 4l1 3c3.875-.875 3.875-.875 5-2 .04-1.666.043-3.334 0-5zm31 4v4l4 2c.625-1.875.625-1.875 1-4l-2-2zm-18 4c-.687 1.813-.687 1.813-1 4 1.188 1.813 1.188 1.813 3 3 2.188-.312 2.188-.312 4-1 .043-1.666.04-3.334 0-5-1-1-1-1-3.562-1.062zm12 1-2 2v4l4-1 1-5zm32 6c-1.312 3.125-1.312 3.125-2 6-4.604 2.647-8.717 1.866-13.73.996-2.27.004-2.27.004-3.946 1.227-1.377 1.848-2.382 3.677-3.324 5.777l-2.457-.535c-5.159-.81-8.938-1.398-13.574 1.297-2.744 2.331-5.355 4.764-7.969 7.238-3.378 2.449-6.961 4.458-10.656 6.387-6.065 3.174-11.717 6.47-16.344 11.613v2c4.406-.602 8.228-1.722 12.375-3.312 5.757-2.109 11.47-3.746 17.43-5.161 5.854-1.4 11.603-3.078 17.349-4.865 4.298-1.31 8.4-2.136 12.846-2.662l-1-2h-2c1.375-1.5 1.375-1.5 3-3h2l1 5q2.159-.427 4.313-.875l2.425-.492C351 266 351 266 354 264c2.555-.431 5.054-.785 7.625-1.062 7.253-.816 7.253-.816 8.375-1.938l3.625-.187c4.485-.476 6.752-2.364 9.93-5.438 1.754-1.669 2.817-2.378 5.265-2.367l2.305.117c4.82.05 9.34-.568 14.063-1.437.332-.06.332-.06 2.014-.357 4.624-.897 8.554-2.366 12.798-4.331v-2q-3.531-.722-7.062-1.437l-1.99-.409c-8.102-1.636-15.873-2.336-24.135-2.341l-2.983-.038-2.873-.005-2.594-.013c-2.542.261-4.171.965-6.363 2.243l-1-3c-6.373-3.187-11.98-1.518-18 2m-58 1-2 4 3 2 2-1c.625-2.062.625-2.062 1-4zm-26 43a102 102 0 0 0-3 3c-2.687.688-2.687.688-5 1l-1 3c4.997-.375 8.037-2.092 12.098-4.79 2.2-1.4 4.437-2.363 6.902-3.21-4.002-1.334-6.08-.4-10 1"/><path d="M287 192.125c2 .875 2 .875 3.25 3.438L291 198c-1.75.75-1.75.75-4 1-2.25-1.812-2.25-1.812-4-4v-2c2-1 2-1 4-.875M251 218h3l-1 5-3-1zm-63 32 3 1-1 5-3-1z"/></svg>