<svg xmlns="http://www.w3.org/2000/svg" width="512" height="512"><path d="M328.813 155.375c3.025 3.015 4.99 6.015 6.988 9.781 5.348 9.748 12.413 12.327 22.59 15.893 4.418 1.61 8.698 3.52 12.984 5.451l2.535 1.14c7.081 3.241 13.674 6.92 20.09 11.36l2.063 1.41c8.58 6.57 13.454 16.533 16.595 26.63 3.37 10.24 10.683 17.687 18.342 24.96 10.063 9.556 21.35 21.927 22.14 36.587q.028 2.925.035 5.851c.04 10.328.786 17.439 6.102 26.39 5.775 10.633 5.841 22.807 2.762 34.203-2.564 7.326-6.982 13.502-14.039 16.969-8.028 3.206-15.987 4.112-24.258 1.207-3.877-1.806-6.872-4.083-10.066-6.941-2.01-1.518-4.066-2.426-6.363-3.454-4.503-2.06-7.102-4.618-10.438-8.25-3.382-3.234-4.832-4.536-9.566-4.656-2.036.28-4.03.663-6.045 1.07-11.646 2.29-23.963-1.417-34.264-6.976a112 112 0 0 1-4.312-3.375c-2.817-2.254-3.34-2.619-7.125-2.687-3.482 1.038-6.935 2.11-10.352 3.343-10.18 3.31-20.178 1.908-30.336-.668-6.437-1.373-11.063.804-16.875 3.387-4.97 1.394-10.068 1.184-15.187 1.188l-2.713.037c-8.633.018-16.312-1.014-24.038-5.038-6.581-2.885-10.561-1.657-17.062.813-10.902 3.298-21.664 3.133-32.281-1.027-3.005-1.075-5.524-1.79-8.719-1.973-2.676 1.293-2.676 1.293-5.312 3.188-11.968 8.129-23.189 10.88-37.688 9.812a98 98 0 0 1-4.5-1.687c-2.082-.586-2.082-.586-4.5-.313-3.931 2.242-7.284 5.253-10.668 8.23-3.249 2.825-6.859 5.77-11.332 5.77l-.625 1.688c-3.188 5.361-7.518 7.735-13.375 9.312-10.515 1.005-18.835-.077-27.75-5.75-8.456-8.456-12.82-17.81-13.414-29.816.381-7.978 2.856-15.374 6.852-22.247 3.44-6.344 2.99-13.22 3.222-20.259.645-13.776 6.625-24.283 16.09-33.928a357 357 0 0 0 3.5-4.062c2.554-2.964 5.278-5.63 8.125-8.313 5.963-5.932 8.549-12.465 11.547-20.218 9.43-24.273 30.976-35.554 53.831-45.746 4.073-1.756 8.149-3.5 12.256-5.174 8.077-3.364 12.982-6.706 17.616-14.362 8.424-13.003 19.936-18.413 34.838-21.675 32.052-6.303 86.367-11.855 112.1 12.925M313 163c-9.037 14.768-11 35.362-14.262 52.04l-.45 2.302c-3.848 19.79-6.833 39.709-9.795 59.647-.584 3.915-1.177 7.83-1.77 11.744q-.864 5.706-1.717 11.412-.404 2.697-.812 5.394-.561 3.727-1.112 7.457c-.11.726-.22 1.452-.335 2.2-.58 3.97-.856 7.793-.747 11.804 2.313.688 2.313.688 5 1 2.603-1.724 3.011-3.044 3.796-6.09l.599-3.848.34-2.12q.364-2.274.712-4.552c.37-2.422.756-4.842 1.145-7.261q.811-5.054 1.61-10.11c4.613-29.114 10.217-57.874 17.26-86.506q.655-2.67 1.305-5.342c4.226-17.313 4.226-17.313 8.233-25.171 0 2.809-.35 4.467-1.18 7.102-12.855 41.87-20.895 84.715-27.754 127.91l-.33 2.065C292 318.762 292 318.762 292 321h2c3.23-6.483 5.054-12.71 6.375-19.812l.628-3.236c1.498-7.874 2.8-15.775 4.078-23.686 4.507-27.884 10.147-55.225 18.169-82.329l.777-2.658a669 669 0 0 1 2.239-7.44l.656-2.232c1.306-4.158 2.7-6.818 6.078-9.607-5.304-9.152-5.304-9.152-9-11-4.528-.834-7.941.68-11 4m-124 2c-4 5.368-4 5.368-4 8l3 2.125c27.336 23.22 30.582 85.162 36.668 119.086l.407 2.267c.639 3.561 1.27 7.124 1.884 10.689 2.792 15.852 2.792 15.852 5.041 20.833 2.688 1.625 2.688 1.625 5 2 2.548-3.822 2.12-6.635 1.824-11.027l-.153-2.519c-.794-11.723-2.342-23.37-3.858-35.017l-.473-3.664c-4.32-33.39-9.639-66.354-19.903-98.523l-.777-2.507c-2.277-6.786-5.614-12.712-11.66-16.743-5.916-.781-9.09.662-13 5m-9 12v4a241 241 0 0 0 3.552 3.37c3.127 3.52 4.858 8.02 6.823 12.255l1.458 3.105c4.276 9.248 7.935 18.613 11.167 28.27l.857 2.54c4.117 12.285 7.655 24.683 10.834 37.245l.829 3.203.721 2.86C217 276 217 276 219 277c-.639-8.914-2.88-17.428-5.062-26.062l-.609-2.42c-4.494-17.793-9.88-35.065-16.954-52.018l-1.055-2.554c-2.858-6.593-6.237-12.89-12.32-16.946zm157 2c-7.239 7.915-9.999 19.438-13.312 29.438l-1.16 3.494c-5.473 16.756-10.33 33.764-14.028 51.006l-.486 2.255c-.805 3.992-1.167 7.738-1.014 11.807l2-1a131 131 0 0 0 2.18-8.02l1.297-5.176.689-2.774c3.838-15.384 8.03-30.604 13.022-45.655l.707-2.177c2.864-8.767 6.229-16.966 10.644-25.08.89-1.67 1.684-3.392 2.461-5.118l-1-3zm38 62c-2.849 4.226-5.445 8.591-8 13l-2.031 3.414c-9.448 16.122-17.395 33.222-24.719 50.399l-.979 2.276c-1.648 3.965-2.758 7.61-3.271 11.911h4l1.258-2.55a1865 1865 0 0 1 12.892-25.487q1.334-2.6 2.661-5.204c24.9-48.247 24.9-48.247 43.396-54.915L403 233l-2.562 2.125L397 238l-1.676 1.387c-7.673 6.438-14.148 13.196-19.699 21.55l-1.69 2.518C360.293 283.975 347.818 306.55 340 330c-2.062 1.188-2.062 1.188-4 2 1 1 1 1 3.125 1.438 4.42-.673 6.908-3.19 9.875-6.438 1.97-3.158 3.453-6.467 4.938-9.875q1.284-2.82 2.574-5.64l1.267-2.811c2.885-6.317 6.06-12.492 9.221-18.674l1.477-2.937c5.71-10.974 13.057-20.875 21.515-29.88C392 255 392 255 393.836 252.556c2.658-3.138 5.625-5.428 8.914-7.868l1.824-1.376A885 885 0 0 1 409 240l1 2-1.836 1.398c-13.583 10.574-23.962 22.993-33.351 37.29l-1.21 1.819c-.933 1.458-1.778 2.972-2.603 4.493l1 2c8.51-10.325 8.51-10.325 12.5-15.562 3.905-5.054 8.152-9.764 12.5-14.438l1.777-1.941c3.933-4.137 8.238-7.324 12.989-10.48A32.2 32.2 0 0 0 417 242l-1.54-1.477c-5.572-5.74-8.397-11.237-11.233-18.582C403 219 403 219 401 217c-10.848-2.583-20.63 16.316-26 24m-263-23-2 3 3.813.563c9.079 2.016 16.451 8.3 23.187 14.437-3.249-7.754-11.34-14.76-19-18-3.312-.437-3.312-.437-6 0m-8 12-1 2 3.813.125c13.646 1.658 24.733 13.141 33.101 23.316 13.165 16.852 22.218 36.511 31.3 55.74l1.07 2.251a550 550 0 0 1 1.977 4.202C176.866 323.1 179.816 327.717 185 331h2c-.42-7.035-3.37-12.709-6.375-19l-1.646-3.48a3097 3097 0 0 0-3.371-7.102 433 433 0 0 1-4.253-9.36C162.153 271.515 149.563 252.323 134 236l-2.125-2.25c-5.718-5.534-12.474-8.016-20.25-9.312-3.712.795-5.238 2.698-7.625 5.562m-7 14v2l2.02.594c26.206 8.503 42.097 35.98 56.98 57.406l1-2c-.77-1.705-.77-1.705-2.027-3.746l-1.389-2.271-1.522-2.42-1.54-2.476C143.617 280.094 135.943 270.38 127 261l-2.352-2.547c-4.486-4.724-8.944-8.155-14.68-11.262C108 246 108 246 107 244c23.62 8.863 40.083 35.328 51 57 1.518 3.583 2.715 7.261 3.918 10.96 1.915 5.38 4.755 10.251 9.082 14.04h2c-1.951-8.078-4.682-15.54-8.062-23.125l-1.469-3.306c-10.506-23.215-26.563-52.02-51.059-62.698-7.823-2.828-11.106.787-15.41 7.129m41-7c1.364 2.992 2.95 5.29 5.125 7.75l1.633 1.86L146 248c0-3.76-.965-4.457-3.437-7.187l-1.934-2.168L139 237zm9 11 1 3v-3zm3 4 1 2Zm3 4 1 2Zm19 12c.626 3.518 1.54 6.731 2.785 10.078l1.098 2.984 1.18 3.188a624 624 0 0 1 10.373 30.864l.935 3.003.81 2.644C190 323 190 323 192 326h2c1.998-7.13-.601-12.41-3.312-19.062l-1.366-3.44a627 627 0 0 0-9.76-22.935l-1.249-2.796-1.184-2.576-1.03-2.243c-1.14-2.02-2.387-3.398-4.099-4.948m250 28-2.168 1.793c-4.05 3.423-7.553 7.055-10.977 11.098-2.067 2.35-4.25 4.538-6.48 6.734-3.358 3.312-6.441 6.684-9.375 10.375l1 2c3.975-3.883 7.877-7.783 11.5-12 9.317-10.74 23.338-25.955 38.125-27.875L447 288l-1-4c-9.907-.99-16.905 5.991-24 12M70 285v3q2.155.505 4.313 1l2.425.563C79 290 79 290 82 290c-3.883-3.648-6.712-4.585-12-5m-4 8-1 12 4.75.625c16.84 3.095 32.193 16.54 42.813 29.563L115 338h3c-1.484-3.487-3.462-5.642-6.187-8.25-2.894-2.815-5.618-5.639-8.188-8.75-6.871-7.95-15.001-13.846-24.625-18 17.671 4.635 31.126 20.693 42.368 34.354 1.794 1.81 3.235 2.785 5.632 3.646l3-1-1.652-1.8c-4.027-4.427-7.937-8.89-11.66-13.575-10.644-13.079-25.554-29.341-42.438-33.562C71 291 71 291 66 293m17-1 1 2 2-1zm338 11-3.187 2.5c-2.964 2.635-5.46 5.448-8.028 8.46-1.693 1.935-3.45 3.742-5.285 5.54-4.329 4.261-8.27 8.837-12.168 13.492l-1.582 1.883-1.39 1.68C388 338 388 338 385 340v2c2.133.344 2.133.344 5 0a57 57 0 0 0 5.875-5.5l1.61-1.667a203 203 0 0 0 8.077-8.958C416.383 313.283 431.86 299.805 449 298c-.875-4.875-.875-4.875-2-6-11.362-.797-17.552 3.791-26 11m-56-6 1 2Zm-1 2 1 2Zm81 0v2l2-1zm-27.422 19.996a661 661 0 0 0-5.328 5.442l-2.707 2.736C397.146 339.78 397.146 339.78 393 346c6.48-2.984 11.266-8.215 16.186-13.273C420.446 321.187 432.4 311.962 448 307v-4c-11.417 0-22.592 8.439-30.422 15.996M65 316c-.61 2.582-.61 2.582-1 5l1.908.168q4.328.382 8.654.77l3.002.263c5.174.464 10.304 1 15.436 1.799-4.761-5.844-12.015-9.023-19.375-9.937-3.454-.31-5.785-.17-8.625 1.937m369 4c1.528 7.783 6.538 14.6 13 19 2.875 1.313 2.875 1.313 5 2a80.7 80.7 0 0 0-4.25-16.562l-1.14-3.067C445 319 445 319 442.007 318.101c-3.239-.109-5.133.462-8.008 1.899m-364.812 6-2.958 1.688L64 329v3l1.469-.988c4.71-3.071 9.206-5.205 14.531-7.012v-1c-4.46-.391-6.978.782-10.812 3M62 334c-2 3-2 3-2 7 5.366-1.238 8.736-3.969 12.852-7.441 2.122-1.54 3.588-2.136 6.148-2.559l-2.195 2.09C65.403 344.107 65.403 344.107 62 351v3c3.328-.581 4.936-1.574 7.277-3.984l1.807-1.836 1.853-1.93 1.842-1.883Q77.396 341.69 80 339c2.865-2.944 5.638-5.634 9-8l-1.426 1.61-1.886 2.14-1.864 2.11c-4.725 5.544-4.725 5.544-5.261 8.765L78 348q-1.998 1.005-4 2c-1.703 1.727-1.703 1.727-3.25 3.625l-1.578 1.914L68 357l3 1c2.688-1.937 2.688-1.937 5-4l-1.5 1.813C73 358 73 358 73 361c3-1 3-1 4.176-3.004l1.136-2.558c3.906-8.113 7.39-13.475 15.833-17.137C96 337 96 337 96.762 334.355L97 332c-11.328-9.955-23.888-7.378-35 2m329-5v3Zm56 24-1 3 4-1-1-2z"/><path d="M191 168c3.587 0 5.88.185 8.813 2.32 21.383 22.052 23.506 71.731 28.75 100.805l.406 2.214q.56 3.082 1.097 6.169l.624 3.52c.29 2.788.063 4.34-.69 6.972a554 554 0 0 1-5.488-23.52l-1.393-6.54q-1.07-5.037-2.131-10.075c-2.497-11.829-5.079-23.621-8.097-35.33-.232-.906-.463-1.811-.7-2.745-8.508-32.278-8.508-32.278-19.394-40.442L191 170z"/></svg>