<?xml version="1.0" encoding="UTF-8"?>
<!-- Generator: visioncortex VTracer 0.6.12 -->
<svg version="1.1" xmlns="http://www.w3.org/2000/svg" width="512" height="512">
  <metadata>
                <![CDATA[
            {
  "prompt": {
    "32": {
      "inputs": {
        "filename_prefix": [
          "35",
          0
        ],
        "svg": [
          "34",
          0
        ]
      },
      "class_type": "SaveSVGNode",
      "_meta": {
        "title": "SaveSVGNode"
      }
    },
    "33": {
      "inputs": {
        "mode": "spline",
        "filter_speckle": 4,
        "corner_threshold": 60,
        "length_threshold": 4.0,
        "splice_threshold": 45,
        "image": [
          "39",
          0
        ]
      },
      "class_type": "TS_ImageToSVGStringBW_Vtracer",
      "_meta": {
        "title": "Image to SVG String BW_Vtracer"
      }
    },
    "34": {
      "inputs": {
        "SVG_String": [
          "33",
          0
        ]
      },
      "class_type": "TS_SVGStringToSVGBytesIO",
      "_meta": {
        "title": "SVG String to SVG BytesIO"
      }
    },
    "35": {
      "inputs": {
        "value": "Icons/brunch-"
      },
      "class_type": "PrimitiveString",
      "_meta": {
        "title": "String"
      }
    },
    "39": {
      "inputs": {
        "image": "brunch-_00024_.png"
      },
      "class_type": "LoadImage",
      "_meta": {
        "title": "Load Image"
      },
      "is_changed": [
        "2712f14a4f5d2a82b9ee7bbfd8f398761a736bd24d7a9f9b15b84a6378f5c09f"
      ]
    }
  },
  "workflow": {
    "id": "ffc75dbf-0481-4313-853d-f0e2b2f0378d",
    "revision": 0,
    "last_node_id": 39,
    "last_link_id": 51,
    "nodes": [
      {
        "id": 32,
        "type": "SaveSVGNode",
        "pos": [
          -3794.3422054720877,
          -769.3913161360373
        ],
        "size": [
          270,
          344
        ],
        "flags": {},
        "order": 4,
        "mode": 0,
        "inputs": [
          {
            "name": "svg",
            "type": "SVG",
            "link": 42
          },
          {
            "name": "filename_prefix",
            "type": "STRING",
            "widget": {
              "name": "filename_prefix"
            },
            "link": 44
          }
        ],
        "outputs": [],
        "properties": {
          "cnr_id": "comfy-core",
          "ver": "0.17.2",
          "Node name for S&R": "SaveSVGNode"
        },
        "widgets_values": [
          "Icons/apps-"
        ]
      },
      {
        "id": 33,
        "type": "TS_ImageToSVGStringBW_Vtracer",
        "pos": [
          -4477.5666671420095,
          -847.343527805959
        ],
        "size": [
          314.01666259765625,
          234.66665649414062
        ],
        "flags": {},
        "order": 2,
        "mode": 0,
        "inputs": [
          {
            "name": "image",
            "type": "IMAGE",
            "link": 51
          }
        ],
        "outputs": [
          {
            "name": "STRING",
            "shape": 6,
            "type": "STRING",
            "links": [
              41
            ]
          }
        ],
        "properties": {
          "cnr_id": "comfyui-tosvg",
          "ver": "1.0.1",
          "Node name for S&R": "TS_ImageToSVGStringBW_Vtracer"
        },
        "widgets_values": [
          "spline",
          4,
          60,
          4,
          45
        ]
      },
      {
        "id": 34,
        "type": "TS_SVGStringToSVGBytesIO",
        "pos": [
          -4063.448243802166,
          -778.4199219709982
        ],
        "size": [
          225,
          72
        ],
        "flags": {},
        "order": 3,
        "mode": 0,
        "inputs": [
          {
            "name": "SVG_String",
            "type": "STRING",
            "link": 41
          }
        ],
        "outputs": [
          {
            "name": "SVG",
            "type": "SVG",
            "links": [
              42
            ]
          }
        ],
        "properties": {
          "cnr_id": "comfyui-tosvg",
          "ver": "1.0.1",
          "Node name for S&R": "TS_SVGStringToSVGBytesIO"
        },
        "widgets_values": []
      },
      {
        "id": 35,
        "type": "PrimitiveString",
        "pos": [
          -4443.914561307049,
          -543.3653138472193
        ],
        "size": [
          270,
          108
        ],
        "flags": {},
        "order": 0,
        "mode": 0,
        "inputs": [],
        "outputs": [
          {
            "name": "STRING",
            "type": "STRING",
            "links": [
              44
            ]
          }
        ],
        "properties": {
          "cnr_id": "comfy-core",
          "ver": "0.17.2",
          "Node name for S&R": "PrimitiveString"
        },
        "widgets_values": [
          "Icons/brunch-"
        ]
      },
      {
        "id": 39,
        "type": "LoadImage",
        "pos": [
          -4951.757252972162,
          -904.6317954209197
        ],
        "size": [
          282.8333435058594,
          364
        ],
        "flags": {},
        "order": 1,
        "mode": 0,
        "inputs": [],
        "outputs": [
          {
            "name": "IMAGE",
            "type": "IMAGE",
            "links": [
              51
            ]
          },
          {
            "name": "MASK",
            "type": "MASK",
            "links": null
          }
        ],
        "properties": {
          "cnr_id": "comfy-core",
          "ver": "0.17.2",
          "Node name for S&R": "LoadImage"
        },
        "widgets_values": [
          "brunch-_00024_.png",
          "image"
        ]
      }
    ],
    "links": [
      [
        41,
        33,
        0,
        34,
        0,
        "STRING"
      ],
      [
        42,
        34,
        0,
        32,
        0,
        "SVG"
      ],
      [
        44,
        35,
        0,
        32,
        1,
        "STRING"
      ],
      [
        51,
        39,
        0,
        33,
        0,
        "IMAGE"
      ]
    ],
    "groups": [],
    "config": {},
    "extra": {
      "ds": {
        "scale": 1.1,
        "offset": [
          5166.315798426707,
          952.7782123132315
        ]
      },
      "workflowRendererVersion": "Vue",
      "frontendVersion": "1.41.20",
      "VHS_latentpreview": false,
      "VHS_latentpreviewrate": 0,
      "VHS_MetadataImage": true,
      "VHS_KeepIntermediate": true
    },
    "version": 0.4
  }
}
                ]]>
            </metadata>
            
<path d="M0 0 C3.025931420602035 3.014640631719203 4.991105530371158 6.01541255739113 6.98828125 9.781005859375 C12.336730674715454 19.52927769935465 19.401631701877363 22.10780660933966 29.57763671875 25.67431640625 C33.9968368446813 27.284079295901677 38.27618582209925 29.19338166335075 42.5625 31.125 C42.98080078124997 31.312961425781253 42.98080078124997 31.312961425781253 45.09765625 32.26416015625 C52.17861001825253 35.50632945480709 58.771612668486 39.18543510542557 65.1875 43.625 C65.86812500000002 44.09035156249999 66.54874999999998 44.55570312500001 67.25 45.03515625 C75.83073980406505 51.6047851624873 80.7044210196367 61.56785633759512 83.845947265625 71.66552734375 C87.21467385567405 81.90425147914647 94.52881919492319 89.35182326229284 102.1875 96.625 C112.25007823787257 106.18107262187226 123.53695200623878 118.55169511403176 124.326904296875 133.212158203125 C124.34642146731994 135.16237392681592 124.358026044626 137.11268072465595 124.36279296875 139.06298828125 C124.403144711692 149.3914204046789 125.14855818192558 156.50167907428948 130.46484375 165.453125 C136.2394910002372 176.0858088258335 136.30588705736886 188.2598712643171 133.2265625 199.65625 C130.6626140846795 206.98181690091582 126.2441454255893 213.15762719971042 119.1875 216.625 C111.15939568317606 219.83123198924636 103.20035695862242 220.73678194221515 94.9296875 217.83203125 C91.05223338241916 216.02599273515722 88.05772027529167 213.74926046198607 84.86328125 210.890625 C82.85436192168112 209.3733992135774 80.7972557044879 208.46493404736157 78.5 207.4375 C73.99774660601679 205.37703336501215 71.39839054874813 202.81935677788516 68.0625 199.1875 C64.68010398450662 195.95257835367727 63.23024510399574 194.65148241533961 58.49609375 194.53125 C56.46055088927312 194.8110930239543 54.4656430822227 195.19442052336638 52.45166015625 195.60009765625 C40.80550083227189 197.8909205150302 28.48898843589035 194.18380018737878 18.1875 188.625 C16.72387326471909 187.5342076138096 15.28368122691478 186.41088261720893 13.875 185.25 C11.058440756883954 182.99559352762935 10.536436281361205 182.63134429602474 6.75 182.5625 C3.2689801322724747 183.60069890791874 -0.184679513386925 184.67271823587976 -3.6015625 185.90625 C-13.781216411099479 189.2155367838203 -23.779149853446313 187.81449745303223 -33.9375 185.23828125 C-40.374706413754325 183.8651271644573 -45.00030994919041 186.04180442186237 -50.8125 188.625 C-55.78205625351916 190.01947058714563 -60.8805353879157 189.80889220252845 -66 189.8125 C-66.89525390624999 189.82474609375004 -67.79050781249998 189.83699218749996 -68.712890625 189.849609375 C-77.34541330696428 189.86830798008725 -85.02444988977871 188.83599309901052 -92.75 184.8125 C-99.33182556393902 181.92662263734985 -103.31164901436986 183.15507181397032 -109.8125 185.625 C-120.71475625134897 188.92283552087065 -131.47664942196727 188.7580088641448 -142.09375 184.59765625 C-145.098318740368 183.5227458816787 -147.6176355123162 182.8087569117099 -150.8125 182.625 C-153.48828124999994 183.91796875 -153.48828124999994 183.91796875 -156.125 185.8125 C-168.09217084082425 193.94175542908494 -179.31341409112508 196.69210562179808 -193.8125 195.625 C-195.3250205404766 195.09709104512586 -196.8275764392169 194.53867241173498 -198.3125 193.9375 C-200.39453125 193.3515625 -200.39453125 193.3515625 -202.8125 193.625 C-206.74369448758506 195.8670550184919 -210.0960613138677 198.8782116959195 -213.48046875 201.85546875 C-216.72900833133428 204.680326895399 -220.3394329257374 207.625 -224.8125 207.625 C-225.01875 208.181875 -225.225 208.73874999999998 -225.4375 209.3125 C-228.62569487937287 214.67446411530898 -232.95581963462078 217.04820144009022 -238.8125 218.625 C-249.32743476157947 219.62976043277314 -257.64743829103344 218.54822108752415 -266.5625 212.875 C-275.0182675051357 204.41923249486433 -279.38258452083454 195.06543432884445 -279.9765625 183.05859375 C-279.59538051626106 175.08099937603475 -277.1201133624707 167.68456088588255 -273.125 160.8125 C-269.6853706937065 154.46806179784272 -270.13439598719805 147.59244305139782 -269.90283203125 140.55322265625 C-269.257460115968 126.777148637609 -263.2776861857153 116.27031948682753 -253.8125 106.625 C-252.63601048396077 105.27935855783494 -251.4686376631333 103.92566696560141 -250.3125 102.5625 C-247.75840492811864 99.59856176542141 -245.03437758487144 96.93245396198279 -242.1875 94.25 C-236.2247514290803 88.31751918832353 -233.63845395495179 81.78527575647752 -230.64013671875 74.031982421875 C-221.2102208420527 49.759126207032295 -199.66456134774302 38.477902662470996 -176.80908203125 28.28564453125 C-172.73624477038635 26.529572334044417 -168.66072892194808 24.785446548313217 -164.55322265625 23.11181640625 C-156.47680825673473 19.748174166395927 -151.5710285893776 16.40625968631059 -146.9375 8.75 C-138.5132031906389 -4.253412688691839 -127.00160686260406 -9.663319052591532 -112.099609375 -12.92529296875 C-80.04795317897663 -19.22750803205861 -25.732611781881815 -24.779552086256587 0 0 Z M-15.8125 7.625 C-24.849578298466668 22.392908438957733 -26.81170616008859 42.98670904364431 -30.07421875 59.6640625 C-30.148601999282846 60.04405961990358 -30.148601999282846 60.04405961990358 -30.525026321411133 61.96707534790039 C-34.37208919230221 81.75688536734543 -37.357966081740074 101.67559383199631 -40.3194580078125 121.613525390625 C-40.90354821328282 125.52943040864352 -41.496884642008695 129.44391337301363 -42.090216636657715 133.3584270477295 C-42.66587872010899 137.16171919007337 -43.2370421347091 140.96567561254938 -43.80670356750488 144.76987075805664 C-44.07630462760551 146.568124179395 -44.34701899211643 148.36621108315978 -44.61890983581543 150.16411972045898 C-44.993765306697696 152.64898034856037 -45.36281728316692 155.13463412680358 -45.730224609375 157.62060546875 C-45.84078689575199 158.3466397094727 -45.951349182128865 159.07267395019528 -46.06526184082031 159.82070922851563 C-46.64491025525899 163.7904511241327 -46.921032130714366 167.61418323530523 -46.8125 171.625 C-44.5 172.3125 -44.5 172.3125 -41.8125 172.625 C-39.209130460583765 170.90094616447618 -38.801066147821075 169.58062501282535 -38.016357421875 166.53515625 C-37.81888916015623 165.2654296875 -37.621420898437464 163.99570312499998 -37.41796875 162.6875 C-37.305442657470735 161.9880224609375 -37.19291656494141 161.28854492187497 -37.07698059082031 160.56787109375 C-36.83444473972486 159.05114169062574 -36.597492273311104 157.5335112896687 -36.365478515625 156.01513671875 C-35.99507941690547 153.59282063560744 -35.60996602382261 151.17325821856326 -35.220703125 148.75390625 C-34.67940517901536 145.38483807210525 -34.14312014841914 142.0150356688206 -33.61083984375 138.64453125 C-28.997718522122454 109.5296759535928 -23.393764159541433 80.76988685057864 -16.3514404296875 52.137786865234375 C-15.913731053725598 50.3575957127598 -15.478213855305853 48.57686391638242 -15.0450439453125 46.795562744140625 C-10.819823087445172 29.48267729819321 -10.819823087445172 29.48267729819321 -6.8125 21.625 C-6.8125 24.433801080559448 -7.162193405175344 26.09213212042667 -7.9921875 28.7265625 C-20.847644787001855 70.59694365763434 -28.88779134468848 113.44224390885222 -35.74609375 156.63671875 C-35.85507492065426 157.3181443786621 -35.964056091308635 157.99957000732422 -36.07633972167969 158.70164489746094 C-36.8125 163.3872829034562 -36.8125 163.3872829034562 -36.8125 165.625 C-36.15250000000003 165.625 -35.49250000000001 165.625 -34.8125 165.625 C-31.58251230142514 159.14210982275551 -29.758344998544374 152.91547699969772 -28.4375 145.8125 C-28.230363769531266 144.74483398437496 -28.023227539062532 143.67716796875004 -27.809814453125 142.5771484375 C-26.311919445148078 134.70332677655654 -25.009212231818196 126.80243143663557 -23.7314453125 118.890869140625 C-19.224075191288023 91.00654198298574 -13.5841167339982 63.66622268267599 -5.5625 36.5625 C-5.3061981201171875 35.68517211914062 -5.049896240234375 34.807844238281234 -4.78582763671875 33.9039306640625 C-4.054880687260891 31.419285615203478 -3.3048320870973384 28.94136580992526 -2.546875 26.46484375 C-2.3304232788086097 25.72807907104493 -2.1139715576172193 24.991314392089862 -1.890960693359375 24.232223510742188 C-0.58486855593668 20.074426326759976 0.80879045310121 17.414284376343943 4.1875 14.625 C-1.1168478260869392 5.47282608695653 -1.1168478260869392 5.47282608695653 -4.8125 3.625 C-9.340235502371343 2.790943460089494 -12.753552168901479 4.305716183276104 -15.8125 7.625 Z M-139.8125 9.625 C-143.8125 14.993421052631561 -143.8125 14.993421052631561 -143.8125 17.625 C-142.8225 18.326250000000016 -141.8325 19.027500000000003 -140.8125 19.75 C-113.47648316205309 42.96914683223201 -110.2304691900627 104.91179539882535 -104.14453125 138.8359375 C-104.01006088256835 139.58412246704103 -103.87559051513671 140.33230743408205 -103.73704528808594 141.10316467285156 C-103.09860291642309 144.6642835085113 -102.46832689212658 148.22651435139534 -101.853271484375 151.791748046875 C-99.0610361757075 167.64376111238425 -99.0610361757075 167.64376111238425 -96.8125 172.625 C-94.125 174.25 -94.125 174.25 -91.8125 174.625 C-89.26420666147487 170.8025599922123 -89.69314354529257 167.98986281307282 -89.98828125 163.59765625 C-90.03882156372072 162.76661880493168 -90.0893618774414 161.93558135986325 -90.14143371582031 161.07936096191406 C-90.93559536201528 149.35647110266865 -92.48398978856034 137.70940196435936 -94 126.0625 C-94.15589599609376 124.85322845458984 -94.3117919921875 123.64395690917968 -94.472412109375 122.39804077148438 C-98.79294643320097 89.00726163943233 -104.11122158240968 56.044408998349525 -114.375 23.875 C-114.63144287109375 23.047663574218745 -114.8878857421875 22.22032714843749 -115.152099609375 21.367919921875 C-117.42904870674604 14.582146784488685 -120.76667593415408 8.655549377230614 -126.8125 4.625 C-132.72869514597238 3.843615735437595 -135.90311067772745 5.287493115057856 -139.8125 9.625 Z M-148.8125 21.625 C-148.8125 22.944999999999993 -148.8125 24.264999999999986 -148.8125 25.625 C-147.6374415147675 26.757637601289105 -146.45859724178112 27.886616556690967 -145.2607421875 28.9951171875 C-142.13379401899678 32.51425170754845 -140.40242608037448 37.014562201485774 -138.4375 41.25 C-137.956357421875 42.274724121093755 -137.47521484375 43.29944824218751 -136.9794921875 44.355224609375 C-132.70319483273144 53.60261008631164 -129.04448763821372 62.967976695457764 -125.8125 72.625 C-125.52955078125001 73.462890625 -125.24660156249999 74.30078125 -124.955078125 75.1640625 C-120.83822328780403 87.4504444194713 -117.30022378375097 99.84842129892849 -114.12109375 112.410400390625 C-113.8478125 113.46735107421875 -113.57453125 114.52430175781251 -113.29296875 115.61328125 C-113.05473388671874 116.55727783203122 -112.8164990234375 117.5012744140625 -112.571044921875 118.473876953125 C-111.8125 120.625 -111.8125 120.625 -109.8125 121.625 C-110.45139227644208 112.71093157154621 -112.6929280187899 104.19660656690701 -114.875 95.5625 C-114.97534545898438 95.16340927124023 -114.97534545898438 95.16340927124023 -115.483154296875 93.14376831054688 C-119.97702209117406 75.3500540634468 -125.36435859267092 58.07753972014197 -132.4375 41.125 C-132.785546875 40.28203369140624 -133.13359375 39.43906738281248 -133.4921875 38.570556640625 C-136.35077305320453 31.978077038097098 -139.7290728233353 25.680618117776476 -145.8125 21.625 C-146.8025 21.625 -147.7925 21.625 -148.8125 21.625 Z M8.1875 23.625 C0.9484746548357634 31.540469156076853 -1.81152496226008 43.062838741050115 -5.125 53.0625 C-5.507448730468752 54.21556640624999 -5.8898974609375045 55.36863281249998 -6.283935546875 56.556640625 C-11.757788302874076 73.31319462111017 -16.61413684321502 90.32061780035698 -20.3125 107.5625 C-20.472746582031277 108.30693359374999 -20.632993164062498 109.05136718749998 -20.798095703125 109.818359375 C-21.603770925584854 113.80979506792937 -21.965340124158843 117.55563169427046 -21.8125 121.625 C-21.482500000000016 121.46000000000004 -21.482500000000016 121.46000000000004 -19.8125 120.625 C-18.989497894986584 117.95264342149517 -18.28559611618715 115.32047731146304 -17.6328125 112.60546875 C-17.200879519823104 110.87989456578151 -16.768315279053013 109.15447830297319 -16.335205078125 107.42919921875 C-16.22159133911134 106.9714108276367 -16.22159133911134 106.9714108276367 -15.646636962890625 104.65472412109375 C-11.80831118610223 89.27069722883533 -7.616315104305727 74.05105089800452 -2.625 59 C-2.3914581298828352 58.281619567871104 -2.1579162597656136 57.56323913574218 -1.91729736328125 56.823089599609375 C0.9462779568689825 48.05599406318433 4.311133264422949 39.85684486641287 8.726364135742188 31.743743896484375 C9.616627760760707 30.07289564478532 10.410489033531633 28.35142901974706 11.1875 26.625 C11.02249999999998 26.129999999999995 11.02249999999998 26.129999999999995 10.1875 23.625 C9.527499999999975 23.625 8.867500000000007 23.625 8.1875 23.625 Z M46.1875 85.625 C43.338769714777186 89.85126860874709 40.74274485097078 94.21615540057914 38.1875 98.625 C37.51718749999998 99.751640625 36.84687500000001 100.87828124999999 36.15625 102.0390625 C26.708944374939847 118.16104779912166 18.761642637228363 135.26098856361682 11.4375 152.4375 C11.114509277343757 153.18878173828125 10.791518554687514 153.9400634765625 10.458740234375 154.714111328125 C8.810366085341286 158.67852656041424 7.700583501382141 162.32455012657334 7.1875 166.625 C8.507499999999993 166.625 9.827499999999986 166.625 11.1875 166.625 C11.60257812499998 165.78324218749998 12.017656250000016 164.94148437500002 12.4453125 164.07421875 C16.671447616867 155.54296635369133 20.981345528770476 147.05378768214206 25.33758544921875 138.58828735351563 C26.228075504044057 136.8551705630872 27.11337231844641 135.11938854892765 27.99853515625 133.383544921875 C52.89932875466076 85.13693506531109 52.89932875466076 85.13693506531109 71.39453125 78.46875 C72.31621093749999 78.1903125 73.23789062499998 77.91187500000001 74.1875 77.625 C73.34187500000002 78.32625000000002 72.49625000000003 79.0275 71.625 79.75 C70.47899858513279 80.70813233046272 69.33317491173813 81.66647728134936 68.1875 82.625 C67.63449218749997 83.0826171875 67.081484375 83.54023437500001 66.51171875 84.01171875 C58.83854221859997 90.45013124186443 52.36378091171616 97.20818315244469 46.8125 105.5625 C46.255061035156245 106.39313964843751 45.69762207031249 107.22377929687502 45.123291015625 108.07958984375 C31.479937142073197 128.6002878817651 19.004317811335625 151.17454656599313 11.1875 174.625 C9.125 175.8125 9.125 175.8125 7.1875 176.625 C8.1875 177.625 8.1875 177.625 10.3125 178.0625 C14.731763734724325 177.39000334471586 17.22021008485342 174.87334544499663 20.1875 171.625 C22.157179894439878 168.46728697320708 23.640649349425246 165.15807403743543 25.125 161.75 C25.981782032048386 159.86920307938044 26.839869040606118 157.98900011794706 27.69921875 156.109375 C28.11735839843749 155.18189453125 28.535498046874977 154.25441406250002 28.96630859375 153.298828125 C31.85121565203565 146.98225433404747 35.02743021992467 140.80714524661028 38.1875 134.625 C38.67476562500002 133.655625 39.162031249999984 132.68624999999997 39.6640625 131.6875 C45.37395242372571 120.71430372200194 52.72140175331293 110.81307876077199 61.1796875 101.80859375 C63.1875 99.625 63.1875 99.625 65.0234375 97.1796875 C67.68106044191262 94.04234922561218 70.64858309542245 91.75208122042841 73.9375 89.3125 C74.23849609374997 89.085302734375 74.23849609374997 89.085302734375 75.76171875 87.935546875 C77.23276737684978 86.82642291031166 78.70955412307183 85.72491636794513 80.1875 84.625 C80.35249999999996 84.95499999999998 80.35249999999996 84.95499999999998 81.1875 86.625 C80.58164062499998 87.086484375 79.97578125000001 87.54796875 79.3515625 88.0234375 C65.76895282090265 98.59697672711272 55.38950559321961 111.01631604533253 46 125.3125 C45.60095458984375 125.91288085937498 45.201909179687505 126.51326171875002 44.790771484375 127.1318359375 C43.85732310286289 128.58952104239796 43.012945286262266 130.10354943380457 42.1875 131.625 C42.517499999999984 132.28499999999997 42.84749999999997 132.945 43.1875 133.625 C51.69808319520939 123.30036959311332 51.69808319520939 123.30036959311332 55.6875 118.0625 C59.59271706157932 113.00922144115083 63.83984725908874 108.29931001303697 68.1875 103.625 C68.77402343749998 102.98433593749996 69.36054687500001 102.34367187499998 69.96484375 101.68359375 C73.8978246999726 97.54702319791113 78.20275307718327 94.36020447665459 82.953125 91.203125 C84.93115973869271 89.80605151323101 86.54559225576077 88.3948486074267 88.1875 86.625 C87.67960937499998 86.13773437500001 87.17171874999997 85.65046875000002 86.6484375 85.1484375 C81.07568713557617 79.40871334188557 78.25065778042779 73.91144486719702 75.4140625 66.56640625 C74.1875 63.625 74.1875 63.625 72.1875 61.625 C61.33973800719281 59.04219952552211 51.5566091308707 77.94054517991106 46.1875 85.625 Z M-216.8125 62.625 C-217.14249999999998 63.120000000000005 -217.14249999999998 63.120000000000005 -218.8125 65.625 C-217.554375 65.81062500000002 -216.29625 65.99625 -215 66.1875 C-205.92078472230142 68.20351473095354 -198.54848851950496 74.48776601556216 -191.8125 80.625 C-195.06132818216417 72.87089074754192 -203.1530376670166 65.86554175626219 -210.8125 62.625 C-214.125 62.1875 -214.125 62.1875 -216.8125 62.625 Z M-224.8125 74.625 C-225.14249999999998 75.285 -225.4725 75.945 -225.8125 76.625 C-225.1834375 76.645625 -225.1834375 76.645625 -222 76.75 C-208.3532066613967 78.40802162057798 -197.26625137551275 89.8914452866519 -188.8984375 100.06640625 C-175.7337956809992 116.91761710601509 -166.68044259954692 136.57743070746756 -157.59912109375 155.8056640625 C-157.24554534912107 156.5487078857422 -156.8919696044922 157.2917517089844 -156.52767944335938 158.05731201171875 C-155.86311715156694 159.45503402741258 -155.2039055991843 160.8553182010653 -154.55117797851563 162.25860595703125 C-151.94644237970755 167.72503021421943 -148.99664932135138 172.34170542981082 -143.8125 175.625 C-143.1525 175.625 -142.4925 175.625 -141.8125 175.625 C-142.2321884497485 168.59022217564456 -145.1822890798838 162.9161309041 -148.1875 156.625 C-148.73059814453126 155.47652587890627 -149.2736962890625 154.3280517578125 -149.833251953125 153.144775390625 C-150.95402156866015 150.77624277329983 -152.0778122849588 148.40913740345684 -153.20458984375 146.04345703125 C-154.66424997871437 142.94018323687237 -156.0714230414755 139.8204494070618 -157.45703125 136.68359375 C-166.6599943037395 116.1386388718945 -179.24923709040036 96.9474464661655 -194.8125 80.625 C-195.51375000000002 79.8825 -196.215 79.13999999999999 -196.9375 78.375 C-202.65554290609515 72.84141009087568 -209.4110377892489 70.35857703512517 -217.1875 69.0625 C-220.89944186089005 69.85791611304785 -222.42543367448798 71.76052040938555 -224.8125 74.625 Z M-231.8125 88.625 C-231.8125 89.285 -231.8125 89.945 -231.8125 90.625 C-231.1460546875 90.82093750000001 -230.479609375 91.016875 -229.79296875 91.21875 C-203.58617198693577 99.72221412451876 -187.6957602134016 127.19846862971553 -172.8125 148.625 C-172.48250000000002 147.96500000000003 -172.1525 147.305 -171.8125 146.625 C-172.581787109375 144.920166015625 -172.581787109375 144.920166015625 -173.83984375 142.87890625 C-174.29810546875 142.12947753906246 -174.7563671875 141.38004882812498 -175.228515625 140.60791015625 C-175.73060546875 139.80917480468747 -176.2326953125 139.010439453125 -176.75 138.1875 C-177.25853515625 137.3707177734375 -177.7670703125 136.55393554687498 -178.291015625 135.71240234375 C-185.19460220188188 124.71933304998254 -192.86863072965238 115.00453052420409 -201.8125 105.625 C-202.588515625 104.78453124999999 -203.36453125 103.94406249999997 -204.1640625 103.078125 C-208.65019355382256 98.35421314827164 -213.10811504826492 94.92320851552319 -218.84375 91.81640625 C-220.8125 90.625 -220.8125 90.625 -221.8125 88.625 C-198.19186392456572 97.48789137210883 -181.72942830187512 123.95340150384845 -170.8125 145.625 C-169.29479310305857 149.20815763638802 -168.09795227075458 152.88637464467672 -166.89453125 156.5859375 C-164.97928064483233 161.9652334235396 -162.13908723251 166.8363746720613 -157.8125 170.625 C-157.1525 170.625 -156.4925 170.625 -155.8125 170.625 C-157.76383500551123 162.54673205987945 -160.49404568789578 155.08423900506818 -163.875 147.5 C-164.11730346679687 146.95452514648434 -164.11730346679687 146.95452514648434 -165.343505859375 144.194091796875 C-175.84909109952304 120.97922735814916 -191.90604931277264 92.17396568417604 -216.40234375 81.49609375 C-224.22589481236687 78.66845698029528 -227.50806539254745 82.28296321150486 -231.8125 88.625 Z M-190.8125 81.625 C-189.44879700645572 84.61720268486414 -187.86341916927762 86.91526528690355 -185.6875 89.375 C-185.148671875 89.98859375 -184.60984374999998 90.60218750000001 -184.0546875 91.234375 C-183.644765625 91.69328124999998 -183.23484374999998 92.1521875 -182.8125 92.625 C-182.8125 88.86526115347766 -183.77792407119065 88.16822371210529 -186.25 85.4375 C-186.8880859375 84.7220703125 -187.526171875 84.00664062499999 -188.18359375 83.26953125 C-188.7211328125 82.7268359375 -189.258671875 82.184140625 -189.8125 81.625 C-190.14249999999998 81.625 -190.4725 81.625 -190.8125 81.625 Z M-181.8125 92.625 C-181.48250000000002 93.61500000000001 -181.1525 94.60500000000002 -180.8125 95.625 C-180.8125 94.63499999999999 -180.8125 93.64499999999998 -180.8125 92.625 C-181.14249999999998 92.625 -181.4725 92.625 -181.8125 92.625 Z M-178.8125 96.625 C-177.8125 98.625 -177.8125 98.625 -177.8125 98.625 Z M-175.8125 100.625 C-174.8125 102.625 -174.8125 102.625 -174.8125 102.625 Z M-156.8125 112.625 C-156.1863941539969 116.14315604228011 -155.27324974761507 119.35610160695927 -154.02734375 122.703125 C-153.66519775390626 123.6878076171875 -153.3030517578125 124.672490234375 -152.929931640625 125.68701171875 C-152.54055419921875 126.73904785156253 -152.1511767578125 127.791083984375 -151.75 128.875 C-148.01153281644855 139.08124939551436 -144.5778766936343 149.352098808721 -141.376708984375 159.7392578125 C-141.06805908203125 160.730224609375 -140.7594091796875 161.72119140625 -140.44140625 162.7421875 C-140.17400634765625 163.61472167968748 -139.9066064453125 164.487255859375 -139.631103515625 165.38623046875 C-138.8125 167.625 -138.8125 167.625 -136.8125 170.625 C-136.1525 170.625 -135.4925 170.625 -134.8125 170.625 C-132.81446855524717 163.4949690067957 -135.41362812489783 158.2148364499301 -138.125 151.5625 C-138.57560791015624 150.42739990234372 -139.0262158203125 149.2922998046875 -139.490478515625 148.122802734375 C-142.58807817518243 140.41022539579603 -145.8484320178551 132.77070677662124 -149.25 125.1875 C-149.66225830078125 124.26509521484377 -150.0745166015625 123.34269042968754 -150.499267578125 122.392333984375 C-150.89009521484374 121.54227783203123 -151.2809228515625 120.69222167968746 -151.68359375 119.81640625 C-152.02318115234374 119.07592041015624 -152.3627685546875 118.33543457031249 -152.712646484375 117.572509765625 C-153.85277752915306 115.55368061042088 -155.10090116009764 114.17519069782907 -156.8125 112.625 Z M93.1875 140.625 C92.47207031250002 141.2166796875 91.75664062499999 141.808359375 91.01953125 142.41796875 C86.97039406734467 145.84054698756358 83.46668226326415 149.47297929555083 80.04296875 153.515625 C77.97568442562289 155.8658008635024 75.79210043391146 158.0535671758492 73.5625 160.25 C70.20443044105622 163.562147240189 67.12121414287515 166.93419833638285 64.1875 170.625 C64.51749999999998 171.28499999999997 64.84750000000003 171.945 65.1875 172.625 C69.16293355181898 168.74249866108067 73.06476360366872 164.84176476616852 76.6875 160.625 C86.0045562515852 149.88421380435233 100.02560391394485 134.66970229889137 114.8125 132.75 C115.92624999999998 132.70875 117.04000000000002 132.66750000000002 118.1875 132.625 C118.02249999999998 131.96500000000003 118.02249999999998 131.96500000000003 117.1875 128.625 C107.28038025746076 127.63428802574606 100.28291518124848 134.615964176646 93.1875 140.625 Z M-258.8125 129.625 C-258.8125 130.615 -258.8125 131.60500000000002 -258.8125 132.625 C-257.3759275534461 132.96230841512374 -255.93819907084313 133.2946959071748 -254.5 133.625 C-253.6994921875 133.81062499999996 -252.898984375 133.99625000000003 -252.07421875 134.1875 C-249.8125 134.625 -249.8125 134.625 -246.8125 134.625 C-250.6955928202406 130.9772461385619 -253.52451817597387 130.03974367247264 -258.8125 129.625 Z M-262.8125 137.625 C-263.1425 141.58500000000004 -263.47249999999997 145.54499999999996 -263.8125 149.625 C-262.245 149.83125 -260.6775 150.03750000000002 -259.0625 150.25 C-242.22264385370005 153.34524348190348 -226.86925659187807 166.78938184130374 -216.25 179.8125 C-215.8478125 180.2765625 -215.8478125 180.2765625 -213.8125 182.625 C-212.8225 182.625 -211.8325 182.625 -210.8125 182.625 C-212.29663729602825 179.13845524107649 -214.27464051906188 176.9830892795208 -217 174.375 C-219.8932448036714 171.55995100183327 -222.61744779838753 168.73644334335648 -225.1875 165.625 C-232.05856788221132 157.67487295845757 -240.1888025241002 151.77926420326264 -249.8125 147.625 C-232.14100380995777 152.26014654165044 -218.6864241383979 168.31811107131904 -207.4443359375 181.978515625 C-205.65043862826346 183.7885161416803 -204.2098196690929 184.76418182073894 -201.8125 185.625 C-200.8225 185.29500000000002 -199.8325 184.96500000000003 -198.8125 184.625 C-199.3577734375 184.03074218749998 -199.903046875 183.43648437499996 -200.46484375 182.82421875 C-204.49164361014812 178.39818061311928 -208.40151515951035 173.9350441124842 -212.125 169.25 C-222.76863630231287 156.17142437029491 -237.67843841979638 139.90851539505093 -254.5625 135.6875 C-257.8125 135.625 -257.8125 135.625 -262.8125 137.625 Z M-245.8125 136.625 C-245.48250000000002 137.28499999999997 -245.1525 137.945 -244.8125 138.625 C-244.1525 138.29499999999996 -243.4925 137.96500000000003 -242.8125 137.625 C-243.8025 137.29499999999996 -244.7925 136.96500000000003 -245.8125 136.625 Z M92.1875 147.625 C91.1251376380045 148.4585087919511 90.06266187083287 149.29187309326704 89 150.125 C86.03601346755971 152.7596546955025 83.5400118289038 155.5728212821217 80.97265625 158.5859375 C79.27957383982778 160.5198303186212 77.52276672088396 162.32668495806 75.6875 164.125 C71.35864283467436 168.38606745580154 67.41705929335359 172.96206032878143 63.51953125 177.6171875 C62.99746093750002 178.238515625 62.47539062499999 178.85984374999998 61.9375 179.5 C61.70804687499998 179.7771484375 61.70804687499998 179.7771484375 60.546875 181.1796875 C59.1875 182.625 59.1875 182.625 56.1875 184.625 C56.1875 185.28499999999997 56.1875 185.945 56.1875 186.625 C58.3203125 186.96875 58.3203125 186.96875 61.1875 186.625 C63.36444946322587 184.84547727801703 65.16549736438247 183.165029407088 67.0625 181.125 C67.32800659179685 180.84986572265626 67.32800659179685 180.84986572265626 68.671630859375 179.45751953125 C71.45761067873389 176.54852242116613 74.14144308268845 173.56963356371284 76.75 170.5 C87.56887330472165 157.90839564775763 103.04608866863589 144.429359087512 120.1875 142.625 C119.3125 137.75 119.3125 137.75 118.1875 136.625 C106.82521396293066 135.82764659388988 100.63556929326666 140.4163607716814 92.1875 147.625 Z M36.1875 141.625 C37.1875 143.625 37.1875 143.625 37.1875 143.625 Z M35.1875 143.625 C36.1875 145.625 36.1875 145.625 36.1875 145.625 Z M116.1875 143.625 C116.1875 144.28499999999997 116.1875 144.945 116.1875 145.625 C116.84750000000003 145.29499999999996 117.5075 144.96500000000003 118.1875 144.625 C117.52749999999997 144.29499999999996 116.8675 143.96500000000003 116.1875 143.625 Z M88.765625 163.62109375 C86.97912487554686 165.4245957057986 85.2031165046987 167.23854814822977 83.4375 169.0625 C82.54417968749999 169.96548828125003 81.65085937499998 170.8684765625 80.73046875 171.798828125 C68.33399628429879 184.4052555735518 68.33399628429879 184.4052555735518 64.1875 190.625 C70.66781808974093 187.64064298498772 75.45309463866317 182.41019795373694 80.373046875 177.3515625 C91.63437299176735 165.81199815668054 103.58853514500248 156.5872627521053 119.1875 151.625 C119.1875 150.305 119.1875 148.985 119.1875 147.625 C107.77028688268956 147.625 96.59592322129953 156.06382941606 88.765625 163.62109375 Z M-263.8125 160.625 C-264.42333984375 163.207275390625 -264.42333984375 163.207275390625 -264.8125 165.625 C-264.4976062011719 165.65267456054687 -264.4976062011719 165.65267456054687 -262.904052734375 165.792724609375 C-260.01919311790317 166.04737236279004 -257.1345986812441 166.30491392396743 -254.25 166.5625 C-253.25935546875002 166.64951171874998 -252.2687109375 166.7365234375 -251.248046875 166.826171875 C-246.07486469200197 167.29021147281048 -240.94497921100697 167.82597448468198 -235.8125 168.625 C-240.57389265336795 162.78147265268478 -247.82771340718568 159.6020296949651 -255.1875 158.6875 C-258.64191897439065 158.3780650755839 -260.972887454909 158.5171818773223 -263.8125 160.625 Z M105.1875 164.625 C106.71539888219957 172.40829665873423 111.72553675149413 179.22536544782577 118.1875 183.625 C121.0625 184.9375 121.0625 184.9375 123.1875 185.625 C122.33828823584395 179.89598929255897 120.96063438355588 174.49438813591377 118.9375 169.0625 C118.56109375 168.0505859375 118.1846875 167.03867187499998 117.796875 165.99609375 C116.1875 163.625 116.1875 163.625 113.1953125 162.7265625 C109.9568435285965 162.61721159966692 108.06209177203993 163.18770411398003 105.1875 164.625 Z M-259.625 170.625 C-260.6008203125 171.181875 -261.576640625 171.73874999999998 -262.58203125 172.3125 C-263.3180859375 172.74562500000002 -264.054140625 173.17875000000004 -264.8125 173.625 C-264.8125 174.615 -264.8125 175.60500000000002 -264.8125 176.625 C-264.3278125 176.29886718750004 -263.843125 175.97273437499996 -263.34375 175.63671875 C-258.63312995286367 172.5657568346553 -254.13705084210494 170.43154403571418 -248.8125 168.625 C-248.8125 168.29499999999996 -248.8125 167.96500000000003 -248.8125 167.625 C-253.27186282210624 167.23368479806015 -255.79041276034616 168.40740737947726 -259.625 170.625 Z M-266.8125 178.625 C-268.8125 181.625 -268.8125 181.625 -268.8125 185.625 C-263.4462254258703 184.3866289444316 -260.07623597335936 181.6563280757647 -255.9609375 178.18359375 C-253.8381853831158 176.6436335779331 -252.37256560878185 176.04781626570377 -249.8125 175.625 C-250.17472656249998 175.96982421874998 -250.17472656249998 175.96982421874998 -252.0078125 177.71484375 C-263.4090178791346 188.73187165394336 -263.4090178791346 188.73187165394336 -266.8125 195.625 C-266.8125 196.615 -266.8125 197.60500000000002 -266.8125 198.625 C-263.4846799583003 198.04388740193906 -261.8761709550623 197.05054504355093 -259.53515625 194.640625 C-258.93896484375 194.03476562499998 -258.3427734375 193.42890625 -257.728515625 192.8046875 C-257.11685546875003 192.16789062499998 -256.5051953125 191.53109374999997 -255.875 190.875 C-255.26720703125 190.253671875 -254.6594140625 189.63234375000002 -254.033203125 188.9921875 C-252.288220739772 187.20767476947555 -250.5495558523184 185.41722503492394 -248.8125 183.625 C-245.94781489173812 180.68131776973962 -243.17414606416722 177.99060278589548 -239.8125 175.625 C-240.2830078125 176.15609374999997 -240.753515625 176.6871875 -241.23828125 177.234375 C-241.8608984375 177.94078125 -242.483515625 178.64718749999997 -243.125 179.375 C-243.43244140625 179.72304687500002 -243.43244140625 179.72304687500002 -244.98828125 181.484375 C-249.71312111801242 187.02872670807454 -249.71312111801242 187.02872670807454 -250.25 190.25 C-250.43562500000002 191.03375 -250.62125 191.8175 -250.8125 192.625 C-252.14412540813942 193.29507163394646 -253.4777267919727 193.96122089114317 -254.8125 194.625 C-256.515625 196.3515625 -256.515625 196.3515625 -258.0625 198.25 C-258.58328125 198.881640625 -259.1040625 199.51328124999998 -259.640625 200.1640625 C-260.02734375 200.646171875 -260.4140625 201.12828125 -260.8125 201.625 C-259.8225 201.95499999999998 -258.8325 202.28499999999997 -257.8125 202.625 C-255.125 200.6875 -255.125 200.6875 -252.8125 198.625 C-253.3075 199.22312499999998 -253.8025 199.82124999999996 -254.3125 200.4375 C-255.8125 202.625 -255.8125 202.625 -255.8125 205.625 C-252.8125 204.625 -252.8125 204.625 -251.63671875 202.62109375 C-251.2616015625 201.77675781250002 -250.886484375 200.932421875 -250.5 200.0625 C-246.59447705077304 191.95013779092324 -243.11036823209483 186.58839677070785 -234.66796875 182.92578125 C-232.8125 181.625 -232.8125 181.625 -232.05078125 178.98046875 C-231.9721484375 178.20316406250004 -231.893515625 177.42585937499996 -231.8125 176.625 C-243.14099458877104 166.66965627047392 -255.70006182193418 169.24659063653348 -266.8125 178.625 Z M62.1875 173.625 C62.1875 176.625 62.1875 176.625 62.1875 176.625 Z M118.1875 197.625 C117.85750000000002 198.615 117.52749999999997 199.60500000000002 117.1875 200.625 C118.5075 200.29499999999996 119.82749999999999 199.96500000000003 121.1875 199.625 C120.85750000000002 198.96500000000003 120.52749999999997 198.305 120.1875 197.625 C119.52749999999997 197.625 118.8675 197.625 118.1875 197.625 Z " fill="#000000" transform="translate(328.8125,155.375)"/>
<path d="M0 0 C3.5866819342695067 0 5.880582757758361 0.18456243991880683 8.8125 2.3203125 C30.196254981498953 24.372309824670793 32.318856462506346 74.05106685977364 37.5625 103.125 C37.69664306640624 103.85577758789066 37.830786132812506 104.58655517578126 37.968994140625 105.3394775390625 C38.34395963066399 107.39408775843913 38.70722176578417 109.45039222145982 39.06640625 111.5078125 C39.27209228515625 112.66941894531249 39.477778320312495 113.83102539062497 39.689697265625 115.02783203125 C39.98078201617767 117.81592467737767 39.75345679326966 119.36818044577757 39 122 C36.9995570217273 114.1919128275822 35.169663375993196 106.36795689467453 33.51171875 98.48046875 C33.047706759904315 96.30009174136262 32.583507855263406 94.11975450375581 32.119140625 91.939453125 C31.40639200848642 88.5819232211436 30.695208446672183 85.22408487403851 29.987548828125 81.865478515625 C27.491491966355937 70.03611124328731 24.90921561859693 58.243696247694146 21.890625 46.53515625 C21.65949508666992 45.62936325073241 21.42836517333984 44.72357025146485 21.190231323242188 43.79032897949219 C12.68276541821146 11.512074063658588 12.68276541821146 11.512074063658588 1.796875 3.34765625 C1.2039062499999886 2.9029296875000057 0.6109375000000057 2.4582031250000114 0 2 C0 1.3400000000000034 0 0.6800000000000068 0 0 Z " fill="#000000" transform="translate(191,168)"/>
</svg>
