<svg xmlns="http://www.w3.org/2000/svg" width="512" height="512"><path d="m254.563 52.75 2.882-.003c34.779.025 82.025 2.281 109.465 26.972C372.4 85.653 374.87 92.98 375 101c-11.32 16.722-38.969 20.835-57.372 24.468-19.727 3.742-39.24 4.883-59.304 4.848-3.725-.003-7.449.02-11.174.045-33.559.09-85.517-.505-111.709-25.658-2.302-2.72-2.717-4.121-2.441-7.703 2.593-10.804 7.792-17.148 17-23.125 30.995-17.993 69.452-21.1 104.563-21.125m-16.188 32.438C236 88 236 88 235.813 91.562c1.412 4.088 2.483 5.264 6.187 7.438 8.426 3.37 17.418 2.807 25.895-.09 2.819-1.218 4.459-2.291 6.105-4.91.5-3 .5-3 0-6-3.154-4.205-6.812-5.514-11.812-6.625-8.078-.95-16.896-1.055-23.813 3.813"/><path d="m129 121 1.957 1.285C153.195 136.127 180.317 141.093 206 144l2.467.312c32.543 4.046 67.112 3.351 99.533-1.312l3.064-.422C333.14 139.455 358.99 134.918 377 121h2a487 487 0 0 1 7.292 29.956c.465 2.204.94 4.405 1.415 6.607l.902 4.257.812 3.821c.502 2.912.874 5.423.579 8.359-17.543 16.306-49.51 20.899-72.062 24.75l-3.506.602c-20.112 3.246-40.148 4.023-60.495 3.96l-3.66-.004c-17.954-.04-35.509-.565-53.277-3.308l-2.97-.422c-24.264-3.472-57.854-8.402-76.03-26.578.1-2.13.1-2.13.621-4.898l.609-3.269L120 161l.439-2.19c.997-4.952 2.029-9.898 3.075-14.84q.831-3.936 1.652-7.872l1.057-5.012.495-2.374c1.167-5.482 1.167-5.482 2.282-7.712"/><path d="M114 195c3.495 1.302 6.727 2.898 10.008 4.665C165.935 221.888 219.558 223.757 266 223l2.625-.038c39.24-.734 85.88-5.804 120.121-26.169C392 195 392 195 395 195c5.052 33.978 8.384 69.824 3 104l-.553 3.514c-4.962 30.9-4.962 30.9-8.119 34.271-6.798 4.179-13.895 7.328-21.328 10.215l-3.285 1.277c-33.589 12.07-70.364 15.098-105.768 15.039-3.914-.003-7.827.02-11.74.045-22.36.057-44.645-1.514-66.644-5.673l-3.455-.64C131.28 348.28 131.28 348.28 117 334c-.638-2.185-.638-2.185-1.184-4.934l-.618-3.108c-7.989-42.68-10.254-88.15-1.198-130.958"/><path d="m385 360 2 1c-3.782 13.019-7.585 26.035-11.75 38.938l-.815 2.612c-2.253 6.848-4.947 9.928-11.457 13.342-57.083 28.386-140.956 25.902-200.212 7.04-20.033-6.75-20.033-6.75-24.766-12.932-1.907-4.214-3.2-8.566-4.5-13l-1.152-3.753c-1.14-3.742-2.25-7.492-3.348-11.247l-.989-3.365A1201 1201 0 0 1 123 361a111 111 0 0 1 11.313 4.313c35.67 14.888 77.297 18.102 115.541 17.948 3.146-.011 6.29 0 9.435.012 39.855.029 88.293-2.856 123.832-22.442z"/><path d="m365 428 2 1c-2.67 8.537-5.07 15.31-13 20-4.203 2.102-8.512 3.637-13 5l-2.076.632c-22.657 6.675-47.078 9.51-70.662 9.536l-3.281.01q-3.42.007-6.84.007c-3.407.002-6.814.02-10.221.04-18.537.048-37.004-.84-55.295-4.038l-2.99-.513c-31.998-5.75-31.998-5.75-40.635-16.674-2.76-4.524-4.467-8.671-5-14 2.953.962 5.875 1.951 8.77 3.078 31.67 12.197 66.938 15.158 100.605 15.11l2.374-.002c36.166-.075 76.38-2.75 109.251-19.186"/></svg>