<?xml version="1.0" encoding="UTF-8"?>
<!-- Generator: visioncortex VTracer 0.6.12 -->
<svg version="1.1" xmlns="http://www.w3.org/2000/svg" width="512" height="512">
  <metadata>
                <![CDATA[
            {
  "prompt": {
    "4": {
      "inputs": {
        "vae_name": "ae.safetensors"
      },
      "class_type": "VAELoader",
      "_meta": {
        "title": "Load VAE"
      }
    },
    "5": {
      "inputs": {
        "clip_name": "qwen3_4b_fp8_scaled.safetensors",
        "type": "lumina2",
        "device": "default"
      },
      "class_type": "CLIPLoader",
      "_meta": {
        "title": "Load CLIP"
      }
    },
    "6": {
      "inputs": {
        "ckpt_name": "zEpicrealism_turboV1Fp8.safetensors"
      },
      "class_type": "CheckpointLoaderSimple",
      "_meta": {
        "title": "Load Checkpoint"
      }
    },
    "7": {
      "inputs": {
        "shift": 6.0,
        "model": [
          "6",
          0
        ]
      },
      "class_type": "ModelSamplingAuraFlow",
      "_meta": {
        "title": "ModelSamplingAuraFlow"
      }
    },
    "8": {
      "inputs": {
        "PowerLoraLoaderHeaderWidget": {
          "type": "PowerLoraLoaderHeaderWidget"
        },
        "lora_1": {
          "on": true,
          "lora": "MinimalistVectorArtZ.safetensors",
          "strength": 0.4
        },
        "lora_2": {
          "on": false,
          "lora": "None",
          "strength": 0.75
        },
        "\u2795 Add Lora": "",
        "model": [
          "7",
          0
        ],
        "clip": [
          "5",
          0
        ]
      },
      "class_type": "Power Lora Loader (rgthree)",
      "_meta": {
        "title": "Power Lora Loader (rgthree)"
      }
    },
    "9": {
      "inputs": {
        "text": "A bold, heavy solid black icon of a singular, massive, squat Parmesan cheese wheel with bulging sides. It is slightly ovoid in shape. Top-down 3/4 perspective. Highly simplified linocut print aesthetic. The entire cylinder and the top are a single, dense contiguous dark mass. A thick, massive, structural white negative space is used to define the circumference where the top surface meets the vertical side-wall. This is a robust, chunky gap that provides a massive, high-contrast anchor. Thick, bold white negative space is used sparingly and only to create a rhythmic, repeating pattern of aligned chunky vertical dashed lines encircling the vertical side-wall of the wheel. Crucially, these vertical dashes are aligned in subtle, identical convex arcs that follow the bulging curve of the wheel. The dashes are very short, thick, and bold, creating a geometric \"branding\" effect. The flat top surface is a single, clean, solid black circle with zero dots or marks. There is a horizontal white oval brand or seal in the center of the side wall. Minimalist, heavy visual weight, no gray. Isolated on white. Optimized for a clean, single-boolean SVG silhouette.",
        "clip": [
          "8",
          1
        ]
      },
      "class_type": "CLIPTextEncode",
      "_meta": {
        "title": "Positive Prompt"
      }
    },
    "10": {
      "inputs": {
        "text": "blurry, bad, shadow",
        "clip": [
          "8",
          1
        ]
      },
      "class_type": "CLIPTextEncode",
      "_meta": {
        "title": "Negative Prompt"
      }
    },
    "11": {
      "inputs": {
        "seed": 460762669306554,
        "steps": 9,
        "cfg": 1.0,
        "sampler_name": "euler",
        "scheduler": "beta",
        "denoise": 1.0,
        "preview_method": "auto",
        "vae_decode": "true",
        "model": [
          "8",
          0
        ],
        "positive": [
          "9",
          0
        ],
        "negative": [
          "10",
          0
        ],
        "latent_image": [
          "27",
          0
        ],
        "optional_vae": [
          "4",
          0
        ]
      },
      "class_type": "KSampler (Efficient)",
      "_meta": {
        "title": "KSampler (Efficient)"
      }
    },
    "13": {
      "inputs": {
        "filename_prefix": [
          "35",
          0
        ],
        "images": [
          "11",
          5
        ]
      },
      "class_type": "SaveImage",
      "_meta": {
        "title": "Save Image"
      }
    },
    "27": {
      "inputs": {
        "dimensions": "512 x 512 (1:1)",
        "invert": false,
        "batch_size": 1
      },
      "class_type": "EmptyLatentImagePresets",
      "_meta": {
        "title": "Empty Latent Image Presets"
      }
    },
    "32": {
      "inputs": {
        "filename_prefix": [
          "35",
          0
        ],
        "svg": [
          "34",
          0
        ]
      },
      "class_type": "SaveSVGNode",
      "_meta": {
        "title": "SaveSVGNode"
      }
    },
    "33": {
      "inputs": {
        "mode": "spline",
        "filter_speckle": 4,
        "corner_threshold": 60,
        "length_threshold": 4.0,
        "splice_threshold": 45,
        "image": [
          "11",
          5
        ]
      },
      "class_type": "TS_ImageToSVGStringBW_Vtracer",
      "_meta": {
        "title": "Image to SVG String BW_Vtracer"
      }
    },
    "34": {
      "inputs": {
        "SVG_String": [
          "33",
          0
        ]
      },
      "class_type": "TS_SVGStringToSVGBytesIO",
      "_meta": {
        "title": "SVG String to SVG BytesIO"
      }
    },
    "35": {
      "inputs": {
        "value": "Icons/cheese-"
      },
      "class_type": "PrimitiveString",
      "_meta": {
        "title": "String"
      }
    }
  },
  "workflow": {
    "id": "b863a6d5-b1c1-49ed-82de-40ff658289d1",
    "revision": 0,
    "last_node_id": 35,
    "last_link_id": 44,
    "nodes": [
      {
        "id": 4,
        "type": "VAELoader",
        "pos": [
          -6219.535543743481,
          -970.8934870343326
        ],
        "size": [
          373.8333435058594,
          123.80000305175781
        ],
        "flags": {},
        "order": 0,
        "mode": 0,
        "inputs": [],
        "outputs": [
          {
            "name": "VAE",
            "type": "VAE",
            "links": [
              13
            ]
          }
        ],
        "properties": {
          "cnr_id": "comfy-core",
          "ver": "0.9.2",
          "Node name for S&R": "VAELoader"
        },
        "widgets_values": [
          "ae.safetensors"
        ]
      },
      {
        "id": 5,
        "type": "CLIPLoader",
        "pos": [
          -6634.5950750000675,
          -1114.7061549982152
        ],
        "size": [
          366.1666564941406,
          406.98333740234375
        ],
        "flags": {},
        "order": 1,
        "mode": 0,
        "inputs": [],
        "outputs": [
          {
            "name": "CLIP",
            "type": "CLIP",
            "links": [
              6
            ]
          }
        ],
        "properties": {
          "cnr_id": "comfy-core",
          "ver": "0.9.2",
          "Node name for S&R": "CLIPLoader"
        },
        "widgets_values": [
          "qwen3_4b_fp8_scaled.safetensors",
          "lumina2",
          "default"
        ]
      },
      {
        "id": 6,
        "type": "CheckpointLoaderSimple",
        "pos": [
          -7142.724710471413,
          -1274.3013669313325
        ],
        "size": [
          456,
          154.6666717529297
        ],
        "flags": {},
        "order": 2,
        "mode": 0,
        "inputs": [],
        "outputs": [
          {
            "name": "MODEL",
            "type": "MODEL",
            "links": [
              4
            ]
          },
          {
            "name": "CLIP",
            "type": "CLIP",
            "links": []
          },
          {
            "name": "VAE",
            "type": "VAE",
            "links": []
          }
        ],
        "properties": {
          "cnr_id": "comfy-core",
          "ver": "0.9.2",
          "Node name for S&R": "CheckpointLoaderSimple"
        },
        "widgets_values": [
          "zEpicrealism_turboV1Fp8.safetensors"
        ],
        "color": "#453f4f",
        "bgcolor": "#312b3b"
      },
      {
        "id": 7,
        "type": "ModelSamplingAuraFlow",
        "pos": [
          -6599.9781895109445,
          -1269.9313776848057
        ],
        "size": [
          270,
          104
        ],
        "flags": {},
        "order": 5,
        "mode": 0,
        "inputs": [
          {
            "name": "model",
            "type": "MODEL",
            "link": 4
          }
        ],
        "outputs": [
          {
            "name": "MODEL",
            "type": "MODEL",
            "links": [
              5
            ]
          }
        ],
        "properties": {
          "cnr_id": "comfy-core",
          "ver": "0.10.0",
          "Node name for S&R": "ModelSamplingAuraFlow"
        },
        "widgets_values": [
          6
        ]
      },
      {
        "id": 8,
        "type": "Power Lora Loader (rgthree)",
        "pos": [
          -6200.015026223777,
          -1269.9313776848057
        ],
        "size": [
          340.48333740234375,
          232
        ],
        "flags": {},
        "order": 6,
        "mode": 0,
        "inputs": [
          {
            "dir": 3,
            "name": "model",
            "type": "MODEL",
            "link": 5
          },
          {
            "dir": 3,
            "name": "clip",
            "type": "CLIP",
            "link": 6
          }
        ],
        "outputs": [
          {
            "dir": 4,
            "name": "MODEL",
            "shape": 3,
            "type": "MODEL",
            "links": [
              33
            ]
          },
          {
            "dir": 4,
            "name": "CLIP",
            "shape": 3,
            "type": "CLIP",
            "links": [
              7,
              8
            ]
          }
        ],
        "properties": {
          "cnr_id": "rgthree-comfy",
          "ver": "8ff50e4521881eca1fe26aec9615fc9362474931",
          "Show Strengths": "Single Strength"
        },
        "widgets_values": [
          {},
          {
            "type": "PowerLoraLoaderHeaderWidget"
          },
          {
            "on": true,
            "lora": "MinimalistVectorArtZ.safetensors",
            "strength": 0.4,
            "strengthTwo": null
          },
          {
            "on": false,
            "lora": "None",
            "strength": 0.75,
            "strengthTwo": null
          },
          {},
          ""
        ]
      },
      {
        "id": 9,
        "type": "CLIPTextEncode",
        "pos": [
          -5665.317947981528,
          -968.8656393627539
        ],
        "size": [
          495.1833190917969,
          389.6333312988281
        ],
        "flags": {},
        "order": 7,
        "mode": 0,
        "inputs": [
          {
            "name": "clip",
            "type": "CLIP",
            "link": 7
          }
        ],
        "outputs": [
          {
            "name": "CONDITIONING",
            "type": "CONDITIONING",
            "links": [
              9
            ]
          }
        ],
        "title": "Positive Prompt",
        "properties": {
          "cnr_id": "comfy-core",
          "ver": "0.9.2",
          "Node name for S&R": "CLIPTextEncode"
        },
        "widgets_values": [
          "A bold, heavy solid black icon of a singular, massive, squat Parmesan cheese wheel with bulging sides. It is slightly ovoid in shape. Top-down 3/4 perspective. Highly simplified linocut print aesthetic. The entire cylinder and the top are a single, dense contiguous dark mass. A thick, massive, structural white negative space is used to define the circumference where the top surface meets the vertical side-wall. This is a robust, chunky gap that provides a massive, high-contrast anchor. Thick, bold white negative space is used sparingly and only to create a rhythmic, repeating pattern of aligned chunky vertical dashed lines encircling the vertical side-wall of the wheel. Crucially, these vertical dashes are aligned in subtle, identical convex arcs that follow the bulging curve of the wheel. The dashes are very short, thick, and bold, creating a geometric \"branding\" effect. The flat top surface is a single, clean, solid black circle with zero dots or marks. There is a horizontal white oval brand or seal in the center of the side wall. Minimalist, heavy visual weight, no gray. Isolated on white. Optimized for a clean, single-boolean SVG silhouette."
        ],
        "color": "#232",
        "bgcolor": "#353"
      },
      {
        "id": 10,
        "type": "CLIPTextEncode",
        "pos": [
          -5666.540362707875,
          -512.285028621371
        ],
        "size": [
          470,
          142
        ],
        "flags": {},
        "order": 8,
        "mode": 0,
        "inputs": [
          {
            "name": "clip",
            "type": "CLIP",
            "link": 8
          }
        ],
        "outputs": [
          {
            "name": "CONDITIONING",
            "type": "CONDITIONING",
            "links": [
              10
            ]
          }
        ],
        "title": "Negative Prompt",
        "properties": {
          "cnr_id": "comfy-core",
          "ver": "0.9.2",
          "Node name for S&R": "CLIPTextEncode"
        },
        "widgets_values": [
          "blurry, bad, shadow"
        ],
        "color": "#322",
        "bgcolor": "#533"
      },
      {
        "id": 11,
        "type": "KSampler (Efficient)",
        "pos": [
          -4910.9017263054975,
          -1342.4877841038808
        ],
        "size": [
          400.1000061035156,
          966.6666870117188
        ],
        "flags": {},
        "order": 9,
        "mode": 0,
        "inputs": [
          {
            "name": "model",
            "type": "MODEL",
            "link": 33
          },
          {
            "name": "positive",
            "type": "CONDITIONING",
            "link": 9
          },
          {
            "name": "negative",
            "type": "CONDITIONING",
            "link": 10
          },
          {
            "name": "latent_image",
            "type": "LATENT",
            "link": 37
          },
          {
            "name": "optional_vae",
            "shape": 7,
            "type": "VAE",
            "link": 13
          },
          {
            "name": "script",
            "shape": 7,
            "type": "SCRIPT",
            "link": null
          }
        ],
        "outputs": [
          {
            "name": "MODEL",
            "type": "MODEL",
            "links": null
          },
          {
            "name": "CONDITIONING+",
            "type": "CONDITIONING",
            "links": null
          },
          {
            "name": "CONDITIONING-",
            "type": "CONDITIONING",
            "links": null
          },
          {
            "name": "LATENT",
            "type": "LATENT",
            "links": null
          },
          {
            "name": "VAE",
            "type": "VAE",
            "links": null
          },
          {
            "name": "IMAGE",
            "type": "IMAGE",
            "links": [
              14,
              39
            ]
          }
        ],
        "properties": {
          "cnr_id": "efficiency-nodes-comfyui",
          "ver": "1.0.8",
          "Node name for S&R": "KSampler (Efficient)"
        },
        "widgets_values": [
          -1,
          null,
          9,
          1,
          "euler",
          "beta",
          1,
          "auto",
          "true"
        ],
        "color": "#223333",
        "bgcolor": "#335555",
        "shape": "box"
      },
      {
        "id": 13,
        "type": "SaveImage",
        "pos": [
          -4410.464751892896,
          -1351.9862052389306
        ],
        "size": [
          461.7833251953125,
          344
        ],
        "flags": {},
        "order": 10,
        "mode": 0,
        "inputs": [
          {
            "name": "images",
            "type": "IMAGE",
            "link": 14
          },
          {
            "name": "filename_prefix",
            "type": "STRING",
            "widget": {
              "name": "filename_prefix"
            },
            "link": 43
          }
        ],
        "outputs": [],
        "properties": {
          "cnr_id": "comfy-core",
          "ver": "0.17.2"
        },
        "widgets_values": [
          "Icons/apps-"
        ]
      },
      {
        "id": 27,
        "type": "EmptyLatentImagePresets",
        "pos": [
          -5662.144089872933,
          -1235.0977881573456
        ],
        "size": [
          285.0833435058594,
          214.6666717529297
        ],
        "flags": {},
        "order": 3,
        "mode": 0,
        "inputs": [],
        "outputs": [
          {
            "name": "Latent",
            "type": "LATENT",
            "links": [
              37
            ]
          },
          {
            "name": "Width",
            "type": "INT",
            "links": null
          },
          {
            "name": "Height",
            "type": "INT",
            "links": null
          }
        ],
        "properties": {
          "cnr_id": "comfyui-kjnodes",
          "ver": "c88ac88a8f8a6a090a0d5d607156090cb2911503",
          "Node name for S&R": "EmptyLatentImagePresets"
        },
        "widgets_values": [
          "512 x 512 (1:1)",
          false,
          1
        ]
      },
      {
        "id": 32,
        "type": "SaveSVGNode",
        "pos": [
          -3813.0751465917647,
          -782.3696102323707
        ],
        "size": [
          270,
          344
        ],
        "flags": {},
        "order": 13,
        "mode": 0,
        "inputs": [
          {
            "name": "svg",
            "type": "SVG",
            "link": 42
          },
          {
            "name": "filename_prefix",
            "type": "STRING",
            "widget": {
              "name": "filename_prefix"
            },
            "link": 44
          }
        ],
        "outputs": [],
        "properties": {
          "cnr_id": "comfy-core",
          "ver": "0.17.2",
          "Node name for S&R": "SaveSVGNode"
        },
        "widgets_values": [
          "Icons/apps-"
        ]
      },
      {
        "id": 33,
        "type": "TS_ImageToSVGStringBW_Vtracer",
        "pos": [
          -4400.388422461708,
          -795.4795779719508
        ],
        "size": [
          314.01666259765625,
          234.66665649414062
        ],
        "flags": {},
        "order": 11,
        "mode": 0,
        "inputs": [
          {
            "name": "image",
            "type": "IMAGE",
            "link": 39
          }
        ],
        "outputs": [
          {
            "name": "STRING",
            "shape": 6,
            "type": "STRING",
            "links": [
              41
            ]
          }
        ],
        "properties": {
          "cnr_id": "comfyui-tosvg",
          "ver": "1.0.1",
          "Node name for S&R": "TS_ImageToSVGStringBW_Vtracer"
        },
        "widgets_values": [
          "spline",
          4,
          60,
          4,
          45
        ]
      },
      {
        "id": 34,
        "type": "TS_SVGStringToSVGBytesIO",
        "pos": [
          -4063.447054927147,
          -778.4329695457014
        ],
        "size": [
          225,
          72
        ],
        "flags": {},
        "order": 12,
        "mode": 0,
        "inputs": [
          {
            "name": "SVG_String",
            "type": "STRING",
            "link": 41
          }
        ],
        "outputs": [
          {
            "name": "SVG",
            "type": "SVG",
            "links": [
              42
            ]
          }
        ],
        "properties": {
          "cnr_id": "comfyui-tosvg",
          "ver": "1.0.1",
          "Node name for S&R": "TS_SVGStringToSVGBytesIO"
        },
        "widgets_values": []
      },
      {
        "id": 35,
        "type": "PrimitiveString",
        "pos": [
          -4406.654485248328,
          -1528.2849375983897
        ],
        "size": [
          270,
          108
        ],
        "flags": {},
        "order": 4,
        "mode": 0,
        "inputs": [],
        "outputs": [
          {
            "name": "STRING",
            "type": "STRING",
            "links": [
              43,
              44
            ]
          }
        ],
        "properties": {
          "cnr_id": "comfy-core",
          "ver": "0.17.2",
          "Node name for S&R": "PrimitiveString"
        },
        "widgets_values": [
          "Icons/cheese-"
        ]
      }
    ],
    "links": [
      [
        4,
        6,
        0,
        7,
        0,
        "MODEL"
      ],
      [
        5,
        7,
        0,
        8,
        0,
        "MODEL"
      ],
      [
        6,
        5,
        0,
        8,
        1,
        "CLIP"
      ],
      [
        7,
        8,
        1,
        9,
        0,
        "CLIP"
      ],
      [
        8,
        8,
        1,
        10,
        0,
        "CLIP"
      ],
      [
        9,
        9,
        0,
        11,
        1,
        "CONDITIONING"
      ],
      [
        10,
        10,
        0,
        11,
        2,
        "CONDITIONING"
      ],
      [
        13,
        4,
        0,
        11,
        4,
        "VAE"
      ],
      [
        14,
        11,
        5,
        13,
        0,
        "IMAGE"
      ],
      [
        33,
        8,
        0,
        11,
        0,
        "MODEL"
      ],
      [
        37,
        27,
        0,
        11,
        3,
        "LATENT"
      ],
      [
        39,
        11,
        5,
        33,
        0,
        "IMAGE"
      ],
      [
        41,
        33,
        0,
        34,
        0,
        "STRING"
      ],
      [
        42,
        34,
        0,
        32,
        0,
        "SVG"
      ],
      [
        43,
        35,
        0,
        13,
        1,
        "STRING"
      ],
      [
        44,
        35,
        0,
        32,
        1,
        "STRING"
      ]
    ],
    "groups": [],
    "config": {},
    "extra": {
      "ds": {
        "scale": 0.9229599817707218,
        "offset": [
          6229.878341370357,
          1177.7285546015758
        ]
      },
      "workflowRendererVersion": "Vue",
      "frontendVersion": "1.41.20",
      "VHS_latentpreview": false,
      "VHS_latentpreviewrate": 0,
      "VHS_MetadataImage": true,
      "VHS_KeepIntermediate": true
    },
    "version": 0.4
  }
}
                ]]>
            </metadata>
            
<path d="M0 0 C0.56322463989261 -0.0005035400390625 0.56322463989261 -0.0005035400390625 3.413482666015625 -0.0030517578125 C21.976890707935297 0.008136271177463072 40.15342599232093 0.736963712985272 58.5625 3.25 C59.601162109375025 3.3892187499999977 60.63982421874999 3.5284374999999955 61.7099609375 3.671875 C68.70668436139204 4.645332172019764 75.63550437590862 5.868206476088318 82.5625 7.25 C83.75166015625001 7.487026367187497 84.94082031250002 7.724052734374993 86.166015625 7.96826171875 C129.46201662739833 16.788022536757737 180.94819889537666 31.961917002915513 207.5625 70.25 C214.3601747533591 80.96565171138235 217.3377585270876 92.1149481983204 219.93408203125 104.419921875 C220.79796665216918 108.31042324473401 221.8222813430587 112.15262220958536 222.84033203125 116.005126953125 C239.10965370407752 178.1008858083134 238.31411090148418 253.94366702602713 205.140625 310.8125 C196.13590442861425 324.72078127857594 185.28478571028563 334.2559925119851 171.5625 343.25 C170.7877734375 343.7720703125 170.013046875 344.294140625 169.21484375 344.83203125 C131.0399768826506 369.2720253820068 78.91271136513228 378.3667694169362 34.5625 381.25 C33.907857666015616 381.2927001953125 33.907857666015616 381.2927001953125 30.594970703125 381.5087890625 C19.8121415668777 382.17747773502276 9.05304329475274 382.49190639414877 -1.75 382.5 C-2.164388275146507 382.50033737182616 -2.164388275146507 382.50033737182616 -4.261444091796875 382.5020446777344 C-67.67789803243551 382.42147999300124 -148.53412674342385 373.50346643025546 -196.25 327 C-225.41923054496343 297.33475330316816 -236.41923815955766 246.19296707083117 -236.640625 205.8515625 C-236.6441094970703 205.4191802215576 -236.6441094970703 205.4191802215576 -236.6617431640625 203.23106384277344 C-236.6790624847806 200.44565916840008 -236.6854663181058 197.66045633205619 -236.6875 194.875 C-236.68850708007813 193.92035858154293 -236.68951416015625 192.96571716308597 -236.6905517578125 191.98214721679688 C-236.6791083173189 175.9022621785214 -235.93039287908934 160.16368256004876 -233.4375 144.25 C-233.29828125 143.35990234375 -233.1590625 142.4698046875 -233.015625 141.552734375 C-231.15271344832138 130.21139784510467 -228.13650691448606 119.23243119679478 -224.936767578125 108.20361328125 C-223.28172411234294 102.46249998096641 -221.88840467202732 96.82489857082544 -220.875 90.9375 C-218.60429650765977 78.84974308568584 -212.36528181768492 70.37415616471736 -204.4375 61.25 C-203.7878125 60.40824218750001 -203.138125 59.566484375 -202.46875 58.69921875 C-169.85270640045286 19.37179694823837 -102.33772428200265 8.663359578051299 -54.9375 2.9375 C-54.264841003417956 2.8560977172851523 -53.59218200683594 2.7746954345703188 -52.899139404296875 2.690826416015625 C-35.235967659653966 0.5868848611891337 -17.768447439815247 0.011049524238060826 0 0 Z M-187.4375 62.25 C-197.0801397174622 71.10129846405346 -204.14549970859292 80.99391521254182 -205.81640625 94.2578125 C-206.30598810364432 106.35522217392113 -201.8877945112548 115.97545642117456 -194.4375 125.25 C-193.852265625 125.99894531249998 -193.26703125 126.747890625 -192.6640625 127.51953125 C-167.17988801949053 158.21882160521287 -120.85433083783312 170.93574277079654 -83.4375 178.25 C-82.46167968750001 178.4428759765625 -81.48585937500002 178.635751953125 -80.48046875 178.83447265625 C-2.427474529421829 193.81552760454372 95.23366243207585 189.8876383202322 164.625 147.75 C166.29263011017366 146.61470784030524 167.9372546954521 145.4451803931906 169.5625 144.25 C170.11196289062502 143.848134765625 170.66142578125 143.44626953124998 171.2275390625 143.0322265625 C184.69887106807414 133.0903109206504 198.67159881383725 120.62099031331411 201.5625 103.25 C202.91993703818514 91.30760448428126 199.9696810021572 81.26566156709427 192.625 71.75 C189.54067283130468 68.15649548087492 186.34763837429563 65.0888537807217 182.5625 62.25 C182.5625 65.41542604058458 183.03813174436033 66.47706099221256 184.5 69.1875 C188.78127930701055 77.1516002162669 188.88001470120264 87.38467852898353 186.9140625 96.13671875 C185.9674288146752 98.64893891490044 184.87479791001715 100.90799340542657 183.5625 103.25 C183.05332031249998 104.1639453125 182.544140625 105.07789062500001 182.01953125 106.01953125 C164.44225690526582 135.4222487465691 124.9336283304471 148.27846808927688 93.5625 156.25 C66.54597263955401 162.9006768666306 38.40157314374869 166.69891937121588 10.5625 167.25 C9.816938476562541 167.27046386718752 9.071376953124968 167.290927734375 8.30322265625 167.31201171875 C-52.01610050829777 168.8309790658697 -129.03573983955627 161.4257943416416 -175.59375 119.0703125 C-185.06562618772483 109.96224826827267 -192.3844330148513 98.52372525702066 -192.6875 85.0625 C-192.59830703338892 77.4173885761927 -189.8069890777454 70.98897815549083 -186.4375 64.25 C-186.76749999999998 63.59 -187.0975 62.93000000000001 -187.4375 62.25 Z M-194.4375 164.25 C-196.45197813113361 166.26447813113361 -195.64925840619838 170.3182496798413 -195.67578125 173.08203125 C-195.68385299682618 173.8701872253418 -195.69192474365235 174.6583432006836 -195.7002410888672 175.4703826904297 C-195.71409786544456 177.14242339759826 -195.72481286653613 178.81449258309328 -195.732666015625 180.486572265625 C-195.749860209916 183.0417264059691 -195.79372732090962 185.59558049172728 -195.837890625 188.150390625 C-195.84801889253183 189.77342796535345 -195.8565345785215 191.39647633028574 -195.86328125 193.01953125 C-195.8807893371582 193.78320510864256 -195.8982974243164 194.54687896728512 -195.9163360595703 195.3336944580078 C-195.90189245955696 198.87461385198742 -195.7215004362625 200.86738258981882 -193.582763671875 203.748779296875 C-190.9949567936463 205.55968455398533 -189.53155538599276 205.593783931777 -186.4375 205.25 C-184.14767061559212 200.67034123118424 -185.1259335013408 193.93404560267675 -185.08740234375 188.847412109375 C-185.0708547534622 187.24602717083883 -185.0435799063689 185.64471573481723 -185.00537109375 184.043701171875 C-184.95047268952385 181.73056884424196 -184.9287108165181 179.41916563901032 -184.9140625 177.10546875 C-184.8913931274414 176.39384078979492 -184.8687237548828 175.68221282958984 -184.84536743164063 174.9490203857422 C-184.86173205762316 171.0797115494062 -185.34686556378412 169.3687553452493 -187.72021484375 166.259033203125 C-190.4375 164.25 -190.4375 164.25 -194.4375 164.25 Z M185.849609375 166.27490234375 C183.08180011520705 169.87529982878814 182.86455262338262 172.48788133267928 182.96875 176.8515625 C182.96870971679687 177.5698422241211 182.96866943359373 178.28812194824218 182.9686279296875 179.02816772460938 C182.97396839564408 180.53937580854785 182.99148849998954 182.05058456612267 183.0205078125 183.5615234375 C183.06250380532282 185.87520964673868 183.0615627257052 188.18599546265037 183.0546875 190.5 C183.06517629947626 191.97137439523516 183.07811275024773 193.4427338139858 183.09375 194.9140625 C183.0939514160156 195.60472808837892 183.09415283203123 196.29539367675784 183.0943603515625 197.00698852539063 C183.16792843846451 199.98598386203975 183.22450625874444 201.8171478620127 185.091796875 204.20849609375 C185.57712890624998 204.5521923828125 186.06246093750002 204.895888671875 186.5625 205.25 C192.4375 202.5 192.4375 202.5 193.5625 200.25 C193.66113170589017 197.80411979148244 193.7023645377913 195.38739327825755 193.6953125 192.94140625 C193.6962692260742 192.2188816833496 193.69722595214841 191.4963571166992 193.69821166992188 190.75193786621094 C193.69889251704524 189.22288933338808 193.69704485938638 187.69383790981254 193.69287109375 186.164794921875 C193.68752920813375 183.82529183494728 193.69281524195202 181.48598141146184 193.69921875 179.146484375 C193.6985577991087 177.6614579095816 193.6972762860068 176.17643156405822 193.6953125 174.69140625 C193.69733673095703 173.991329498291 193.69936096191407 173.29125274658202 193.70144653320313 172.56996154785156 C193.68673540847124 169.51773216877731 193.53585024890225 167.1700507467068 192.5625 164.25 C188.5625 164.25 188.5625 164.25 185.849609375 166.27490234375 Z M-133.4375 192.25 C-133.67411179613214 194.91607761681644 -133.78979229142408 197.4749183256866 -133.80859375 200.14453125 C-133.8176222229004 200.92890060424804 -133.82665069580077 201.71326995849608 -133.83595275878906 202.5214080810547 C-133.85047328251596 204.18325983316515 -133.85934646970443 205.8451689882105 -133.863037109375 207.507080078125 C-133.87490786804346 210.04281948593865 -133.92404795683638 212.5761046259571 -133.974609375 215.111328125 C-133.98407668052482 216.72655063066082 -133.99131024735743 218.3417880823099 -133.99609375 219.95703125 C-134.01562606811524 220.71240676879881 -134.03515838623048 221.46778228759763 -134.05528259277344 222.2460479736328 C-134.021226233625 226.24644279029093 -133.5804355707546 228.0655298952538 -131.101806640625 231.264404296875 C-128.4375 233.25 -128.4375 233.25 -125.25 233.3125 C-122.4375 232.25 -122.4375 232.25 -121.276123046875 230.45068359375 C-120.38643369085003 228.11599367956978 -120.1929864940858 226.4644120084095 -120.20703125 223.9765625 C-120.20791748046875 223.1580078125 -120.2088037109375 222.33945312499998 -120.209716796875 221.49609375 C-120.22301025390624 220.63113281250003 -120.2363037109375 219.766171875 -120.25 218.875 C-120.26007080078125 217.98683593750002 -120.2701416015625 217.09867187500004 -120.280517578125 216.18359375 C-120.31940019099085 213.53862190057373 -120.37760386458052 210.89456665707985 -120.4375 208.25 C-120.44185058593752 207.88052246093753 -120.44185058593752 207.88052246093753 -120.4638671875 206.0107421875 C-120.4904053665949 204.08992708680387 -120.55629246682537 202.16976930929133 -120.625 200.25 C-120.64240234375 199.71375 -120.64240234375 199.71375 -120.73046875 197 C-121.67548148305673 193.32437036424335 -123.27965427856418 192.2389714842476 -126.4375 190.25 C-129.9772995967794 189.756074474868 -130.86999683344746 189.68249683344746 -133.4375 192.25 Z M119.5625 194.25 C118.06358644425313 197.2478271114938 118.43256077855847 200.00006789416489 118.4296875 203.33984375 C118.42873077392579 204.04017227172852 118.42777404785159 204.74050079345704 118.42678833007813 205.46205139160156 C118.42610753835754 206.94402150203405 118.42795481090826 208.42599459592947 118.43212890625 209.907958984375 C118.43747063165955 212.17503580933197 118.43218470845699 214.44191379435847 118.42578125 216.708984375 C118.42644220671332 218.148437937165 118.42772373187074 219.58789137562007 118.4296875 221.02734375 C118.43081542968753 222.33952880859374 118.431943359375 223.65171386718748 118.43310546875 225.003662109375 C118.5625 228.25 118.5625 228.25 119.5625 231.25 C122.36120026590532 232.64935013295263 124.46748792103318 232.50265404726258 127.5625 232.25 C129.375 231.1875 129.375 231.1875 130.5625 229.25 C131.79542483436092 222.47542992705274 131.5604044467441 215.85453851002757 131.320556640625 209.014404296875 C131.24960241783367 206.9257967768542 131.1956439296602 204.83717668703787 131.142578125 202.748046875 C131.09939453125003 201.43255859375 131.0562109375 200.1170703125 131.01171875 198.76171875 C130.97393310546875 197.55990966796878 130.9361474609375 196.3581005859375 130.897216796875 195.119873046875 C130.5625 192.25 130.5625 192.25 128.5625 190.25 C123.86180854052935 190.25 122.91901347483423 191.16563626636852 119.5625 194.25 Z M-217.4375 198.25 C-219.5072115520207 200.31971155202064 -218.6499849766996 204.70288926461495 -218.67578125 207.5546875 C-218.68385299682618 208.38960723876954 -218.69192474365235 209.22452697753909 -218.7002410888672 210.08474731445313 C-218.71409700123357 211.8551423455342 -218.72481238899235 213.62556426141845 -218.732666015625 215.39599609375 C-218.74988540682267 218.10695883751868 -218.79375705609579 220.81670432802935 -218.837890625 223.52734375 C-218.8480165376638 225.24478266998898 -218.856532959189 226.96223198716382 -218.86328125 228.6796875 C-218.8807893371582 229.49227020263675 -218.8982974243164 230.30485290527344 -218.9163360595703 231.14205932617188 C-218.89451451081618 236.79094844100888 -218.89451451081618 236.79094844100888 -216.410888671875 239.28564453125 C-216.0852795410156 239.44476318359375 -216.0852795410156 239.44476318359375 -214.4375 240.25 C-213.1175 239.59000000000003 -211.7975 238.93 -210.4375 238.25 C-210.3136051978347 233.35710835141003 -210.22302491055376 228.46513572623292 -210.162841796875 223.571044921875 C-210.13774653039536 221.90747161169224 -210.10366203941194 220.24400804008468 -210.060302734375 218.580810546875 C-209.99942540203543 216.18510846833567 -209.97124231445335 213.7908674890068 -209.94921875 211.39453125 C-209.92341232299805 210.65475540161134 -209.8976058959961 209.91497955322268 -209.8710174560547 209.1527862548828 C-209.8688445868332 205.1232727126258 -210.29324992279493 203.43044069842205 -212.843017578125 200.240966796875 C-215.4375 198.25 -215.4375 198.25 -217.4375 198.25 Z M209.830810546875 199.239501953125 C207.8201580359363 202.42674419135028 208.19637826475446 205.77081069633823 208.26953125 209.41796875 C208.27377609252932 210.21278152465823 208.27802093505858 211.0075942993164 208.2823944091797 211.8264923095703 C208.29918069677 214.36384020954108 208.3368317616218 216.90039238101122 208.375 219.4375 C208.3900469509577 221.15819164983668 208.40373533939373 222.87889575584768 208.416015625 224.599609375 C208.44908392659704 228.81671261796004 208.50086505336185 233.03322142000235 208.5625 237.25 C210.375 237.9375 210.375 237.9375 212.5625 238.25 C214.294189453125 237.336669921875 214.294189453125 237.336669921875 215.5625 235.25 C215.82413167740367 232.37917843296196 215.91138633789592 229.7301350661163 215.85546875 226.86328125 C215.85122390747068 226.0462724304199 215.84697906494142 225.22926361083984 215.8426055908203 224.3874969482422 C215.82581690950855 221.77882893386663 215.78816518504323 219.1709343765071 215.75 216.5625 C215.73495336856274 214.7936309515734 215.72126492495028 213.02474978983423 215.708984375 211.255859375 C215.67591286380286 206.9202750415978 215.62412990342517 202.58526864247847 215.5625 198.25 C211.5625 198.25 211.5625 198.25 209.830810546875 199.239501953125 Z M-169.4375 232.25 C-169.7541066302922 235.1115117679218 -169.8814981919731 237.75230744864382 -169.87109375 240.6171875 C-169.87633560180666 241.4483206176758 -169.88157745361326 242.27945373535158 -169.88697814941406 243.13577270507813 C-169.89340777899537 244.89600506804908 -169.89204919250403 246.6562803439807 -169.883544921875 248.41650390625 C-169.87505401599753 251.10787847209735 -169.9037498330526 253.79711765324294 -169.935546875 256.48828125 C-169.93715945452777 258.1979160301105 -169.93658027013063 259.9075545679138 -169.93359375 261.6171875 C-169.9448277282715 262.42147186279294 -169.95606170654298 263.22575622558594 -169.96763610839844 264.0544128417969 C-169.92446756783363 267.5242551796469 -169.67211380317934 269.8668969029745 -167.843994140625 272.85205078125 C-164.44248694897294 274.82801001625046 -162.17215572311 274.11184362841 -158.4375 273.25 C-158.3633862871813 267.7507625088512 -158.30891536221844 262.2518152137379 -158.272705078125 256.752197265625 C-158.25761127044024 254.881052009737 -158.23713411014847 253.00994216749677 -158.211181640625 251.138916015625 C-158.1748240736426 248.4505947393386 -158.15777984643654 245.76274086602007 -158.14453125 243.07421875 C-158.12904739379883 242.23662521362303 -158.11356353759766 241.39903167724606 -158.0976104736328 240.5360565185547 C-158.09590878824332 234.67397724317732 -158.09590878824332 234.67397724317732 -159.8025360107422 232.5557403564453 C-163.36138404072616 229.71351782081905 -165.74189078629564 229.78626052419713 -169.4375 232.25 Z M158.86328125 231.70703125 C155.59428806858267 235.32012897682966 155.78262767914572 238.20885084844554 155.75 242.9375 C155.72703857421874 243.77023437499997 155.70407714843748 244.60296875 155.680419921875 245.4609375 C155.61683276377425 248.05745404082364 155.58891646280966 250.65287035080638 155.5625 253.25 C155.52469495238523 254.89195651716625 155.4856734254222 256.5338855707351 155.4453125 258.17578125 C155.41932966380307 259.70047958265894 155.39578260387572 261.22522191884656 155.375 262.75 C155.36170654296876 263.46115966796873 155.34841308593752 264.1723193359375 155.334716796875 264.905029296875 C155.32977098552283 268.59055799268754 155.45943636935357 270.0954045540304 157.5625 273.25 C161.0206016824622 273.7762328647225 162.82324059884257 273.7623332563802 165.72900390625 271.74853515625 C168.30366105852397 268.24000768669316 168.100286405946 265.01986766948124 168.0234375 260.8359375 C168.02252105712893 260.0250869750977 168.0216046142578 259.2142364501953 168.02066040039063 258.3788146972656 C168.0146300913541 256.669150050997 167.9989010576578 254.95949569192692 167.97412109375 253.25 C167.93753083912952 250.62721054880308 167.93310236400504 248.00583094101273 167.93359375 245.3828125 C167.9237654057186 243.72134190858014 167.91210963311113 242.05988090718563 167.8984375 240.3984375 C167.89732467651368 240.00520797729496 167.89732467651368 240.00520797729496 167.89169311523438 238.01522827148438 C167.794675753518 232.482175753518 167.794675753518 232.482175753518 165.5625 230.25 C161.5625 230.25 161.5625 230.25 158.86328125 231.70703125 Z M-62.44921875 263.0390625 C-66.10783366741771 267.10738478538 -67.85956013238521 270.1579344447366 -67.8125 275.6875 C-67.82023437500001 276.5937109375 -67.82796875 277.499921875 -67.8359375 278.43359375 C-66.83619897666051 285.5003729198801 -62.61398881355788 289.53857651852707 -57.4375 294.0078125 C-41.32560984584151 306.0497720683424 -21.34346490061523 309.65573948701655 -1.6875 309.5625 C-0.4575732421874932 309.5575854492188 0.7723535156250136 309.5526708984375 2.03955078125 309.547607421875 C21.50364298873444 309.2973438071803 43.55962010172868 305.2157401925097 58.0625 291.1875 C62.60164501091458 286.2677722785588 65.1640432101421 282.3487587190037 65.6796875 275.578125 C65.34000325135787 268.8297312603093 60.80981770286809 263.66386309974 56.08203125 259.19921875 C47.497284909270604 252.55768630965275 36.9781517683046 248.89058777224625 26.5625 246.25 C25.731054687499977 246.036015625 24.89960937500001 245.82203125 24.04296875 245.6015625 C-4.302604345934554 239.4414222051355 -40.52117928410581 242.62203079562119 -62.44921875 263.0390625 Z M90.5625 256.25 C89.97450911229345 259.24432143518504 89.78611168961226 261.42427056599524 89.87109375 264.41015625 C89.87178108215335 264.80329765319823 89.87178108215335 264.80329765319823 89.87525939941406 266.79283142089844 C89.88430497577917 268.45130028617876 89.90790040330268 270.1097452642172 89.945068359375 271.767822265625 C89.99989681078642 274.3077198170085 90.00659708518367 276.8443376557759 90.005859375 279.384765625 C90.02060499783931 280.9974242205852 90.03809005226128 282.610060585338 90.05859375 284.22265625 C90.06193222045897 284.9820802307129 90.06527069091794 285.74150421142576 90.06871032714844 286.52394104003906 C90.14946275689982 289.50944398549467 90.21628526750891 291.7184399434557 91.871337890625 294.259521484375 C94.84219814346136 295.9994926184528 97.37163475964093 295.06222024300047 100.5625 294.25 C103.09991494454533 290.44387758318203 102.86838687169558 287.34549967562987 102.86328125 282.93359375 C102.8675663757324 282.1213282775879 102.87185150146485 281.30906280517576 102.87626647949219 280.47218322753906 C102.88200576295765 278.75661145168135 102.8825129896228 277.04101534161606 102.878173828125 275.325439453125 C102.87500752516047 272.693754566057 102.89849878400969 270.0631870127412 102.923828125 267.431640625 C102.92610044941063 265.76562642243715 102.92680492492963 264.0996091877103 102.92578125 262.43359375 C102.93499099731446 261.6439976501465 102.94420074462892 260.85440155029295 102.95368957519531 260.04087829589844 C102.934814453125 257.825927734375 102.934814453125 257.825927734375 102.5625 254.25 C97.51520155789359 250.8851343719291 94.89974725190694 252.4378055059541 90.5625 256.25 Z M-102.4375 253.25 C-104.78467681141618 256.7707652171243 -104.68343222211035 258.2227998776152 -104.66796875 262.38671875 C-104.66603515624999 263.60423828125 -104.66410156250001 264.8217578125 -104.662109375 266.076171875 C-104.64986328124999 267.35041015625 -104.63761718750001 268.6246484375 -104.625 269.9375 C-104.62435546875 271.19240234375 -104.6237109375 272.4473046875 -104.623046875 273.740234375 C-104.54130148059906 290.98851259360106 -104.54130148059906 290.98851259360106 -101.6875 294.25 C-98.99287945088724 295.447609132939 -97.35455928124287 295.6987783509604 -94.4375 295.25 C-92.814453125 294.19873046875 -92.814453125 294.19873046875 -91.4375 292.25 C-91.11487683376944 289.65138293897786 -90.96948525574095 287.2963899719948 -90.96875 284.6953125 C-90.96113647460936 283.95675018310544 -90.95352294921875 283.21818786621094 -90.9456787109375 282.4572448730469 C-90.93488020889018 280.89552181836575 -90.93202363205319 279.33372656097373 -90.9365234375 277.77197265625 C-90.93749400511345 275.3897144490241 -90.89591615865368 273.0106977197029 -90.8515625 270.62890625 C-90.84635377761637 269.10938169586416 -90.84366733466732 267.5898459792551 -90.84375 266.0703125 C-90.82735473632812 265.3618215942383 -90.81095947265624 264.65333068847656 -90.7940673828125 263.9233703613281 C-90.84790196586931 260.0434933164118 -91.34096477402323 258.37212069000446 -93.775390625 255.29248046875 C-96.4375 253.25 -96.4375 253.25 -99.625 252.75 C-100.08906250000001 252.83249999999998 -100.08906250000001 252.83249999999998 -102.4375 253.25 Z M185 272.5625 C180.1292790336621 277.93278209109053 181.34071803592087 284.7598575795378 181.322265625 291.611083984375 C181.3125192559466 293.8081592282325 181.28146444534286 296.00431446852093 181.25 298.201171875 C181.2434735203932 299.59374444618925 181.23822165604355 300.98632369797593 181.234375 302.37890625 C181.225029296875 303.64806884765625 181.21568359375 304.9172314453125 181.2060546875 306.224853515625 C181.323681640625 307.22315185546876 181.44130859375002 308.2214501953125 181.5625 309.25 C182.5525 309.90999999999997 183.54250000000002 310.57 184.5625 311.25 C188.90732758620692 309.9051724137931 188.90732758620692 309.9051724137931 190.5625 308.25 C190.8076309118312 305.39013936196903 190.99084372222006 302.55318873773246 191.125 299.6875 C191.16600830078124 298.83865234375 191.2070166015625 297.9898046875 191.249267578125 297.115234375 C191.50230619715455 291.49494802935 191.69151437067904 285.87579182715183 191.75 280.25 C191.76417968750002 278.97125 191.77835937499998 277.6925 191.79296875 276.375 C191.5625 273.25 191.5625 273.25 189.5625 270.25 C187.5625 270.25 187.5625 270.25 185 272.5625 Z M-191.4375 272.25 C-193.8953685263451 275.9368027895176 -193.65423316688896 278.62550430061134 -193.51953125 282.875 C-193.50162033081054 283.6183056640625 -193.48370941162108 284.361611328125 -193.4652557373047 285.12744140625 C-193.4240964299828 286.69773852384026 -193.37752135077008 288.2679016999312 -193.325927734375 289.837890625 C-193.2502898081983 292.24079323151443 -193.20129626664644 294.64326213297187 -193.154296875 297.046875 C-193.11099215380048 298.57296341302794 -193.066122704621 300.09900839464547 -193.01953125 301.625 C-193.0068672180176 302.3438134765625 -192.99420318603515 303.062626953125 -192.9811553955078 303.80322265625 C-192.86680094699182 306.7255019989526 -192.76809904973368 308.77759801326084 -191.065185546875 311.2109375 C-188.78343357029473 312.66753513196727 -187.08483190053846 312.52866651584617 -184.4375 312.25 C-182.50599116424854 310.31849116424854 -183.2736934728709 306.7078134791959 -183.26953125 304.07421875 C-183.2662028503418 303.3526509094238 -183.2628744506836 302.63108306884766 -183.2594451904297 301.8876495361328 C-183.25437196892793 300.356828195938 -183.25203698610053 298.82599575386587 -183.252197265625 297.295166015625 C-183.25001878630556 294.9576577058595 -183.2318900616886 292.62062732955917 -183.212890625 290.283203125 C-183.2099551414148 288.79687661551446 -183.20797138268387 287.31054786093534 -183.20703125 285.82421875 C-183.2034384918213 285.475192489624 -183.2034384918213 285.475192489624 -183.1852569580078 283.7089080810547 C-183.20228061459315 280.07272747551997 -183.29660802477954 277.2641798568921 -185.4375 274.25 C-188.4375 272.25 -188.4375 272.25 -191.4375 272.25 Z M118.5625 303.25 C118.02079836071914 306.08671027987936 117.79420301199156 308.34953620512607 117.78515625 311.19140625 C117.76529159545896 311.95549301147463 117.74542694091798 312.7195797729492 117.72496032714844 313.50682067871094 C117.68785532571616 315.11784844951967 117.66251898407324 316.7291848364368 117.648193359375 318.340576171875 C117.62503825580166 320.8084227369266 117.56465662164726 323.27321582482125 117.498046875 325.740234375 C117.46656503346259 327.3072492938517 117.4371960374782 328.87430838702414 117.41015625 330.44140625 C117.39364517211914 331.178956451416 117.37713409423827 331.916506652832 117.36012268066406 332.67640686035156 C117.33808545318487 336.4332176587467 117.42275865396306 338.04038798094456 119.5625 341.25 C125.492524121982 341.89691172239804 125.492524121982 341.89691172239804 128.248779296875 340.23046875 C130.31237491704593 337.1195437043158 130.08443597979277 333.8061193718425 130.14453125 330.1875 C130.16722579956053 329.39980224609377 130.1899203491211 328.6121044921875 130.2133026123047 327.800537109375 C130.25786289865323 326.1364035946893 130.29522964971886 324.47206412309697 130.325927734375 322.8076171875 C130.37482904432534 320.258910107699 130.45031979716384 317.7119958896293 130.529296875 315.1640625 C130.56929508194247 313.54691346737224 130.6077582661378 311.92972558659744 130.64453125 310.3125 C130.66731643676758 309.54993896484376 130.69010162353516 308.7873779296875 130.7135772705078 308.001708984375 C130.76993422153282 304.1823148114036 130.73671499125987 302.51132248688987 128.5625 299.25 C123.9636250828957 298.3799425832505 121.71252823175979 299.98302886803543 118.5625 303.25 Z M-129.4375 301.25 C-132.60903970378132 306.007309555672 -131.6489458058739 311.34573872578824 -131.49951171875 316.89208984375 C-131.45595014206134 318.548458771542 -131.4219656632602 320.20509387610554 -131.39501953125 321.86181640625 C-131.34776863584634 324.5755765948462 -131.2713014527618 327.28714299989025 -131.1875 330 C-131.17356201171873 330.86939208984376 -131.15962402343752 331.7387841796875 -131.145263671875 332.634521484375 C-130.90247399892547 338.7416155654902 -130.90247399892547 338.7416155654902 -128.5546875 341.30859375 C-125.97066733166162 342.4575768875822 -124.23599166420698 342.6182225873957 -121.4375 342.25 C-118.55298607988189 339.36548607988186 -119.09433171901699 336.40662196391344 -119.06640625 332.5390625 C-119.05737777709962 331.77451751708986 -119.04834930419923 331.00997253417967 -119.03904724121094 330.2222595214844 C-119.02452933433216 328.6032910601538 -119.01565417481962 326.9842637208811 -119.011962890625 325.365234375 C-119.00007646429418 322.89091705715316 -118.95092140420553 320.41910225661843 -118.900390625 317.9453125 C-118.89092519240353 316.37240801073534 -118.8836907284043 314.799488192946 -118.87890625 313.2265625 C-118.85937393188476 312.48789947509766 -118.83984161376952 311.7492364501953 -118.81971740722656 310.9881896972656 C-118.85318559831467 307.16671566297975 -119.11890445011855 305.5826275560495 -121.804443359375 302.77880859375 C-124.70586443193406 301.094181912585 -126.14767896703489 300.6276014261958 -129.4375 301.25 Z " fill="#000000" transform="translate(258.4375,64.75)"/>
</svg>
