<svg xmlns="http://www.w3.org/2000/svg" width="512" height="512"><path d="m258.438 64.75 3.413-.003c18.563.011 36.74.74 55.149 3.253l3.147.422c6.997.973 13.926 2.196 20.853 3.578l3.604.718C387.9 81.538 439.386 96.712 466 135c6.798 10.716 9.775 21.865 12.372 34.17.863 3.89 1.888 7.733 2.906 11.585 16.27 62.096 15.474 137.939-17.7 194.808C454.573 389.47 443.722 399.006 430 408l-2.348 1.582C389.477 434.022 337.35 443.117 293 446l-3.968.259a528 528 0 0 1-32.344.991l-2.512.002c-63.416-.08-144.273-8.999-191.988-55.502-29.17-29.665-40.17-80.807-40.391-121.148l-.021-2.62q-.025-4.18-.026-8.357l-.003-2.893c.011-16.08.76-31.818 3.253-47.732l.422-2.697c1.863-11.342 4.879-22.32 8.079-33.35 1.655-5.74 3.048-11.378 4.062-17.266C39.833 143.6 46.073 135.125 54 126l1.969-2.55C88.585 84.121 156.099 73.412 203.5 67.687l2.038-.247c17.664-2.104 35.131-2.68 52.9-2.691M71 127c-9.643 8.851-16.708 18.744-18.379 32.008C52.131 171.105 56.55 180.725 64 190l1.773 2.27C91.258 222.969 137.583 235.686 175 243l2.957.584c78.053 14.982 175.714 11.054 245.106-31.084A166 166 0 0 0 428 209l1.665-1.218C443.136 197.84 457.109 185.371 460 168c1.357-11.942-1.593-21.984-8.937-31.5-3.085-3.594-6.278-6.661-10.063-9.5 0 3.165.476 4.227 1.938 6.938 4.28 7.964 4.38 18.197 2.414 26.949-.947 2.512-2.04 4.771-3.352 7.113l-1.543 2.77C422.88 200.172 383.371 213.028 352 221c-27.017 6.65-55.16 10.449-83 11l-2.26.062c-60.319 1.519-137.338-5.886-183.896-48.242-9.472-9.108-16.79-20.546-17.094-34.007.09-7.646 2.88-14.074 6.25-20.813zm-7 102c-2.014 2.014-1.212 6.068-1.238 8.832l-.025 2.388q-.02 2.508-.032 5.017a726 726 0 0 1-.105 7.663q-.015 2.434-.026 4.87l-.053 2.314c.015 3.54.195 5.533 2.334 8.415 2.588 1.81 4.05 1.845 7.145 1.501 2.29-4.58 1.312-11.316 1.35-16.403q.025-2.401.082-4.803c.055-2.313.077-4.625.091-6.939l.07-2.156c-.017-3.87-.502-5.58-2.876-8.69C68 229 68 229 64 229m380.287 2.025c-2.768 3.6-2.985 6.213-2.88 10.577v2.176q.007 2.267.051 4.534c.042 2.313.041 4.624.034 6.938q.016 2.207.04 4.414v2.093c.073 2.979.13 4.81 1.997 7.201L445 270c5.875-2.75 5.875-2.75 7-5 .099-2.446.14-4.863.133-7.309l.003-2.19q0-2.292-.006-4.586-.005-3.51.007-7.019 0-2.227-.004-4.455l.006-2.121c-.015-3.052-.166-5.4-1.139-8.32-4 0-4 0-6.713 2.025M125 257a96 96 0 0 0-.371 7.895c-.01.784-.018 1.568-.027 2.376a765 765 0 0 0-.028 4.986 498 498 0 0 1-.111 7.604q-.015 2.423-.022 4.846l-.059 2.289c.034 4 .475 5.82 2.954 9.018C130 298 130 298 133.188 298.062 136 297 136 297 137.16 295.202c.89-2.335 1.084-3.987 1.07-6.474l-.003-2.48-.04-2.622-.031-2.691A999 999 0 0 0 138 273l-.026-2.24a270 270 0 0 0-.161-5.76l-.106-3.25c-.945-3.676-2.55-4.761-5.707-6.75-3.54-.494-4.432-.568-7 2m253 2c-1.499 2.998-1.13 5.75-1.133 9.09l-.003 2.122q0 2.223.006 4.446.005 3.4-.007 6.801 0 2.16.004 4.318l.004 3.977C377 293 377 293 378 296c2.799 1.4 4.905 1.253 8 1 1.813-1.062 1.813-1.062 3-3 1.233-6.775.998-13.395.758-20.236a732 732 0 0 1-.178-6.266l-.13-3.986c-.039-1.202-.076-2.404-.115-3.642C389 257 389 257 387 255c-4.7 0-5.643.916-9 4m-337 4c-2.07 2.07-1.212 6.453-1.238 9.305l-.025 2.53q-.02 2.655-.032 5.311c-.017 2.711-.061 5.42-.105 8.131q-.015 2.577-.026 5.153l-.053 2.462c.022 5.649.022 5.649 2.506 8.144L44 305l4-2q.185-7.339.275-14.679.037-2.496.102-4.99c.061-2.396.09-4.79.111-7.186l.078-2.242c.003-4.03-.422-5.723-2.972-8.912C43 263 43 263 41 263m427.268.99c-2.01 3.187-1.634 6.53-1.561 10.178l.013 2.408c.017 2.538.054 5.074.092 7.611q.024 2.582.042 5.163.051 6.325.146 12.65c1.813.688 1.813.688 4 1 1.732-.913 1.732-.913 3-3 .262-2.87.349-5.52.293-8.387l-.013-2.476a955 955 0 0 0-.092-7.824q-.024-2.654-.042-5.307-.051-6.503-.146-13.006c-4 0-4 0-5.732.99M89 297a72 72 0 0 0-.434 8.367l-.015 2.519q-.01 2.64.003 5.28a543 543 0 0 1-.052 8.072q-.003 2.565.002 5.13l-.034 2.436c.043 3.47.295 5.813 2.124 8.798 3.401 1.976 5.671 1.26 9.406.398q.111-8.249.165-16.498.022-2.806.061-5.613c.037-2.688.054-5.376.067-8.065.015-.837.03-1.675.047-2.538.002-5.862.002-5.862-1.705-7.98-3.559-2.842-5.94-2.77-9.635-.306m328.3-.543c-3.268 3.613-3.08 6.502-3.113 11.23l-.07 2.524A544 544 0 0 0 414 318l-.117 4.926q-.04 2.287-.07 4.574l-.04 2.155c-.006 3.686.124 5.19 2.227 8.345 3.458.526 5.26.512 8.167-1.501 2.574-3.509 2.37-6.73 2.294-10.913l-.003-2.457q-.01-2.565-.046-5.129a556 556 0 0 1-.04-7.867q-.015-2.492-.036-4.985l-.007-2.383c-.097-5.533-.097-5.533-2.329-7.765-4 0-4 0-6.7 1.457m-221.312 31.332c-3.658 4.068-5.41 7.119-5.363 12.649l-.023 2.746c1 7.066 5.222 11.105 10.398 15.574 16.112 12.042 36.094 15.648 55.75 15.555l3.727-.015c19.464-.25 41.52-4.332 56.023-18.36 4.54-4.92 7.102-8.84 7.617-15.61-.34-6.748-4.87-11.914-9.597-16.379-8.585-6.641-19.104-10.308-29.52-12.949l-2.52-.648c-28.345-6.16-64.564-2.98-86.492 17.437M349 321c-.588 2.994-.776 5.174-.691 8.16l.004 2.383q.013 2.488.07 4.975c.054 2.54.061 5.076.06 7.617a1355 1355 0 0 0 .053 4.838l.01 2.3c.081 2.986.148 5.195 1.803 7.737 2.97 1.74 5.5.802 8.691-.01 2.537-3.806 2.306-6.905 2.3-11.316l.014-2.462q.009-2.573.002-5.147c-.003-2.631.02-5.262.045-7.893q.004-2.499.002-4.998l.028-2.393c-.019-2.215-.019-2.215-.391-5.791-5.047-3.365-7.663-1.812-12 2m-193-3c-2.347 3.52-2.246 4.973-2.23 9.137l.005 3.69.037 3.86.002 3.803c.082 17.249.082 17.249 2.936 20.51 2.695 1.198 4.333 1.449 7.25 1 1.623-1.051 1.623-1.051 3-3 .323-2.599.468-4.954.469-7.555l.023-2.238q.015-2.342.009-4.685c-.001-2.382.04-4.761.085-7.143q.008-2.28.008-4.559l.05-2.147c-.054-3.88-.547-5.55-2.982-8.63C162 318 162 318 158.812 317.5zm287.438 19.313c-4.871 5.37-3.66 12.197-3.678 19.048-.01 2.197-.041 4.393-.072 6.59q-.01 2.089-.016 4.178l-.028 3.846L440 374l3 2c4.345-1.345 4.345-1.345 6-3 .245-2.86.428-5.697.563-8.562l.124-2.573c.253-5.62.442-11.24.5-16.865l.043-3.875C450 338 450 338 448 335c-2 0-2 0-4.562 2.313M67 337c-2.458 3.687-2.217 6.376-2.082 10.625l.054 2.252q.062 2.355.14 4.71c.075 2.404.124 4.806.171 7.21q.065 2.289.135 4.578l.038 2.178c.115 2.923.213 4.975 1.916 7.408 2.282 1.457 3.98 1.318 6.628 1.039 1.932-1.932 1.164-5.542 1.168-8.176l.01-2.186q.007-2.297.007-4.593c.002-2.337.02-4.674.04-7.012q.005-2.229.005-4.459l.022-2.115c-.017-3.636-.111-6.445-2.252-9.459-3-2-3-2-6-2m310 31c-.542 2.837-.768 5.1-.777 7.941l-.06 2.316a342 342 0 0 0-.077 4.834 420 420 0 0 1-.15 7.4q-.048 2.35-.088 4.7l-.05 2.235c-.022 3.757.062 5.364 2.202 8.574 5.93.647 5.93.647 8.686-1.02 2.064-3.11 1.836-6.424 1.896-10.043l.069-2.386q.067-2.497.112-4.993c.05-2.55.125-5.096.204-7.644q.06-2.426.115-4.851l.07-2.311c.055-3.82.022-5.49-2.152-8.752-4.599-.87-6.85.733-10 4m-248-2c-3.172 4.757-2.211 10.096-2.062 15.642q.066 2.484.104 4.97c.048 2.714.124 5.425.208 8.138l.042 2.635c.243 6.107.243 6.107 2.59 8.674 2.585 1.149 4.32 1.31 7.118.941 2.885-2.885 2.343-5.843 2.371-9.71.01-.765.018-1.53.027-2.318q.022-2.428.028-4.857c.011-2.474.06-4.946.111-7.42q.015-2.36.022-4.718l.059-2.239c-.034-3.821-.3-5.405-2.985-8.21-2.901-1.684-4.343-2.15-7.633-1.528"/></svg>