<svg xmlns="http://www.w3.org/2000/svg" width="1024" height="1024"><path d="m471.783 190.612 2.827-.016c3.057-.013 6.114-.005 9.171.006q3.21-.003 6.421-.01 6.713-.005 13.425.017c5.72.017 11.439.007 17.158-.01 4.417-.012 8.833-.008 13.25 0q3.162.004 6.325-.008c2.952-.008 5.904.004 8.857.02l2.607-.018c8.972.093 15.977 2.356 22.508 8.587 3.508 3.829 4.626 6.503 4.793 11.695-1.378 7.564-7.98 12.077-13.687 16.563-6.253 4.964-9.974 10.458-13.438 17.562 2.883 1.441 5.706 1.567 8.902 1.98a4287 4287 0 0 1 6.662.888c39.677 5.34 78.129 16.08 114.436 33.132l1.917.9c32.196 15.286 62.321 35.867 88.638 59.873a363 363 0 0 0 4.765 4.266c10.532 9.28 20.645 19.21 29.68 29.961.842.953 1.684 1.905 2.55 2.887C822.239 393.294 833.746 408.77 844 425l1.082 1.708c31.258 49.803 51.274 105.468 59.23 163.667l.447 3.264C908.682 624.913 908 655.346 908 687H112c0-80.716 0-80.716 5.688-112.437l.38-2.153C130.357 503.138 159.557 439.678 204 385l1.286-1.586C220.928 364.235 238.446 346.208 258 331l1.861-1.459C288.023 307.505 318.633 288.184 352 275l2.576-1.024c37.028-14.6 74.89-23.8 114.424-27.976-3.676-8.954-8.526-14.862-15.887-21.184-9.089-7.812-9.089-7.812-11.05-13.566-.102-5.287 2.016-9.04 5.449-12.988 6.925-6.505 15.087-7.715 24.271-7.65M356 304l-1.998 1.042c-3.208 1.744-4.941 2.867-7.002 5.958l1.61 1.906c4.257 5.159 7.672 9.98 10.39 16.094 4.344-1.629 8.401-3.658 12.5-5.812l1.973-1.002c4.887-2.572 8.662-5.558 11.902-10.123.922-3.043.494-5.021-.375-8.063-2.025-3.427-3.527-4.773-7.125-6.5-8.138-1.05-14.838 2.818-21.875 6.5m-68 40-2.895 2.238c-16.522 13.153-32.938 28.506-46.015 45.114-2.21 2.801-4.52 5.5-6.84 8.21C222.187 411.629 213.213 424.616 205 438l-1.206 1.946C181.86 475.531 181.86 475.531 184 490c1.789 4.736 4.019 7.389 8.313 10.063 6.104 1.552 10.455.894 15.812-2.188 7.148-4.448 11.422-12.081 15.625-19.125 15.187-24.92 31.59-48.99 50.79-71.019 1.115-1.322 2.2-2.67 3.272-4.028 6.07-7.654 12.729-14.55 19.653-21.429 1.907-1.896 3.804-3.803 5.7-5.712C310.138 369.58 317.238 363.109 325 357a437 437 0 0 0 3.707-3.11l1.588-1.347 1.517-1.293c6.033-5.128 6.033-5.128 7.838-6.549 3.748-2.975 5.85-5.102 6.756-9.814.191-4.476-.185-7.264-3.031-10.824-3.648-3.7-7.032-4.743-12.125-5.438-16.04 1.85-30.935 15.82-43.25 25.375M47.275 723.872l1.986-.005q3.332-.004 6.664.002l4.816-.007q6.672-.007 13.344-.003 7.237-.001 14.476-.008 14.38-.011 28.76-.01 17.214-.004 34.428-.015c27.74-.016 55.482-.022 83.223-.027q19.672-.004 39.346-.01a632996 632996 0 0 1 170.67-.03q68.38-.005 136.758-.041c32.75-.017 65.499-.033 98.248-.037h2.04a414424 414424 0 0 1 62.171-.005h3.942c20.97 0 41.94-.012 62.91-.026q31.594-.022 63.187-.01 18.787.007 37.575-.015 12.535-.014 25.07.001 7.152.01 14.304-.006 6.5-.017 13 .004 2.342.004 4.685-.008c2.116-.01 4.23-.002 6.345.01h3.554c3.68.427 6.072 1.453 9.223 3.374 2.547 3.533 3.008 5.506 2.938 9.875-2.655 14.21-15.644 24.889-26.937 32.77-23.932 16.211-49.218 28.423-76.313 38.293l-3.238 1.182-3.063 1.095-2.712.972c-2.876.874-5.704 1.38-8.675 1.813l-.48 1.793-.707 2.394-.668 2.356c-1.627 3.491-3.035 5.1-6.145 7.457-3.838.755-7.633.669-11.533.626l-3.595.022c-3.304.014-6.606.006-9.91-.012-3.59-.013-7.179.002-10.769.014q-9.442.022-18.885 0c-9.36-.021-18.72-.014-28.082 0-16.716.022-33.432.016-50.148-.002a33235 33235 0 0 0-46.823-.017l-11.804.003c-36.93.01-73.86-.008-110.79-.04q-49.244-.041-98.486-.018l-25.217.012h-3.136a92619 92619 0 0 1-96.946-.015 46206 46206 0 0 0-43.863.003q-24.93.013-49.862-.024-13.962-.022-27.925-.004-9.315.01-18.632-.02c-3.543-.01-7.086-.013-10.63 0-3.81.014-7.62-.002-11.43-.022l-3.36.028c-7.409-.075-7.409-.075-11.333-2.427-1.942-2.223-2.679-3.803-3.49-6.615-1.172-2.848-1.836-4.18-4.493-5.792-2.801-1.021-5.598-1.822-8.483-2.575a835 835 0 0 1-6.527-1.973l-3.418-1.04c-31.115-10.093-82.015-31.942-97.88-62.944-1.809-4.394-2.642-7.337-2.112-12.106 3.392-6.648 7.814-8.187 14.837-8.19"/></svg>