<?xml version="1.0" encoding="UTF-8"?>
<svg id="Layer_1" xmlns="http://www.w3.org/2000/svg" version="1.1" viewBox="0 0 512 512">
  <!-- Generator: Adobe Illustrator 30.2.1, SVG Export Plug-In . SVG Version: 2.1.1 Build 1)  -->
  <path d="M254.68,86.14c6.29,2.32,13.23-2.08,18.95-4.62,12.07-5.18,25.01-4.61,37.37-.53,5.74,2.64,10.16,6.07,14.69,10.44q3.87,3.54,7.69,3.75c1.2-.39,2.39-.78,3.62-1.19,15.89-4.88,28.09-3.33,42.8,4.15,5.1,2.95,8.78,6.26,12.45,10.85q.34.42,2.08,2.56c1.55,2.26,2.25,3.77,2.67,6.44,1.09-.17,2.19-.33,3.31-.5,14.12-1.69,27.56.47,39.07,9.33,7.46,6.81,13.39,16.36,14.56,26.54q.01.6.06,3.62c.62.1,1.23.2,1.87.3,11.14,1.97,20.96,6.17,28.14,15.25,7.52,11.18,9.34,22.19,7.98,35.45-.63,2.53-1.41,4.82-2.38,7.23-1.04,2.96-.6,4.83.38,7.77,1.57,3.06,3.28,6.02,5,9,4.11,8.23,3.4,17.35,1,26-4.73,11.64-11.98,18.49-23.17,23.87-2.63,1.05-5.04,1.69-7.83,2.13q-.03.47-.19,2.88c-1.53,10.26-8.39,19-16.46,25.14-9.86,6.58-19.27,9.18-31.11,9.11-.7,0-1.41,0-2.13.01-4.04,0-7.73-.4-11.68-1.2q-2.35-.28-4.44.06c-2.11,1.93-3.52,4-5.11,6.38-7,9.67-18.06,15.61-29.58,17.93-7.36,1.08-13.48.76-20.75-.69-.66-.13-1.32-.26-2-.39-2.78-.56-5.4-1.17-8.04-2.23-2.49-.98-3.85-1.35-6.52-1-3.76,2.23-7.13,4.77-10.57,7.45-9.63,7.41-22.53,9.56-34.43,8.55-8.21-1.21-15.09-3.69-22.34-7.7-2.75-1.35-4.59-2.17-7.66-2.3q-3.2,1.36-6.69,3.31c-12.67,6.72-27.48,7.91-41.31,3.69-7.7-3.14-13.94-6.47-19.56-12.74q-1.44-1.26-4.44-1.38-3,1.12-6.06,2.56c-10.94,4.8-21.8,3.8-32.94.56-8.39-3.37-16.22-8.97-21.69-16.24-3.6-2.73-7.01-2.01-11.38-1.76-10.47.3-18.74-1.44-27.08-8.15-4-3.99-7.33-8.8-9.86-13.85q-1.79-.44-4.12-.71c-.85-.11-1.7-.22-2.57-.33-.91-.11-1.81-.22-2.75-.34-14.32-2-23.12-5.86-32.71-17.16-1.59-2.12-2.87-4.1-4.04-6.46q-.16-.32-.98-1.94c-1.94-4.81-2.02-9.63-2.02-14.75,0-.71,0-1.42-.02-2.15.02-4.12.44-7.67,1.58-11.66q.94-3.93-.44-6.43c-1.07-1.29-2.16-2.57-3.26-3.83-5.11-6.85-6.52-15.95-5.41-24.27,2.25-9.18,7.13-17.27,14.73-22.98q2.75-1.21,5-2c-.04-1.11-.08-2.23-.12-3.38.05-9.39,2.17-19.48,8.88-26.45,6.28-5.05,15.29-9.38,23.43-9.24,1.26.02,2.52.04,3.81.06.23-1.3.45-2.6.69-3.94,2.07-9.13,7.01-16.25,14.31-22.06,7.19-4.38,14.44-7.11,22.88-7.69,1.23-.09,2.46-.18,3.72-.27,2.96-.04,4.93.26,7.71,1.08q3.69-.12,5.85-2.26c1.55-1.95,3.06-3.93,4.55-5.93,6.59-8.44,16.01-13.46,26.29-15.93,2.92-.29,5.81-.33,8.75-.31.79,0,1.58,0,2.39,0,5.5.09,10.38.84,15.6,2.65,2.66.77,4.5,1.05,7.26.66q2.32-1.79,4.69-4.19c16.97-16.06,40.74-15.09,60-3.67ZM202.38,106.69c-5.3,4.2-9.62,5.59-16.38,5.06-2.97-.37-5.45-.89-8.31-1.81-9.27-2.36-18.33-1.7-26.69,3.06-4.88,3.35-8.49,7.69-12.3,12.17-3.09,3.34-6.36,5.39-10.7,6.83-3.47.03-6.93-.03-10.4-.13-8.45-.13-16.01,1.56-22.6,7.13-3.33,3.97-5.2,8.38-7,13.19-1.94,5.07-4.25,8.54-9.32,10.88-2.73.95-5.26,1.41-8.12,1.8-6.05,1.05-9.63,3.09-13.88,7.56-2.64,4.01-2.71,7.21-2.56,11.88,0,4.76-.34,8.7-3.12,12.69-2.66,2.23-5.39,4.16-8.31,6.04-3.35,2.43-6.19,4.88-7.19,9.02.14,4.47.58,7.36,3.5,10.94,1.75,1.55,3.53,3.04,5.38,4.47,2.68,2.53,3.52,4.86,4.06,8.46-.07,3.83-1.49,6.93-2.94,10.44-2.16,5.35-3.73,9.87-2.5,15.62,2.93,6.23,8.2,10.4,14.47,13.04,6.52,2.04,12.57,2.14,19.36,1.77,3.71.22,5.3.83,8.16,3.19q1.77,2.93,3.38,6.31c3.61,7.01,6.74,11.16,14.12,14.06,4.42.79,8.46,1.05,12.88.12,5.4-1.03,9.93-1.33,14.94,1.12,2.89,2.56,4.57,5.16,6.69,8.38,5.51,5.99,11.97,8.87,20.06,9.56,5.34-.14,10.16-2.34,15-4.43,4.62-1.93,8.93-3.3,13.94-2.14,2.91,1.59,5.35,3.61,7.88,5.75,5.73,4.58,10.94,8.29,18.12,10.25.66.18,1.32.37,2,.55,11.33,2.52,21.67-2.57,31.44-7.93,5.4-2.46,9.21-2.41,14.94-.5,3.87,1.85,7.48,4.17,11.1,6.47,8.03,4.46,17.38,4.63,26.27,2.86,6.01-2.09,10.79-5.89,15.62-9.92,4.93-4.06,9.73-6.05,16.19-5.93,3.26.53,6.12,1.66,9.2,2.84,10.18,3.82,19.1,4.98,29.25.56,7.48-3.6,12.71-9.17,16.94-16.25,2.77-3.7,5.71-5.3,10.06-6.75,4.18-.46,7.74.12,11.81,1,7.92,1.68,15.5,1.68,23.19-1,.68-.23,1.36-.47,2.06-.71,5.97-2.47,9.44-6.36,11.94-12.29.65-3.6,1.05-7.11,1.29-10.77.93-4.23,2.28-5.62,5.71-8.23,2.6-1.13,5.25-1.86,8-2.56,5.95-1.55,10.37-3.13,14.36-8.15,2.26-3.96,3.41-6.77,2.64-11.29q-1.62-2.81-4-6-7.59-10.51-6.74-16.98c.85-4.4,2.27-8.32,3.99-12.46,2.15-5.72,1.85-9.87-.25-15.56-4.27-8.89-13.43-12.45-22.2-15.73-6.5-2.96-9.26-6.87-11.8-13.27-.61-2-1.22-4-1.81-6-2.44-7.53-6.3-12.73-13.38-16.44-4.08-1.85-7.82-2.67-12.3-2.74-.85-.02-1.71-.05-2.59-.07-1.77-.04-3.54-.07-5.31-.09-7.45-.24-12.86-1.81-18.12-7.24-.68-.92-1.36-1.84-2.06-2.79-6.02-7.74-11.32-12.62-20.88-15.31-5.04-.61-9.26-.68-14.12.69-8.04,2.17-17.33,2.49-24.94-1.12-2.96-1.71-5.35-3.59-7.81-5.94-5.5-4.97-12.85-6.8-20.14-7.06-6.37.36-11.76,1.54-17.55,4.12-6.92,2.92-13.44,5.62-21,4-3.17-1.35-6.24-2.81-9.32-4.35-15.41-7.59-28.38-4.46-41.3,6.04Z"/>
  <path d="M256.65,92c-127.94,0-231.65,55.62-231.65,124.24s103.71,124.24,231.65,124.24,231.65-55.62,231.65-124.24-103.71-124.24-231.65-124.24ZM378,151c-6.01,1.42-12.02,2.81-18.07,4.03-27.13,5.53-52.58,14.56-77.66,26.18-.79.36-1.58.73-2.4,1.11-.7.33-1.4.65-2.12.99q-1.75.7-3.75.7v2c.72.27,1.44.53,2.18.8,4.97,2.11,9.32,5.24,13.82,8.2q.48.31,2.93,1.89c26.78,17.49,59.02,42.28,74.07,71.11q-.31,2.81-1,5c-3.94-1.39-6.88-3.21-10.19-5.75-.51-.39-1.01-.77-1.53-1.17-1.77-1.35-3.52-2.72-5.28-4.08-1.42-1.1-2.84-2.19-4.26-3.29-6.52-5.05-13.02-10.12-19.43-15.31-14.52-11.76-29.84-22.39-45.52-32.54-2.96-1.97-5.83-4.05-8.71-6.14q-13.95-9.8-19.33-9.67c-4.36,1.21-7.66,3.76-11.1,6.63-2.5,1.99-5.27,3.35-8.1,4.82-21.32,12.28-41.68,26.84-60.9,42.18-4.83,3.85-9.72,7.61-14.66,11.32-.58.44-1.15.87-1.75,1.32-1.74,1.31-3.49,2.59-5.25,3.86q-.52.38-3.12,2.29-2.88,1.52-5.75,1.26c-.7-.24-1.4-.49-2.12-.74,2.07-18.07,22.45-34.72,35.69-45.36,17.45-13.75,36.28-25.49,55.51-36.56q1.8-1.08,2.8-2.08c-26.4-13.23-54.18-24.33-83.37-29.49q-2.63-.51-4.63-1.51v-3c27.91-4.78,55.15,2.59,81.25,11.88.93.32,1.86.65,2.81.98,4.37,1.59,8.29,3.23,12.15,5.82,5.17,3.36,9.43,6.01,15.76,4.72,7.14-2.34,13.86-5.6,20.63-8.83,5.06-2.32,10.24-4.15,15.53-5.87.97-.32,1.95-.64,2.95-.97q62.09-19.75,81.92-8.72v2Z"/>
  <path d="M62,314c3.31,1.24,6.17,2.65,9.12,4.56,11.83,7.22,24.85,12.79,37.88,17.44.63.23,1.26.46,1.91.69,4.29,1.55,8.59,3.06,12.89,4.54,2.13.74,4.25,1.5,6.37,2.27,28.7,10.19,59.95,15.18,90.27,17.31,1.78.13,3.57.28,5.35.45,10.15.91,20.28.94,30.46.93.93,0,1.85,0,2.81,0,14.74-.01,29.29-.52,43.94-2.19,1.24-.13,2.49-.27,3.77-.4,46.88-5.14,99.11-16.2,139.9-41.24q2.33-1.36,4.33-1.36c-1.53,5.18-3.78,9.7-6.31,14.44-.43.81-.87,1.63-1.31,2.47-1.45,2.7-2.91,5.4-4.37,8.09-.53.97-1.05,1.94-1.6,2.94q-12.34,22.58-20.4,32.06c-.42.49-.84.99-1.27,1.5-9.99,11.66-21.1,20.42-34.73,27.5-.63.33-1.26.67-1.91,1.01-12.18,6.37-24.87,10.36-38.09,13.99q-.35.1-2.15.61c-20.54,5.73-43.54,9.16-64.85,9.39-1.02.02-2.04.04-3.09.06-48.12.83-97.13-4.54-139.91-28.06-1.14-.63-2.28-1.25-3.45-1.89-8.19-4.76-14.9-10.43-21.55-17.11l-2.59-2.59c-13.75-14.45-22.96-32.01-32.41-49.41-.46-.84-.91-1.67-1.38-2.54q-6.35-11.67-7.62-15.46Z"/>
</svg>