<?xml version="1.0" encoding="UTF-8"?>
<!-- Generator: visioncortex VTracer 0.6.12 -->
<svg version="1.1" xmlns="http://www.w3.org/2000/svg" width="512" height="512">
  <metadata>
                <![CDATA[
            {
  "prompt": {
    "32": {
      "inputs": {
        "filename_prefix": [
          "35",
          0
        ],
        "svg": [
          "34",
          0
        ]
      },
      "class_type": "SaveSVGNode",
      "_meta": {
        "title": "SaveSVGNode"
      }
    },
    "33": {
      "inputs": {
        "mode": "spline",
        "filter_speckle": 4,
        "corner_threshold": 60,
        "length_threshold": 4.0,
        "splice_threshold": 45,
        "image": [
          "39",
          0
        ]
      },
      "class_type": "TS_ImageToSVGStringBW_Vtracer",
      "_meta": {
        "title": "Image to SVG String BW_Vtracer"
      }
    },
    "34": {
      "inputs": {
        "SVG_String": [
          "33",
          0
        ]
      },
      "class_type": "TS_SVGStringToSVGBytesIO",
      "_meta": {
        "title": "SVG String to SVG BytesIO"
      }
    },
    "35": {
      "inputs": {
        "value": "Icons/dessert-"
      },
      "class_type": "PrimitiveString",
      "_meta": {
        "title": "String"
      }
    },
    "39": {
      "inputs": {
        "image": "dessert-_00019_.png"
      },
      "class_type": "LoadImage",
      "_meta": {
        "title": "Load Image"
      },
      "is_changed": [
        "38f31cb3c358f1ce0870fdefd5dc1de0bd1a01c27ac7ea9c9d4c8db31197c431"
      ]
    }
  },
  "workflow": {
    "id": "ffc75dbf-0481-4313-853d-f0e2b2f0378d",
    "revision": 0,
    "last_node_id": 39,
    "last_link_id": 51,
    "nodes": [
      {
        "id": 32,
        "type": "SaveSVGNode",
        "pos": [
          -3794.3422054720877,
          -769.3913161360373
        ],
        "size": [
          270,
          344
        ],
        "flags": {},
        "order": 4,
        "mode": 0,
        "inputs": [
          {
            "name": "svg",
            "type": "SVG",
            "link": 42
          },
          {
            "name": "filename_prefix",
            "type": "STRING",
            "widget": {
              "name": "filename_prefix"
            },
            "link": 44
          }
        ],
        "outputs": [],
        "properties": {
          "cnr_id": "comfy-core",
          "ver": "0.17.2",
          "Node name for S&R": "SaveSVGNode"
        },
        "widgets_values": [
          "Icons/apps-"
        ]
      },
      {
        "id": 33,
        "type": "TS_ImageToSVGStringBW_Vtracer",
        "pos": [
          -4477.5666671420095,
          -847.343527805959
        ],
        "size": [
          314.01666259765625,
          234.66665649414062
        ],
        "flags": {},
        "order": 2,
        "mode": 0,
        "inputs": [
          {
            "name": "image",
            "type": "IMAGE",
            "link": 51
          }
        ],
        "outputs": [
          {
            "name": "STRING",
            "shape": 6,
            "type": "STRING",
            "links": [
              41
            ]
          }
        ],
        "properties": {
          "cnr_id": "comfyui-tosvg",
          "ver": "1.0.1",
          "Node name for S&R": "TS_ImageToSVGStringBW_Vtracer"
        },
        "widgets_values": [
          "spline",
          4,
          60,
          4,
          45
        ]
      },
      {
        "id": 34,
        "type": "TS_SVGStringToSVGBytesIO",
        "pos": [
          -4063.448243802166,
          -778.4199219709982
        ],
        "size": [
          225,
          72
        ],
        "flags": {},
        "order": 3,
        "mode": 0,
        "inputs": [
          {
            "name": "SVG_String",
            "type": "STRING",
            "link": 41
          }
        ],
        "outputs": [
          {
            "name": "SVG",
            "type": "SVG",
            "links": [
              42
            ]
          }
        ],
        "properties": {
          "cnr_id": "comfyui-tosvg",
          "ver": "1.0.1",
          "Node name for S&R": "TS_SVGStringToSVGBytesIO"
        },
        "widgets_values": []
      },
      {
        "id": 35,
        "type": "PrimitiveString",
        "pos": [
          -4443.914561307049,
          -543.3653138472193
        ],
        "size": [
          270,
          108
        ],
        "flags": {},
        "order": 0,
        "mode": 0,
        "inputs": [],
        "outputs": [
          {
            "name": "STRING",
            "type": "STRING",
            "links": [
              44
            ]
          }
        ],
        "properties": {
          "cnr_id": "comfy-core",
          "ver": "0.17.2",
          "Node name for S&R": "PrimitiveString"
        },
        "widgets_values": [
          "Icons/dessert-"
        ]
      },
      {
        "id": 39,
        "type": "LoadImage",
        "pos": [
          -4951.757252972162,
          -904.6317954209197
        ],
        "size": [
          282.8333435058594,
          364
        ],
        "flags": {},
        "order": 1,
        "mode": 0,
        "inputs": [],
        "outputs": [
          {
            "name": "IMAGE",
            "type": "IMAGE",
            "links": [
              51
            ]
          },
          {
            "name": "MASK",
            "type": "MASK",
            "links": null
          }
        ],
        "properties": {
          "cnr_id": "comfy-core",
          "ver": "0.17.2",
          "Node name for S&R": "LoadImage"
        },
        "widgets_values": [
          "dessert-_00019_.png",
          "image"
        ]
      }
    ],
    "links": [
      [
        41,
        33,
        0,
        34,
        0,
        "STRING"
      ],
      [
        42,
        34,
        0,
        32,
        0,
        "SVG"
      ],
      [
        44,
        35,
        0,
        32,
        1,
        "STRING"
      ],
      [
        51,
        39,
        0,
        33,
        0,
        "IMAGE"
      ]
    ],
    "groups": [],
    "config": {},
    "extra": {
      "ds": {
        "scale": 1.1,
        "offset": [
          5166.315798426707,
          952.7782123132315
        ]
      },
      "workflowRendererVersion": "Vue",
      "frontendVersion": "1.41.20",
      "VHS_latentpreview": false,
      "VHS_latentpreviewrate": 0,
      "VHS_MetadataImage": true,
      "VHS_KeepIntermediate": true
    },
    "version": 0.4
  }
}
                ]]>
            </metadata>
            
<path d="M0 0 C5.281721736158204 1.5258307237790518 9.958036444037987 -0.22519580831860253 15.0625 -1.75 C25.319065287517674 -4.554856629647674 32.99456389760144 -3.203249242393184 42.74609375 0.62109375 C48.933568926185444 3.025144614632552 48.933568926185444 3.025144614632552 53.6875 1.875 C64.25368358886101 -0.6060578870396114 72.87387831371541 -0.02456275794563112 82.38671875 5.3046875 C84.21581725236314 6.441615071517191 86.02055540289956 7.617870268599688 87.8125 8.8125 C89.88316491832074 8.608828040820924 91.95339627366195 8.393499192091042 94.015625 8.1171875 C107.77599172069483 6.618153136572346 116.89064402509888 8.415809974183162 127.8125 16.8125 C128.1025390625 17.173437500000006 128.1025390625 17.173437500000006 129.5703125 19 C132.84453752622034 21.646760299941207 135.94481785945823 21.116069245956936 139.9375 20.875 C150.12189661403835 20.597704743107556 157.27656115238148 21.729696243343966 165.0234375 28.80078125 C166.81249999999994 30.812499999999943 166.81249999999994 30.812499999999943 168.5625 33.9765625 C170.8125 36.8125 170.8125 36.8125 174.3515625 37.66015625 C175.71229760686856 37.75243771030176 177.07462572504681 37.823138553328505 178.4375 37.875 C187.48620188485006 38.63391678518806 194.25588934829221 40.83073698631671 200.75 47.5 C203.24877969236854 50.55023452102921 204.24403288850613 52.979247556960246 205.0625 56.8125 C206.47998428166756 62.69009405965346 210.1747624266722 64.82338840638894 215.12109375 67.92578125 C220.93057799231764 71.99832245325024 223.30485440017713 77.0776160066307 224.8125 83.8125 C225.4377604516784 89.3917471072844 224.65191979748664 94.38869955019504 223.15234375 99.76953125 C222.7623391333388 102.11404176165308 223.14635383684174 103.55122833050359 223.8125 105.8125 C224.20258333208113 111.07862498309561 223.80805674514477 114.41277603056864 220.8125 118.8125 C216.58160690858006 122.80990009520474 212.7947105255813 125.51338947372096 206.8125 125.8125 C206.64234375 126.46476562500004 206.47218750000002 127.11703124999997 206.296875 127.7890625 C203.70382649975033 137.14058847430454 199.98944340480045 142.55705932865123 191.8125 147.8125 C188.2950625592963 149.57121872035185 186.84787741778013 149.8125 182.8125 149.8125 C182.47605468749998 151.070625 182.13960937500002 152.32875 181.79296875 153.625 C179.46670256736593 161.36742366695296 176.2796935704032 168.77956403110647 173.189697265625 176.24072265625 C172.13980819949342 178.77673077884344 171.09761736691178 181.31579130669093 170.056640625 183.85546875 C166.63034292909333 192.18814665303705 163.12828234067177 200.48529522707724 159.49609375 208.73046875 C159.1739338684082 209.46720825195314 158.8517739868164 210.20394775390628 158.5198516845703 210.9630126953125 C156.13973642163484 216.31534038069583 153.37769785039325 221.14948207982104 149.8125 225.8125 C149.235 226.67875000000004 148.65750000000003 227.54499999999996 148.0625 228.4375 C119.88448835893422 258.1809567322361 60.549129171704635 261.7780913809892 22.445556640625 262.8810119628906 C16.276453853773262 263.0202144971212 10.108027217307097 263.05854251295403 3.9375 263.0625 C2.980844421386678 263.0631747436523 2.024188842773441 263.0638494873047 1.038543701171875 263.0645446777344 C-42.64379514402674 263.01607870176576 -101.47632164518939 261.726636625652 -136.1875 231.8125 C-137.12078125 231.02488281249998 -138.0540625 230.23726562499996 -139.015625 229.42578125 C-144.2440333617632 224.64735885379838 -147.9294293209117 220.0776486042016 -150.984375 213.6875 C-151.32021102905273 213.000107421875 -151.65604705810546 212.31271484374997 -152.00205993652344 211.6044921875 C-156.23683058506597 202.81471476757292 -159.98522627801145 193.81052189463298 -163.75 184.8125 C-164.8317357050106 182.23988097229773 -165.91500599758055 179.66791406802326 -166.99887084960938 177.09619140625 C-167.70434435818888 175.4218186731576 -168.4088103025282 173.7470210204225 -169.11221313476563 172.07177734375 C-171.70883118810482 165.9005991601913 -174.37935914037382 159.764214701806 -177.12806701660156 153.6591796875 C-179.1875 149.02879864836746 -179.1875 149.02879864836746 -179.1875 146.8125 C-180.198125 146.73000000000002 -181.20875 146.64750000000004 -182.25 146.5625 C-190.12406484510245 145.3608354854864 -194.49738890413406 140.76814648645893 -199.5859375 135.03125 C-201.14360314596615 132.8733132026615 -201.77387659002324 131.41241857699686 -202.1875 128.8125 C-203.05375 128.8125 -203.92000000000002 128.8125 -204.8125 128.8125 C-209.70317335581282 127.36341159827771 -211.63597645482625 124.0844319290531 -214.1875 119.8125 C-215.52307119914414 115.8057864025676 -215.51307904213002 111.92454507897548 -215.7109375 107.72265625 C-216.23665322883062 104.51234298787858 -217.17165590370354 103.28837005673333 -219.1875 100.8125 C-221.77136345061308 93.35140317219418 -220.92127722215912 85.46838918130743 -217.625 78.4375 C-214.57937690177465 72.93665828121948 -211.02751152701256 68.35416208635127 -205.06640625 65.9609375 C-203.1875 64.8125 -203.1875 64.8125 -202.31640625 62.640625 C-202.1294921875 61.78984374999999 -201.942578125 60.939062500000006 -201.75 60.0625 C-200.0733187265059 53.80649567846828 -197.56874899000726 50.79687415833939 -192.5625 46.625 C-187.09869691985554 43.69073538288538 -181.0874613382348 41.92193250332963 -174.875 41.6875 C-170.92293332372302 40.4007806170261 -169.91928434565088 37.618925399516684 -167.8125 34.16796875 C-163.67647802557707 28.172725359189826 -157.19960723356874 24.52320468722388 -150.1875 22.8125 C-145.68198332218486 22.562290049515866 -141.198127841906 22.88268342194789 -136.701171875 23.193359375 C-130.00592616296257 23.439189131165506 -130.00592616296257 23.439189131165506 -127.58056640625 21.58203125 C-126.35248654823039 20.06590655771936 -125.26565150555051 18.438662215554075 -124.1875 16.8125 C-117.15202427437515 10.385354882229905 -110.08406158066674 10.139849359671729 -101.04296875 10.50390625 C-97.1875 10.8125 -97.1875 10.8125 -94.50390625 11.546875 C-91.09563986416691 11.937704872237191 -89.66001549005367 10.48616261628186 -86.9375 8.5 C-79.64155652840904 3.629543743931265 -74.68411740741806 2.222322555644979 -66 3.6875 C-65.03707031249999 3.8911718749999977 -64.07414062500001 4.0948437499999955 -63.08203125 4.3046875 C-57.673708862019566 5.253515989119364 -54.07129860888571 5.141177988127168 -49.25 2.4375 C-42.6862007742192 -1.2126127401902806 -37.31296920682766 -2.5051612133229355 -29.8125 -1.6875 C-25.37315479473679 -1.2990027303162037 -21.673662058223215 -1.0316626252094636 -17.375 -2.25 C-11.347127883904506 -3.9446281986759004 -5.722863974971915 -2.1320473632248422 0 0 Z M13.25 10.4375 C7.893778253830874 12.579988698467645 3.921294128442696 12.31650318373508 -1.375 10.3125 C-7.1427968085995985 8.211515595492926 -14.09753616109137 7.66458915124187 -20.06640625 9.33984375 C-22.64873885038665 9.915280664634963 -25.09088339977191 9.79270340558017 -27.722412109375 9.69677734375 C-35.16120635608934 9.44131588965189 -41.65426371844032 9.7533010404822 -48.1875 13.8125 C-48.51750000000001 14.472499999999997 -48.8475 15.132499999999993 -49.1875 15.8125 C-48.534912109375 15.852138671874997 -47.88232421875 15.891777343749993 -47.2099609375 15.9326171875 C-17.17096489774721 17.83701588564196 11.464620780909797 24.628805910931305 39.8125 34.8125 C31.8125 38.14583333333334 23.8125 41.47916666666666 15.8125 44.8125 C15.8125 45.4725 15.8125 46.13249999999999 15.8125 46.8125 C19.22703113660998 48.2966315927722 22.64447570734461 49.77393315277857 26.0625 51.25 C27.030585937500007 51.67087890625001 27.998671875000014 52.09175781249999 28.99609375 52.525390625 C29.9306640625 52.92822265625 30.865234375 53.3310546875 31.828125 53.74609375 C32.68696289062501 54.11790771484374 33.54580078125002 54.489721679687506 34.4306640625 54.872802734375 C39.976268428164076 57.06069031160345 39.976268428164076 57.06069031160345 42.892822265625 56.195068359375 C43.63072998046874 55.850969238281266 44.368637695312486 55.5068701171875 45.12890625 55.15234375 C45.96566894531247 54.77360107421876 46.802431640625 54.39485839843749 47.66455078125 54.004638671875 C48.55899902343748 53.59060791015625 49.453447265625016 53.1765771484375 50.375 52.75 C73.24162999061764 42.588150184621924 95.79773902363235 37.310306188584434 120.8125 36.8125 C113.8810928364768 29.476855495064854 101.99270471743841 27.068604448487093 92.23046875 26.6640625 C86.60741683225626 26.608880439963258 81.05934584140505 26.65665073129776 75.4609375 27.21875 C74.73592041015627 27.284733886718755 74.01090332031248 27.35071777343751 73.263916015625 27.418701171875 C71.25257107959231 27.612695746803382 69.24513327092745 27.846049655579378 67.23828125 28.08203125 C62.17481728122266 28.166035064519065 57.95888596617556 26.0735139586927 53.346923828125 24.173095703125 C47.381935471861425 21.87684094665218 41.2087982679879 20.477974574565707 35 19 C33.72318359374998 18.68869140625 32.446367187500016 18.377382812500002 31.130859375 18.056640625 C28.026512952565895 17.30090085923888 24.92051193888051 16.552991949085765 21.8125 15.8125 C21.8125 15.152500000000003 21.8125 14.492500000000007 21.8125 13.8125 C28.412500000000023 13.8125 35.01249999999999 13.8125 41.8125 13.8125 C37.29697204968943 9.29697204968943 37.29697204968943 9.29697204968943 32.75 8.0625 C31.89277343750001 7.820156249999997 31.035546875000023 7.577812499999993 30.15234375 7.328125 C24.224381428826632 6.0217960744659536 18.615309634387643 7.990165780805626 13.25 10.4375 Z M54.375 12.3125 C53.138789062499995 12.590937499999995 51.90257812499999 12.869374999999991 50.62890625 13.15625 C49.69949218750003 13.372812500000009 48.770078125 13.58937499999999 47.8125 13.8125 C47.8125 14.142499999999984 47.8125 14.472499999999997 47.8125 14.8125 C51.72544327380626 15.410416633872416 55.63977664858146 15.998085865094254 59.5556640625 16.576416015625 C61.54052233124651 16.87173008651027 63.52417977123025 17.175078737282263 65.5078125 17.478515625 C66.75820312500002 17.662207031250006 68.00859374999999 17.84589843750001 69.296875 18.03515625 C70.448974609375 18.207971191406244 71.60107421875 18.38078613281249 72.7880859375 18.558837890625 C75.50979315132588 18.787111526011273 77.260524086717 18.69145307742903 79.8125 17.8125 C71.4950496805958 10.462195066573003 65.33333791323003 9.807737048404562 54.375 12.3125 Z M-89.1875 24.8125 C-77.99158523844497 24.772938463740104 -68.59254928527227 21.631188121530897 -58.1875 17.8125 C-70.50460576639426 11.214050482288798 -80.02350911257363 15.36085020579344 -89.1875 24.8125 Z M91.8125 20.8125 C92.91207031250002 20.971054687499986 94.01164062499998 21.129609375 95.14453125 21.29296875 C103.27283994730772 22.547513507607334 110.42207568521326 24.001272759217272 117.80859375 27.82421875 C119.8125 28.8125 119.8125 28.8125 121.8125 28.8125 C120.07796182637804 24.397311921689607 117.01430878372759 22.27346488708511 113.15234375 19.7109375 C109.72841971647858 18.396242128197116 106.36338763397066 18.523471510704184 102.75 18.5625 C102.03005859375003 18.554765625000016 101.3101171875 18.547031250000003 100.568359375 18.5390625 C96.78315636691008 18.553120821292822 95.03389535163632 18.66490309890915 91.8125 20.8125 Z M-115.1875 23.8125 C-116.37497911288722 25.52744076535572 -117.53954258440942 27.258356453170506 -118.6875 29 C-121.14790820300937 32.007165581455865 -122.90281962528485 33.61815644769746 -126.80517578125 34.20849609375 C-131.03040062580894 34.3708729849711 -135.18864679407457 34.26081284134369 -139.40625 33.969482421875 C-146.03981149099187 33.54537813228373 -150.7073147162581 33.803065296681154 -156.1875 37.8125 C-158.17578125 39.77734375 -158.17578125 39.77734375 -159.5 41.75 C-159.72494140625 42.07419921874998 -159.72494140625 42.07419921874998 -160.86328125 43.71484375 C-162.1875 45.8125 -162.1875 45.8125 -163.33984375 48.47265625 C-165.65217346367572 51.40095540114535 -167.5440685192684 51.59354265354375 -171.15234375 52.07421875 C-171.9064453125 52.15285156250002 -172.660546875 52.23148437500001 -173.4375 52.3125 C-179.81064185669126 52.990967108652995 -184.4970343005681 54.20749830580962 -189.1875 58.8125 C-190.45703125 61.09375 -190.45703125 61.09375 -191 63.3125 C-193.33746438345892 72.22310248191053 -193.33746438345892 72.22310248191053 -196.4296875 74.3671875 C-197.298515625 74.802890625 -198.16734375 75.23859375 -199.0625 75.6875 C-204.07300383074178 78.53306070156287 -206.1629792452726 80.38310343050378 -208.1875 85.8125 C-208.8034741202606 90.02286428084005 -208.99063388542697 93.48558314581629 -206.75 97.1875 C-204.60744555134255 100.78699147374454 -204.7312951380015 104.05932106253766 -204.59375 108.19140625 C-204.1151836551207 111.27907949436548 -203.40244066873368 112.62222459483797 -201.1875 114.8125 C-198.99609375000003 115.54296875 -198.99609375000003 115.54296875 -196.625 116 C-194.19921875 116.7109375 -194.19921875 116.7109375 -192.1875 117.8125 C-191.21149712023237 120.06755688202014 -190.94067265412122 122.10145355495575 -190.61328125 124.53125 C-189.89721845088226 128.36776995123637 -188.01550478669293 130.22517647174902 -185.1875 132.8125 C-178.8889563436723 136.519577929378 -173.14456828968483 137.3940839259658 -165.9375 137.4375 C-154.82010970333747 137.6019584363412 -154.82010970333747 137.6019584363412 -151.1875 139.8125 C-150.07421875 141.71484375 -150.07421875 141.71484375 -149.1875 143.8125 C-144.22666919865821 149.89900744755653 -139.22510237580275 152.92285879855194 -131.5 154.625 C-127.96113402439119 154.980940098127 -124.80523851185052 154.50109909303342 -121.3125 153.875 C-107.58565389986083 151.42624102233702 -107.58565389986083 151.42624102233702 -102.66015625 154.2734375 C-100.96093372636318 155.51447213205523 -99.27597516269944 156.7752608831418 -97.60546875 158.0546875 C-90.00088268144452 163.5830618632471 -81.29206564855826 163.59032707621856 -72.1875 162.8125 C-69.03407476494067 162.16006719274634 -65.96329282312055 161.35398797249877 -62.859375 160.5 C-54.73617316172954 158.40981941003565 -49.23033821032209 160.66105063960248 -42.1875 164.8125 C-40.80901426107252 165.72391639515172 -39.43376576652193 166.64025655310388 -38.0625 167.5625 C-32.83024179124047 170.89307400035494 -28.484137649531164 171.19527294158854 -22.4375 170.1875 C-18.870791137669073 169.18545802099544 -15.617455890530692 167.65721377021612 -12.25 166.125 C-3.7786795949177474 162.5564562793591 1.1774310299549597 164.09398867816452 9.5625 167.3125 C10.629843749999964 167.75593749999996 11.697187500000041 168.19937500000003 12.796875 168.65625 C22.084333037669126 172.21724427351046 31.71613410237063 171.66434045596168 40.8125 167.8125 C42.67787824020144 166.81885251665005 44.51447144868564 165.78163858070877 46.35205078125 164.737548828125 C52.88473511348093 161.03027080795357 58.15245702853474 158.22899531850385 65.8125 159.8125 C68.33614717252584 160.52389030532618 70.82133442784033 161.31539879663512 73.3125 162.1328125 C80.93867960023539 164.206180078814 88.6558312749695 162.92737539387622 95.8125 159.8125 C98.78020226752307 158.09045171055573 101.63049959716204 156.2690009941657 104.46484375 154.3359375 C108.75244238554683 151.55363555679992 112.83816871790219 151.41269393433606 117.8125 151.8125 C118.864375 152.14250000000004 119.91624999999999 152.47249999999997 121 152.8125 C129.00857291497607 154.91310928917403 137.41783639077255 154.9841933835637 144.890625 151.15234375 C147.5184545542042 149.3203406258292 149.37242486490845 147.189112887112 151.23046875 144.59375 C154.11191679191472 141.34945294539972 156.79740174950706 139.03444581994597 161.246337890625 138.54443359375 C164.09045593401146 138.52655409100754 166.90921571699602 138.6118406044908 169.75 138.75 C178.19974263266107 139.12868411798547 183.26565944360243 138.60260670506216 190.5625 134.125 C194.4265264058073 130.1536395273647 195.59113184999012 125.47276112507404 196.3125 120.0625 C197.8125 116.8125 197.8125 116.8125 200.27734375 115.62890625 C202.22701019180278 114.97047750421382 204.19704315032493 114.36900830956597 206.18359375 113.83203125 C209.22999298477265 112.65058964483558 210.26508339894968 111.66272439231261 211.8125 108.8125 C211.539373172674 105.1935695379309 210.80957352014838 101.79859922070486 210.0625 98.25 C209.8125 94.8125 209.8125 94.8125 211.375 91.9375 C213.17586197381752 88.02258266561412 212.7945478296823 85.97613534221563 211.66015625 81.9140625 C210.03718472642038 77.89028978255374 207.36684008049866 75.67293825884747 203.625 73.6015625 C198.46069958156988 70.66266785398551 196.37608106180323 68.69695094449202 194.75 62.875 C194.46511718750003 61.837304687499994 194.180234375 60.79960937499999 193.88671875 59.73046875 C192.13466897399553 54.971264449362366 189.10356563383607 52.36820820838767 184.8125 49.8125 C179.9617039330077 48.033874775436175 175.76327442033084 47.75785710065307 170.625 47.5 C165.19306930693068 47.091584158415856 165.19306930693068 47.091584158415856 162 44.75 C161.278125 43.780624999999986 160.55624999999998 42.81125 159.8125 41.8125 C158.66066538242262 40.40440241129886 157.49288746982074 39.009249698084034 156.3125 37.625 C155.7659375 36.950820312500014 155.219375 36.276640625 154.65625 35.58203125 C150.02452774575585 31.13675544243094 144.82167208826195 31.578710818336532 138.7734375 31.67578125 C135.3798992166889 31.832474970205652 132.15233400087834 32.20525745438576 128.8125 32.8125 C132.032045645876 36.56863658685535 135.0597019665945 37.8709759565285 139.6875 39.5 C146.03506735007142 41.84550164652504 151.36383321948938 44.9002465651821 156.94482421875 48.69482421875 C160.83990736669932 51.30382660245809 164.4090223059523 52.971540515212354 168.91015625 54.1953125 C171.939749024609 55.17821939607438 174.2257785205897 56.982867734075654 176.8125 58.8125 C177.47250000000003 58.8125 178.1325 58.8125 178.8125 58.8125 C178.95945312499998 59.658124999999984 179.10640625000002 60.50375 179.2578125 61.375 C180.76677799157954 69.00654961258607 182.7063850144159 73.98785985177386 187.8125 79.8125 C189.67919866456208 83.54589732912422 189.50726464015776 87.75864393449248 188.8125 91.8125 C186.70909749483707 94.68607142243798 183.98470756770155 96.22639621614923 180.8125 97.8125 C180.02626108607308 99.97322227075534 179.33048774252075 102.16740875067887 178.6875 104.375 C178.334296875 105.5725390625 177.98109375 106.770078125 177.6171875 108.00390625 C177.35164062500002 108.93074218750002 177.08609374999997 109.85757812500003 176.8125 110.8125 C175.7503125 110.84988281250003 174.688125 110.887265625 173.59375 110.92578125 C162.12047753549717 111.41559337862884 154.82478822536433 112.03486035337994 146.671875 120.77734375 C146.36507812499997 121.11314453124999 146.36507812499997 121.11314453124999 144.8125 122.8125 C143.48498138268656 124.15162280103124 142.15322824420315 125.48660282044511 140.8125 126.8125 C139.760625 126.3175 138.70875 125.82249999999999 137.625 125.3125 C130.51152472567873 122.67647813416107 122.2124482186361 122.485060551076 115.125 125.3125 C110.6135382129358 127.59311027838726 106.96505925655606 130.8871674860668 103.26953125 134.30078125 C100.8125 135.8125 100.8125 135.8125 97.82421875 135.66796875 C95.05044540682837 134.88008760583062 92.48506700436701 133.88406806989678 89.8125 132.8125 C75.73188208133149 130.0215578492058 62.54140196387499 133.99323202408334 50.8125 141.8125 C48.37455337912945 141.59738706286436 46.27521045282924 141.00361953486424 44.015625 140.0703125 C33.8876736348019 136.072436961106 23.10078986065662 136.62779392683353 13.08203125 140.64453125 C10.8125 141.8125 10.8125 141.8125 8.6875 143.453125 C6.8125 144.8125 6.8125 144.8125 4 144.75 C0.13350021494679254 143.61279418086667 -2.71937871462913 141.8676829839235 -6.1875 139.8125 C-14.955093660966241 137.078139803924 -23.259689490841993 139.39777520555697 -31.76953125 141.9375 C-34.811590731395796 142.71626722723732 -37.08392129793501 143.1494910324484 -40.1875 142.8125 C-42.20086530384907 141.4994356714028 -44.199816063832145 140.16412507659413 -46.1875 138.8125 C-51.17744175521253 137.07819097532246 -55.811953336196694 136.45952361039707 -61.0625 136.5 C-61.76358886718751 136.5012890625 -62.46467773437499 136.502578125 -63.18701171875 136.50390625 C-68.00202576863268 136.59305254113417 -71.91963615957229 137.37082164454648 -76.3671875 139.12109375 C-79.21343456654631 140.20217900918175 -81.20389375485726 140.42278309559737 -84.1875 139.8125 C-85.37723062216776 138.39143286796627 -86.55934281172168 136.96176931255064 -87.66796875 135.4765625 C-92.96470568096612 129.67602282752813 -100.70684931025465 128.09328811052603 -108.234375 127.7265625 C-112.69068394604915 127.85624344816546 -116.85404098955979 128.8389357290734 -121.1875 129.8125 C-124.44112150208909 130.53875479957344 -125.7449588124305 130.50100823751393 -129.1875 129.8125 C-131.06568180449995 127.4325816850781 -132.4198129945467 124.97743940981485 -133.83203125 122.296875 C-136.2796110232818 117.81082100631926 -138.89306322150117 116.21322764412326 -143.6953125 114.7265625 C-148.69496592803506 113.53047316314951 -153.57317170535273 113.59086298280465 -158.6875 113.6875 C-159.6053125 113.69652343749999 -160.523125 113.70554687499998 -161.46875 113.71484375 C-163.7086155579779 113.73817568289559 -165.94791182987345 113.77090764826909 -168.1875 113.8125 C-168.38641845703125 113.14758544921875 -168.5853369140625 112.4826708984375 -168.790283203125 111.797607421875 C-169.30438012805521 110.08801850777098 -169.82724310664685 108.3810576420122 -170.35546875 106.67578125 C-171.1875 103.8125 -171.1875 103.8125 -171.73828125 101.16796875 C-173.20602363858876 94.66796674339261 -175.63349573009765 91.98481990197592 -181.2265625 88.3828125 C-183.1875 86.8125 -183.1875 86.8125 -184.09375 84.76953125 C-184.1875 82.8125 -184.1875 82.8125 -182.0625 80.375 C-181.588125 79.95218750000001 -181.588125 79.95218750000001 -179.1875 77.8125 C-174.41477272727272 73.26704545454544 -174.41477272727272 73.26704545454544 -172.9375 70.3125 C-171.03583665188052 67.59583807411502 -169.96668543211825 67.05699454697873 -167.0625 65.625 C-162.03433557219614 63.05359343594395 -158.9097784013112 59.519460523057376 -155.328125 55.21484375 C-152.13634977626344 51.63283323431028 -148.8628306728299 48.758209971783344 -144.3125 47.125 C-143.69632812499998 46.8942578125 -143.08015625000002 46.663515625 -142.4453125 46.42578125 C-140.1875 45.8125 -140.1875 45.8125 -136.890625 45.5625 C-132.14065899935866 44.60048156949037 -129.52523824073205 42.48528771519105 -125.8125 39.5 C-115.15908467870514 31.37835884790553 -105.15480001432434 28.611412058200898 -92.1875 25.8125 C-92.1875 25.152500000000003 -92.1875 24.492500000000007 -92.1875 23.8125 C-94.12387039992024 23.308143058625433 -96.0616414575006 22.809161263558565 -98 22.3125 C-99.0789453125 22.034062500000005 -100.157890625 21.75562500000001 -101.26953125 21.46875 C-106.40457097922388 20.313881627162488 -110.702280872872 21.071532755644 -115.1875 23.8125 Z M-47.1875 27.8125 C-43.984126987600234 31.015873012399766 -39.84752475744068 31.142872343194966 -35.5 32 C-34.61376953125 32.19013671875001 -33.7275390625 32.380273437499994 -32.814453125 32.576171875 C-24.600541912722008 34.223818017507284 -18.623115351505675 33.17429998770211 -10.75 30.25 C-9.513789062499995 29.794960937500008 -8.277578124999991 29.339921875000016 -7.00390625 28.87109375 C-6.539199218750014 28.696425781250014 -6.539199218750014 28.696425781250014 -4.1875 27.8125 C-17.615764616428493 18.860323589047653 -33.30404929144251 22.9894650143969 -47.1875 27.8125 Z M-119.1875 42.8125 C-119.1875 43.142499999999984 -119.1875 43.4725 -119.1875 43.8125 C-118.78341918945313 43.8171728515625 -118.78341918945313 43.8171728515625 -116.738525390625 43.8408203125 C-48.470163600173635 44.82539053556485 20.4401051946669 69.774235083392 70.8125 116.8125 C71.37839843749998 117.402890625 71.94429687499996 117.99328125 72.52734375 118.6015625 C77.0280782246146 123.06928425230689 81.65732664150687 124.041398890805 87.82421875 125.171875 C90.8125 125.8125 90.8125 125.8125 92.95703125 126.953125 C94.8125 127.8125 94.8125 127.8125 96.84765625 127.62109375 C99.11249461854004 126.6890429701038 100.47311835544895 125.55339397834041 102.25 123.875 C104.96006803441111 121.43944316735036 107.27217294725881 119.8853263796185 110.8125 118.8125 C107.08457205809458 107.58905736639116 93.94928839579563 99.69338043087848 84.8125 92.8125 C84.20744628906249 92.351982421875 83.60239257812498 91.89146484374999 82.97900390625 91.4169921875 C73.604254721139 84.2954765701705 63.929083568498015 77.83191676578116 53.8125 71.8125 C53.17763671875002 71.433837890625 52.54277343749999 71.05517578125 51.888671875 70.6650390625 C6.879969314301206 44.05220108686629 -69.77521973772096 11.756401606213387 -119.1875 42.8125 Z M86.9375 45.6875 C86.58365234374997 45.774511718750006 86.58365234374997 45.774511718750006 84.79296875 46.21484375 C81.00073614049597 47.168198316635085 77.40917601672209 48.246888086838624 73.8125 49.8125 C76.96838464170838 52.460735637680216 80.39962050971565 54.18816087697232 84.056640625 56.021728515625 C106.79839677955204 67.45396025159135 131.85274623408924 84.94387797545363 146.8125 105.8125 C149.60568091781846 105.30464892403302 152.22903503392257 104.67920878914478 154.9375 103.8125 C159.78177535969604 102.37318093525661 164.79358043654037 102.15738054866449 169.8125 101.8125 C168.35838555811154 90.83878301188159 156.71397576091385 82.73946041706782 148.8125 75.8125 C151.84019314831858 74.9513848434438 154.6551663681027 74.63019106965416 157.796875 74.49609375 C158.7314453125 74.45419921875 159.666015625 74.41230468750001 160.62890625 74.369140625 C161.5969921875 74.32982421874999 162.565078125 74.29050781249998 163.5625 74.25 C164.54605468750003 74.20681640625 165.529609375 74.1636328125 166.54296875 74.119140625 C168.96601275421466 74.0132794791848 171.3891553990502 73.91119829372647 173.8125 73.8125 C173.36676724398296 72.37009070070621 172.91185528417827 70.9305159752981 172.453125 69.4921875 C172.200791015625 68.69022949218748 171.94845703124997 67.888271484375 171.6884765625 67.06201171875 C169.84625280955527 62.33117290614331 166.72116928873896 60.26683464436948 162.3125 58.0625 C156.5011222308773 55.98700793959904 151.3554200054868 55.65877011395514 145.25 55.6875 C144.44280517578125 55.68145751953125 143.6356103515625 55.6754150390625 142.803955078125 55.669189453125 C138.3393354597917 55.66696004155088 134.37855881094816 56.0698726225298 130 57 C121.1061342436667 58.00212571902347 112.48799985571873 51.396454460668565 105.117431640625 47.065185546875 C98.39117168273623 43.4095939947166 94.21161305067665 43.839482089828095 86.9375 45.6875 Z M-99.48046875 52.1484375 C-99.87782226562501 52.39207031250001 -99.87782226562501 52.39207031250001 -101.888671875 53.625 C-102.298916015625 53.8828125 -102.298916015625 53.8828125 -104.375 55.1875 C-105.20708984375 55.695390625000016 -106.0391796875 56.20328125 -106.896484375 56.7265625 C-113.05038462957498 60.538269259149956 -113.05038462957498 60.538269259149956 -114.1875 62.8125 C-111.14669579040776 63.31829713585296 -108.10503353790915 63.81730759133737 -105.0625 64.3125 C-104.20656250000002 64.45558593750002 -103.35062500000001 64.59867187500001 -102.46875 64.74609375 C-93.57701806188058 66.18245044769623 -88.94407916706626 66.29405828004019 -81.5 61 C-80.83677734374999 60.54818359375 -80.1735546875 60.09636718749999 -79.490234375 59.630859375 C-76.45890153841708 57.53975867705509 -73.74315859136482 55.47748640541903 -71.1875 52.8125 C-74.43676664976113 52.30765526433464 -77.68702099400645 51.809474062899824 -80.9375 51.3125 C-81.85789062500001 51.16941406250001 -82.77828124999999 51.02632812499999 -83.7265625 50.87890625 C-84.61601562499999 50.743554687499994 -85.50546875 50.60820312499999 -86.421875 50.46875 C-87.23881835937499 50.34306640624999 -88.05576171875 50.217382812500006 -88.8974609375 50.087890625 C-93.3227619553067 49.55572222968166 -95.75314463947592 49.850313489055 -99.48046875 52.1484375 Z M-43.4375 67.5625 C-44.132062988281234 67.96227050781249 -44.8266259765625 68.36204101562498 -45.542236328125 68.77392578125 C-62.18252696633638 78.54830319565565 -76.9369874516313 90.45782147236659 -90.625 104 C-91.28765869140625 104.653232421875 -91.9503173828125 105.30646484375 -92.633056640625 105.9794921875 C-96.9276733260952 110.3029683486048 -100.66211375268006 114.8430787047925 -104.1875 119.8125 C-103.19749999999999 120.080625 -102.20749999999998 120.34875 -101.1875 120.625 C-99.8535516689875 121.01875583264825 -98.52024861907725 121.4147024083743 -97.1875 121.8125 C-96.55070312499998 121.9839453125 -95.91390625 122.155390625 -95.2578125 122.33203125 C-88.9832880794387 124.28494547728315 -84.83122625449292 128.28701677513538 -80.1875 132.8125 C-76.7135049276688 129.38822220956263 -73.39365809626457 125.873625491334 -70.125 122.25 C-68.15424839091321 120.09631930043798 -66.17355282921599 117.95207354693423 -64.1875 115.8125 C-63.71924804687501 115.30734863281248 -63.25099609374999 114.80219726562501 -62.7685546875 114.28173828125 C-50.10419173098768 100.756904670898 -35.49104307998945 91.1031457040954 -19.528564453125 81.799560546875 C-18.491755371093745 81.19410400390626 -17.45494628906249 80.5886474609375 -16.38671875 79.96484375 C-15.456901855468743 79.42851318359374 -14.527084960937486 78.8921826171875 -13.569091796875 78.339599609375 C-11.4553835677699 76.98426952500265 -9.860910734520473 75.66809798257549 -8.1875 73.8125 C-32.272351318442816 61.036111603083384 -32.272351318442816 61.036111603083384 -43.4375 67.5625 Z M-166.328125 76.29296875 C-168.32563127110907 78.76889872590269 -170.27575986363803 81.2699826612851 -172.1875 83.8125 C-171.85750000000002 84.4725 -171.5275 85.1325 -171.1875 85.8125 C-169.9203515625 85.64878906249999 -168.653203125 85.485078125 -167.34765625 85.31640625 C-162.09439827197406 84.73271091910823 -156.9049991476174 84.69964050702933 -151.625 84.75 C-150.71169921875 84.75451171875 -149.7983984375 84.75902343749999 -148.857421875 84.763671875 C-146.63404261841254 84.77531260409208 -144.41080878675695 84.79166148938151 -142.1875 84.8125 C-143.87475509495283 88.39029393628553 -145.92491264549602 90.90403151961476 -148.625 93.8125 C-156.1875 101.98548187808896 -156.1875 101.98548187808896 -156.1875 104.8125 C-154.16674242618336 105.12548951895207 -152.14589005755587 105.43786703733355 -150.125 105.75 C-148.9996484375 105.92402343750001 -147.874296875 106.098046875 -146.71484375 106.27734375 C-145.5508203125 106.4539453125 -144.38679687500002 106.630546875 -143.1875 106.8125 C-142.004140625 107.124453125 -140.82078124999998 107.43640625 -139.6015625 107.7578125 C-136.1875 107.8125 -136.1875 107.8125 -133.30859375 105.27734375 C-132.39005352456448 104.12022164782798 -131.49600435754354 102.94331434007066 -130.625 101.75 C-129.73075428802812 100.59021407661288 -128.83361511390774 99.43265337342424 -127.93359375 98.27734375 C-127.48749755859376 97.704677734375 -127.04140136718749 97.13201171875 -126.581787109375 96.5419921875 C-120.58202040388736 89.09980214343165 -120.58202040388736 89.09980214343165 -116.72265625 88.3046875 C-115.9066796875 88.43101562499999 -115.090703125 88.55734375 -114.25 88.6875 C-113.3102734375 88.82671875 -112.370546875 88.9659375 -111.40234375 89.109375 C-106.39072553896207 90.20547618831935 -101.47962444792867 91.58419510448923 -96.5703125 93.0703125 C-93.15833887955142 93.81889793635708 -91.43774638871588 93.9978839770611 -88.1875 92.8125 C-86.01171875 91.17578125 -86.01171875 91.17578125 -83.875 89.125 C-79.84274175258568 85.37012864544471 -75.65737197346425 82.02788474385437 -71.1875 78.8125 C-88.07037636692016 67.55724908871989 -115.53118530973427 66.65371259717062 -135.1875 66.5625 C-135.74308593749998 66.5521875 -135.74308593749998 66.5521875 -138.5546875 66.5 C-149.10093836426057 66.45037058416818 -159.1101465610443 67.92907037639259 -166.328125 76.29296875 Z M82.5 71.5625 C81.77232421874999 71.82804687499998 81.04464843749997 72.09359375 80.294921875 72.3671875 C78.42688098624376 73.08445949083651 76.61333676832277 73.94012232676403 74.8125 74.8125 C74.48250000000002 75.80250000000001 74.15249999999997 76.79250000000002 73.8125 77.8125 C74.575625 78.28687500000001 75.33875 78.76125000000002 76.125 79.25 C80.43045763580426 82.07930073209997 84.24185819291381 85.51794376719195 88.12890625 88.88671875 C90.98201136576108 90.93414352739478 92.32156438984163 91.74516741404739 95.8125 91.8125 C98.45111757253329 90.95473626813234 100.85356347991024 90.05317987614592 103.375 88.9375 C111.45131578947365 85.47960526315791 111.45131578947365 85.47960526315791 114.8125 84.8125 C112.73898957832012 79.96848454860361 109.31335064029014 78.00079949231096 105.0625 75.125 C104.35867187500003 74.62677734375 103.65484375 74.12855468750001 102.9296875 73.615234375 C95.46442311281379 68.50194454846073 90.7741620432057 68.27993889823688 82.5 71.5625 Z M26.48828125 94.53173828125 C25.708398437500023 94.9775927734375 24.92851562499999 95.42344726562499 24.125 95.8828125 C23.261328124999977 96.3675 22.39765625000001 96.85218750000001 21.5078125 97.3515625 C21.063085937499977 97.61324218750002 21.063085937499977 97.61324218750002 18.8125 98.9375 C18.367773437499977 99.18757812500002 18.367773437499977 99.18757812500002 16.1171875 100.453125 C12.478620724429732 102.52765113174306 9.177426958401895 104.4972436553806 6 107.2421875 C3.8125 108.8125 3.8125 108.8125 1.5234375 108.57861328125 C-1.4713677712770163 107.7322787224183 -3.9870953069093105 106.55719957560211 -6.75 105.125 C-7.794140625000011 104.59132812500002 -8.838281249999994 104.05765625000001 -9.9140625 103.5078125 C-12.096354166666657 102.37760416666669 -14.278645833333343 101.24739583333331 -16.4609375 100.1171875 C-17.50507812500001 99.58351562500002 -18.549218749999994 99.04984374999998 -19.625 98.5 C-20.57246093750001 98.00886718750002 -21.519921874999994 97.517734375 -22.49609375 97.01171875 C-25.142054991595728 95.83274908211916 -27.303008083191912 95.07055772447751 -30.1875 94.8125 C-32.58452966545053 96.29284381566808 -34.55445221970439 97.70596329383488 -36.6875 99.5 C-36.96529296874999 99.723974609375 -36.96529296874999 99.723974609375 -38.37109375 100.857421875 C-39.46615156489844 101.74248625010026 -40.554894144269866 102.6354296110569 -41.63671875 103.53662109375 C-43.09275750726263 104.73455222496136 -44.59216321013989 105.87921332490464 -46.09375 107.01953125 C-46.78468749999999 107.6112109375 -47.47562500000001 108.20289062500001 -48.1875 108.8125 C-48.1875 109.4725 -48.1875 110.1325 -48.1875 110.8125 C-47.16011718749999 111.24820312500003 -46.13273437500001 111.68390625 -45.07421875 112.1328125 C-36.87316460591879 115.6454255116634 -28.92253201185798 119.33863614568384 -21.1875 123.8125 C-21.1875 124.47249999999997 -21.1875 125.1325 -21.1875 125.8125 C-22.935646124349972 127.2038816091765 -24.784225678530902 128.37544845745663 -26.65625 129.59375 C-27.161562500000002 129.99593749999997 -27.666875000000005 130.398125 -28.1875 130.8125 C-28.1875 131.47249999999997 -28.1875 132.1325 -28.1875 132.8125 C-27.640937500000007 132.73000000000002 -27.640937500000007 132.73000000000002 -24.875 132.3125 C-15.040373391834919 131.13095475378935 -6.692690276571199 131.4492006511731 2.22265625 136.05859375 C5.7415032986837105 137.08293384109493 7.165116669089173 136.15628194126276 10.375 134.5 C16.293630467042817 131.5037446318022 20.949286543709718 130.6312911350035 27.5625 130.25 C28.259882812499995 130.20681640625003 28.95726562499999 130.1636328125 29.67578125 130.119140625 C31.38781922490989 130.01360403750556 33.100135608884614 129.9126009034607 34.8125 129.8125 C34.00812500000001 129.008125 33.203750000000014 128.20375 32.375 127.375 C31.1875 126.1875 30 125 28.8125 123.8125 C31.49955841291876 122.2284163811326 34.18722829420034 120.64537299795643 36.875 119.0625 C37.62716796874997 118.61906249999998 38.3793359375 118.17562499999997 39.154296875 117.71875 C43.68827932168358 115.04939236905204 48.23833594180121 112.41242326282747 52.8125 109.8125 C48.90628770074278 106.63130437749885 44.89886899837097 103.63003494113462 40.8125 100.6875 C40.20921874999999 100.24535156249999 39.60593749999998 99.80320312499998 38.984375 99.34765625 C38.68789062500002 99.13431640624998 38.68789062500002 99.13431640624998 37.1875 98.0546875 C36.92324218750002 97.86318115234377 36.92324218750002 97.86318115234377 35.5859375 96.89404296875 C29.95388151990244 93.45929517251759 29.95388151990244 93.45929517251759 26.48828125 94.53173828125 Z " fill="#000000" transform="translate(253.1875,146.1875)"/>
</svg>
