<svg xmlns="http://www.w3.org/2000/svg" viewBox="0 0 512 512"><path d="M282 54h16v1h-16z"/><path d="M351 81v1c-56.1 5.74-113.29 6.27-169.62 4.56l-3.92-.12Q157.11 85.74 153 83q.65.04 3.93.21c20.62 1.01 41.24.99 61.87.98h9.11c32.68 0 65.27-.51 97.9-2.48.77-.05 1.54-.09 2.33-.14 2.05-.13 4.1-.25 6.15-.39 5.57-.28 11.13-.27 16.71-.19Z" style="stroke:#000;stroke-miterlimit:10;stroke-width:3px"/><path d="M272.24 45.75c3.51 0 7.03-.01 10.54-.02 43.52-.09 87.55.1 130.72 6.14 1.1.15 2.21.3 3.35.45 6.71 1.01 13.13 2.42 19.15 5.67 1.18 2.37 1.13 3.8 1.13 6.43v2.77c0 .99 0 1.99-.01 3.01v3.13c-.07 10.74-.53 21.46-1.07 32.18l-.3 6.37c-.21 4.51-.43 9.02-.65 13.53-.53 10.98-1.05 21.95-1.57 32.93-.12 2.5-.24 5-.35 7.5-.75 15.83-1.47 31.66-2.11 47.5-.04.88-.07 1.76-.11 2.67-.15 3.57-.29 7.14-.43 10.7-1.88 46.44-4.04 92.87-6.23 139.3-.32 6.71-.63 13.41-.94 20.12q-.57 12.36-1.17 24.72c-.2 4.27-.41 8.55-.6 12.82q-.27 5.955-.57 11.91c-.07 1.44-.14 2.88-.2 4.32q-1.12 24.93-6.8 31.07c-4.97 3.29-9.01 4.68-14.98 5.15-.77.07-1.54.15-2.34.22-2.56.23-5.12.43-7.68.63q-.45.03-2.71.21c-5.85.44-11.7.82-17.56 1.17-3 .18-6 .37-8.99.57-28.14 1.77-56.3 2.31-84.48 2.68q-.42 0-2.52.03-103.64 1.36-151.42-4.1-.49-.06-2.95-.33c-6.23-.81-11.81-1.79-16.51-6.28-8.54-11.58-8.04-24.01-8.68-37.92-.08-1.62-.15-3.24-.23-4.86l-.63-13.28c-.22-4.75-.45-9.49-.68-14.24-.44-9.22-.87-18.44-1.31-27.67-.35-7.46-.7-14.93-1.06-22.39l-.15-3.21c-.05-1.06-.1-2.12-.15-3.22-2-42.13-3.98-84.27-5.92-126.41-.12-2.64-.24-5.28-.37-7.92-.72-15.59-1.44-31.17-2.15-46.76l-1.02-22.17c-.06-1.39-.13-2.78-.19-4.17-.8-17.48-1.64-34.95-2.76-52.42-.21-3.44-.39-6.87-.55-10.31-.07-1.28-.15-2.56-.22-3.88-.05-1.26-.09-2.53-.14-3.83-.05-1.14-.1-2.27-.15-3.44q.52-2.85 2.87-4.7c24.67-10.81 59.13-8.69 85.64-10.16.97-.05 1.93-.11 2.93-.16 35.08-1.94 70.18-2.04 105.31-2.08ZM218 48c-1.08.04-2.16.07-3.27.11Q130 50.87 97.56 56.94c-.82.15-1.63.29-2.48.44-4.51.92-7.22 1.96-10.09 5.62 7.45.19 14.52-.31 21.88-1.44 8.05-1.17 16.01-2.08 24.12-2.56-.68.08-1.37.15-2.07.23Q94.99 63 88.99 67v4l17 5q-7.12-1.44-9.33-1.88c-3.88-.78-7.76-1.47-11.67-2.12.67 18.04 1.94 36.03 3.26 54.03l.9 12.35c.57 7.79 1.13 15.58 1.7 23.37l1.92 26.32c2.06 28.31 4.12 56.62 6.23 84.93.88.06 1.77.13 2.68.19 1.16.09 2.33.17 3.53.26q.58.04 3.49.25c2.68.24 5.27.58 7.92 1.04 6.63.72 13.18-.81 19.69-1.96 9.16-1.59 18.29-2.06 27.57-2.39.9-.04 1.81-.07 2.74-.11l2.48-.09Q171 270 172 269c1.63-.16 3.27-.25 4.91-.32.99-.04 1.98-.08 3-.13l3.15-.12c1.04-.04 2.09-.09 3.17-.13 2.59-.11 5.18-.21 7.77-.31-.41-1.17-.82-2.34-1.24-3.55-.9-3.65-.79-4.39.73-8.09.77-1.22 1.56-2.42 2.38-3.61q.19-.29 1.12-1.75c.82-1.27 1.66-2.52 2.52-3.76q1.48-2.23 3.06-5.1c5.37-9.2 11.99-13.04 21.23-17.51 1.43-.72 2.85-1.44 4.28-2.17 2.89-1.47 5.8-2.92 8.7-4.36 5.08-2.52 10.11-5.14 15.13-7.76 3.32-1.73 6.65-3.46 9.98-5.17 4.68-2.42 9.35-4.86 14.01-7.33 1.57-.83 3.15-1.66 4.73-2.47 3.35-1.74 6.63-3.5 9.82-5.52 9.67-5.76 19.97-7.03 31.09-5.47 4.47 1.17 6.71 3.79 9.08 7.62.73 1.28 1.44 2.57 2.14 3.88 1.87 3.29 4.11 6.29 6.33 9.35 9.94 13.79 19.03 28.12 27.66 42.76.47.79.93 1.57 1.41 2.38.45.77.91 1.54 1.37 2.33 2 3.2 4.24 6.21 6.53 9.2q.92 2.12.14 4.7-.2.4-1.22 2.42l-1 3c2.64.51 5.29 1.01 7.94 1.5.74.14 1.47.29 2.23.43q.37.07 2.24.41c.67.13 1.33.25 2.02.38 2.45.26 4.79.3 7.24.29h4.34c3.63-36.77 6.68-73.56 9.4-110.4.68-9.19 1.37-18.38 2.05-27.56.45-5.97.89-11.94 1.33-17.91.16-2.18.33-4.36.5-6.54.43-5.48.8-10.96 1.08-16.46.07-1.11.13-2.22.2-3.36.13-2.11.23-4.21.31-6.32.17-2.63.35-4.94 1.14-7.45q3.08-2.16 6-3v-1c-9.67.58-19.34 1.22-29 2 .66-.1 1.31-.2 1.99-.3 2.97-.46 5.93-.95 8.89-1.45 1.03-.16 2.07-.31 3.13-.48q.49-.08 2.99-.51.46-.07 2.76-.44 2.25-.82 3.43-2.82c.27-.66.54-1.32.82-2q2.12-1.25 4-2c-2.64-3.43-5.35-3.68-9.51-4.32-.64-.1-1.28-.2-1.94-.31-2.08-.33-4.16-.63-6.23-.94l-4.29-.66c-4-.61-8.01-1.2-12.02-1.78-.89-.13-1.78-.27-2.7-.4-23.83-3.53-48.26-3.04-72.3-3.6 35.07.63 70.06 1.72 105 5v2c1.44.51 2.87 1 4.31 1.5.8.28 1.6.56 2.43.84q2.26.66 5.26.66c-2.53-3.09-5.22-3.91-9-5l2-2c-6.81-2.91-13.44-4.07-20.75-5.06-1.22-.17-2.45-.34-3.71-.51-13.14-1.75-26.31-2.73-39.54-3.42l-2.21-.12c-17.52-.95-35.06-1.25-52.6-1.5l-2.29-.03c-27.66-.4-55.25-.26-82.9.66Zm207.88 20c-.72.37-1.45.74-2.2 1.12q-.28.14-1.68.88 2 1 3.95.44c.72-.29 1.44-.58 2.18-.88.72-.29 1.45-.57 2.2-.87q.825-.345 1.68-.69v-2c-2.52 0-3.89.85-6.12 2ZM78 68c1.51 35.18 3.2 70.34 4.92 105.51l1.17 24.1c.31 6.34.61 12.68.93 19.03l.54 11.2c.92 19.08 2.05 38.13 3.45 57.17h3c.1-12.64-.19-25.23-.73-37.86l-.24-5.67c-.21-5.03-.43-10.06-.64-15.1-.14-3.14-.27-6.27-.4-9.41-1.19-27.75-2.51-55.48-4.11-83.21l-.12-2.14c-.82-14.33-1.71-28.66-2.74-42.97-.07-1.05-.14-2.09-.22-3.17-.45-6-1.34-11.63-2.79-17.47h-2Zm7 0-2 2 4-1zm345 4c-.04.95-.08 1.91-.13 2.89-1.33 29.87-3.2 59.7-5.2 89.53-.48 7.2-.96 14.41-1.43 21.61l-1.11 16.78c-.68 10.26-1.34 20.53-1.91 30.79-.27 4.26-.73 8.47-1.28 12.71-.84 6.92-1.18 13.71-.94 20.69l3 1q0-.3.03-1.81c.44-23.15 2.31-46.17 4.07-69.25 1.2-15.8 2.31-31.6 3.42-47.4.16-2.33.33-4.67.49-7 .67-9.51 1.34-19.03 1.98-28.54.06-.94.13-1.88.19-2.86.62-9.24.94-18.44.87-27.71 0-1.12 0-2.23-.01-3.38-.01-2.69-.03-5.37-.05-8.06h-2Zm-13 7c-1.95 22.43-3.79 44.87-5.43 67.32-.06.84-.12 1.68-.19 2.55-.31 4.33-.63 8.66-.94 12.98-2.31 31.78-4.85 63.51-7.97 95.22-.08.79-.15 1.59-.23 2.4-.18 1.84-.37 3.68-.56 5.51-.1.99-.2 1.98-.31 3.01-.1.91-.19 1.81-.29 2.75q-.09 2.25.91 4.25h2c1.19-3.56 1.39-6.98 1.65-10.7.06-.79.11-1.58.17-2.4.13-1.73.25-3.47.37-5.2l.6-8.43c.29-4.07.59-8.13.88-12.2.77-10.79 1.55-21.58 2.34-32.36.08-1.1.16-2.21.24-3.34 1.18-16.14 2.44-32.27 3.76-48.39.08-.99.16-1.98.25-3q1.17-14.235 2.37-28.47l.87-10.43.6-7.04c.68-8.03 1.07-15.98.89-24.05h-2Zm0 190v10h1v-10zm-1 10q-.69 1.81-1 4 1.44 1.75 3 3l-1-7zm-6 102-1 2 3-1zm-294 2q2.31 2.5 5 5h3c-.95-.82-1.9-1.65-2.88-2.5l-1.62-1.41q-1.51-1.09-3.51-1.09Zm288 1-2 2 5-1zm-6 2 4 1zm-274 3 1 2 3-1zm274-1q-.33.17-2 1c-1.54.22-3.08.41-4.62.56q-.41.04-2.48.25l-1.9.18v1c1.62.03 3.25.05 4.88.06q.45 0 2.74.04t4.38-1.1l-1-2Zm-21 3v1h10v-1zm-246 1 4 1zm237 0v1h9v-1zm-233 1 4 1zm223 0v1h7v-1zm-218 1v1h7v-1zm12 1v1h6v-1zm216.36-.2c-2.13.17-4.25.34-6.38.52-1.11.09-2.22.18-3.36.27-58.75 4.78-117.45 7.38-176.35 3.78-6.57-.4-13.14-.72-19.71-1l-2.73-.12c-1.94-.09-3.89-.17-5.83-.25-.1 10.73-.07 21.32 1 32l7 1q-1.15.17-7 1c.11 3.52.24 7.04.38 10.56l.09 3c.22 5.45.58 10.32 2.53 15.44 2.24 1.12 3.65 1.19 6.13 1.32.81.04 1.61.08 2.44.13l2.55.12q.42.02 2.57.13c2.1.11 4.2.21 6.3.31-.82-.02-1.64-.05-2.49-.07-7.12-.12-13.6.32-20.51 2.07 1.27 3.9 2.4 5.94 6 8 4.09 1.05 8.06 1.2 12.27 1.32l2.06.06c2.16.07 4.32.12 6.48.18 1.47.04 2.94.09 4.41.13 3.59.11 7.18.21 10.78.31-14.03.14-27.99-.36-42-1 3.79 3.82 7.79 3.54 12.86 3.68.88.03 1.77.07 2.68.1 10.21.35 20.43.39 30.64.39 2.09 0 4.18 0 6.28.01 6.66.01 13.32 0 19.98 0h3.43c33.11 0 66.17-.12 99.23-2.02 3.1-.18 6.2-.34 9.3-.51 5.36-.29 10.71-.59 16.06-.91 1.99-.12 3.98-.24 5.97-.35 2.7-.16 5.39-.33 8.09-.52q.39-.02 2.39-.13c4.44-.32 7.51-1.04 11.08-3.75 7.02-10.53 4.1-30.94 4-43h-20c1.43-.28 2.86-.55 4.34-.84 1.87-.37 3.73-.73 5.6-1.1.95-.18 1.89-.36 2.87-.55.9-.18 1.8-.35 2.72-.54.83-.16 1.67-.32 2.52-.49q1.95-.48 2.95-1.48c.25-3.37.19-6.75.19-10.12.01-.94.02-1.88.04-2.84.01-5.42-.43-9.91-2.22-15.03-5.92-.11-11.74.31-17.64.8ZM143 429l4 1z" style="stroke:#000;stroke-miterlimit:10;stroke-width:3px"/><path d="M198.01 483.42c-34.28 0-44.91-1.21-76.81-4.86l-2.95-.33c-6.49-.84-12.24-1.92-17.08-6.55l-.11-.13c-7.81-10.59-8.24-21.98-8.7-34.05-.06-1.46-.11-2.93-.18-4.42l-.23-4.86-.63-13.28-.68-14.24c-.44-9.22-.87-18.45-1.31-27.67l-1.36-28.82c-2.18-45.9-4.11-87.25-5.92-126.41l-.37-7.92c-.72-15.59-1.44-31.17-2.15-46.76l-1.21-26.33c-.77-16.82-1.62-34.72-2.76-52.4-.19-3.1-.38-6.48-.56-10.33l-.52-11.26.02-.11c.56-3.11.68-3.31 3.24-5.3l.21-.13c19.35-8.48 44.84-9.09 67.32-9.62 6.57-.15 12.78-.3 18.67-.63l2.93-.16c36.29-2.01 72.99-2.05 105.36-2.08 3.51 0 7.02-.01 10.54-.02 46.84-.1 89.03.3 130.86 6.15l3.34.45c6.01.9 13.02 2.29 19.49 5.78l.28.15.14.28c1.24 2.48 1.24 4.09 1.24 6.55l-.02 9.25c-.06 10.2-.47 20.26-1.07 32.23l-.3 6.37c-.21 4.51-.43 9.02-.65 13.53-.51 10.4-1 20.8-1.49 31.2l-.44 9.23c-.87 18.41-1.54 33.51-2.11 47.49l-.54 13.37c-1.95 48.18-4.24 97.17-6.23 139.31-.32 6.71-.63 13.41-.94 20.12q-.57 12.36-1.17 24.72c-.21 4.27-.41 8.54-.6 12.82-.18 3.97-.37 7.94-.57 11.92-.07 1.44-.14 2.88-.2 4.31-1.11 24.82-1.14 25.29-7.07 31.71l-.18.16c-5.12 3.39-9.31 4.83-15.46 5.32l-2.32.22c-2.57.23-5.13.44-7.7.63l-2.71.21c-5.24.39-10.82.76-17.58 1.17-3 .18-6 .37-8.99.57-29.33 1.84-59.01 2.35-84.53 2.68l-2.52.03c-34.56.46-57.6.76-74.73.76Zm-95.4-13.13c4.4 4.17 9.58 5.13 15.88 5.95l2.93.33q47.72 5.45 151.29 4.09l2.52-.03c25.5-.33 55.15-.84 84.43-2.68l9-.57c6.75-.41 12.32-.78 17.55-1.17l2.71-.21c2.56-.19 5.11-.39 7.67-.63l2.33-.22c5.75-.45 9.66-1.79 14.42-4.92 5.35-5.79 5.36-5.91 6.46-30.35.06-1.44.13-2.88.2-4.32.2-3.97.38-7.94.57-11.91l.6-12.82 1.17-24.72c.31-6.71.62-13.41.94-20.12 1.99-42.14 4.28-91.13 6.23-139.3l.54-13.38c.57-13.99 1.24-29.09 2.11-47.5l.44-9.23c.49-10.4.98-20.8 1.49-31.2.22-4.51.44-9.02.65-13.53l.3-6.37c.59-11.94 1-21.98 1.07-32.14l.02-6.14v-3.1c0-2.28 0-3.48-.89-5.37-6.1-3.23-12.51-4.51-18.54-5.41l-3.33-.45c-21.2-2.97-42.51-4.53-64.48-5.33 2.32.1 4.64.22 6.96.34l2.21.12c15.86.83 28.08 1.89 39.62 3.43l3.71.52c6.68.91 13.81 2.05 21.01 5.13l1.36.58-1.85 1.85c3.01.92 5.52 1.97 7.88 4.85l.62.75c.5-.08 1.03-.12 1.61-.12h1v3.67l-6.78 2.73c-2.19.63-2.45.6-4.67-.51l-1.75-.88 6.21-3.21c.56-.29 1.08-.57 1.61-.81-1.81-.02-2.22-.13-4.16-.69l-2.48-.86c-.66-.23-1.32-.46-1.99-.69.96.61 1.88 1.45 2.79 2.63l.81 1.05-1.23.49c-1.72.69-1.8.72-3.57 1.76l-.76 1.82c-1.17 1.98-1.43 2.3-3.27 3 2.61-.17 5.32-.34 8.17-.51l1.06-.06v2.81l-.72.21c-1.49.43-2.17.63-2.95 1.04h.65l.02.98c.16 7.32-.12 15-.89 24.15-.21 2.38-.41 4.71-.6 7.04l-.87 10.43c-.8 9.49-1.59 18.98-2.37 28.46l-.25 3a5476 5476 0 0 0-3.76 48.38l-.24 3.34c-.79 10.79-1.57 21.57-2.34 32.36-.29 4.07-.58 8.13-.88 12.2-.2 2.81-.41 5.62-.6 8.43-.12 1.74-.25 3.47-.37 5.2l-.2 2.73c-.25 3.62-.48 7.03-1.67 10.61l-.23.68h-3.34l-.28-.55-.12-.24-.08.79-5.23.02c-2.29 0-4.75-.02-7.36-.3l-6.56-1.24a1223 1223 0 0 1-7.94-1.5l-1.12-.22 1.42-4.21 1.18-2.35c.63-2.1.64-2.16-.07-3.82-2.17-2.84-4.46-5.89-6.51-9.18l-2.79-4.73c-9.59-16.25-18.63-30.22-27.62-42.68l-.69-.96c-1.96-2.7-3.99-5.49-5.69-8.48-.71-1.32-1.42-2.6-2.14-3.88-2.34-3.79-4.39-6.06-8.4-7.13-11.68-1.62-21.62.13-30.38 5.35-3.27 2.08-6.68 3.9-9.87 5.55-1.58.82-3.15 1.64-4.73 2.47-4.55 2.41-9.26 4.88-14.01 7.33-3.33 1.72-6.65 3.44-9.97 5.17-4.64 2.42-9.89 5.16-15.15 7.77-2.91 1.44-5.81 2.89-8.7 4.36-1.42.73-2.85 1.45-4.28 2.17-8.83 4.27-15.48 8-20.81 17.12q-1.59 2.88-3.09 5.15c-.9 1.29-1.74 2.55-2.52 3.75l-1.12 1.75c-.82 1.19-1.6 2.37-2.33 3.53-1.45 3.54-1.49 4.04-.66 7.39l1.66 4.74-1.35.05c-2.59.1-5.18.2-7.77.31l-9.32.38c-1.72.07-3.17.16-4.5.28-1 .97-1.37 1.03-3.25 1.22l-5.27.21c-8.81.32-18.18.77-27.44 2.38-.9.16-1.81.33-2.72.5-5.6 1.04-11.4 2.11-17.25 1.47-2.68-.47-5.24-.8-7.9-1.04l-10.55-.77-.06-.86c-2.13-28.63-4.25-57.74-6.23-84.93l-.19-2.63c-.57-7.9-1.15-15.79-1.73-23.69-.57-7.79-1.14-15.58-1.7-23.37l-.9-12.35C85.97 107.85 84.72 90 84.05 72l-.04-1.22 1.21.2c.96.16 1.91.32 2.84.48v-1.71l-6.2 1.55c.98 4.61 1.62 9.16 1.99 14.06l.22 3.18c.94 12.94 1.81 26.6 2.75 42.98l.12 2.14c1.43 24.91 2.74 51.36 4.11 83.22l.4 9.41c.22 5.03.43 10.07.64 15.1l.24 5.67c.59 13.67.83 26.07.74 37.91v.99h-4.93l-.07-.93c-1.35-18.37-2.51-37.61-3.45-57.2l-.54-11.2-.36-7.35c0 .15.01.31.02.46l.37 7.92c1.81 39.16 3.75 80.5 5.92 126.41l1.36 28.82c.43 9.22.87 18.44 1.31 27.67l.68 14.24.63 13.28.23 4.86q.105 2.25.18 4.44c.46 12.23.87 22.8 8.26 32.87ZM89.93 284h1.08c.07-11.5-.17-23.56-.74-36.82l-.24-5.68c-.21-5.03-.43-10.06-.64-15.1l-.4-9.41c-1.37-31.85-2.67-58.29-4.1-83.19l-.12-2.14c-.94-16.37-1.81-30.02-2.74-42.96l-.22-3.18c-.36-4.78-.98-9.22-1.94-13.72l-.11.03.1-.1c-.19-.91-.4-1.83-.62-2.75h-.17c1.52 35.32 3.24 71.07 4.87 104.46l1.17 24.1c.31 6.34.61 12.68.92 19.02l.54 11.2c.92 19.24 2.06 38.15 3.38 56.22Zm285.38-12.77c2.27.43 4.54.86 6.81 1.28l6.48 1.23c2.43.26 4.83.29 7.05.28h3.44c3.3-33.51 6.35-69.34 9.31-109.5.61-8.25 1.22-16.49 1.84-24.74l.21-2.83c.45-5.97.89-11.94 1.33-17.91.16-2.18.33-4.36.5-6.54.47-5.96.82-11.33 1.08-16.43l.2-3.37c.13-2.16.23-4.28.3-6.3.19-2.93.38-5.17 1.18-7.71l.1-.32.28-.19c1.43-1 2.24-1.57 2.98-1.96-9.65.6-17.77 1.17-25.32 1.77l-.23-1.99 1.99-.3c2.96-.46 5.92-.95 8.87-1.44l3.14-.48 5.65-.94c1.8-.66 1.84-.69 2.78-2.3l.92-2.24.29-.17c1.54-.91 2.01-1.18 2.84-1.54-1.99-2.02-4.12-2.34-7.37-2.83l-2.57-.4c-2.07-.32-4.15-.63-6.22-.94l-4.3-.66c-4-.61-8.01-1.2-12.01-1.78l-2.71-.4c-6.4-.95-12.87-1.61-19.37-2.07-15.1-.66-29.93-1.06-44.35-1.35-2.82-.04-5.65-.1-8.45-.16l.04-2c2.8.05 5.61.1 8.44.16 2.22.04 4.42.07 6.6.1 12.45.18 25.19.35 37.84 1.26 17.14.75 34.62 1.84 52.19 3.49l.91.08v2.2c1.21.42 2.42.84 3.64 1.26l2.43.84c1.21.35 1.72.5 2.5.56-1.93-1.58-4.09-2.2-6.84-3l-1.63-.47 2.14-2.14c-6.51-2.56-13-3.59-19.12-4.43l-3.71-.52c-11.48-1.53-23.65-2.58-39.46-3.41l-2.21-.12c-17.42-.94-34.8-1.25-52.56-1.5l-2.29-.03c-29.56-.43-56.66-.21-82.85.66l-3.27.11q-84.66 2.76-117.02 8.81l-2.48.44c-3.62.74-5.91 1.53-8.08 3.67 6.45.05 12.86-.44 19.54-1.46 8.83-1.29 16.75-2.13 24.22-2.57l.17 1.99-2.07.23c-32.8 3.65-33.66 3.74-39.04 7.31v2.72l16.28 4.79-.48 1.94-9.33-1.89c-3.3-.66-6.72-1.29-10.42-1.91.68 17.56 1.9 34.99 3.21 52.77l.9 12.35c.57 7.79 1.13 15.58 1.7 23.37.58 7.9 1.15 15.79 1.73 23.69l.19 2.63c1.96 26.92 4.05 55.71 6.16 84.06l8.84.65c2.73.24 5.35.59 8.02 1.05 5.49.59 11.14-.45 16.6-1.46.91-.17 1.83-.34 2.74-.5 9.39-1.63 18.84-2.09 27.71-2.41l5.21-.21q1.48-.15 2.23-.9l.25-.25.36-.03c1.48-.14 3.05-.24 4.97-.32l9.32-.38c2.14-.09 4.28-.17 6.42-.26l-.79-2.27c-1-4.02-.8-5.01.75-8.8l.08-.15c.76-1.21 1.57-2.44 2.41-3.64l1.11-1.73c.79-1.22 1.65-2.5 2.54-3.79q1.44-2.18 3.01-5.01c5.63-9.63 12.53-13.51 21.67-17.93q2.115-1.065 4.26-2.16c2.9-1.47 5.8-2.93 8.71-4.37 5.25-2.6 10.49-5.34 15.12-7.75 3.32-1.73 6.65-3.46 9.98-5.18 4.75-2.45 9.45-4.92 14-7.32 1.58-.83 3.16-1.66 4.74-2.48 3.15-1.63 6.51-3.42 9.74-5.48 9.21-5.49 19.59-7.32 31.77-5.62l.12.02c4.67 1.23 7.09 3.88 9.67 8.06.75 1.32 1.47 2.62 2.17 3.93 1.64 2.87 3.54 5.5 5.56 8.28l.7.96c9.03 12.52 18.09 26.53 27.71 42.84l2.78 4.71c2.02 3.24 4.3 6.27 6.47 9.1l.12.21c1.01 2.34 1.02 2.6.18 5.39l-.06.16-1.19 2.36-.62 1.85Zm27.31 2.77h.65c.93-3.1 1.13-6.18 1.36-9.43l.2-2.74c.13-1.73.25-3.47.37-5.2l.6-8.44c.29-4.07.59-8.13.88-12.2q1.155-16.185 2.34-32.37l.24-3.34c1.17-16.02 2.44-32.31 3.76-48.4l.25-3q1.17-14.235 2.37-28.47l.87-10.42c.19-2.33.4-4.66.6-6.99.73-8.72 1.02-16.05.91-23.01h-.1c-2.11 24.27-3.86 46-5.35 66.4l-1.13 15.53c-2.7 37.14-5.23 67.41-7.97 95.25l-.23 2.4q-.27 2.76-.57 5.52l-.59 5.75c-.06 1.7-.07 1.9.54 3.14ZM76.49 62.92 77 73.94c.18 3.85.36 7.22.55 10.31.2 3.11.39 6.23.57 9.34-.38-8.52-.76-17.05-1.13-25.55L76.95 67h3.83l.19.76c.19.77.37 1.54.55 2.31l3.28-3.28 3.2 1.6v-1.92l.45-.3c1.35-.9 2.41-1.61 3.59-2.2-2.35.08-4.71.09-7.06.03l-1.99-.05 1.23-1.57c3-3.84 5.95-5.03 10.68-5.99l2.5-.45c20.02-3.75 27.71-5.19 50.47-6.39l-2.54.06c-22.25.52-47.47 1.12-66.45 9.4-1.93 1.51-1.96 1.57-2.38 3.9ZM431 67.05c-1.47.17-2.51.71-4.07 1.52l-2.26 1.16c.25-.05.55-.13.95-.25l5.38-2.16v-.28Zm-35.4-7.8 3.57.54 4.29.66c2.08.31 4.16.61 6.24.94l2.56.4c1.37.21 2.6.39 3.74.7v-1.58c-6.82-.63-13.62-1.18-20.4-1.66ZM210.59 47.24c-12.05.25-24.27.63-36.48 1.22 9.99-.36 21.93-.75 36.48-1.22Zm8.66 431.95h-18.08c-9.85-.02-20.32-.05-30.68-.4l-3.96-.13c-4.57-.09-8.51-.17-12.26-3.94l-1.8-1.82 2.56.12c1.44.07 2.9.13 4.36.19-3.02-2-4.15-4.17-5.36-7.89l-.33-1.02 1.04-.26c1.81-.46 3.61-.84 5.45-1.14-.83-.2-1.67-.5-2.66-1l-.35-.17-.14-.36c-2.03-5.33-2.38-10.29-2.6-15.75l-.09-3.01c-.13-3.52-.26-7.04-.38-10.56l-.03-.89.96-.14-.85-.12-.08-.78c-1.1-10.99-1.1-21.89-1-32.11v-.99h-2v-3h8v3h-4.98l8.59.38c7.93.34 14.01.65 19.72 1 50.87 3.11 104.8 1.99 174.67-3.65v-2.72h9v1.99l1-.08v-2.91h9v-1h10v-.91l5.27-.52c1.58-.16 3.03-.33 4.42-.53l2.1-1.05h-.04l.48-1.95 2.65.66 2.84-2.84 3.62 1.21 2.2-4.4 5.05 2.53-6.44 2.15 2.73.91-8.89 1.78-.24.95-2-.5-.8.16.29-.29-.52-.13 1.62 3.24-.89.45c-2.13 1.07-2.26 1.1-4.79 1.2l-2.8-.03c-1.29-.01-2.57-.03-3.86-.05v.98h-1.99.71l.23.67c1.91 5.45 2.29 10.08 2.28 15.36l-.04 2.86v1.8c.01 2.75.02 5.58-.19 8.39l-.03.37-.26.26c-1.17 1.17-1.35 1.24-3.42 1.74l-7.93 1.55h10.63v.99c.03 2.43.17 5.23.31 8.19.58 11.9 1.31 26.71-4.47 35.38l-.09.14-.13.1c-3.78 2.87-7.12 3.62-11.61 3.95l-2.41.13c-2.69.18-5.39.36-8.09.52-1.99.11-3.98.23-5.97.35-5.36.32-10.71.63-16.07.92-3.1.16-6.2.33-9.3.5-32.36 1.86-64.11 2.02-99.29 2.02h-11.61Zm-61.16-4.05c2.47 1.39 5.13 1.44 8.5 1.51l3.99.13c10.32.35 20.78.38 30.61.39h6.28c6.66.02 13.32.02 19.97.02h3.43c35.14 0 66.86-.16 99.17-2.02 3.1-.18 6.2-.34 9.3-.51 5.35-.29 10.71-.59 16.06-.91 1.99-.12 3.98-.24 5.98-.35 2.69-.16 5.39-.33 8.08-.52l2.41-.13c4.14-.3 7.05-.95 10.39-3.44 5.31-8.14 4.61-22.49 4.04-34.03-.13-2.59-.25-5.05-.29-7.28H367l-.19-1.98 18.05-3.52c1.43-.35 1.61-.4 2.17-.95.18-2.61.17-5.28.16-7.86v-1.82l.03-2.86c.01-4.85-.32-9.13-1.94-14.03-5.8-.07-11.5.37-16.84.81s-9.74.79-9.74.79c-70.72 5.76-125.15 6.92-176.49 3.78-5.7-.35-11.77-.66-19.69-1l-7.53-.33c-.08 9.62-.05 19.82.93 30.08l13.15 1.88-13.04 1.86c.1 3.22.22 6.44.35 9.66l.09 3.01c.21 5.15.53 9.83 2.33 14.74 1.86.87 3.08.93 5.39 1.04l7.57.38c2.1.11 4.2.21 6.3.31l-.08 2-2.49-.07c-7.56-.13-13.37.41-19.18 1.78 1.1 3.12 2.21 4.68 5.08 6.35 4.09 1.03 8.25 1.15 11.92 1.25l2.07.06c2.16.07 4.32.12 6.48.18l4.41.13c3.59.11 7.18.21 10.77.31l-.02 2c-13.32.13-26.51-.32-38.92-.86ZM378 393v.13c1.38-.06 2.77-.11 4.17-.13zm19.55-3.66-1.25.62-.16.02c-.11.02-.23.03-.34.05.77-.06 1.14-.16 1.85-.49l-.1-.21Zm-250.79 41.63-4-1 .49-1.94 4 1zM148 396h-9v-2l-.24.97-8-2 .49-1.94 7.88 1.97h8.88v3Zm-23.51-3.78-1.61-3.22h-2.27l-.29-.27q-2.71-2.53-5.05-5.05l-1.55-1.68h2.29c2.22 0 2.41.06 4.1 1.28l5.99 5.21 5.49 1.37-7.08 2.36Zm294.86-103.86-1.97-1.58c-1.61-1.29-1.67-1.35-3.15-3.15l-.28-.34.06-.44c.32-2.25.34-2.33 1.06-4.21l.24-.65h.69v-10h1.84l-.81-.27-.02-.69c-.24-6.8.07-13.62.94-20.84.63-4.81 1.03-8.83 1.27-12.65.61-10.94 1.31-21.71 1.91-30.8l1.11-16.78.24-3.6c.4-6 .79-12 1.19-18.01 1.89-28.23 3.82-58.61 5.2-89.51l.17-3.85h3.95v.99c.03 2.69.04 5.37.06 8.06v3.38c.08 8.92-.2 18.01-.86 27.78l-.2 2.86c-.65 9.52-1.31 19.03-1.99 28.55l-.56 7.95c-1.07 15.23-2.18 30.97-3.36 46.46l-.37 4.87c-1.62 21.06-3.29 42.83-3.7 64.32l-.05 3.17-2.98-.99V280h-.85l1.19 8.36Zm-3.3-5.65c.22.27.4.49.56.68l-.31-2.17c-.09.38-.15.8-.25 1.49Zm2.93-16.44 1.04.35v-.44c.41-21.55 2.09-43.35 3.71-64.44l.37-4.87c1.18-15.48 2.29-31.22 3.35-46.44l.56-7.95c.67-9.51 1.34-19.03 1.98-28.54l.2-2.86c.65-9.72.94-18.76.87-27.63v-3.38c-.02-2.35-.04-4.71-.05-7.06h-.05l-.08 1.93c-1.38 30.92-3.31 61.32-5.2 89.56-.4 6-.8 12-1.19 18.01l-.24 3.6-1.11 16.78c-.6 9.08-1.3 19.84-1.91 30.78-.25 3.87-.65 7.93-1.29 12.78-.83 6.86-1.14 13.36-.95 19.83Z" style="stroke:#000;stroke-miterlimit:10;stroke-width:3px"/><path d="M331 428h20v1h-20zm-27 1h27v1h-27zm-28 1h27v1h-27zm-68 1h31v1h-31zM433.73 64.66c-1.06 0-1.93.27-2.64.73-.04-.09-.1-.18-.14-.27.33-2.52-1-5.29-4.01-5.7-.23-.35-.5-.67-.82-.95-.79-1.12-2.09-1.89-3.88-1.89-4.21 0-5.67 4.28-4.37 7.24.31 1.17 1 2.22 2.08 2.86a4.4 4.4 0 0 0 2.01 1.45c.15 2.01 1.34 3.92 3.59 4.42.21.84.6 1.62 1.19 2.25-.56.57-.98 1.35-1.18 2.36-.21 1.03-.39 2.06-.57 3.09-2.46-3.31-9.1-2.34-9.09 2.91 0 5.07.09 10.22-.74 15.24-.78 4.76-2.07 9.21-2.29 14.07-.47 10.5-1.33 20.86-2.6 31.3-.23 1.89.5 3.21 1.64 3.98-.18 4.37-1.08 8.85-2.07 13.05-.41 1.73.04 3.19.92 4.26-.86 1.26-1.08 2.9-.08 4.6-1.3 6.98-2.43 14.03-2.51 21.14-.1 8.53-1.59 16.68-2.96 25.09-.29 1.76.26 3.23 1.21 4.31-.3 1.16-.58 2.32-.8 3.5-1.36 7.35-1.5 14.78-1.26 22.21-1.68 1.63-1.93 4.49-.75 6.48-.07.16-.15.32-.2.5-1.56 5.07-1.94 10.29-1.1 15.39-.43.81-.63 1.74-.62 2.66-3.14 1.8-2.23 6.67.45 8.4 1.3.84 2.62 1.19 3.87 1.19 1.15 1.29 2.22 3.26 2.9 4.17 1.34 1.79 2.68 3.57 4.02 5.36 3.82 5.08 12.5.11 8.63-5.05-2.24-2.99-4.67-7.31-7.62-10.57.1-.59.07-1.25-.13-1.96 1.05-4.99.86-10.3.05-15.37.58-.77.92-1.78.86-3.05-.44-8.23-.95-16.58.1-24.79.29-2.27.78-4.47 1.33-6.67.27 1.76.57 3.53.85 5.32 2.36 15.02 2.26 30.34.24 45.38-.85 6.36 9.16 6.29 10 0 1.96-14.6 1.98-29.28 0-43.87-.93-6.86-2.78-13.73-2-20.7.75-6.74 3.05-13.22 3.88-19.97 1.7-13.84-.21-27.85 1.35-41.76 1.67-14.9 4.1-29.73 6.2-44.57.4-2.83-1.32-4.92-3.42-5.81.17-5.67.78-11.24 1.92-16.81.43-2.11-.37-3.8-1.67-4.9.08-.08.17-.16.25-.25 6.39-.04 6.39-10-.04-10Zm-14.44 122.77c-.24 2.08-.63 4.14-1.06 6.19.1-5.85.64-11.52 1.48-17.22.06 3.68 0 7.37-.42 11.03m1.7-44.56a4.6 4.6 0 0 0-.56-.6c1.08-9.27 1.79-18.49 2.31-27.8.04.19.07.37.11.56.25 1.25.84 2.15 1.6 2.73-1.21 8.36-2.4 16.73-3.46 25.11"/></svg>