<?xml version="1.0" encoding="UTF-8"?>
<!-- Generator: visioncortex VTracer 0.6.12 -->
<svg version="1.1" xmlns="http://www.w3.org/2000/svg" width="512" height="512">
  <metadata>
                <![CDATA[
            {
  "prompt": {
    "4": {
      "inputs": {
        "vae_name": "ae.safetensors"
      },
      "class_type": "VAELoader",
      "_meta": {
        "title": "Load VAE"
      }
    },
    "5": {
      "inputs": {
        "clip_name": "qwen3_4b_fp8_scaled.safetensors",
        "type": "lumina2",
        "device": "default"
      },
      "class_type": "CLIPLoader",
      "_meta": {
        "title": "Load CLIP"
      }
    },
    "6": {
      "inputs": {
        "ckpt_name": "zEpicrealism_turboV1Fp8.safetensors"
      },
      "class_type": "CheckpointLoaderSimple",
      "_meta": {
        "title": "Load Checkpoint"
      }
    },
    "7": {
      "inputs": {
        "shift": 6.0,
        "model": [
          "6",
          0
        ]
      },
      "class_type": "ModelSamplingAuraFlow",
      "_meta": {
        "title": "ModelSamplingAuraFlow"
      }
    },
    "8": {
      "inputs": {
        "PowerLoraLoaderHeaderWidget": {
          "type": "PowerLoraLoaderHeaderWidget"
        },
        "lora_1": {
          "on": true,
          "lora": "MinimalistVectorArtZ.safetensors",
          "strength": 0.4
        },
        "lora_2": {
          "on": false,
          "lora": "None",
          "strength": 0.75
        },
        "\u2795 Add Lora": "",
        "model": [
          "7",
          0
        ],
        "clip": [
          "5",
          0
        ]
      },
      "class_type": "Power Lora Loader (rgthree)",
      "_meta": {
        "title": "Power Lora Loader (rgthree)"
      }
    },
    "9": {
      "inputs": {
        "text": "A bold, heavy solid black silhouette of a lowball glass with a drink and a singular ice cube. 3/4 top-down perspective. High-contrast woodblock print aesthetic. The entire liquid mass (one-two fingers) and the entire angled ice cube are a single, dense contiguous dark mass, with zero internal details or highlights on the liquid or the ice cube mass; the ice cube and the liquid must be rendered as a single, absolute, solid, contiguous dark shape with no internal lines or white facets. The \"glass\" is a substantial contiguous white negative space. Thick, bold white negative space is used to define: 1) a chunky white 'highlight' void on the base of the glass, and 2) a rhythmic, repeating pattern of three (3) or four (4) chunky, vertical white negative space 'slashes' on the inner surface to represent heavy cut crystal facets. Zero fine lines, no gray, heavy visual weight. Isolated on white. Optimized for a clean, single-boolean SVG silhouette. Black and white only. White background.",
        "clip": [
          "8",
          1
        ]
      },
      "class_type": "CLIPTextEncode",
      "_meta": {
        "title": "Positive Prompt"
      }
    },
    "10": {
      "inputs": {
        "text": "blurry, bad, shadow, color, grey, text, watermark, logo, 3d",
        "clip": [
          "8",
          1
        ]
      },
      "class_type": "CLIPTextEncode",
      "_meta": {
        "title": "Negative Prompt"
      }
    },
    "11": {
      "inputs": {
        "seed": 478536806374380,
        "steps": 9,
        "cfg": 1.0,
        "sampler_name": "euler",
        "scheduler": "beta",
        "denoise": 0.95,
        "preview_method": "auto",
        "vae_decode": "true",
        "model": [
          "37",
          0
        ],
        "positive": [
          "9",
          0
        ],
        "negative": [
          "10",
          0
        ],
        "latent_image": [
          "27",
          0
        ],
        "optional_vae": [
          "4",
          0
        ]
      },
      "class_type": "KSampler (Efficient)",
      "_meta": {
        "title": "KSampler (Efficient)"
      }
    },
    "13": {
      "inputs": {
        "filename_prefix": [
          "35",
          0
        ],
        "images": [
          "11",
          5
        ]
      },
      "class_type": "SaveImage",
      "_meta": {
        "title": "Save Image"
      }
    },
    "27": {
      "inputs": {
        "dimensions": "512 x 512 (1:1)",
        "invert": false,
        "batch_size": 1
      },
      "class_type": "EmptyLatentImagePresets",
      "_meta": {
        "title": "Empty Latent Image Presets"
      }
    },
    "32": {
      "inputs": {
        "filename_prefix": [
          "35",
          0
        ],
        "svg": [
          "34",
          0
        ]
      },
      "class_type": "SaveSVGNode",
      "_meta": {
        "title": "SaveSVGNode"
      }
    },
    "33": {
      "inputs": {
        "mode": "spline",
        "filter_speckle": 4,
        "corner_threshold": 60,
        "length_threshold": 4.0,
        "splice_threshold": 45,
        "image": [
          "11",
          5
        ]
      },
      "class_type": "TS_ImageToSVGStringBW_Vtracer",
      "_meta": {
        "title": "Image to SVG String BW_Vtracer"
      }
    },
    "34": {
      "inputs": {
        "SVG_String": [
          "33",
          0
        ]
      },
      "class_type": "TS_SVGStringToSVGBytesIO",
      "_meta": {
        "title": "SVG String to SVG BytesIO"
      }
    },
    "35": {
      "inputs": {
        "value": "Icons/drink-"
      },
      "class_type": "PrimitiveString",
      "_meta": {
        "title": "String"
      }
    },
    "36": {
      "inputs": {
        "name": "Z-Image-Turbo-Fun-Controlnet-Union-2.1.safetensors"
      },
      "class_type": "ModelPatchLoader",
      "_meta": {
        "title": "ModelPatchLoader"
      }
    },
    "37": {
      "inputs": {
        "strength": 0.7,
        "model": [
          "8",
          0
        ],
        "model_patch": [
          "36",
          0
        ],
        "vae": [
          "4",
          0
        ],
        "image": [
          "38",
          0
        ]
      },
      "class_type": "ZImageFunControlnet",
      "_meta": {
        "title": "ZImageFunControlnet"
      }
    },
    "38": {
      "inputs": {
        "image": "drink-_00033_.png"
      },
      "class_type": "LoadImage",
      "_meta": {
        "title": "Reference"
      },
      "is_changed": [
        "c1572b32a231510ca25e4260c720d65a0c500189806bf29fc8d6520a1bca73bd"
      ]
    }
  },
  "workflow": {
    "id": "b863a6d5-b1c1-49ed-82de-40ff658289d1",
    "revision": 0,
    "last_node_id": 38,
    "last_link_id": 50,
    "nodes": [
      {
        "id": 4,
        "type": "VAELoader",
        "pos": [
          -6219.534823554188,
          -970.9111545414083
        ],
        "size": [
          373.8333435058594,
          123.80000305175781
        ],
        "flags": {},
        "order": 0,
        "mode": 0,
        "inputs": [],
        "outputs": [
          {
            "name": "VAE",
            "type": "VAE",
            "links": [
              13,
              48
            ]
          }
        ],
        "properties": {
          "cnr_id": "comfy-core",
          "ver": "0.9.2",
          "Node name for S&R": "VAELoader"
        },
        "widgets_values": [
          "ae.safetensors"
        ]
      },
      {
        "id": 5,
        "type": "CLIPLoader",
        "pos": [
          -6634.625039036589,
          -1114.7238241585353
        ],
        "size": [
          366.1666564941406,
          558.9833374023438
        ],
        "flags": {},
        "order": 1,
        "mode": 0,
        "inputs": [],
        "outputs": [
          {
            "name": "CLIP",
            "type": "CLIP",
            "links": [
              6
            ]
          }
        ],
        "properties": {
          "cnr_id": "comfy-core",
          "ver": "0.9.2",
          "Node name for S&R": "CLIPLoader"
        },
        "widgets_values": [
          "qwen3_4b_fp8_scaled.safetensors",
          "lumina2",
          "default"
        ]
      },
      {
        "id": 6,
        "type": "CheckpointLoaderSimple",
        "pos": [
          -7142.716749069344,
          -1274.288341946366
        ],
        "size": [
          456,
          154.6666717529297
        ],
        "flags": {},
        "order": 2,
        "mode": 0,
        "inputs": [],
        "outputs": [
          {
            "name": "MODEL",
            "type": "MODEL",
            "links": [
              4
            ]
          },
          {
            "name": "CLIP",
            "type": "CLIP",
            "links": []
          },
          {
            "name": "VAE",
            "type": "VAE",
            "links": []
          }
        ],
        "properties": {
          "cnr_id": "comfy-core",
          "ver": "0.9.2",
          "Node name for S&R": "CheckpointLoaderSimple"
        },
        "widgets_values": [
          "zEpicrealism_turboV1Fp8.safetensors"
        ],
        "color": "#453f4f",
        "bgcolor": "#312b3b"
      },
      {
        "id": 7,
        "type": "ModelSamplingAuraFlow",
        "pos": [
          -6599.982891965006,
          -1269.9382147843737
        ],
        "size": [
          270,
          104
        ],
        "flags": {},
        "order": 7,
        "mode": 0,
        "inputs": [
          {
            "name": "model",
            "type": "MODEL",
            "link": 4
          }
        ],
        "outputs": [
          {
            "name": "MODEL",
            "type": "MODEL",
            "links": [
              5
            ]
          }
        ],
        "properties": {
          "cnr_id": "comfy-core",
          "ver": "0.10.0",
          "Node name for S&R": "ModelSamplingAuraFlow"
        },
        "widgets_values": [
          6
        ]
      },
      {
        "id": 8,
        "type": "Power Lora Loader (rgthree)",
        "pos": [
          -6200.008916456028,
          -1269.9382147843737
        ],
        "size": [
          340.48333740234375,
          232
        ],
        "flags": {},
        "order": 8,
        "mode": 0,
        "inputs": [
          {
            "dir": 3,
            "name": "model",
            "type": "MODEL",
            "link": 5
          },
          {
            "dir": 3,
            "name": "clip",
            "type": "CLIP",
            "link": 6
          }
        ],
        "outputs": [
          {
            "dir": 4,
            "name": "MODEL",
            "shape": 3,
            "type": "MODEL",
            "links": [
              47
            ]
          },
          {
            "dir": 4,
            "name": "CLIP",
            "shape": 3,
            "type": "CLIP",
            "links": [
              7,
              8
            ]
          }
        ],
        "properties": {
          "cnr_id": "rgthree-comfy",
          "ver": "8ff50e4521881eca1fe26aec9615fc9362474931",
          "Show Strengths": "Single Strength"
        },
        "widgets_values": [
          {},
          {
            "type": "PowerLoraLoaderHeaderWidget"
          },
          {
            "on": true,
            "lora": "MinimalistVectorArtZ.safetensors",
            "strength": 0.4,
            "strengthTwo": null
          },
          {
            "on": false,
            "lora": "None",
            "strength": 0.75,
            "strengthTwo": null
          },
          {},
          ""
        ]
      },
      {
        "id": 9,
        "type": "CLIPTextEncode",
        "pos": [
          -5665.2999151795275,
          -968.8850863528279
        ],
        "size": [
          495.1833190917969,
          389.6333312988281
        ],
        "flags": {},
        "order": 10,
        "mode": 0,
        "inputs": [
          {
            "name": "clip",
            "type": "CLIP",
            "link": 7
          }
        ],
        "outputs": [
          {
            "name": "CONDITIONING",
            "type": "CONDITIONING",
            "links": [
              9
            ]
          }
        ],
        "title": "Positive Prompt",
        "properties": {
          "cnr_id": "comfy-core",
          "ver": "0.9.2",
          "Node name for S&R": "CLIPTextEncode"
        },
        "widgets_values": [
          "A bold, heavy solid black silhouette of a lowball glass with a drink and a singular ice cube. 3/4 top-down perspective. High-contrast woodblock print aesthetic. The entire liquid mass (one-two fingers) and the entire angled ice cube are a single, dense contiguous dark mass, with zero internal details or highlights on the liquid or the ice cube mass; the ice cube and the liquid must be rendered as a single, absolute, solid, contiguous dark shape with no internal lines or white facets. The \"glass\" is a substantial contiguous white negative space. Thick, bold white negative space is used to define: 1) a chunky white 'highlight' void on the base of the glass, and 2) a rhythmic, repeating pattern of three (3) or four (4) chunky, vertical white negative space 'slashes' on the inner surface to represent heavy cut crystal facets. Zero fine lines, no gray, heavy visual weight. Isolated on white. Optimized for a clean, single-boolean SVG silhouette. Black and white only. White background."
        ],
        "color": "#232",
        "bgcolor": "#353"
      },
      {
        "id": 10,
        "type": "CLIPTextEncode",
        "pos": [
          -5666.531450389389,
          -512.2996995468735
        ],
        "size": [
          470,
          142
        ],
        "flags": {},
        "order": 11,
        "mode": 0,
        "inputs": [
          {
            "name": "clip",
            "type": "CLIP",
            "link": 8
          }
        ],
        "outputs": [
          {
            "name": "CONDITIONING",
            "type": "CONDITIONING",
            "links": [
              10
            ]
          }
        ],
        "title": "Negative Prompt",
        "properties": {
          "cnr_id": "comfy-core",
          "ver": "0.9.2",
          "Node name for S&R": "CLIPTextEncode"
        },
        "widgets_values": [
          "blurry, bad, shadow, color, grey, text, watermark, logo, 3d"
        ],
        "color": "#322",
        "bgcolor": "#533"
      },
      {
        "id": 11,
        "type": "KSampler (Efficient)",
        "pos": [
          -4910.919039711857,
          -1342.5000438468037
        ],
        "size": [
          400.1000061035156,
          966.6666870117188
        ],
        "flags": {},
        "order": 12,
        "mode": 0,
        "inputs": [
          {
            "name": "model",
            "type": "MODEL",
            "link": 46
          },
          {
            "name": "positive",
            "type": "CONDITIONING",
            "link": 9
          },
          {
            "name": "negative",
            "type": "CONDITIONING",
            "link": 10
          },
          {
            "name": "latent_image",
            "type": "LATENT",
            "link": 37
          },
          {
            "name": "optional_vae",
            "shape": 7,
            "type": "VAE",
            "link": 13
          },
          {
            "name": "script",
            "shape": 7,
            "type": "SCRIPT",
            "link": null
          }
        ],
        "outputs": [
          {
            "name": "MODEL",
            "type": "MODEL",
            "links": null
          },
          {
            "name": "CONDITIONING+",
            "type": "CONDITIONING",
            "links": null
          },
          {
            "name": "CONDITIONING-",
            "type": "CONDITIONING",
            "links": null
          },
          {
            "name": "LATENT",
            "type": "LATENT",
            "links": null
          },
          {
            "name": "VAE",
            "type": "VAE",
            "links": null
          },
          {
            "name": "IMAGE",
            "type": "IMAGE",
            "links": [
              14,
              39
            ]
          }
        ],
        "properties": {
          "cnr_id": "efficiency-nodes-comfyui",
          "ver": "1.0.8",
          "Node name for S&R": "KSampler (Efficient)"
        },
        "widgets_values": [
          -1,
          null,
          9,
          1,
          "euler",
          "beta",
          0.95,
          "auto",
          "true"
        ],
        "color": "#223333",
        "bgcolor": "#335555",
        "shape": "box"
      },
      {
        "id": 13,
        "type": "SaveImage",
        "pos": [
          -4410.454991760358,
          -1352.0147262989403
        ],
        "size": [
          461.7833251953125,
          344
        ],
        "flags": {},
        "order": 13,
        "mode": 0,
        "inputs": [
          {
            "name": "images",
            "type": "IMAGE",
            "link": 14
          },
          {
            "name": "filename_prefix",
            "type": "STRING",
            "widget": {
              "name": "filename_prefix"
            },
            "link": 43
          }
        ],
        "outputs": [],
        "properties": {
          "cnr_id": "comfy-core",
          "ver": "0.17.2"
        },
        "widgets_values": [
          "Icons/apps-"
        ]
      },
      {
        "id": 27,
        "type": "EmptyLatentImagePresets",
        "pos": [
          -5667.00817017662,
          -1285.0941541281916
        ],
        "size": [
          285.0833435058594,
          214.6666717529297
        ],
        "flags": {},
        "order": 3,
        "mode": 0,
        "inputs": [],
        "outputs": [
          {
            "name": "Latent",
            "type": "LATENT",
            "links": [
              37
            ]
          },
          {
            "name": "Width",
            "type": "INT",
            "links": null
          },
          {
            "name": "Height",
            "type": "INT",
            "links": null
          }
        ],
        "properties": {
          "cnr_id": "comfyui-kjnodes",
          "ver": "c88ac88a8f8a6a090a0d5d607156090cb2911503",
          "Node name for S&R": "EmptyLatentImagePresets"
        },
        "widgets_values": [
          "512 x 512 (1:1)",
          false,
          1
        ]
      },
      {
        "id": 32,
        "type": "SaveSVGNode",
        "pos": [
          -3794.3447683512736,
          -769.394640792226
        ],
        "size": [
          270,
          344
        ],
        "flags": {},
        "order": 16,
        "mode": 0,
        "inputs": [
          {
            "name": "svg",
            "type": "SVG",
            "link": 42
          },
          {
            "name": "filename_prefix",
            "type": "STRING",
            "widget": {
              "name": "filename_prefix"
            },
            "link": 44
          }
        ],
        "outputs": [],
        "properties": {
          "cnr_id": "comfy-core",
          "ver": "0.17.2",
          "Node name for S&R": "SaveSVGNode"
        },
        "widgets_values": [
          "Icons/apps-"
        ]
      },
      {
        "id": 33,
        "type": "TS_ImageToSVGStringBW_Vtracer",
        "pos": [
          -4400.364259259381,
          -795.4557589508681
        ],
        "size": [
          314.01666259765625,
          234.66665649414062
        ],
        "flags": {},
        "order": 14,
        "mode": 0,
        "inputs": [
          {
            "name": "image",
            "type": "IMAGE",
            "link": 39
          }
        ],
        "outputs": [
          {
            "name": "STRING",
            "shape": 6,
            "type": "STRING",
            "links": [
              41
            ]
          }
        ],
        "properties": {
          "cnr_id": "comfyui-tosvg",
          "ver": "1.0.1",
          "Node name for S&R": "TS_ImageToSVGStringBW_Vtracer"
        },
        "widgets_values": [
          "spline",
          4,
          60,
          4,
          45
        ]
      },
      {
        "id": 34,
        "type": "TS_SVGStringToSVGBytesIO",
        "pos": [
          -4063.4374667320835,
          -778.452498606564
        ],
        "size": [
          225,
          72
        ],
        "flags": {},
        "order": 15,
        "mode": 0,
        "inputs": [
          {
            "name": "SVG_String",
            "type": "STRING",
            "link": 41
          }
        ],
        "outputs": [
          {
            "name": "SVG",
            "type": "SVG",
            "links": [
              42
            ]
          }
        ],
        "properties": {
          "cnr_id": "comfyui-tosvg",
          "ver": "1.0.1",
          "Node name for S&R": "TS_SVGStringToSVGBytesIO"
        },
        "widgets_values": []
      },
      {
        "id": 35,
        "type": "PrimitiveString",
        "pos": [
          -4406.641160719731,
          -1528.3044087956766
        ],
        "size": [
          270,
          108
        ],
        "flags": {},
        "order": 4,
        "mode": 0,
        "inputs": [],
        "outputs": [
          {
            "name": "STRING",
            "type": "STRING",
            "links": [
              43,
              44
            ]
          }
        ],
        "properties": {
          "cnr_id": "comfy-core",
          "ver": "0.17.2",
          "Node name for S&R": "PrimitiveString"
        },
        "widgets_values": [
          "Icons/drink-"
        ]
      },
      {
        "id": 36,
        "type": "ModelPatchLoader",
        "pos": [
          -7059.349162382171,
          -330.05096515266234
        ],
        "size": [
          427.6000061035156,
          106.66667175292969
        ],
        "flags": {},
        "order": 5,
        "mode": 0,
        "inputs": [],
        "outputs": [
          {
            "name": "MODEL_PATCH",
            "type": "MODEL_PATCH",
            "links": [
              45
            ]
          }
        ],
        "properties": {
          "cnr_id": "comfy-core",
          "ver": "0.16.3",
          "Node name for S&R": "ModelPatchLoader"
        },
        "widgets_values": [
          "Z-Image-Turbo-Fun-Controlnet-Union-2.1.safetensors"
        ]
      },
      {
        "id": 37,
        "type": "ZImageFunControlnet",
        "pos": [
          -6611.265442119757,
          -335.79153412026005
        ],
        "size": [
          361.6000061035156,
          224
        ],
        "flags": {},
        "order": 9,
        "mode": 0,
        "inputs": [
          {
            "name": "model",
            "type": "MODEL",
            "link": 47
          },
          {
            "name": "model_patch",
            "type": "MODEL_PATCH",
            "link": 45
          },
          {
            "name": "vae",
            "type": "VAE",
            "link": 48
          },
          {
            "name": "image",
            "shape": 7,
            "type": "IMAGE",
            "link": 50
          },
          {
            "name": "inpaint_image",
            "shape": 7,
            "type": "IMAGE",
            "link": null
          },
          {
            "name": "mask",
            "shape": 7,
            "type": "MASK",
            "link": null
          }
        ],
        "outputs": [
          {
            "name": "MODEL",
            "type": "MODEL",
            "links": [
              46
            ]
          }
        ],
        "properties": {
          "cnr_id": "comfy-core",
          "ver": "0.16.3",
          "Node name for S&R": "ZImageFunControlnet"
        },
        "widgets_values": [
          0.7
        ]
      },
      {
        "id": 38,
        "type": "LoadImage",
        "pos": [
          -6229.446754309989,
          -560.5882460454854
        ],
        "size": [
          458.8333435058594,
          788.2999877929688
        ],
        "flags": {},
        "order": 6,
        "mode": 0,
        "inputs": [],
        "outputs": [
          {
            "name": "IMAGE",
            "type": "IMAGE",
            "links": [
              50
            ]
          },
          {
            "name": "MASK",
            "type": "MASK",
            "links": null
          }
        ],
        "title": "Reference",
        "properties": {
          "cnr_id": "comfy-core",
          "ver": "0.9.2",
          "Node name for S&R": "LoadImage"
        },
        "widgets_values": [
          "drink-_00033_.png",
          "image"
        ],
        "color": "#322",
        "bgcolor": "#533"
      }
    ],
    "links": [
      [
        4,
        6,
        0,
        7,
        0,
        "MODEL"
      ],
      [
        5,
        7,
        0,
        8,
        0,
        "MODEL"
      ],
      [
        6,
        5,
        0,
        8,
        1,
        "CLIP"
      ],
      [
        7,
        8,
        1,
        9,
        0,
        "CLIP"
      ],
      [
        8,
        8,
        1,
        10,
        0,
        "CLIP"
      ],
      [
        9,
        9,
        0,
        11,
        1,
        "CONDITIONING"
      ],
      [
        10,
        10,
        0,
        11,
        2,
        "CONDITIONING"
      ],
      [
        13,
        4,
        0,
        11,
        4,
        "VAE"
      ],
      [
        14,
        11,
        5,
        13,
        0,
        "IMAGE"
      ],
      [
        37,
        27,
        0,
        11,
        3,
        "LATENT"
      ],
      [
        39,
        11,
        5,
        33,
        0,
        "IMAGE"
      ],
      [
        41,
        33,
        0,
        34,
        0,
        "STRING"
      ],
      [
        42,
        34,
        0,
        32,
        0,
        "SVG"
      ],
      [
        43,
        35,
        0,
        13,
        1,
        "STRING"
      ],
      [
        44,
        35,
        0,
        32,
        1,
        "STRING"
      ],
      [
        45,
        36,
        0,
        37,
        1,
        "MODEL_PATCH"
      ],
      [
        46,
        37,
        0,
        11,
        0,
        "MODEL"
      ],
      [
        47,
        8,
        0,
        37,
        0,
        "MODEL"
      ],
      [
        48,
        4,
        0,
        37,
        2,
        "VAE"
      ],
      [
        50,
        38,
        0,
        37,
        3,
        "IMAGE"
      ]
    ],
    "groups": [],
    "config": {},
    "extra": {
      "ds": {
        "scale": 1.0152559799477976,
        "offset": [
          5795.190465597461,
          1195.0257534974153
        ]
      },
      "workflowRendererVersion": "Vue",
      "frontendVersion": "1.41.20",
      "VHS_latentpreview": false,
      "VHS_latentpreviewrate": 0,
      "VHS_MetadataImage": true,
      "VHS_KeepIntermediate": true
    },
    "version": 0.4
  }
}
                ]]>
            </metadata>
            
<path d="M0 0 C2.189880479819408 -0.0006765480226391674 4.379760885540691 -0.001649465049013088 6.56964111328125 -0.002899169921875 C11.11756111880328 -0.004358425319736625 15.665461244708979 -0.002278635430137399 20.21337890625 0.00244140625 C25.990879808401417 0.008151306017403215 31.768334357328456 0.004840311740977654 37.545833587646484 -0.0011310577392578125 C42.05359231482851 -0.004773336042958931 46.5613403476749 -0.003581606001517912 51.06909942626953 -0.001003265380859375 C53.19777685305462 -0.0003448119087181567 55.32645530937532 -0.001123715071287279 57.45513153076172 -0.003482818603515625 C70.13738511609574 -0.014465792750037565 82.73643243456581 0.2662477403744603 95.390625 1.1328125 C95.390625 1.4628124999999983 95.390625 1.7928124999999966 95.390625 2.1328125 C92.26611967841075 2.3292634333933364 89.1410105455243 2.5134473928250998 86.015625 2.6953125 C85.12617187500001 2.7513867187499983 84.23671875000002 2.8074609374999966 83.3203125 2.865234375 C82.46953124999999 2.91357421875 81.61874999999998 2.9619140625 80.7421875 3.01171875 C79.9566650390625 3.058850097656247 79.171142578125 3.1059814453125014 78.36181640625 3.154541015625 C76.390625 3.1328125 76.390625 3.1328125 74.390625 2.1328125 C72.01196654762384 2.0398529197571023 69.66329902473728 2.006863215171336 67.28466796875 2.019775390625 C66.55299030303956 2.0199686241149877 65.82131263732913 2.0201618576049825 65.06746292114258 2.0203609466552734 C62.630872520339665 2.022662788770454 60.194381016029524 2.0325971688331776 57.7578125 2.04296875 C56.041412818671915 2.0470017825893763 54.32501264099113 2.0508283474238027 52.608612060546875 2.0544586181640625 C35.569020141506144 2.10067605588538 18.53070386363072 2.277632134037269 1.49267578125 2.505126953125 C-2.7360588109209516 2.561423898043209 -6.964846068998213 2.611169731519098 -11.19367790222168 2.659529685974121 C-14.517224113367206 2.6984935297715467 -17.84070822290562 2.7415411728630374 -21.164188385009766 2.7857532501220703 C-22.726149007148706 2.8059138045100056 -24.28812856811024 2.824664967038153 -25.85012435913086 2.841886520385742 C-33.16360859695834 2.924038041758834 -40.36655456047748 3.0302832079681394 -47.609375 4.1328125 C-49.60854547199517 4.194061595342987 -51.60942273616655 4.220311903297919 -53.609375 4.1953125 C-54.55812499999999 4.186289062500002 -55.50687500000001 4.177265625000004 -56.484375 4.16796875 C-57.18562499999999 4.156367187500003 -57.886875 4.144765624999998 -58.609375 4.1328125 C-58.609375 3.8028125000000017 -58.609375 3.4728125000000034 -58.609375 3.1328125 C-50.9447957708943 1.643281064909651 -43.38141708519339 0.9080794500721012 -35.5927734375 0.57470703125 C-34.636146812438966 0.5328785896301298 -33.67952018737793 0.4910501480102525 -32.693904876708984 0.4479541778564453 C-21.79664574363528 0.008641169926036696 -10.904463615676775 -0.012138672813094331 0 0 Z " fill="#000000" transform="translate(245.609375,52.8671875)"/>
<path d="M0 0 C9.142809608186553 0.43591814944929297 18.028545224923846 1.042246097811777 27 3 C27 3.3299999999999983 27 3.6599999999999966 27 4 C17.490951009639616 4.324172124671378 8.386951037314134 3.3341859342375386 -1 2 C-0.6700000000000159 1.3400000000000034 -0.339999999999975 0.6799999999999997 0 0 Z " fill="#000000" transform="translate(369,57)"/>
<path d="M0 0 C10.476054751544467 -0.146531463592936 20.874843006319395 0.316329310751712 31.33203125 0.875 C33.06221522170301 0.9649738835091597 34.79241472329744 1.0546495731485521 36.52262878417969 1.14404296875 C41.0320698727615 1.377817262879347 45.54129131692656 1.6155872573547896 50.05047607421875 1.854248046875 C54.66959033338969 2.0979986236522308 59.288904951826396 2.3378895393640278 63.908203125 2.578125 C72.9389999727334 3.0483493501380394 81.9695690556724 3.5228037404466193 91 4 C91 4.329999999999998 91 4.659999999999997 91 5 C67.62083353300318 5.236951011489836 44.26664728252061 4.501474241301352 20.9375 3 C19.642153320312502 2.9170166015624943 18.346806640625005 2.834033203125003 17.01220703125 2.74853515625 C11.300188833736598 2.361961926289311 5.649417004900101 1.940170437665401 0 1 C0 0.6700000000000017 0 0.3400000000000034 0 0 Z " fill="#000000" transform="translate(136,87)"/>
<path d="M0 0 C0 0.3299999999999983 0 0.6599999999999966 0 1 C-14.679382138945243 1.7578535883898638 -29.301365392113098 2.13651982607945 -44 2 C-44 1.6700000000000017 -44 1.3400000000000034 -44 1 C-29.346946784395357 -0.27417854048735535 -14.696526232430585 -0.10068235719940333 0 0 Z " fill="#000000" transform="translate(338,90)"/>
<path d="M0 0 C0.7044210433959961 -0.0005891418457011355 1.4088420867919922 -0.0011782836914093764 2.1346092224121094 -0.0017852783203125 C147.64311937567822 -0.08698948478880197 147.64311937567822 -0.08698948478880197 174.9375 20.25 C176.60432077666792 23.58364155333588 176.0904697886212 27.311541679973885 176.07337951660156 30.974807739257813 C176.07070385038855 31.86765356361866 176.0680281841755 32.76049938797951 176.06527143716812 33.680401146411896 C175.98767229476357 44.02468637380922 175.38747925904818 54.330037421922256 174.763427734375 64.653076171875 C174.63621606252804 66.83023284003441 174.50953521508757 69.00742057742565 174.3833351135254 71.18463611602783 C174.11155356972574 75.85481073908456 173.83618800378298 80.52475468236622 173.55795860290527 85.19454956054688 C173.11114260087902 92.69559040683635 172.67291678195937 100.19711937123654 172.2357940673828 107.69873046875 C171.61118243528352 118.40516259310368 170.98319838509826 129.11138998316594 170.3526611328125 139.81747436523438 C168.7646874824211 166.78476981425388 167.19416528957817 193.75308183934382 165.63110250234604 220.7218318283558 C165.51157617034437 222.7837095569153 165.3919740363067 224.84558287669716 165.27235460281372 226.90745520591736 C163.24973790934467 261.77671061834974 161.28019383822777 296.6476525063814 159.51953125 331.53125 C159.4773247599602 332.36620506525037 159.43511826992034 333.2011601305008 159.39163279533386 334.06141686439514 C158.6341380126866 349.05675749386216 157.89263779678225 364.0528359225496 157.18240970373154 379.0504928827286 C156.9065844021199 384.8735942038066 156.62451144345494 390.69638224076067 156.3407802581787 396.51910400390625 C156.17875467501284 399.89943832055286 156.0258856867017 403.28009265938584 155.8738555908203 406.660888671875 C155.7779983506352 408.64788916131073 155.68172910804964 410.63486983700443 155.5849609375 412.621826171875 C155.54865790367126 413.4929262065887 155.5123548698425 414.3640262413025 155.4749517440796 415.26152324676514 C155.05734128257512 423.4555521334482 154.15206174629833 430.3116409979816 147.9375 436.25 C142.3194782251586 439.1528852872574 136.99242191224783 440.0749554231597 130.75 440.8125 C129.7379248046875 440.93616943359376 128.72584960937502 441.0598388671875 127.68310546875 441.187255859375 C84.20449629939594 446.28152497763216 40.01826154426834 446.60460277607604 -3.701416015625 446.5107421875 C-9.0566560696966 446.49934177910524 -14.411697234420899 446.50615315514756 -19.76693058013916 446.5176248550415 C-42.19828576444766 446.5582233451338 -64.58708661763339 446.273698806289 -87 445.32421875 C-87.97728120803833 445.2829863739014 -88.95456241607667 445.24175399780273 -89.96145820617676 445.1992721557617 C-111.37485821293353 444.2742384039142 -133.00737344581418 443.3134935803601 -154.19140625 439.90234375 C-154.5407396697998 439.8506427764893 -154.5407396697998 439.8506427764893 -156.30857849121094 439.58900451660156 C-162.16260378614982 438.5801792308995 -166.04293352916068 436.15736833357045 -170.3125 432.125 C-174.36613012573184 425.4654647934405 -174.39480851304 416.9396633747956 -174.7242889404297 409.3119812011719 C-174.77152404487134 408.3621148765087 -174.81875914931297 407.41224855184555 -174.86742562055588 406.4335983991623 C-175.02291708559403 403.274872848646 -175.1679256691861 400.1157520464213 -175.313232421875 396.95654296875 C-175.42389121712773 394.67824710150626 -175.53534837525444 392.39998989334487 -175.64753913879395 390.121768951416 C-175.88840383651467 385.20973044540534 -176.12521014527306 380.2975201295798 -176.35891151428223 375.38513565063477 C-176.9639556492167 362.6912004483705 -177.59795434970874 349.9986872386015 -178.23280362784863 337.3062138259411 C-178.33798969021385 335.20211816755625 -178.44293376611444 333.0980105357068 -178.5478516817093 330.99390149116516 C-180.109860643403 299.698323904178 -181.86863784557843 268.41514278622 -183.67578125 237.1328125 C-183.82888899461028 234.47866580397795 -183.98199441226282 231.82451897372152 -184.1350975036621 229.17037200927734 C-184.97682038806317 214.58921277575163 -185.82389996962598 200.008368462221 -186.67346942424774 185.42766451835632 C-187.22940394513952 175.88385916246654 -187.78304762196532 166.33992303284404 -188.335205078125 156.7958984375 C-188.37488127209247 156.11010633483528 -188.41455746605993 155.4243142321706 -188.4554359689355 154.71774055063725 C-188.61517825161332 151.95651492421317 -188.7749085865812 149.19528860700535 -188.93462278321385 146.43406135588884 C-190.1431221236034 125.54141094810615 -191.353314542816 104.64885735661369 -192.56953239440918 83.75665473937988 C-192.69339990797744 81.628256208175 -192.8171565617696 79.49985122154199 -192.94078826904297 77.37143898010254 C-193.67998720399618 64.64840996582932 -194.44511244824128 51.92759972212146 -195.2565050125122 39.20895576477051 C-195.3998717311207 36.84725753619682 -195.48885675907837 34.489766291816494 -195.5625 32.125 C-195.616640625 31.341250000000002 -195.67078125 30.557500000000005 -195.7265625 29.75 C-195.8019314496449 26.552203136494725 -195.69819105291498 24.225927759071368 -193.92578125 21.5048828125 C-168.92764564378695 -3.138340991896442 -92.50251284028968 2.698143493049905 -59.448333740234375 1.3497314453125 C-56.75014564863241 1.2369431174577628 -54.05250422193674 1.1136286518393135 -51.354736328125 0.9912109375 C-34.23734334762622 0.24251804837951596 -17.13241031563004 0.006626427813877456 0 0 Z M-140.4375 14.75 C-141.12263671875002 14.845602111816405 -141.8077734375 14.941204223632809 -142.513671875 15.039703369140625 C-154.84542428379365 16.787766869893247 -167.28133896917666 19.12785598843586 -179.0625 23.25 C-179.0625 23.909999999999997 -179.0625 24.57 -179.0625 25.25 C-92.42568622741601 53.824949103939986 23.75254296313824 43.54680892884019 128.5 31.8125 C129.27838226318357 31.715125427246093 130.0567645263672 31.617750854492186 130.85873413085938 31.517425537109375 C141.0287793931576 30.226980154277612 151.2364104957507 28.688068175440108 160.9375 25.25 C161.26749999999998 24.590000000000003 161.59750000000003 23.93 161.9375 23.25 C151.74103626343975 19.551767507905282 141.65346637964728 16.93222910381123 130.9375 15.1875 C130.56616943359376 15.12560485839844 130.56616943359376 15.12560485839844 128.68701171875 14.8123779296875 C40.94805624380626 0.2770871296796926 -52.548263681786096 2.3069221202995607 -140.4375 14.75 Z M-183.0625 33.25 C-183.51705588303977 54.694094667478055 -182.20596186523227 76.02551977126504 -180.9839096069336 97.42427062988281 C-180.69359579506784 102.52773081577249 -180.4100429277377 107.63156763147259 -180.12548828125 112.7353515625 C-179.66463657209408 120.98381854500596 -179.19876107369072 129.231988338166 -178.7294921875 137.47998046875 C-178.25978618998641 145.7375114709293 -177.79809614115288 153.9954402497832 -177.34432220458984 162.25386142730713 C-177.00062471818592 168.50874489573386 -176.65280669078751 174.76338673619114 -176.30103302001953 181.01782131195068 C-176.10267047517064 184.54490444917727 -175.90570074371274 188.072045323257 -175.7132568359375 191.59945678710938 C-174.63637181562353 211.20590522425007 -173.02143425487117 230.7151736984111 -171.0625 250.25 C-170.73250000000002 250.25 -170.4025 250.25 -170.0625 250.25 C-169.9284375 249.7859375 -169.9284375 249.7859375 -169.25 247.4375 C-168.0625 244.25 -168.0625 244.25 -166.47911071777344 242.93478393554688 C-165.0625 241.25 -165.0625 241.25 -164.90260314941406 238.49661254882813 C-165.00378952026367 237.37769622802733 -165.10497589111327 236.25877990722654 -165.209228515625 235.10595703125 C-165.26302673339842 234.46702766418457 -165.26302673339842 234.46702766418457 -165.5352783203125 231.23365783691406 C-165.6703290717085 229.82501150649938 -165.805714852625 228.41639726291692 -165.94140625 227.0078125 C-166.07061219304973 225.5450803221146 -166.19839192054064 224.08222154401682 -166.3248291015625 222.61924743652344 C-166.59757119062385 219.49939327282516 -166.8804820905299 216.38069143538596 -167.17141723632813 213.26248168945313 C-167.63076312495866 208.33844225561137 -168.0666595573761 203.41249116683002 -168.499755859375 198.486083984375 C-169.68192712396439 185.09960644585584 -170.91760068549215 171.71827297691678 -172.1875 158.33984375 C-172.50249115031966 154.9976245524448 -172.81478173993577 151.65516543274776 -173.125 148.3125 C-173.20037994384765 147.50561737060548 -173.2757598876953 146.69873474121096 -173.35342407226563 145.86740112304688 C-176.43874332524803 112.4049404585468 -178.0641914619983 78.79129809546785 -180.0625 45.25 C-179.4025 45.25 -178.7425 45.25 -178.0625 45.25 C-178.02057022094726 45.84385498046875 -177.97864044189453 46.4377099609375 -177.93544006347656 47.049560546875 C-176.53388703499814 66.62903810183707 -174.69404010253984 86.15450799186026 -172.75441360473633 105.68647003173828 C-172.49688732651936 108.28136401356107 -172.24041454413774 110.87636054824478 -171.98410034179688 113.47137451171875 C-169.19988769972178 141.624445608153 -166.22121760814355 169.75462425641985 -163.125 197.875 C-163.02612865447998 198.7736981201172 -162.92725730895995 199.67239624023438 -162.82538986206055 200.59832763671875 C-162.16941354895175 206.55810391434517 -161.50978436739084 212.51746679128047 -160.84765625 218.4765625 C-160.76310810089112 219.23981464385986 -160.67855995178223 220.00306678771972 -160.59144973754883 220.78944778442383 C-160.35391353216522 222.9308938869417 -160.11484529824625 225.0721629811846 -159.875244140625 227.21337890625 C-159.74171035766602 228.41024322509764 -159.60817657470704 229.6071075439453 -159.47059631347656 230.84024047851563 C-159.05424184811437 234.31899918252623 -158.5713183376335 237.78366103176904 -158.0625 241.25 C-154.05871795501798 242.58459401499397 -151.48351644627624 241.25270481061762 -147.6875 239.875 C-143.50404844266131 238.38791370422723 -139.42886456133346 237.0857217598042 -135.0625 236.25 C-133.54713412738832 235.90427969751664 -132.03283605400952 235.5538521178421 -130.51953125 235.19921875 C-116.48438031214255 232.02374211020333 -102.4889404789703 230.04871420872638 -88.200439453125 228.506591796875 C-87.48365020751953 228.428719329834 -86.76686096191406 228.350846862793 -86.02835083007813 228.27061462402344 C-84.06716361274025 228.0595672861216 -82.10525537731303 227.85525137669174 -80.143310546875 227.6513671875 C-77.06250000000006 227.25 -77.06250000000006 227.25 -74.0625 226.25 C-73.29710153576178 223.91463067013922 -72.71235413248897 221.70215711832293 -72.1875 219.3125 C-68.48500874140251 204.2912177187164 -61.30824994462199 194.24834242901946 -48.04736328125 186.032958984375 C-43.28426407075244 183.1878000170706 -38.45134980354399 180.49745951015547 -33.5625 177.875 C-32.46591064453125 177.28630126953124 -31.369321289062498 176.6976025390625 -30.239501953125 176.091064453125 C39.22944556340673 139.19363811650555 39.22944556340673 139.19363811650555 57.90234375 144.015625 C62.53220488933829 146.04163511336222 65.3966855419477 148.4833687474116 68.20703125 152.66796875 C68.80789550781253 153.556455078125 69.408759765625 154.44494140625 70.02783203125 155.3603515625 C70.6580224609375 156.313935546875 71.288212890625 157.26751953125 71.9375 158.25 C72.58444824218748 159.221630859375 73.23139648437501 160.19326171875 73.89794921875 161.1943359375 C75.98689817938862 164.35022933948002 78.05852754963047 167.51684708003398 80.125 170.6875 C80.49400421142576 171.25281433105468 80.86300842285158 171.8181286621094 81.24319458007813 172.40057373046875 C86.9794593741143 181.19013870376813 92.66375106492814 190.0104881649875 98.203125 198.92578125 C100.01668576181675 201.8328124711474 101.90102335510284 204.66909677913793 103.859375 207.48046875 C109.8304360822275 216.20335632372579 112.5152693805137 222.3743410726836 111.9375 233.25 C114.85246830530838 234.0897028039983 117.76921859765196 234.9219600315423 120.6875 235.75 C121.51249999999999 235.9884765625 122.33749999999998 236.22695312500002 123.1875 236.47265625 C123.98671875000002 236.6982421875 124.78593749999999 236.923828125 125.609375 237.15625 C126.342529296875 237.36572265625 127.07568359375 237.5751953125 127.8310546875 237.791015625 C129.93750000000006 238.25 129.93750000000006 238.25 133.9375 238.25 C135.61596104198867 223.07937025594822 137.18956341868596 207.90280891112297 138.62109375 192.70703125 C138.65676767349242 192.3292648124695 138.65676767349242 192.3292648124695 138.83729934692383 190.41753768920898 C139.49904816876818 183.40888187482463 140.15784644608863 176.39995365043654 140.809814453125 169.390380859375 C142.54456278606227 150.7599865454934 144.48104992345657 132.17787079339448 146.7884578704834 113.60941410064697 C147.9507562162333 104.24935917158831 148.9770477178144 94.88172707683708 149.893310546875 85.49462890625 C150.13189039031226 83.05452778886104 150.37719021596018 80.6151590279851 150.623046875 78.17578125 C151.47976471505262 69.57483425305932 152.2038781164223 60.9865238884023 152.684814453125 52.35595703125 C152.91096971107288 49.576104672204025 153.32267972975404 46.966913992985596 153.9375 44.25 C156.2475 43.59 158.5575 42.93000000000001 160.9375 42.25 C160.81125244140622 43.50852783203125 160.6850048828125 44.7670556640625 160.554931640625 46.063720703125 C159.64343393381841 55.29989182048047 158.80895610608388 64.53274206903647 158.18359375 73.79296875 C156.2700850123992 101.7363003101114 153.5252942084855 129.54075943717777 150.4375 157.375 C150.34130748748777 158.24326290130614 150.2451149749756 159.1115258026123 150.1460075378418 160.00609970092773 C148.41025799199775 175.66144328648016 146.66668369025666 191.31590217281357 144.765625 206.9521484375 C144.5771521321397 208.5125992918601 144.38871558313684 210.07305453332702 144.2003173828125 211.63351440429688 C143.85070928263985 214.52726423627328 143.49325261966726 217.4198844409189 143.1307373046875 220.31204223632813 C142.27610001853276 227.35404107399512 141.74954132513182 234.1562687389531 141.9375 241.25 C143.4225 241.745 143.4225 241.745 150.9375 244.25 C152.81357410836063 242.37392589163937 152.35280686038914 239.1923630638306 152.538330078125 236.67578125 C152.5906516647339 235.98182439804077 152.64297325134277 235.28786754608154 152.69688034057617 234.5728816986084 C152.87163648439446 232.23641042923066 153.03947508657404 229.89949792238883 153.20703125 227.5625 C153.32900910584658 225.9025389738971 153.45124262536916 224.24259671728385 153.57371520996094 222.58267211914063 C153.90421265091226 218.07867724047964 154.22756471774977 213.57419632966162 154.54872131347656 209.06952667236328 C154.7497487995218 206.25351883480917 154.95240795578138 203.43763230530035 155.1553955078125 200.62176513671875 C157.64385504553843 166.0268389792796 159.6680095579302 131.41650090654338 161.44439601898193 96.77849769592285 C161.8190770068298 89.47621256143978 162.21265773988313 82.17525011301461 162.625 74.875 C162.67509216308594 73.98243499755858 162.72518432617187 73.0898699951172 162.77679443359375 72.17025756835938 C163.14184881172184 65.66676975572182 163.14184881172184 65.66676975572182 163.3126220703125 62.70489501953125 C163.7625132193781 54.876463354844645 164.04678159415653 47.091966247343294 163.9375 39.25 C160.96749999999997 39.58 157.9975 39.91 154.9375 40.25 C157.6230594040308 37.5644405959692 160.31371327575954 37.189500261840124 163.9375 36.25 C163.9375 35.59 163.9375 34.93000000000001 163.9375 34.25 C157.09973512774712 35.28890496520596 150.26718515316497 36.35361693374686 143.44140625 37.46875 C141.45879017164367 37.78855843223363 139.47617260594978 38.108358542447604 137.493408203125 38.42724609375 C135.53192450775651 38.744831083986014 133.5716119578301 39.069622327431475 131.611328125 39.39453125 C124.03038711434203 40.62280372090629 116.45537616561995 41.54726756950467 108.805419921875 42.22607421875 C107.84961406707765 42.311400966644285 106.89380821228025 42.39672771453857 105.90903854370117 42.48464012145996 C68.6162833131001 45.75635856214589 31.421130123121543 46.740338657530714 -6.00439453125 46.64111328125 C-12.51996921263202 46.62398715207105 -19.03517694293535 46.634225995000534 -25.550739288330078 46.65143966674805 C-142.73495199221236 46.913451037050464 -142.73495199221236 46.913451037050464 -178.784423828125 34.699462890625 C-179.58769607543945 34.42832168579102 -180.3909683227539 34.15718048095704 -181.2185821533203 33.87782287597656 C-181.8270750427246 33.6706413269043 -182.4355679321289 33.46345977783203 -183.0625 33.25 Z M9.9375 168.25 C9.277500000000032 168.91 8.617500000000007 169.57 7.9375 170.25 C9.587499999999977 169.92 11.237500000000011 169.59 12.9375 169.25 C11.947499999999991 168.92 10.957499999999982 168.59 9.9375 168.25 Z M-38.0625 204.25 C-40.87054182165906 210.0820868603688 -41.28541801596825 213.64135859399963 -39.8984375 219.953125 C-38.984157879160705 222.46525778996966 -37.76277264294305 224.20215781126194 -36.0625 226.25 C-36.09859374999999 225.66541015625 -36.09859374999999 225.66541015625 -36.28125 222.70703125 C-36.375078625464084 221.15885892984244 -36.46882425447717 219.61068157803254 -36.5625 218.0625 C-36.6101953125 217.29357421875 -36.65789062499999 216.5246484375 -36.70703125 215.732421875 C-36.93739589493265 211.8984959986208 -37.12411279729048 208.09309823099395 -37.0625 204.25 C-37.39250000000001 204.25 -37.7225 204.25 -38.0625 204.25 Z M-29.0625 240.25 C-28.732499999999987 241.24 -28.402500000000003 242.23000000000002 -28.0625 243.25 C-28.0625 242.26 -28.0625 241.26999999999998 -28.0625 240.25 C-28.392500000000013 240.25 -28.722499999999997 240.25 -29.0625 240.25 Z M-27.0625 243.25 C-26.0625 245.25 -26.0625 245.25 -26.0625 245.25 Z M-170.0625 250.25 C-170.11369464048417 261.44361333697486 -169.9877982573601 272.62284308352446 -169.6875 283.8125 C-169.6667138671875 284.60160766601564 -169.645927734375 285.3907153320313 -169.62451171875 286.2037353515625 C-169.109206831731 305.2308911705851 -168.33461257166928 324.3427775286092 -166.0625 343.25 C-137.58092351983868 355.5484557145637 -137.58092351983868 355.5484557145637 -129.0625 355.25 C-129.39249999999998 355.90999999999997 -129.7225 356.57 -130.0625 357.25 C-128.930703125 357.58773437499997 -127.79890625000002 357.92546875 -126.6328125 358.2734375 C-125.15094077866905 358.7236263773664 -123.66917540827143 359.17416543132936 -122.1875 359.625 C-121.4411328125 359.84671875 -120.694765625 360.0684375 -119.92578125 360.296875 C-114.2890625 362.0234375 -114.2890625 362.0234375 -112.0625 364.25 C-111.8671875 366.80029296875 -111.8671875 366.80029296875 -111.9375 369.9921875 C-111.95296875 371.1407421875 -111.9684375 372.289296875 -111.984375 373.47265625 C-112.03629129758377 375.899743162041 -112.08837355285434 378.3268265300842 -112.140625 380.75390625 C-112.15609375 381.9050390625 -112.1715625 383.056171875 -112.1875 384.2421875 C-112.21070312500001 385.29776855468754 -112.23390624999999 386.35334960937496 -112.2578125 387.44091796875 C-112.05765630735806 390.3196644094228 -111.40997100542413 391.7565944762347 -110.0625 394.25 C-109.775390625 396.210205078125 -109.775390625 396.210205078125 -109.71875 398.26953125 C-109.69031005859375 399.0380541992188 -109.6618701171875 399.8065771484375 -109.632568359375 400.598388671875 C-109.60944580078126 401.41154541015624 -109.58632324218749 402.2247021484375 -109.5625 403.0625 C-109.2289123803063 411.5644763613828 -108.35712222814144 419.84124009100367 -107.0625 428.25 C-107.7225 428.58000000000004 -108.3825 428.90999999999997 -109.0625 429.25 C-109.0625 430.57 -109.0625 431.89 -109.0625 433.25 C-104.14738378810702 436.17487132760743 -99.8598912121866 436.7811650100879 -94.2578125 436.92578125 C-93.32284942626953 436.9585969543457 -92.38788635253906 436.9914126586914 -91.42459106445313 437.0252227783203 C-75.2360035210491 437.51339741950096 -59.02718999315684 437.4459839918974 -42.83295822143555 437.4386787414551 C-39.913143272302676 437.4374900843727 -36.99333190362077 437.43803552612974 -34.073516845703125 437.4386901855469 C-5.871490143401843 437.4373379947328 22.308661375886118 437.08816285038114 50.5 436.3125 C51.30152748107912 436.29068538665774 52.10305496215824 436.2688707733154 52.928871154785156 436.246395111084 C58.245813093235824 436.10101031 63.562425059528266 435.94646758034986 68.87890625 435.78515625 C70.1762217712402 435.74655487060545 71.4735372924805 435.7079534912109 72.81016540527344 435.6681823730469 C98.71148971428534 434.8312640604455 98.71148971428534 434.8312640604455 103.9375 433.25 C103.2578125 431.296875 103.2578125 431.296875 101.9375 429.25 C99.5546875 428.640625 99.5546875 428.640625 96.8125 428.5 C95.90242187500002 428.44328125000004 94.99234374999997 428.38656249999997 94.0546875 428.328125 C93.356015625 428.30234375 92.65734375 428.2765625 91.9375 428.25 C92.95070312500002 428.0682421875 93.96390624999998 427.886484375 95.0078125 427.69921875 C96.35946352570267 427.44578418268077 97.71102119266516 427.19185134857145 99.0625 426.9375 C99.395078125 426.878525390625 99.395078125 426.878525390625 101.078125 426.580078125 C105.4579615269123 425.74275643603147 109.11081601720076 424.5494169332844 112.9375 422.25 C115.22394088049288 418.82033867926066 115.54611047889392 416.55657920053295 116.125 412.5 C116.30417968749998 411.30890625 116.48335937500002 410.1178125 116.66796875 408.890625 C116.94844222223128 405.10220070841206 116.79942323293471 401.94985132435284 115.9375 398.25 C113 396.5625 113 396.5625 109.9375 395.25 C108.68750000000006 393.1250000000001 108.68750000000006 393.1250000000001 107.9375 391.25 C107.27749999999997 390.91999999999996 106.6175 390.59000000000003 105.9375 390.25 C107.11223948403187 386.7257815479043 107.83358207086178 386.5059492436985 110.875 384.625 C113.95980745856559 382.3734768459843 115.52231825480891 380.8670764692258 116.4375 377.125 C117.2580953940755 371.5430429589052 117.10885221720736 365.87606446497443 116.9375 360.25 C113.63749999999999 359.59000000000003 110.33749999999998 358.93 106.9375 358.25 C107.5291796875 358.056640625 107.5291796875 358.056640625 110.5234375 357.078125 C118.76170366238892 354.3692005164909 126.95540069296874 351.65943940250077 134.9375 348.25 C130.88896259075642 346.9004875302521 128.262698092983 348.329212136892 124.4375 349.75 C117.34290540540542 352.38513513513516 117.34290540540542 352.38513513513516 113.9375 351.25 C111.60070121132168 351.90441600692554 109.26778657071304 352.5727604653865 106.9375 353.25 C103.43420265268298 353.56450055731597 99.95216380248974 353.6869926586192 96.4375 353.80859375 C91.86285818078545 354.12486392506895 87.44960899547027 355.13041895181857 82.96784973144531 356.0641784667969 C75.73726604159867 357.5425323145356 68.45428160232763 358.4836238473367 61.125 359.3125 C60.39149322509763 359.3964904785156 59.657986450195324 359.48048095703126 58.902252197265625 359.5670166015625 C29.46323911011018 362.8836246837717 -0.4534246039864911 364.0255857270313 -30.0625 363.25 C-30.82953247070313 363.23044250488283 -31.596564941406257 363.2108850097656 -32.3868408203125 363.19073486328125 C-53.829446098744086 362.6206173424475 -74.97373330540825 361.3517029861444 -96.16650390625 357.927001953125 C-117.0785730781821 354.5886910260607 -117.0785730781821 354.5886910260607 -125.0625 357.25 C-124.89750000000001 356.755 -124.89750000000001 356.755 -124.0625 354.25 C-134.68687757269947 351.19525129464876 -134.68687757269947 351.19525129464876 -139.125 350.6875 C-142.0625 350.25 -142.0625 350.25 -144.0625 348.25 C-143.73250000000002 347.59000000000003 -143.4025 346.93 -143.0625 346.25 C-143.949375 345.59000000000003 -144.83625 344.93 -145.75 344.25 C-151.8476825667339 339.0275142251973 -154.21749594210354 333.48341752881777 -155.95703125 325.703125 C-156.12657821655273 324.9623974609375 -156.29612518310546 324.221669921875 -156.47080993652344 323.45849609375 C-158.51453831185194 314.42174036606343 -160.3465799533032 305.34214068580366 -162.125 296.25 C-162.29958740234375 295.3620071411133 -162.4741748046875 294.47401428222656 -162.654052734375 293.5591125488281 C-165.46634643773638 279.1822782992086 -167.7444166247112 264.8508084417272 -169.0625 250.25 C-169.39249999999998 250.25 -169.7225 250.25 -170.0625 250.25 Z M81.9375 256.25 C81.60750000000002 256.91 81.27749999999997 257.57 80.9375 258.25 C81.92750000000001 257.92 82.91750000000002 257.59 83.9375 257.25 C83.27749999999997 256.92 82.6175 256.59 81.9375 256.25 Z M149.9375 259.25 C148.31093367888985 260.87656632111015 148.49959357251038 262.8492614690166 148.2109375 265.09375 C146.5173081494105 277.650401187523 144.53289871864717 290.08357222831523 141.94586181640625 302.486572265625 C141.65292620589662 303.89154037648257 141.3637064601553 305.2972893507763 141.07855224609375 306.703857421875 C138.31374778335578 320.2712844103719 134.86609995117618 334.0749454401067 124.9375 344.25 C122.04032106993287 346.0584874687686 119.21383531347851 347.30198630975735 115.9375 348.25 C119.17092200710624 349.33740918279074 120.77932911529973 349.19175930506447 123.875 347.8125 C127.0459333041606 346.50856480950404 129.46190301892062 345.9241627830238 132.9375 346.25 C132.9375 345.26 132.9375 344.27 132.9375 343.25 C133.39511718749998 343.0553515625 133.39511718749998 343.0553515625 135.7109375 342.0703125 C136.89945312499998 341.510859375 138.08796875000002 340.95140625 139.3125 340.375 C140.495859375 339.841328125 141.67921875000002 339.30765625 142.8984375 338.7578125 C146.6357632646176 335.67379818009704 147.0070860439585 333.9741784246452 147.658203125 329.31494140625 C148.23318453536893 323.00522407603023 148.6709124233409 316.7012361388516 149 310.375 C149.08288531980662 308.8766931771288 149.1660597870789 307.3784023239438 149.24951171875 305.880126953125 C151.00003049464055 273.8179597119149 151.00003049464055 273.8179597119149 150.9375 259.25 C150.60750000000002 259.25 150.27750000000003 259.25 149.9375 259.25 Z M61.9375 268.25 C59.3125 269.6875 59.3125 269.6875 56.9375 271.25 C57.26750000000004 271.415 57.26750000000004 271.415 58.9375 272.25 C61.5625 270.8125 61.5625 270.8125 63.9375 269.25 C63.277499999999975 268.92 62.61750000000001 268.59 61.9375 268.25 Z M49.8046875 273.78125 C48.9990234375 274.0970703125 48.193359375 274.412890625 47.36328125 274.73828125 C46.521523437500036 275.0721484375 45.67976562499996 275.406015625 44.8125 275.75 C43.963007812499995 276.0838671875 43.11351562499999 276.417734375 42.23828125 276.76171875 C40.13681446636406 277.5881382716546 38.036636089604315 278.4176821048752 35.9375 279.25 C36.59749999999997 279.91 37.25749999999999 280.57 37.9375 281.25 C40.379025513393344 280.32204011852576 42.81534968079575 279.3831906198562 45.25 278.4375 C45.59514648437499 278.306982421875 45.59514648437499 278.306982421875 47.341796875 277.646484375 C53.63923463983053 275.1822695974576 53.63923463983053 275.1822695974576 55.9375 272.25 C53.5475561683088 272.25 52.028827080464396 272.9041245316478 49.8046875 273.78125 Z M33.9375 280.25 C34.9375 282.25 34.9375 282.25 34.9375 282.25 Z M140.11328125 342.02734375 C139.4983984375 342.4101953125 138.88351562499997 342.793046875 138.25 343.1875 C137.156875 343.868125 136.06375000000003 344.54875 134.9375 345.25 C137.9375 346.25 137.9375 346.25 139.76171875 345.47265625 C140.3766015625 345.0898046875 140.99148437500003 344.706953125 141.625 344.3125 C142.1715625 343.9721875 142.1715625 343.9721875 144.9375 342.25 C141.9375 341.25 141.9375 341.25 140.11328125 342.02734375 Z M-143.0625 347.25 C-142.4025 347.91 -141.7425 348.57 -141.0625 349.25 C-138.9375 348.875 -138.9375 348.875 -137.0625 348.25 C-138.0525 348.085 -138.0525 348.085 -143.0625 347.25 Z M-137.0625 349.25 C-133.0625 350.25 -133.0625 350.25 -133.0625 350.25 Z M108.9375 350.25 C112.9375 351.25 112.9375 351.25 112.9375 351.25 Z M-129.0625 351.25 C-125.0625 352.25 -125.0625 352.25 -125.0625 352.25 Z M104.9375 351.25 C108.9375 352.25 108.9375 352.25 108.9375 352.25 Z M-125.0625 352.25 C-121.0625 353.25 -121.0625 353.25 -121.0625 353.25 Z M-121.0625 353.25 C-117.0625 354.25 -117.0625 354.25 -117.0625 354.25 Z " fill="#000000" transform="translate(266.0625,37.75)"/>
<path d="M0 0 C4.949999999999989 0 9.899999999999977 0 15 0 C15 0.3299999999999841 15 0.660000000000025 15 1 C7.945469992610754 2.204431952481116 1.16562789486062 3.281005015484709 -6 3 C-6 2.670000000000016 -6 2.339999999999975 -6 2 C-4.019999999999982 1.670000000000016 -2.0400000000000205 1.339999999999975 0 1 C0 0.6700000000000159 0 0.339999999999975 0 0 Z " fill="#000000" transform="translate(358,393)"/>
<path d="M0 0 C7.2237718817596885 1.3468758227716648 14.416696836944595 2.382102802152474 21.733154296875 3.08056640625 C22.508847656249998 3.1558959960937614 23.284541015624995 3.2312255859375227 24.083740234375 3.308837890625 C39.346939008266105 4.676127663900843 54.63093214365597 5.11656701498174 69.947998046875 5.12353515625 C71.66980513957014 5.126767342432004 73.39161198671124 5.130132679730707 75.11341857910156 5.1336212158203125 C78.6957360185491 5.139546434015529 82.27802958449735 5.141468132710486 85.8603515625 5.140869140625 C89.46782474195223 5.140788157524867 93.07517017893133 5.1476981090572735 96.6826171875 5.161376953125 C123.34602744754352 5.260860563218557 149.80822799673933 5.055739579963927 176.186279296875 0.63916015625 C188.48945903252206 -1.4137541368492634 188.48945903252206 -1.4137541368492634 193.358154296875 -0.04443359375 C193.358154296875 0.2855664062499841 193.358154296875 0.615566406250025 193.358154296875 0.95556640625 C25.133530975047307 23.849844580199203 25.133530975047307 23.849844580199203 -16.641845703125 -1.04443359375 C-12.011618802467865 -3.3595470440785675 -4.907523948190516 -0.9213931484366071 0 0 Z " fill="#000000" transform="translate(163.641845703125,397.04443359375)"/>
<path d="M0 0 C6.27000000000001 0 12.539999999999992 0 19 0 C19 0.3299999999999841 19 0.660000000000025 19 1 C12.72999999999999 1 6.460000000000008 1 0 1 C0 0.6700000000000159 0 0.339999999999975 0 0 Z " fill="#000000" transform="translate(175,467)"/>
<path d="M0 0 C7.590000000000003 0.3299999999999841 15.180000000000007 0.660000000000025 23 1 C19.775518528680436 3.1496543142130236 19.200690347416923 3.221522842108527 15.55078125 2.9765625 C14.703222656250006 2.9250000000000114 13.855664062500011 2.8734375000000227 12.982421875 2.8203125 C12.101347656249999 2.755859375 11.220273437499998 2.69140625 10.3125 2.625 C9.419824218749994 2.568281249999984 8.527148437499989 2.511562500000025 7.607421875 2.453125 C5.4041258682011915 2.3117370209540695 3.2019846131742327 2.1603402236676175 1 2 C0.6699999999999875 1.339999999999975 0.3400000000000034 0.6800000000000068 0 0 Z " fill="#000000" transform="translate(195,467)"/>
<path d="M0 0 C0 0.3299999999999841 0 0.660000000000025 0 1 C-27.234323931014217 1.8338725134465221 -54.439525249470535 2.1350750799873026 -81.685791015625 2.06866455078125 C-86.48843919752693 2.058144305566259 -91.29109344542042 2.053807776412839 -96.09375 2.048828125 C-105.39584811617519 2.038333249085042 -114.69792107664429 2.0214380659998596 -124 2 C-124 1.670000000000016 -124 1.339999999999975 -124 1 C-112.52092391893021 0.826900004911181 -101.04175819810433 0.6605664420432618 -89.5625 0.5 C-88.71365108489988 0.48812274932862465 -87.86480216979982 0.4762454986572493 -86.99023056030273 0.4640083312988281 C-57.991517167949894 0.060482457229113606 -29.001867898892726 -0.13913361970833193 0 0 Z " fill="#000000" transform="translate(345,467)"/>
<path d="M0 0 C7.9199999999999875 0 15.840000000000003 0 24 0 C24 0.3299999999999841 24 0.660000000000025 24 1 C16.079999999999984 1 8.159999999999997 1 0 1 C0 0.6700000000000159 0 0.339999999999975 0 0 Z " fill="#000000" transform="translate(181,471)"/>
</svg>
