<?xml version="1.0" encoding="UTF-8"?>
<svg xmlns="http://www.w3.org/2000/svg" version="1.1" viewBox="0 0 512 512">
  <!-- Generator: Adobe Illustrator 30.2.1, SVG Export Plug-In . SVG Version: 2.1.1 Build 1)  -->
  <defs>
    <style>
      .st0 {
        stroke: #000;
        stroke-miterlimit: 10;
        stroke-width: 2px;
      }
    </style>
  </defs>
  <g id="Layer_1">
    <path d="M282,54h16v1h-16v-1Z"/>
    <path d="M351,81v1c-56.1,5.74-113.29,6.27-169.62,4.56q-.65-.02-3.92-.12-20.35-.7-24.46-3.44.65.04,3.93.21c20.62,1.01,41.24.99,61.87.98,3.04,0,6.08,0,9.11,0,32.68,0,65.27-.51,97.9-2.48.77-.05,1.54-.09,2.33-.14,2.05-.13,4.1-.25,6.15-.39,5.57-.28,11.13-.27,16.71-.19Z"/>
    <path class="st0" d="M272.24,45.75c3.51,0,7.03-.01,10.54-.02,43.52-.09,87.55.1,130.72,6.14,1.1.15,2.21.3,3.35.45,6.71,1.01,13.13,2.42,19.15,5.67,1.18,2.37,1.13,3.8,1.13,6.43q0,.46,0,2.77c0,.99,0,1.99-.01,3.01,0,1.03,0,2.07,0,3.13-.07,10.74-.53,21.46-1.07,32.18-.1,2.12-.2,4.25-.3,6.37-.21,4.51-.43,9.02-.65,13.53-.53,10.98-1.05,21.95-1.57,32.93-.12,2.5-.24,5-.35,7.5-.75,15.83-1.47,31.66-2.11,47.5-.04.88-.07,1.76-.11,2.67-.15,3.57-.29,7.14-.43,10.7-1.88,46.44-4.04,92.87-6.23,139.3-.32,6.71-.63,13.41-.94,20.12-.38,8.24-.77,16.48-1.17,24.72-.2,4.27-.41,8.55-.6,12.82-.18,3.97-.37,7.94-.57,11.91-.07,1.44-.14,2.88-.2,4.32q-1.12,24.93-6.8,31.07c-4.97,3.29-9.01,4.68-14.98,5.15-.77.07-1.54.15-2.34.22-2.56.23-5.12.43-7.68.63q-.45.03-2.71.21c-5.85.44-11.7.82-17.56,1.17-3,.18-6,.37-8.99.57-28.14,1.77-56.3,2.31-84.48,2.68q-.42,0-2.52.03-103.64,1.36-151.42-4.1-.49-.06-2.95-.33c-6.23-.81-11.81-1.79-16.51-6.28-8.54-11.58-8.04-24.01-8.68-37.92-.08-1.62-.15-3.24-.23-4.86-.21-4.43-.42-8.85-.63-13.28-.22-4.75-.45-9.49-.68-14.24-.44-9.22-.87-18.44-1.31-27.67-.35-7.46-.7-14.93-1.06-22.39-.05-1.06-.1-2.12-.15-3.21-.05-1.06-.1-2.12-.15-3.22-2-42.13-3.98-84.27-5.92-126.41-.12-2.64-.24-5.28-.37-7.92-.72-15.59-1.44-31.17-2.15-46.76-.34-7.39-.68-14.78-1.02-22.17-.06-1.39-.13-2.78-.19-4.17-.8-17.48-1.64-34.95-2.76-52.42-.21-3.44-.39-6.87-.55-10.31-.07-1.28-.15-2.56-.22-3.88-.05-1.26-.09-2.53-.14-3.83-.05-1.14-.1-2.27-.15-3.44q.52-2.85,2.87-4.7c24.67-10.81,59.13-8.69,85.64-10.16.97-.05,1.93-.11,2.93-.16,35.08-1.94,70.18-2.04,105.31-2.08ZM218,48c-1.08.04-2.16.07-3.27.11q-84.73,2.76-117.17,8.83c-.82.15-1.63.29-2.48.44-4.51.92-7.22,1.96-10.09,5.62,7.45.19,14.52-.31,21.88-1.44,8.05-1.17,16.01-2.08,24.12-2.56-.68.08-1.37.15-2.07.23q-33.93,3.77-39.93,7.77v4c5.61,1.65,11.22,3.3,17,5q-7.12-1.44-9.33-1.88c-3.88-.78-7.76-1.47-11.67-2.12.67,18.04,1.94,36.03,3.26,54.03.3,4.12.6,8.23.9,12.35.57,7.79,1.13,15.58,1.7,23.37.64,8.77,1.28,17.54,1.92,26.32,2.06,28.31,4.12,56.62,6.23,84.93.88.06,1.77.13,2.68.19,1.16.09,2.33.17,3.53.26q.58.04,3.49.25c2.68.24,5.27.58,7.92,1.04,6.63.72,13.18-.81,19.69-1.96,9.16-1.59,18.29-2.06,27.57-2.39.9-.04,1.81-.07,2.74-.11.82-.03,1.63-.06,2.48-.09q1.9-.19,2.9-1.19c1.63-.16,3.27-.25,4.91-.32.99-.04,1.98-.08,3-.13,1.04-.04,2.08-.08,3.15-.12,1.04-.04,2.09-.09,3.17-.13,2.59-.11,5.18-.21,7.77-.31-.41-1.17-.82-2.34-1.24-3.55-.9-3.65-.79-4.39.73-8.09.77-1.22,1.56-2.42,2.38-3.61q.19-.29,1.12-1.75c.82-1.27,1.66-2.52,2.52-3.76q1.48-2.23,3.06-5.1c5.37-9.2,11.99-13.04,21.23-17.51,1.43-.72,2.85-1.44,4.28-2.17,2.89-1.47,5.8-2.92,8.7-4.36,5.08-2.52,10.11-5.14,15.13-7.76,3.32-1.73,6.65-3.46,9.98-5.17,4.68-2.42,9.35-4.86,14.01-7.33,1.57-.83,3.15-1.66,4.73-2.47,3.35-1.74,6.63-3.5,9.82-5.52,9.67-5.76,19.97-7.03,31.09-5.47,4.47,1.17,6.71,3.79,9.08,7.62.73,1.28,1.44,2.57,2.14,3.88,1.87,3.29,4.11,6.29,6.33,9.35,9.94,13.79,19.03,28.12,27.66,42.76.47.79.93,1.57,1.41,2.38.45.77.91,1.54,1.37,2.33,2,3.2,4.24,6.21,6.53,9.2q.92,2.12.14,4.7-.2.4-1.22,2.42l-1,3c2.64.51,5.29,1.01,7.94,1.5.74.14,1.47.29,2.23.43q.37.07,2.24.41c.67.13,1.33.25,2.02.38,2.45.26,4.79.3,7.24.29.81,0,1.62,0,2.46,0q.31,0,1.88,0c3.63-36.77,6.68-73.56,9.4-110.4.68-9.19,1.37-18.38,2.05-27.56.45-5.97.89-11.94,1.33-17.91.16-2.18.33-4.36.5-6.54.43-5.48.8-10.96,1.08-16.46.07-1.11.13-2.22.2-3.36.13-2.11.23-4.21.31-6.32.17-2.63.35-4.94,1.14-7.45q3.08-2.16,6-3v-1c-9.67.58-19.34,1.22-29,2,.66-.1,1.31-.2,1.99-.3,2.97-.46,5.93-.95,8.89-1.45,1.03-.16,2.07-.31,3.13-.48q.49-.08,2.99-.51.46-.07,2.76-.44,2.25-.82,3.43-2.82c.27-.66.54-1.32.82-2q2.12-1.25,4-2c-2.64-3.43-5.35-3.68-9.51-4.32-.64-.1-1.28-.2-1.94-.31-2.08-.33-4.16-.63-6.23-.94-1.43-.22-2.86-.44-4.29-.66-4-.61-8.01-1.2-12.02-1.78-.89-.13-1.78-.27-2.7-.4-23.83-3.53-48.26-3.04-72.3-3.6,35.07.63,70.06,1.72,105,5v2c1.44.51,2.87,1,4.31,1.5.8.28,1.6.56,2.43.84q2.26.66,5.26.66c-2.53-3.09-5.22-3.91-9-5,.66-.66,1.32-1.32,2-2-6.81-2.91-13.44-4.07-20.75-5.06-1.22-.17-2.45-.34-3.71-.51-13.14-1.75-26.31-2.73-39.54-3.42-.73-.04-1.46-.08-2.21-.12-17.52-.95-35.06-1.25-52.6-1.5-.75-.01-1.51-.02-2.29-.03-27.66-.4-55.25-.26-82.9.66ZM425.88,68c-.72.37-1.45.74-2.2,1.12q-.28.14-1.68.88,2,1,3.95.44c.72-.29,1.44-.58,2.18-.88.72-.29,1.45-.57,2.2-.87.55-.23,1.11-.46,1.68-.69v-2c-2.52,0-3.89.85-6.12,2ZM78,68c1.51,35.18,3.2,70.34,4.92,105.51.39,8.03.78,16.06,1.17,24.1.31,6.34.61,12.68.93,19.03.18,3.73.36,7.46.54,11.2.92,19.08,2.05,38.13,3.45,57.17h3c.1-12.64-.19-25.23-.73-37.86-.08-1.89-.16-3.78-.24-5.67-.21-5.03-.43-10.06-.64-15.1-.14-3.14-.27-6.27-.4-9.41-1.19-27.75-2.51-55.48-4.11-83.21-.04-.7-.08-1.41-.12-2.14-.82-14.33-1.71-28.66-2.74-42.97-.07-1.05-.14-2.09-.22-3.17-.45-6-1.34-11.63-2.79-17.47h-2ZM85,68c-.66.66-1.32,1.32-2,2,1.32-.33,2.64-.66,4-1-.66-.33-1.32-.66-2-1ZM430,72c-.04.95-.08,1.91-.13,2.89-1.33,29.87-3.2,59.7-5.2,89.53-.48,7.2-.96,14.41-1.43,21.61-.37,5.59-.74,11.19-1.11,16.78-.68,10.26-1.34,20.53-1.91,30.79-.27,4.26-.73,8.47-1.28,12.71-.84,6.92-1.18,13.71-.94,20.69.99.33,1.98.66,3,1q0-.3.03-1.81c.44-23.15,2.31-46.17,4.07-69.25,1.2-15.8,2.31-31.6,3.42-47.4.16-2.33.33-4.67.49-7,.67-9.51,1.34-19.03,1.98-28.54.06-.94.13-1.88.19-2.86.62-9.24.94-18.44.87-27.71,0-1.12,0-2.23-.01-3.38-.01-2.69-.03-5.37-.05-8.06h-2ZM417,79c-1.95,22.43-3.79,44.87-5.43,67.32-.06.84-.12,1.68-.19,2.55-.31,4.33-.63,8.66-.94,12.98-2.31,31.78-4.85,63.51-7.97,95.22-.08.79-.15,1.59-.23,2.4-.18,1.84-.37,3.68-.56,5.51-.1.99-.2,1.98-.31,3.01-.1.91-.19,1.81-.29,2.75q-.09,2.25.91,4.25h2c1.19-3.56,1.39-6.98,1.65-10.7.06-.79.11-1.58.17-2.4.13-1.73.25-3.47.37-5.2.2-2.81.4-5.62.6-8.43.29-4.07.59-8.13.88-12.2.77-10.79,1.55-21.58,2.34-32.36.08-1.1.16-2.21.24-3.34,1.18-16.14,2.44-32.27,3.76-48.39.08-.99.16-1.98.25-3,.78-9.49,1.57-18.98,2.37-28.47.29-3.48.58-6.95.87-10.43.2-2.35.4-4.69.6-7.04.68-8.03,1.07-15.98.89-24.05h-2ZM417,269v10h1v-10h-1ZM416,279q-.69,1.81-1,4,1.44,1.75,3,3c-.33-2.31-.66-4.62-1-7h-1ZM410,381l-1,2c.99-.33,1.98-.66,3-1-.66-.33-1.32-.66-2-1ZM116,383q2.31,2.5,5,5h3c-.95-.82-1.9-1.65-2.88-2.5-.53-.46-1.07-.93-1.62-1.41q-1.51-1.09-3.51-1.09ZM404,384l-2,2c1.65-.33,3.3-.66,5-1-.99-.33-1.98-.66-3-1ZM398,386l4,1-4-1ZM124,389l1,2c.99-.33,1.98-.66,3-1-1.32-.33-2.64-.66-4-1ZM398,388q-.33.17-2,1c-1.54.22-3.08.41-4.62.56q-.41.04-2.48.25-.31.03-1.9.18v1c1.62.03,3.25.05,4.88.06q.45,0,2.74.04t4.38-1.1l-1-2ZM377,391v1h10v-1h-10ZM131,392l4,1-4-1ZM368,392v1h9v-1h-9ZM135,393l4,1-4-1ZM358,393v1h7v-1h-7ZM140,394v1h7v-1h-7ZM152,395v1h6v-1h-6ZM368.36,394.8c-2.13.17-4.25.34-6.38.52-1.11.09-2.22.18-3.36.27-58.75,4.78-117.45,7.38-176.35,3.78-6.57-.4-13.14-.72-19.71-1-.9-.04-1.8-.08-2.73-.12-1.94-.09-3.89-.17-5.83-.25-.1,10.73-.07,21.32,1,32,2.31.33,4.62.66,7,1q-1.15.17-7,1c.11,3.52.24,7.04.38,10.56.03.99.06,1.98.09,3,.22,5.45.58,10.32,2.53,15.44,2.24,1.12,3.65,1.19,6.13,1.32.81.04,1.61.08,2.44.13.84.04,1.68.08,2.55.12q.42.02,2.57.13c2.1.11,4.2.21,6.3.31-.82-.02-1.64-.05-2.49-.07-7.12-.12-13.6.32-20.51,2.07,1.27,3.9,2.4,5.94,6,8,4.09,1.05,8.06,1.2,12.27,1.32.68.02,1.36.04,2.06.06,2.16.07,4.32.12,6.48.18,1.47.04,2.94.09,4.41.13,3.59.11,7.18.21,10.78.31-14.03.14-27.99-.36-42-1,3.79,3.82,7.79,3.54,12.86,3.68.88.03,1.77.07,2.68.1,10.21.35,20.43.39,30.64.39,2.09,0,4.18,0,6.28.01,6.66.01,13.32,0,19.98,0,1.13,0,2.27,0,3.43,0,33.11,0,66.17-.12,99.23-2.02,3.1-.18,6.2-.34,9.3-.51,5.36-.29,10.71-.59,16.06-.91,1.99-.12,3.98-.24,5.97-.35,2.7-.16,5.39-.33,8.09-.52q.39-.02,2.39-.13c4.44-.32,7.51-1.04,11.08-3.75,7.02-10.53,4.1-30.94,4-43h-20c1.43-.28,2.86-.55,4.34-.84,1.87-.37,3.73-.73,5.6-1.1.95-.18,1.89-.36,2.87-.55.9-.18,1.8-.35,2.72-.54.83-.16,1.67-.32,2.52-.49q1.95-.48,2.95-1.48c.25-3.37.19-6.75.19-10.12.01-.94.02-1.88.04-2.84.01-5.42-.43-9.91-2.22-15.03-5.92-.11-11.74.31-17.64.8ZM143,429l4,1-4-1Z"/>
    <path d="M331,428h20v1h-20v-1Z"/>
    <path d="M304,429h27v1h-27v-1Z"/>
    <path d="M276,430h27v1h-27v-1Z"/>
    <path d="M208,431h31v1h-31v-1Z"/>
  </g>
  <g id="Layer_2">
    <path d="M433.73,64.66c-1.06,0-1.93.27-2.64.73-.04-.09-.1-.18-.14-.27.33-2.52-1-5.29-4.01-5.7-.23-.35-.5-.67-.82-.95-.79-1.12-2.09-1.89-3.88-1.89-4.21,0-5.67,4.28-4.37,7.24.31,1.17,1,2.22,2.08,2.86.5.64,1.17,1.15,2.01,1.45.15,2.01,1.34,3.92,3.59,4.42.21.84.6,1.62,1.19,2.25-.56.57-.98,1.35-1.18,2.36-.21,1.03-.39,2.06-.57,3.09-2.46-3.31-9.1-2.34-9.09,2.91,0,5.07.09,10.22-.74,15.24-.78,4.76-2.07,9.21-2.29,14.07-.47,10.5-1.33,20.86-2.6,31.3-.23,1.89.5,3.21,1.64,3.98-.18,4.37-1.08,8.85-2.07,13.05-.41,1.73.04,3.19.92,4.26-.86,1.26-1.08,2.9-.08,4.6-1.3,6.98-2.43,14.03-2.51,21.14-.1,8.53-1.59,16.68-2.96,25.09-.29,1.76.26,3.23,1.21,4.31-.3,1.16-.58,2.32-.8,3.5-1.36,7.35-1.5,14.78-1.26,22.21-1.68,1.63-1.93,4.49-.75,6.48-.07.16-.15.32-.2.5-1.56,5.07-1.94,10.29-1.1,15.39-.43.81-.63,1.74-.62,2.66-3.14,1.8-2.23,6.67.45,8.4,1.3.84,2.62,1.19,3.87,1.19,1.15,1.29,2.22,3.26,2.9,4.17,1.34,1.79,2.68,3.57,4.02,5.36,3.82,5.08,12.5.11,8.63-5.05-2.24-2.99-4.67-7.31-7.62-10.57.1-.59.07-1.25-.13-1.96,1.05-4.99.86-10.3.05-15.37.58-.77.92-1.78.86-3.05-.44-8.23-.95-16.58.1-24.79.29-2.27.78-4.47,1.33-6.67.27,1.76.57,3.53.85,5.32,2.36,15.02,2.26,30.34.24,45.38-.85,6.36,9.16,6.29,10,0,1.96-14.6,1.98-29.28,0-43.87-.93-6.86-2.78-13.73-2-20.7.75-6.74,3.05-13.22,3.88-19.97,1.7-13.84-.21-27.85,1.35-41.76,1.67-14.9,4.1-29.73,6.2-44.57.4-2.83-1.32-4.92-3.42-5.81.17-5.67.78-11.24,1.92-16.81.43-2.11-.37-3.8-1.67-4.9.08-.08.17-.16.25-.25,6.39-.04,6.39-10-.04-10ZM419.29,187.43c-.24,2.08-.63,4.14-1.06,6.19.1-5.85.64-11.52,1.48-17.22.06,3.68,0,7.37-.42,11.03ZM420.99,142.87c-.17-.22-.36-.42-.56-.6,1.08-9.27,1.79-18.49,2.31-27.8.04.19.07.37.11.56.25,1.25.84,2.15,1.6,2.73-1.21,8.36-2.4,16.73-3.46,25.11Z"/>
  </g>
</svg>