<?xml version="1.0" encoding="UTF-8"?>
<!-- Generator: visioncortex VTracer 0.6.12 -->
<svg version="1.1" xmlns="http://www.w3.org/2000/svg" width="512" height="512">
  <metadata>
                <![CDATA[
            {
  "prompt": {
    "1": {
      "inputs": {
        "image": "apps.jpg"
      },
      "class_type": "LoadImage",
      "_meta": {
        "title": "Load Image"
      },
      "is_changed": [
        "9effa22ebff8b10a924d1df35dd8bf04d3c64ff46b677495dd2580e0b9408069"
      ]
    },
    "4": {
      "inputs": {
        "vae_name": "ae.safetensors"
      },
      "class_type": "VAELoader",
      "_meta": {
        "title": "Load VAE"
      }
    },
    "5": {
      "inputs": {
        "clip_name": "qwen3_4b_fp8_scaled.safetensors",
        "type": "lumina2",
        "device": "default"
      },
      "class_type": "CLIPLoader",
      "_meta": {
        "title": "Load CLIP"
      }
    },
    "6": {
      "inputs": {
        "ckpt_name": "zEpicrealism_turboV1Fp8.safetensors"
      },
      "class_type": "CheckpointLoaderSimple",
      "_meta": {
        "title": "Load Checkpoint"
      }
    },
    "7": {
      "inputs": {
        "shift": 6.0,
        "model": [
          "6",
          0
        ]
      },
      "class_type": "ModelSamplingAuraFlow",
      "_meta": {
        "title": "ModelSamplingAuraFlow"
      }
    },
    "8": {
      "inputs": {
        "PowerLoraLoaderHeaderWidget": {
          "type": "PowerLoraLoaderHeaderWidget"
        },
        "lora_1": {
          "on": true,
          "lora": "MinimalistVectorArtZ.safetensors",
          "strength": 0.4
        },
        "lora_2": {
          "on": false,
          "lora": "None",
          "strength": 0.75
        },
        "\u2795 Add Lora": "",
        "model": [
          "7",
          0
        ],
        "clip": [
          "5",
          0
        ]
      },
      "class_type": "Power Lora Loader (rgthree)",
      "_meta": {
        "title": "Power Lora Loader (rgthree)"
      }
    },
    "9": {
      "inputs": {
        "text": "A bold, heavy solid black icon of a modern plated main course. A singular, short cylindrical food sits in the center of a wide, flat plate. A small herb garnish rests on top. High-contrast linocut style. Most of the dish is a solid black mass. A single, thick, curved white negative space \"swoosh\" represents a sauce on the plate. Heavy visual weight, minimalist, isolated on white.",
        "clip": [
          "8",
          1
        ]
      },
      "class_type": "CLIPTextEncode",
      "_meta": {
        "title": "Positive Prompt"
      }
    },
    "10": {
      "inputs": {
        "text": "blurry, bad, shadow",
        "clip": [
          "8",
          1
        ]
      },
      "class_type": "CLIPTextEncode",
      "_meta": {
        "title": "Negative Prompt"
      }
    },
    "11": {
      "inputs": {
        "seed": 439425384968854,
        "steps": 14,
        "cfg": 1.0,
        "sampler_name": "euler",
        "scheduler": "beta",
        "denoise": 1.0,
        "preview_method": "auto",
        "vae_decode": "true",
        "model": [
          "8",
          0
        ],
        "positive": [
          "9",
          0
        ],
        "negative": [
          "10",
          0
        ],
        "latent_image": [
          "27",
          0
        ],
        "optional_vae": [
          "4",
          0
        ]
      },
      "class_type": "KSampler (Efficient)",
      "_meta": {
        "title": "KSampler (Efficient)"
      }
    },
    "13": {
      "inputs": {
        "filename_prefix": [
          "35",
          0
        ],
        "images": [
          "11",
          5
        ]
      },
      "class_type": "SaveImage",
      "_meta": {
        "title": "Save Image"
      }
    },
    "27": {
      "inputs": {
        "dimensions": "512 x 512 (1:1)",
        "invert": false,
        "batch_size": 1
      },
      "class_type": "EmptyLatentImagePresets",
      "_meta": {
        "title": "Empty Latent Image Presets"
      }
    },
    "32": {
      "inputs": {
        "filename_prefix": [
          "35",
          0
        ],
        "svg": [
          "34",
          0
        ]
      },
      "class_type": "SaveSVGNode",
      "_meta": {
        "title": "SaveSVGNode"
      }
    },
    "33": {
      "inputs": {
        "mode": "spline",
        "filter_speckle": 4,
        "corner_threshold": 60,
        "length_threshold": 4.0,
        "splice_threshold": 45,
        "image": [
          "11",
          5
        ]
      },
      "class_type": "TS_ImageToSVGStringBW_Vtracer",
      "_meta": {
        "title": "Image to SVG String BW_Vtracer"
      }
    },
    "34": {
      "inputs": {
        "SVG_String": [
          "33",
          0
        ]
      },
      "class_type": "TS_SVGStringToSVGBytesIO",
      "_meta": {
        "title": "SVG String to SVG BytesIO"
      }
    },
    "35": {
      "inputs": {
        "value": "Icons/main-"
      },
      "class_type": "PrimitiveString",
      "_meta": {
        "title": "String"
      }
    }
  },
  "workflow": {
    "id": "b863a6d5-b1c1-49ed-82de-40ff658289d1",
    "revision": 0,
    "last_node_id": 35,
    "last_link_id": 44,
    "nodes": [
      {
        "id": 1,
        "type": "LoadImage",
        "pos": [
          -6217.3144323315755,
          -939.7076071909017
        ],
        "size": [
          411.5,
          378
        ],
        "flags": {},
        "order": 0,
        "mode": 0,
        "inputs": [],
        "outputs": [
          {
            "name": "IMAGE",
            "type": "IMAGE",
            "links": []
          },
          {
            "name": "MASK",
            "type": "MASK",
            "links": null
          }
        ],
        "properties": {
          "cnr_id": "comfy-core",
          "ver": "0.16.3",
          "Node name for S&R": "LoadImage"
        },
        "widgets_values": [
          "apps.jpg",
          "image"
        ]
      },
      {
        "id": 4,
        "type": "VAELoader",
        "pos": [
          -6617.602640103535,
          -844.560815734435
        ],
        "size": [
          373.8333435058594,
          123.80000305175781
        ],
        "flags": {},
        "order": 1,
        "mode": 0,
        "inputs": [],
        "outputs": [
          {
            "name": "VAE",
            "type": "VAE",
            "links": [
              13
            ]
          }
        ],
        "properties": {
          "cnr_id": "comfy-core",
          "ver": "0.9.2",
          "Node name for S&R": "VAELoader"
        },
        "widgets_values": [
          "ae.safetensors"
        ]
      },
      {
        "id": 5,
        "type": "CLIPLoader",
        "pos": [
          -6608.375086617069,
          -1107.5552490755795
        ],
        "size": [
          366.1666564941406,
          406.98333740234375
        ],
        "flags": {},
        "order": 2,
        "mode": 0,
        "inputs": [],
        "outputs": [
          {
            "name": "CLIP",
            "type": "CLIP",
            "links": [
              6
            ]
          }
        ],
        "properties": {
          "cnr_id": "comfy-core",
          "ver": "0.9.2",
          "Node name for S&R": "CLIPLoader"
        },
        "widgets_values": [
          "qwen3_4b_fp8_scaled.safetensors",
          "lumina2",
          "default"
        ]
      },
      {
        "id": 6,
        "type": "CheckpointLoaderSimple",
        "pos": [
          -7142.724710471413,
          -1274.3013669313325
        ],
        "size": [
          456,
          154.6666717529297
        ],
        "flags": {},
        "order": 3,
        "mode": 0,
        "inputs": [],
        "outputs": [
          {
            "name": "MODEL",
            "type": "MODEL",
            "links": [
              4
            ]
          },
          {
            "name": "CLIP",
            "type": "CLIP",
            "links": []
          },
          {
            "name": "VAE",
            "type": "VAE",
            "links": []
          }
        ],
        "properties": {
          "cnr_id": "comfy-core",
          "ver": "0.9.2",
          "Node name for S&R": "CheckpointLoaderSimple"
        },
        "widgets_values": [
          "zEpicrealism_turboV1Fp8.safetensors"
        ],
        "color": "#453f4f",
        "bgcolor": "#312b3b"
      },
      {
        "id": 7,
        "type": "ModelSamplingAuraFlow",
        "pos": [
          -6599.9781895109445,
          -1269.9313776848057
        ],
        "size": [
          270,
          104
        ],
        "flags": {},
        "order": 6,
        "mode": 0,
        "inputs": [
          {
            "name": "model",
            "type": "MODEL",
            "link": 4
          }
        ],
        "outputs": [
          {
            "name": "MODEL",
            "type": "MODEL",
            "links": [
              5
            ]
          }
        ],
        "properties": {
          "cnr_id": "comfy-core",
          "ver": "0.10.0",
          "Node name for S&R": "ModelSamplingAuraFlow"
        },
        "widgets_values": [
          6
        ]
      },
      {
        "id": 8,
        "type": "Power Lora Loader (rgthree)",
        "pos": [
          -6200.015026223777,
          -1269.9313776848057
        ],
        "size": [
          340.48333740234375,
          232
        ],
        "flags": {},
        "order": 7,
        "mode": 0,
        "inputs": [
          {
            "dir": 3,
            "name": "model",
            "type": "MODEL",
            "link": 5
          },
          {
            "dir": 3,
            "name": "clip",
            "type": "CLIP",
            "link": 6
          }
        ],
        "outputs": [
          {
            "dir": 4,
            "name": "MODEL",
            "shape": 3,
            "type": "MODEL",
            "links": [
              33
            ]
          },
          {
            "dir": 4,
            "name": "CLIP",
            "shape": 3,
            "type": "CLIP",
            "links": [
              7,
              8
            ]
          }
        ],
        "properties": {
          "cnr_id": "rgthree-comfy",
          "ver": "8ff50e4521881eca1fe26aec9615fc9362474931",
          "Show Strengths": "Single Strength"
        },
        "widgets_values": [
          {},
          {
            "type": "PowerLoraLoaderHeaderWidget"
          },
          {
            "on": true,
            "lora": "MinimalistVectorArtZ.safetensors",
            "strength": 0.4,
            "strengthTwo": null
          },
          {
            "on": false,
            "lora": "None",
            "strength": 0.75,
            "strengthTwo": null
          },
          {},
          ""
        ]
      },
      {
        "id": 9,
        "type": "CLIPTextEncode",
        "pos": [
          -5665.322287917606,
          -968.8529595656343
        ],
        "size": [
          496.6499938964844,
          181.21665954589844
        ],
        "flags": {},
        "order": 8,
        "mode": 0,
        "inputs": [
          {
            "name": "clip",
            "type": "CLIP",
            "link": 7
          }
        ],
        "outputs": [
          {
            "name": "CONDITIONING",
            "type": "CONDITIONING",
            "links": [
              9
            ]
          }
        ],
        "title": "Positive Prompt",
        "properties": {
          "cnr_id": "comfy-core",
          "ver": "0.9.2",
          "Node name for S&R": "CLIPTextEncode"
        },
        "widgets_values": [
          "A bold, heavy solid black icon of a modern plated main course. A singular, short cylindrical food sits in the center of a wide, flat plate. A small herb garnish rests on top. High-contrast linocut style. Most of the dish is a solid black mass. A single, thick, curved white negative space \"swoosh\" represents a sauce on the plate. Heavy visual weight, minimalist, isolated on white."
        ],
        "color": "#232",
        "bgcolor": "#353"
      },
      {
        "id": 10,
        "type": "CLIPTextEncode",
        "pos": [
          -5663.1914535981,
          -731.9340672918617
        ],
        "size": [
          470,
          142
        ],
        "flags": {},
        "order": 9,
        "mode": 0,
        "inputs": [
          {
            "name": "clip",
            "type": "CLIP",
            "link": 8
          }
        ],
        "outputs": [
          {
            "name": "CONDITIONING",
            "type": "CONDITIONING",
            "links": [
              10
            ]
          }
        ],
        "title": "Negative Prompt",
        "properties": {
          "cnr_id": "comfy-core",
          "ver": "0.9.2",
          "Node name for S&R": "CLIPTextEncode"
        },
        "widgets_values": [
          "blurry, bad, shadow"
        ],
        "color": "#322",
        "bgcolor": "#533"
      },
      {
        "id": 11,
        "type": "KSampler (Efficient)",
        "pos": [
          -4910.9017263054975,
          -1342.4877841038808
        ],
        "size": [
          400.1000061035156,
          966.6666870117188
        ],
        "flags": {},
        "order": 10,
        "mode": 0,
        "inputs": [
          {
            "name": "model",
            "type": "MODEL",
            "link": 33
          },
          {
            "name": "positive",
            "type": "CONDITIONING",
            "link": 9
          },
          {
            "name": "negative",
            "type": "CONDITIONING",
            "link": 10
          },
          {
            "name": "latent_image",
            "type": "LATENT",
            "link": 37
          },
          {
            "name": "optional_vae",
            "shape": 7,
            "type": "VAE",
            "link": 13
          },
          {
            "name": "script",
            "shape": 7,
            "type": "SCRIPT",
            "link": null
          }
        ],
        "outputs": [
          {
            "name": "MODEL",
            "type": "MODEL",
            "links": null
          },
          {
            "name": "CONDITIONING+",
            "type": "CONDITIONING",
            "links": null
          },
          {
            "name": "CONDITIONING-",
            "type": "CONDITIONING",
            "links": null
          },
          {
            "name": "LATENT",
            "type": "LATENT",
            "links": null
          },
          {
            "name": "VAE",
            "type": "VAE",
            "links": null
          },
          {
            "name": "IMAGE",
            "type": "IMAGE",
            "links": [
              14,
              39
            ]
          }
        ],
        "properties": {
          "cnr_id": "efficiency-nodes-comfyui",
          "ver": "1.0.8",
          "Node name for S&R": "KSampler (Efficient)"
        },
        "widgets_values": [
          -1,
          null,
          14,
          1,
          "euler",
          "beta",
          1,
          "auto",
          "true"
        ],
        "color": "#223333",
        "bgcolor": "#335555",
        "shape": "box"
      },
      {
        "id": 13,
        "type": "SaveImage",
        "pos": [
          -4410.464751892896,
          -1351.9862052389306
        ],
        "size": [
          461.7833251953125,
          344
        ],
        "flags": {},
        "order": 11,
        "mode": 0,
        "inputs": [
          {
            "name": "images",
            "type": "IMAGE",
            "link": 14
          },
          {
            "name": "filename_prefix",
            "type": "STRING",
            "widget": {
              "name": "filename_prefix"
            },
            "link": 43
          }
        ],
        "outputs": [],
        "properties": {
          "cnr_id": "comfy-core",
          "ver": "0.17.2"
        },
        "widgets_values": [
          "Icons/apps-"
        ]
      },
      {
        "id": 27,
        "type": "EmptyLatentImagePresets",
        "pos": [
          -5662.144089872933,
          -1235.0977881573456
        ],
        "size": [
          285.0833435058594,
          214.6666717529297
        ],
        "flags": {},
        "order": 4,
        "mode": 0,
        "inputs": [],
        "outputs": [
          {
            "name": "Latent",
            "type": "LATENT",
            "links": [
              37
            ]
          },
          {
            "name": "Width",
            "type": "INT",
            "links": null
          },
          {
            "name": "Height",
            "type": "INT",
            "links": null
          }
        ],
        "properties": {
          "cnr_id": "comfyui-kjnodes",
          "ver": "c88ac88a8f8a6a090a0d5d607156090cb2911503",
          "Node name for S&R": "EmptyLatentImagePresets"
        },
        "widgets_values": [
          "512 x 512 (1:1)",
          false,
          1
        ]
      },
      {
        "id": 32,
        "type": "SaveSVGNode",
        "pos": [
          -3813.0751465917647,
          -782.3696102323707
        ],
        "size": [
          270,
          344
        ],
        "flags": {},
        "order": 14,
        "mode": 0,
        "inputs": [
          {
            "name": "svg",
            "type": "SVG",
            "link": 42
          },
          {
            "name": "filename_prefix",
            "type": "STRING",
            "widget": {
              "name": "filename_prefix"
            },
            "link": 44
          }
        ],
        "outputs": [],
        "properties": {
          "cnr_id": "comfy-core",
          "ver": "0.17.2",
          "Node name for S&R": "SaveSVGNode"
        },
        "widgets_values": [
          "Icons/apps-"
        ]
      },
      {
        "id": 33,
        "type": "TS_ImageToSVGStringBW_Vtracer",
        "pos": [
          -4400.388422461708,
          -795.4795779719508
        ],
        "size": [
          314.01666259765625,
          234.66665649414062
        ],
        "flags": {},
        "order": 12,
        "mode": 0,
        "inputs": [
          {
            "name": "image",
            "type": "IMAGE",
            "link": 39
          }
        ],
        "outputs": [
          {
            "name": "STRING",
            "shape": 6,
            "type": "STRING",
            "links": [
              41
            ]
          }
        ],
        "properties": {
          "cnr_id": "comfyui-tosvg",
          "ver": "1.0.1",
          "Node name for S&R": "TS_ImageToSVGStringBW_Vtracer"
        },
        "widgets_values": [
          "spline",
          4,
          60,
          4,
          45
        ]
      },
      {
        "id": 34,
        "type": "TS_SVGStringToSVGBytesIO",
        "pos": [
          -4063.447054927147,
          -778.4329695457014
        ],
        "size": [
          225,
          72
        ],
        "flags": {},
        "order": 13,
        "mode": 0,
        "inputs": [
          {
            "name": "SVG_String",
            "type": "STRING",
            "link": 41
          }
        ],
        "outputs": [
          {
            "name": "SVG",
            "type": "SVG",
            "links": [
              42
            ]
          }
        ],
        "properties": {
          "cnr_id": "comfyui-tosvg",
          "ver": "1.0.1",
          "Node name for S&R": "TS_SVGStringToSVGBytesIO"
        },
        "widgets_values": []
      },
      {
        "id": 35,
        "type": "PrimitiveString",
        "pos": [
          -4406.654485248328,
          -1528.2849375983897
        ],
        "size": [
          270,
          108
        ],
        "flags": {},
        "order": 5,
        "mode": 0,
        "inputs": [],
        "outputs": [
          {
            "name": "STRING",
            "type": "STRING",
            "links": [
              43,
              44
            ]
          }
        ],
        "properties": {
          "cnr_id": "comfy-core",
          "ver": "0.17.2",
          "Node name for S&R": "PrimitiveString"
        },
        "widgets_values": [
          "Icons/main-"
        ]
      }
    ],
    "links": [
      [
        4,
        6,
        0,
        7,
        0,
        "MODEL"
      ],
      [
        5,
        7,
        0,
        8,
        0,
        "MODEL"
      ],
      [
        6,
        5,
        0,
        8,
        1,
        "CLIP"
      ],
      [
        7,
        8,
        1,
        9,
        0,
        "CLIP"
      ],
      [
        8,
        8,
        1,
        10,
        0,
        "CLIP"
      ],
      [
        9,
        9,
        0,
        11,
        1,
        "CONDITIONING"
      ],
      [
        10,
        10,
        0,
        11,
        2,
        "CONDITIONING"
      ],
      [
        13,
        4,
        0,
        11,
        4,
        "VAE"
      ],
      [
        14,
        11,
        5,
        13,
        0,
        "IMAGE"
      ],
      [
        33,
        8,
        0,
        11,
        0,
        "MODEL"
      ],
      [
        37,
        27,
        0,
        11,
        3,
        "LATENT"
      ],
      [
        39,
        11,
        5,
        33,
        0,
        "IMAGE"
      ],
      [
        41,
        33,
        0,
        34,
        0,
        "STRING"
      ],
      [
        42,
        34,
        0,
        32,
        0,
        "SVG"
      ],
      [
        43,
        35,
        0,
        13,
        1,
        "STRING"
      ],
      [
        44,
        35,
        0,
        32,
        1,
        "STRING"
      ]
    ],
    "groups": [],
    "config": {},
    "extra": {
      "ds": {
        "scale": 1.0152559799477934,
        "offset": [
          6083.374966713344,
          1371.5415147193046
        ]
      },
      "workflowRendererVersion": "Vue",
      "frontendVersion": "1.41.20",
      "VHS_latentpreview": false,
      "VHS_latentpreviewrate": 0,
      "VHS_MetadataImage": true,
      "VHS_KeepIntermediate": true
    },
    "version": 0.4
  }
}
                ]]>
            </metadata>
            
<path d="M0 0 C1.0681644504145424 0.8680760086942598 2.129180849460397 1.7449478279095132 3.1875 2.625 C3.7791796875000045 3.1122656250000063 4.370859375000009 3.5995312499999983 4.98046875 4.1015625 C7.585430447468411 6.550327267832998 9.74813905116116 9.223093752209138 12 12 C13.096992187500007 11.650664062499999 14.193984375000014 11.301328124999998 15.32421875 10.94140625 C16.778602381210078 10.4816333601336 18.2330318943998 10.02200558949771 19.6875 9.5625 C20.40873046874998 9.332402343750005 21.129960937500016 9.102304687499995 21.873046875 8.865234375 C22.225927734374977 8.754052734374994 22.225927734374977 8.754052734374994 24.01171875 8.19140625 C24.655847167968773 7.987170410156253 25.29997558593749 7.782934570312506 25.963623046875 7.572509765625 C30.09732021342444 6.410356563903576 33.93632720027824 5.872674219147228 38.23046875 5.8671875 C39.197910156249975 5.865898437499993 40.16535156250001 5.864609375000001 41.162109375 5.86328125 C41.66129882812504 5.865214843749996 41.66129882812504 5.865214843749996 44.1875 5.875 C44.692490234374986 5.873066406250004 44.692490234374986 5.873066406250004 47.248046875 5.86328125 C48.21162109375001 5.864570312500007 49.17519531250002 5.865859374999999 50.16796875 5.8671875 C51.04735107421874 5.868315429687499 51.92673339843748 5.869443359374998 52.832763671875 5.87060546875 C55 6 55 6 57 7 C57.82200268231992 22.19182735102349 54.04613343850701 35.51870464170625 44 47 C44 47.66 44 48.31999999999999 44 49 C44.99000000000001 49.66 45.98000000000002 50.31999999999999 47 51 C46.187500000000114 53.437499999999744 46.187500000000114 53.437499999999744 45 56 C44.504999999999995 56.16499999999999 44.504999999999995 56.16499999999999 42 57 C42 57.66 42 58.31999999999999 42 59 C42.99386718749997 59.099257812500014 43.987734375 59.198515625 45.01171875 59.30078125 C49.27552073839064 59.914794454158795 52.9103882210855 61.41372687248764 56.8125 63.1875 C57.51101074218752 63.501386718749984 58.20952148437499 63.8152734375 58.92919921875 64.138671875 C76.02390578556748 71.95745658331566 76.02390578556748 71.95745658331566 81 80 C82.2115678610798 84.06682475867777 82.13291378904569 88.04816859460442 82.113525390625 92.2568359375 C82.11367141723633 93.08647354125975 82.11381744384767 93.91611114501953 82.11396789550781 94.77088928222656 C82.11327212139622 97.50874459821006 82.10549539043552 100.24653159101584 82.09765625 102.984375 C82.09579088047275 104.88437869088574 82.09436753813844 106.78438286309776 82.09336853027344 108.68438720703125 C82.08955272625877 113.6820814089773 82.07973041383036 118.67974649187113 82.06866455078125 123.67742919921875 C82.05843030976803 128.77843837590692 82.05386659298881 133.87945226308636 82.048828125 138.98046875 C82.03810732400416 148.98699195138613 82.02104212050165 158.9934935530036 82 169 C82.64664611816409 169.059090423584 83.29329223632811 169.118180847168 83.95953369140625 169.17906188964844 C116.39285575140866 172.26069698914228 167.40215626378392 179.53176040814446 190 205 C193.93374479446527 211.5229301672657 193.8327710288238 217.57644111448502 193 225 C191.80682511349335 229.28482359243287 190.06708450711892 233.06992287380683 188 237 C187.48050781249998 237.9990234375 186.96101562500002 238.998046875 186.42578125 240.02734375 C182.3736136567543 247.36658435594853 177.48085025724276 253.68034135556184 172 260 C171.35160156249998 260.7824609375 170.70320312500002 261.564921875 170.03515625 262.37109375 C164.94767468028016 268.37411392531357 159.2027989095547 273.18400572469534 153 278 C152.56558593750003 278.35384765624997 152.56558593750003 278.35384765624997 150.3671875 280.14453125 C106.05198603087945 315.18005377900556 46.64890391663698 323.865212024882 -8 328 C-9.27480224609377 328.0971630859375 -10.549604492187484 328.194326171875 -11.863037109375 328.29443359375 C-27.071022869593207 329.34317708146 -42.325884952908496 329.24434795199676 -57.5625 329.25 C-58.29055721282958 329.2505891418457 -59.018614425659166 329.2511782836914 -59.768733978271484 329.2517852783203 C-84.27658838003094 329.265755118461 -108.61835456787753 328.6928705506583 -133 326 C-133.68141052246094 325.9250329589844 -134.36282104492187 325.8500659179688 -135.06488037109375 325.7728271484375 C-144.0853744685922 324.7646144006696 -153.04889830678013 323.5010247027178 -162 322 C-163.0652490234375 321.822431640625 -164.130498046875 321.64486328125 -165.22802734375 321.4619140625 C-207.78463341756125 314.1530954470376 -249.71905564394206 298.5740303593109 -281 268 C-281.46664062499997 267.56429687499997 -281.46664062499997 267.56429687499997 -283.828125 265.359375 C-296.4188305117776 253.33138258372082 -309.76357646058244 236.40457586270549 -310.375 218.25 C-310.28758784060886 211.05597928211012 -308.10654182781326 207.45086296636396 -303.4140625 202.23828125 C-279.56135024455284 179.0626110454716 -226.14603348537088 168.75270947032686 -194 169 C-194.00888244628908 167.92338104248046 -194.01776489257813 166.84676208496091 -194.02691650390625 165.73751831054688 C-194.10804656451424 155.58530676294953 -194.167986695501 145.43316109739595 -194.20724868774414 135.28069877624512 C-194.22811239371237 130.06134390083315 -194.25640806735467 124.84225099027364 -194.3017578125 119.623046875 C-194.34525858777687 114.58503778378224 -194.36914626380906 109.54728047730873 -194.37950897216797 104.50909805297852 C-194.38689271499425 102.58816693239882 -194.40131152436413 100.6672493982042 -194.42292022705078 98.74642562866211 C-194.4520104832905 96.05314234996348 -194.4559536618105 93.36089589104523 -194.4541015625 90.66748046875 C-194.46848266601563 89.87553787231445 -194.48286376953126 89.0835952758789 -194.4976806640625 88.26765441894531 C-194.45300035347836 82.25238348439552 -192.5322019920467 78.92656131867693 -188.5703125 74.34765625 C-164.96101956468235 53.354528207514846 -124.68684320140866 50.7397255144692 -95 48 C-93.765078125 47.88011718749999 -92.53015625 47.76023437500001 -91.2578125 47.63671875 C-78.54819279058862 46.57494253986215 -65.74381858550052 46.41207398420573 -53 46 C-52.82984375000001 45.16887695312499 -52.65968750000002 44.337753906249986 -52.484375 43.4814453125 C-50.97524411537785 36.48766721022834 -49.15565738119119 30.16808512490391 -46 23.75 C-45.657109375000005 23.0062109375 -45.31421875000001 22.262421875 -44.9609375 21.49609375 C-44.061995906083155 19.619295842089613 -43.03966910704332 17.802652080760566 -42 16 C-39 15 -39 15 -35.75 16.36328125 C-34.49477198033793 17.002862476120185 -33.24490771278465 17.653056057879454 -32 18.3125 C-31.370937500000025 18.634121093749997 -30.741874999999993 18.955742187499993 -30.09375 19.287109375 C-27.28569247435098 20.735757695965106 -24.63140683128745 22.245728779141686 -22 24 C-21.886562500000025 23.41734375 -21.773124999999993 22.8346875 -21.65625 22.234375 C-18.831326598093824 12.616183417319519 -8.160197898669423 5.021660245335042 0 0 Z M-3 20 C-5.259477430184006 24.52792104064656 -5.301513978117782 28.496450932201583 -5.25 33.4375 C-5.257734375000041 34.17548828125 -5.265468749999968 34.913476562499994 -5.2734375 35.673828125 C-5.2574671266498285 40.165495629738444 -4.689140145654449 43.77044669877793 -3 48 C-3.362871093750016 48.12761718749999 -3.362871093750016 48.12761718749999 -5.19921875 48.7734375 C-8.155298403410029 50.068010737337175 -10.3056466598199 51.604551039257785 -12.8125 53.625 C-13.602695312500032 54.25664062499999 -14.392890625000007 54.888281250000006 -15.20703125 55.5390625 C-15.502871093750002 55.7801171875 -15.502871093750002 55.7801171875 -17 57 C-19.438400837230688 53.90595664158042 -21.379917594813833 50.67977842943378 -23.3125 47.25 C-29.305903693931327 36.888522427440705 -29.305903693931327 36.888522427440705 -33 33 C-33.65999999999997 33 -34.31999999999999 33 -35 33 C-35 43.98722143065501 -28.537906532998022 52.874644580846024 -23 62 C-23.28681640625001 62.133417968749995 -23.28681640625001 62.133417968749995 -24.73828125 62.80859375 C-31.85935174968745 66.55976214793554 -37.57695353043215 72.38781824902324 -43.0546875 78.1796875 C-45 80 -45 80 -48 81 C-48.13535156249998 80.31421875000001 -48.27070312500001 79.62843749999999 -48.41015625 78.921875 C-49.06214651946959 75.6921483671309 -49.734689109455985 72.46909236912393 -50.4375 69.25 C-50.683710937499995 68.10015625 -50.92992187499999 66.9503125 -51.18359375 65.765625 C-51.453007812500005 64.85296875 -51.72242187500001 63.940312500000005 -52 63 C-74.01136204645098 51.99431897677451 -133.6602974563411 68.32471979522632 -155.3125 75.375 C-163.35553595137097 78.11851410365782 -170.74512294674344 81.5716984220382 -178 86 C-178 87.32 -178 88.63999999999999 -178 90 C-152.61952745133172 114.3601520441992 -90.87525077305537 112.38737470135351 -58.776123046875 112.205810546875 C-55.40731317239482 112.18733444153048 -52.038777698040974 112.18530358361392 -48.669921875 112.185546875 C-35.9191068133959 112.16466426763355 -23.307249555112037 111.77449039592008 -10.599609375 110.717041015625 C-3.2850746223144824 110.17188496304809 0.28834164568962706 112.0793091996839 6.1328125 116.33984375 C9.476820453767232 118.27608813739931 11.984827997270997 118.59465863014105 15.8125 118.9375 C21.43365072739141 119.54501153942118 21.43365072739141 119.54501153942118 24.0859375 121.67578125 C29.185397462488993 128.2802037867845 30.34167349393863 134.86152187293186 30.25 143 C30.246132812500036 143.83652099609375 30.24226562499996 144.6730419921875 30.23828125 145.534912109375 C30.152192689026037 151.79127871071177 29.457652020189585 157.73756882501672 28.45703125 163.9140625 C27.359946363036954 171.32172968547695 27.229334840038916 177.4013359700681 31 184 C33.567793317906535 186.9482071427816 34.97443184017857 186.99715909335316 38.9375 187.4375 C43.02931473683117 187.28482034564064 45.156001948943526 186.01636156930238 48 183 C50.913184371987825 174.26044688403647 49.087741977720384 164.6413372349637 46.9375 155.9375 C45.22480602564656 148.7247935263293 44.66406859580843 141.97306202404093 44.9375 134.5625 C44.95868896484376 133.68779052734374 44.97987792968752 132.8130810546875 45.001708984375 131.911865234375 C45.78223693085232 118.46325486322365 53.48887901841181 107.40237430360719 60.443359375 96.296875 C61.05888671874999 95.28109375 61.67441406249998 94.2653125 62.30859375 93.21875 C62.87376708984374 92.31060546875 63.43894042968748 91.4024609375 64.021240234375 90.466796875 C65 88 65 88 64.2841796875 85.769287109375 C58.68358807285347 78.05303474600177 46.6991340531323 75.62133906134386 38 73 C38 74.32 38 75.63999999999999 38 77 C26.17470145487215 81.9565701945719 15.088629392697726 83.66318843210331 2.3125 83.4375 C0.9147139883767181 83.42702356192248 -0.4830724775375188 83.4166075733979 -1.880859375 83.40625 C-12.756094233691442 83.26758235503735 -23.338114513623964 82.15288072321056 -34 80 C-29.076568748462705 75.43712305728738 -24.007188461203327 71.04852718069702 -18.75 66.875 C-17.77546874999996 66.08867187499999 -16.800937500000032 65.30234375 -15.796875 64.4921875 C-13 63 -13 63 -10.62890625 63.59765625 C-9.761367187500014 64.0604296875 -8.893828125000027 64.52320312500001 -8 65 C-5.400981130097648 65.8791201867636 -2.8022203688884133 66.73356231014543 -0.1875 67.5625 C0.48603515625001137 67.78357421875 1.1595703125000227 68.00464843750001 1.853515625 68.232421875 C8.925199514899532 70.47235237026962 15.61953905142741 71.65683817212852 23 70 C23.33000000000004 69.34 23.659999999999968 68.68 24 68 C17.818638985738858 65.58400026885425 11.586170952615873 63.500362514529655 5.1875 61.75 C3.964179687500007 61.41484374999999 2.7408593750000136 61.079687500000006 1.48046875 60.734375 C-1.8031718266497592 60.04153052366985 -4.658175365015268 59.856705834947064 -8 60 C-8 59.34 -8 58.68000000000001 -8 58 C-7.7421875 57.8865625 -7.7421875 57.8865625 -6.4375 57.3125 C-4 56 -4 56 -2.421875 54.71875 C-1.849531250000041 54.25468749999999 -1.2771874999999682 53.790625000000006 -0.6875 53.3125 C-0.4213085937499841 53.08369140625001 -0.4213085937499841 53.08369140625001 0.92578125 51.92578125 C4.087172689727254 50.51476473170368 6.631510245610116 51.419948859721245 10 52 C12.645113127794275 52.065150569650115 15.291688247847219 52.085914263293375 17.9375 52.0625 C18.62134765625001 52.057988281250005 19.305195312500018 52.05347656250001 20.009765625 52.048828125 C21.6732160371605 52.03719560463526 23.336620496064256 52.01926694406103 25 52 C25.33000000000004 51.00999999999999 25.659999999999968 50.01999999999998 26 49 C24.62708132408966 48.514902067845014 23.251532965495528 48.037244867637895 21.875 47.5625 C21.10929687500004 47.29566406250001 20.343593749999968 47.02882812500002 19.5546875 46.75390625 C16.722882150069722 45.91822057333863 13.91778007490791 45.43555267784859 11 45 C11.883007812500011 44.3825390625 12.766015625000023 43.765078125 13.67578125 43.12890625 C34.1555956583029 28.716229695374295 34.1555956583029 28.716229695374295 40 21 C38 20 38 20 36.21484375 20.57421875 C27.854446252893183 24.661205519597672 20.494723885559267 30.132257830937732 12.98095703125 35.5712890625 C10.3184054525247 37.49158137685795 7.630632925043017 39.3728518730141 4.9375 41.25 C4.550136718749968 41.52070312500001 4.550136718749968 41.52070312500001 2.58984375 42.890625 C2.065195312500009 43.256718750000005 1.5405468750000182 43.62281250000001 1 44 C1.0915234374999727 43.503066406250014 1.0915234374999727 43.503066406250014 1.5546875 40.98828125 C2.1331879097681394 36.92957961185617 1.716134222249309 33.24851112956205 1.125 29.1875 C0.9419531249999977 27.881679687499997 0.7589062499999955 26.575859374999993 0.5703125 25.23046875 C0 22.000000000000014 0 22.000000000000014 -1 20 C-1.6599999999999682 20 -2.319999999999993 20 -3 20 Z M-284.28125 223.171875 C-284.8484375 223.77515625 -285.415625 224.37843750000002 -286 225 C-280.4103233586386 228.77977789438262 -274.81880702026984 231.5321733481527 -268.5 233.875 C-267.58621582031253 234.2152319335937 -266.672431640625 234.55546386718748 -265.73095703125 234.906005859375 C-201.9113617378439 258.2011862678974 -130.16979411100942 262.46470506344224 -62.80830383300781 262.31785583496094 C-60.206795806927346 262.31240955158466 -57.605296896585 262.31004638207526 -55.0037841796875 262.3079833984375 C-29.34470482235264 262.2763011386428 -3.8213317968177307 261.80411493612974 21.72845458984375 259.22784423828125 C24.020903593237335 258.9979032938293 26.314191510396142 258.77889072116864 28.60791015625 258.56201171875 C66.49487340772583 254.93699490563188 104.90399975648296 248.8939905997987 141.125 237 C142.32745361328125 236.60909179687496 143.5299072265625 236.21818359374998 144.768798828125 235.8154296875 C153.04895675368203 232.99029148548362 160.43747014310674 229.3510016337276 168 225 C164.25474363556583 221.1191326489942 160.71548053173558 218.4574501841742 155.875 216.125 C155.17616699218752 215.7847680664063 154.47733398437498 215.44453613281252 153.75732421875 215.093994140625 C132.5856615954297 205.02728245591175 105.65156129037132 195 82 195 C81.95101562499997 195.495 81.95101562499997 195.495 81.703125 198 C80.68752547223016 207.34635649332233 79.58911982202682 214.79182795080726 72.625 221.5625 C29.345876305596164 256.26448827133106 -55.41628276423768 250.24733006461588 -107.61669921875 244.609375 C-167.5057894175721 237.58750311347774 -167.5057894175721 237.58750311347774 -187 219 C-192.7290863483608 211.67950077709452 -193.3831951183479 203.97613419877905 -194 195 C-219.36856813172506 194.3809761290246 -265.2108977324775 205.0158546905094 -284.28125 223.171875 Z " fill="#000000" transform="translate(314,90)"/>
</svg>
