<svg xmlns="http://www.w3.org/2000/svg" width="512" height="512"><path d="M314 90q1.601 1.303 3.188 2.625l1.792 1.477c2.605 2.448 4.768 5.121 7.02 7.898l3.324-1.059 4.363-1.379 2.186-.697c.353-.11.353-.11 2.139-.674l1.952-.618c4.133-1.163 7.972-1.7 12.266-1.706l2.932-.004 3.026.012 3.06-.012 2.92.004 2.665.004C369 96 369 96 371 97c.822 15.192-2.954 28.519-13 40v2l3 2c-.812 2.437-.812 2.437-2 5l-3 1v2l3.012.3c4.264.615 7.898 2.114 11.8 3.887l2.117.952c17.095 7.818 17.095 7.818 22.071 15.861 1.212 4.067 1.133 8.048 1.114 12.257v2.514c0 2.738-.009 5.476-.016 8.213l-.005 5.7q-.006 7.497-.024 14.993-.014 7.651-.02 15.303-.016 15.01-.049 30.02l1.96.18c32.433 3.08 83.442 10.352 106.04 35.82 3.934 6.523 3.833 12.576 3 20-1.193 4.285-2.933 8.07-5 12l-1.574 3.027C496.374 337.367 491.48 343.68 486 350l-1.965 2.371C478.948 358.374 473.203 363.184 467 368l-2.633 2.145C420.052 405.18 360.65 413.865 306 418l-3.863.294c-15.208 1.05-30.463.95-45.7.956l-2.206.002c-24.508.014-48.85-.56-73.231-3.252l-2.065-.227A496 496 0 0 1 152 412l-3.228-.538C106.215 404.153 64.281 388.574 33 358l-2.828-2.64c-12.59-12.029-25.936-28.955-26.547-47.11.087-7.194 2.268-10.8 6.96-16.012C34.44 269.063 87.855 258.753 120 259l-.027-3.262a7385 7385 0 0 1-.18-30.457c-.021-5.22-.05-10.439-.095-15.658a2298 2298 0 0 1-.078-15.114q-.01-2.88-.043-5.763a702 702 0 0 1-.031-8.079l-.044-2.4c.045-6.015 1.966-9.34 5.928-13.92C149.039 143.356 189.313 140.74 219 138l3.742-.363c12.71-1.062 25.514-1.225 38.258-1.637l.516-2.519c1.509-6.993 3.328-13.313 6.484-19.731l1.04-2.254c.898-1.877 1.92-3.693 2.96-5.496 3-1 3-1 6.25.363q1.882.96 3.75 1.95l1.906.974c2.808 1.449 5.463 2.959 8.094 4.713l.344-1.766C295.169 102.616 305.84 95.022 314 90m-3 20c-2.26 4.528-2.302 8.496-2.25 13.438l-.023 2.236c.016 4.491.584 8.096 2.273 12.326l-2.2.773c-2.955 1.295-5.106 2.832-7.613 4.852l-2.394 1.914L297 147c-2.438-3.094-4.38-6.32-6.312-9.75-5.994-10.361-5.994-10.361-9.688-14.25h-2c0 10.987 6.462 19.875 12 29l-1.738.809c-7.121 3.75-12.839 9.579-18.317 15.37C269 170 269 170 266 171l-.41-2.078a627 627 0 0 0-2.027-9.672l-.747-3.484L262 153c-22.011-11.006-81.66 5.325-103.312 12.375-8.044 2.744-15.433 6.197-22.688 10.625v4c25.38 24.36 87.125 22.387 119.224 22.206 3.369-.019 6.737-.02 10.106-.02 12.75-.021 25.363-.412 38.07-1.469 7.315-.545 10.888 1.362 16.733 5.623 3.344 1.936 5.852 2.255 9.68 2.597 5.62.608 5.62.608 8.273 2.739 5.1 6.604 6.256 13.186 6.164 21.324l-.012 2.535c-.086 6.256-.78 12.203-1.781 18.38C341.36 261.321 341.229 267.4 345 274c2.568 2.948 3.974 2.997 7.938 3.438 4.091-.153 6.218-1.422 9.062-4.438 2.913-8.74 1.088-18.359-1.062-27.062-1.713-7.213-2.274-13.965-2-21.375.02-.875.042-1.75.064-2.651.78-13.449 8.487-24.51 15.441-35.615l1.866-3.078 1.712-2.752c.979-2.467.979-2.467.263-4.698-5.6-7.716-17.585-10.148-26.284-12.769v4c-11.825 4.957-22.911 6.663-35.687 6.438l-4.194-.032A172 172 0 0 1 280 170c4.923-4.563 9.993-8.951 15.25-13.125l2.953-2.383C301 153 301 153 303.371 153.598L306 155a429 429 0 0 0 7.813 2.563l2.04.67c7.072 2.24 13.767 3.424 21.147 1.767l1-2a187 187 0 0 0-18.812-6.25l-3.708-1.016c-3.283-.692-6.138-.877-9.48-.734v-2l1.563-.687C310 146 310 146 311.578 144.719l1.735-1.406 1.613-1.387c3.161-1.411 5.706-.506 9.074.074q3.968.098 7.938.063l2.072-.014q2.495-.02 4.99-.049l1-3a580 580 0 0 0-4.125-1.437l-2.32-.81c-2.832-.835-5.637-1.317-8.555-1.753l2.676-1.871c20.48-14.413 20.48-14.413 26.324-22.129-2-1-2-1-3.785-.426-8.36 4.087-15.72 9.558-23.234 14.997a611 611 0 0 1-8.043 5.679l-2.348 1.64L315 134l.555-3.012c.578-4.058.161-7.74-.43-11.8l-.555-3.958C314 112 314 112 313 110zM29.719 313.172 28 315c5.59 3.78 11.181 6.532 17.5 8.875l2.769 1.031c63.82 23.295 135.561 27.559 202.923 27.412q3.902-.008 7.804-.01c25.66-.032 51.183-.504 76.732-3.08q3.44-.344 6.88-.666c37.887-3.625 76.296-9.668 112.517-21.562l3.644-1.185c8.28-2.825 15.668-6.464 23.231-10.815-3.745-3.88-7.285-6.543-12.125-8.875l-2.118-1.031C446.586 295.027 419.652 285 396 285l-.297 3c-1.015 9.346-2.114 16.792-9.078 23.563-43.28 34.701-128.041 28.684-180.242 23.046-59.889-7.021-59.889-7.021-79.383-25.609-5.73-7.32-6.383-15.024-7-24-25.369-.619-71.21 10.016-90.281 28.172"/></svg>