<?xml version="1.0" encoding="UTF-8"?>
<svg id="Layer_1" data-name="Layer 1" xmlns="http://www.w3.org/2000/svg" viewBox="0 0 1024 1024">
  <path d="M29.34,3.82l-4.94,2.43-5.32,3.25-6.47,5.79-4.24,4.74-2.07,2.86-3.5,5.78-1.56,4.62-1.09,4.28-.16,5.38.54,5.76.71,3.81,1.61,5.25,2.01,4.51,4.36,7.45,3.31,4.7,5.74,7.13,19.39,19.02,23.7,21.88,56.73,51.37,48.97,44.5,32.04,28.49,66.43,59.5,56.46,50.41s10.3,9.37,10.79,9.62c.5.25,4.44,3.93,4.44,3.93l6.87,5.96,22.85,17.06,25.91,20.56,26.01,23.66,12.59,13.46,4.8,7.68,4.62,10.25,2.88,10.55.51,6.54.58,5.99s.91,3.18.94,3.34c.03.16,1.05,1.75,1.05,1.75l3.44,3.01,54.4,52.37,54.81,54.54,55.87,54.45s39.15,36.73,39.26,37.29c.11.57,23.44,22.93,23.44,22.93l27.98,27.93,55.39,54.28,56.35,56.04,12.19,12.3,40.48,40.93s26.32,26.79,26.37,27.03c.05.24,14.12,13.48,14.12,13.48l13.88,13.61s8.2,7.3,8.26,7.62c.06.32,5.46,3.25,5.46,3.25l1.13-.19,1.12-1.2-2.41-5.19-3.15-4.82-6.25-8.89-10.82-11.7-24.71-27.31-38.27-42.06-34.97-37.44s-16.59-18.5-16.85-18.45-34.58-35.33-34.58-35.33l-32.69-33.4-53.17-53.49-49.8-50.38-46.99-47.35-35.08-36.08-22.41-22.69-16.95-17.52-16.73-17.3-3.85-4.7-3.06-4.33-1.72-2.97-1.11-2.57-.94-2.6-.29-3.96.06-3.02.64-3.29,1.09-2.36,1.03-2.18,5.02-4.87,3.56-2.61,2.92-2.17,4.12-1.54,4.57-1.03h3.95s4.4,0,4.4,0l4.53,1.15,2.94.84,4.06,2.48,8,6.25,11.78,10.12,30.95,28.42,27.31,25.78,33.76,30.96s40.34,37.28,40.38,37.52,10.73,9.79,10.73,9.79l20.52,19.33,13.27,12.29,37.63,34.81,17.9,16.35,36.21,33.46,14.38,12.93,48.35,43.6,49.4,43.93,25.57,22.74s17.41,15.18,17.66,15.55,13.08,10.81,13.08,10.81l8.52,7.08,14.63,11.39,7.9,4.76,5.67,2.46,2.81,1.11.59-.69-.3-1.62-.98-2.84-2.93-4.1s-7.03-7.75-7.07-7.49c-.04.26-13.79-13.12-13.79-13.12l-21.51-20.75-20.75-18.62-10.3-9.87-21.6-21.24-12.56-11.4-16.79-16.2-26-24.08-19.59-18.65-20.1-19.49-17.49-16.59-15.54-14.83-33.3-31.37-22.9-22.44-20.94-20.26-17.37-16.77-14.74-13.88-19.06-18.74-32.76-31.38-25.87-24.36-16.11-14.98-31.74-29.29-23.04-21.24-15.27-14.79-2.49-2.25-4.97-1.58-4.78-.1-8.97-1.81-10.76-2.26-7.96-2.66-7.08-3.73-5.22-3.88-13.59-12.57-12.34-12.61-15.34-17.12-5.89-6.94-9.78-10.96-7.72-9.05-5.43-6.43-10.48-10.84-4.94-5.26-12.4-12.94-22.81-23.87-29.87-30.36-24.52-25.34-27.3-27.21-17.04-17.08-40.56-41.84-20.44-20.35-27.61-28.83-16.35-15.78-37.99-38.18-16.03-16-13.26-11.29-7.37-3.84-8.09-2.88-7.72-1.86-11.02-.29-5.51.35-4.67,1.47-5.83,2ZM279.65,247.29c9.99-1.83,19.64,4.42,21.55,13.96,1.91,9.54-4.63,18.75-14.62,20.58-9.99,1.83-19.64-4.42-21.55-13.96-1.91-9.54,4.63-18.75,14.63-20.58ZM178.95,152.7c9.99-1.83,19.64,4.42,21.55,13.96s-4.63,18.75-14.62,20.58c-9.99,1.83-19.64-4.42-21.55-13.96-1.91-9.54,4.63-18.75,14.63-20.58ZM76.9,57.34c9.99-1.83,19.64,4.42,21.55,13.96,1.91,9.54-4.63,18.75-14.63,20.58s-19.64-4.42-21.55-13.96c-1.91-9.54,4.63-18.75,14.63-20.58Z"/>
  <path d="M1019.02,47.05c-12.22-11.41-28.25-30.18-42.29-39.7,0,0-10.12-3.73-10.12-3.73,0,0-5.8-2.96-5.8-2.96,0,0-4.33-.65-4.33-.65C679.58,288.11,341.65,558.19,85.37,861.48c-26.65,42.5-47.98,93.39-47.26,143.75.04.48.29,10.2.29,10.2.63,1.03,2.67,7.66,3.77,8.57,59.56-17.62,119.53-55.5,169.97-90.38,164.95-117.51,318.86-257.7,467.2-393.49-12.3-21.07-43.37-42.97-57.24-63.51-1.97-3.12-8.19-8.81-10.72-11.29-9.07-19.63,19.73-30.55,33.1-39.11,26.43-16.61,57.67-33.33,84.67-48.91,92.58-75.6,175.18-182.13,256.38-268.62,12.77-14.62,38.44-32.98,38.47-53.72l-4.98-7.92ZM954.31,83.59c-23.76-2.5-19.1-38.06,4.57-34.9,23.75,2.5,19.1,38.06-4.57,34.9Z"/>
  <polyline points="548.01 628.75 415.63 743.92 269.14 861.14 187.74 924.9 119.15 967.17"/>
</svg>