<?xml version="1.0" encoding="UTF-8"?>
<svg id="Layer_1_copy" data-name="Layer 1 copy" xmlns="http://www.w3.org/2000/svg" viewBox="0 0 1020.63 1013.68">
  <path d="M29.25,3.78l-4.92,2.41-5.31,3.22-6.45,5.73-4.22,4.69-2.06,2.83-3.49,5.73-1.56,4.57-1.08,4.24-.16,5.33.54,5.7.71,3.77,1.61,5.19,2.01,4.46,4.35,7.38,3.3,4.66,5.72,7.06,19.32,18.83,23.62,21.66,56.54,50.85,48.81,44.05,31.93,28.2,66.22,58.9,56.28,49.91s10.26,9.27,10.76,9.52c.49.25,4.42,3.89,4.42,3.89l6.85,5.9,22.78,16.89,25.82,20.35,25.92,23.42,12.55,13.33,4.78,7.61,4.6,10.15,2.87,10.44.5,6.47.58,5.93s.91,3.14.94,3.3c.03.16,1.04,1.73,1.04,1.73l3.43,2.98,54.22,51.84,54.63,54,55.68,53.9s39.02,36.36,39.13,36.92c.11.56,23.37,22.7,23.37,22.7l27.88,27.65,55.21,53.73,56.16,55.47,12.15,12.18,40.35,40.52s26.24,26.52,26.28,26.76c.05.24,14.08,13.35,14.08,13.35l13.83,13.47s8.17,7.23,8.23,7.55c.06.32,5.45,3.22,5.45,3.22l1.13-.19,1.12-1.18-2.4-5.14-3.14-4.77-6.23-8.8-10.79-11.58-24.63-27.04-38.14-41.64-34.86-37.06s-16.54-18.31-16.8-18.27-34.46-34.98-34.46-34.98l-32.58-33.06-53-52.95-49.64-49.87-46.83-46.87-34.96-35.72-22.34-22.46-16.89-17.34-16.67-17.13-3.83-4.65-3.05-4.29-1.72-2.94-1.11-2.54-.93-2.57-.29-3.92.06-2.99.64-3.26,1.08-2.34,1.03-2.16,5-4.82,3.54-2.59,2.91-2.15,4.1-1.52,4.56-1.02h3.94s4.39,0,4.39,0l4.52,1.14,2.93.83,4.05,2.46,7.98,6.18,11.75,10.01,30.84,28.14,27.22,25.52,33.65,30.64s40.2,36.9,40.25,37.14,10.7,9.69,10.7,9.69l20.45,19.14,13.23,12.16,37.5,34.46,17.84,16.18,36.09,33.13,14.33,12.8,48.19,43.16,49.24,43.48,25.48,22.51s17.35,15.03,17.6,15.4,13.04,10.71,13.04,10.71l8.49,7.01,14.58,11.27,7.88,4.71,5.66,2.44,2.81,1.1.59-.68-.3-1.6-.98-2.81-2.92-4.06s-7-7.67-7.04-7.42c-.04.26-13.74-12.99-13.74-12.99l-21.44-20.54-20.68-18.43-10.27-9.77-21.53-21.02-12.52-11.29-16.73-16.04-25.91-23.84-19.52-18.47-20.04-19.29-17.43-16.42-15.49-14.68-33.19-31.05-22.83-22.21-20.87-20.06-17.31-16.6-14.69-13.74-19-18.55-32.65-31.06-25.78-24.11-16.06-14.83-31.63-29-22.96-21.03-15.22-14.64-2.48-2.23-4.95-1.56-4.77-.1-8.94-1.8-10.73-2.24-7.93-2.63-7.06-3.69-5.2-3.84-13.55-12.44-12.3-12.49-15.29-16.95-5.87-6.87-9.75-10.85-7.69-8.96-5.41-6.37-10.45-10.73-4.93-5.21-12.36-12.81-22.74-23.63-29.77-30.06-24.44-25.08-27.21-26.93-16.99-16.91-40.43-41.42-20.38-20.14-27.51-28.54-16.3-15.62-37.86-37.79-15.98-15.84-13.22-11.17-7.35-3.8-8.07-2.86-7.69-1.84-10.99-.29-5.49.35-4.65,1.45-5.81,1.98ZM278.73,244.8c9.96-1.81,19.58,4.38,21.48,13.82,1.91,9.44-4.62,18.56-14.58,20.37-9.96,1.81-19.58-4.38-21.48-13.82-1.91-9.44,4.62-18.56,14.58-20.37ZM178.37,151.16c9.96-1.81,19.58,4.38,21.48,13.82,1.91,9.44-4.62,18.56-14.58,20.37s-19.58-4.38-21.48-13.82,4.62-18.56,14.58-20.37ZM76.64,56.77c9.96-1.81,19.58,4.38,21.48,13.82,1.91,9.44-4.62,18.56-14.58,20.37-9.96,1.81-19.58-4.38-21.48-13.82-1.91-9.44,4.62-18.56,14.58-20.37Z"/>
  <path d="M1015.66,46.57c-12.18-11.29-28.15-29.88-42.15-39.3l-10.09-3.69-5.78-2.94L953.32,0C677.34,285.21,340.52,552.57,85.09,852.8c-26.56,42.08-47.83,92.45-47.11,142.3.04.48.29,10.1.29,10.1.62,1.02,2.65,7.59,3.75,8.48,59.37-17.44,119.13-54.94,169.41-89.47,164.41-116.33,317.82-255.1,465.66-389.52-12.26-20.86-43.22-42.54-57.04-62.88-1.97-3.09-8.17-8.72-10.69-11.18-9.04-19.43,19.67-30.24,32.99-38.71,26.35-16.44,57.49-33,84.4-48.42,92.27-74.84,174.61-180.3,255.54-265.91,12.73-14.48,38.31-32.65,38.34-53.18l-4.97-7.84ZM545.71,626.15c-5.02,4.34-10.04,8.67-15.06,13.01-8.42,7.27-16.84,14.55-25.26,21.82-9.86,8.52-19.72,17.04-29.57,25.55-9.52,8.23-19.04,16.45-28.56,24.68-7.29,6.29-14.57,12.59-21.85,18.88-3.19,2.75-6.33,5.55-9.55,8.25-2.25,1.87-4.58,3.64-6.87,5.46-6.6,5.24-13.19,10.49-19.79,15.73-9.31,7.4-18.61,14.8-27.92,22.19-10.32,8.2-20.64,16.41-30.95,24.61-9.62,7.64-19.23,15.28-28.85,22.92-7.3,5.8-14.61,11.61-21.91,17.42-3.22,2.56-6.44,5.13-9.68,7.69-3.61,2.84-7.25,5.64-10.88,8.47-9.44,7.34-18.88,14.68-28.32,22.02-9.65,7.51-19.3,15.02-28.96,22.53-3.2,2.49-6.4,4.98-9.61,7.47-1.15.9-2.27,1.88-3.48,2.71-1.69,1.16-3.53,2.16-5.28,3.23-4.25,2.6-8.5,5.21-12.75,7.81-10.89,6.67-21.78,13.33-32.66,19.99-5.89,3.61-11.78,7.21-17.66,10.82-.19.11-2.94-4.03-3.07-3.96,1.57-.96,3.13-1.91,4.7-2.87,4.61-2.82,9.21-5.64,13.82-8.46,4.9-3,9.81-6,14.71-9,9.83-6.02,19.66-12.04,29.49-18.06,1.86-1.14,3.81-2.2,5.62-3.44,1.12-.77,2.17-1.68,3.25-2.52,7.61-5.92,15.23-11.85,22.84-17.77,10.25-7.97,20.5-15.95,30.75-23.92,7.27-5.66,14.54-11.31,21.81-16.96,1.84-1.43,3.66-2.87,5.48-4.32,5.39-4.28,10.77-8.56,16.15-12.84,8.63-6.85,17.26-13.71,25.89-20.57,10.18-8.09,20.36-16.18,30.53-24.27,10.02-7.96,20.03-15.91,30.04-23.87,8.24-6.56,16.49-13.11,24.74-19.66,4.7-3.74,9.39-7.47,14.09-11.21,1.49-1.18,2.92-2.4,4.35-3.65,5.41-4.67,10.82-9.34,16.22-14.01,8.57-7.4,17.14-14.8,25.7-22.2,9.93-8.58,19.86-17.16,29.79-25.74,6-5.18,12-10.37,18-15.55,3.4-2.94,6.8-5.88,10.21-8.82,6.99-6.04,13.98-12.09,20.98-18.13,2.76-2.39,5.53-4.78,8.3-7.17-.04.03,3.16,3.87,3.06,3.95-.68.59-1.36,1.17-2.03,1.76ZM951.17,82.75c-23.68-2.48-19.04-37.68,4.55-34.55,23.68,2.48,19.04,37.68-4.55,34.55Z"/>
  <line x1="505.19" y1="654.56" x2="135.74" y2="944.12"/>
</svg>