<?xml version="1.0" encoding="UTF-8"?>
<svg id="Layer_1" data-name="Layer 1" xmlns="http://www.w3.org/2000/svg" viewBox="0 0 64 64">
  <path d="M1.83.24l-.31.15-.33.2-.4.36-.26.3-.13.18-.22.36-.1.29-.07.27v.34s.02.36.02.36l.04.24.1.33.13.28.27.47.21.29.36.45,1.21,1.19,1.48,1.37,3.55,3.21,3.06,2.78,2,1.78,4.15,3.72,3.53,3.15s.64.59.67.6c.03.02.28.25.28.25l.43.37,1.43,1.07,1.62,1.28,1.63,1.48.79.84.3.48.29.64.18.66.03.41.04.37s.06.2.06.21c0,.01.07.11.07.11l.22.19,3.4,3.27,3.43,3.41,3.49,3.4s2.45,2.3,2.45,2.33c0,.04,1.47,1.43,1.47,1.43l1.75,1.75,3.46,3.39,3.52,3.5.76.77,2.53,2.56s1.65,1.67,1.65,1.69c0,.02.88.84.88.84l.87.85s.51.46.52.48c0,.02.34.2.34.2h.07s.07-.09.07-.09l-.15-.32-.2-.3-.39-.56-.68-.73-1.54-1.71-2.39-2.63-2.19-2.34s-1.04-1.16-1.05-1.15-2.16-2.21-2.16-2.21l-2.04-2.09-3.32-3.34-3.11-3.15-2.94-2.96-2.19-2.26-1.4-1.42-1.06-1.09-1.05-1.08-.24-.29-.19-.27-.11-.19-.07-.16-.06-.16-.02-.25v-.19s.04-.21.04-.21l.07-.15.06-.14.31-.3.22-.16.18-.14.26-.1.29-.06h.25s.28,0,.28,0l.28.07.18.05.25.16.5.39.74.63,1.93,1.78,1.71,1.61,2.11,1.93s2.52,2.33,2.52,2.34.67.61.67.61l1.28,1.21.83.77,2.35,2.18,1.12,1.02,2.26,2.09.9.81,3.02,2.73,3.09,2.75,1.6,1.42s1.09.95,1.1.97.82.68.82.68l.53.44.91.71.49.3.35.15.18.07.04-.04-.02-.1-.06-.18-.18-.26s-.44-.48-.44-.47c0,.02-.86-.82-.86-.82l-1.34-1.3-1.3-1.16-.64-.62-1.35-1.33-.79-.71-1.05-1.01-1.62-1.51-1.22-1.17-1.26-1.22-1.09-1.04-.97-.93-2.08-1.96-1.43-1.4-1.31-1.27-1.09-1.05-.92-.87-1.19-1.17-2.05-1.96-1.62-1.52-1.01-.94-1.98-1.83-1.44-1.33-.95-.92-.16-.14-.31-.1h-.3s-.56-.12-.56-.12l-.67-.14-.5-.17-.44-.23-.33-.24-.85-.79-.77-.79-.96-1.07-.37-.43-.61-.68-.48-.57-.34-.4-.66-.68-.31-.33-.78-.81-1.43-1.49-1.87-1.9-1.53-1.58-1.71-1.7-1.07-1.07-2.54-2.61-1.28-1.27-1.73-1.8-1.02-.99-2.37-2.39-1-1-.83-.71-.46-.24-.51-.18-.48-.12-.69-.02-.34.02-.29.09-.36.12ZM17.48,15.46c.62-.11,1.23.28,1.35.87s-.29,1.17-.91,1.29-1.23-.28-1.35-.87.29-1.17.91-1.29ZM11.18,9.54c.62-.11,1.23.28,1.35.87s-.29,1.17-.91,1.29-1.23-.28-1.35-.87.29-1.17.91-1.29ZM4.81,3.58c.62-.11,1.23.28,1.35.87s-.29,1.17-.91,1.29-1.23-.28-1.35-.87.29-1.17.91-1.29Z"/>
  <path d="M63.69,2.94c-.76-.71-1.77-1.89-2.64-2.48,0,0-.63-.23-.63-.23l-.36-.19-.27-.04C42.47,18.01,21.35,34.89,5.34,53.84c-1.67,2.66-3,5.84-2.95,8.98,0,.03.02.64.02.64.04.06.17.48.24.54,3.72-1.1,7.47-3.47,10.62-5.65,10.31-7.34,19.93-16.11,29.2-24.59-.77-1.32-2.71-2.69-3.58-3.97-.12-.19-.51-.55-.67-.71-.57-1.23,1.23-1.91,2.07-2.44,1.65-1.04,3.6-2.08,5.29-3.06,5.79-4.72,10.95-11.38,16.02-16.79.8-.91,2.4-2.06,2.4-3.36l-.31-.49ZM59.64,5.22c-1.48-.16-1.19-2.38.29-2.18,1.48.16,1.19,2.38-.29,2.18Z"/>
  <polyline points="34.25 39.3 25.98 46.49 16.82 53.82 11.73 57.81 7.45 60.45"/>
</svg>