<?xml version="1.0" encoding="UTF-8"?>
<svg id="Layer_1_copy" data-name="Layer 1 copy" xmlns="http://www.w3.org/2000/svg" viewBox="0 0 24 24">
  <path d="M.69.09l-.12.06-.12.08-.15.14-.1.11-.05.07-.08.14-.04.11-.03.1v.13s0,.14,0,.14l.02.09.04.12.05.11.1.17.08.11.13.17.45.45.56.51,1.33,1.2,1.15,1.04.75.67,1.56,1.39,1.32,1.18s.24.22.25.23c.01,0,.1.09.1.09l.16.14.54.4.61.48.61.55.3.32.11.18.11.24.07.25v.15s.03.14.03.14c0,0,.02.07.02.08,0,0,.02.04.02.04l.08.07,1.28,1.23,1.28,1.28,1.31,1.28s.92.86.92.87c0,.01.55.54.55.54l.66.65,1.3,1.27,1.32,1.31.29.29.95.96s.62.63.62.63c0,0,.33.32.33.32l.33.32s.19.17.19.18c0,0,.13.08.13.08h.03s.03-.03.03-.03l-.06-.12-.07-.11-.15-.21-.25-.27-.58-.64-.9-.99-.82-.88s-.39-.43-.39-.43-.81-.83-.81-.83l-.77-.78-1.25-1.25-1.17-1.18-1.1-1.11-.82-.85-.53-.53-.4-.41-.39-.41-.09-.11-.07-.1-.04-.07-.03-.06-.02-.06v-.09s0-.07,0-.07l.02-.08.03-.06.02-.05.12-.11.08-.06.07-.05.1-.04.11-.02h.09s.1,0,.1,0l.11.03.07.02.1.06.19.15.28.24.73.67.64.6.79.73s.95.87.95.88.25.23.25.23l.48.45.31.29.88.82.42.38.85.78.34.3,1.13,1.02,1.16,1.03.6.53s.41.36.41.36.31.25.31.25l.2.17.34.27.19.11.13.06.07.03v-.02s0-.04,0-.04l-.02-.07-.07-.1s-.16-.18-.17-.18c0,0-.32-.31-.32-.31l-.5-.49-.49-.44-.24-.23-.51-.5-.29-.27-.39-.38-.61-.56-.46-.44-.47-.46-.41-.39-.36-.35-.78-.74-.54-.53-.49-.47-.41-.39-.35-.33-.45-.44-.77-.74-.61-.57-.38-.35-.74-.69-.54-.5-.36-.35-.06-.05-.12-.04h-.11s-.21-.04-.21-.04l-.25-.05-.19-.06-.17-.09-.12-.09-.32-.29-.29-.3-.36-.4-.14-.16-.23-.26-.18-.21-.13-.15-.25-.25-.12-.12-.29-.3-.53-.56-.7-.71-.57-.59-.64-.64-.4-.4-.95-.98-.48-.48-.65-.68-.38-.37-.89-.89-.38-.37-.31-.26-.17-.09-.19-.07-.18-.04h-.26s-.13,0-.13,0l-.11.03-.14.05ZM6.55,5.8c.23-.04.46.1.51.33s-.11.44-.34.48-.46-.1-.51-.33.11-.44.34-.48ZM4.19,3.58c.23-.04.46.1.51.33s-.11.44-.34.48-.46-.1-.51-.33.11-.44.34-.48ZM1.8,1.34c.23-.04.46.1.51.33s-.11.44-.34.48-.46-.1-.51-.33.11-.44.34-.48Z"/>
  <path d="M23.88,1.1c-.29-.27-.66-.71-.99-.93l-.24-.09-.14-.07L22.42,0C15.93,6.75,8.01,13.08,2,20.19c-.62,1-1.12,2.19-1.11,3.37,0,.01,0,.24,0,.24.01.02.06.18.09.2,1.4-.41,2.8-1.3,3.98-2.12,3.87-2.75,7.47-6.04,10.95-9.22-.29-.49-1.02-1.01-1.34-1.49-.05-.07-.19-.21-.25-.26-.21-.46.46-.72.78-.92.62-.39,1.35-.78,1.98-1.15,2.17-1.77,4.11-4.27,6.01-6.3.3-.34.9-.77.9-1.26l-.12-.19ZM12.83,14.82c-.12.1-.24.21-.35.31-.2.17-.4.34-.59.52-.23.2-.46.4-.7.6-.22.19-.45.39-.67.58-.17.15-.34.3-.51.45-.08.07-.15.13-.22.2-.05.04-.11.09-.16.13-.16.12-.31.25-.47.37-.22.18-.44.35-.66.53-.24.19-.49.39-.73.58-.23.18-.45.36-.68.54-.17.14-.34.27-.52.41-.08.06-.15.12-.23.18-.08.07-.17.13-.26.2-.22.17-.44.35-.67.52-.23.18-.45.36-.68.53-.08.06-.15.12-.23.18-.03.02-.05.04-.08.06-.04.03-.08.05-.12.08-.1.06-.2.12-.3.18-.26.16-.51.32-.77.47-.14.09-.28.17-.42.26,0,0-.07-.1-.07-.09.04-.02.07-.05.11-.07.11-.07.22-.13.32-.2.12-.07.23-.14.35-.21.23-.14.46-.29.69-.43.04-.03.09-.05.13-.08.03-.02.05-.04.08-.06.18-.14.36-.28.54-.42.24-.19.48-.38.72-.57.17-.13.34-.27.51-.4.04-.03.09-.07.13-.1.13-.1.25-.2.38-.3.2-.16.41-.32.61-.49.24-.19.48-.38.72-.57.24-.19.47-.38.71-.57.19-.16.39-.31.58-.47.11-.09.22-.18.33-.27.04-.03.07-.06.1-.09.13-.11.25-.22.38-.33.2-.18.4-.35.6-.53.23-.2.47-.41.7-.61.14-.12.28-.25.42-.37.08-.07.16-.14.24-.21.16-.14.33-.29.49-.43.06-.06.13-.11.2-.17,0,0,.07.09.07.09-.02.01-.03.03-.05.04ZM22.37,1.96c-.56-.06-.45-.89.11-.82.56.06.45.89-.11.82Z"/>
  <line x1="11.88" y1="15.5" x2="3.19" y2="22.35"/>
</svg>