<?xml version="1.0" encoding="UTF-8"?>
<svg id="Layer_1_copy" data-name="Layer 1 copy" xmlns="http://www.w3.org/2000/svg" viewBox="0 0 48 48">
  <path d="M1.38.18l-.23.11-.25.15-.3.27-.2.22-.1.13-.16.27-.07.22-.05.2v.25s.02.27.02.27l.03.18.08.25.09.21.2.35.16.22.27.33.91.89,1.11,1.03,2.66,2.41,2.3,2.09,1.5,1.34,3.11,2.79,2.65,2.36s.48.44.51.45c.02.01.21.18.21.18l.32.28,1.07.8,1.21.96,1.22,1.11.59.63.22.36.22.48.13.49.02.31.03.28s.04.15.04.16c0,0,.05.08.05.08l.16.14,2.55,2.45,2.57,2.56,2.62,2.55s1.84,1.72,1.84,1.75c0,.03,1.1,1.07,1.1,1.07l1.31,1.31,2.6,2.54,2.64,2.63.57.58,1.9,1.92s1.23,1.26,1.24,1.27c0,.01.66.63.66.63l.65.64s.38.34.39.36c0,.02.26.15.26.15h.05s.05-.07.05-.07l-.11-.24-.15-.23-.29-.42-.51-.55-1.16-1.28-1.79-1.97-1.64-1.75s-.78-.87-.79-.86-1.62-1.66-1.62-1.66l-1.53-1.57-2.49-2.51-2.33-2.36-2.2-2.22-1.64-1.69-1.05-1.06-.79-.82-.78-.81-.18-.22-.14-.2-.08-.14-.05-.12-.04-.12v-.19s-.01-.14-.01-.14l.03-.15.05-.11.05-.1.24-.23.17-.12.14-.1.19-.07.21-.05h.19s.21,0,.21,0l.21.05.14.04.19.12.38.29.55.47,1.45,1.33,1.28,1.21,1.58,1.45s1.89,1.75,1.89,1.76.5.46.5.46l.96.91.62.58,1.76,1.63.84.77,1.7,1.57.67.61,2.27,2.04,2.32,2.06,1.2,1.07s.82.71.83.73.61.51.61.51l.4.33.69.53.37.22.27.12.13.05.03-.03v-.08s-.06-.13-.06-.13l-.14-.19s-.33-.36-.33-.35c0,.01-.65-.62-.65-.62l-1.01-.97-.97-.87-.48-.46-1.01-1-.59-.53-.79-.76-1.22-1.13-.92-.87-.94-.91-.82-.78-.73-.7-1.56-1.47-1.07-1.05-.98-.95-.81-.79-.69-.65-.89-.88-1.54-1.47-1.21-1.14-.76-.7-1.49-1.37-1.08-1-.72-.69-.12-.11-.23-.07h-.22s-.42-.09-.42-.09l-.5-.11-.37-.12-.33-.17-.24-.18-.64-.59-.58-.59-.72-.8-.28-.33-.46-.51-.36-.42-.25-.3-.49-.51-.23-.25-.58-.61-1.07-1.12-1.4-1.42-1.15-1.19-1.28-1.28-.8-.8-1.9-1.96-.96-.95-1.29-1.35-.77-.74-1.78-1.79-.75-.75-.62-.53-.35-.18-.38-.14-.36-.09h-.52s-.26,0-.26,0l-.22.07-.27.09ZM13.11,11.59c.47-.09.92.21,1.01.65s-.22.88-.69.96-.92-.21-1.01-.65.22-.88.69-.96ZM8.39,7.16c.47-.09.92.21,1.01.65s-.22.88-.69.96-.92-.21-1.01-.65.22-.88.69-.96ZM3.6,2.69c.47-.09.92.21,1.01.65s-.22.88-.69.96-.92-.21-1.01-.65.22-.88.69-.96Z"/>
  <path d="M47.77,2.21c-.57-.53-1.32-1.41-1.98-1.86l-.47-.17-.27-.14L44.83,0C31.86,13.51,16.01,26.17,4,40.38c-1.25,1.99-2.25,4.38-2.22,6.74,0,.02.01.48.01.48.03.05.12.36.18.4,2.79-.83,5.6-2.6,7.97-4.24,7.73-5.51,14.95-12.08,21.9-18.44-.58-.99-2.03-2.01-2.68-2.98-.09-.15-.38-.41-.5-.53-.43-.92.93-1.43,1.55-1.83,1.24-.78,2.7-1.56,3.97-2.29,4.34-3.54,8.21-8.54,12.02-12.59.6-.69,1.8-1.55,1.8-2.52l-.23-.37ZM25.66,29.65c-.24.21-.47.41-.71.62-.4.34-.79.69-1.19,1.03-.46.4-.93.81-1.39,1.21-.45.39-.9.78-1.34,1.17-.34.3-.69.6-1.03.89-.15.13-.3.26-.45.39-.11.09-.22.17-.32.26-.31.25-.62.5-.93.74-.44.35-.88.7-1.31,1.05-.49.39-.97.78-1.46,1.17-.45.36-.9.72-1.36,1.09-.34.27-.69.55-1.03.82-.15.12-.3.24-.46.36-.17.13-.34.27-.51.4-.44.35-.89.7-1.33,1.04-.45.36-.91.71-1.36,1.07-.15.12-.3.24-.45.35-.05.04-.11.09-.16.13-.08.05-.17.1-.25.15-.2.12-.4.25-.6.37-.51.32-1.02.63-1.54.95-.28.17-.55.34-.83.51,0,0-.14-.19-.14-.19.07-.05.15-.09.22-.14.22-.13.43-.27.65-.4.23-.14.46-.28.69-.43.46-.29.92-.57,1.39-.86.09-.05.18-.1.26-.16.05-.04.1-.08.15-.12.36-.28.72-.56,1.07-.84.48-.38.96-.76,1.45-1.13.34-.27.68-.54,1.03-.8.09-.07.17-.14.26-.2.25-.2.51-.41.76-.61.41-.32.81-.65,1.22-.97.48-.38.96-.77,1.44-1.15.47-.38.94-.75,1.41-1.13.39-.31.78-.62,1.16-.93.22-.18.44-.35.66-.53.07-.06.14-.11.2-.17.25-.22.51-.44.76-.66.4-.35.81-.7,1.21-1.05.47-.41.93-.81,1.4-1.22.28-.25.56-.49.85-.74.16-.14.32-.28.48-.42.33-.29.66-.57.99-.86.13-.11.26-.23.39-.34,0,0,.15.18.14.19-.03.03-.06.06-.1.08ZM44.73,3.92c-1.11-.12-.9-1.78.21-1.64,1.11.12.9,1.78-.21,1.64Z"/>
  <line x1="23.76" y1="30.99" x2="6.38" y2="44.71"/>
</svg>