<?xml version="1.0" encoding="UTF-8"?>
<svg id="Layer_1" data-name="Layer 1" xmlns="http://www.w3.org/2000/svg" viewBox="0 0 128 128">
  <path d="M3.67.48l-.62.3-.67.41-.81.72-.53.59-.26.36-.44.72-.2.58-.14.54-.02.67.07.72.09.48.2.66.25.56.55.93.41.59.72.89,2.42,2.38,2.96,2.74,7.09,6.42,6.12,5.56,4,3.56,8.3,7.44,7.06,6.3s1.29,1.17,1.35,1.2c.06.03.55.49.55.49l.86.75,2.86,2.13,3.24,2.57,3.25,2.96,1.57,1.68.6.96.58,1.28.36,1.32.06.82.07.75s.11.4.12.42c0,.02.13.22.13.22l.43.38,6.8,6.55,6.85,6.82,6.98,6.81s4.89,4.59,4.91,4.66c.01.07,2.93,2.87,2.93,2.87l3.5,3.49,6.92,6.78,7.04,7,1.52,1.54,5.06,5.12s3.29,3.35,3.3,3.38c0,.03,1.77,1.69,1.77,1.69l1.73,1.7s1.02.91,1.03.95c0,.04.68.41.68.41l.14-.02.14-.15-.3-.65-.39-.6-.78-1.11-1.35-1.46-3.09-3.41-4.78-5.26-4.37-4.68s-2.07-2.31-2.11-2.31-4.32-4.42-4.32-4.42l-4.09-4.17-6.65-6.69-6.23-6.3-5.87-5.92-4.38-4.51-2.8-2.84-2.12-2.19-2.09-2.16-.48-.59-.38-.54-.22-.37-.14-.32-.12-.33-.04-.5v-.38s.09-.41.09-.41l.14-.3.13-.27.63-.61.44-.33.36-.27.51-.19.57-.13h.49s.55,0,.55,0l.57.14.37.1.51.31,1,.78,1.47,1.26,3.87,3.55,3.41,3.22,4.22,3.87s5.04,4.66,5.05,4.69,1.34,1.22,1.34,1.22l2.57,2.42,1.66,1.54,4.7,4.35,2.24,2.04,4.53,4.18,1.8,1.62,6.04,5.45,6.18,5.49,3.2,2.84s2.18,1.9,2.21,1.94,1.64,1.35,1.64,1.35l1.06.88,1.83,1.42.99.59.71.31.35.14.07-.09-.04-.2-.12-.36-.37-.51s-.88-.97-.88-.94c0,.03-1.72-1.64-1.72-1.64l-2.69-2.59-2.59-2.33-1.29-1.23-2.7-2.65-1.57-1.43-2.1-2.03-3.25-3.01-2.45-2.33-2.51-2.44-2.19-2.07-1.94-1.85-4.16-3.92-2.86-2.8-2.62-2.53-2.17-2.1-1.84-1.73-2.38-2.34-4.09-3.92-3.23-3.04-2.01-1.87-3.97-3.66-2.88-2.66-1.91-1.85-.31-.28-.62-.2h-.6s-1.12-.24-1.12-.24l-1.35-.28-.99-.33-.89-.47-.65-.48-1.7-1.57-1.54-1.58-1.92-2.14-.74-.87-1.22-1.37-.96-1.13-.68-.8-1.31-1.36-.62-.66-1.55-1.62-2.85-2.98-3.73-3.8-3.07-3.17-3.41-3.4-2.13-2.14-5.07-5.23-2.56-2.54-3.45-3.6-2.04-1.97-4.75-4.77-2-2-1.66-1.41-.92-.48-1.01-.36-.97-.23-1.38-.04-.69.04-.58.18-.73.25ZM34.96,30.91c1.25-.23,2.46.55,2.69,1.75s-.58,2.34-1.83,2.57-2.46-.55-2.69-1.75.58-2.34,1.83-2.57ZM22.37,19.09c1.25-.23,2.46.55,2.69,1.75s-.58,2.34-1.83,2.57-2.46-.55-2.69-1.75.58-2.34,1.83-2.57ZM9.61,7.17c1.25-.23,2.46.55,2.69,1.75s-.58,2.34-1.83,2.57-2.46-.55-2.69-1.75.58-2.34,1.83-2.57Z"/>
  <path d="M127.38,5.88c-1.53-1.43-3.53-3.77-5.29-4.96,0,0-1.26-.47-1.26-.47l-.73-.37-.54-.08C84.95,36.01,42.71,69.77,10.67,107.68c-3.33,5.31-6,11.67-5.91,17.97,0,.06.04,1.27.04,1.27.08.13.33.96.47,1.07,7.45-2.2,14.94-6.94,21.25-11.3,20.62-14.69,39.86-32.21,58.4-49.19-1.54-2.63-5.42-5.37-7.15-7.94-.25-.39-1.02-1.1-1.34-1.41-1.13-2.45,2.47-3.82,4.14-4.89,3.3-2.08,7.21-4.17,10.58-6.11,11.57-9.45,21.9-22.77,32.05-33.58,1.6-1.83,4.8-4.12,4.81-6.71l-.62-.99ZM119.29,10.45c-2.97-.31-2.39-4.76.57-4.36,2.97.31,2.39,4.76-.57,4.36Z"/>
  <polyline points="68.5 78.59 51.95 92.99 33.64 107.64 23.47 115.61 14.89 120.9"/>
</svg>