<?xml version="1.0" encoding="UTF-8"?>
<svg id="Layer_1" data-name="Layer 1" xmlns="http://www.w3.org/2000/svg" viewBox="0 0 512 512">
  <path d="M14.67,1.91l-2.47,1.22-2.66,1.63-3.23,2.89-2.12,2.37-1.04,1.43-1.75,2.89-.78,2.31-.54,2.14-.08,2.69.27,2.88.36,1.9.81,2.62,1.01,2.25,2.18,3.73,1.65,2.35,2.87,3.57,9.69,9.51,11.85,10.94,28.37,25.69,24.49,22.25,16.02,14.24,33.22,29.75,28.23,25.21s5.15,4.68,5.4,4.81c.25.12,2.22,1.96,2.22,1.96l3.44,2.98,11.43,8.53,12.95,10.28,13,11.83,6.3,6.73,2.4,3.84,2.31,5.13,1.44,5.28.25,3.27.29,3s.45,1.59.47,1.67c.02.08.52.87.52.87l1.72,1.5,27.2,26.18,27.4,27.27,27.93,27.22s19.58,18.36,19.63,18.65c.05.28,11.72,11.46,11.72,11.46l13.99,13.96,27.69,27.14,28.17,28.02,6.1,6.15,20.24,20.47s13.16,13.39,13.18,13.52c.02.12,7.06,6.74,7.06,6.74l6.94,6.8s4.1,3.65,4.13,3.81c.03.16,2.73,1.62,2.73,1.62l.57-.1.56-.6-1.21-2.6-1.57-2.41-3.12-4.44-5.41-5.85-12.36-13.66-19.13-21.03-17.49-18.72s-8.3-9.25-8.43-9.23-17.29-17.67-17.29-17.67l-16.34-16.7-26.59-26.74-24.9-25.19-23.49-23.67-17.54-18.04-11.21-11.34-8.47-8.76-8.36-8.65-1.92-2.35-1.53-2.16-.86-1.48-.56-1.29-.47-1.3-.15-1.98.03-1.51.32-1.64.54-1.18.51-1.09,2.51-2.44,1.78-1.31,1.46-1.09,2.06-.77,2.29-.52h1.98s2.2,0,2.2,0l2.27.58,1.47.42,2.03,1.24,4,3.12,5.89,5.06,15.47,14.21,13.65,12.89,16.88,15.48s20.17,18.64,20.19,18.76,5.37,4.9,5.37,4.9l10.26,9.67,6.63,6.14,18.81,17.41,8.95,8.17,18.1,16.73,7.19,6.47,24.18,21.8,24.7,21.96,12.78,11.37s8.7,7.59,8.83,7.78,6.54,5.41,6.54,5.41l4.26,3.54,7.31,5.69,3.95,2.38,2.84,1.23,1.41.55.3-.34-.15-.81-.49-1.42-1.46-2.05s-3.51-3.88-3.53-3.75c-.02.13-6.89-6.56-6.89-6.56l-10.75-10.38-10.37-9.31-5.15-4.93-10.8-10.62-6.28-5.7-8.4-8.1-13-12.04-9.79-9.33-10.05-9.74-8.75-8.29-7.77-7.41-16.65-15.68-11.45-11.22-10.47-10.13-8.69-8.39-7.37-6.94-9.53-9.37-16.38-15.69-12.93-12.18-8.06-7.49-15.87-14.65-11.52-10.62-7.63-7.4-1.24-1.13-2.49-.79-2.39-.05-4.48-.91-5.38-1.13-3.98-1.33-3.54-1.86-2.61-1.94-6.8-6.28-6.17-6.31-7.67-8.56-2.94-3.47-4.89-5.48-3.86-4.53-2.72-3.22-5.24-5.42-2.47-2.63-6.2-6.47-11.41-11.94-14.94-15.18-12.26-12.67-13.65-13.6-8.52-8.54-20.28-20.92-10.22-10.17-13.8-14.41-8.18-7.89-18.99-19.09-8.02-8-6.63-5.64-3.69-1.92-4.05-1.44-3.86-.93-5.51-.15-2.75.18-2.33.73-2.91,1ZM139.83,123.65c5-.91,9.82,2.21,10.78,6.98.96,4.77-2.32,9.38-7.31,10.29s-9.82-2.21-10.78-6.98,2.32-9.38,7.31-10.29ZM89.48,76.35c5-.91,9.82,2.21,10.78,6.98s-2.32,9.38-7.31,10.29-9.82-2.21-10.78-6.98,2.32-9.38,7.31-10.29ZM38.45,28.67c5-.91,9.82,2.21,10.78,6.98s-2.32,9.38-7.31,10.29-9.82-2.21-10.78-6.98,2.32-9.38,7.31-10.29Z"/>
  <path d="M509.51,23.52c-6.11-5.7-14.12-15.09-21.15-19.85,0,0-5.06-1.87-5.06-1.87l-2.9-1.48S478.24,0,478.24,0C339.79,144.06,170.83,279.1,42.68,430.74c-13.32,21.25-23.99,46.7-23.63,71.87.02.24.14,5.1.14,5.1.32.51,1.33,3.83,1.88,4.29,29.78-8.81,59.76-27.75,84.99-45.19,82.48-58.76,159.43-128.85,233.6-196.74-6.15-10.54-21.68-21.48-28.62-31.76-.98-1.56-4.09-4.4-5.36-5.65-4.54-9.82,9.87-15.27,16.55-19.55,13.21-8.31,28.84-16.67,42.34-24.46,46.29-37.8,87.59-91.06,128.19-134.31,6.39-7.31,19.22-16.49,19.23-26.86l-2.49-3.96ZM477.15,41.8c-11.88-1.25-9.55-19.03,2.29-17.45,11.88,1.25,9.55,19.03-2.29,17.45Z"/>
  <polyline points="274.01 314.37 207.81 371.96 134.57 430.57 93.87 462.45 59.57 483.59"/>
</svg>