<?xml version="1.0" encoding="UTF-8"?>
<svg id="Layer_1_copy" data-name="Layer 1 copy" xmlns="http://www.w3.org/2000/svg" viewBox="0 0 32 32">
  <path d="M.92.12l-.15.08-.17.1-.2.18-.13.15-.06.09-.11.18-.05.14-.03.13v.17s.01.18.01.18l.02.12.05.16.06.14.14.23.1.15.18.22.61.59.74.68,1.77,1.61,1.53,1.39,1,.89,2.08,1.86,1.76,1.58s.32.29.34.3c.02,0,.14.12.14.12l.21.19.71.53.81.64.81.74.39.42.15.24.14.32.09.33.02.2.02.19s.03.1.03.1c0,0,.03.05.03.05l.11.09,1.7,1.64,1.71,1.7,1.75,1.7s1.22,1.15,1.23,1.17c0,.02.73.72.73.72l.87.87,1.73,1.7,1.76,1.75.38.38,1.27,1.28s.82.84.82.84c0,0,.44.42.44.42l.43.43s.26.23.26.24c0,.01.17.1.17.1h.04s.04-.04.04-.04l-.08-.16-.1-.15-.2-.28-.34-.37-.77-.85-1.2-1.31-1.09-1.17s-.52-.58-.53-.58-1.08-1.1-1.08-1.1l-1.02-1.04-1.66-1.67-1.56-1.57-1.47-1.48-1.1-1.13-.7-.71-.53-.55-.52-.54-.12-.15-.1-.14-.05-.09-.03-.08-.03-.08v-.12s0-.09,0-.09l.02-.1.03-.07.03-.07.16-.15.11-.08.09-.07.13-.05.14-.03h.12s.14,0,.14,0l.14.04.09.03.13.08.25.2.37.32.97.89.85.81,1.05.97s1.26,1.16,1.26,1.17.34.31.34.31l.64.6.41.38,1.18,1.09.56.51,1.13,1.05.45.4,1.51,1.36,1.54,1.37.8.71s.54.47.55.49.41.34.41.34l.27.22.46.36.25.15.18.08.09.03.02-.02v-.05s-.04-.09-.04-.09l-.09-.13s-.22-.24-.22-.23c0,0-.43-.41-.43-.41l-.67-.65-.65-.58-.32-.31-.67-.66-.39-.36-.52-.51-.81-.75-.61-.58-.63-.61-.55-.52-.49-.46-1.04-.98-.72-.7-.65-.63-.54-.52-.46-.43-.6-.59-1.02-.98-.81-.76-.5-.47-.99-.92-.72-.66-.48-.46-.08-.07-.16-.05h-.15s-.28-.06-.28-.06l-.34-.07-.25-.08-.22-.12-.16-.12-.42-.39-.39-.39-.48-.53-.18-.22-.31-.34-.24-.28-.17-.2-.33-.34-.15-.16-.39-.4-.71-.75-.93-.95-.77-.79-.85-.85-.53-.53-1.27-1.31-.64-.64-.86-.9-.51-.49-1.19-1.19-.5-.5-.41-.35-.23-.12-.25-.09-.24-.06h-.34s-.17,0-.17,0l-.15.05-.18.06ZM8.74,7.73c.31-.06.61.14.67.44s-.14.59-.46.64-.61-.14-.67-.44.14-.59.46-.64ZM5.59,4.77c.31-.06.61.14.67.44s-.14.59-.46.64-.61-.14-.67-.44.14-.59.46-.64ZM2.4,1.79c.31-.06.61.14.67.44s-.14.59-.46.64-.61-.14-.67-.44.14-.59.46-.64Z"/>
  <path d="M31.84,1.47c-.38-.36-.88-.94-1.32-1.24l-.32-.12-.18-.09L29.89,0C21.24,9,10.68,17.44,2.67,26.92c-.83,1.33-1.5,2.92-1.48,4.49,0,.02,0,.32,0,.32.02.03.08.24.12.27,1.86-.55,3.74-1.73,5.31-2.82,5.15-3.67,9.96-8.05,14.6-12.3-.38-.66-1.36-1.34-1.79-1.99-.06-.1-.26-.28-.34-.35-.28-.61.62-.95,1.03-1.22.83-.52,1.8-1.04,2.65-1.53,2.89-2.36,5.47-5.69,8.01-8.39.4-.46,1.2-1.03,1.2-1.68l-.16-.25ZM17.11,19.77c-.16.14-.31.27-.47.41-.26.23-.53.46-.79.69-.31.27-.62.54-.93.81-.3.26-.6.52-.9.78-.23.2-.46.4-.69.6-.1.09-.2.18-.3.26-.07.06-.14.11-.22.17-.21.17-.41.33-.62.5-.29.23-.58.47-.88.7-.32.26-.65.52-.97.78-.3.24-.6.48-.9.72-.23.18-.46.37-.69.55-.1.08-.2.16-.3.24-.11.09-.23.18-.34.27-.3.23-.59.46-.89.7-.3.24-.61.47-.91.71-.1.08-.2.16-.3.24-.04.03-.07.06-.11.09-.05.04-.11.07-.17.1-.13.08-.27.16-.4.25-.34.21-.68.42-1.02.63-.18.11-.37.23-.55.34,0,0-.09-.13-.1-.13.05-.03.1-.06.15-.09.14-.09.29-.18.43-.27.15-.09.31-.19.46-.28.31-.19.62-.38.92-.57.06-.04.12-.07.18-.11.04-.02.07-.05.1-.08.24-.19.48-.37.72-.56.32-.25.64-.5.96-.76.23-.18.46-.36.68-.54.06-.05.11-.09.17-.14.17-.14.34-.27.51-.41.27-.22.54-.43.81-.65.32-.26.64-.51.96-.77.31-.25.63-.5.94-.75.26-.21.52-.41.78-.62.15-.12.29-.24.44-.35.05-.04.09-.08.14-.12.17-.15.34-.29.51-.44.27-.23.54-.47.81-.7.31-.27.62-.54.93-.81.19-.16.38-.33.56-.49.11-.09.21-.19.32-.28.22-.19.44-.38.66-.57.09-.08.17-.15.26-.23,0,0,.1.12.1.12-.02.02-.04.04-.06.06ZM29.82,2.61c-.74-.08-.6-1.19.14-1.09.74.08.6,1.19-.14,1.09Z"/>
  <line x1="15.84" y1="20.66" x2="4.26" y2="29.8"/>
</svg>