<svg xmlns="http://www.w3.org/2000/svg" width="1024" height="1024"><path d="m227.977 103.853 7.047-.011q9.594-.014 19.188-.017 9.312-.006 18.623-.02a69554 69554 0 0 1 49.782-.04l23.567-.014a208707 208707 0 0 1 85.81-.042h2.533l12.702-.004h2.546q40.924-.014 81.85-.065a80731 80731 0 0 1 98.527-.059c12.55-.002 25.1-.018 37.65-.038q18.909-.03 37.818-.017c6.826.005 13.653.004 20.48-.016q9.374-.026 18.747-.001 3.39.004 6.78-.014c26.585-.13 26.585-.13 36.65 9.439 6.658 7.986 8.64 16.916 7.723 27.066-2.095 9.126-7.223 17.065-12 25q-1.032 1.726-2.062 3.453a2528 2528 0 0 1-4.403 7.324c-4.656 7.737-9.222 15.526-13.81 23.303q-2.633 4.454-5.272 8.904l-1.753 2.96-3.299 5.56-1.526 2.578-1.32 2.226L749 224l-1.223 1.863c-3.721 5.994-4.495 10.66-4.408 17.635l-.022 3.06c-.017 3.315.003 6.63.024 9.946q0 3.487-.007 6.976-.003 7.305.04 14.608c.033 6.201.027 12.401.008 18.602-.01 4.804-.001 9.607.014 14.411q.008 3.426-.002 6.852c-.028 16.258 1.558 30.278 7.639 45.485 3.254 8.5 6.152 17.106 9 25.75A2043 2043 0 0 0 772.625 426l4.485 12.766c8.99 25.59 17.948 51.194 26.456 76.95 4.826 14.598 9.841 29.13 14.871 43.659l1.247 3.602 4.9 14.15a6342 6342 0 0 1 26.192 77.174c2.484 7.485 4.979 14.968 7.474 22.45l3.738 11.214 6.894 20.679 3.81 11.44a2643 2643 0 0 0 6.956 20.686c15.431 45.26 14.471 92.324-6.407 135.965C867.233 888.81 859.944 899.892 851 910l-2.621 2.988C827.622 936.335 798.715 957.61 767 962c-2.923.141-5.842.14-8.768.134l-2.651.007q-4.412.009-8.822.006l-6.38.011q-8.775.014-17.55.017-9.46.007-18.92.022-21.774.027-43.546.037l-21.529.015a173295 173295 0 0 1-78.35.042h-2.318l-11.626.004h-2.33q-37.386.014-74.77.065a67175 67175 0 0 1-87.777.058H379.5q-17.186.006-34.372.04-17.29.03-34.58.016c-6.24-.005-12.48-.003-18.72.016q-8.58.026-17.158.001-3.093-.004-6.186.014c-36.89.2-66.69-17.034-92.485-42.505-33.943-33.895-49.32-79.567-50.043-126.836.065-20.61 5.523-39.84 12.043-59.226q1.008-3.04 2.013-6.08a3293 3293 0 0 1 13.472-39.734 2315 2315 0 0 0 8.964-26.43l2.215-6.657 2.515-7.56c3.616-10.869 7.24-21.736 10.863-32.603l5.65-16.951 3.217-9.65 1.294-3.883 2.594-7.78.647-1.943 10.75-32.248q5.161-15.479 10.314-30.96a10730 10730 0 0 1 18.679-55.616q1.058-3.12 2.113-6.24c4.656-13.753 9.316-27.504 14.02-41.24l.976-2.848q2.152-6.288 4.317-12.57a1093 1093 0 0 0 7.649-23.035l.751-2.333c6.61-20.913 7.31-43.864 4.987-65.577l-.217-2.06c-1.189-10.123-4.45-18.417-9.346-27.308a679 679 0 0 1-5.062-9.503c-6.621-12.567-13.387-25.034-20.44-37.366-4.465-7.842-8.712-15.79-12.935-23.763-6.267-11.828-12.74-23.518-19.376-35.143a2205 2205 0 0 1-10.359-18.478 682 682 0 0 0-9.109-15.895l-1.86-3.173a453 453 0 0 0-3.562-5.965l-1.578-2.705-1.412-2.359C170 116 170 116 170.69 113.382c1.858-3.375 4.183-5.174 7.311-7.382 4.642-1.329 9.517-1.34 14.314-1.553l2.8-.128c10.953-.459 21.902-.468 32.863-.466M241 154c1.653 4.134 3.514 7.81 5.75 11.625 5.378 9.253 10.422 18.68 15.45 28.128a1540 1540 0 0 0 21.138 38.327c21.639 38.014 31.983 66.98 27.912 111.42l-.187 2.166c-1.8 16.668-7.604 32.474-13.063 48.209l-2.302 6.705A8550 8550 0 0 1 289 420q-3.1 8.967-6.187 17.938L282.1 440c-4.49 13.04-8.754 26.15-12.997 39.271-3.92 12.118-7.935 24.195-12.104 36.229-4.479 12.933-8.781 25.917-13 38.938-4.333 13.368-8.68 26.73-13.125 40.062l-.741 2.224a3102 3102 0 0 1-10.266 30.185c-5.232 15.165-10.273 30.385-15.21 45.648l-1.78 5.498-.913 2.826a4355 4355 0 0 1-7.75 23.627l-3.69 11.194q-1.2 3.636-2.406 7.27a4307 4307 0 0 0-3.38 10.239l-1.012 3.029c-11.057 33.75-9.983 71.187 6.113 103.11 3.061 5.794 6.82 10.746 11.16 15.65l2.371 2.969c12.6 15.124 33.52 24.326 52.687 26.117 18.811 1.662 37.77 1.19 56.634 1.16 5.794-.006 11.588 0 17.382.003q16.979.006 33.958-.01c12.528-.01 25.057-.01 37.585-.01q37.397-.001 74.794-.025a102587 102587 0 0 1 70.616-.019h14.86q27.79.001 55.577-.01h3.993l7.937-.004q13.785-.004 27.57-.004 16.8 0 33.6-.014 8.563-.008 17.127-.007 7.849.002 15.698-.01h5.658c29.267.024 29.267.024 40.64-2.886l2.146-.532C794.37 875.886 812.746 861.644 825 842c6.97-12.37 11.183-24.903 13-39l.34-2.598c.93-8.447.937-16.92.66-25.402l-.072-2.285c-.858-20.558-8.3-39.718-14.56-59.121l-.644-1.995a8960 8960 0 0 0-14.428-44.245l-2.055-6.26c-6.08-18.521-12.185-37.035-18.373-55.521q-4.116-12.301-8.216-24.608l-.758-2.276a70581 70581 0 0 1-10.606-31.846l-8.064-24.222q-2.579-7.744-5.155-15.49c-8.97-26.968-18.034-53.902-27.263-80.783l-5.122-14.927c-4.903-14.29-9.779-28.59-14.575-42.918l-1.574-4.69q-1.09-3.246-2.172-6.493l-1.24-3.71L703 350l-.586-1.883c-1.537-5.416-1.637-10.475-1.535-16.078q.031-3.355.059-6.71l.037-3.91c.037-5.07.009-10.139-.018-15.209q-.073-14.018-.032-28.034c.013-5.468.01-10.935-.031-16.402-.04-5.372-.035-10.743 0-16.115q.008-3.03-.03-6.058c-.17-13.908 1.959-22.364 10.136-33.601 1.446-2.329 2.808-4.693 4.176-7.07q1.024-1.75 2.053-3.497 1.043-1.779 2.083-3.558l1.093-1.867a4293 4293 0 0 0 14.658-25.196l1.534-2.643 1.376-2.4 1.195-2.074C740 156 740 156 740 154zm28 761c-1.5 2.313-1.5 2.313-2 5 2.095 5.725 6.842 7.421 12 10 3.13.112 6.238.16 9.37.161l3.027.011c3.42.009 6.84.007 10.26.004l3.669-.001c36.093-.032 72.176-.944 108.258-1.781q10.525-.244 21.051-.482C523.114 925.91 611.568 923.545 700 920v-1c-7.638-1.005-15.194-1.23-22.892-1.357l-4.22-.08q-5.8-.107-11.6-.204l-7.49-.132q-18.08-.32-36.163-.616l-8.814-.146c-71.933-1.198-143.87-2.024-215.81-2.668q-13.042-.118-26.083-.245-18.225-.178-36.45-.326-8.877-.072-17.754-.158-8.178-.082-16.354-.136-2.976-.023-5.95-.056c-2.693-.03-5.385-.047-8.077-.06l-2.365-.036c-4.09-.006-7.355.24-10.978 2.22"/><path d="M461 505c17.502 14.007 29.48 33.285 32.68 55.625 2.229 23.487-2.783 45.962-17.504 64.828C461.732 642.361 442.623 654.736 420 657c-22.235 1.543-43.866-2.028-61.75-16.25A416 416 0 0 1 354 637l-2.496-1.926c-15.307-12.68-24.908-33.388-27.258-52.91-1.876-24.124 4.471-46.902 20.34-65.531C375.064 483.393 424.71 477.77 461 505"/><path d="M725.309 574.68c14.65 11.85 23.793 30.01 25.95 48.554.44 5.371.595 10.755.741 16.141.785 28.923 8.773 51.421 26.625 74.25C791.929 730.64 802.066 751.035 803 773l.121 2.457c.526 21.12-5.535 37.857-19.86 53.2L781 831l-1.793 1.906c-12.535 12.176-31.276 17.271-48.289 17.223l-2.39.005c-2.64.005-5.281.002-7.922 0l-5.74.007q-7.885.008-15.771.004c-5.67 0-11.34.006-17.01.01q-16.666.012-33.331.012-13.55 0-27.099.006-32.169.012-64.338.013h-18.785q-32.558-.001-65.115.02-36.596.024-73.19.023-19.37-.002-38.739.013-16.495.014-32.991.005-8.412-.007-16.824.005-7.71.011-15.423-.002-2.778-.003-5.558.005c-22.04.063-42.93-1.742-59.942-17.415-8.478-8.913-10.935-20.834-10.75-32.84 2.13-22.186 13.125-40.685 30-55 4.095-3.075 8.497-5.575 13-8l2.477-1.418c22.263-12.1 50.297-14.179 74.44-7.21 9.964 3.006 19.524 6.79 29.137 10.774C390.266 747.93 390.266 747.93 401 750l3.633.703c21.36 3.478 42.168-.543 60.3-12.664 6.58-5.021 11.36-10.936 16.313-17.469C492.93 705.237 507.388 693.154 527 690c3.43-.205 6.832-.142 10.266-.055l5.886.075q4.568.072 9.136.172c17.527.36 31.208-.566 44.708-13.036 13.632-14.306 13.397-33.422 13.004-51.843q-.118-5.694-.187-11.387l-.076-2.57c-.169-13.951 6.343-26.043 15.783-36.004 29.138-27.625 69.257-22.887 99.789-.672"/></svg>