<?xml version="1.0" encoding="UTF-8"?>
<!-- Generator: visioncortex VTracer 0.6.12 -->
<svg version="1.1" xmlns="http://www.w3.org/2000/svg" width="1024" height="1024">
  <metadata>
                <![CDATA[
            {
  "prompt": {
    "4": {
      "inputs": {
        "vae_name": "ae.safetensors"
      },
      "class_type": "VAELoader",
      "_meta": {
        "title": "Load VAE"
      }
    },
    "5": {
      "inputs": {
        "clip_name": "qwen3_4b_fp8_scaled.safetensors",
        "type": "lumina2",
        "device": "default"
      },
      "class_type": "CLIPLoader",
      "_meta": {
        "title": "Load CLIP"
      }
    },
    "6": {
      "inputs": {
        "ckpt_name": "zEpicrealism_turboV1Fp8.safetensors"
      },
      "class_type": "CheckpointLoaderSimple",
      "_meta": {
        "title": "Load Checkpoint"
      }
    },
    "7": {
      "inputs": {
        "shift": 6.0,
        "model": [
          "6",
          0
        ]
      },
      "class_type": "ModelSamplingAuraFlow",
      "_meta": {
        "title": "ModelSamplingAuraFlow"
      }
    },
    "8": {
      "inputs": {
        "PowerLoraLoaderHeaderWidget": {
          "type": "PowerLoraLoaderHeaderWidget"
        },
        "lora_1": {
          "on": true,
          "lora": "MinimalistVectorArtZ.safetensors",
          "strength": 0.4
        },
        "lora_2": {
          "on": false,
          "lora": "None",
          "strength": 0.75
        },
        "\u2795 Add Lora": "",
        "model": [
          "7",
          0
        ],
        "clip": [
          "5",
          0
        ]
      },
      "class_type": "Power Lora Loader (rgthree)",
      "_meta": {
        "title": "Power Lora Loader (rgthree)"
      }
    },
    "9": {
      "inputs": {
        "text": "A bold, heavy solid black icon of a low-form spouted lab beaker. Side 3/4 perspective, highlighting the sharp, triangular spout notch on the left rim. High-contrast woodblock style. The beaker is defined by a heavy, thick black silhouette with a flat base. Thick, bold white negative space forms the interior void. At the bottom of this white void sits a single, dense, contiguous black mass of 'spheres' that forms a bumpy, irregular floor. Only two (2) additional, solid black 'spheres' are offset, clinging to the inner wall of the beaker. These spheres are chunky and geometric. Zero fine lines, no gray, absolute heavy visual weight. Isolated on white. Optimized for a clean, single-boolean SVG silhouette. Black and white only. White background.",
        "clip": [
          "8",
          1
        ]
      },
      "class_type": "CLIPTextEncode",
      "_meta": {
        "title": "Positive Prompt"
      }
    },
    "10": {
      "inputs": {
        "text": "blurry, bad, shadow, color, grey, text, watermark, logo, 3d",
        "clip": [
          "8",
          1
        ]
      },
      "class_type": "CLIPTextEncode",
      "_meta": {
        "title": "Negative Prompt"
      }
    },
    "11": {
      "inputs": {
        "seed": 262658728673969,
        "steps": 9,
        "cfg": 1.0,
        "sampler_name": "euler",
        "scheduler": "beta",
        "denoise": 1.0,
        "preview_method": "auto",
        "vae_decode": "true",
        "model": [
          "8",
          0
        ],
        "positive": [
          "9",
          0
        ],
        "negative": [
          "10",
          0
        ],
        "latent_image": [
          "27",
          0
        ],
        "optional_vae": [
          "4",
          0
        ]
      },
      "class_type": "KSampler (Efficient)",
      "_meta": {
        "title": "KSampler (Efficient)"
      }
    },
    "13": {
      "inputs": {
        "filename_prefix": [
          "35",
          0
        ],
        "images": [
          "11",
          5
        ]
      },
      "class_type": "SaveImage",
      "_meta": {
        "title": "Save Image"
      }
    },
    "27": {
      "inputs": {
        "dimensions": "1024 x 1024 (1:1)",
        "invert": false,
        "batch_size": 1
      },
      "class_type": "EmptyLatentImagePresets",
      "_meta": {
        "title": "Empty Latent Image Presets"
      }
    },
    "32": {
      "inputs": {
        "filename_prefix": [
          "35",
          0
        ],
        "svg": [
          "34",
          0
        ]
      },
      "class_type": "SaveSVGNode",
      "_meta": {
        "title": "SaveSVGNode"
      }
    },
    "33": {
      "inputs": {
        "mode": "spline",
        "filter_speckle": 4,
        "corner_threshold": 60,
        "length_threshold": 4.0,
        "splice_threshold": 45,
        "image": [
          "11",
          5
        ]
      },
      "class_type": "TS_ImageToSVGStringBW_Vtracer",
      "_meta": {
        "title": "Image to SVG String BW_Vtracer"
      }
    },
    "34": {
      "inputs": {
        "SVG_String": [
          "33",
          0
        ]
      },
      "class_type": "TS_SVGStringToSVGBytesIO",
      "_meta": {
        "title": "SVG String to SVG BytesIO"
      }
    },
    "35": {
      "inputs": {
        "value": "Icons/modernist-"
      },
      "class_type": "PrimitiveString",
      "_meta": {
        "title": "String"
      }
    }
  },
  "workflow": {
    "id": "b863a6d5-b1c1-49ed-82de-40ff658289d1",
    "revision": 0,
    "last_node_id": 38,
    "last_link_id": 50,
    "nodes": [
      {
        "id": 4,
        "type": "VAELoader",
        "pos": [
          -6219.549754800085,
          -970.9114176367043
        ],
        "size": [
          373.8333435058594,
          123.80000305175781
        ],
        "flags": {},
        "order": 0,
        "mode": 0,
        "inputs": [],
        "outputs": [
          {
            "name": "VAE",
            "type": "VAE",
            "links": [
              13,
              48
            ]
          }
        ],
        "properties": {
          "cnr_id": "comfy-core",
          "ver": "0.9.2",
          "Node name for S&R": "VAELoader"
        },
        "widgets_values": [
          "ae.safetensors"
        ]
      },
      {
        "id": 5,
        "type": "CLIPLoader",
        "pos": [
          -6634.62650250646,
          -1114.7031007821206
        ],
        "size": [
          366.1666564941406,
          654.9833374023438
        ],
        "flags": {},
        "order": 1,
        "mode": 0,
        "inputs": [],
        "outputs": [
          {
            "name": "CLIP",
            "type": "CLIP",
            "links": [
              6
            ]
          }
        ],
        "properties": {
          "cnr_id": "comfy-core",
          "ver": "0.9.2",
          "Node name for S&R": "CLIPLoader"
        },
        "widgets_values": [
          "qwen3_4b_fp8_scaled.safetensors",
          "lumina2",
          "default"
        ]
      },
      {
        "id": 6,
        "type": "CheckpointLoaderSimple",
        "pos": [
          -7142.71017568096,
          -1274.2912388867044
        ],
        "size": [
          456,
          154.6666717529297
        ],
        "flags": {},
        "order": 2,
        "mode": 0,
        "inputs": [],
        "outputs": [
          {
            "name": "MODEL",
            "type": "MODEL",
            "links": [
              4
            ]
          },
          {
            "name": "CLIP",
            "type": "CLIP",
            "links": []
          },
          {
            "name": "VAE",
            "type": "VAE",
            "links": []
          }
        ],
        "properties": {
          "cnr_id": "comfy-core",
          "ver": "0.9.2",
          "Node name for S&R": "CheckpointLoaderSimple"
        },
        "widgets_values": [
          "zEpicrealism_turboV1Fp8.safetensors"
        ],
        "color": "#453f4f",
        "bgcolor": "#312b3b"
      },
      {
        "id": 7,
        "type": "ModelSamplingAuraFlow",
        "pos": [
          -6599.992479550085,
          -1269.9509198430794
        ],
        "size": [
          270,
          104
        ],
        "flags": {},
        "order": 7,
        "mode": 0,
        "inputs": [
          {
            "name": "model",
            "type": "MODEL",
            "link": 4
          }
        ],
        "outputs": [
          {
            "name": "MODEL",
            "type": "MODEL",
            "links": [
              5
            ]
          }
        ],
        "properties": {
          "cnr_id": "comfy-core",
          "ver": "0.10.0",
          "Node name for S&R": "ModelSamplingAuraFlow"
        },
        "widgets_values": [
          6
        ]
      },
      {
        "id": 8,
        "type": "Power Lora Loader (rgthree)",
        "pos": [
          -6200.033064991919,
          -1269.9509198430794
        ],
        "size": [
          340.48333740234375,
          232
        ],
        "flags": {},
        "order": 8,
        "mode": 0,
        "inputs": [
          {
            "dir": 3,
            "name": "model",
            "type": "MODEL",
            "link": 5
          },
          {
            "dir": 3,
            "name": "clip",
            "type": "CLIP",
            "link": 6
          }
        ],
        "outputs": [
          {
            "dir": 4,
            "name": "MODEL",
            "shape": 3,
            "type": "MODEL",
            "links": [
              47
            ]
          },
          {
            "dir": 4,
            "name": "CLIP",
            "shape": 3,
            "type": "CLIP",
            "links": [
              7,
              8
            ]
          }
        ],
        "properties": {
          "cnr_id": "rgthree-comfy",
          "ver": "8ff50e4521881eca1fe26aec9615fc9362474931",
          "Show Strengths": "Single Strength"
        },
        "widgets_values": [
          {},
          {
            "type": "PowerLoraLoaderHeaderWidget"
          },
          {
            "on": true,
            "lora": "MinimalistVectorArtZ.safetensors",
            "strength": 0.4,
            "strengthTwo": null
          },
          {
            "on": false,
            "lora": "None",
            "strength": 0.75,
            "strengthTwo": null
          },
          {},
          ""
        ]
      },
      {
        "id": 9,
        "type": "CLIPTextEncode",
        "pos": [
          -5665.31691216921,
          -968.8740792357033
        ],
        "size": [
          495.1833190917969,
          389.6333312988281
        ],
        "flags": {},
        "order": 10,
        "mode": 0,
        "inputs": [
          {
            "name": "clip",
            "type": "CLIP",
            "link": 7
          }
        ],
        "outputs": [
          {
            "name": "CONDITIONING",
            "type": "CONDITIONING",
            "links": [
              9
            ]
          }
        ],
        "title": "Positive Prompt",
        "properties": {
          "cnr_id": "comfy-core",
          "ver": "0.9.2",
          "Node name for S&R": "CLIPTextEncode"
        },
        "widgets_values": [
          "A bold, heavy solid black icon of a low-form spouted lab beaker. Side 3/4 perspective, highlighting the sharp, triangular spout notch on the left rim. High-contrast woodblock style. The beaker is defined by a heavy, thick black silhouette with a flat base. Thick, bold white negative space forms the interior void. At the bottom of this white void sits a single, dense, contiguous black mass of 'spheres' that forms a bumpy, irregular floor. Only two (2) additional, solid black 'spheres' are offset, clinging to the inner wall of the beaker. These spheres are chunky and geometric. Zero fine lines, no gray, absolute heavy visual weight. Isolated on white. Optimized for a clean, single-boolean SVG silhouette. Black and white only. White background."
        ],
        "color": "#232",
        "bgcolor": "#353"
      },
      {
        "id": 10,
        "type": "CLIPTextEncode",
        "pos": [
          -5666.5274536227935,
          -512.2837502938696
        ],
        "size": [
          470,
          142
        ],
        "flags": {},
        "order": 11,
        "mode": 0,
        "inputs": [
          {
            "name": "clip",
            "type": "CLIP",
            "link": 8
          }
        ],
        "outputs": [
          {
            "name": "CONDITIONING",
            "type": "CONDITIONING",
            "links": [
              10
            ]
          }
        ],
        "title": "Negative Prompt",
        "properties": {
          "cnr_id": "comfy-core",
          "ver": "0.9.2",
          "Node name for S&R": "CLIPTextEncode"
        },
        "widgets_values": [
          "blurry, bad, shadow, color, grey, text, watermark, logo, 3d"
        ],
        "color": "#322",
        "bgcolor": "#533"
      },
      {
        "id": 11,
        "type": "KSampler (Efficient)",
        "pos": [
          -4910.927222378377,
          -1342.4963373867045
        ],
        "size": [
          400.1000061035156,
          966.6666870117188
        ],
        "flags": {},
        "order": 12,
        "mode": 0,
        "inputs": [
          {
            "name": "model",
            "type": "MODEL",
            "link": 46
          },
          {
            "name": "positive",
            "type": "CONDITIONING",
            "link": 9
          },
          {
            "name": "negative",
            "type": "CONDITIONING",
            "link": 10
          },
          {
            "name": "latent_image",
            "type": "LATENT",
            "link": 37
          },
          {
            "name": "optional_vae",
            "shape": 7,
            "type": "VAE",
            "link": 13
          },
          {
            "name": "script",
            "shape": 7,
            "type": "SCRIPT",
            "link": null
          }
        ],
        "outputs": [
          {
            "name": "MODEL",
            "type": "MODEL",
            "links": null
          },
          {
            "name": "CONDITIONING+",
            "type": "CONDITIONING",
            "links": null
          },
          {
            "name": "CONDITIONING-",
            "type": "CONDITIONING",
            "links": null
          },
          {
            "name": "LATENT",
            "type": "LATENT",
            "links": null
          },
          {
            "name": "VAE",
            "type": "VAE",
            "links": null
          },
          {
            "name": "IMAGE",
            "type": "IMAGE",
            "links": [
              14,
              39
            ]
          }
        ],
        "properties": {
          "cnr_id": "efficiency-nodes-comfyui",
          "ver": "1.0.8",
          "Node name for S&R": "KSampler (Efficient)"
        },
        "widgets_values": [
          -1,
          null,
          9,
          1,
          "euler",
          "beta",
          1,
          "auto",
          "true"
        ],
        "color": "#223333",
        "bgcolor": "#335555",
        "shape": "box"
      },
      {
        "id": 13,
        "type": "SaveImage",
        "pos": [
          -4410.4612398783775,
          -1352.003718357621
        ],
        "size": [
          461.7833251953125,
          344
        ],
        "flags": {},
        "order": 13,
        "mode": 0,
        "inputs": [
          {
            "name": "images",
            "type": "IMAGE",
            "link": 14
          },
          {
            "name": "filename_prefix",
            "type": "STRING",
            "widget": {
              "name": "filename_prefix"
            },
            "link": 43
          }
        ],
        "outputs": [],
        "properties": {
          "cnr_id": "comfy-core",
          "ver": "0.17.2"
        },
        "widgets_values": [
          "Icons/apps-"
        ]
      },
      {
        "id": 27,
        "type": "EmptyLatentImagePresets",
        "pos": [
          -5667.029435552877,
          -1285.097744767579
        ],
        "size": [
          285.0833435058594,
          214.6666717529297
        ],
        "flags": {},
        "order": 3,
        "mode": 0,
        "inputs": [],
        "outputs": [
          {
            "name": "Latent",
            "type": "LATENT",
            "links": [
              37
            ]
          },
          {
            "name": "Width",
            "type": "INT",
            "links": null
          },
          {
            "name": "Height",
            "type": "INT",
            "links": null
          }
        ],
        "properties": {
          "cnr_id": "comfyui-kjnodes",
          "ver": "c88ac88a8f8a6a090a0d5d607156090cb2911503",
          "Node name for S&R": "EmptyLatentImagePresets"
        },
        "widgets_values": [
          "1024 x 1024 (1:1)",
          false,
          1
        ]
      },
      {
        "id": 32,
        "type": "SaveSVGNode",
        "pos": [
          -3794.3418645120446,
          -769.3963538867042
        ],
        "size": [
          270,
          344
        ],
        "flags": {},
        "order": 16,
        "mode": 0,
        "inputs": [
          {
            "name": "svg",
            "type": "SVG",
            "link": 42
          },
          {
            "name": "filename_prefix",
            "type": "STRING",
            "widget": {
              "name": "filename_prefix"
            },
            "link": 44
          }
        ],
        "outputs": [],
        "properties": {
          "cnr_id": "comfy-core",
          "ver": "0.17.2",
          "Node name for S&R": "SaveSVGNode"
        },
        "widgets_values": [
          "Icons/apps-"
        ]
      },
      {
        "id": 33,
        "type": "TS_ImageToSVGStringBW_Vtracer",
        "pos": [
          -4400.3632124253745,
          -795.4383222122048
        ],
        "size": [
          314.01666259765625,
          234.66665649414062
        ],
        "flags": {},
        "order": 14,
        "mode": 0,
        "inputs": [
          {
            "name": "image",
            "type": "IMAGE",
            "link": 39
          }
        ],
        "outputs": [
          {
            "name": "STRING",
            "shape": 6,
            "type": "STRING",
            "links": [
              41
            ]
          }
        ],
        "properties": {
          "cnr_id": "comfyui-tosvg",
          "ver": "1.0.1",
          "Node name for S&R": "TS_ImageToSVGStringBW_Vtracer"
        },
        "widgets_values": [
          "spline",
          4,
          60,
          4,
          45
        ]
      },
      {
        "id": 34,
        "type": "TS_SVGStringToSVGBytesIO",
        "pos": [
          -4063.4420236630453,
          -778.4312717357033
        ],
        "size": [
          225,
          72
        ],
        "flags": {},
        "order": 15,
        "mode": 0,
        "inputs": [
          {
            "name": "SVG_String",
            "type": "STRING",
            "link": 41
          }
        ],
        "outputs": [
          {
            "name": "SVG",
            "type": "SVG",
            "links": [
              42
            ]
          }
        ],
        "properties": {
          "cnr_id": "comfyui-tosvg",
          "ver": "1.0.1",
          "Node name for S&R": "TS_SVGStringToSVGBytesIO"
        },
        "widgets_values": []
      },
      {
        "id": 35,
        "type": "PrimitiveString",
        "pos": [
          -4406.652340477376,
          -1528.3035566657877
        ],
        "size": [
          270,
          108
        ],
        "flags": {},
        "order": 4,
        "mode": 0,
        "inputs": [],
        "outputs": [
          {
            "name": "STRING",
            "type": "STRING",
            "links": [
              43,
              44
            ]
          }
        ],
        "properties": {
          "cnr_id": "comfy-core",
          "ver": "0.17.2",
          "Node name for S&R": "PrimitiveString"
        },
        "widgets_values": [
          "Icons/modernist-"
        ]
      },
      {
        "id": 36,
        "type": "ModelPatchLoader",
        "pos": [
          -7059.35825225646,
          -330.0492258867041
        ],
        "size": [
          427.6000061035156,
          106.66667175292969
        ],
        "flags": {},
        "order": 5,
        "mode": 4,
        "inputs": [],
        "outputs": [
          {
            "name": "MODEL_PATCH",
            "type": "MODEL_PATCH",
            "links": [
              45
            ]
          }
        ],
        "properties": {
          "cnr_id": "comfy-core",
          "ver": "0.16.3",
          "Node name for S&R": "ModelPatchLoader"
        },
        "widgets_values": [
          "Z-Image-Turbo-Fun-Controlnet-Union-2.1.safetensors"
        ]
      },
      {
        "id": 37,
        "type": "ZImageFunControlnet",
        "pos": [
          -6611.241875680959,
          -335.7772803285377
        ],
        "size": [
          361.6000061035156,
          224
        ],
        "flags": {},
        "order": 9,
        "mode": 4,
        "inputs": [
          {
            "name": "model",
            "type": "MODEL",
            "link": 47
          },
          {
            "name": "model_patch",
            "type": "MODEL_PATCH",
            "link": 45
          },
          {
            "name": "vae",
            "type": "VAE",
            "link": 48
          },
          {
            "name": "image",
            "shape": 7,
            "type": "IMAGE",
            "link": 50
          },
          {
            "name": "inpaint_image",
            "shape": 7,
            "type": "IMAGE",
            "link": null
          },
          {
            "name": "mask",
            "shape": 7,
            "type": "MASK",
            "link": null
          }
        ],
        "outputs": [
          {
            "name": "MODEL",
            "type": "MODEL",
            "links": [
              46
            ]
          }
        ],
        "properties": {
          "cnr_id": "comfy-core",
          "ver": "0.16.3",
          "Node name for S&R": "ZImageFunControlnet"
        },
        "widgets_values": [
          0.7
        ]
      },
      {
        "id": 38,
        "type": "LoadImage",
        "pos": [
          -6229.470480180959,
          -560.5587875438698
        ],
        "size": [
          458.8333435058594,
          788.2999877929688
        ],
        "flags": {},
        "order": 6,
        "mode": 4,
        "inputs": [],
        "outputs": [
          {
            "name": "IMAGE",
            "type": "IMAGE",
            "links": [
              50
            ]
          },
          {
            "name": "MASK",
            "type": "MASK",
            "links": null
          }
        ],
        "title": "Reference",
        "properties": {
          "cnr_id": "comfy-core",
          "ver": "0.9.2",
          "Node name for S&R": "LoadImage"
        },
        "widgets_values": [
          "background-removed4.png",
          "image"
        ],
        "color": "#322",
        "bgcolor": "#533"
      }
    ],
    "links": [
      [
        4,
        6,
        0,
        7,
        0,
        "MODEL"
      ],
      [
        5,
        7,
        0,
        8,
        0,
        "MODEL"
      ],
      [
        6,
        5,
        0,
        8,
        1,
        "CLIP"
      ],
      [
        7,
        8,
        1,
        9,
        0,
        "CLIP"
      ],
      [
        8,
        8,
        1,
        10,
        0,
        "CLIP"
      ],
      [
        9,
        9,
        0,
        11,
        1,
        "CONDITIONING"
      ],
      [
        10,
        10,
        0,
        11,
        2,
        "CONDITIONING"
      ],
      [
        13,
        4,
        0,
        11,
        4,
        "VAE"
      ],
      [
        14,
        11,
        5,
        13,
        0,
        "IMAGE"
      ],
      [
        37,
        27,
        0,
        11,
        3,
        "LATENT"
      ],
      [
        39,
        11,
        5,
        33,
        0,
        "IMAGE"
      ],
      [
        41,
        33,
        0,
        34,
        0,
        "STRING"
      ],
      [
        42,
        34,
        0,
        32,
        0,
        "SVG"
      ],
      [
        43,
        35,
        0,
        13,
        1,
        "STRING"
      ],
      [
        44,
        35,
        0,
        32,
        1,
        "STRING"
      ],
      [
        45,
        36,
        0,
        37,
        1,
        "MODEL_PATCH"
      ],
      [
        46,
        37,
        0,
        11,
        0,
        "MODEL"
      ],
      [
        47,
        8,
        0,
        37,
        0,
        "MODEL"
      ],
      [
        48,
        4,
        0,
        37,
        2,
        "VAE"
      ],
      [
        50,
        38,
        0,
        37,
        3,
        "IMAGE"
      ]
    ],
    "groups": [],
    "config": {},
    "extra": {
      "ds": {
        "scale": 1.1,
        "offset": [
          5863.52110743853,
          1164.4551414423229
        ]
      },
      "workflowRendererVersion": "Vue",
      "frontendVersion": "1.41.20",
      "VHS_latentpreview": false,
      "VHS_latentpreviewrate": 0,
      "VHS_MetadataImage": true,
      "VHS_KeepIntermediate": true
    },
    "version": 0.4
  }
}
                ]]>
            </metadata>
            
<path d="M0 0 C2.349046955561363 -0.003308367092401454 4.6980933510106695 -0.007035937268810244 7.047139048576355 -0.011141479015350342 C13.443149146086057 -0.021056612009374476 19.839149868993672 -0.024861024440738788 26.235166549682617 -0.027530789375305176 C32.44274221256404 -0.030579113084172604 38.650311647101034 -0.039208754588855754 44.85788267292082 -0.04707472492009401 C61.45191457632575 -0.06779207460675707 78.04594811363768 -0.07836394088158727 94.6399899115786 -0.08720433292910457 C102.49570339024922 -0.09142420378672966 110.35141612001058 -0.09664394106003726 118.20712896902114 -0.10188886197283864 C145.12503350444564 -0.11975715111404384 172.04293828270346 -0.13475596806321732 198.96084785461426 -0.14220905303955078 C200.64633357308747 -0.14268379742568982 202.3318192912388 -0.14315968599670725 204.01730500906706 -0.14363671466708183 C204.85308181407396 -0.1438730908953545 205.68885861908086 -0.14410946712364137 206.54996199393645 -0.14435300626792014 C210.78386748865807 -0.14555411162838539 215.01777297904084 -0.14676959693444758 219.25167846679688 -0.1479949951171875 C219.67177688936704 -0.14811507008504066 219.67177688936704 -0.14811507008504066 221.7977295126766 -0.14872272219508886 C249.08104460339734 -0.15662778406972677 276.3643163992475 -0.18009565682464768 303.6476125661284 -0.21255093906074762 C332.5319368867755 -0.24684787715985124 361.416235840647 -0.266559362151952 390.30058085918427 -0.26985329389572144 C393.4703953371695 -0.27027081155260646 396.6402097997076 -0.27075036781100437 399.8100242614746 -0.27127647399902344 C400.5904524231423 -0.2713996656658111 401.3708805848099 -0.27152285733259873 402.17495808470994 -0.2716497820802033 C414.7253314542734 -0.27398029207623154 427.2756542893768 -0.2896300181691771 439.826009651646 -0.31011832039803267 C452.4315877258374 -0.3303710905737631 465.03710512253474 -0.3358559124896914 477.64269645512104 -0.3263476863503456 C484.4694110188475 -0.32159179533174154 491.29597590023116 -0.32321608626166665 498.12266731262207 -0.343109130859375 C504.3719938641643 -0.3606837234501796 510.6210359119432 -0.35978927151323603 516.8703652471304 -0.3442118391394615 C519.1303524382771 -0.3418273220662229 521.390359045293 -0.34620282081432663 523.6503164917231 -0.358040489256382 C550.2350373557985 -0.4886649138192496 550.2350373557985 -0.4886649138192496 560.3005065917969 9.080764770507813 C566.9580323870456 17.066776438731267 568.9398863083446 25.996783651776155 568.0231628417969 36.14717102050781 C565.9285183812456 45.27288319259128 560.7998246102114 53.211749050399845 556.0231628417969 61.14717102050781 C555.335463790034 62.29809377317508 554.6479623720726 63.449134639950955 553.9606628417969 64.60029602050781 C552.4980176238028 67.04461887608514 551.0292164759634 69.48515066663418 549.5583190917969 71.92451477050781 C544.9024006699575 79.66081709429136 540.3356763864416 87.45051399949315 535.7477722167969 95.22724914550781 C533.9936415889476 98.19715320964667 532.235517704964 101.16466001364836 530.4762878417969 104.13154602050781 C529.8978210449219 105.10793029785157 529.3193542480469 106.08431457519532 528.7233581542969 107.09028625488281 C527.6246739123931 108.94451312092187 526.5251247215067 110.79822787392851 525.4245300292969 112.65132141113281 C524.9208288574218 113.50202209472656 524.4171276855469 114.3527227783203 523.8981628417969 115.22920227050781 C523.4624597167968 115.96372619628906 523.0267565917969 116.6982501220703 522.5778503417969 117.45503234863281 C522.3213269042969 117.89923522949218 522.3213269042969 117.89923522949218 521.0231628417969 120.14717102050781 C520.6194448947906 120.7618203163147 520.2157269477844 121.37646961212158 519.7997751235962 122.00974464416504 C516.0788815164522 128.00389818775255 515.3047034014593 132.66962870972657 515.3920593261719 139.6454620361328 C515.3849040222168 140.65495407104493 515.3777487182617 141.66444610595704 515.3703765869141 142.70452880859375 C515.3535593579403 146.0205147455425 515.3728623121245 149.3351345266265 515.3942565917969 152.6510772705078 C515.3934268076106 154.97643138540138 515.3909632983242 157.30178543486466 515.3869476318359 159.62713623046875 C515.3840937530391 164.49670611741647 515.3987434555837 169.36581507938268 515.4262390136719 174.2353057861328 C515.4601870478009 180.43624356639583 515.4543435492127 186.63635042411556 515.4355764389038 192.837327003479 C515.4249330716381 197.64104968645995 515.4340127241486 202.44458387389693 515.4489612579346 207.24828910827637 C515.4540988543652 209.53212356715278 515.453715826089 211.81597809710695 515.447416305542 214.09980964660645 C515.4194190778571 230.35842765949133 517.005519190469 244.37767625053567 523.0856628417969 259.5846710205078 C526.3399997378355 268.08574110007993 529.2377097787792 276.6911594650062 532.0856628417969 285.3346710205078 C536.152419689312 297.64901758420484 540.3477568420705 309.9124970067663 544.6481628417969 322.1471710205078 C545.2333711952663 323.81310411474135 545.8185762341942 325.4790383733092 546.4037780761719 327.1449737548828 C547.3135363587696 329.734457269243 548.2233581901842 332.3239183415478 549.1334075927734 334.9132995605469 C558.1236557136696 360.50398052636126 567.0812568623319 386.10691741175214 575.5886840820313 411.86268615722656 C580.4147583500429 426.4612394449538 585.4303253450743 440.99290964023044 590.4606628417969 455.5221710205078 C590.8721054077148 456.7107571411133 591.2835479736328 457.89934326171874 591.7074584960938 459.1239471435547 C593.3403631399601 463.8407945288768 594.9734711161036 468.55757143719245 596.6069183349609 473.27423095703125 C605.4956476873705 498.94659813514465 614.240595085648 524.6637765025797 622.7987213134766 550.4482116699219 C625.2832225681152 557.9336592407918 627.7777078074704 565.4157660240597 630.2729797363281 572.8976287841797 C631.5195358436263 576.635623672198 632.7654586681774 580.3738296265003 634.0114440917969 584.1120147705078 C634.5109527540761 585.610550945578 635.0104644822375 587.1090860986977 635.5099792480469 588.6076202392578 C638.5715026829012 597.7921905438203 638.5715026829012 597.7921905438203 639.3500213623047 600.1278228759766 C639.8681792949745 601.6822459010684 640.3863980737533 603.2366486448129 640.9046783447266 604.7910308837891 C642.1759921168332 608.6040938917056 643.4463011611095 612.4174852246524 644.7143249511719 616.2316436767578 C647.0103764924387 623.134701274647 649.3186288501794 630.0328174599114 651.6716003417969 636.9167022705078 C667.1022353796433 682.1764477001815 666.1422142039978 729.2413357953558 645.2638854980469 772.8817901611328 C639.255805712715 784.9585093733273 631.9668289216391 796.0388873209198 623.0231628417969 806.1471710205078 C622.1582019042969 807.1333038330079 621.2932409667969 808.1194366455078 620.4020690917969 809.1354522705078 C599.6450105946574 832.4820346216846 570.7381176173507 853.7568393371071 539.0231628417969 858.1471710205078 C536.1001073285757 858.2881848295008 533.1814289633616 858.2867574225609 530.2553882598877 858.2813920974731 C529.3803695428371 858.283744327724 528.5053508257865 858.2860965579748 527.6038163900375 858.2885200679302 C524.6631925869345 858.2951924584343 521.7226131507838 858.2947523749814 518.781982421875 858.2943420410156 C516.6556847021138 858.297641764927 514.5293876078663 858.3013675625695 512.4030913114548 858.305483520031 C506.55292263267256 858.3154993648353 500.70276421426297 858.3192196526804 494.8525881767273 858.3218728303909 C488.54557579596474 858.32577712957 482.238571529885 858.335355409495 475.9315643310547 858.3440856933594 C461.41633424007 858.3629128252325 446.9011051401435 858.3731058695469 432.38586588110775 858.3815463739447 C425.2097184211424 858.3857551958631 418.033571795856 858.390976903135 410.8574250387028 858.3962309029885 C386.2829789160544 858.4141209192453 361.7085325480575 858.4291155836046 337.1340808868408 858.4365510940552 C335.5916371515875 858.4370258479602 334.0491934166829 858.4375017365652 332.50674968212843 858.4379787556827 C332.1243003478204 858.4380969437968 332.1243003478204 858.4380969437968 330.1888749287464 858.4386950472835 C326.3136505831677 858.439896220065 322.4384262422989 858.4411116780255 318.5632019042969 858.4423370361328 C318.1786797994655 858.4424571111007 318.1786797994655 858.4424571111007 316.2327649053186 858.4430647632107 C291.3092413877582 858.4509543276926 266.3857655107327 858.474379173259 241.46226278878748 858.5068929800764 C215.09970500030067 858.5412211663843 188.73717507318923 858.5609050440906 162.37459456920624 858.5641953349113 C159.47828474479206 858.5646128579713 156.58197493728204 858.5650924176649 153.68566513061523 858.5656185150146 C153.32909961654337 858.565680110848 153.32909961654337 858.565680110848 151.5246620150283 858.5659918230958 C140.06700341873562 858.5683202232655 128.60940031030714 858.583960119367 117.15176146291196 858.6044603614137 C105.62525825570498 858.624755910563 94.0988460412492 858.6298456965611 82.57232363522053 858.620689727366 C76.33241066978144 858.6161481523422 70.09267721689014 858.6180233433514 63.8527889251709 858.637451171875 C58.13304839246695 858.6551053036329 52.41361803784298 858.6540665459212 46.69387410581112 858.6385538801551 C44.63186747098189 858.6361812551386 42.5698392288557 858.6404832491495 40.50786556303501 858.652382530272 C3.6188271732503665 858.8519641662905 -26.18112755429047 841.618179384651 -51.976837158203125 816.1471710205078 C-85.91941425082285 782.2526032307065 -101.29595569786764 736.5804240725137 -102.02029418945313 689.3112335205078 C-101.95531713006898 668.7020391558422 -96.49642500330506 649.4716891093694 -89.97683715820313 630.0846710205078 C-89.30502295894192 628.0584175252003 -88.63405666455358 626.0318827246676 -87.96389770507813 624.0050811767578 C-83.56253744608804 610.7303522449178 -79.06239339216995 597.4883709970771 -74.49226379394531 584.2708282470703 C-71.45324226405674 575.4775506023559 -68.46027473855526 566.6708092542011 -65.5274658203125 557.8414916992188 C-64.79021699568744 555.6220261048961 -64.05184959552079 553.4029349250363 -63.313262939453125 551.1839141845703 C-62.474664816077336 548.6643331361813 -61.636151170385006 546.1447241937667 -60.79794883728027 543.6250114440918 C-57.18206187915811 532.7554670636308 -53.558160597643905 521.8885942630714 -49.93511390686035 511.02143478393555 C-48.051348131867485 505.37099836851735 -46.167881247923646 499.72046232768 -44.28441083431244 494.06992745399475 C-43.212336736322754 490.8536458156518 -42.1402400563112 487.6373717046856 -41.068145751953125 484.4210968017578 C-40.63656605476547 483.1263580680079 -40.20498646503276 481.8316192984396 -39.773406982421875 480.53688049316406 C-38.909027099609375 477.94374084472656 -38.044647216796875 475.35060119628906 -37.180267333984375 472.75746154785156 C-37.07339692056178 472.4368502387405 -37.07339692056178 472.4368502387405 -36.532567858695984 470.8143627047539 C-36.10147855287056 469.52109506525835 -35.67038891362563 468.2278275369026 -35.239298939704895 466.93456012010574 C-34.17036298155537 463.72775708547033 -33.10143269686324 460.52095215991665 -32.032514572143555 457.31414318084717 C-29.949396346545655 451.06470227086083 -27.866184421422957 444.81529261889796 -25.78277587890625 438.5659484863281 C-22.342702341794222 428.2469243628565 -18.9029994847466 417.9277807940807 -15.468536376953125 407.6068878173828 C-9.292806482368434 389.0508918283428 -3.0670467318997794 370.5125142296773 3.210052490234375 351.99056243896484 C3.914865504935449 349.91037471918565 4.619230260486688 347.83003571677034 5.323455810546875 345.74964904785156 C9.97879914194499 331.99709627305174 14.63887880612458 318.2462539000253 19.343475341796875 304.5104522705078 C19.665328063964864 303.57036819458006 19.987180786132797 302.63028411865236 20.31878662109375 301.6617126464844 C21.7542713553662 297.4704862123261 23.192385717877954 293.28019956676604 24.635955810546875 289.0917510986328 C27.26718738571026 281.4394465673456 29.82420959042969 273.76631262379146 32.284881591796875 266.0573272705078 C32.53282470703124 265.28752532958987 32.7807678222656 264.51772338867187 33.036224365234375 263.72459411621094 C39.646120596599815 242.81138589943907 40.34623813259128 219.85997627707172 38.023162841796875 198.1471710205078 C37.951458740234386 197.46751281738284 37.8797546386719 196.7878546142578 37.805877685546875 196.0876007080078 C36.61729056210794 185.96403380327956 33.3564558126057 177.67033177101177 28.460662841796875 168.7794952392578 C26.740139212341205 165.62890322621587 25.06846201887339 162.45344801831345 23.398162841796875 159.2760772705078 C16.777106126316482 146.70876428411074 10.010843704317608 134.24183874597887 2.957977294921875 121.91059875488281 C-1.5066664707239283 114.06852768148286 -5.754201355584968 106.12099543278043 -9.976837158203125 98.14717102050781 C-16.24334241030394 86.31925854126075 -22.71626126188164 74.6293025059719 -29.352813720703125 63.00410461425781 C-32.84238604459995 56.86535306070388 -36.281275148413386 50.69779870066009 -39.711700439453125 44.52583312988281 C-42.68470558419682 39.18807072483821 -45.70533117980071 33.887752210787994 -48.820587158203125 28.631546020507813 C-49.12738403320313 28.107864379882813 -49.12738403320313 28.107864379882813 -50.679962158203125 25.457717895507813 C-51.85250154131592 23.46057744622763 -53.039412003427515 21.47178518549822 -54.242462158203125 19.492874145507813 C-54.50285278320314 19.04653625488281 -54.50285278320314 19.04653625488281 -55.820587158203125 16.787796020507813 C-56.05358520507812 16.398660278320307 -56.05358520507812 16.398660278320307 -57.232696533203125 14.429397583007813 C-57.976837158203125 12.147171020507813 -57.976837158203125 12.147171020507813 -57.287384033203125 9.529006958007813 C-55.43023081524751 6.15374861330308 -53.1050357588486 4.355311209198732 -49.976837158203125 2.1471710205078125 C-45.334918303801715 0.8183677783926555 -40.460335308279355 0.8076598305400324 -35.66288948059082 0.5938692092895508 C-34.738931827619666 0.5517685081437236 -33.81497417464851 0.5096678069978964 -32.86301780492067 0.46629132702946663 C-21.91009656431416 0.007588678412162153 -10.960705203716373 -0.0014198907716149733 0 0 Z M13.023162841796875 50.14717102050781 C14.67660503978459 54.28077651547713 16.537509465730068 57.95790743614958 18.773162841796875 61.77217102050781 C24.151487792233013 71.02543087617943 29.194719168129893 80.45255116461774 34.222625732421875 89.89985656738281 C41.08570977482282 102.783315996998 48.13445058081345 115.5432847621922 55.361053466796875 128.2272491455078 C76.99968552249135 166.24106221632246 87.34367386557193 195.20635369600268 83.27316284179688 239.6471710205078 C83.21161010742185 240.36195617675781 83.15005737304688 241.07674133300782 83.08663940429688 241.8131866455078 C81.28529198721463 258.48125610647617 75.48201486574698 274.28681769095783 70.02316284179688 290.0221710205078 C69.25502814961925 292.25700339130674 68.48770411530063 294.4921145458279 67.72116088867188 296.7274932861328 C65.4980070107037 303.2040195294965 63.26186955951249 309.67600760790054 61.023162841796875 316.1471710205078 C58.95727947837372 322.12517379371906 56.89439879508376 328.1042030815944 54.835662841796875 334.0846710205078 C54.600972900390616 334.76543701171875 54.36628295898436 335.4462030029297 54.124481201171875 336.14759826660156 C49.63406069270667 349.1869702552546 45.37050310860292 362.2972099592572 41.1268310546875 375.4186248779297 C37.206350912680705 387.5359978181236 33.19213160236427 399.61307574574573 29.023162841796875 411.6471710205078 C24.544287369091023 424.58033616038074 20.24211035538491 437.56442871778086 16.023162841796875 450.5846710205078 C11.6900910357474 463.95299228892895 7.34258131799686 477.3153803421678 2.898162841796875 490.6471710205078 C2.653543090820307 491.3811108398438 2.4089233398437386 492.1150506591797 2.156890869140625 492.87123107910156 C-1.207104861405469 502.9532253797174 -4.641495439283489 513.0096496017729 -8.108917236328125 523.0564727783203 C-13.341191900138256 538.2211281833395 -18.381932625091025 553.4414007572486 -23.319366455078125 568.7045440673828 C-23.912183315065022 570.5369944985782 -24.505038875087138 572.3694324103084 -25.097930908203125 574.2018585205078 C-25.248799057006835 574.6682196807861 -25.248799057006835 574.6682196807861 -26.012283325195313 577.0282897949219 C-28.567386131904016 584.9131931639453 -31.161914334186406 592.784813756616 -33.761993408203125 600.6549835205078 C-34.992264931909176 604.3862855743431 -36.22211612135163 608.1177259464895 -37.451873779296875 611.8491973876953 C-38.25201726401275 614.273110532585 -39.05410100177349 616.6963841640895 -39.858245849609375 619.1189727783203 C-40.99027994930469 622.5303047671734 -42.11506678071305 625.9439543805679 -43.238555908203125 629.3581085205078 C-43.57234756469728 630.3575448608399 -43.90613922119141 631.3569812011718 -44.25004577636719 632.3867034912109 C-55.30696264161324 666.1364620549464 -54.232551391841696 703.5739020105393 -38.136993408203125 735.4972686767578 C-35.07587280060858 741.2913279541477 -31.317242869872018 746.243638819301 -26.976837158203125 751.1471710205078 C-26.194376220703134 752.1268585205078 -25.411915283203143 753.1065460205078 -24.605743408203125 754.1159210205078 C-12.006783033216806 769.2404078730896 8.913896793710194 778.4420779425708 28.081390380859375 780.2335510253906 C46.89250026309537 781.8951647497904 65.85041388163461 781.4228072315043 84.71524953842163 781.3939613103867 C90.50932627742009 781.387319308582 96.30339527027058 781.3923467013185 102.09747314453125 781.3958435058594 C113.416547788059 781.4008588022201 124.73559297732947 781.395278172926 136.0546639561653 781.3859932050109 C148.58325839610563 781.3760888375066 161.11184599471676 781.3756261334403 173.64044369198382 781.3760930097196 C198.57162721515317 781.3769967400605 223.5027954762112 781.3670889588558 248.4339737072587 781.3516633445397 C270.55127074243444 781.3380292052099 292.6685569527889 781.3318027194133 314.7858581542969 781.3324737548828 C316.207359373568 781.3325141663834 317.6288605928406 781.3325545262162 319.0503618121147 781.3325948342681 C319.401756095225 781.3326050096017 319.401756095225 781.3326050096017 321.1800241339952 781.3326565029565 C324.7182801475494 781.3327573093568 328.2565361611812 781.3328478892272 331.79479217529297 781.3329267501831 C332.4929445422813 781.3329434636003 333.1910969092696 781.3329601770174 333.91040540859103 781.3329773969017 C352.4361265876595 781.3333429771367 370.9618464201144 781.328799798148 389.48756647109985 781.3226001858711 C390.14631608381865 781.3223798090405 390.14631608381865 781.3223798090405 393.47998836636543 781.3212645687163 C396.1256652009106 781.3203736257399 398.7713420323612 781.319473443975 401.41701886057854 781.3185639046133 C410.6069973174308 781.3155535556864 419.7969748401051 781.3144850733252 428.98695373535156 781.3140316009521 C440.1867286608974 781.3133481775735 451.3864950382939 781.3088652852938 462.5862663388252 781.299698792398 C468.2954886682843 781.2950953850968 474.0047000981526 781.2920299349879 479.713924407959 781.2932929992676 C484.9467972979468 781.2943945286993 490.17964614839707 781.290830313728 495.4125140309334 781.2836444750428 C497.29835195934174 781.281843518211 499.1841923900697 781.281688655725 501.0700303912163 781.2834117636085 C530.3376566477828 781.3071790431368 530.3376566477828 781.3071790431368 541.7106628417969 778.3971710205078 C542.4185192871093 778.2216168212891 543.1263757324218 778.0460626220703 543.8556823730469 777.8651885986328 C566.3929921246521 772.0330535156862 584.769326261485 757.7913480661074 597.0231628417969 738.1471710205078 C603.9935485742288 725.7765706574759 608.2060043102099 713.2444956287138 610.0231628417969 699.1471710205078 C610.1353112792968 698.2899444580078 610.2474597167969 697.4327178955078 610.3630065917969 696.5495147705078 C611.2931374680652 688.1018877709748 611.2999155544237 679.6300880378644 611.0231628417969 671.1471710205078 C611.0113195800782 670.770200805664 611.0113195800782 670.770200805664 610.9513854980469 668.8625030517578 C610.0935253954124 648.3043429272017 602.6506048271841 629.1445195439835 596.3903503417969 609.7409210205078 C596.1780112838745 609.0827054405213 595.9656722259522 608.4244898605347 595.746898651123 607.7463283538818 C590.9827457228658 592.9832366095169 586.1595287005733 578.2396795805623 581.3187675476074 563.5015563964844 C580.6335286017254 561.4151120716493 579.9485716854537 559.3285753259676 579.263671875 557.2420196533203 C573.1834053750817 538.719971918934 567.0790990624552 520.206383403382 560.8913269042969 501.7199249267578 C558.1465070573872 493.5193558651838 555.4096407601126 485.31615182822804 552.6755065917969 477.1120147705078 C552.5503485679626 476.7365233898163 552.5503485679626 476.7365233898163 551.9169731140137 474.8363094329834 C548.3790169825653 464.2218833721787 544.844161431482 453.6064275338033 541.3112535476685 442.9903202056885 C538.6241908123593 434.91595870000765 535.9360923120134 426.84194241187834 533.2474164962769 418.7681179046631 C531.5281426102453 413.6051043112427 529.8094427423537 408.4419010550463 528.0920104980469 403.2782745361328 C519.1217266827421 376.31002020118865 510.0577971271541 349.37656473221546 500.82933235168457 322.49551582336426 C499.67750714698207 319.14028754930195 498.52640699631127 315.784810660622 497.3753204345703 312.42932891845703 C496.81942079146233 310.8088911059221 496.26345246975575 309.1884768513841 495.7073974609375 307.5680923461914 C490.8039417215829 293.2773214894524 485.9283992201164 278.9773975889561 481.1321105957031 264.65025329589844 C480.6083123025952 263.0862644082274 480.0835590578199 261.52259496386466 479.5577697753906 259.9592742919922 C478.8308510727245 257.79638069118016 478.108053826899 255.63215327871546 477.3864440917969 253.4674835205078 C476.9769250488281 252.24303527832035 476.5674060058594 251.01858703613277 476.1454772949219 249.7570343017578 C475.7751135253907 248.56577941894534 475.40474975585937 247.3745245361328 475.0231628417969 246.1471710205078 C474.82962722778325 245.5258529663086 474.6360916137695 244.9045349121094 474.4366912841797 244.26438903808594 C472.90065391455937 238.8484444605886 472.8001353793409 233.78919291940986 472.9020690917969 228.1862335205078 C472.9233322115372 225.94959424132026 472.94286493962863 223.71293818183165 472.9611511230469 221.4762725830078 C472.97349792480463 220.18612243652342 472.9858447265625 218.89597229003903 472.9985656738281 217.5667266845703 C473.03552774305354 212.4966630564207 473.0071484020999 207.42719040436003 472.9797058105469 202.3571319580078 C472.9298406955661 193.01218250278976 472.9224471594671 183.6680129540806 472.948034286499 174.3229637145996 C472.9614620093091 168.85528089298396 472.9578066696116 163.3886650770517 472.9169616699219 157.9210968017578 C472.8775168675975 152.5489688055036 472.8824378418353 147.17848203461168 472.917085647583 141.80633926391602 C472.92261935651686 139.78680748829262 472.9128518812238 137.76716498917278 472.88639640808105 135.74779891967773 C472.71711185257095 121.83995388916571 474.8459085297311 113.38441132158675 483.0231628417969 102.14717102050781 C484.4690026812907 99.81815705147451 485.8312223884876 97.45368210787035 487.1989440917969 95.07685852050781 C487.882189659864 93.91061604975079 488.56638860613725 92.74493111675113 489.2519226074219 91.58003234863281 C489.9466890868673 90.39418776232543 490.64126576183503 89.20823195451416 491.3356628417969 88.02217102050781 C491.6963485717773 87.40619049072265 492.05703430175777 86.79020996093749 492.42864990234375 86.15556335449219 C497.3366289655214 77.7699351819607 502.2347299708292 69.37844905372862 507.0856628417969 60.95967102050781 C507.5920227050781 60.087459106445294 508.0983825683594 59.215247192382805 508.6200866699219 58.31660461425781 C509.0740783691406 57.52463684082031 509.5280700683594 56.7326690673828 509.9958190917969 55.91670227050781 C510.39035278320307 55.23196838378908 510.7848864746094 54.54723449707032 511.1913757324219 53.84175109863281 C512.0231628417969 52.14717102050781 512.0231628417969 52.14717102050781 512.0231628417969 50.14717102050781 C347.3531628417968 50.14717102050781 182.68316284179684 50.14717102050781 13.023162841796875 50.14717102050781 Z M41.023162841796875 811.1471710205078 C39.523162841796875 813.4596710205078 39.523162841796875 813.4596710205078 39.023162841796875 816.1471710205078 C41.11784946312832 821.8726477854805 45.8650826218564 823.5681309105375 51.023162841796875 826.1471710205078 C54.153726506493456 826.2591157783586 57.26100775161626 826.306512658359 60.392303466796875 826.3085479736328 C61.39150817871092 826.3121879386902 62.39071289062497 826.3158279037475 63.420196533203125 826.3195781707764 C66.83996999174519 826.3281036322376 70.2596313421069 826.3265783553318 73.67941284179688 826.3229522705078 C74.89038131713869 826.3226482582093 76.1013497924805 826.3223442459107 77.34901428222656 826.3220310211182 C113.44253559076822 826.2897280965584 149.5254442960076 825.3783836463965 185.60734218358994 824.5410308241844 C192.62426600169175 824.3782053048914 199.64124617451847 824.2180239534866 206.65826416015625 824.0593109130859 C295.1369564337997 822.0562605304244 383.591142190127 819.6925112749988 472.0231628417969 816.1471710205078 C472.0231628417969 815.8171710205078 472.0231628417969 815.4871710205078 472.0231628417969 815.1471710205078 C464.3854291562693 814.1425987401282 456.82924229230537 813.9172178573049 449.1313171386719 813.7899932861328 C447.72477118942857 813.7638253274033 446.31823140207916 813.7373244385232 444.9116973876953 813.7105226516724 C441.04508783780125 813.6380923539448 437.1783998380879 813.5712598950976 433.3116681575775 813.5057139396667 C430.81494908211994 813.4630227092205 428.31825916781304 813.4189037648964 425.8215732574463 813.3743171691895 C413.76723778199835 813.1590970950131 401.71271686038165 812.9563186645407 389.65808868408203 812.7582354545593 C386.7200615987838 812.7098258828651 383.7820421868096 812.660973966397 380.8440246582031 812.611988067627 C308.9108351174581 811.4140201278625 236.97458995987728 810.5884002962941 165.03460437059402 809.9437394738197 C156.33992201117576 809.8656633527189 147.6452859297359 809.78348051071 138.9506629779935 809.6990641355515 C126.80103451594795 809.5811564149826 114.65137302002063 809.4708850568804 102.50156790018082 809.3727416992188 C96.583221071048 809.3248805665658 90.6649438029674 809.2739847878253 84.7466983795166 809.2148017883301 C79.29555851465636 809.1605263325418 73.84442767752967 809.1158701128701 68.39314329624176 809.0789688825607 C66.40957662191556 809.0639058239265 64.42603280969257 809.0453718935996 62.44253385066986 809.0231114625931 C59.75030657185346 808.9934482557328 57.05828430389715 808.976303643334 54.365936279296875 808.96240234375 C53.585724375843995 808.950841575861 52.805512472391115 808.939280807972 52.00165778398514 808.9273697137833 C47.91142081633416 808.9209255465831 44.645876971701114 809.1665593947426 41.023162841796875 811.1471710205078 Z " fill="#000000" transform="translate(227.97683715820313,103.85282897949219)"/>
<path d="M0 0 C17.502261366983248 14.006949258452096 29.479906827068135 33.284713119893695 32.6796875 55.625 C34.90882238861866 79.11247004593326 29.897198012862702 101.58684332332155 15.17578125 120.453125 C0.7318244052386262 137.36059333534013 -18.377492968327658 149.73569550590844 -41 152 C-63.23540563387684 153.54284781476133 -84.86642876831621 149.97194982222925 -102.75 135.75 C-104.17501187969958 134.5095220327795 -105.59201756761155 133.25977375529487 -107 132 C-107.82371093749998 131.3644921875 -108.64742187500002 130.72898437499998 -109.49609375 130.07421875 C-124.80322478890457 117.39389646972177 -134.40444771781677 96.68636741690386 -136.75390625 77.1640625 C-138.63022448254208 53.03997093874443 -132.28295050862664 30.26150711882258 -116.4140625 11.6328125 C-85.93560777482855 -21.607443947840693 -36.28966807977281 -27.2295609879435 0 0 Z " fill="#000000" transform="translate(461,505)"/>
<path d="M0 0 C14.651095537701735 11.850584318221536 23.7934773803662 30.010111609407772 25.95135498046875 48.554229736328125 C26.38979293779994 53.9254238712615 26.5458435293707 59.3094918367143 26.69140625 64.6953125 C27.476687196921375 93.61781383738025 35.46468512249271 116.11670094820067 53.31640625 138.9453125 C66.62085368509986 155.96069520079118 76.75758368644358 176.35518176591302 77.69140625 198.3203125 C77.73136718750004 199.13113281250003 77.77132812499997 199.94195312500005 77.8125 200.77734375 C78.33816802642627 221.89682975289088 72.27755240912313 238.63403529155084 57.953125 253.9765625 C57.579941406249986 254.36328125 57.579941406249986 254.36328125 55.69140625 256.3203125 C55.099726562499995 256.9493749999999 54.50804687499999 257.57843750000006 53.8984375 258.2265625 C41.36336508131217 270.4019087786372 22.622158358383217 275.4972858251625 5.609893798828125 275.4489469528198 C5.215555435717079 275.44982347145674 5.215555435717079 275.44982347145674 3.219964325428009 275.4542591869831 C0.5790796289303444 275.45890847157034 -2.0617497516595904 275.45645643256455 -4.70263671875 275.4540252685547 C-6.616020340896853 275.4558937909379 -8.529403581498286 275.45819465955014 -10.44278621673584 275.46089059114456 C-15.699747733542495 275.46701011886614 -20.95669335097 275.46687480723494 -26.21365761756897 275.4656962156296 C-31.883951935770938 275.4654922425394 -37.55424114164566 275.47101072270357 -43.22453308105469 275.4757537841797 C-54.33456687637238 275.4840622768472 -65.4445953662289 275.4868087357545 -76.55463200807571 275.4873661622405 C-85.58751870501101 275.48784132945684 -94.62040365162602 275.4898961192346 -103.65328979492188 275.4930667877197 C-125.09944166437754 275.50044134800623 -146.5455918068766 275.50659152602566 -167.9917449951172 275.5060682296753 C-168.67753462679684 275.5060526509444 -169.3633242584765 275.5060370722133 -170.06989539414644 275.50602102139965 C-173.54563558633777 275.50593791583856 -177.02137577799294 275.50583887519133 -180.4971159696579 275.5057363137603 C-180.84225227259094 275.5057263411535 -180.84225227259094 275.5057263411535 -182.5888511389494 275.50567587371916 C-183.98475207392403 275.50563543641147 -185.38065300886 275.5055936385303 -186.77655394375324 275.50555048231035 C-208.48173928059055 275.5049380866592 -230.18690898059282 275.5124377943546 -251.89208984375 275.526123046875 C-276.28860715973434 275.5414989301597 -300.6851115899659 275.55007565863593 -325.0816345214844 275.5491598248482 C-337.99459544091803 275.5488280346243 -350.9075387316907 275.55156712121914 -363.82049560546875 275.5623378753662 C-374.81754435654227 275.5714517588036 -385.8145674915894 275.5736108983717 -396.8116183876991 275.5668284520507 C-402.41948113671504 275.56356744664004 -408.02729476498257 275.56349138614564 -413.63515281677246 275.57218170166016 C-418.776163300667 275.5800663632232 -423.91708587217875 275.5785951984087 -429.0580942630768 275.569897569716 C-430.9107645353317 275.56836688228964 -432.76344143222695 275.5701623517191 -434.616103887558 275.57575764507055 C-456.65705755993355 275.63787662423715 -477.54753398419217 273.8336528487382 -494.55859375 258.16015625 C-503.03621470990424 249.24730028545787 -505.49391469474415 237.32646227735268 -505.30859375 225.3203125 C-503.17840317495586 203.1346042769336 -492.18316899404164 184.6349676605803 -475.30859375 170.3203125 C-471.2137985319049 167.24539302280937 -466.81192140750983 164.74562649549694 -462.30859375 162.3203125 C-461.491328125 161.85238281249997 -460.6740625 161.38445312499994 -459.83203125 160.90234375 C-437.5688795475188 148.8028047812602 -409.53472378703594 146.7236838787701 -385.39111328125 153.69189453125 C-375.4274654136836 156.69850996045466 -365.8671273118456 160.4830382842049 -356.254638671875 164.466796875 C-335.04220270338 173.24935736075963 -335.04220270338 173.24935736075963 -324.30859375 175.3203125 C-323.7091796875 175.43632812500005 -323.7091796875 175.43632812500005 -320.67578125 176.0234375 C-299.3156290917884 179.50170862388416 -278.50806094710583 175.48027592602818 -260.375 163.359375 C-253.79494317951958 158.33799830578937 -249.01642569376077 152.42360349404885 -244.0625 145.890625 C-232.3781288940716 130.55774156650102 -217.92090675187853 118.4741891090664 -198.30859375 115.3203125 C-194.87889503203974 115.11530717376957 -191.47630811931344 115.1780936936425 -188.04296875 115.265625 C-186.0807363128988 115.29092504291407 -184.11849634488408 115.31564640772865 -182.15625 115.33984375 C-179.11091703844772 115.38926985141677 -176.06599360488508 115.44514953904206 -173.02099609375 115.51220703125 C-155.4931187848572 115.87293307536424 -141.8130077683827 114.94669883400502 -128.3125 102.4765625 C-114.68089635884519 88.17070749594939 -114.91567840471305 69.0546172800224 -115.30859375 50.6328125 C-115.38909867770792 46.837260729771515 -115.44867699554129 43.04218747320397 -115.49609375 39.24609375 C-115.5085412597656 38.822004776000995 -115.5085412597656 38.822004776000995 -115.571533203125 36.67585754394531 C-115.74050218327193 22.725184404119204 -109.22866998182826 10.633269830070049 -99.7890625 0.671875 C-70.65066397622195 -26.95224454537697 -30.53176074113742 -22.21430984549761 0 0 Z " fill="#000000" transform="translate(725.30859375,574.6796875)"/>
</svg>
