<svg xmlns="http://www.w3.org/2000/svg" width="512" height="512"><path d="M204 19c5.656 5.845 9.041 14.575 12.688 21.75q1.69 3.306 3.386 6.61l1.487 2.92a95 95 0 0 0 3.122 5.448C226 58 226 58 226 60l2.563-.805c3.474-1.081 6.954-2.143 10.437-3.195l2.434-.746c4.214-1.191 7.439-1.869 11.566-.254 3.497 3.743 6.762 7.76 7.313 12.938C260 71 260 71 258.37 72.523c-2.779 1.731-5.584 2.943-8.621 4.165l-3.266 1.324L244 79l.52 2.824c.48 3.176.48 3.176.167 5.989.495 5.042 3.734 9.608 7.313 13.187 5 .848 5 .848 8 0 1.538-1.674 1.538-1.674 2.922-3.906l1.546-2.478c2.954-5.043 5.726-10.174 8.475-15.33 2.72-5.037 5.47-9.812 9.057-14.286 5.943-1.577 10.606 1.367 15.848 4.137C303.09 72.235 308.669 75.669 313 80c.861 6.755-1.679 11.176-5 16.938l-1.387 2.65c-1.386 2.432-2.619 4.445-4.613 6.412-3.014.785-4.854.492-8 0v-2l-3 1c-2.946.131-5.873.21-8.82.246l-5.47.096-2.891.047c-17.014.282-33.881.889-50.819 2.611l-1.385-5.988c-1.527-5-5.969-8.467-9.615-12.012l-1.977.656C198.595 94.297 198.595 94.297 194 92l-.536 1.735q-2.791 9.031-5.598 18.059-1.042 3.358-2.08 6.717C172.076 162.886 172.076 162.886 161 169c-3.812.563-3.812.563-7 0-2-3-2-3-2-5.187 1.21-3.402 3.04-5.695 5.332-8.458 4.534-6.402 6.888-13.547 9.2-20.96l.962-3.034c1.008-3.18 2.007-6.365 3.006-9.548q1.005-3.178 2.012-6.354c2.96-9.353 5.905-18.708 8.706-28.11C183.53 80.404 187.725 77.18 194 74a177 177 0 0 1 10-4 4885 4885 0 0 0-3.25-6.125l-1.047-1.976a687 687 0 0 0-6.871-12.583l-1.638-2.946a877 877 0 0 0-3.244-5.779c-4.935-8.898-4.935-8.898-4.95-13.591 5.02-5.698 13.408-10.322 21-8m97 66c-1.562 2.375-1.562 2.375-3 5l1 2c1.563-1.812 1.563-1.812 3-4zm-4 7 1 2Zm-1 2 1 2Z"/><path d="m268.813 108.75 2.473-.016c8.908-.044 17.733.198 26.6 1.094l2.25.21c4.263.485 7.758.897 10.864 3.962.703 3.055.605 6.035.523 9.156l-.014 2.724c-.021 2.874-.078 5.746-.134 8.62q-.024 2.904-.043 5.809c-.034 3.545-.069 7.09-.14 10.634l-.038 2.16C311 155 311 155 310 158q-19.114.106-38.23.155-8.874.022-17.749.071-8.56.047-17.117.059-3.272.008-6.543.032c-3.046.022-6.092.025-9.138.024l-2.755.032c-2.507-.012-2.507-.012-6.468-.373-2.017-3.025-2.258-3.61-2.187-7l.019-2.062C210 147 210 147 211 144l2.344.586c4.896.554 9.31-.2 14.156-.961 15.15-2.33 30.082-2.764 45.375-2.687q2.65.008 5.3.013 6.413.017 12.825.049l1 2 11 1v-23l-4-1v20l-6.57-.048q-10.825-.073-21.65-.107-6.554-.022-13.108-.071-6.341-.047-12.682-.059a707 707 0 0 1-4.805-.032c-9.285-.091-17.595.467-26.642 2.769L211 143c-2.674-2.674-1.333-10.281-1.375-13.875l-.113-3.668-.035-3.512-.06-3.234c.583-2.711.583-2.711 2.79-4.513 2.726-1.17 5.074-1.845 7.996-2.315l2.928-.472c15.19-2.177 30.359-2.617 45.682-2.661m-44.35 53.007 2.617-.006c2.859-.003 5.717.007 8.576.019h5.952q6.24.003 12.478.024 8.006.024 16.01.02 6.147.001 12.292.013l5.904.006q4.122.004 8.245.022l2.475-.002c3.254.019 5.879.11 8.988 1.147.856 1.881.856 1.881 1.543 4.414l.803 2.933.841 3.278.907 3.464c17.689 69.447 26.047 142.339 26.074 213.946l.01 6.07q.009 6.282.007 12.566c0 5.368.014 10.735.031 16.103q.015 6.232.013 12.463 0 2.973.013 5.944c.01 2.751.007 5.502 0 8.253.007.813.012 1.626.018 2.463-.04 7.205-.04 7.205-2.26 10.103-2.494.94-4.659 1.546-7.25 2.063l-2.423.49c-22.217 4.223-44.277 4.732-66.827 4.76l-3.618.01c-18.997.031-38.233-.23-56.882-4.26l-2.437-.475c-4.638-.957-8.317-2.427-12.563-4.588-.447-89.918-.447-89.918 2-129l.154-2.495c2.875-45.849 9.634-91.246 19.034-136.192l.491-2.364c6.549-31.276 6.549-31.276 18.784-31.192M257 173c-1.92 3.063-2.252 5.42-2.26 9.003l-.022 3.054.007 3.333-.015 3.525c-.014 3.85-.013 7.7-.01 11.55l-.01 5.992q-.016 9.42-.006 18.84c.006 6.474-.006 12.949-.027 19.423a4447 4447 0 0 0-.02 16.688q.002 4.981-.015 9.962c-.013 3.704-.006 7.407.006 11.11l-.023 3.327c.045 6.597.595 10.393 5.395 15.193 5.015.473 7.932-.009 12-3 2.126-2.126 1.189-6.932 1.203-9.871l.021-2.887q.025-4.84.026-9.68l.004-3.364c-.005-21.598-.643-43.165-1.472-64.744q-.141-3.78-.273-7.562-.212-5.997-.468-11.992a690 690 0 0 1-.168-4.462 598 598 0 0 0-.257-6.13l-.141-3.488c-.517-3.071-.985-4.025-3.475-5.82-4.318-1.59-6.43-.798-10 2m-47 104c-3.705 3.255-3.907 6.797-4.5 11.5l-.367 2.769c-5.057 40.069-6.314 80.45-6.32 120.794l-.002 2.067c-.01 15.317.065 30.588 1.189 45.87 1.937.563 1.937.563 4 1 1.84-1.84 1.154-4.814 1.174-7.28l.02-2.002q.021-2.173.036-4.346.025-3.496.062-6.993.051-5.01.096-10.023c.927-100.237.927-100.237 7.215-141.316.488-3.737.547-7.28.397-11.04z"/><path d="m184 469 3.453.805C233.986 480.323 291.562 481.01 338 469c-.257 3.688-.772 5.693-3 8.688-6.407 4.938-14.402 5.91-22.25 6.937l-2.582.367c-11.683 1.602-23.337 2.17-35.121 2.211l-3.935.017q-4.104.015-8.209.02-4.12.007-8.242.041c-55.322.451-55.322.451-67.923-8.972-2.28-3.029-2.451-5.582-2.738-9.309"/></svg>