<?xml version="1.0" encoding="UTF-8"?>
<!-- Generator: visioncortex VTracer 0.6.12 -->
<svg version="1.1" xmlns="http://www.w3.org/2000/svg" width="512" height="512">
  <metadata>
                <![CDATA[
            {
  "prompt": {
    "4": {
      "inputs": {
        "vae_name": "ae.safetensors"
      },
      "class_type": "VAELoader",
      "_meta": {
        "title": "Load VAE"
      }
    },
    "5": {
      "inputs": {
        "clip_name": "qwen3_4b_fp8_scaled.safetensors",
        "type": "lumina2",
        "device": "default"
      },
      "class_type": "CLIPLoader",
      "_meta": {
        "title": "Load CLIP"
      }
    },
    "6": {
      "inputs": {
        "ckpt_name": "zEpicrealism_turboV1Fp8.safetensors"
      },
      "class_type": "CheckpointLoaderSimple",
      "_meta": {
        "title": "Load Checkpoint"
      }
    },
    "7": {
      "inputs": {
        "shift": 6.0,
        "model": [
          "6",
          0
        ]
      },
      "class_type": "ModelSamplingAuraFlow",
      "_meta": {
        "title": "ModelSamplingAuraFlow"
      }
    },
    "8": {
      "inputs": {
        "PowerLoraLoaderHeaderWidget": {
          "type": "PowerLoraLoaderHeaderWidget"
        },
        "lora_1": {
          "on": true,
          "lora": "MinimalistVectorArtZ.safetensors",
          "strength": 0.4
        },
        "lora_2": {
          "on": false,
          "lora": "None",
          "strength": 0.75
        },
        "\u2795 Add Lora": "",
        "model": [
          "7",
          0
        ],
        "clip": [
          "5",
          0
        ]
      },
      "class_type": "Power Lora Loader (rgthree)",
      "_meta": {
        "title": "Power Lora Loader (rgthree)"
      }
    },
    "9": {
      "inputs": {
        "text": "A bold, heavy solid black icon of a professional culinary cream whipper. High-contrast woodblock print style. A single, thick, massive vertical white negative space \"slash\" runs down the side of the canister to define the curvature. This is a chunky, bold structural highlight, not a thin reflection. Minimalist, heavy visual weight, no gray. Isolated on white. Optimized for a clean, single-boolean SVG silhouette. Black and white only. White background.",
        "clip": [
          "8",
          1
        ]
      },
      "class_type": "CLIPTextEncode",
      "_meta": {
        "title": "Positive Prompt"
      }
    },
    "10": {
      "inputs": {
        "text": "blurry, bad, shadow, color, grey, text, watermark, logo",
        "clip": [
          "8",
          1
        ]
      },
      "class_type": "CLIPTextEncode",
      "_meta": {
        "title": "Negative Prompt"
      }
    },
    "11": {
      "inputs": {
        "seed": 467594264870575,
        "steps": 9,
        "cfg": 1.0,
        "sampler_name": "euler",
        "scheduler": "beta",
        "denoise": 0.95,
        "preview_method": "auto",
        "vae_decode": "true",
        "model": [
          "37",
          0
        ],
        "positive": [
          "9",
          0
        ],
        "negative": [
          "10",
          0
        ],
        "latent_image": [
          "27",
          0
        ],
        "optional_vae": [
          "4",
          0
        ]
      },
      "class_type": "KSampler (Efficient)",
      "_meta": {
        "title": "KSampler (Efficient)"
      }
    },
    "13": {
      "inputs": {
        "filename_prefix": [
          "35",
          0
        ],
        "images": [
          "11",
          5
        ]
      },
      "class_type": "SaveImage",
      "_meta": {
        "title": "Save Image"
      }
    },
    "27": {
      "inputs": {
        "dimensions": "512 x 512 (1:1)",
        "invert": false,
        "batch_size": 1
      },
      "class_type": "EmptyLatentImagePresets",
      "_meta": {
        "title": "Empty Latent Image Presets"
      }
    },
    "32": {
      "inputs": {
        "filename_prefix": [
          "35",
          0
        ],
        "svg": [
          "34",
          0
        ]
      },
      "class_type": "SaveSVGNode",
      "_meta": {
        "title": "SaveSVGNode"
      }
    },
    "33": {
      "inputs": {
        "mode": "spline",
        "filter_speckle": 4,
        "corner_threshold": 60,
        "length_threshold": 4.0,
        "splice_threshold": 45,
        "image": [
          "11",
          5
        ]
      },
      "class_type": "TS_ImageToSVGStringBW_Vtracer",
      "_meta": {
        "title": "Image to SVG String BW_Vtracer"
      }
    },
    "34": {
      "inputs": {
        "SVG_String": [
          "33",
          0
        ]
      },
      "class_type": "TS_SVGStringToSVGBytesIO",
      "_meta": {
        "title": "SVG String to SVG BytesIO"
      }
    },
    "35": {
      "inputs": {
        "value": "Icons/modernist-"
      },
      "class_type": "PrimitiveString",
      "_meta": {
        "title": "String"
      }
    },
    "36": {
      "inputs": {
        "name": "Z-Image-Turbo-Fun-Controlnet-Union-2.1.safetensors"
      },
      "class_type": "ModelPatchLoader",
      "_meta": {
        "title": "ModelPatchLoader"
      }
    },
    "37": {
      "inputs": {
        "strength": 0.7,
        "model": [
          "8",
          0
        ],
        "model_patch": [
          "36",
          0
        ],
        "vae": [
          "4",
          0
        ],
        "image": [
          "38",
          0
        ]
      },
      "class_type": "ZImageFunControlnet",
      "_meta": {
        "title": "ZImageFunControlnet"
      }
    },
    "38": {
      "inputs": {
        "image": "background-removed.png"
      },
      "class_type": "LoadImage",
      "_meta": {
        "title": "Reference Face 1"
      },
      "is_changed": [
        "8afd05ad010259ef0a4ca4a761da599256fbfb918f74e3109d9457e489fe0d98"
      ]
    }
  },
  "workflow": {
    "id": "b863a6d5-b1c1-49ed-82de-40ff658289d1",
    "revision": 0,
    "last_node_id": 38,
    "last_link_id": 50,
    "nodes": [
      {
        "id": 4,
        "type": "VAELoader",
        "pos": [
          -6219.534705820588,
          -970.9099467276847
        ],
        "size": [
          373.8333435058594,
          123.80000305175781
        ],
        "flags": {},
        "order": 0,
        "mode": 0,
        "inputs": [],
        "outputs": [
          {
            "name": "VAE",
            "type": "VAE",
            "links": [
              13,
              48
            ]
          }
        ],
        "properties": {
          "cnr_id": "comfy-core",
          "ver": "0.9.2",
          "Node name for S&R": "VAELoader"
        },
        "widgets_values": [
          "ae.safetensors"
        ]
      },
      {
        "id": 5,
        "type": "CLIPLoader",
        "pos": [
          -6634.615065484429,
          -1114.736234058383
        ],
        "size": [
          366.1666564941406,
          510.98333740234375
        ],
        "flags": {},
        "order": 1,
        "mode": 0,
        "inputs": [],
        "outputs": [
          {
            "name": "CLIP",
            "type": "CLIP",
            "links": [
              6
            ]
          }
        ],
        "properties": {
          "cnr_id": "comfy-core",
          "ver": "0.9.2",
          "Node name for S&R": "CLIPLoader"
        },
        "widgets_values": [
          "qwen3_4b_fp8_scaled.safetensors",
          "lumina2",
          "default"
        ]
      },
      {
        "id": 6,
        "type": "CheckpointLoaderSimple",
        "pos": [
          -7142.724386792339,
          -1274.2968910594534
        ],
        "size": [
          456,
          154.6666717529297
        ],
        "flags": {},
        "order": 2,
        "mode": 0,
        "inputs": [],
        "outputs": [
          {
            "name": "MODEL",
            "type": "MODEL",
            "links": [
              4
            ]
          },
          {
            "name": "CLIP",
            "type": "CLIP",
            "links": []
          },
          {
            "name": "VAE",
            "type": "VAE",
            "links": []
          }
        ],
        "properties": {
          "cnr_id": "comfy-core",
          "ver": "0.9.2",
          "Node name for S&R": "CheckpointLoaderSimple"
        },
        "widgets_values": [
          "zEpicrealism_turboV1Fp8.safetensors"
        ],
        "color": "#453f4f",
        "bgcolor": "#312b3b"
      },
      {
        "id": 7,
        "type": "ModelSamplingAuraFlow",
        "pos": [
          -6599.989825756149,
          -1269.9345404922321
        ],
        "size": [
          270,
          104
        ],
        "flags": {},
        "order": 7,
        "mode": 0,
        "inputs": [
          {
            "name": "model",
            "type": "MODEL",
            "link": 4
          }
        ],
        "outputs": [
          {
            "name": "MODEL",
            "type": "MODEL",
            "links": [
              5
            ]
          }
        ],
        "properties": {
          "cnr_id": "comfy-core",
          "ver": "0.10.0",
          "Node name for S&R": "ModelSamplingAuraFlow"
        },
        "widgets_values": [
          6
        ]
      },
      {
        "id": 8,
        "type": "Power Lora Loader (rgthree)",
        "pos": [
          -6200.020429215832,
          -1269.9345404922321
        ],
        "size": [
          340.48333740234375,
          232
        ],
        "flags": {},
        "order": 8,
        "mode": 0,
        "inputs": [
          {
            "dir": 3,
            "name": "model",
            "type": "MODEL",
            "link": 5
          },
          {
            "dir": 3,
            "name": "clip",
            "type": "CLIP",
            "link": 6
          }
        ],
        "outputs": [
          {
            "dir": 4,
            "name": "MODEL",
            "shape": 3,
            "type": "MODEL",
            "links": [
              47
            ]
          },
          {
            "dir": 4,
            "name": "CLIP",
            "shape": 3,
            "type": "CLIP",
            "links": [
              7,
              8
            ]
          }
        ],
        "properties": {
          "cnr_id": "rgthree-comfy",
          "ver": "8ff50e4521881eca1fe26aec9615fc9362474931",
          "Show Strengths": "Single Strength"
        },
        "widgets_values": [
          {},
          {
            "type": "PowerLoraLoaderHeaderWidget"
          },
          {
            "on": true,
            "lora": "MinimalistVectorArtZ.safetensors",
            "strength": 0.4,
            "strengthTwo": null
          },
          {
            "on": false,
            "lora": "None",
            "strength": 0.75,
            "strengthTwo": null
          },
          {},
          ""
        ]
      },
      {
        "id": 9,
        "type": "CLIPTextEncode",
        "pos": [
          -5665.31255062225,
          -968.874200880098
        ],
        "size": [
          495.1833190917969,
          389.6333312988281
        ],
        "flags": {},
        "order": 10,
        "mode": 0,
        "inputs": [
          {
            "name": "clip",
            "type": "CLIP",
            "link": 7
          }
        ],
        "outputs": [
          {
            "name": "CONDITIONING",
            "type": "CONDITIONING",
            "links": [
              9
            ]
          }
        ],
        "title": "Positive Prompt",
        "properties": {
          "cnr_id": "comfy-core",
          "ver": "0.9.2",
          "Node name for S&R": "CLIPTextEncode"
        },
        "widgets_values": [
          "A bold, heavy solid black icon of a professional culinary cream whipper. High-contrast woodblock print style. A single, thick, massive vertical white negative space \"slash\" runs down the side of the canister to define the curvature. This is a chunky, bold structural highlight, not a thin reflection. Minimalist, heavy visual weight, no gray. Isolated on white. Optimized for a clean, single-boolean SVG silhouette. Black and white only. White background."
        ],
        "color": "#232",
        "bgcolor": "#353"
      },
      {
        "id": 10,
        "type": "CLIPTextEncode",
        "pos": [
          -5666.5340300816115,
          -512.2815259280599
        ],
        "size": [
          470,
          142
        ],
        "flags": {},
        "order": 11,
        "mode": 0,
        "inputs": [
          {
            "name": "clip",
            "type": "CLIP",
            "link": 8
          }
        ],
        "outputs": [
          {
            "name": "CONDITIONING",
            "type": "CONDITIONING",
            "links": [
              10
            ]
          }
        ],
        "title": "Negative Prompt",
        "properties": {
          "cnr_id": "comfy-core",
          "ver": "0.9.2",
          "Node name for S&R": "CLIPTextEncode"
        },
        "widgets_values": [
          "blurry, bad, shadow, color, grey, text, watermark, logo"
        ],
        "color": "#322",
        "bgcolor": "#533"
      },
      {
        "id": 11,
        "type": "KSampler (Efficient)",
        "pos": [
          -4910.915486578765,
          -1342.4895472200806
        ],
        "size": [
          400.1000061035156,
          966.6666870117188
        ],
        "flags": {},
        "order": 12,
        "mode": 0,
        "inputs": [
          {
            "name": "model",
            "type": "MODEL",
            "link": 46
          },
          {
            "name": "positive",
            "type": "CONDITIONING",
            "link": 9
          },
          {
            "name": "negative",
            "type": "CONDITIONING",
            "link": 10
          },
          {
            "name": "latent_image",
            "type": "LATENT",
            "link": 37
          },
          {
            "name": "optional_vae",
            "shape": 7,
            "type": "VAE",
            "link": 13
          },
          {
            "name": "script",
            "shape": 7,
            "type": "SCRIPT",
            "link": null
          }
        ],
        "outputs": [
          {
            "name": "MODEL",
            "type": "MODEL",
            "links": null
          },
          {
            "name": "CONDITIONING+",
            "type": "CONDITIONING",
            "links": null
          },
          {
            "name": "CONDITIONING-",
            "type": "CONDITIONING",
            "links": null
          },
          {
            "name": "LATENT",
            "type": "LATENT",
            "links": null
          },
          {
            "name": "VAE",
            "type": "VAE",
            "links": null
          },
          {
            "name": "IMAGE",
            "type": "IMAGE",
            "links": [
              14,
              39
            ]
          }
        ],
        "properties": {
          "cnr_id": "efficiency-nodes-comfyui",
          "ver": "1.0.8",
          "Node name for S&R": "KSampler (Efficient)"
        },
        "widgets_values": [
          -1,
          null,
          9,
          1,
          "euler",
          "beta",
          0.95,
          "auto",
          "true"
        ],
        "color": "#223333",
        "bgcolor": "#335555",
        "shape": "box"
      },
      {
        "id": 13,
        "type": "SaveImage",
        "pos": [
          -4410.467925593946,
          -1352.0049082555356
        ],
        "size": [
          461.7833251953125,
          344
        ],
        "flags": {},
        "order": 13,
        "mode": 0,
        "inputs": [
          {
            "name": "images",
            "type": "IMAGE",
            "link": 14
          },
          {
            "name": "filename_prefix",
            "type": "STRING",
            "widget": {
              "name": "filename_prefix"
            },
            "link": 43
          }
        ],
        "outputs": [],
        "properties": {
          "cnr_id": "comfy-core",
          "ver": "0.17.2"
        },
        "widgets_values": [
          "Icons/apps-"
        ]
      },
      {
        "id": 27,
        "type": "EmptyLatentImagePresets",
        "pos": [
          -5711.173982553661,
          -1292.7778874966016
        ],
        "size": [
          285.0833435058594,
          214.6666717529297
        ],
        "flags": {},
        "order": 3,
        "mode": 0,
        "inputs": [],
        "outputs": [
          {
            "name": "Latent",
            "type": "LATENT",
            "links": [
              37
            ]
          },
          {
            "name": "Width",
            "type": "INT",
            "links": null
          },
          {
            "name": "Height",
            "type": "INT",
            "links": null
          }
        ],
        "properties": {
          "cnr_id": "comfyui-kjnodes",
          "ver": "c88ac88a8f8a6a090a0d5d607156090cb2911503",
          "Node name for S&R": "EmptyLatentImagePresets"
        },
        "widgets_values": [
          "512 x 512 (1:1)",
          false,
          1
        ]
      },
      {
        "id": 32,
        "type": "SaveSVGNode",
        "pos": [
          -3813.087681519752,
          -782.3691765129232
        ],
        "size": [
          270,
          344
        ],
        "flags": {},
        "order": 16,
        "mode": 0,
        "inputs": [
          {
            "name": "svg",
            "type": "SVG",
            "link": 42
          },
          {
            "name": "filename_prefix",
            "type": "STRING",
            "widget": {
              "name": "filename_prefix"
            },
            "link": 44
          }
        ],
        "outputs": [],
        "properties": {
          "cnr_id": "comfy-core",
          "ver": "0.17.2",
          "Node name for S&R": "SaveSVGNode"
        },
        "widgets_values": [
          "Icons/apps-"
        ]
      },
      {
        "id": 33,
        "type": "TS_ImageToSVGStringBW_Vtracer",
        "pos": [
          -4400.376368815469,
          -795.4562282145869
        ],
        "size": [
          314.01666259765625,
          234.66665649414062
        ],
        "flags": {},
        "order": 14,
        "mode": 0,
        "inputs": [
          {
            "name": "image",
            "type": "IMAGE",
            "link": 39
          }
        ],
        "outputs": [
          {
            "name": "STRING",
            "shape": 6,
            "type": "STRING",
            "links": [
              41
            ]
          }
        ],
        "properties": {
          "cnr_id": "comfyui-tosvg",
          "ver": "1.0.1",
          "Node name for S&R": "TS_ImageToSVGStringBW_Vtracer"
        },
        "widgets_values": [
          "spline",
          4,
          60,
          4,
          45
        ]
      },
      {
        "id": 34,
        "type": "TS_SVGStringToSVGBytesIO",
        "pos": [
          -4063.457422338616,
          -778.4430610024241
        ],
        "size": [
          225,
          72
        ],
        "flags": {},
        "order": 15,
        "mode": 0,
        "inputs": [
          {
            "name": "SVG_String",
            "type": "STRING",
            "link": 41
          }
        ],
        "outputs": [
          {
            "name": "SVG",
            "type": "SVG",
            "links": [
              42
            ]
          }
        ],
        "properties": {
          "cnr_id": "comfyui-tosvg",
          "ver": "1.0.1",
          "Node name for S&R": "TS_SVGStringToSVGBytesIO"
        },
        "widgets_values": []
      },
      {
        "id": 35,
        "type": "PrimitiveString",
        "pos": [
          -4406.658111031187,
          -1528.3020216451428
        ],
        "size": [
          270,
          108
        ],
        "flags": {},
        "order": 4,
        "mode": 0,
        "inputs": [],
        "outputs": [
          {
            "name": "STRING",
            "type": "STRING",
            "links": [
              43,
              44
            ]
          }
        ],
        "properties": {
          "cnr_id": "comfy-core",
          "ver": "0.17.2",
          "Node name for S&R": "PrimitiveString"
        },
        "widgets_values": [
          "Icons/modernist-"
        ]
      },
      {
        "id": 36,
        "type": "ModelPatchLoader",
        "pos": [
          -7097.737139768932,
          -500.87275462386424
        ],
        "size": [
          427.6000061035156,
          106.66667175292969
        ],
        "flags": {},
        "order": 5,
        "mode": 0,
        "inputs": [],
        "outputs": [
          {
            "name": "MODEL_PATCH",
            "type": "MODEL_PATCH",
            "links": [
              45
            ]
          }
        ],
        "properties": {
          "cnr_id": "comfy-core",
          "ver": "0.16.3",
          "Node name for S&R": "ModelPatchLoader"
        },
        "widgets_values": [
          "Z-Image-Turbo-Fun-Controlnet-Union-2.1.safetensors"
        ]
      },
      {
        "id": 37,
        "type": "ZImageFunControlnet",
        "pos": [
          -6611.276029417319,
          -554.5984250676088
        ],
        "size": [
          361.6000061035156,
          224
        ],
        "flags": {},
        "order": 9,
        "mode": 0,
        "inputs": [
          {
            "name": "model",
            "type": "MODEL",
            "link": 47
          },
          {
            "name": "model_patch",
            "type": "MODEL_PATCH",
            "link": 45
          },
          {
            "name": "vae",
            "type": "VAE",
            "link": 48
          },
          {
            "name": "image",
            "shape": 7,
            "type": "IMAGE",
            "link": 50
          },
          {
            "name": "inpaint_image",
            "shape": 7,
            "type": "IMAGE",
            "link": null
          },
          {
            "name": "mask",
            "shape": 7,
            "type": "MASK",
            "link": null
          }
        ],
        "outputs": [
          {
            "name": "MODEL",
            "type": "MODEL",
            "links": [
              46
            ]
          }
        ],
        "properties": {
          "cnr_id": "comfy-core",
          "ver": "0.16.3",
          "Node name for S&R": "ZImageFunControlnet"
        },
        "widgets_values": [
          0.7
        ]
      },
      {
        "id": 38,
        "type": "LoadImage",
        "pos": [
          -6229.443409501566,
          -560.5973587457349
        ],
        "size": [
          458.8333435058594,
          788.2999877929688
        ],
        "flags": {},
        "order": 6,
        "mode": 0,
        "inputs": [],
        "outputs": [
          {
            "name": "IMAGE",
            "type": "IMAGE",
            "links": [
              50
            ]
          },
          {
            "name": "MASK",
            "type": "MASK",
            "links": null
          }
        ],
        "title": "Reference Face 1",
        "properties": {
          "cnr_id": "comfy-core",
          "ver": "0.9.2",
          "Node name for S&R": "LoadImage"
        },
        "widgets_values": [
          "background-removed.png",
          "image"
        ],
        "color": "#322",
        "bgcolor": "#533"
      }
    ],
    "links": [
      [
        4,
        6,
        0,
        7,
        0,
        "MODEL"
      ],
      [
        5,
        7,
        0,
        8,
        0,
        "MODEL"
      ],
      [
        6,
        5,
        0,
        8,
        1,
        "CLIP"
      ],
      [
        7,
        8,
        1,
        9,
        0,
        "CLIP"
      ],
      [
        8,
        8,
        1,
        10,
        0,
        "CLIP"
      ],
      [
        9,
        9,
        0,
        11,
        1,
        "CONDITIONING"
      ],
      [
        10,
        10,
        0,
        11,
        2,
        "CONDITIONING"
      ],
      [
        13,
        4,
        0,
        11,
        4,
        "VAE"
      ],
      [
        14,
        11,
        5,
        13,
        0,
        "IMAGE"
      ],
      [
        37,
        27,
        0,
        11,
        3,
        "LATENT"
      ],
      [
        39,
        11,
        5,
        33,
        0,
        "IMAGE"
      ],
      [
        41,
        33,
        0,
        34,
        0,
        "STRING"
      ],
      [
        42,
        34,
        0,
        32,
        0,
        "SVG"
      ],
      [
        43,
        35,
        0,
        13,
        1,
        "STRING"
      ],
      [
        44,
        35,
        0,
        32,
        1,
        "STRING"
      ],
      [
        45,
        36,
        0,
        37,
        1,
        "MODEL_PATCH"
      ],
      [
        46,
        37,
        0,
        11,
        0,
        "MODEL"
      ],
      [
        47,
        8,
        0,
        37,
        0,
        "MODEL"
      ],
      [
        48,
        4,
        0,
        37,
        2,
        "VAE"
      ],
      [
        50,
        38,
        0,
        37,
        3,
        "IMAGE"
      ]
    ],
    "groups": [],
    "config": {},
    "extra": {
      "ds": {
        "scale": 0.693433494944194,
        "offset": [
          6314.678373654729,
          1570.0057696620577
        ]
      },
      "workflowRendererVersion": "Vue",
      "frontendVersion": "1.41.20",
      "VHS_latentpreview": false,
      "VHS_latentpreviewrate": 0,
      "VHS_MetadataImage": true,
      "VHS_KeepIntermediate": true
    },
    "version": 0.4
  }
}
                ]]>
            </metadata>
            
<path d="M0 0 C5.6555531785309086 5.845159280727103 9.040971305873342 14.57525408733828 12.6875 21.75 C13.815014937702074 23.953837369719622 14.943872383132259 26.156988526689076 16.07421875 28.359375 C16.564948730468757 29.323271484375 17.055678710937514 30.287167968749998 17.561279296875 31.2802734375 C18.53985541082818 33.13015260081889 19.58397700853888 34.94649516021999 20.682861328125 36.7275390625 C22 39.00000000000001 22 39.00000000000001 22 41 C22.422812499999992 40.8672265625 22.422812499999992 40.8672265625 24.5625 40.1953125 C28.03680250426106 39.11354103844599 31.5165261030333 38.05184114225286 35 37 C35.803085937499986 36.7537890625 36.606171875 36.507578125 37.43359375 36.25390625 C41.647513247837594 35.06283738608879 44.872738228070546 34.38498452402761 49 36 C52.49694242923539 39.74262925096151 55.761692111462196 43.75990584774455 56.3125 48.9375 C56 52 56 52 54.37109375 53.5234375 C51.59207785947194 55.254027296737405 48.78672614607052 56.466207962993366 45.75 57.6875 C44.67234374999998 58.12449218750001 43.59468750000002 58.56148437499999 42.484375 59.01171875 C41.66453124999998 59.33785156249999 40.84468750000002 59.663984375 40 60 C40.08572265625 60.46599609374999 40.08572265625 60.46599609374999 40.51953125 62.82421875 C41 66 41 66 40.6875 68.8125 C41.181824544640335 73.8546103553313 44.42110597550837 78.42110597550837 48 82 C53.000347342827354 82.8475164987843 53.000347342827354 82.8475164987843 56 82 C57.5380859375 80.326171875 57.5380859375 80.326171875 58.921875 78.09375 C59.431940917968745 77.2760009765625 59.94200683593749 76.458251953125 60.467529296875 75.61572265625 C63.422086563708035 70.5726883155061 66.19383800667549 65.44196718974294 68.943359375 60.28515625 C71.66279840837655 55.248584953476154 74.41373901377682 50.47389036653425 78 46 C83.94335271039301 44.423192138058994 88.60596442007625 47.36714891804786 93.84765625 50.13671875 C99.08974125731504 53.235200222725226 104.66907523917075 56.669075239170766 109 61 C109.86121160116068 67.75512849660392 107.32108794148161 72.17598200125555 104 77.9375 C103.54238281250002 78.81212890625 103.08476562499999 79.6867578125 102.61328125 80.587890625 C101.2272753233384 83.0200462305528 99.99423206866652 85.03282592995569 98 87 C94.98615394711277 87.7854802212882 93.14625517181224 87.49160237059566 90 87 C90 86.34 90 85.68 90 85 C89.00999999999999 85.33 88.01999999999998 85.66 87 86 C84.05378382290178 86.13143177951542 81.1272615487137 86.20998274370626 78.1796875 86.24609375 C76.35652145268386 86.27777605526693 74.53336081158102 86.30977065585279 72.710205078125 86.342041015625 C72.23307571411135 86.34974014282227 72.23307571411135 86.34974014282227 69.81851196289063 86.38870239257813 C52.80539291403642 86.6707462622257 35.93757074200266 87.27781857213596 19 89 C18.538167317708314 87.004150390625 18.076334635416686 85.00830078125 17.614501953125 83.012451171875 C16.087538480590638 78.01175196484249 11.64606438556359 74.54478481929794 8 71 C7.347734375000016 71.2165625 6.695468750000003 71.433125 6.0234375 71.65625 C-5.405405405405418 75.29729729729729 -5.405405405405418 75.29729729729729 -10 73 C-10.176818084716786 73.57247970581055 -10.3536361694336 74.14495941162109 -10.535812377929688 74.73478698730469 C-12.396540036385716 80.75609050893075 -14.2635514728982 86.77542074838911 -16.134033203125 92.793701171875 C-16.828968087004853 95.03247053938689 -17.522361620590004 97.27171901648815 -18.214111328125 99.511474609375 C-31.923502528564228 143.8863487982335 -31.923502528564228 143.8863487982335 -43 150 C-46.8125 150.5625 -46.8125 150.5625 -50 150 C-52 147 -52 147 -52 144.8125 C-50.79043425397049 141.41059633929203 -48.95905883072032 139.11773416865768 -46.66796875 136.35546875 C-42.13447101823593 129.9533630538554 -39.779888399728435 122.80798672088142 -37.46875 115.39453125 C-37.15095581054686 114.39346847534179 -36.83316162109375 113.39240570068358 -36.5057373046875 112.36100769042969 C-35.49761159748044 109.1800974801373 -34.49872036271009 105.99637413162947 -33.5 102.8125 C-32.830023364263724 100.69447274977324 -32.15945553314535 98.57663241156793 -31.48828125 96.458984375 C-28.52861979829885 87.10598959704976 -25.582563306577896 77.75054318377475 -22.7822265625 68.348388671875 C-20.4694142324563 61.40489872097291 -16.27544547856735 58.18026813235869 -10 55 C-6.7038447149380715 53.55851898502277 -3.3772252177992073 52.23877728275832 0 51 C-1.0817166170119208 48.95746450552454 -2.1653857760534265 46.91599690829338 -3.25 44.875 C-3.4227746582031386 44.54890747070313 -3.4227746582031386 44.54890747070313 -4.297119140625 42.898681640625 C-6.542420117910154 38.67860372766142 -8.835066220011413 34.488753079061496 -11.16796875 30.31640625 C-11.708408203125003 29.3439697265625 -12.248847656250007 28.371533203124997 -12.8056640625 27.36962890625 C-13.879850256877234 25.43950081012933 -14.961060280185762 23.513262303693878 -16.0498046875 21.59130859375 C-20.985403248353265 12.69285565442523 -20.985403248353265 12.69285565442523 -21 8 C-15.980727273433814 2.302447175249185 -7.592056691869857 -2.322362462459896 0 0 Z M97 66 C95.4375 68.375 95.4375 68.375 94 71 C94.33000000000004 71.66 94.65999999999997 72.32 95 73 C96.5625 71.1875 96.5625 71.1875 98 69 C97.66999999999996 68.01 97.34000000000003 67.02 97 66 Z M93 73 C94 75 94 75 94 75 Z M92 75 C93 77 93 77 93 77 Z " fill="#000000" transform="translate(204,19)"/>
<path d="M0 0 C0.4080889892578057 -0.0025881958007829553 0.4080889892578057 -0.0025881958007829553 2.4732666015625 -0.01568603515625 C11.381279212031188 -0.06021043635892909 20.206885924730614 0.1823970307660545 29.07421875 1.078125 C29.445501480102507 1.1126779174804682 29.445501480102507 1.1126779174804682 31.324417114257813 1.28753662109375 C35.58615875268208 1.7734385383522948 39.08166089181327 2.184963165260612 42.1875 5.25 C42.890473361707734 8.305239176206399 42.79208230316357 11.28518511421494 42.7109375 14.40625 C42.706234436035174 15.304927978515622 42.70153137207029 16.203605957031243 42.696685791015625 17.1295166015625 C42.675317490771874 20.003786943837213 42.618697902843905 22.876221771665257 42.5625 25.75 C42.54599570314082 27.686180551144787 42.53164690711185 29.62238076344636 42.51953125 31.55859375 C42.48555709899307 35.10375600796175 42.4505825577985 38.64871490412702 42.38037109375 42.193359375 C42.36751068115234 42.90600952148438 42.35465026855468 43.61865966796876 42.341400146484375 44.3529052734375 C42.1875 46.25 42.1875 46.25 41.1875 49.25 C28.44446330251202 49.31939531884473 15.70147127756394 49.372757928555046 2.958284378051758 49.405436515808105 C-2.958379423451049 49.421117609570786 -8.874914312466387 49.44240043597034 -14.79150390625 49.476318359375 C-20.49731850646802 49.50882467269224 -26.203008821943598 49.526834584246245 -31.90890884399414 49.53463172912598 C-34.089905628917876 49.54019096062234 -36.270895327442105 49.55104618767345 -38.451839447021484 49.567190170288086 C-41.49782971944887 49.58884837304535 -44.543301065114036 49.59197179621995 -47.58935546875 49.590576171875 C-48.49853729248048 49.60136199951171 -49.40771911621093 49.61214782714845 -50.344451904296875 49.623260498046875 C-52.851531982421875 49.61076354980469 -52.851531982421875 49.61076354980469 -56.8125 49.25 C-58.829462223450975 46.224556664823524 -59.07061096200303 45.63932617614512 -59 42.25 C-58.993554687499994 41.56937500000001 -58.98710937499999 40.888750000000016 -58.98046875 40.1875 C-58.8125 38.25 -58.8125 38.25 -57.8125 35.25 C-57.0390625 35.443359375 -56.265625 35.63671875 -55.46875 35.8359375 C-50.57224417406911 36.39045632216738 -46.15813941085551 35.63588552732443 -41.3125 34.875 C-26.163282462926816 32.544351148142596 -11.230288395285584 32.11090599272819 4.0625 32.1875 C5.829425801405307 32.192529816330904 7.5963530042417915 32.19709007809149 9.36328125 32.201171875 C13.63805626163662 32.21204909998261 17.912762079814627 32.22923023136403 22.1875 32.25 C22.517499999999984 32.91 22.847499999999968 33.56999999999999 23.1875 34.25 C25.002499999999998 34.41499999999999 25.002499999999998 34.41499999999999 34.1875 35.25 C34.1875 27.659999999999997 34.1875 20.069999999999993 34.1875 12.25 C32.86750000000001 11.920000000000002 31.547500000000014 11.590000000000003 30.1875 11.25 C30.1875 17.849999999999994 30.1875 24.44999999999999 30.1875 31.25 C29.103317871093736 31.242144775390614 29.103317871093736 31.242144775390614 23.61669921875 31.202392578125 C16.40039989358354 31.15237231083185 9.184092303159616 31.119422622774294 1.9676647186279297 31.094563484191895 C-2.4016967896135952 31.07900007288748 -6.770878590592986 31.057935406438077 -11.14013671875 31.023681640625 C-15.367692118679514 30.99075146201207 -19.595076191981207 30.97307715918859 -23.822750091552734 30.965368270874023 C-25.424454413317306 30.959884451519656 -27.026150849017796 30.94917872084278 -28.62778091430664 30.932809829711914 C-37.91288436554754 30.841809389810464 -46.22287554508247 31.399573242358343 -55.269500732421875 33.70170593261719 C-56.108690490722665 33.882642974853525 -56.94788024902343 34.06358001708983 -57.8125 34.25 C-60.48648019657654 31.576019803423463 -59.14566591329654 23.968928357706517 -59.1875 20.375 C-59.2248828125 19.164570312500004 -59.262265625 17.954140625000008 -59.30078125 16.70703125 C-59.312382812500005 15.548164062500007 -59.32398437500001 14.389296875 -59.3359375 13.1953125 C-59.34584716796874 12.661721191406258 -59.34584716796874 12.661721191406258 -59.39599609375 9.96142578125 C-58.8125 7.25 -58.8125 7.25 -56.60498046875 5.4482421875 C-53.879512817498835 4.278754931656266 -51.531133418437975 3.602553770588642 -48.609375 3.1328125 C-48.12629882812499 3.054985351562493 -48.12629882812499 3.054985351562493 -45.681640625 2.6611328125 C-30.491614333918506 0.4844816659563236 -15.32290211952568 0.0441929531501728 0 0 Z " fill="#000000" transform="translate(268.8125,108.75)"/>
<path d="M0 0 C0.8636869812011696 -0.0018983459472678987 1.7273739624023392 -0.0037966918945357975 2.6172332763671875 -0.0057525634765625 C5.476033920240752 -0.009461318948098096 8.334581253565517 0.001245520937885658 11.193359375 0.012451171875 C13.177286479818832 0.013643060309846078 15.161214155284512 0.01409611550769796 17.1451416015625 0.0138397216796875 C21.30464201465253 0.0154047759002367 25.46405638661878 0.02369603526761921 29.62353515625 0.037109375 C34.960271888509624 0.05409919588734624 40.29691401389704 0.057923706585057744 45.63367462158203 0.05716419219970703 C49.73082383440351 0.057435886444579864 53.82795228905138 0.06291701404992978 57.92509460449219 0.07016563415527344 C59.89312075627964 0.07335197140267269 61.86114926425233 0.07531962847758678 63.82917785644531 0.07605934143066406 C66.57756572530332 0.07822325698452914 69.32585253188313 0.08696870216394359 72.07421875 0.09765625 C72.48257713317872 0.09742965698242756 72.48257713317872 0.09742965698242756 74.54911804199219 0.096282958984375 C77.80346426153284 0.1148226877114098 80.42765592133384 0.20643543731961245 83.537109375 1.242919921875 C84.393310546875 3.124267578125 84.393310546875 3.124267578125 85.080078125 5.656982421875 C85.21256958007814 6.1409045410156295 85.21256958007814 6.1409045410156295 85.883056640625 8.58984375 C86.16076904296875 9.671608886718758 86.4384814453125 10.753374023437487 86.724609375 11.867919921875 C87.02359130859372 13.010915527343741 87.3225732421875 14.15391113281251 87.630615234375 15.33154296875 C105.32007481199662 84.77854345357738 113.67770610263835 157.6706514138608 113.705078125 229.278076171875 C113.70830285314571 231.30114259817333 113.71166776870916 233.3242088052832 113.71516418457031 235.34727478027344 C113.72108123276854 239.53620954097562 113.72301114623247 243.72512386877656 113.722412109375 247.9140625 C113.72230926129379 253.2816010106294 113.7361190009849 258.6490108608683 113.75318431854248 264.0165185928345 C113.76427477979212 268.1711436823907 113.76633246399871 272.3257369092132 113.76580238342285 276.480375289917 C113.76698087379333 278.4615365909911 113.77139530294937 280.44269875676247 113.77913475036621 282.4238452911377 C113.78890284171075 285.17491142791914 113.78607257591227 287.92568727760823 113.780029296875 290.6767578125 C113.78564880371096 291.4896527099609 113.79126831054691 292.3025476074219 113.79705810546875 293.14007568359375 C113.75672514661687 300.344665453439 113.75672514661687 300.344665453439 111.537109375 303.242919921875 C109.0426292558609 304.1830983424135 106.87813908100588 304.78870340743384 104.287109375 305.305419921875 C103.88725830078124 305.3864697265625 103.88725830078124 305.3864697265625 101.86376953125 305.796630859375 C79.64726455462392 310.0184718274925 57.58685539003989 310.5280631468678 35.037109375 310.555419921875 C34.44014251708984 310.55721252441407 34.44014251708984 310.55721252441407 31.41912841796875 310.5662841796875 C12.422105895653203 310.59693137479104 -6.813684531887958 310.3363681138758 -25.462890625 306.305419921875 C-25.865078124999997 306.227109375 -25.865078124999997 306.227109375 -27.900390625 305.830810546875 C-32.538139875462065 304.8735119762615 -36.21647296066189 303.4039268657648 -40.462890625 301.242919921875 C-40.90986919524184 211.32471731804446 -40.90986919524184 211.32471731804446 -38.462890625 172.242919921875 C-38.411972656249986 171.41941040039063 -38.3610546875 170.59590087890626 -38.30859375 169.7474365234375 C-35.43356154167313 123.89931609365522 -28.674943522669167 78.50224110255675 -19.275390625 33.555419921875 C-19.113079528808584 32.77535583496095 -18.950768432617195 31.995291748046867 -18.783538818359375 31.19158935546875 C-12.235248815303919 -0.08418593469514235 -12.235248815303919 -0.08418593469514235 0 0 Z M32.537109375 11.242919921875 C30.617936644531795 14.305790424443046 30.2848223904644 16.6626498559354 30.276412963867188 20.245956420898438 C30.2693281555176 21.25392776489258 30.262243347167953 22.261899108886723 30.25494384765625 23.3004150390625 C30.25742126464843 24.400267333984374 30.259898681640607 25.500119628906248 30.262451171875 26.63330078125 C30.257340240478527 27.796281890869125 30.252229309082026 28.959263000488278 30.246963500976563 30.157485961914063 C30.233046207653928 34.00763065930249 30.234025872499245 37.8575967875436 30.236328125 41.707763671875 C30.233424325010105 43.70513507995963 30.230516052715956 45.702506560680945 30.226921379566193 47.699876844882965 C30.215829794280353 53.979786410615134 30.215386810012973 60.25963616075549 30.221435546875 66.53955078125 C30.227475949921427 73.01410790856889 30.21516201217446 79.48844775559854 30.193865478038788 85.96296781301498 C30.17624203073362 91.52572734145463 30.170249278705512 97.08841775498405 30.17350322008133 102.65120416879654 C30.175315057778676 105.97187871510516 30.17137534692344 109.29236376514507 30.158788681030273 112.6130199432373 C30.14647368727475 116.31656585765666 30.15318679256049 120.01960689868656 30.164794921875 123.72314453125 C30.15715118408201 124.82097259521481 30.14950744628908 125.91880065917968 30.141632080078125 127.04989624023438 C30.18741266474032 133.64706581908285 30.737511899423282 137.44332244629828 35.537109375 142.242919921875 C40.55168747393179 142.7159933274346 43.468985814518476 142.23418724575845 47.537109375 139.242919921875 C49.6630027301174 137.1170265667576 48.72586825253643 132.31132285754097 48.740234375 129.371826171875 C48.74715805053711 128.4191586303711 48.75408172607422 127.4664910888672 48.76121520996094 126.48495483398438 C48.778944924642246 123.25840348183101 48.78485237708139 120.03201828393304 48.787109375 116.805419921875 C48.78777908325196 116.25020156860353 48.78777908325196 116.25020156860353 48.791168212890625 113.44046020507813 C48.78562996888792 91.8434093078368 48.14787072416277 70.27602662357265 47.31950378417969 48.69672775268555 C47.224450645667844 46.17621090824679 47.134717201413196 43.655552567766506 47.0462646484375 41.134796142578125 C46.90478329521528 37.13674552836562 46.74783066560451 33.13959477490886 46.57853889465332 29.142627716064453 C46.517526882250365 27.655640854838367 46.461213465235005 26.1684530691916 46.40981864929199 24.681102752685547 C46.33787601695144 22.6372993716989 46.245990490708266 20.594226929688915 46.153076171875 18.55126953125 C46.10644332885744 17.400171966552733 46.059810485839876 16.249074401855466 46.01176452636719 15.063095092773438 C45.494800226681605 11.991539084132597 45.02755531547359 11.037988810093765 42.537109375 9.242919921875 C38.21906451687198 7.652061289933101 36.107429739124086 8.444560717561558 32.537109375 11.242919921875 Z M-14.462890625 115.242919921875 C-18.16837022676353 118.49834127241218 -18.37000525995495 122.04029165113849 -18.962890625 126.742919921875 C-19.083981933593748 127.65670410156247 -19.205073242187495 128.57048828125 -19.329833984375 129.511962890625 C-24.386435461255758 169.5805641620317 -25.643414346214485 209.96137940165744 -25.650390625 250.305419921875 C-25.65091304779054 250.9876713562012 -25.65143547058105 251.66992279052738 -25.651973724365234 252.3728485107422 C-25.662748142666658 267.69012738384265 -25.586689885386306 282.9610604742512 -24.462890625 298.242919921875 C-22.525390625000057 298.805419921875 -22.525390625000057 298.805419921875 -20.462890625 299.242919921875 C-18.622893411482778 297.4029227083578 -19.308955890263263 294.4288515650735 -19.289306640625 291.962158203125 C-19.282568645477284 291.3016279125213 -19.275830650329596 290.64109762191777 -19.268888473510742 289.96055126190186 C-19.25469243864282 288.5120078959143 -19.24276897539022 287.06344097089266 -19.232786178588867 285.6148624420166 C-19.216593554990027 283.28396489086344 -19.194455065928707 280.95319196309083 -19.170669555664063 278.6223602294922 C-19.13688992683231 275.28110199377215 -19.10520478429686 271.9398337983173 -19.07501220703125 268.5985412597656 C-18.147692882051217 168.36142031414016 -18.147692882051217 168.36142031414016 -11.85986328125 127.28271484375 C-11.371837103415032 123.54568290019341 -11.312461741714628 120.0036420040093 -11.462890625 116.242919921875 C-12.452890625000009 115.91291992187502 -13.44289062499999 115.58291992187503 -14.462890625 115.242919921875 Z " fill="#000000" transform="translate(224.462890625,161.757080078125)"/>
<path d="M0 0 C1.1395312500000045 0.2655468749999841 2.279062500000009 0.531093750000025 3.453125 0.8046875 C49.986484434301246 11.32280818008411 107.5620338091635 12.011072536476888 154 0 C153.74266866585748 3.688415789376222 153.2283171903964 5.6931987754048805 151 8.6875 C144.59278157292096 13.626397537540129 136.59822620803948 14.598783200137461 128.75 15.625 C128.32396484375 15.68558593749998 128.32396484375 15.68558593749998 126.16796875 15.9921875 C114.48500134871347 17.594025057255408 102.8314300303212 18.16175642210726 91.046875 18.203125 C90.39764068603517 18.205975036621112 90.39764068603517 18.205975036621112 87.11212158203125 18.22039794921875 C84.3758506419149 18.230810374752934 81.6396081723617 18.236714531766154 78.9033203125 18.240234375 C76.15578716857237 18.244588882800315 73.4085733838478 18.258382081472007 70.6611328125 18.28125 C15.339181352402619 18.73206481103682 15.339181352402619 18.73206481103682 2.73828125 9.30859375 C0.4579293872012613 6.280081500754932 0.28669694682764657 3.727060308759519 0 0 Z " fill="#000000" transform="translate(184,469)"/>
</svg>
