<svg xmlns="http://www.w3.org/2000/svg" width="512" height="512"><path d="m319.625 27.813 2.232.132c9.1.553 18.168 1.206 27.205 2.43l2.407.308c6.62 1 13.159 2.945 17.969 7.755C372.525 43.5 373.234 47.024 373 53l2.75.25c3.816.88 5.029 1.542 7.25 4.75 1.079 3.763 1.224 6.993.375 10.813C380.542 73.32 375.895 74.52 371 76v10l3.75.625c3.423.868 4.217 1.34 6.75 4.063 1.768 3.903 2.18 6.075 1.5 10.312-2.42 3.887-4.435 6.103-8.812 7.375L371 109c2.99 9.603 7.086 18.502 14.5 25.5 12.389 11.695 18.08 29.753 18.774 46.421.145 5.753.12 11.504.098 17.258q.004 3.302.011 6.604c.01 5.938 0 11.876-.013 17.814-.011 6.24-.007 12.481-.005 18.722q0 15.719-.029 31.436-.029 16.115-.02 32.229.01 19.497-.01 38.994-.006 7.415-.003 14.829.002 8.749-.022 17.498-.006 3.192-.002 6.384c.033 29.525-4.3 55.511-24.279 78.311l-1.39 1.594c-13.578 15.251-27.709 20.196-47.86 21.531l-3.882.26c-9.547.6-19.057.73-28.622.647-16.848-.122-33.69.292-50.534.613l-3.682.07q-3.43.063-6.86.133c-26.604.51-56.358 1.001-81.17-9.848l-2.363-1.012c-17.747-8.727-31.46-26.65-38.11-44.875-5.458-16.126-5.826-31.893-5.818-48.745l-.02-6.786c-.017-6.107-.022-12.215-.024-18.322q-.001-5.736-.01-11.471-.027-19.013-.026-38.024v-4.129c.001-11.046-.018-22.092-.046-33.138q-.043-17.073-.04-34.146c0-6.375-.006-12.749-.027-19.123q-.029-8.995-.005-17.99.003-3.285-.015-6.569c-.122-23.624 4.827-40.913 19.504-59.67 2.301-3.452 2.138-4.235 1.625-8.187l-.336-2.731L130 119h-3l-.812 2.375C125 124 125 124 122 126c-3.724.674-7.385.763-10.852-.875-4.084-3.058-5.41-6.202-6.148-11.125.021-5.974 1.482-10.576 4-16a255 255 0 0 0 2.254-6.887C112 89 112 89 113.043 86.953 114 85 114 85 114.75 81.437c1.683-7.13 5.912-15.404 11.25-20.437 5.336-3.148 9.832-4.525 16-4l.113-2.16c.895-13.042.895-13.042 6.121-17.93C163.38 26.45 193.38 29.52 211 29l2-.06c9.98-.294 19.961-.557 29.943-.81q6.543-.168 13.086-.343 5.373-.143 10.745-.282l5.114-.135c15.95-.426 31.806-.516 47.737.442M185.938 42.5l-3.49.145q-4.225.175-8.448.355c6.236 6.546 15.225 7.527 24 8l3.566.23 3.809.145 3.586.148C212 51 212 51 213.789 48.664L215 46l2-3-3.937-.5-2.215-.281c-8.285-.637-16.623-.073-24.91.281M147 60c-1.498 3.371-2 5.204-2 9 19.445 1.489 38.896 2.646 58.372 3.65 3.597.187 7.194.38 10.79.593 12.493.736 24.992 1.227 37.498 1.687q5.397.2 10.793.408c17.618.663 35.004.726 52.61-.213.86-.045 1.72-.09 2.606-.138 34.007-1.814 34.007-1.814 48.019-4.862l2.165-.453c2.943-.712 4.768-1.186 6.667-3.617C375 64 375 64 374 61c-5.648-2.824-13.68-.978-19.788-.343-8.806.91-17.574 1.585-26.423 1.902l-3.505.126c-13.095.431-26.19.467-39.291.445q-5.154-.006-10.308.004c-19.866.028-39.665-.475-59.497-1.634-22.684-1.275-45.473-1.725-68.188-1.5m-16.312 12.375C124.715 85.204 124.715 85.204 124 92l2.563-1c4.251-1.237 8.328-2.156 12.374.063 1.682 3.066 1.424 5.512 1.063 8.937l-1.562 2.063C137 104 137 104 137.125 106.875c.927 3.311 2.226 6.114 3.875 9.125h2l3-11 2.431.003q29.601.034 59.202.049 14.317.007 28.633.023 12.512.015 25.024.02 6.594 0 13.188.01c18.905.032 37.796-.103 56.696-.556l2.604-.061c9.719-.232 19.405-.569 29.097-1.363l2.472-.198c2.99-.314 5.196-.604 7.68-2.36.973-1.567.973-1.567.66-3.754L373 95c-4.926-1.6-8.97-2.235-14.203-2.156l-2.2.024c-2.533.032-5.065.081-7.597.132l-5.795.102q-5.037.089-10.073.184c-41.668.775-83.333.8-125.007.776h-2.32Q175.902 94.044 146 94l.252-2.692.307-3.538.314-3.505c.154-3.953-.432-6.62-1.873-10.265h-2l-1-4c-8.091-.934-8.091-.934-11.312 2.375M121 97c-3.51 6.488-4.553 11.648-4 19 1.855-.242 1.855-.242 4-1 2.895-4.051 4.048-8 3.813-12.937C124 99 124 99 123 97zm54 41-2.07 2.207c-5.21 5.606-9.718 11.412-13.93 17.793l-1.918 2.793c-5.918 8.847-7.29 15.928-7.654 26.397-.18 4.267-.89 7.828-2.428 11.81l2.625 2.375 1.477 1.336c5.773 3.92 12.01 3.593 18.71 3.539l2.87.023c7.325-.02 14.884-.413 21.318-4.273.938-2.437.938-2.437 1-5-1.71-2.884-3.457-3.147-6.687-4.187L185 192c1.084-15.72 7.008-28.492 15.414-41.523 4.667-7.288 4.667-7.288 4.399-11.227C204 137 204 137 202 135a126 126 0 0 0-8.312-1.125l-2.303-.262c-11.489-1.257-11.489-1.257-16.385 4.387m147.133 69.426a468 468 0 0 0-5.008 2.887l-2.586 1.435c-6.16 3.562-6.16 3.562-8.11 7.107L306 221c2.636 2.888 4.622 3.834 8.566 4.309 7.974.343 13.345-1.019 19.434-6.309 3.164-3.607 5.886-6.874 6.148-11.777L340 205c-6.221-3.5-12.054-.65-17.867 2.426M150 221c.188 1.813.188 1.813 1 4 4.179 3 4.179 3 7 3l-.003 2.52q-.033 30.385-.049 60.771-.007 14.695-.023 29.389-.015 12.81-.02 25.62 0 6.781-.01 13.561-.011 6.39-.008 12.778 0 2.337-.006 4.676c-.034 14.466.06 26.323 10.369 37.56 5.802 5.34 12.854 8.694 20.75 9.125l2.148.117c5.298.163 9.77-.638 14.852-2.117v-2c-1.758-1.227-1.758-1.227-4.125-2.625-8.377-5.457-12.397-12.794-14.875-22.375-.555-5.005-.583-9.986-.574-15.016q-.019-2.17-.042-4.34c-.038-3.838-.052-7.676-.063-11.515-.014-4.004-.05-8.008-.086-12.013l-.042-4.797-.02-2.381q-.03-3.544-.054-7.089a1079 1079 0 0 0-.67-31.01c-.543-15.835-.62-31.69-.527-47.532q.015-3.905-.01-7.808c-.021-3.64.01-7.274.053-10.913l-.05-3.324c.067-2.97.179-5.43 1.085-8.262 2.002-1.823 3.802-2.862 6.286-3.923L194 224v-4c-4.125-1.15-8.123-1.162-12.379-1.168l-2.45-.01q-2.557-.007-5.116-.007c-2.612-.002-5.223-.02-7.834-.04q-2.487-.005-4.975-.005l-2.367-.022c-3.83.016-5.616.077-8.879 2.252m111 22c.375 3.625.375 3.625 1 7 2.25.75 2.25.75 5 1 2.313-1.937 2.313-1.937 4-4-1.875-4.875-1.875-4.875-3-6-4.643-.357-4.643-.357-7 2m83 12.438c-1.588 4.069-1.177 7.397 0 11.562 2.421 5.14 4.99 10.041 10 13h4c1.91-7.859 2.915-14.531-1.008-21.89-1.18-1.673-1.18-1.673-3.992-4.11-3.79-.653-5.832-.84-9 1.438M275 267c.375 3.188.375 3.188 1 6 1.688.813 1.688.813 4 1 2.75-2.437 2.75-2.437 5-5-1.187-2.5-1.187-2.5-3-5-4.097-.8-4.616-.576-7 3m26 24c-4.03 6.222-5.732 13.729-4.71 21.082.816 3.288 1.754 6.099 4.71 7.918 1.984-.234 1.984-.234 4-1 1.533-2.656 2.765-5.205 4-8 .512-1.071 1.024-2.142 1.55-3.246 6.074-12.77 6.074-12.77 4.762-16.942-1.574-2.174-2.803-2.9-5.312-3.812-4.227 0-5.765 1.293-9 4m-55.312 16.188c-1.969 2.114-2.528 2.93-2.688 5.812 1.128 5.863 3.715 10.146 7 15l1.215 1.84A502 502 0 0 0 254 334c2.313-.125 2.313-.125 5-1 3.404-4.695 3.734-9.408 3-15-1.711-4.683-4.133-7.852-8-11-3.457-1.129-5.052-1.487-8.312.188M329 332c-.187 2.438-.187 2.438 0 5l2 2c3.536-.536 3.536-.536 5-2 .125-2.5.125-2.5 0-5-1-1-1-1-3.5-1.125C330 331 330 331 329 332m-55.062 29.875c-4.782 3.459-7.852 8.288-8.938 14.125-.447 5.626-.08 10.696 2 16 2.125 2.438 2.125 2.438 4 4l3-1c1.21-2.59 1.21-2.59 2.375-5.937 1.557-4.343 3.226-8.302 5.5-12.313 2.624-4.986 2.267-8.304 1.125-13.75-3.502-1.584-5.312-2.197-9.062-1.125m59.625 7.313c-4.922 4.677-10.137 7.38-16.293 10.072-5.105 2.31-5.105 2.31-6.041 4.75-.229 1.99-.229 1.99.86 3.654 4.632 3.24 11.113 3.612 16.606 3.07 7.962-1.946 13.616-6.82 18.2-13.492 2.883-4.956 4.565-8.399 4.105-14.242-1-1-1-1-3.125-1.25-6.385.555-9.844 3.09-14.312 7.438"/></svg>