<?xml version="1.0" encoding="UTF-8"?>
<!-- Generator: visioncortex VTracer 0.6.12 -->
<svg version="1.1" xmlns="http://www.w3.org/2000/svg" width="512" height="512">
  <metadata>
                <![CDATA[
            {
  "prompt": {
    "1": {
      "inputs": {
        "image": "apps.jpg"
      },
      "class_type": "LoadImage",
      "_meta": {
        "title": "Load Image"
      },
      "is_changed": [
        "9effa22ebff8b10a924d1df35dd8bf04d3c64ff46b677495dd2580e0b9408069"
      ]
    },
    "4": {
      "inputs": {
        "vae_name": "ae.safetensors"
      },
      "class_type": "VAELoader",
      "_meta": {
        "title": "Load VAE"
      }
    },
    "5": {
      "inputs": {
        "clip_name": "qwen3_4b_fp8_scaled.safetensors",
        "type": "lumina2",
        "device": "default"
      },
      "class_type": "CLIPLoader",
      "_meta": {
        "title": "Load CLIP"
      }
    },
    "6": {
      "inputs": {
        "ckpt_name": "zEpicrealism_turboV1Fp8.safetensors"
      },
      "class_type": "CheckpointLoaderSimple",
      "_meta": {
        "title": "Load Checkpoint"
      }
    },
    "7": {
      "inputs": {
        "shift": 6.0,
        "model": [
          "6",
          0
        ]
      },
      "class_type": "ModelSamplingAuraFlow",
      "_meta": {
        "title": "ModelSamplingAuraFlow"
      }
    },
    "8": {
      "inputs": {
        "PowerLoraLoaderHeaderWidget": {
          "type": "PowerLoraLoaderHeaderWidget"
        },
        "lora_1": {
          "on": true,
          "lora": "MinimalistVectorArtZ.safetensors",
          "strength": 0.4
        },
        "lora_2": {
          "on": false,
          "lora": "None",
          "strength": 0.75
        },
        "\u2795 Add Lora": "",
        "model": [
          "7",
          0
        ],
        "clip": [
          "5",
          0
        ]
      },
      "class_type": "Power Lora Loader (rgthree)",
      "_meta": {
        "title": "Power Lora Loader (rgthree)"
      }
    },
    "9": {
      "inputs": {
        "text": "A minimalist, heavy solid black icon of a simple cylindrical brining jar. Side view showing the rounded body and twist-off lid. Abstracted woodblock print style. The jar is a solid black mass. Broad, chunky white negative space is used to define the the hinge/clamp mechanism, and a strong liquid level line near the top. Inside the \"glass,\" sparse white negative space stippling and simplified arcs imply the contents of vegetables floating in brine. Heavy visual weight, high-contrast stencil, isolated on white. No fine lines.",
        "clip": [
          "8",
          1
        ]
      },
      "class_type": "CLIPTextEncode",
      "_meta": {
        "title": "Positive Prompt"
      }
    },
    "10": {
      "inputs": {
        "text": "shading, gradients, 3d, shadows, gray, colorful, textures, detail, photorealistic, ugly, bad, blurry, shadow, color, lighting, 3d, realism",
        "clip": [
          "8",
          1
        ]
      },
      "class_type": "CLIPTextEncode",
      "_meta": {
        "title": "Negative Prompt"
      }
    },
    "11": {
      "inputs": {
        "seed": 917810806817634,
        "steps": 9,
        "cfg": 1.0,
        "sampler_name": "euler",
        "scheduler": "beta",
        "denoise": 1.0,
        "preview_method": "auto",
        "vae_decode": "true",
        "model": [
          "8",
          0
        ],
        "positive": [
          "9",
          0
        ],
        "negative": [
          "10",
          0
        ],
        "latent_image": [
          "27",
          0
        ],
        "optional_vae": [
          "4",
          0
        ]
      },
      "class_type": "KSampler (Efficient)",
      "_meta": {
        "title": "KSampler (Efficient)"
      }
    },
    "13": {
      "inputs": {
        "filename_prefix": [
          "35",
          0
        ],
        "images": [
          "11",
          5
        ]
      },
      "class_type": "SaveImage",
      "_meta": {
        "title": "Save Image"
      }
    },
    "27": {
      "inputs": {
        "dimensions": "512 x 512 (1:1)",
        "invert": false,
        "batch_size": 1
      },
      "class_type": "EmptyLatentImagePresets",
      "_meta": {
        "title": "Empty Latent Image Presets"
      }
    },
    "32": {
      "inputs": {
        "filename_prefix": [
          "35",
          0
        ],
        "svg": [
          "34",
          0
        ]
      },
      "class_type": "SaveSVGNode",
      "_meta": {
        "title": "SaveSVGNode"
      }
    },
    "33": {
      "inputs": {
        "mode": "spline",
        "filter_speckle": 4,
        "corner_threshold": 60,
        "length_threshold": 4.0,
        "splice_threshold": 45,
        "image": [
          "11",
          5
        ]
      },
      "class_type": "TS_ImageToSVGStringBW_Vtracer",
      "_meta": {
        "title": "Image to SVG String BW_Vtracer"
      }
    },
    "34": {
      "inputs": {
        "SVG_String": [
          "33",
          0
        ]
      },
      "class_type": "TS_SVGStringToSVGBytesIO",
      "_meta": {
        "title": "SVG String to SVG BytesIO"
      }
    },
    "35": {
      "inputs": {
        "value": "Icons/soup-"
      },
      "class_type": "PrimitiveString",
      "_meta": {
        "title": "String"
      }
    }
  },
  "workflow": {
    "id": "b863a6d5-b1c1-49ed-82de-40ff658289d1",
    "revision": 0,
    "last_node_id": 35,
    "last_link_id": 44,
    "nodes": [
      {
        "id": 1,
        "type": "LoadImage",
        "pos": [
          -6217.316859373546,
          -939.7122525298151
        ],
        "size": [
          411.5,
          378
        ],
        "flags": {},
        "order": 0,
        "mode": 0,
        "inputs": [],
        "outputs": [
          {
            "name": "IMAGE",
            "type": "IMAGE",
            "links": []
          },
          {
            "name": "MASK",
            "type": "MASK",
            "links": null
          }
        ],
        "properties": {
          "cnr_id": "comfy-core",
          "ver": "0.16.3",
          "Node name for S&R": "LoadImage"
        },
        "widgets_values": [
          "apps.jpg",
          "image"
        ]
      },
      {
        "id": 4,
        "type": "VAELoader",
        "pos": [
          -6617.595563958066,
          -844.5601267331108
        ],
        "size": [
          373.8333435058594,
          123.80000305175781
        ],
        "flags": {},
        "order": 1,
        "mode": 0,
        "inputs": [],
        "outputs": [
          {
            "name": "VAE",
            "type": "VAE",
            "links": [
              13
            ]
          }
        ],
        "properties": {
          "cnr_id": "comfy-core",
          "ver": "0.9.2",
          "Node name for S&R": "VAELoader"
        },
        "widgets_values": [
          "ae.safetensors"
        ]
      },
      {
        "id": 5,
        "type": "CLIPLoader",
        "pos": [
          -6608.368533159864,
          -1107.5438052167356
        ],
        "size": [
          366.1666564941406,
          310.98333740234375
        ],
        "flags": {},
        "order": 2,
        "mode": 0,
        "inputs": [],
        "outputs": [
          {
            "name": "CLIP",
            "type": "CLIP",
            "links": [
              6
            ]
          }
        ],
        "properties": {
          "cnr_id": "comfy-core",
          "ver": "0.9.2",
          "Node name for S&R": "CLIPLoader"
        },
        "widgets_values": [
          "qwen3_4b_fp8_scaled.safetensors",
          "lumina2",
          "default"
        ]
      },
      {
        "id": 6,
        "type": "CheckpointLoaderSimple",
        "pos": [
          -7142.71680538894,
          -1274.2913540650861
        ],
        "size": [
          456,
          154.6666717529297
        ],
        "flags": {},
        "order": 3,
        "mode": 0,
        "inputs": [],
        "outputs": [
          {
            "name": "MODEL",
            "type": "MODEL",
            "links": [
              4
            ]
          },
          {
            "name": "CLIP",
            "type": "CLIP",
            "links": []
          },
          {
            "name": "VAE",
            "type": "VAE",
            "links": []
          }
        ],
        "properties": {
          "cnr_id": "comfy-core",
          "ver": "0.9.2",
          "Node name for S&R": "CheckpointLoaderSimple"
        },
        "widgets_values": [
          "zEpicrealism_turboV1Fp8.safetensors"
        ],
        "color": "#453f4f",
        "bgcolor": "#312b3b"
      },
      {
        "id": 7,
        "type": "ModelSamplingAuraFlow",
        "pos": [
          -6599.987521077401,
          -1269.9290034978649
        ],
        "size": [
          270,
          104
        ],
        "flags": {},
        "order": 6,
        "mode": 0,
        "inputs": [
          {
            "name": "model",
            "type": "MODEL",
            "link": 4
          }
        ],
        "outputs": [
          {
            "name": "MODEL",
            "type": "MODEL",
            "links": [
              5
            ]
          }
        ],
        "properties": {
          "cnr_id": "comfy-core",
          "ver": "0.10.0",
          "Node name for S&R": "ModelSamplingAuraFlow"
        },
        "widgets_values": [
          6
        ]
      },
      {
        "id": 8,
        "type": "Power Lora Loader (rgthree)",
        "pos": [
          -6199.999665682865,
          -1269.9290034978649
        ],
        "size": [
          340.48333740234375,
          232
        ],
        "flags": {},
        "order": 7,
        "mode": 0,
        "inputs": [
          {
            "dir": 3,
            "name": "model",
            "type": "MODEL",
            "link": 5
          },
          {
            "dir": 3,
            "name": "clip",
            "type": "CLIP",
            "link": 6
          }
        ],
        "outputs": [
          {
            "dir": 4,
            "name": "MODEL",
            "shape": 3,
            "type": "MODEL",
            "links": [
              33
            ]
          },
          {
            "dir": 4,
            "name": "CLIP",
            "shape": 3,
            "type": "CLIP",
            "links": [
              7,
              8
            ]
          }
        ],
        "properties": {
          "cnr_id": "rgthree-comfy",
          "ver": "8ff50e4521881eca1fe26aec9615fc9362474931",
          "Show Strengths": "Single Strength"
        },
        "widgets_values": [
          {},
          {
            "type": "PowerLoraLoaderHeaderWidget"
          },
          {
            "on": true,
            "lora": "MinimalistVectorArtZ.safetensors",
            "strength": 0.4,
            "strengthTwo": null
          },
          {
            "on": false,
            "lora": "None",
            "strength": 0.75,
            "strengthTwo": null
          },
          {},
          ""
        ]
      },
      {
        "id": 9,
        "type": "CLIPTextEncode",
        "pos": [
          -5665.307704401808,
          -968.8475182588683
        ],
        "size": [
          496.6499938964844,
          181.21665954589844
        ],
        "flags": {},
        "order": 8,
        "mode": 0,
        "inputs": [
          {
            "name": "clip",
            "type": "CLIP",
            "link": 7
          }
        ],
        "outputs": [
          {
            "name": "CONDITIONING",
            "type": "CONDITIONING",
            "links": [
              9
            ]
          }
        ],
        "title": "Positive Prompt",
        "properties": {
          "cnr_id": "comfy-core",
          "ver": "0.9.2",
          "Node name for S&R": "CLIPTextEncode"
        },
        "widgets_values": [
          "A minimalist, heavy solid black icon of a simple cylindrical brining jar. Side view showing the rounded body and twist-off lid. Abstracted woodblock print style. The jar is a solid black mass. Broad, chunky white negative space is used to define the the hinge/clamp mechanism, and a strong liquid level line near the top. Inside the \"glass,\" sparse white negative space stippling and simplified arcs imply the contents of vegetables floating in brine. Heavy visual weight, high-contrast stencil, isolated on white. No fine lines."
        ],
        "color": "#232",
        "bgcolor": "#353"
      },
      {
        "id": 10,
        "type": "CLIPTextEncode",
        "pos": [
          -5663.192560791823,
          -731.9321666339443
        ],
        "size": [
          470,
          142
        ],
        "flags": {},
        "order": 9,
        "mode": 0,
        "inputs": [
          {
            "name": "clip",
            "type": "CLIP",
            "link": 8
          }
        ],
        "outputs": [
          {
            "name": "CONDITIONING",
            "type": "CONDITIONING",
            "links": [
              10
            ]
          }
        ],
        "title": "Negative Prompt",
        "properties": {
          "cnr_id": "comfy-core",
          "ver": "0.9.2",
          "Node name for S&R": "CLIPTextEncode"
        },
        "widgets_values": [
          "shading, gradients, 3d, shadows, gray, colorful, textures, detail, photorealistic, ugly, bad, blurry, shadow, color, lighting, 3d, realism"
        ],
        "color": "#322",
        "bgcolor": "#533"
      },
      {
        "id": 11,
        "type": "KSampler (Efficient)",
        "pos": [
          -4910.911905462519,
          -1342.5026538434545
        ],
        "size": [
          400.1000061035156,
          966.6666870117188
        ],
        "flags": {},
        "order": 10,
        "mode": 0,
        "inputs": [
          {
            "name": "model",
            "type": "MODEL",
            "link": 33
          },
          {
            "name": "positive",
            "type": "CONDITIONING",
            "link": 9
          },
          {
            "name": "negative",
            "type": "CONDITIONING",
            "link": 10
          },
          {
            "name": "latent_image",
            "type": "LATENT",
            "link": 37
          },
          {
            "name": "optional_vae",
            "shape": 7,
            "type": "VAE",
            "link": 13
          },
          {
            "name": "script",
            "shape": 7,
            "type": "SCRIPT",
            "link": null
          }
        ],
        "outputs": [
          {
            "name": "MODEL",
            "type": "MODEL",
            "links": null
          },
          {
            "name": "CONDITIONING+",
            "type": "CONDITIONING",
            "links": null
          },
          {
            "name": "CONDITIONING-",
            "type": "CONDITIONING",
            "links": null
          },
          {
            "name": "LATENT",
            "type": "LATENT",
            "links": null
          },
          {
            "name": "VAE",
            "type": "VAE",
            "links": null
          },
          {
            "name": "IMAGE",
            "type": "IMAGE",
            "links": [
              14,
              39
            ]
          }
        ],
        "properties": {
          "cnr_id": "efficiency-nodes-comfyui",
          "ver": "1.0.8",
          "Node name for S&R": "KSampler (Efficient)"
        },
        "widgets_values": [
          -1,
          null,
          9,
          1,
          "euler",
          "beta",
          1,
          "auto",
          "true"
        ],
        "color": "#223333",
        "bgcolor": "#335555",
        "shape": "box"
      },
      {
        "id": 13,
        "type": "SaveImage",
        "pos": [
          -4410.457657417897,
          -1351.9940775929056
        ],
        "size": [
          461.7833251953125,
          344
        ],
        "flags": {},
        "order": 11,
        "mode": 0,
        "inputs": [
          {
            "name": "images",
            "type": "IMAGE",
            "link": 14
          },
          {
            "name": "filename_prefix",
            "type": "STRING",
            "widget": {
              "name": "filename_prefix"
            },
            "link": 43
          }
        ],
        "outputs": [],
        "properties": {
          "cnr_id": "comfy-core",
          "ver": "0.17.2"
        },
        "widgets_values": [
          "Icons/apps-"
        ]
      },
      {
        "id": 27,
        "type": "EmptyLatentImagePresets",
        "pos": [
          -5662.135085807466,
          -1235.0830630272494
        ],
        "size": [
          285.0833435058594,
          214.6666717529297
        ],
        "flags": {},
        "order": 4,
        "mode": 0,
        "inputs": [],
        "outputs": [
          {
            "name": "Latent",
            "type": "LATENT",
            "links": [
              37
            ]
          },
          {
            "name": "Width",
            "type": "INT",
            "links": null
          },
          {
            "name": "Height",
            "type": "INT",
            "links": null
          }
        ],
        "properties": {
          "cnr_id": "comfyui-kjnodes",
          "ver": "c88ac88a8f8a6a090a0d5d607156090cb2911503",
          "Node name for S&R": "EmptyLatentImagePresets"
        },
        "widgets_values": [
          "512 x 512 (1:1)",
          false,
          1
        ]
      },
      {
        "id": 32,
        "type": "SaveSVGNode",
        "pos": [
          -3813.08014368563,
          -782.3768797405022
        ],
        "size": [
          270,
          344
        ],
        "flags": {},
        "order": 14,
        "mode": 0,
        "inputs": [
          {
            "name": "svg",
            "type": "SVG",
            "link": 42
          },
          {
            "name": "filename_prefix",
            "type": "STRING",
            "widget": {
              "name": "filename_prefix"
            },
            "link": 44
          }
        ],
        "outputs": [],
        "properties": {
          "cnr_id": "comfy-core",
          "ver": "0.17.2",
          "Node name for S&R": "SaveSVGNode"
        },
        "widgets_values": [
          "Icons/apps-"
        ]
      },
      {
        "id": 33,
        "type": "TS_ImageToSVGStringBW_Vtracer",
        "pos": [
          -4400.384632109113,
          -795.4639314421659
        ],
        "size": [
          314.01666259765625,
          234.66665649414062
        ],
        "flags": {},
        "order": 12,
        "mode": 0,
        "inputs": [
          {
            "name": "image",
            "type": "IMAGE",
            "link": 39
          }
        ],
        "outputs": [
          {
            "name": "STRING",
            "shape": 6,
            "type": "STRING",
            "links": [
              41
            ]
          }
        ],
        "properties": {
          "cnr_id": "comfyui-tosvg",
          "ver": "1.0.1",
          "Node name for S&R": "TS_ImageToSVGStringBW_Vtracer"
        },
        "widgets_values": [
          "spline",
          4,
          60,
          4,
          45
        ]
      },
      {
        "id": 34,
        "type": "TS_SVGStringToSVGBytesIO",
        "pos": [
          -4063.452498661662,
          -778.437538531151
        ],
        "size": [
          225,
          72
        ],
        "flags": {},
        "order": 13,
        "mode": 0,
        "inputs": [
          {
            "name": "SVG_String",
            "type": "STRING",
            "link": 41
          }
        ],
        "outputs": [
          {
            "name": "SVG",
            "type": "SVG",
            "links": [
              42
            ]
          }
        ],
        "properties": {
          "cnr_id": "comfyui-tosvg",
          "ver": "1.0.1",
          "Node name for S&R": "TS_SVGStringToSVGBytesIO"
        },
        "widgets_values": []
      },
      {
        "id": 35,
        "type": "PrimitiveString",
        "pos": [
          -4406.6504763764315,
          -1528.2859142578614
        ],
        "size": [
          270,
          108
        ],
        "flags": {},
        "order": 5,
        "mode": 0,
        "inputs": [],
        "outputs": [
          {
            "name": "STRING",
            "type": "STRING",
            "links": [
              43,
              44
            ]
          }
        ],
        "properties": {
          "cnr_id": "comfy-core",
          "ver": "0.17.2",
          "Node name for S&R": "PrimitiveString"
        },
        "widgets_values": [
          "Icons/soup-"
        ]
      }
    ],
    "links": [
      [
        4,
        6,
        0,
        7,
        0,
        "MODEL"
      ],
      [
        5,
        7,
        0,
        8,
        0,
        "MODEL"
      ],
      [
        6,
        5,
        0,
        8,
        1,
        "CLIP"
      ],
      [
        7,
        8,
        1,
        9,
        0,
        "CLIP"
      ],
      [
        8,
        8,
        1,
        10,
        0,
        "CLIP"
      ],
      [
        9,
        9,
        0,
        11,
        1,
        "CONDITIONING"
      ],
      [
        10,
        10,
        0,
        11,
        2,
        "CONDITIONING"
      ],
      [
        13,
        4,
        0,
        11,
        4,
        "VAE"
      ],
      [
        14,
        11,
        5,
        13,
        0,
        "IMAGE"
      ],
      [
        33,
        8,
        0,
        11,
        0,
        "MODEL"
      ],
      [
        37,
        27,
        0,
        11,
        3,
        "LATENT"
      ],
      [
        39,
        11,
        5,
        33,
        0,
        "IMAGE"
      ],
      [
        41,
        33,
        0,
        34,
        0,
        "STRING"
      ],
      [
        42,
        34,
        0,
        32,
        0,
        "SVG"
      ],
      [
        43,
        35,
        0,
        13,
        1,
        "STRING"
      ],
      [
        44,
        35,
        0,
        32,
        1,
        "STRING"
      ]
    ],
    "groups": [],
    "config": {},
    "extra": {
      "ds": {
        "scale": 1.2284597357368294,
        "offset": [
          5921.802311883496,
          1151.310933837764
        ]
      },
      "workflowRendererVersion": "Vue",
      "frontendVersion": "1.41.20",
      "VHS_latentpreview": false,
      "VHS_latentpreviewrate": 0,
      "VHS_MetadataImage": true,
      "VHS_KeepIntermediate": true
    },
    "version": 0.4
  }
}
                ]]>
            </metadata>
            
<path d="M0 0 C0.3683445739745821 0.021924133300782245 0.3683445739745821 0.021924133300782245 2.232391357421875 0.13287353515625 C11.331164087191382 0.6856113407929243 20.400008650740915 1.3383413813028469 29.4375 2.5625 C30.231723632812532 2.664094238281251 31.025947265625007 2.7656884765624987 31.84423828125 2.870361328125 C38.46346396157139 3.870775176884301 45.00289215591516 5.815392155915177 49.8125 10.625 C52.900069096662605 15.688613318526642 53.609370994344715 19.211039644209052 53.375 25.1875 C54.28250000000003 25.269999999999996 55.19 25.3525 56.125 25.4375 C59.941249849518385 26.31817304219655 61.15382836244345 26.979140967973848 63.375 30.1875 C64.45361157807133 33.95083090743127 64.59872127313378 37.18075427089798 63.75 41 C60.91696478167995 45.50710148369103 56.27066269742937 46.707415928684156 51.375 48.1875 C51.375 51.4875 51.375 54.787499999999994 51.375 58.1875 C52.61250000000001 58.39375 53.85000000000002 58.599999999999994 55.125 58.8125 C58.5482853205105 59.680460639774836 59.34204834319007 60.15207696892932 61.875 62.875 C63.64277366250775 66.7788335047046 64.05591042202371 68.95072404074119 63.375 73.1875 C60.9545968333822 77.07481417668919 58.93972185906472 79.29025868730436 54.5625 80.5625 C54.0365625 80.665625 54.0365625 80.665625 51.375 81.1875 C54.36546887632761 90.79043421777259 58.46055608198441 99.68959787513137 65.875 106.6875 C78.26397546330276 118.3820261660324 83.95427285284592 136.44044833121688 84.64864540100098 153.1087303161621 C84.79357255513827 158.86124672605325 84.7697535378789 164.61286392198437 84.747314453125 170.36669921875 C84.74974720061897 172.56790335575948 84.75347118413049 174.7691063821102 84.75837707519531 176.97030639648438 C84.76772463056147 182.9084466094941 84.75841184737067 188.84642020473615 84.74504494667053 194.78454732894897 C84.7336603075567 201.02523897547587 84.73784342540603 207.26592325368475 84.73979187011719 213.50662231445313 C84.74067276817902 223.98539809583562 84.72971038939329 234.46411303719333 84.711181640625 244.94287109375 C84.69219133186209 255.6857295880107 84.68509305210387 266.42851263614705 84.690673828125 277.17138671875 C84.6974063259753 290.16945074278465 84.69404740111702 303.1674711917002 84.68157005310059 316.16553115844727 C84.67695138623759 321.1084568742918 84.67603830801016 326.0513621249013 84.67815589904785 330.99428939819336 C84.68005388084703 336.82701327559084 84.671820012603 342.65964176983715 84.65609550476074 348.4923439025879 C84.65189004297923 350.62023778450884 84.65097655028285 352.74814141426947 84.6537857055664 354.87603759765625 C84.68682094045346 384.4010364201313 80.35462689714387 410.3874731852636 60.375 433.1875 C60.145546875000036 433.45054931640624 60.145546875000036 433.45054931640624 58.984375 434.78173828125 C45.40705731141895 450.0329079788285 31.276181897620347 454.9773951922955 11.125 456.3125 C9.843994140625 456.39814208984376 8.56298828125 456.4837841796875 7.2431640625 456.572021484375 C-2.303723752507608 457.17326349814596 -11.814481795046618 457.30320318357303 -21.379150390625 457.21923828125 C-38.226886046018876 457.0972385439245 -55.06915029424755 457.51127337466176 -71.9130859375 457.832275390625 C-73.1280323791504 457.8551612854004 -74.3429788208008 457.87804718017577 -75.59474182128906 457.90162658691406 C-77.88133377123796 457.94495940898054 -80.1679060875648 457.98934709336316 -82.45445251464844 458.03501892089844 C-109.05916269352156 458.54505720684523 -138.8130248907514 459.0365934757745 -163.625 448.1875 C-164.01494140625 448.02056640625 -164.01494140625 448.02056640625 -165.98828125 447.17578125 C-183.7350770445552 438.4483807587105 -197.44729442495796 420.5252007746081 -204.09765625 402.30078125 C-209.55550286213224 386.17427266054557 -209.92449000043473 370.407320556325 -209.91552734375 353.55517578125 C-209.9215217274608 351.29338358980596 -209.92832934673424 349.0315934311054 -209.93588256835938 346.7698059082031 C-209.95345364850456 340.6623063343349 -209.95823408097024 334.5548629003047 -209.95951414108276 328.44734048843384 C-209.96094095338745 324.6235576009611 -209.96522047858218 320.799788752346 -209.97050857543945 316.9760093688965 C-209.98802641599633 304.30145688463665 -209.99735249878321 291.6269449746424 -209.99584762752056 278.95238365232944 C-209.99576771512628 278.27151989862324 -209.995687802732 277.59065614491703 -209.99560546875 276.88916015625 C-209.99552370741964 276.2074515174329 -209.99544194608927 275.52574287861586 -209.99535770714283 274.8233764022589 C-209.99454490796978 263.7772566541582 -210.01369022926286 252.73127327807117 -210.04188220202923 241.68519295752048 C-210.07069917649008 230.30317353407327 -210.0840525721933 218.921241136118 -210.08269464969635 207.53917682170868 C-210.0821866408882 201.16496269285292 -210.08778115658515 194.79090323252802 -210.10905075073242 188.41672134399414 C-210.12851816096747 182.41980108783582 -210.12849957501766 176.42318178233984 -210.11401748657227 170.42625045776367 C-210.11193907649306 168.23665167704038 -210.1165719006636 166.0470336167006 -210.1287384033203 163.8574676513672 C-210.2514184416105 140.23304566028648 -205.30208688404068 122.944817037804 -190.625 104.1875 C-188.32356764472823 100.73535146709236 -188.48666146013102 99.95270675699108 -189 96 C-189.110859375 95.0989453125 -189.22171875 94.197890625 -189.3359375 93.26953125 C-189.431328125 92.5824609375 -189.52671875 91.895390625 -189.625 91.1875 C-190.615 91.1875 -191.605 91.1875 -192.625 91.1875 C-192.893125 91.97125 -193.16125 92.755 -193.4375 93.5625 C-194.625 96.1875 -194.625 96.1875 -197.625 98.1875 C-201.3488501264501 98.86133954669097 -205.00972488201646 98.9508367646167 -208.4765625 97.3125 C-212.56112247091417 94.25411026808398 -213.886498716475 91.11084189016665 -214.625 86.1875 C-214.60381689394217 80.21386409168706 -213.14323196161314 75.61138422501287 -210.625 70.1875 C-209.83490413557695 67.90283855952548 -209.0960874056812 65.60683451637581 -208.37109375 63.30078125 C-207.625 61.187499999999986 -207.625 61.187499999999986 -206.58203125 59.140625 C-205.625 57.1875 -205.625 57.1875 -204.875 53.625 C-203.19232351314088 46.49365679378748 -198.9625269066936 38.22002536916824 -193.625 33.1875 C-188.28862769605053 30.03987414884231 -183.7934559139764 28.662525028597756 -177.625 29.1875 C-177.5876171875 28.4746484375 -177.550234375 27.761796875 -177.51171875 27.02734375 C-176.61651896729032 13.985511621504052 -176.61651896729032 13.985511621504052 -171.390625 9.09765625 C-156.24451370700842 -1.3634290921933356 -126.24495397469866 1.7071732887657447 -108.625 1.1875 C-107.96522155761718 1.167942504882813 -107.30544311523437 1.1483850097656259 -106.62567138671875 1.12823486328125 C-96.64510156102114 0.8338011686551852 -86.66381111982898 0.5704316799951776 -76.68212890625 0.31689453125 C-72.32000667962149 0.2059020333267121 -67.95800705122207 0.09063851324733108 -63.59602355957031 -0.025665283203125 C-60.0143374120363 -0.12083694776191578 -56.432605299294096 -0.2141896696087393 -52.850860595703125 -0.30712890625 C-51.14615328413623 -0.3516143161757803 -49.44146094464861 -0.3966780716454288 -47.736785888671875 -0.4423828125 C-31.787425198537676 -0.868340152771399 -15.931326975831553 -0.9584682481538778 0 0 Z M-133.6875 14.6875 C-134.83927734374998 14.735195312499997 -135.9910546875 14.782890625 -137.177734375 14.83203125 C-139.9935627853299 14.948870603125727 -142.80930918676125 15.067397930144324 -145.625 15.1875 C-139.38925335971825 21.73350742323079 -130.4000336088546 22.71427014436069 -121.625 23.1875 C-120.4480859375 23.263554687499997 -119.271171875 23.339609375000002 -118.05859375 23.41796875 C-116.8017578125 23.465664062499997 -115.544921875 23.513359375 -114.25 23.5625 C-113.06664062499999 23.611484375000003 -111.88328125000001 23.66046875 -110.6640625 23.7109375 C-107.625 23.1875 -107.625 23.1875 -105.8359375 20.8515625 C-105.43632812499999 19.972421875000002 -105.03671875 19.093281250000004 -104.625 18.1875 C-103.965 17.197499999999998 -103.305 16.207499999999996 -102.625 15.1875 C-103.924375 15.0225 -105.22375 14.857500000000002 -106.5625 14.6875 C-107.2933984375 14.5946875 -108.024296875 14.501874999999998 -108.77734375 14.40625 C-117.06233402308948 13.76981727668997 -125.39968695523683 14.333606078873359 -133.6875 14.6875 Z M-172.625 32.1875 C-174.12321059250303 35.558473833131785 -174.625 37.39192119143726 -174.625 41.1875 C-155.17959263927088 42.676487243428966 -135.72865937183238 43.833069030455746 -116.25321960449219 44.83821105957031 C-112.65571518497728 45.02463026109298 -109.05893439327821 45.218045885687886 -105.462890625 45.430908203125 C-92.9700618647793 46.16632389374681 -80.47058920722719 46.65771194521625 -67.96484375 47.117431640625 C-64.36706289700123 47.25029310710883 -60.769474564649784 47.3877173953305 -57.171875 47.525390625 C-39.553796226839836 48.18821029793554 -22.168258534995857 48.251377797418655 -4.5625 47.3125 C-3.7022723388671466 47.267040405273434 -2.842044677734407 47.22158081054687 -1.95574951171875 47.17474365234375 C32.05051864602456 45.360896871903066 32.05051864602456 45.360896871903066 46.0625 42.3125 C46.77712402343752 42.1631298828125 47.49174804687499 42.013759765625 48.22802734375 41.85986328125 C51.17099242072891 41.14763219871139 52.995571749928104 40.67324619160877 54.89453125 38.2421875 C55.375 36.18749999999999 55.375 36.18749999999999 54.375 33.1875 C48.727051933475764 30.363525966737896 40.69544331535599 32.209839976879145 34.58735656738281 32.84455871582031 C25.781371533016227 33.75504437290624 17.012679299325328 34.429317492267586 8.1640625 34.74609375 C7.007461242675788 34.787857360839844 5.850859985351576 34.82962097167969 4.659210205078125 34.872650146484375 C-8.436277324704804 35.30378044654637 -21.531401422871795 35.3397833645119 -34.63232421875 35.31787109375 C-38.06812694515685 35.31216310298583 -41.503852320245755 35.31557396193241 -44.93965244293213 35.32131576538086 C-64.80557384659215 35.34935958266934 -84.60511063213536 34.84687418094796 -104.4375 33.6875 C-127.12057779209198 32.412588708553116 -149.90991405379575 31.96235046969621 -172.625 32.1875 Z M-188.9375 44.5625 C-194.90963476070527 57.391530226700255 -194.90963476070527 57.391530226700255 -195.625 64.1875 C-194.77937500000002 63.8575 -193.93375 63.5275 -193.0625 63.1875 C-188.81086183424793 61.95065980632667 -184.73366254675216 61.03113666791012 -180.6875 63.25 C-179.0059626888136 66.31633274392811 -179.2644881590398 68.76263751087781 -179.625 72.1875 C-179.8828125 72.5278125 -179.8828125 72.5278125 -181.1875 74.25 C-182.625 76.1875 -182.625 76.1875 -182.5 79.0625 C-181.57285697256282 82.37372509798992 -180.2738442655308 85.17656699337851 -178.625 88.1875 C-177.965 88.1875 -177.305 88.1875 -176.625 88.1875 C-175.635 84.5575 -174.64499999999998 80.92750000000001 -173.625 77.1875 C-172.82273514747618 77.188421792984 -172.0204702949524 77.18934358596802 -171.1938943862915 77.19029331207275 C-151.45980415130242 77.21260507296091 -131.72571650856895 77.22903434152677 -111.99161624908447 77.23931217193604 C-102.44744977726987 77.24441751745952 -92.9032918407425 77.25134683255466 -83.359130859375 77.262939453125 C-75.01775382798553 77.27306610178802 -66.67638298840541 77.2793949939917 -58.33499997854233 77.28158849477768 C-53.93894807449652 77.2828659122068 -49.54291384606756 77.28575404585865 -45.146867752075195 77.2932300567627 C-26.24184058982678 77.32404251066406 -7.351136235315266 77.18917349622492 11.549072265625 76.736083984375 C12.408468416929281 76.7160783779621 13.267864568233449 76.69607277154923 14.153303027153015 76.67546093463898 C23.87150065947469 76.44392441755136 33.55800297261288 76.10699886000009 43.25 75.3125 C44.06562691688538 75.2470722103119 44.88125383377076 75.18164442062377 45.72159671783447 75.11423397064209 C48.71149222983115 74.80087456438893 50.91755832535358 74.51097031713917 53.40234375 72.75390625 C54.375 71.1875 54.375 71.1875 54.0625 69 C53.83562499999999 68.401875 53.608749999999986 67.80375000000001 53.375 67.1875 C48.448651392562056 65.58797470767146 44.40533717780556 64.95275483415756 39.171875 65.03125 C38.44587097167971 65.03934692382812 37.719866943359364 65.04744384765625 36.97186279296875 65.0557861328125 C34.439252436696734 65.08786997730535 31.90730423621335 65.1368308838593 29.375 65.1875 C27.443364577532066 65.2216497206156 25.511723630264555 65.25548794501795 23.580078125 65.2890625 C20.222355460651784 65.34908158552284 16.864660516708057 65.410242232216 13.506988525390625 65.47303771972656 C-28.161272560651582 66.24821806329967 -69.82613239563929 66.27375581805197 -111.5 66.25 C-112.26550611495972 66.24957576751709 -113.03101222991944 66.24915153503417 -113.81971549987793 66.24871444702148 C-133.75482238789698 66.23747866721594 -153.689911662486 66.21709479210644 -173.625 66.1875 C-173.54193603515625 65.29909423828124 -173.4588720703125 64.4106884765625 -173.373291015625 63.495361328125 C-173.27201904296874 62.32771240234375 -173.1707470703125 61.1600634765625 -173.06640625 59.95703125 C-172.96271728515626 58.800500488281244 -172.85902832031252 57.6439697265625 -172.752197265625 56.452392578125 C-172.59819395951746 52.49944399352631 -173.1839912114147 49.83240458289225 -174.625 46.1875 C-175.285 46.1875 -175.945 46.1875 -176.625 46.1875 C-176.95499999999998 44.86750000000001 -177.285 43.5475 -177.625 42.1875 C-185.71599181073702 41.25392402183803 -185.71599181073702 41.25392402183803 -188.9375 44.5625 Z M-198.625 69.1875 C-202.13564108230133 75.67591700032482 -203.17753221310824 80.8357519422542 -202.625 88.1875 C-200.76953125 87.9453125 -200.76953125 87.9453125 -198.625 87.1875 C-195.72990251385914 83.13610231669176 -194.577400331447 79.18709303961278 -194.8125 74.25 C-195.625 71.1875 -195.625 71.1875 -196.625 69.1875 C-197.285 69.1875 -197.945 69.1875 -198.625 69.1875 Z M-144.625 110.1875 C-145.308203125 110.91582031249999 -145.99140625 111.644140625 -146.6953125 112.39453125 C-151.90432422496986 118.0008404794167 -156.41298173386684 123.80653439682357 -160.625 130.1875 C-161.2579296875 131.1091796875 -161.890859375 132.030859375 -162.54296875 132.98046875 C-168.4611312114056 141.82720645003928 -169.83290871046745 148.90841762531977 -170.19677734375 159.377685546875 C-170.37653222215624 163.6445260565584 -171.0867595712539 167.2054421159073 -172.625 171.1875 C-171.75875 171.97125 -170.89249999999998 172.755 -170 173.5625 C-169.7563671875 173.7829296875 -169.7563671875 173.7829296875 -168.5234375 174.8984375 C-162.75001163754607 178.81866493746872 -156.5129542237504 178.4915722600437 -149.8125 178.4375 C-148.86568359375 178.44523437499998 -147.91886718749998 178.45296875 -146.943359375 178.4609375 C-139.61764928964357 178.44077036968932 -132.0591482339184 178.04711887297663 -125.625 174.1875 C-124.6875 171.75 -124.6875 171.75 -124.625 169.1875 C-126.33430386802291 166.30304972271134 -128.08172430477742 166.04041929168184 -131.3125 165 C-132.405625 164.731875 -133.49875 164.46375 -134.625 164.1875 C-133.54088507796587 148.4678336305053 -127.6169671915656 135.6952438995886 -119.2109375 122.6640625 C-114.54395173530304 115.37620788222199 -114.54395173530304 115.37620788222199 -114.8125 111.4375 C-115.625 109.1875 -115.625 109.1875 -117.625 107.1875 C-120.41297695385077 106.71555405796883 -123.13037690812124 106.34860611295673 -125.9375 106.0625 C-126.317451171875 106.01931640625 -126.317451171875 106.01931640625 -128.240234375 105.80078125 C-139.7289668144236 104.54310941041064 -139.7289668144236 104.54310941041064 -144.625 110.1875 Z M2.5078125 179.61328125 C0.8325860473196371 180.56511446175023 -0.8366505351241358 181.52756044483576 -2.5 182.5 C-3.353359374999968 182.97373046875 -4.206718749999993 183.4474609375 -5.0859375 183.935546875 C-11.245780653389374 187.49792452146173 -11.245780653389374 187.49792452146173 -13.1953125 191.04296875 C-13.337109375000011 191.7506640625 -13.478906250000023 192.458359375 -13.625 193.1875 C-10.98853950039944 196.07505197575298 -9.002895335685821 197.02181699920976 -5.05859375 197.49609375 C2.914759093863154 197.83914543689372 8.285770888054913 196.47778770364025 14.375 191.1875 C17.538721618370914 187.58085735505713 20.26136148365873 184.31373645049032 20.5234375 179.41015625 C20.474453124999968 178.6766796875 20.425468749999993 177.943203125 20.375 177.1875 C14.153523719416967 173.68791959217202 8.32145570681621 176.53749848577698 2.5078125 179.61328125 Z M-169.625 193.1875 C-169.4375 195 -169.4375 195 -168.625 197.1875 C-164.44642857142856 200.1875 -164.44642857142856 200.1875 -161.625 200.1875 C-161.625921792984 201.01926222801208 -161.626843585968 201.85102445602416 -161.62779331207275 202.70799160003662 C-161.64989654627925 222.96494966932144 -161.66643497148164 243.22190565426575 -161.67681217193604 263.47887325286865 C-161.6819641414623 273.27506379318356 -161.68898589486628 283.07124627389857 -161.700439453125 292.867431640625 C-161.71041987198208 301.40773176803066 -161.71686142465097 309.94802605692655 -161.71908849477768 318.4883318543434 C-161.72038989441836 323.0085599452113 -161.7234396135189 327.52877133578795 -161.7307300567627 332.04899406433105 C-161.73754326532747 336.30803409265354 -161.73960620311942 340.56705062035184 -161.7381076812744 344.8260955810547 C-161.7383816314424 346.3848845459729 -161.74035519152022 347.94367433859594 -161.74420547485352 349.5024585723877 C-161.77816876196283 363.9682722555577 -161.68375652426712 375.82546682188894 -151.375 387.0625 C-145.57278832961885 392.40258861698794 -138.52073149170218 395.7568237368163 -130.625 396.1875 C-130.2705078125 396.2068359375 -130.2705078125 396.2068359375 -128.4765625 396.3046875 C-123.17906566892765 396.4674092456643 -118.70779626628166 395.66613164110015 -113.625 394.1875 C-113.625 393.52750000000003 -113.625 392.8675 -113.625 392.1875 C-115.38281250000003 390.9609375 -115.38281250000003 390.9609375 -117.75 389.5625 C-126.12679155794467 384.10509262708473 -130.14659359162445 376.7687726312591 -132.625 367.1875 C-133.18027154650036 362.1828575374121 -133.20754142761152 357.2011244388751 -133.19921875 352.171875 C-133.2114727179684 350.72527985647935 -133.22554874912345 349.27869915861913 -133.24131774902344 347.83213806152344 C-133.27878493119763 343.9935833233681 -133.29347331230412 340.1552656408701 -133.30371856689453 336.31655502319336 C-133.3184990666025 332.3122402771546 -133.35458982950547 328.30813080921627 -133.39013671875 324.303955078125 C-133.404147489968 322.7048495382545 -133.41812467249179 321.10574370373115 -133.43206787109375 319.5066375732422 C-133.43894371032715 318.72078466415405 -133.44581954956055 317.9349317550659 -133.4529037475586 317.12526512145996 C-133.47258533694935 314.7624196164601 -133.48961045605597 312.3995683770239 -133.50592041015625 310.0366973876953 C-133.5801252825817 299.6931385595813 -133.80484623715768 289.36397854859274 -134.17620849609375 279.02691650390625 C-134.71923091820446 263.19123285100494 -134.7965407532983 247.3374141278681 -134.70257568359375 231.49429321289063 C-134.6925961238071 228.89158765776153 -134.69602340042582 226.28879312295558 -134.71343994140625 223.68612670898438 C-134.73405774716247 220.04720147338747 -134.70347486872194 216.41209003187413 -134.66015625 212.7734375 C-134.67638534545898 211.67642013549806 -134.69261444091796 210.5794027709961 -134.70933532714844 209.4491424560547 C-134.64331443440338 206.47867312464177 -134.53145561185121 204.0186784207132 -133.625 201.1875 C-131.6232343800551 199.36495113475166 -129.8227797441372 198.32547528897425 -127.33860778808594 197.26455688476563 C-126.77311721801757 196.90912811279296 -126.20762664794921 196.55369934082032 -125.625 196.1875 C-125.625 194.8675 -125.625 193.5475 -125.625 192.1875 C-129.75043055925016 191.03829460251305 -133.74814400319337 191.02560859255547 -138.00390625 191.01953125 C-138.40814567565917 191.0178670501709 -138.40814567565917 191.0178670501709 -140.45384216308594 191.0094451904297 C-142.1592451205501 191.00439215987618 -143.8646579235691 191.00203636266852 -145.570068359375 191.002197265625 C-148.18164219113385 191.00000491747784 -150.79279740015278 190.98181631531185 -153.404296875 190.962890625 C-155.06249855621923 190.95995756196476 -156.72070224171236 190.95797218350182 -158.37890625 190.95703125 C-159.16020401000975 190.94984573364258 -159.94150177001953 190.94266021728515 -160.74647521972656 190.9352569580078 C-164.5752371239146 190.95144605805044 -166.3620854846734 191.01222365644892 -169.625 193.1875 Z M-58.625 215.1875 C-58.25 218.8125 -58.25 218.8125 -57.625 222.1875 C-55.375 222.9375 -55.375 222.9375 -52.625 223.1875 C-50.3125 221.25 -50.3125 221.25 -48.625 219.1875 C-50.5 214.3125 -50.5 214.3125 -51.625 213.1875 C-56.26785714285711 212.83035714285714 -56.26785714285711 212.83035714285714 -58.625 215.1875 Z M24.375 227.625 C22.787037409621746 231.69415413784424 23.197794379266952 235.02200318817523 24.375 239.1875 C26.796254571746204 244.32709559401349 29.364525686764978 249.22893421504216 34.375 252.1875 C35.69499999999999 252.1875 37.014999999999986 252.1875 38.375 252.1875 C40.28463895934806 244.32860120575998 41.29012329740499 237.65618091451176 37.3671875 230.296875 C36.1875 228.625 36.1875 228.625 33.375 226.1875 C29.585721094633527 225.5341760507989 27.542718087591425 225.34820262454366 24.375 227.625 Z M-44.625 239.1875 C-44.25 242.375 -44.25 242.375 -43.625 245.1875 C-41.9375 246 -41.9375 246 -39.625 246.1875 C-36.875 243.75 -36.875 243.75 -34.625 241.1875 C-35.8125 238.6875 -35.8125 238.6875 -37.625 236.1875 C-41.721697722327235 235.388144346863 -42.24106162063856 235.6115924309579 -44.625 239.1875 Z M-18.625 263.1875 C-22.65444279839562 269.40906105035293 -24.35683784255781 276.91628959346866 -23.3359375 284.26953125 C-22.519112116933854 287.5575995292917 -21.581074805313392 290.36837704288405 -18.625 292.1875 C-16.640625 291.953125 -16.640625 291.953125 -14.625 291.1875 C-13.092475042023466 288.53112340617406 -11.86016895705302 285.9824386297821 -10.625 283.1875 C-10.113242187499964 282.1162890625 -9.601484375000041 281.045078125 -9.07421875 279.94140625 C-3.0012368615535934 267.1722008950567 -3.0012368615535934 267.1722008950567 -4.3125 263 C-5.886879412260555 260.8258570021164 -7.115994084295949 260.09986578752876 -9.625 259.1875 C-13.852342270493011 259.1875 -15.389682267550256 260.48039740754206 -18.625 263.1875 Z M-73.9375 279.375 C-75.90571544555439 281.4890091822621 -76.46493081209675 282.30625461774173 -76.625 285.1875 C-75.49748468797512 291.0505796225293 -72.91026179767763 295.33315794074497 -69.625 300.1875 C-69.22410156250001 300.7946484375 -68.82320312499999 301.401796875 -68.41015625 302.02734375 C-67.4897711427275 303.41938528235164 -66.55864745113851 304.80431859090595 -65.625 306.1875 C-63.3125 306.0625 -63.3125 306.0625 -60.625 305.1875 C-57.220975548154684 300.49229385952367 -56.89073295889659 295.77999965552743 -57.625 290.1875 C-59.33624080827599 285.5041041036658 -61.757880857794476 282.3351551157487 -65.625 279.1875 C-69.08241742288303 278.05854737211985 -70.6774559755903 277.70092333881666 -73.9375 279.375 Z M9.375 304.1875 C9.1875 306.625 9.1875 306.625 9.375 309.1875 C10.034999999999968 309.8475 10.694999999999993 310.5075 11.375 311.1875 C14.910714285714278 310.6517857142857 14.910714285714278 310.6517857142857 16.375 309.1875 C16.5 306.6875 16.5 306.6875 16.375 304.1875 C15.375 303.1875 15.375 303.1875 12.875 303.0625 C10.375 303.1875 10.375 303.1875 9.375 304.1875 Z M-45.6875 334.0625 C-50.468940681106574 337.5214145352686 -53.53911809164413 342.3508847425871 -54.625 348.1875 C-55.07214772887971 353.8132423563699 -54.7051231814429 358.88318588732056 -52.625 364.1875 C-50.5 366.625 -50.5 366.625 -48.625 368.1875 C-48.129999999999995 368.0225 -48.129999999999995 368.0225 -45.625 367.1875 C-44.4140625 364.59765625 -44.4140625 364.59765625 -43.25 361.25 C-41.693201344574504 356.90710131184665 -40.02381594411543 352.94825867920366 -37.75 348.9375 C-35.12627147384359 343.95159843939126 -35.48308622517584 340.63355031069983 -36.625 335.1875 C-40.12709242296705 333.60322009437203 -41.93681174662555 332.99087478475013 -45.6875 334.0625 Z M13.9375 341.375 C9.016365872039898 346.05236277796826 3.800974132779288 348.755744446719 -2.355224609375 351.447998046875 C-7.45975738620109 353.7567075872684 -7.45975738620109 353.7567075872684 -8.39599609375 356.197509765625 C-8.625 358.1875 -8.625 358.1875 -7.53515625 359.8515625 C-2.903630732052477 363.09078893586513 3.577024336979548 363.46324252910927 9.0703125 362.921875 C17.03248249760304 360.97501211657357 22.686131190487345 356.10160593714625 27.26953125 349.4296875 C30.152657191811215 344.47368178269454 31.83540529343844 341.0304617240005 31.375 335.1875 C30.375 334.1875 30.375 334.1875 28.25 333.9375 C21.86545668096727 334.4926776799159 18.405716844427275 337.0267352856245 13.9375 341.375 Z " fill="#000000" transform="translate(319.625,27.8125)"/>
</svg>
