<svg xmlns="http://www.w3.org/2000/svg" width="512" height="512"><path d="M196.2 113.852c6.751-.258 12.926 1.4 19.425 3.085 13.942 3.543 25.724 5.15 40.04 2.5 9.033-1.184 16.978.301 25.835 2.25l5.858 1.241q6.438 1.366 12.866 2.782c14.67 3.228 29.255 5.346 44.196 6.771 13.45 1.33 26.202 4.37 38.955 8.894l2.574.904c5.355 1.941 10.089 4.218 14.836 7.397 2.506 1.498 4.936 2.316 7.715 3.199 5.277 1.779 8.78 4.527 12.977 8.121 2.537 2.015 5.021 3.462 7.898 4.941 6.418 3.345 11.953 7.595 17.625 12.063l2.57 1.945C465.896 192.677 479.192 208.093 491 225l1.532 2.18C502.962 242.103 512.6 259.02 510 278l-1.008 1.938c-1.355 2.816-1.199 5.196-1.242 8.312-.53 8.663-3.25 15.869-6.75 23.75l-.92 2.09c-4.208 9.38-9.016 17.342-16.08 24.91l-1.343 1.451c-7.083 7.584-14.766 14.166-23.077 20.366a255 255 0 0 0-4.092 3.144c-43.596 32.716-110.026 35.421-162.317 35.355q-5.91-.007-11.82.02c-21.632.1-42.937.136-64.351-3.336l-2.47-.385c-5.076-.8-10.117-1.73-15.155-2.74l-2.251-.443C180.813 389.205 164.891 384.866 149 380l-3-.905C108.193 367.575 70.751 349.578 42 322c-.84-.789-1.68-1.578-2.547-2.39-22.711-21.887-36.783-54.4-37.739-85.8-.308-23.689 14.13-42.102 29.891-58.381 8.736-8.87 15.646-14.988 27.958-17.68 5.725-1.347 10.651-3.672 15.832-6.361 13.717-7.117 27.969-13.182 42.168-19.264l3.167-1.37c6.323-2.683 12.664-4.906 19.251-6.853 2.613-.78 5.182-1.628 7.757-2.523 4.423-1.488 8.876-2.532 13.45-3.442l2.571-.512c10.739-2.032 21.552-2.84 32.44-3.573M179 135l-.875 2.438C177 140 177 140 175 141c-5.914.394-8.673-.336-14-3-4.674-.208-6.85 1.596-10.25 4.5-3.43 2.87-5.463 3.892-9.937 4-4.362.115-4.362.115-6.602 2.027q-1.501 1.882-2.93 3.82c-2.235 2.883-4.686 3.406-8.172 3.946-3.396.421-6.762.695-10.183.812-9.167.418-9.167.418-12.176 3.333C99 163 99 163 99 165l-2.187.813C94 167 94 167 91.813 168.688c-4.292 2.002-8.239 1.05-12.813.312l-.637 2.012c-1.712 4.36-3.047 7.255-7.238 9.59a171 171 0 0 1-6.742 2.304c-4.729 1.53-9.004 3.77-13.383 6.094l.395 2.047c.418 2.704.687 5.217.605 7.953-3.348 4.24-9.068 5.98-14 8 1.78 4.182 3.845 5.194 8 7 .35 4.37.365 7.86-2.312 11.512-3.911 3.449-8.96 5.392-13.688 7.488 2.64 2.075 5.228 3.727 8.25 5.188l2.14 1.042L42 240c.125 6.515.125 6.515-.5 8.938-1.223 5.043-1.17 8.77 1.188 13.312 3.637 4.325 6.557 7.144 12.312 7.75h3c.313 2.688.313 2.688 0 6l-2.562 2.313C53 281 53 281 52.75 283.207c.467 6.026.467 6.026 2.996 8.504 3.234 1.85 6.365 2.145 10.012 2.664C68 295 68 295 70 298l.125 2.938c.974 3.408 1.256 3.718 4.188 5.375 3.623 1.599 6.874 1.966 10.812 2.187 6.417.394 9.527 1.873 13.879 6.742l2.246 2.57c6.793 7.742 13.912 13.147 24.309 14.528 9.117 1.328 14.677 4.896 21.129 11.348 6.433 5.705 15.156 5.959 23.37 6.906q2.753.324 5.505.656l2.821.338c7.841 1.057 15.019 3.224 22.388 6.075 7.527 2.82 14.383 3.19 22.228 1.337 9.007-1.1 15.546.34 23.875 3.5 11.964 4.335 22.538 4.276 35.125 3.5l4.86-.277c5.486-.317 10.97-.669 16.452-1.036l2.676-.176c15.546-1.055 31.391-2.412 46.387-6.886l2.242-.634c4.432-1.288 8.587-2.89 12.82-4.741 6.205-2.539 12.05-2.856 18.678-2.886 6.314-.077 12.973-.738 17.838-5.126l1.297-1.925c4.79-6.115 11.878-9.877 18.75-13.313 1.998-.13 3.999-.23 6-.312 13.608-1.047 21.447-7.202 30.332-17.352A191 191 0 0 0 466 304l1.379-1.785c2.308-3.144 3.08-5.32 2.621-9.215l-6-3c-.485-6.302-.485-6.302 1.563-9.25 2.961-2.126 6.09-3.325 9.437-4.75 3.745-5.618 2.523-13.294 1.605-19.793-1.494-6.066-4.568-9.884-8.62-14.543-2.797-3.754-4.16-7.766-5.587-12.195-1.89-3.34-3.853-3.3-7.398-4.469-1.215-2.355-1.215-2.355-1.937-5.187-2.86-8.941-8.645-12.898-16.524-17.516-2.338-1.195-4.547-1.942-7.039-2.734-5.47-2.246-7.962-7.106-10.875-11.992-3.334-5.544-7.331-10.28-13.625-12.571a74 74 0 0 0-5.25-.375c-7.374-.577-12.074-3.45-18.062-7.562-12.523-8.529-24.3-10.382-39.108-10.454-6.056-.136-8.969-.429-13.58-4.609-2.902-.066-2.902-.066-5.937.438-4.975.611-7.827.572-12.063-2.438l-2-2c-1.869.204-3.737.418-5.598.684-9.844 1.296-15.223-.056-23.402-5.684-6.122-3.754-13.6-3.11-20.527-2.992l-5.592.05q-4.344.045-8.687.113c-10.88.167-20.97-.166-31.618-2.467-5.371-1.057-10.678-1.228-16.138-1.329-6.225-.158-12.293-.324-18.438-1.375m312 171c.591 4.847 1.98 8.607 4 13 2.19-3.285 2.998-6.207 4-10l-2.312.188C494 309 494 309 492.188 307.5zm8 1 1 2ZM57 326c6.42 13.397 22.002 22.315 35.582 27.32L95 354c-3.855-4.139-7.982-7.198-12.687-10.312-7.32-4.934-14.2-10.231-20.958-15.91C59 326 59 326 57 326m359.313 51-3.575 1.688L410 380c3.713 1.238 4.946.58 8.563-.75l2.94-1.047C424 377 424 377 426 374c-3.865 0-6.205 1.345-9.687 3m-16.977.621c-9.393 1.897-18.822 3.438-28.297 4.852l-2.13.319q-7.64 1.142-15.284 2.27-7.689 1.137-15.376 2.287c-2.008.3-4.017.594-6.025.89-8.808 1.315-17.509 2.94-26.224 4.761v1c31.192-.236 61.372-6.113 91.676-13.012l2.287-.517c4.1-.949 8.063-2.067 12.037-3.471-4.462-1.361-8.205-.333-12.664.621"/><path d="m243.938 149.75 2.464.484c2.598.766 2.598.766 5.344 2.25 4.105 1.912 7.918 2.443 12.379 3.016l5.39.742 2.768.374c2.575.364 5.137.773 7.701 1.204 9.805 1.627 19.378 2.595 29.332 2.626 5.769.111 10.12 1.217 15.355 3.668 2.603.99 4.744 1.152 7.517 1.198 6.59.35 11.831 3.176 17.625 6.094 4.344 2.173 6.884 2.584 11.684 2.224 9.049-.552 9.049-.552 13.382 2.194 2.234 2.287 4.196 4.627 6.121 7.176 4.196 4.566 7.56 6.909 13.75 7.875 4.158.784 7.485 1.954 11.172 4.008C408 196 408 196 410.578 197.055c6.897 2.924 6.897 2.924 8.488 6.02l.747 2.3c1.64 4.756 4.084 6.05 8.5 8.313l3.472 1.68c4.414 2.241 8.938 5.077 11.215 9.632q-.28 2.313-.562 4.625c-.081 3.715.176 4.95 2.714 7.742 2.551 1.998 5.156 3.832 7.848 5.633 2 2 2 2 2.012 3.953l-.325 2.297-.316 2.445c-.294 1.825-.69 3.633-1.121 5.43-.286 3.286.661 4.986 2.016 7.918 2.057 5.483 1.583 10.046-.778 15.36-3.088 5.796-6.64 10.926-10.925 15.91-3.337 3.95-4.174 6.426-4.31 11.519-.581 4.97-3.824 8.889-7.448 12.133-3.335 2.42-6.807 4.338-10.43 6.285-4.985 2.728-9.656 5.547-14.187 9-8.19 6.1-15.431 8.992-25.63 10.013-5.803.585-11.467 1.584-17.183 2.737l-2.549.504c-3.432.701-6.685 1.447-10.002 2.594-4.195 1.34-8.327 1.3-12.703 1.46-4.282.606-6.874 2.488-10.246 5.067-13.438 6.427-36.021 2.418-50.67 1.85a474 474 0 0 0-5.54-.168c-10.694-.266-19.739-1.238-29.703-5.23-6.791-2.632-12.978-2.57-20.212-2.077-9.28.624-15.108-.231-23.401-4.503-5.86-2.62-12.029-3.23-18.349-4.06-9.987-1.34-18.756-3.369-28-7.437l-2.47-1.083c-23.695-10.803-46.4-24.048-62.73-44.698-1.764-2.175-3.555-3.79-5.737-5.531-3.451-2.935-5.561-5.809-7.778-9.723-1.416-2.165-2.994-3.67-4.91-5.402C65.456 265.788 64.26 262.207 63 257l-.875-3.113C60.259 246.797 59.864 241.19 61 234l.09-2.441c.237-5.769.237-5.769 2.273-8.16 1.485-1.212 3.058-2.313 4.637-3.399 1.25-2.502 1.035-4.269 1.063-7.062.486-5.963 2.65-9.036 6.832-13.196 3.374-2.792 6.273-3.464 10.523-4.11 5.78-.972 8.864-1.778 12.582-6.632a748 748 0 0 0 2.875-4.437c4.93-7.572 11.41-12.166 19.887-15.192 2.632-.436 5.117-.262 7.772-.103 7.717.395 12.258-.28 18.255-5.64 2.771-2.04 4.8-2.382 8.211-2.628 2.113.41 2.113.41 4 1 3.949.596 7.55.93 11.012-1.292l2.031-1.622c5.444-3.8 10.582-4.345 17.082-4.899l6.258-.644 2.946-.272c2.263-.23 4.483-.537 6.726-.908C209 152 209 152 212 153c7.905.482 14.918.849 22-3 3.607-.98 6.29-1.01 9.938-.25M254 161v4c6.75 3 6.75 3 9 3-.374-2.711-.814-3.82-2.812-5.75C258 161 258 161 254 161m-74 5c-2.5 2.813-2.5 2.813-3.613 4.41-2.301 2.638-5.309 3.954-8.399 5.512C166 177 166 177 164 179c-.403 4.106-.16 6.634 1.5 10.438 1.437 3.413 1.587 4.215 1.25 7.625.25 3.937.25 3.937 1.55 5.636 1.82 1.602 3.68 2.96 5.7 4.301l1.813 1.328c2.952 1.977 4.589 2.787 8.125 2.11 1.01-.475 2.02-.95 3.062-1.438 5.33-2.467 10.151-3.397 16-3.812l2.013-.16c4.246-.234 7.737.301 11.87 1.458 3.937.956 7.964 1.178 11.992 1.514 6.175.558 12.16 1.281 18.223 2.613 3.943.802 6.816.84 10.535-.71C260 208 260 208 260.566 204.89l-.003-3.641c.24-7.758.24-7.758 2.625-11.375 1.812-2.875 1.812-2.875 1.437-5-4.138-4.774-7.782-7.096-13.668-9.055-3.185-1.335-5.382-3.544-7.957-5.82-3.577-1.192-6.842-1.146-10.562-1.125l-2.077-.012c-5.108.01-5.108.01-7.361 1.137-5.658.666-10.002-.539-15.312-2.437-8.84-3.13-18.69-5.603-27.688-1.563m100 4v3l3 1 2-1-2-4c-1 0-1 0-3 1m32.156 7.508c-2.528.577-4.942.68-7.531.804-6.564.512-12.942 2.683-17.418 7.696C286 188 286 188 286.187 190.562 287 193 287 193 289 196c-.249 3.153-.908 4.864-2.687 7.5-1.313 2.5-1.313 2.5-.75 5 2.83 4.923 4.992 7.695 10.437 9.5q3.33.609 6.688 1.063c6.112.837 6.112.837 8.312 1.937v5l-1.879-.395c-8.779-1.367-18.345.418-25.79 5.544-2.967 2.387-5.394 4.932-7.581 8.038-1.516 2.132-2.895 3.958-4.75 5.813h-3l-.937-2.875C266 239 266 239 265 237l1.719-.79c2.48-1.316 4.55-2.882 6.781-4.585 4.8-3.448 9.45-5.17 15.129-6.703L291 224l1-3c-8.763.424-15.265 3.341-22.437 8.313C267 231 267 231 264 231c-.293-6.055-.293-6.055 0-8l3-2v7h3v-11c-3.432.312-5.534.647-8.312 2.75-1.871 2.494-2.181 4.22-2.688 7.25-11.587-5.62-11.587-5.62-15.875-8.625-10.55-6.828-23.768-7.414-35.937-7.562l-2.25-.04c-3.802-.006-6.716.088-9.938 2.227l3.629.113c20.846.784 42.594 4.292 58.601 18.926 3.545 3.928 5.604 7.328 6.145 12.649-.34 3.002-.765 4.797-2.375 7.312 6.75 1.125 6.75 1.125 9 0l.887-1.852c1.3-2.51 2.74-3.743 4.926-5.523 2.543-2.132 4.711-4.149 6.687-6.812 5.228-5.882 12.748-8.315 20.5-8.813 3.115.32 6.141.85 9.219 1.426 5.37.815 10.733.989 16.158 1.144 4.59.17 8.27.825 12.623 2.43 4.875-.104 7.485-1.865 11.195-4.734 1.829-1.283 3.542-2.082 5.618-2.891C361 225 361 225 363 222c.238-2.375.238-2.375.313-5 .42-4.732.42-4.732 2.687-7 3.339-1.113 6.653-1.918 10.11-2.57C378 207 378 207 379 206c.5-2.125.5-2.125 0-5-1.614-1.902-3.368-3.546-5.203-5.234C372 194 372 194 370 190.813c-2.824-3.971-6.384-6.25-11.128-7.271a122 122 0 0 0-6.81-.605c-7.811-.536-13.798-2.538-21-5.625-6.447-2.397-12.385-1.693-18.906.196M138 183l1 3c7.508.37 7.508.37 10-1.5l1-1.5c-1.375-1.5-1.375-1.5-3-3-3.304 0-6.021 1.676-9 3m-20 9 1 2 6-2v-3c-2.895 0-4.597 1.482-7 3m18.887 5.023c-3.383.997-6.358.992-9.888.746-13.215-.868-26.911 3.5-36.999 12.231q-2.01 1.255-4.062 2.438C82.51 214.575 80.01 216.397 78 220c-.303 2.933-.301 5.12 0 8l.18 2.785c.8 7.254.8 7.254 3.593 9.887 2.033 1.224 4.102 2.276 6.227 3.328 2.471 2.137 3.92 3.86 5.563 6.688C95 253 95 253 98 254c5.992.617 11.012.237 16.625-2 7.048-2.81 12.261-2.8 19.438-.437 6.809 2.192 11.67 1.189 18.062-1.625 4.923-2.648 8.606-5.736 10.875-10.938.32-3.868-.825-7.34-1.812-11.062-.233-3.648.81-5.14 2.902-8.032 1.39-2.913 1.411-4.709.91-7.906-1.915-2.36-3.616-4.158-5.875-6.125l-1.777-1.595c-5.79-5.005-12.654-9.823-20.461-7.257M390 215c0 4 0 4 1.688 5.813 2.891 1.485 4.264 1.118 7.312.187v-3zm-220 2c-.812 1.688-.812 1.688-1 4 1.608 1.86 3.179 3.373 5 5q1.599 1.65 3.188 3.313c15.287 15.221 15.287 15.221 25.312 15.937l2.5-.25 1-2-2.238-.777c-8.28-3.125-14.2-7.364-20.762-13.223l-2.687-2.219-2.5-2.094c-.737-.614-1.473-1.23-2.231-1.863C174 221 174 221 174 217zm46 0 4 3-1-3zm11 2 1 2 2-1zm-11.227 2.426-3.625.416-3.773.47-3.797.436c-9.265 1.096-9.265 1.096-11.578 2.252l1 2 2.113-.488c13.969-2.476 30.668-.382 43.887 4.488l3-1c-5.633-3.416-10.575-5.584-17-7l-1.841-1.077c-2.993-1.28-5.168-.878-8.386-.497M225 231l2 4v-3zm135.625 6.813c-3.023 1.475-5.886 2.597-9.125 3.5-5.266 1.693-9.664 4.713-13.5 8.687-2.117 4.275-2.957 8.292-2 13 2.25 2.438 2.25 2.438 5 5 1.047 2.164 1.047 2.164 2 4.563 1.653 4.025 3.338 5.965 7 8.437 2.543 2.312 4.024 4.045 5.625 7.125 2.94 3.56 4.728 4.155 9.2 4.844 4.77.047 9.257-.93 13.923-1.85 10.226-1.97 16.286-.376 25.502 4.502 5.012 2.513 8.905 2.807 14.25 1.442 5.187-1.943 8.743-5.274 11.5-10.063.125-3.312.125-3.312-1-6l-1.625-1.625L426 278c.133-1.937.133-1.937 1-4 2.031-1.273 2.031-1.273 4.5-2.375 4.368-2.291 4.368-2.291 5.563-5.312L437 263l.207-2.465c.324-5.133.324-5.133-.207-7.535-3.72-3.987-8.039-5.15-13.187-6.375l-2.466-.615A1055 1055 0 0 0 413 244l-3.188-.776c-40.512-9.849-40.512-9.849-49.187-5.411M424 237v3h3l-1-3zm-251 1-2 3 5 1v-3zm72-11c-.36 4.998.656 7.98 3 12.375l1.688 3.21L251 245l-2.973-.656c-17.874-3.772-34.129-3.641-50.09 6.031-8.375 5.856-12.784 10.433-14.937 20.625l-3.375-1.875c-9.002-4.383-16.537-4.478-26.21-2.316-4.153 1.449-6.02 3.208-8.74 6.546-3.159 3.101-7.477 3.663-11.675 4.645-4.681 1.463-4.681 1.463-6.062 3.79-.946 2.229-1.477 4.273-1.938 6.647-.659 3.382-1.656 6.388-3 9.563 5.343 6.687 10.566 9.384 18.73 11.797 5.076 1.868 8.258 4.965 11.645 9.078C157.493 324.81 162.9 330.732 171 332c2.72.042 5.353.017 8.063-.125l2.038-.102c3.503-.274 6.114-.87 9.325-2.328 4.459-1.803 7.965-1.68 12.699-1.445 9.517.469 9.517.469 13.875-3 1.987-2.263 3.654-4.308 5-7a105 105 0 0 0-.562-5.125c-.398-3.686-.499-6.424.687-9.937 1.57-4.966-.336-9.244-2.125-13.938l2.133.027c13.47-.404 25.596-7.452 34.828-17.07A179 179 0 0 0 262 266l2.438-2.75C266 261 266 261 266 257l-4-1-.25-1.75c-.75-2.25-.75-2.25-2.547-3.895-2.9-3.1-4.42-6.472-6.203-10.292-2.263-4.823-4.452-9.016-8-13.063m28 25c-.82 2.164-.82 2.164-1 4l2.195.34c7.742 1.58 7.742 1.58 10.696 4.582 1.51 2.304 2.824 4.642 4.109 7.078a375 375 0 0 0 2.875 4.563Q292.94 274.279 294 276c1.392-4.176-.046-5.79-1.937-9.687l-1.715-3.575L289 260c8.893 2.782 14.48 5.462 20 13a100 100 0 0 0 3 3c-1.112-3.495-2.316-6.745-4-10 6.738 3.22 13.08 6.426 19 11-1.751-5.99-5.825-8-10.969-10.945-11.513-6.12-24.469-9.756-37.031-13.055q2.343-.722 4.688-1.437l2.636-.81C296.595 247.86 305.32 248.298 315 253c7.024 4.294 11.45 9.458 15.063 16.875l1.542 3.164A210 210 0 0 1 336 283l-2.535-.105c-6.697-.156-12.532.16-19.09 1.605-11.999 2.611-21.46 1.935-32.687-2.937-4.234-4.037-5.723-9.145-7.688-14.563a698 698 0 0 0-2-5h-3c.033 7.798 1.696 13.184 7 19 8.596 7.513 18.077 9.525 29.266 9.305 5.215-.426 10.173-1.453 15.261-2.649 5.113-.966 9.232-1.028 14.223.469L338 289l3-2c-1.315-11.928-8.898-26.197-18.156-33.762C308.277 242.937 288.329 242.126 273 252m-199-2-1 1c.238 7.257.238 7.257 3.563 10.5L79 263l4-2c-.446-5.05-2.558-7.476-6-11zm74 7v2l1.74-.016q3.943-.029 7.885-.046l2.738-.026c4.666-.017 9.047.12 13.637 1.088l-1-3c-7.633-3.223-17.414-3.372-25 0m-46.05 16.21c-1.609 3.032-1.451 5.468-.95 8.79 1.125 1.938 1.125 1.938 3 3 3.499.521 5.29.441 8.313-1.437 2.414-3.667 3.035-7.193 2.687-11.563-1.994-2.53-3.347-2.85-6.437-3.562-3.196.7-4.669 2.184-6.614 4.773M264 274l-1.172 1.758q-1.615 2.423-3.234 4.844a325 325 0 0 0-2.813 4.296c-2.574 3.999-2.574 3.999-4.781 5.102v-4h-2l-6 13 3 1c7.525-3.763 13.45-11.328 17-18.812 1.018-3.245.962-4.107 0-7.188m87 22c.373 2.726.792 3.808 2.848 5.703l2.214 1.547 2.223 1.578L360 306l2-1c-1.483-4.45-5.083-6.746-9-9zm-50.676 4.125c-4.972 1.309-9.495 1.633-14.199-.625-4.38-1.778-8.442-2.322-13.125-1.5-3.336 2.058-4.826 3.74-7 7-2.758.738-2.758.738-6.125 1.313-7.976 1.676-13.288 4.912-17.875 11.687-1.213 3.638-1.395 6.177-1 10 1.688 2.875 1.688 2.875 5 5 3.304.457 6.51.625 9.844.664 3.577.38 5.361 1.087 8.156 3.336 1.188 2.34 1.188 2.34 2 4.938 1.4 4.464 2.947 6.615 7 9.062 2.77.497 4.98.713 7.75.688l2.31-.003c10.469-.355 20.451-3.78 30.363-6.929 4.175-1.225 7.81-1.892 12.159-1.608 15.784.754 15.784.754 20.043-2.836 1.637-1.91 1.637-1.91 3.375-4.312a464 464 0 0 1 2.645-3.184c8.13-9.942 8.13-9.942 8.355-14.816-3.264-5.712-7.131-7.087-13.234-9.078-6.698-2.233-12.593-5.948-18.567-9.652-8.688-5.016-18.979-2.12-27.875.855M422 303l2 2v-2zm-47 3v4l4 2 2-4c-3-2-3-2-6-2m41 0-2 3 4 2 2-4zm-23 7v4l4-1-2-3zm-16.25 11-1.75 2 2 2c2.164-.242 2.164-.242 4.625-.875l2.477-.617L386 326v-2c-3.754-2.503-5.74-3.12-9.25 0M222 329c-.479 4.117-.322 5.58 2.25 8.938C227 340 227 340 229.313 339.813c1.687-.813 1.687-.813 2.5-3C232 334 232 334 229.875 331.188 227 329 227 329 224.188 328.688z"/><path d="M252 249c-2.215 2.704-3.39 3.894-6.89 4.504l-3.36.059c-6.877.294-13.317 1.358-20.059 2.718-3.543.69-7.118 1.209-10.691 1.719h15c-9.596 7.676-19.684 15.076-31 20 10.794-1.607 20.023-9.21 28.32-15.863 6.573-5.241 14.256-6.997 22.68-6.137q1.53 1.47 3 3 3.491.562 7 1l3 2c-2.584 8.318-11.52 14.788-18.932 18.953-7.162 3.626-14.541 4.672-22.443 5.485-8.624.968-17.027 2.286-25.472 4.292-4.51 1.046-8.52 1.447-13.153 1.27-2.065-7.149.707-11.99 3.875-18.437l1.375-3.026c6.036-12.542 15.737-18.773 28.504-23.572 13.462-4.213 25.985-1.299 39.246 2.035m-9 13c-1.312 1.938-1.312 1.938-3 5l-1.305 2.336Q236.84 272.663 235 276c3.805-.742 3.805-.742 5.563-3.062 1.75-3.578 3.101-7.185 4.437-10.938zm-15 7-1 5h2l1-4z"/><path d="M253 253c2.688.313 2.688.313 5 1l1 3-9-1z"/></svg>