<?xml version="1.0" encoding="UTF-8"?>
<!-- Generator: visioncortex VTracer 0.6.12 -->
<svg version="1.1" xmlns="http://www.w3.org/2000/svg" width="512" height="512">
  <metadata>
                <![CDATA[
            {
  "prompt": {
    "4": {
      "inputs": {
        "vae_name": "ae.safetensors"
      },
      "class_type": "VAELoader",
      "_meta": {
        "title": "Load VAE"
      }
    },
    "5": {
      "inputs": {
        "clip_name": "qwen3_4b_fp8_scaled.safetensors",
        "type": "lumina2",
        "device": "default"
      },
      "class_type": "CLIPLoader",
      "_meta": {
        "title": "Load CLIP"
      }
    },
    "6": {
      "inputs": {
        "ckpt_name": "zEpicrealism_turboV1Fp8.safetensors"
      },
      "class_type": "CheckpointLoaderSimple",
      "_meta": {
        "title": "Load Checkpoint"
      }
    },
    "7": {
      "inputs": {
        "shift": 6.0,
        "model": [
          "6",
          0
        ]
      },
      "class_type": "ModelSamplingAuraFlow",
      "_meta": {
        "title": "ModelSamplingAuraFlow"
      }
    },
    "8": {
      "inputs": {
        "PowerLoraLoaderHeaderWidget": {
          "type": "PowerLoraLoaderHeaderWidget"
        },
        "lora_1": {
          "on": true,
          "lora": "MinimalistVectorArtZ.safetensors",
          "strength": 0.4
        },
        "lora_2": {
          "on": false,
          "lora": "None",
          "strength": 0.75
        },
        "\u2795 Add Lora": "",
        "model": [
          "7",
          0
        ],
        "clip": [
          "5",
          0
        ]
      },
      "class_type": "Power Lora Loader (rgthree)",
      "_meta": {
        "title": "Power Lora Loader (rgthree)"
      }
    },
    "9": {
      "inputs": {
        "text": "A bold, heavy solid black icon of a singular, whole Margherita pizza. 3/4 perspective. High-contrast simplified woodblock aesthetic. The entire raised crust, the base, and all fused toppings are a single, dense contiguous dark mass. Thick, bold white negative space is used sparingly and only to create: 1) a chunky white 'void' arc that defines the inner rim of the raised outer crust, and 2) four or five large, massive, chunky, irregular white 'negative space circles' breaking the black center mass to represent fused mozzarella cheese rounds. The central cluster of basil leaves remains a substantial contiguous dark mass, defined by only two or three extremely thin, subtle white 'vein' lines. No small pepperonis or dots. Minimalist, heavy visual weight, no gray. Isolated on white. Optimized for a clean, single-boolean SVG silhouette. Black and white only. White background.",
        "clip": [
          "8",
          1
        ]
      },
      "class_type": "CLIPTextEncode",
      "_meta": {
        "title": "Positive Prompt"
      }
    },
    "10": {
      "inputs": {
        "text": "blurry, bad, shadow, color, grey, text, watermark, logo,",
        "clip": [
          "8",
          1
        ]
      },
      "class_type": "CLIPTextEncode",
      "_meta": {
        "title": "Negative Prompt"
      }
    },
    "11": {
      "inputs": {
        "seed": 825136364286257,
        "steps": 9,
        "cfg": 0.9,
        "sampler_name": "euler",
        "scheduler": "beta",
        "denoise": 0.95,
        "preview_method": "auto",
        "vae_decode": "true",
        "model": [
          "37",
          0
        ],
        "positive": [
          "9",
          0
        ],
        "negative": [
          "10",
          0
        ],
        "latent_image": [
          "27",
          0
        ],
        "optional_vae": [
          "4",
          0
        ]
      },
      "class_type": "KSampler (Efficient)",
      "_meta": {
        "title": "KSampler (Efficient)"
      }
    },
    "13": {
      "inputs": {
        "filename_prefix": [
          "35",
          0
        ],
        "images": [
          "11",
          5
        ]
      },
      "class_type": "SaveImage",
      "_meta": {
        "title": "Save Image"
      }
    },
    "27": {
      "inputs": {
        "dimensions": "512 x 512 (1:1)",
        "invert": false,
        "batch_size": 1
      },
      "class_type": "EmptyLatentImagePresets",
      "_meta": {
        "title": "Empty Latent Image Presets"
      }
    },
    "32": {
      "inputs": {
        "filename_prefix": [
          "35",
          0
        ],
        "svg": [
          "34",
          0
        ]
      },
      "class_type": "SaveSVGNode",
      "_meta": {
        "title": "SaveSVGNode"
      }
    },
    "33": {
      "inputs": {
        "mode": "spline",
        "filter_speckle": 4,
        "corner_threshold": 60,
        "length_threshold": 4.0,
        "splice_threshold": 45,
        "image": [
          "11",
          5
        ]
      },
      "class_type": "TS_ImageToSVGStringBW_Vtracer",
      "_meta": {
        "title": "Image to SVG String BW_Vtracer"
      }
    },
    "34": {
      "inputs": {
        "SVG_String": [
          "33",
          0
        ]
      },
      "class_type": "TS_SVGStringToSVGBytesIO",
      "_meta": {
        "title": "SVG String to SVG BytesIO"
      }
    },
    "35": {
      "inputs": {
        "value": "Icons/pizza-"
      },
      "class_type": "PrimitiveString",
      "_meta": {
        "title": "String"
      }
    },
    "36": {
      "inputs": {
        "name": "Z-Image-Turbo-Fun-Controlnet-Union-2.1.safetensors"
      },
      "class_type": "ModelPatchLoader",
      "_meta": {
        "title": "ModelPatchLoader"
      }
    },
    "37": {
      "inputs": {
        "strength": 0.35,
        "model": [
          "8",
          0
        ],
        "model_patch": [
          "36",
          0
        ],
        "vae": [
          "4",
          0
        ],
        "image": [
          "38",
          0
        ]
      },
      "class_type": "ZImageFunControlnet",
      "_meta": {
        "title": "ZImageFunControlnet"
      }
    },
    "38": {
      "inputs": {
        "image": "background-removed (1).png"
      },
      "class_type": "LoadImage",
      "_meta": {
        "title": "Reference"
      },
      "is_changed": [
        "ab2844be05681bdfcf912271a5ead01be04167cccee960e3c92d467745900dac"
      ]
    }
  },
  "workflow": {
    "id": "b863a6d5-b1c1-49ed-82de-40ff658289d1",
    "revision": 0,
    "last_node_id": 38,
    "last_link_id": 50,
    "nodes": [
      {
        "id": 4,
        "type": "VAELoader",
        "pos": [
          -6219.529416223988,
          -970.9071955967029
        ],
        "size": [
          373.8333435058594,
          123.80000305175781
        ],
        "flags": {},
        "order": 0,
        "mode": 0,
        "inputs": [],
        "outputs": [
          {
            "name": "VAE",
            "type": "VAE",
            "links": [
              13,
              48
            ]
          }
        ],
        "properties": {
          "cnr_id": "comfy-core",
          "ver": "0.9.2",
          "Node name for S&R": "VAELoader"
        },
        "widgets_values": [
          "ae.safetensors"
        ]
      },
      {
        "id": 5,
        "type": "CLIPLoader",
        "pos": [
          -6634.625060962726,
          -1114.719863560585
        ],
        "size": [
          366.1666564941406,
          542.9833374023438
        ],
        "flags": {},
        "order": 1,
        "mode": 0,
        "inputs": [],
        "outputs": [
          {
            "name": "CLIP",
            "type": "CLIP",
            "links": [
              6
            ]
          }
        ],
        "properties": {
          "cnr_id": "comfy-core",
          "ver": "0.9.2",
          "Node name for S&R": "CLIPLoader"
        },
        "widgets_values": [
          "qwen3_4b_fp8_scaled.safetensors",
          "lumina2",
          "default"
        ]
      },
      {
        "id": 6,
        "type": "CheckpointLoaderSimple",
        "pos": [
          -7142.718609403837,
          -1274.2970319785854
        ],
        "size": [
          456,
          154.6666717529297
        ],
        "flags": {},
        "order": 2,
        "mode": 0,
        "inputs": [],
        "outputs": [
          {
            "name": "MODEL",
            "type": "MODEL",
            "links": [
              4
            ]
          },
          {
            "name": "CLIP",
            "type": "CLIP",
            "links": []
          },
          {
            "name": "VAE",
            "type": "VAE",
            "links": []
          }
        ],
        "properties": {
          "cnr_id": "comfy-core",
          "ver": "0.9.2",
          "Node name for S&R": "CheckpointLoaderSimple"
        },
        "widgets_values": [
          "zEpicrealism_turboV1Fp8.safetensors"
        ],
        "color": "#453f4f",
        "bgcolor": "#312b3b"
      },
      {
        "id": 7,
        "type": "ModelSamplingAuraFlow",
        "pos": [
          -6599.990108813057,
          -1269.9450961666446
        ],
        "size": [
          270,
          104
        ],
        "flags": {},
        "order": 7,
        "mode": 0,
        "inputs": [
          {
            "name": "model",
            "type": "MODEL",
            "link": 4
          }
        ],
        "outputs": [
          {
            "name": "MODEL",
            "type": "MODEL",
            "links": [
              5
            ]
          }
        ],
        "properties": {
          "cnr_id": "comfy-core",
          "ver": "0.10.0",
          "Node name for S&R": "ModelSamplingAuraFlow"
        },
        "widgets_values": [
          6
        ]
      },
      {
        "id": 8,
        "type": "Power Lora Loader (rgthree)",
        "pos": [
          -6200.008875558856,
          -1269.9450961666446
        ],
        "size": [
          340.48333740234375,
          232
        ],
        "flags": {},
        "order": 8,
        "mode": 0,
        "inputs": [
          {
            "dir": 3,
            "name": "model",
            "type": "MODEL",
            "link": 5
          },
          {
            "dir": 3,
            "name": "clip",
            "type": "CLIP",
            "link": 6
          }
        ],
        "outputs": [
          {
            "dir": 4,
            "name": "MODEL",
            "shape": 3,
            "type": "MODEL",
            "links": [
              47
            ]
          },
          {
            "dir": 4,
            "name": "CLIP",
            "shape": 3,
            "type": "CLIP",
            "links": [
              7,
              8
            ]
          }
        ],
        "properties": {
          "cnr_id": "rgthree-comfy",
          "ver": "8ff50e4521881eca1fe26aec9615fc9362474931",
          "Show Strengths": "Single Strength"
        },
        "widgets_values": [
          {},
          {
            "type": "PowerLoraLoaderHeaderWidget"
          },
          {
            "on": true,
            "lora": "MinimalistVectorArtZ.safetensors",
            "strength": 0.4,
            "strengthTwo": null
          },
          {
            "on": false,
            "lora": "None",
            "strength": 0.75,
            "strengthTwo": null
          },
          {},
          ""
        ]
      },
      {
        "id": 9,
        "type": "CLIPTextEncode",
        "pos": [
          -5665.298067285652,
          -968.8847480145092
        ],
        "size": [
          495.1833190917969,
          389.6333312988281
        ],
        "flags": {},
        "order": 10,
        "mode": 0,
        "inputs": [
          {
            "name": "clip",
            "type": "CLIP",
            "link": 7
          }
        ],
        "outputs": [
          {
            "name": "CONDITIONING",
            "type": "CONDITIONING",
            "links": [
              9
            ]
          }
        ],
        "title": "Positive Prompt",
        "properties": {
          "cnr_id": "comfy-core",
          "ver": "0.9.2",
          "Node name for S&R": "CLIPTextEncode"
        },
        "widgets_values": [
          "A bold, heavy solid black icon of a singular, whole Margherita pizza. 3/4 perspective. High-contrast simplified woodblock aesthetic. The entire raised crust, the base, and all fused toppings are a single, dense contiguous dark mass. Thick, bold white negative space is used sparingly and only to create: 1) a chunky white 'void' arc that defines the inner rim of the raised outer crust, and 2) four or five large, massive, chunky, irregular white 'negative space circles' breaking the black center mass to represent fused mozzarella cheese rounds. The central cluster of basil leaves remains a substantial contiguous dark mass, defined by only two or three extremely thin, subtle white 'vein' lines. No small pepperonis or dots. Minimalist, heavy visual weight, no gray. Isolated on white. Optimized for a clean, single-boolean SVG silhouette. Black and white only. White background."
        ],
        "color": "#232",
        "bgcolor": "#353"
      },
      {
        "id": 10,
        "type": "CLIPTextEncode",
        "pos": [
          -5666.5260314864745,
          -512.2921596736592
        ],
        "size": [
          470,
          142
        ],
        "flags": {},
        "order": 11,
        "mode": 0,
        "inputs": [
          {
            "name": "clip",
            "type": "CLIP",
            "link": 8
          }
        ],
        "outputs": [
          {
            "name": "CONDITIONING",
            "type": "CONDITIONING",
            "links": [
              10
            ]
          }
        ],
        "title": "Negative Prompt",
        "properties": {
          "cnr_id": "comfy-core",
          "ver": "0.9.2",
          "Node name for S&R": "CLIPTextEncode"
        },
        "widgets_values": [
          "blurry, bad, shadow, color, grey, text, watermark, logo,"
        ],
        "color": "#322",
        "bgcolor": "#533"
      },
      {
        "id": 11,
        "type": "KSampler (Efficient)",
        "pos": [
          -4910.913678672515,
          -1342.5015025857194
        ],
        "size": [
          400.1000061035156,
          966.6666870117188
        ],
        "flags": {},
        "order": 12,
        "mode": 0,
        "inputs": [
          {
            "name": "model",
            "type": "MODEL",
            "link": 46
          },
          {
            "name": "positive",
            "type": "CONDITIONING",
            "link": 9
          },
          {
            "name": "negative",
            "type": "CONDITIONING",
            "link": 10
          },
          {
            "name": "latent_image",
            "type": "LATENT",
            "link": 37
          },
          {
            "name": "optional_vae",
            "shape": 7,
            "type": "VAE",
            "link": 13
          },
          {
            "name": "script",
            "shape": 7,
            "type": "SCRIPT",
            "link": null
          }
        ],
        "outputs": [
          {
            "name": "MODEL",
            "type": "MODEL",
            "links": null
          },
          {
            "name": "CONDITIONING+",
            "type": "CONDITIONING",
            "links": null
          },
          {
            "name": "CONDITIONING-",
            "type": "CONDITIONING",
            "links": null
          },
          {
            "name": "LATENT",
            "type": "LATENT",
            "links": null
          },
          {
            "name": "VAE",
            "type": "VAE",
            "links": null
          },
          {
            "name": "IMAGE",
            "type": "IMAGE",
            "links": [
              14,
              39
            ]
          }
        ],
        "properties": {
          "cnr_id": "efficiency-nodes-comfyui",
          "ver": "1.0.8",
          "Node name for S&R": "KSampler (Efficient)"
        },
        "widgets_values": [
          -1,
          null,
          9,
          0.9,
          "euler",
          "beta",
          0.95,
          "auto",
          "true"
        ],
        "color": "#223333",
        "bgcolor": "#335555",
        "shape": "box"
      },
      {
        "id": 13,
        "type": "SaveImage",
        "pos": [
          -4410.458584695532,
          -1352.0179936878044
        ],
        "size": [
          461.7833251953125,
          344
        ],
        "flags": {},
        "order": 13,
        "mode": 0,
        "inputs": [
          {
            "name": "images",
            "type": "IMAGE",
            "link": 14
          },
          {
            "name": "filename_prefix",
            "type": "STRING",
            "widget": {
              "name": "filename_prefix"
            },
            "link": 43
          }
        ],
        "outputs": [],
        "properties": {
          "cnr_id": "comfy-core",
          "ver": "0.17.2"
        },
        "widgets_values": [
          "Icons/apps-"
        ]
      },
      {
        "id": 27,
        "type": "EmptyLatentImagePresets",
        "pos": [
          -5667.013573414988,
          -1285.095614520352
        ],
        "size": [
          285.0833435058594,
          214.6666717529297
        ],
        "flags": {},
        "order": 3,
        "mode": 0,
        "inputs": [],
        "outputs": [
          {
            "name": "Latent",
            "type": "LATENT",
            "links": [
              37
            ]
          },
          {
            "name": "Width",
            "type": "INT",
            "links": null
          },
          {
            "name": "Height",
            "type": "INT",
            "links": null
          }
        ],
        "properties": {
          "cnr_id": "comfyui-kjnodes",
          "ver": "c88ac88a8f8a6a090a0d5d607156090cb2911503",
          "Node name for S&R": "EmptyLatentImagePresets"
        },
        "widgets_values": [
          "512 x 512 (1:1)",
          false,
          1
        ]
      },
      {
        "id": 32,
        "type": "SaveSVGNode",
        "pos": [
          -3813.087098958786,
          -782.3652587471762
        ],
        "size": [
          270,
          344
        ],
        "flags": {},
        "order": 16,
        "mode": 0,
        "inputs": [
          {
            "name": "svg",
            "type": "SVG",
            "link": 42
          },
          {
            "name": "filename_prefix",
            "type": "STRING",
            "widget": {
              "name": "filename_prefix"
            },
            "link": 44
          }
        ],
        "outputs": [],
        "properties": {
          "cnr_id": "comfy-core",
          "ver": "0.17.2",
          "Node name for S&R": "SaveSVGNode"
        },
        "widgets_values": [
          "Icons/apps-"
        ]
      },
      {
        "id": 33,
        "type": "TS_ImageToSVGStringBW_Vtracer",
        "pos": [
          -4400.364267959555,
          -795.4572061170688
        ],
        "size": [
          314.01666259765625,
          234.66665649414062
        ],
        "flags": {},
        "order": 14,
        "mode": 0,
        "inputs": [
          {
            "name": "image",
            "type": "IMAGE",
            "link": 39
          }
        ],
        "outputs": [
          {
            "name": "STRING",
            "shape": 6,
            "type": "STRING",
            "links": [
              41
            ]
          }
        ],
        "properties": {
          "cnr_id": "comfyui-tosvg",
          "ver": "1.0.1",
          "Node name for S&R": "TS_ImageToSVGStringBW_Vtracer"
        },
        "widgets_values": [
          "spline",
          4,
          60,
          4,
          45
        ]
      },
      {
        "id": 34,
        "type": "TS_SVGStringToSVGBytesIO",
        "pos": [
          -4063.4410199893787,
          -778.4467045599912
        ],
        "size": [
          225,
          72
        ],
        "flags": {},
        "order": 15,
        "mode": 0,
        "inputs": [
          {
            "name": "SVG_String",
            "type": "STRING",
            "link": 41
          }
        ],
        "outputs": [
          {
            "name": "SVG",
            "type": "SVG",
            "links": [
              42
            ]
          }
        ],
        "properties": {
          "cnr_id": "comfyui-tosvg",
          "ver": "1.0.1",
          "Node name for S&R": "TS_SVGStringToSVGBytesIO"
        },
        "widgets_values": []
      },
      {
        "id": 35,
        "type": "PrimitiveString",
        "pos": [
          -4406.648318050964,
          -1528.2986560802276
        ],
        "size": [
          270,
          108
        ],
        "flags": {},
        "order": 4,
        "mode": 0,
        "inputs": [],
        "outputs": [
          {
            "name": "STRING",
            "type": "STRING",
            "links": [
              43,
              44
            ]
          }
        ],
        "properties": {
          "cnr_id": "comfy-core",
          "ver": "0.17.2",
          "Node name for S&R": "PrimitiveString"
        },
        "widgets_values": [
          "Icons/pizza-"
        ]
      },
      {
        "id": 36,
        "type": "ModelPatchLoader",
        "pos": [
          -7059.345533943512,
          -330.0523924799236
        ],
        "size": [
          427.6000061035156,
          106.66667175292969
        ],
        "flags": {},
        "order": 5,
        "mode": 0,
        "inputs": [],
        "outputs": [
          {
            "name": "MODEL_PATCH",
            "type": "MODEL_PATCH",
            "links": [
              45
            ]
          }
        ],
        "properties": {
          "cnr_id": "comfy-core",
          "ver": "0.16.3",
          "Node name for S&R": "ModelPatchLoader"
        },
        "widgets_values": [
          "Z-Image-Turbo-Fun-Controlnet-Union-2.1.safetensors"
        ]
      },
      {
        "id": 37,
        "type": "ZImageFunControlnet",
        "pos": [
          -6611.258196381201,
          -335.79477340395954
        ],
        "size": [
          361.6000061035156,
          224
        ],
        "flags": {},
        "order": 9,
        "mode": 0,
        "inputs": [
          {
            "name": "model",
            "type": "MODEL",
            "link": 47
          },
          {
            "name": "model_patch",
            "type": "MODEL_PATCH",
            "link": 45
          },
          {
            "name": "vae",
            "type": "VAE",
            "link": 48
          },
          {
            "name": "image",
            "shape": 7,
            "type": "IMAGE",
            "link": 50
          },
          {
            "name": "inpaint_image",
            "shape": 7,
            "type": "IMAGE",
            "link": null
          },
          {
            "name": "mask",
            "shape": 7,
            "type": "MASK",
            "link": null
          }
        ],
        "outputs": [
          {
            "name": "MODEL",
            "type": "MODEL",
            "links": [
              46
            ]
          }
        ],
        "properties": {
          "cnr_id": "comfy-core",
          "ver": "0.16.3",
          "Node name for S&R": "ZImageFunControlnet"
        },
        "widgets_values": [
          0.35
        ]
      },
      {
        "id": 38,
        "type": "LoadImage",
        "pos": [
          -6229.443165549208,
          -560.5968682946624
        ],
        "size": [
          458.8333435058594,
          788.2999877929688
        ],
        "flags": {},
        "order": 6,
        "mode": 0,
        "inputs": [],
        "outputs": [
          {
            "name": "IMAGE",
            "type": "IMAGE",
            "links": [
              50
            ]
          },
          {
            "name": "MASK",
            "type": "MASK",
            "links": null
          }
        ],
        "title": "Reference",
        "properties": {
          "cnr_id": "comfy-core",
          "ver": "0.9.2",
          "Node name for S&R": "LoadImage"
        },
        "widgets_values": [
          "background-removed (1).png",
          "image"
        ],
        "color": "#322",
        "bgcolor": "#533"
      }
    ],
    "links": [
      [
        4,
        6,
        0,
        7,
        0,
        "MODEL"
      ],
      [
        5,
        7,
        0,
        8,
        0,
        "MODEL"
      ],
      [
        6,
        5,
        0,
        8,
        1,
        "CLIP"
      ],
      [
        7,
        8,
        1,
        9,
        0,
        "CLIP"
      ],
      [
        8,
        8,
        1,
        10,
        0,
        "CLIP"
      ],
      [
        9,
        9,
        0,
        11,
        1,
        "CONDITIONING"
      ],
      [
        10,
        10,
        0,
        11,
        2,
        "CONDITIONING"
      ],
      [
        13,
        4,
        0,
        11,
        4,
        "VAE"
      ],
      [
        14,
        11,
        5,
        13,
        0,
        "IMAGE"
      ],
      [
        37,
        27,
        0,
        11,
        3,
        "LATENT"
      ],
      [
        39,
        11,
        5,
        33,
        0,
        "IMAGE"
      ],
      [
        41,
        33,
        0,
        34,
        0,
        "STRING"
      ],
      [
        42,
        34,
        0,
        32,
        0,
        "SVG"
      ],
      [
        43,
        35,
        0,
        13,
        1,
        "STRING"
      ],
      [
        44,
        35,
        0,
        32,
        1,
        "STRING"
      ],
      [
        45,
        36,
        0,
        37,
        1,
        "MODEL_PATCH"
      ],
      [
        46,
        37,
        0,
        11,
        0,
        "MODEL"
      ],
      [
        47,
        8,
        0,
        37,
        0,
        "MODEL"
      ],
      [
        48,
        4,
        0,
        37,
        2,
        "VAE"
      ],
      [
        50,
        38,
        0,
        37,
        3,
        "IMAGE"
      ]
    ],
    "groups": [],
    "config": {},
    "extra": {
      "ds": {
        "scale": 0.8390545288824767,
        "offset": [
          5636.874794911169,
          1133.790652348446
        ]
      },
      "workflowRendererVersion": "Vue",
      "frontendVersion": "1.41.20",
      "VHS_latentpreview": false,
      "VHS_latentpreviewrate": 0,
      "VHS_MetadataImage": true,
      "VHS_KeepIntermediate": true
    },
    "version": 0.4
  }
}
                ]]>
            </metadata>
            
<path d="M0 0 C6.751744346919111 -0.2576243030923564 12.927122719036618 1.3992837524682358 19.42578125 3.085693359375 C33.36749784578791 6.628664970686671 45.14985009867678 8.235255166303716 59.46484375 5.585693359375 C68.49888146868864 4.40090152741584 76.44382134740476 5.886196266836748 85.30078125 7.835693359375 C87.25343876577386 8.249581188136219 89.2060985033238 8.663459355166594 91.15896606445313 9.07635498046875 C95.45116621396107 9.98675946231694 99.73954317120513 10.91430947499957 104.0244140625 11.858642578125 C118.69461297715742 15.086086339349634 133.2800026449748 17.203983032931774 148.22119140625 18.629150390625 C161.66991898070978 19.95986659272944 174.42261565792518 22.998301221462214 187.17578125 27.523193359375 C187.60048706054687 27.672281494140634 187.60048706054687 27.672281494140634 189.749755859375 28.4267578125 C195.10509876095313 30.368397854981595 199.83855521030972 32.645147452306475 204.5859375 35.823974609375 C207.09164101249922 37.32209364065761 209.52147680984757 38.14044617935431 212.30078125 39.023193359375 C217.5774563972679 40.801847903397885 221.08135959539192 43.550565664655466 225.27734375 47.144287109375 C227.81474131094046 49.159279290121844 230.29890734080345 50.60604044619225 233.17578125 52.085693359375 C239.59331752584518 55.43004324960418 245.12884455167483 59.6798506553894 250.80078125 64.148193359375 C251.22488281250003 64.469169921875 251.22488281250003 64.469169921875 253.37109375 66.093505859375 C269.6972032596018 78.8248756604406 282.992878636627 94.2409424864909 294.80078125 111.148193359375 C295.306416015625 111.86732910156252 295.81205078125 112.58646484374998 296.3330078125 113.327392578125 C306.76264337959606 128.2525607172452 316.3998583440341 145.1688862075914 313.80078125 164.148193359375 C313.468203125 164.78756835937497 313.135625 165.426943359375 312.79296875 166.085693359375 C311.4380467471947 168.90222413686 311.59426139796625 171.28211608845936 311.55078125 174.398193359375 C311.02165036003987 183.0615906424514 308.3002888979471 190.26680755910007 304.80078125 198.148193359375 C304.49720703125 198.83768066406253 304.1936328125 199.52716796875 303.880859375 200.237548828125 C299.6732088093264 209.617285458153 294.8651904044186 217.57998323514835 287.80078125 225.148193359375 C287.3575048828125 225.627080078125 286.914228515625 226.105966796875 286.45751953125 226.599365234375 C279.3742944744131 234.18307573727452 271.69152911128145 240.7647748923374 263.38037109375 246.965576171875 C262.0036289365748 247.99632408676786 260.6446922885296 249.05076981140945 259.2890625 250.109130859375 C215.69259781958806 282.8249838113989 149.26319634239394 285.5305186125318 96.9716796875 285.4638671875 C93.03145942676224 285.4592352671308 89.09154776202183 285.46616970685983 85.1513671875 285.484375 C63.51942560764928 285.58329207358275 42.21445793938409 285.6201024506681 20.80078125 282.148193359375 C19.985449218750006 282.02115020751955 19.17011718750001 281.89410705566405 18.330078125 281.7632141113281 C13.254557134738121 280.96235808659037 8.213591685781182 280.03260905835555 3.17578125 279.023193359375 C2.8043650817871253 278.95015991210937 2.8043650817871253 278.95015991210937 0.924774169921875 278.58056640625 C-15.386363661901925 275.3534073021498 -31.30794921819475 271.01457049143625 -47.19921875 266.148193359375 C-48.1890576171875 265.849453125 -49.178896484375 265.550712890625 -50.19873046875 265.242919921875 C-88.00602310338965 253.72261777507106 -125.44788315885249 235.72600504884304 -154.19921875 208.148193359375 C-155.0396875 207.35928710937503 -155.88015625 206.570380859375 -156.74609375 205.757568359375 C-179.45766512468677 183.87187230740415 -193.5301987837298 151.3595499340608 -194.48486328125 119.959228515625 C-194.793531066585 96.270379026553 -180.355461032886 77.85760257805475 -164.59375 61.577880859375 C-155.8580427452309 52.70792831290089 -148.94851976572653 46.58984216443264 -136.63671875 43.898193359375 C-130.91164546817484 42.5515409018891 -125.98500523232883 40.22624658494627 -120.803955078125 37.537109375 C-107.08710311306639 30.420130040849983 -92.83533363013989 24.354950461243135 -78.63671875 18.273193359375 C-77.5914501953125 17.82097412109374 -76.546181640625 17.36875488281251 -75.46923828125 16.90283203125 C-69.14582902677701 14.220309975266872 -62.805012490701245 11.997076275410535 -56.21826171875 10.0498046875 C-53.605424383160766 9.26950319305304 -51.03580452484539 8.42266896974742 -48.4609375 7.527099609375 C-44.03841941534381 6.039516200867723 -39.58534251307705 4.995117785580007 -35.01171875 4.085693359375 C-34.16311279296875 3.91650390625 -33.31450683593749 3.747314453125 -32.440185546875 3.572998046875 C-21.701415496367105 1.540942024192077 -10.888211681121618 0.7336972125267351 0 0 Z M-17.19921875 21.148193359375 C-17.487968749999993 21.952568359374993 -17.776718749999986 22.756943359374986 -18.07421875 23.585693359375 C-19.19921875 26.148193359375 -19.19921875 26.148193359375 -21.19921875 27.148193359375 C-27.113648549807323 27.54248867936215 -29.87176643039541 26.81191951917731 -35.19921875 24.148193359375 C-39.87298319663171 23.940470495080262 -42.04905177886758 25.74400856505102 -45.44921875 28.648193359375 C-48.879384849418045 31.517269894470047 -50.912310984557024 32.54053843569517 -55.38671875 32.648193359375 C-59.74797743055558 32.76296332465279 -59.74797743055558 32.76296332465279 -61.98828125 34.675537109375 C-62.98890062350526 35.9301598623085 -63.966556050925846 37.20351402646594 -64.91796875 38.495849609375 C-67.15318428201664 41.378459883896426 -69.60465031498686 41.90110114320561 -73.08984375 42.441162109375 C-76.48646921105244 42.86268577270704 -79.85178059975988 43.136273626139314 -83.2734375 43.253662109375 C-92.44035077048379 43.67085250421866 -92.44035077048379 43.67085250421866 -95.44921875 46.585693359375 C-97.19921875 49.148193359375 -97.19921875 49.148193359375 -97.19921875 51.148193359375 C-97.92109375 51.416318359375 -98.64296875 51.684443359374995 -99.38671875 51.960693359375 C-102.19921874999997 53.148193359375 -102.19921874999997 53.148193359375 -104.38671875 54.835693359375 C-108.67831550883898 56.83843851349985 -112.62493847739026 55.88540746156258 -117.19921875 55.148193359375 C-117.4093359375 55.81206054687499 -117.619453125 56.475927734375006 -117.8359375 57.159912109375 C-119.54852097346989 61.52095180947492 -120.88365243585642 64.41533712459392 -125.07421875 66.749755859375 C-127.30490951116207 67.56522064234699 -129.55361384669692 68.3328239141303 -131.81640625 69.054443359375 C-136.54509997099225 70.58335125992676 -140.8199746230555 72.82511803244057 -145.19921875 75.148193359375 C-145.13412109375 75.485927734375 -145.13412109375 75.485927734375 -144.8046875 77.195068359375 C-144.38657128702118 79.89914704518202 -144.1172160163453 82.41189161531912 -144.19921875 85.148193359375 C-147.5472163642032 89.3889903373657 -153.26738415666046 91.12818267626426 -158.19921875 93.148193359375 C-156.4193215069018 97.33008785286782 -154.35375077000322 98.34187508980838 -150.19921875 100.148193359375 C-149.8495547795657 104.51899298980379 -149.83470860734056 108.00854901037997 -152.51171875 111.659912109375 C-156.42245723212477 115.10896618736001 -161.4720099521537 117.05216681693372 -166.19921875 119.148193359375 C-163.55893767400732 121.22354943036925 -160.97139605855236 122.87497432690805 -157.94921875 124.335693359375 C-157.596015625 124.507783203125 -157.596015625 124.507783203125 -155.80859375 125.378662109375 C-155.2775 125.63260742187498 -154.74640625 125.88655273437502 -154.19921875 126.148193359375 C-154.07393910794184 132.66273474639962 -154.07393910794184 132.66273474639962 -154.69921875 135.085693359375 C-155.92186992451985 140.1291294542694 -155.87012385899226 143.85607981613066 -153.51171875 148.398193359375 C-149.87438478415788 152.72367158902506 -146.95387841357078 155.54243971057804 -141.19921875 156.148193359375 C-140.20921875 156.148193359375 -139.21921874999998 156.148193359375 -138.19921875 156.148193359375 C-137.88671875 158.835693359375 -137.88671875 158.835693359375 -138.19921875 162.148193359375 C-139.04484374999998 162.911318359375 -139.89046875 163.674443359375 -140.76171875 164.460693359375 C-143.19921875 167.148193359375 -143.19921875 167.148193359375 -143.44921875 169.355224609375 C-142.98193512351418 175.38123637593156 -142.98193512351418 175.38123637593156 -140.453125 177.859130859375 C-137.21907953847955 179.70875824637977 -134.08780376769067 180.0038251669443 -130.44140625 180.523193359375 C-128.19921875 181.148193359375 -128.19921875 181.148193359375 -126.19921875 184.148193359375 C-126.15796875000001 185.117568359375 -126.11671874999999 186.08694335937503 -126.07421875 187.085693359375 C-125.10049210691929 190.4937366101575 -124.81813731115574 190.80459297637157 -121.88671875 192.460693359375 C-118.26347084273672 194.06014513825698 -115.01216795084045 194.42751127464544 -111.07421875 194.648193359375 C-104.65695132182853 195.0417429263092 -101.54678948443147 196.52147678712618 -97.1953125 201.390380859375 C-96.4541015625 202.238583984375 -95.712890625 203.086787109375 -94.94921875 203.960693359375 C-88.15668385988951 211.70235349507334 -81.03766776273885 217.1070558569196 -70.640625 218.488037109375 C-61.5231886196479 219.8158191065137 -55.96327740618034 223.38413470319466 -49.51171875 229.835693359375 C-43.07867677154795 235.54141285293383 -34.35556553025978 235.79518875382962 -26.140625 236.741943359375 C-24.305716173268394 236.95838797624072 -22.47108561771472 237.17720270523296 -20.63671875 237.398193359375 C-19.705532226562497 237.50977783203126 -18.774345703124993 237.62136230468752 -17.81494140625 237.736328125 C-9.973980929245386 238.79274495573418 -2.796616484766645 240.96037131966858 4.572509765625 243.811279296875 C12.099458358207244 246.63190106085904 18.95607275466665 247.00041619855097 26.80078125 245.148193359375 C35.80754540907003 244.04736662882203 42.34631643327094 245.48876800821677 50.67578125 248.648193359375 C62.6395681250749 252.98365970031125 73.21383535065763 252.92371467132102 85.80078125 252.148193359375 C87.42087593356757 252.05551397885813 89.04099478386115 251.96325643856363 90.6611328125 251.871337890625 C96.14709445263821 251.55410235519184 101.63041830198404 251.20237184707946 107.11328125 250.835693359375 C107.55467941284178 250.8065383911133 107.55467941284178 250.8065383911133 109.78842163085938 250.65899658203125 C125.33439109845318 249.6037037823928 141.17991631580458 248.24757083260397 156.17578125 243.773193359375 C156.91578369140626 243.56404296874996 157.65578613281252 243.35489257812503 158.418212890625 243.139404296875 C162.84954254449377 241.850953555787 167.00516954655518 240.24984525493994 171.23828125 238.398193359375 C177.44312275466638 235.85949073611891 183.2884202257573 235.5425537274009 189.915771484375 235.512451171875 C196.23020931092117 235.4349324092674 202.88914346176142 234.7744906443662 207.75390625 230.386474609375 C208.181875 229.750966796875 208.60984374999998 229.11545898437498 209.05078125 228.460693359375 C213.84060547405687 222.3460241371747 220.92881000294227 218.58417898290384 227.80078125 215.148193359375 C229.79922191148296 215.01748139750475 231.79977405500784 214.91828209973437 233.80078125 214.835693359375 C247.40849528943835 213.788946125572 255.24768300749832 207.63431228967005 264.1328125 197.484130859375 C266.0889996631721 195.08154105970908 267.96357521695575 192.64247072659043 269.80078125 190.148193359375 C270.2558203125 189.559091796875 270.710859375 188.96999023437502 271.1796875 188.363037109375 C273.4873091929842 185.21920407119796 274.2591247022652 183.04411270362903 273.80078125 179.148193359375 C271.82078125 178.158193359375 269.84078125 177.16819335937498 267.80078125 176.148193359375 C267.31601670706374 169.84625430120332 267.31601670706374 169.84625430120332 269.36328125 166.898193359375 C272.3251005042404 164.7717590229973 275.45428798343056 163.5735516025435 278.80078125 162.148193359375 C282.5460629283834 156.53027084179996 281.3242776665612 148.85413333800153 280.40625 142.355224609375 C278.91155999514046 136.28967613804178 275.83750034213244 132.47097260762948 271.78515625 127.812255859375 C268.9887001382895 124.05795848105498 267.62602062036206 120.04573636497875 266.19921875 115.616943359375 C264.307841426754 112.27797557085134 262.34627979150673 112.31760220815056 258.80078125 111.148193359375 C257.58593750000006 108.79272460937511 257.58593750000006 108.79272460937511 256.86328125 105.960693359375 C254.0036962346706 97.02011327063079 248.21890814787957 93.06300942641013 240.33984375 88.445068359375 C238.00130266010092 87.250613525765 235.79320318416137 86.5033363773062 233.30078125 85.710693359375 C227.8310250414218 83.46470496930397 225.33862175282212 78.6048243549601 222.42578125 73.71875 C219.09140878165448 68.17563456506025 215.09457710890302 63.4391350520157 208.80078125 61.148193359375 C207.056595941208 60.95860799972371 205.30403088833464 60.83831406022745 203.55078125 60.773193359375 C196.17683541882008 60.19618698796967 191.47703590966876 57.323324877873176 185.48828125 53.210693359375 C172.96543205820194 44.682201237374585 161.1887326089397 42.82914720280189 146.380859375 42.757568359375 C140.32487826933004 42.62122356900346 137.41173270094384 42.328451542923005 132.80078125 38.148193359375 C129.8984375 38.081787109375 129.8984375 38.081787109375 126.86328125 38.585693359375 C121.88833248582 39.19761817661731 119.03713136709422 39.15823160046827 114.80078125 36.148193359375 C114.14078124999997 35.488193359375 113.48078125 34.82819335937501 112.80078125 34.148193359375 C110.93212017070402 34.352047295298206 109.06398008391642 34.5659506688155 107.203125 34.831787109375 C97.35857143346726 36.12838684740615 91.97976040782066 34.77579755709115 83.80078125 29.148193359375 C77.6784506084598 25.394544551665376 70.20158374099287 26.03782033973485 63.2734375 26.156005859375 C61.40951085290823 26.173543485472237 59.5455781782002 26.19044967267496 57.681640625 26.206787109375 C54.78587548860375 26.23748684914665 51.89042458276691 26.272754408551464 48.994873046875 26.319580078125 C38.1149555483733 26.485799742937758 28.02470342551692 26.152759396539693 17.377197265625 23.851806640625 C12.00528491723685 22.794952835719926 6.6991877970604605 22.6238552312102 1.23828125 22.523193359375 C-4.986147231707832 22.364911643374796 -11.054524045273297 22.19959974643905 -17.19921875 21.148193359375 Z M294.80078125 192.148193359375 C295.39182890483255 196.99478412900186 296.7802228193215 200.7556750318131 298.80078125 205.148193359375 C300.99053897855566 201.86355676654148 301.7988468823007 198.9412306085223 302.80078125 195.148193359375 C302.03765625 195.210068359375 301.27453125 195.27194335937497 300.48828125 195.335693359375 C297.80078125 195.148193359375 297.80078125 195.148193359375 295.98828125 193.648193359375 C295.79234375 193.400693359375 295.79234375 193.400693359375 294.80078125 192.148193359375 Z M302.80078125 193.148193359375 C303.80078125 195.148193359375 303.80078125 195.148193359375 303.80078125 195.148193359375 Z M-139.19921875 212.148193359375 C-132.77988029933763 225.5450736042356 -117.1974329988013 234.46291918697057 -103.6171875 239.468505859375 C-102.8192578125 239.692802734375 -102.021328125 239.917099609375 -101.19921875 240.148193359375 C-105.05471039534291 236.0093193493841 -109.18121109812398 232.950638207284 -113.88671875 229.835693359375 C-121.2058812883634 224.90257947708358 -128.08640562446323 219.60490040284685 -134.84375 213.925537109375 C-137.19921875 212.148193359375 -137.19921875 212.148193359375 -139.19921875 212.148193359375 Z M220.11328125 263.148193359375 C218.9337890625 263.705068359375 217.75429687500002 264.261943359375 216.5390625 264.835693359375 C215.6354296875 265.268818359375 214.731796875 265.701943359375 213.80078125 266.148193359375 C217.5139024540805 267.38590042740185 218.7463617246156 266.7274474059876 222.36328125 265.398193359375 C223.33394531250002 265.052724609375 224.30460937499998 264.707255859375 225.3046875 264.351318359375 C227.80078125 263.148193359375 227.80078125 263.148193359375 229.80078125 260.148193359375 C225.9360326363987 260.148193359375 223.59583666673797 261.49311751775696 220.11328125 263.148193359375 Z M203.13671875 263.769287109375 C193.7441501576912 265.6657700915376 184.31514220489174 267.2074834679707 174.83984375 268.620849609375 C174.13711082458497 268.7261133956909 173.43437789916993 268.83137718200686 172.7103500366211 268.9398307800293 C167.61633473686845 269.7024849802015 162.52117826119013 270.4573348485609 157.42578125 271.210693359375 C152.30001244261985 271.96905055901783 147.17470706982124 272.73036586890515 142.05024337768555 273.4974956512451 C140.0420617991179 273.7968393281374 138.03320371280847 274.0916337769073 136.02432250976563 274.38624572753906 C127.21639995390672 275.70182137532066 118.51612015188334 277.3278643043276 109.80078125 279.148193359375 C109.80078125 279.478193359375 109.80078125 279.808193359375 109.80078125 280.148193359375 C140.99247971545583 279.9124878294093 171.1732471576875 274.0349763921836 201.4765625 267.136474609375 C201.85393051147457 267.0511270904541 201.85393051147457 267.0511270904541 203.76364135742188 266.6192169189453 C207.863532758141 265.6701954934311 211.826388560424 264.5517718350577 215.80078125 263.148193359375 C211.33867433689744 261.7869767530438 207.5954951486109 262.8155991822361 203.13671875 263.769287109375 Z " fill="#000000" transform="translate(196.19921875,113.851806640625)"/>
<path d="M0 0 C0.8133984375000125 0.15984374999999318 1.6267968749999966 0.31968749999998636 2.46484375 0.484375 C5.062499999999972 1.25 5.062499999999972 1.25 7.80859375 2.734375 C11.913337984050429 4.646308688849416 15.726510151206412 5.176829340932926 20.1875 5.75 C21.98446961611984 5.996707646249121 23.781342189023803 6.2441230040391815 25.578125 6.4921875 C26.491425781249973 6.615615234375014 27.404726562500002 6.739042968749999 28.345703125 6.8662109375 C30.92057922670233 7.229951522679386 33.482575825279014 7.638849273704466 36.046875 8.0703125 C45.85180527176726 9.696968429962965 55.42462513241901 10.66509592220126 65.37841796875 10.69580078125 C71.14733655948834 10.807471259514614 75.49826015223567 11.913209674858024 80.733154296875 14.3642578125 C83.33639998465793 15.354151466758083 85.47705665034317 15.516220380595314 88.25 15.5625 C94.8411301924964 15.911386719774498 100.08196059769762 18.737951955231125 105.875 21.65625 C110.21984333715517 23.828671668577584 112.75903990240863 24.23987767771652 117.559326171875 23.879638671875 C126.60811292940275 23.32842773138546 126.60811292940275 23.32842773138546 130.94140625 26.07421875 C133.1750306511188 28.360754727456623 135.13760411789593 30.700582342813277 137.0625 33.25 C141.2586513931024 37.81576058316844 144.62237492331542 40.15902506765113 150.8125 41.125 C154.97091546360576 41.909262565504605 158.29715007358885 43.07935796781169 161.984375 45.1328125 C164.06249999999994 46.24999999999997 164.06249999999994 46.24999999999997 166.640625 47.3046875 C173.53747042607574 50.22878863093854 173.53747042607574 50.22878863093854 175.12890625 53.32421875 C175.3751171875 54.08347656250001 175.621328125 54.84273437499999 175.875 55.625 C177.51558153190132 60.381108960271604 179.95922908015143 61.67441740357759 184.375 63.9375 C185.52097656249998 64.491796875 186.66695312500002 65.04609375000001 187.84765625 65.6171875 C192.26190968512992 67.8591777015605 196.78517800274318 70.6953560054863 199.0625 75.25 C198.87622127123967 76.79181470881639 198.6885168266275 78.3334573417549 198.5 79.875 C198.419246991933 83.5896383710811 198.67668962716823 84.8256786099164 201.21484375 87.6171875 C203.76568267868788 89.6154056564757 206.3701423981529 91.4492099974531 209.0625 93.25 C211.0625 95.25 211.0625 95.25 211.07421875 97.203125 C210.9672265625 97.96109375 210.860234375 98.7190625 210.75 99.5 C210.64558593750002 100.306953125 210.54117187499997 101.11390625000001 210.43359375 101.9453125 C210.13980676462296 103.76988430392043 209.74379020486276 105.5779574797385 209.3125 107.375 C209.02679629681262 110.6605925866549 209.97380698903498 112.36074249041064 211.328125 115.29296875 C213.38556713460673 120.77583316190413 212.91157266290958 125.33903801190121 210.55078125 130.65234375 C207.46231222711202 136.44896749844747 203.91130048930222 141.57860991931045 199.625 146.5625 C196.2883704121108 150.51343154689982 195.45161793481373 152.98905778868323 195.31640625 158.08203125 C194.73426922063527 163.05258588534525 191.49161819091393 166.97091378998277 187.8671875 170.21484375 C184.53299357640043 172.63422402046706 181.060582019339 174.55311520899284 177.4375 176.5 C172.45229721508628 179.22754926674304 167.78176954234584 182.04722320583176 163.25 185.5 C155.060580710027 191.59953780944574 147.81949831169254 194.49195211204642 137.620849609375 195.51318359375 C131.81795622678067 196.09817742787834 126.15356248906875 197.09693854473096 120.4375 198.25 C119.59646728515622 198.41636962890624 118.7554345703125 198.58273925781248 117.888916015625 198.754150390625 C114.45629671611243 199.45517098361745 111.20325869956582 200.20134908415992 107.88671875 201.34765625 C103.69144669901385 202.68805437417404 99.55900011561931 202.64883215125536 95.18359375 202.80859375 C90.90168953577393 203.41416969018462 88.30994314595932 205.29607288838406 84.9375 207.875 C71.49929882039032 214.30196578155244 48.916502290479684 210.29298415817595 34.266845703125 209.72509765625 C32.42085044347101 209.65831409881082 30.574432743851048 209.60233970081822 28.727783203125 209.55712890625 C18.033556975617785 209.290835590916 8.98862171041398 208.3187097618537 -0.9751739501953125 204.32748413085938 C-7.766900592714592 201.69547968871916 -13.953168864327012 201.7567501498405 -21.1875 202.25 C-30.467336379854686 202.87420424079744 -36.295780274817815 202.01851234747437 -44.5888671875 197.74658203125 C-50.44849543906372 195.1277776289399 -56.61748282062959 194.51619613015214 -62.9375 193.6875 C-72.92469024484367 192.34738212530925 -81.69390858332292 190.31819515768075 -90.9375 186.25 C-91.75267089843749 185.89268798828124 -92.567841796875 185.53537597656248 -93.40771484375 185.167236328125 C-117.10255668996271 174.3640469316178 -139.80768364595204 161.11932370174452 -156.13671875 140.46875 C-157.90151924346833 138.29433203841648 -159.69221257671822 136.6794075872922 -161.875 134.9375 C-165.3255256797646 132.00264328713746 -167.43579189570985 129.12949973672937 -169.65234375 125.21484375 C-171.0683751566457 123.04990819515871 -172.64696343261357 121.54408107239732 -174.5625 119.8125 C-178.48104445294388 116.03814441220777 -179.67714665349683 112.4568347627411 -180.9375 107.25 C-181.22625 106.22261718750002 -181.515 105.19523437499998 -181.8125 104.13671875 C-183.67847736637097 97.04767080901033 -184.07399398012706 91.43981981111966 -182.9375 84.25 C-182.9078515625 83.4443359375 -182.878203125 82.638671875 -182.84765625 81.80859375 C-182.6100754366471 76.04013160179173 -182.6100754366471 76.04013160179173 -180.57421875 73.6484375 C-179.08969414006322 72.43672528854802 -177.51658017161972 71.33561761798856 -175.9375 70.25 C-174.68656876274446 67.74813752548891 -174.90250427722268 65.9811487293311 -174.875 63.1875 C-174.38860511389288 57.22524010578388 -172.22451394060425 54.15152979578687 -168.04296875 49.9921875 C-164.66838705672808 47.199862017255526 -161.7690335137323 46.52813271452476 -157.51953125 45.8828125 C-151.7397046482631 44.90954775465582 -148.65555534989414 44.10412781791737 -144.9375 39.25 C-143.97371743485166 37.77437810646779 -143.01582685245148 36.294898299361705 -142.0625 34.8125 C-137.13244312540203 27.241341228295965 -130.6520740750491 22.64699872745655 -122.17578125 19.62109375 C-119.54303923131842 19.184600745157496 -117.05801111048429 19.358959960767834 -114.40380859375 19.517822265625 C-106.68654974763808 19.91332502460739 -102.14540229592649 19.237205120006536 -96.1484375 13.87890625 C-93.37725986185086 11.837243573130394 -91.34764762058774 11.496139263953182 -87.9375 11.25 C-85.82421875 11.66015625 -85.82421875 11.66015625 -83.9375 12.25 C-79.98873183060024 12.846467849679897 -76.38690171805422 13.180163179486442 -72.925048828125 10.95849609375 C-72.25497802734375 10.423051757812487 -71.5849072265625 9.887607421875003 -70.89453125 9.3359375 C-65.45051251615843 5.536202494879916 -60.312604540537734 4.990614485747614 -53.8125 4.4375 C-51.72655464724008 4.222732506836678 -49.64061694585442 4.00789068405453 -47.5546875 3.79296875 C-46.582412109375014 3.703217773437501 -45.61013671875 3.6134667968750023 -44.6083984375 3.52099609375 C-42.34522153790752 3.2913684558571674 -40.125992172062496 2.9836119622643764 -37.8828125 2.61328125 C-34.9375 2.25 -34.9375 2.25 -31.9375 3.25 C-24.03249362168188 3.7324651780194245 -17.01946663553923 4.098894910619151 -9.9375 0.25 C-6.33049387743273 -0.7304876609944131 -3.64835519726779 -0.7607944487193379 0 0 Z M10.0625 11.25 C10.0625 12.569999999999993 10.0625 13.889999999999986 10.0625 15.25 C16.8125 18.25 16.8125 18.25 19.0625 18.25 C18.68857278997848 15.539027727344092 18.24892373265118 14.429995328077041 16.25 12.5 C14.0625 11.25 14.0625 11.25 10.0625 11.25 Z M-63.9375 16.25 C-66.4375 19.0625 -66.4375 19.0625 -67.55078125 20.66015625 C-69.85159090435718 23.29798591006582 -72.85931988734023 24.61394280033963 -75.94921875 26.171875 C-77.9375 27.25 -77.9375 27.25 -79.9375 29.25 C-80.34000008562816 33.355500873407294 -80.0970502174543 35.88436408500053 -78.4375 39.6875 C-77.00043604939478 43.100526882687404 -76.85045621595864 43.903172492197 -77.1875 47.3125 C-76.9375 51.25 -76.9375 51.25 -75.63671875 52.94921875 C-73.8167086576527 54.551311891157155 -71.95678566998063 55.9090681097785 -69.9375 57.25 C-69.33937500000002 57.68828124999999 -68.74125000000001 58.126562500000006 -68.125 58.578125 C-65.17247284077223 60.55526372269716 -63.53559040381663 61.36452794966701 -60 60.6875 C-58.989374999999995 60.21312499999999 -57.97874999999999 59.73875000000001 -56.9375 59.25 C-51.60800438436564 56.782640918687804 -46.786030693825126 55.853326623425914 -40.9375 55.4375 C-40.60532470703126 55.41103393554687 -40.60532470703126 55.41103393554687 -38.92431640625 55.277099609375 C-34.67833194774826 55.043878295421905 -31.18736014660456 55.57912210179791 -27.0537109375 56.735595703125 C-23.117849387035506 57.69231700986575 -19.09032198930663 57.91364583349713 -15.0625 58.25 C-8.887700547388135 58.80847354815327 -2.9023172586620944 59.531454908026774 3.16015625 60.86328125 C7.103218040699716 61.664848225932815 9.976757184274845 61.702661322283035 13.6953125 60.15234375 C16.0625 58.25 16.0625 58.25 16.62890625 55.140625 C16.627617187499993 53.93921875000001 16.626328124999986 52.73781249999999 16.625 51.5 C16.864935530085972 43.74208452722064 16.864935530085972 43.74208452722064 19.25 40.125 C21.0625 37.25 21.0625 37.25 20.6875 35.125 C16.549839451120988 30.350776289755004 12.90580757946816 28.0286529996701 7.01953125 26.0703125 C3.834185571315004 24.735137664623068 1.637914714637759 22.525947887354278 -0.9375 20.25 C-4.51443822443963 19.057687258520133 -7.779325534186114 19.10387980435678 -11.5 19.125 C-12.185136718750016 19.121132812500008 -12.870273437500003 19.117265625000016 -13.576171875 19.11328125 C-18.684113300492612 19.12330665024632 -18.684113300492612 19.12330665024632 -20.9375 20.25 C-26.595655391715724 20.915665340201855 -30.939755142923786 19.71134711997044 -36.25 17.8125 C-45.089215803734476 14.683699952596669 -54.94012888940887 12.210363991163149 -63.9375 16.25 Z M36.0625 20.25 C36.0625 21.24000000000001 36.0625 22.22999999999999 36.0625 23.25 C37.05250000000001 23.579999999999984 38.04250000000002 23.909999999999997 39.0625 24.25 C39.72249999999997 23.920000000000016 40.38249999999999 23.590000000000003 41.0625 23.25 C40.40250000000003 21.930000000000007 39.74250000000001 20.610000000000014 39.0625 19.25 C38.0625 19.25 38.0625 19.25 36.0625 20.25 Z M68.21875 27.7578125 C65.69098481122933 28.33480238004549 63.276138033699056 28.43888526243572 60.6875 28.5625 C54.12392706642282 29.07442212295308 47.74593704262139 31.245018213709358 43.26953125 36.2578125 C42.0625 38.25 42.0625 38.25 42.25 40.8125 C43.0625 43.25 43.0625 43.25 45.0625 46.25 C44.813604841866436 49.40267200302554 44.15410600927663 51.114287393664284 42.375 53.75 C41.0625 56.25 41.0625 56.25 41.625 58.75 C44.45576881216931 63.67307619507707 46.617858546969615 66.44531547343377 52.0625 68.25 C54.282663284950786 68.65680836239218 56.513370145608235 69.00901202659907 58.75 69.3125 C64.8628120124805 70.15015600624025 64.8628120124805 70.15015600624025 67.0625 71.25 C67.0625 72.9 67.0625 74.55000000000001 67.0625 76.25 C66.44246093750002 76.1198046875 65.82242187500003 75.98960937499999 65.18359375 75.85546875 C56.40487077639051 74.48818584144655 46.838588660767755 76.2733396036125 39.39404296875 81.398681640625 C36.42614885458977 83.78649988567594 33.99969978873173 86.33095524512558 31.8125 89.4375 C30.296576530046536 91.56875799673566 28.917661784340396 93.3948382156596 27.0625 95.25 C26.07249999999999 95.25 25.082499999999982 95.25 24.0625 95.25 C23.907812499999977 94.77562499999999 23.907812499999977 94.77562499999999 23.125 92.375 C22.0625 89.25000000000003 22.0625 89.25000000000003 21.0625 87.25 C21.346093750000023 87.1198046875 21.346093750000023 87.1198046875 22.78125 86.4609375 C25.261324672030867 85.14445950628499 27.331479387641537 83.57801240076697 29.5625 81.875 C34.362800325755416 78.42679618924873 39.01299772520633 76.70540698376593 44.69140625 75.171875 C45.47386718749999 74.86765625000001 46.25632812499998 74.56343749999999 47.0625 74.25 C47.392499999999984 73.25999999999999 47.72249999999997 72.27000000000001 48.0625 71.25 C39.2998185087211 71.67400071731996 32.79785182126875 74.59121655951668 25.625 79.5625 C23.0625 81.25 23.0625 81.25 20.0625 81.25 C19.76953125 75.1953125 19.76953125 75.1953125 20.0625 73.25 C21.05250000000001 72.59 22.042500000000018 71.93 23.0625 71.25 C23.0625 73.56 23.0625 75.87 23.0625 78.25 C24.05250000000001 78.25 25.042500000000018 78.25 26.0625 78.25 C26.0625 74.62 26.0625 70.99000000000001 26.0625 67.25 C22.630035639900427 67.56204221455451 20.52844941761265 67.89738962991476 17.75 70 C15.879167936208205 72.4944427517224 15.569147838761978 74.22014559789872 15.0625 77.25 C3.475314807322775 71.63021518155153 3.475314807322775 71.63021518155153 -0.8125 68.625 C-11.362620536831258 61.797155811236564 -24.580236226165795 61.21070919661571 -36.75 61.0625 C-37.49225830078126 61.049287109375 -38.23451660156249 61.03607421875 -38.999267578125 61.0224609375 C-42.8016986071795 61.01726813309023 -45.71598950613367 61.11078174554285 -48.9375 63.25 C-47.7399609375 63.2873828125 -46.542421875 63.324765625 -45.30859375 63.36328125 C-24.462048724343106 64.14669467033235 -2.7147750232413728 67.65501302603855 13.29296875 82.2890625 C16.837827386306685 86.21736059144806 18.89644809714116 89.61715628855472 19.4375 94.9375 C19.097639265128464 97.93960315803179 18.672029444007592 99.73511024373815 17.0625 102.25 C23.8125 103.375 23.8125 103.375 26.0625 102.25 C26.355117187500014 101.638984375 26.647734375000027 101.02796875000001 26.94921875 100.3984375 C28.250343592237982 97.88749482199682 29.690285470816207 96.65451890904836 31.875 94.875 C34.41815496358083 92.74276774148609 36.58658701555572 90.72627347732251 38.5625 88.0625 C43.790690846816744 82.18078529733117 51.31052182724983 79.7483414539625 59.0625 79.25 C62.17710296676222 79.56911915643056 65.20382420522338 80.1005957145477 68.28125 80.67578125 C73.65086356600864 81.49120810351579 79.01473203086437 81.66484322177922 84.439208984375 81.819580078125 C89.02990812320445 81.98974800067742 92.70881944273424 82.6449864214259 97.0625 84.25 C101.93748693233522 84.1462768737801 104.54761946488873 82.3848409471527 108.2578125 79.515625 C110.08647340296147 78.23318748363741 111.79965993219088 77.43446874014131 113.875 76.625 C117.0625 75.25 117.0625 75.25 119.0625 72.25 C119.30078125 69.87499999999989 119.30078125 69.87499999999989 119.375 67.25 C119.79455741626793 62.517942583732065 119.79455741626793 62.517942583732065 122.0625 60.25 C125.4010186577122 59.13716044742927 128.7152420775306 58.33209834960516 132.171875 57.6796875 C134.0625 57.25 134.0625 57.25 135.0625 56.25 C135.5625 54.12499999999997 135.5625 54.12499999999997 135.0625 51.25 C133.44892392828706 49.34828534405261 131.69438945682487 47.703838300278875 129.859375 46.015625 C128.0625 44.25 128.0625 44.25 126.0625 41.0625 C123.23870419053878 37.09153714294513 119.6784702968086 34.81322278585796 114.93408203125 33.791748046875 C112.66422699308703 33.52035778342497 110.40639539430424 33.331892113563555 108.125 33.1875 C100.31354047338107 32.650834841682666 94.32649291498842 30.648854106423613 87.125 27.5625 C80.67711492208059 25.165047622691418 74.73908519437265 25.868985241312686 68.21875 27.7578125 Z M-105.9375 33.25 C-105.60750000000002 34.24000000000001 -105.2775 35.23000000000002 -104.9375 36.25 C-97.42980769230769 36.61923076923077 -97.42980769230769 36.61923076923077 -94.9375 34.75 C-94.60750000000002 34.254999999999995 -94.2775 33.75999999999999 -93.9375 33.25 C-95.3125 31.75 -95.3125 31.75 -96.9375 30.25 C-100.24105546167715 30.25 -102.9585824907694 31.926036662564172 -105.9375 33.25 Z M-125.9375 42.25 C-125.6075 42.91 -125.2775 43.56999999999999 -124.9375 44.25 C-122.95750000000001 43.59 -120.97749999999999 42.93000000000001 -118.9375 42.25 C-118.9375 41.25999999999999 -118.9375 40.27000000000001 -118.9375 39.25 C-121.83258510654713 39.25 -123.53446473460264 40.73229351659114 -125.9375 42.25 Z M-107.05078125 47.2734375 C-110.43320666999179 48.269756775117514 -113.40866508376041 48.265116640991295 -116.938720703125 48.0185546875 C-130.15399565744306 47.15081804058332 -143.849897000655 51.51825761884655 -153.9375 60.25 C-155.27737301036353 61.08586118896051 -156.63070297132867 61.90076671712521 -158 62.6875 C-161.4268231483196 64.82521576360205 -163.9263223612636 66.64664006393062 -165.9375 70.25 C-166.24096063260774 73.18345278187485 -166.23865168776854 75.36962982505264 -165.9375 78.25 C-165.878203125 79.1691015625 -165.81890625 80.088203125 -165.7578125 81.03515625 C-164.95729727091646 88.28860521596422 -164.95729727091646 88.28860521596422 -162.1640625 90.921875 C-160.13137358171252 92.14602222960062 -158.0628532110133 93.19788678023397 -155.9375 94.25 C-153.46632625874994 96.38723134378384 -152.01844401212168 98.11077629915073 -150.375 100.9375 C-148.9375 103.25 -148.9375 103.25 -145.9375 104.25 C-139.94584847286 104.86738301208706 -134.92585353689077 104.48743528301421 -129.3125 102.25 C-122.26404891340417 99.44061736832137 -117.0512540191707 99.44958709124867 -109.875 101.8125 C-103.0657061157359 104.00532345425455 -98.20455245004257 103.00191115337697 -91.8125 100.1875 C-86.88949352303595 97.53957688719709 -83.20692274385482 94.45236315434511 -80.9375 89.25 C-80.61818172857042 85.3818945756372 -81.76223157999732 81.91062712154857 -82.75 78.1875 C-82.98284200657923 74.53964189692536 -81.93886425746436 73.04849700693376 -79.84765625 70.15625 C-78.45656775057603 67.24272558918929 -78.436216800762 65.44716056206926 -78.9375 62.25 C-80.85272484516807 59.89049102147004 -82.55392858374634 58.09235519894628 -84.8125 56.125 C-85.39878173828123 55.598740234374986 -85.98506347656252 55.07248046875 -86.589111328125 54.5302734375 C-92.38003227440097 49.52505533318106 -99.2430180327047 44.70677004337344 -107.05078125 47.2734375 Z M146.0625 65.25 C146.0625 69.25 146.0625 69.25 147.75 71.0625 C150.641993255363 72.54757761761886 152.0145506598672 72.18131785392944 155.0625 71.25 C155.0625 70.25999999999999 155.0625 69.26999999999998 155.0625 68.25 C152.09249999999997 67.25999999999999 149.1225 66.26999999999998 146.0625 65.25 Z M-73.9375 67.25 C-74.75 68.9375 -74.75 68.9375 -74.9375 71.25 C-73.32945660327255 73.10930017746614 -71.75848098547397 74.62331723381976 -69.9375 76.25 C-68.87164767222168 77.35093101198368 -67.8093649973851 78.45532518088015 -66.75 79.5625 C-51.46207157258064 94.7839591733871 -51.46207157258064 94.7839591733871 -41.4375 95.5 C-40.61250000000001 95.41750000000002 -39.787499999999994 95.33500000000001 -38.9375 95.25 C-38.607500000000016 94.59 -38.2775 93.93 -37.9375 93.25 C-38.676132812499986 92.9934765625 -39.414765625 92.73695312500001 -40.17578125 92.47265625 C-48.45458718550384 89.34838005832955 -54.37521674035585 85.10918148182515 -60.9375 79.25 C-61.824375 78.51781249999999 -62.71125000000001 77.78562499999998 -63.625 77.03125 C-64.44999999999999 76.34031249999998 -65.275 75.64937499999999 -66.125 74.9375 C-66.8610546875 74.32261718749999 -67.597109375 73.707734375 -68.35546875 73.07421875 C-69.9375 71.25 -69.9375 71.25 -69.9375 67.25 C-71.2575 67.25 -72.57749999999999 67.25 -73.9375 67.25 Z M-27.9375 67.25 C-26.617500000000007 68.24000000000001 -25.297500000000014 69.23000000000002 -23.9375 70.25 C-24.267500000000013 69.25999999999999 -24.597499999999997 68.26999999999998 -24.9375 67.25 C-25.92750000000001 67.25 -26.91749999999999 67.25 -27.9375 67.25 Z M-16.9375 69.25 C-16.607499999999987 69.91 -16.277500000000003 70.57 -15.9375 71.25 C-15.277500000000003 70.92000000000002 -14.617500000000007 70.59 -13.9375 70.25 C-14.927500000000009 69.92000000000002 -15.91749999999999 69.59 -16.9375 69.25 Z M-28.1640625 71.67578125 C-29.360312499999992 71.81306640625002 -30.556562499999984 71.9503515625 -31.7890625 72.091796875 C-33.034296874999995 72.24712890625 -34.27953124999999 72.4024609375 -35.5625 72.5625 C-36.18898437499999 72.634365234375 -36.18898437499999 72.634365234375 -39.359375 72.998046875 C-48.62490054809052 74.09370027404526 -48.62490054809052 74.09370027404526 -50.9375 75.25 C-50.60749999999999 75.91 -50.2775 76.57 -49.9375 77.25 C-49.240117187500005 77.0888671875 -48.54273437500001 76.927734375 -47.82421875 76.76171875 C-33.8557736734428 74.28558031288364 -17.156166865453883 76.37996483904331 -3.9375 81.25 C-2.947499999999991 80.92000000000002 -1.9575000000000102 80.59 -0.9375 80.25 C-6.570353288488889 76.83377879262943 -11.512559024355028 74.66566496073534 -17.9375 73.25 C-18.545131835937497 72.89446044921874 -19.152763671874993 72.53892089843748 -19.77880859375 72.172607421875 C-22.771432720371024 70.89358383281132 -24.946916516180124 71.29530685711103 -28.1640625 71.67578125 Z M-18.9375 81.25 C-18.277500000000003 82.57 -17.617500000000007 83.88999999999999 -16.9375 85.25 C-16.9375 84.25999999999999 -16.9375 83.26999999999998 -16.9375 82.25 C-17.597499999999997 81.92000000000002 -18.257499999999993 81.59 -18.9375 81.25 Z M116.6875 88.0625 C113.66403781749432 89.53835950603667 110.8015969982493 90.65961581930333 107.5625 91.5625 C102.29655452859987 93.25611690907948 97.89818459865779 96.27645781534395 94.0625 100.25 C91.94542220246387 104.52460931094876 91.10541990504123 108.54193933085946 92.0625 113.25 C94.3125 115.6875 94.3125 115.6875 97.0625 118.25 C98.109375 120.4140625 98.109375 120.4140625 99.0625 122.8125 C100.71521985282914 126.83767254479358 102.40028057694326 128.77800188943672 106.0625 131.25 C108.60515915625462 133.56150832386783 110.08613099610011 135.29544422326944 111.6875 138.375 C114.62774672461853 141.93424603506452 116.41575318768042 142.52989012076853 120.88671875 143.21875 C125.65788251515562 143.26569872093637 130.1444602652516 142.28896361925194 134.81005859375 141.36962890625 C145.03670648257156 139.39869144442122 151.0969815082335 140.99298128305725 160.3125 145.87109375 C165.3241692202232 148.3840472084358 169.21716809669448 148.6780301668948 174.5625 147.3125 C179.74947567670193 145.36961220357216 183.30543839399473 142.03858068411438 186.0625 137.25 C186.1875 133.9375 186.1875 133.9375 185.0625 131.25 C184.52625 130.71375 183.99 130.1775 183.4375 129.625 C182.98375 129.17125 182.52999999999997 128.71749999999997 182.0625 128.25 C182.1953125 126.3125 182.1953125 126.3125 183.0625 124.25 C185.09375 122.9765625 185.09375 122.9765625 187.5625 121.875 C191.93058913791504 119.58365688645029 191.93058913791504 119.58365688645029 193.125 116.5625 C193.104375 115.46937500000001 193.08375 114.37625000000003 193.0625 113.25 C193.13082031250002 112.43660156250002 193.19914062499998 111.62320312500003 193.26953125 110.78515625 C193.59364770867433 105.65205605564651 193.59364770867433 105.65205605564651 193.0625 103.25 C189.34282311670245 99.26308419498986 185.02354018795603 98.09910943894732 179.875 96.875 C179.061279296875 96.67221435546875 178.24755859375 96.4694287109375 177.4091796875 96.260498046875 C174.63043766383925 95.57511982723184 171.84682335726376 94.91231959350904 169.0625 94.25 C168.53648193359373 94.12197998046875 168.53648193359373 94.12197998046875 165.87451171875 93.47412109375 C125.36287104409354 83.62509756940045 125.36287104409354 83.62509756940045 116.6875 88.0625 Z M180.0625 87.25 C180.0625 88.24000000000001 180.0625 89.23000000000002 180.0625 90.25 C181.0525 90.25 182.04250000000002 90.25 183.0625 90.25 C182.73250000000002 89.25999999999999 182.40249999999997 88.26999999999998 182.0625 87.25 C181.40249999999997 87.25 180.7425 87.25 180.0625 87.25 Z M-70.9375 88.25 C-71.26749999999998 88.745 -71.26749999999998 88.745 -72.9375 91.25 C-72.11250000000001 91.41500000000002 -72.11250000000001 91.41500000000002 -67.9375 92.25 C-67.9375 91.25999999999999 -67.9375 90.26999999999998 -67.9375 89.25 C-68.92750000000001 88.92000000000002 -69.91750000000002 88.59 -70.9375 88.25 Z M1.0625 77.25 C0.7022957210239724 82.2478343707921 1.7186006499703126 85.23018871869436 4.0625 89.625 C4.619374999999991 90.68460937500001 5.176249999999982 91.74421875000002 5.75 92.8359375 C6.18312499999999 93.63257812500001 6.616250000000008 94.42921875000002 7.0625 95.25 C6.572011718749991 95.14171875 6.572011718749991 95.14171875 4.08984375 94.59375 C-13.78482930751403 90.82219398486455 -30.039380896334762 90.95255914784718 -46 100.625 C-54.37505618548283 106.48124229511205 -58.78421512837943 111.05778494099599 -60.9375 121.25 C-62.05125000000001 120.63125000000002 -63.16499999999999 120.01249999999999 -64.3125 119.375 C-73.31455814514501 114.99179891362053 -80.8498485904708 114.89706035638778 -90.5234375 117.05859375 C-94.67554859445252 118.50755700378488 -96.54197473384676 120.26728165007034 -99.26171875 123.60546875 C-102.42116112348495 126.70599378318684 -106.73959751156829 127.26811772304478 -110.9375 128.25 C-115.6184651474531 129.71280160857907 -115.6184651474531 129.71280160857907 -117 132.0390625 C-117.94557616394376 134.26904628663402 -118.47666596401203 136.31338179674054 -118.9375 138.6875 C-119.59621329375858 142.069286999207 -120.5936105937881 145.07506127782437 -121.9375 148.25 C-116.59449220716562 154.9370563369946 -111.37149856493158 157.63444143836642 -103.20703125 160.046875 C-98.13162688300534 161.91452678618202 -94.949075770402 165.0115494300971 -91.5625 169.125 C-86.44493526817871 175.06049084446659 -81.03756668938837 180.98205643008055 -72.9375 182.25 C-70.21788875983125 182.29171182883692 -67.58411364501526 182.26660642065332 -64.875 182.125 C-64.53859497070312 182.1082019042969 -64.53859497070312 182.1082019042969 -62.836181640625 182.023193359375 C-59.333354194233664 181.74946133806594 -56.7227292737652 181.15253278330505 -53.51171875 179.6953125 C-49.05258753761933 177.89216654526683 -45.546560876586625 178.0144745832544 -40.8125 178.25 C-31.295940211755692 178.71879604868195 -31.295940211755692 178.71879604868195 -26.9375 175.25 C-24.95074603993953 172.98730798993114 -23.28333652703543 170.94167305407086 -21.9375 168.25 C-22.078789474724175 166.5372255513028 -22.27457431347824 164.82874360971186 -22.5 163.125 C-22.897794999145617 159.43940536936157 -22.9980752421354 156.70111389941945 -21.8125 153.1875 C-20.243206282032446 148.22151132669478 -22.14825288491346 143.94436877506575 -23.9375 139.25 C-23.233671875 139.2590234375 -22.529843749999998 139.26804687499998 -21.8046875 139.27734375 C-8.334379764616926 138.87288281277574 3.791344152104557 131.8253277060743 13.0234375 122.20703125 C14.755714321068922 120.25913347440985 16.4166873177885 118.27102386364828 18.0625 116.25 C18.866874999999993 115.34249999999997 19.671249999999986 114.435 20.5 113.5 C22.0625 111.25 22.0625 111.25 22.0625 107.25 C20.742500000000007 106.92000000000002 19.422500000000014 106.59000000000003 18.0625 106.25 C17.980000000000018 105.67250000000001 17.897500000000036 105.095 17.8125 104.5 C17.0625 102.25 17.0625 102.25 15.265625 100.60546875 C12.365742080254051 97.50506201133544 10.845756445046192 94.1332662504212 9.0625 90.3125 C6.79939087134386 85.49013269655498 4.610700572030112 81.29716627747186 1.0625 77.25 Z M29.0625 102.25 C28.2421875 104.4140625 28.2421875 104.4140625 28.0625 106.25 C28.786953124999968 106.36214843749997 29.511406249999993 106.474296875 30.2578125 106.58984375 C37.99915324057122 108.1690772610765 37.99915324057122 108.1690772610765 40.953125 111.171875 C42.462646394375724 113.47588133878406 43.77794943844481 115.81405350827038 45.0625 118.25 C46.01023224567251 119.77746207680195 46.96789006300156 121.298831153908 47.9375 122.8125 C48.64724207727528 123.95746127560449 49.35614123332505 125.10294837447032 50.0625 126.25 C51.4546121476215 122.07366355713549 50.016057897907785 120.46039485078961 48.125 116.5625 C47.55910156250002 115.38300781250001 46.993203125000036 114.20351562500002 46.41015625 112.98828125 C45.96542968749998 112.0846484375 45.52070312500001 111.18101562499999 45.0625 110.25 C53.955692355338726 113.03163009009091 59.54334652414724 115.71241325297825 65.0625 123.25 C66.04407144520007 124.26809503385869 67.03855841430698 125.27452902191374 68.0625 126.25 C66.95036133851636 122.75470706390848 65.74676809156881 119.50530807614143 64.0625 116.25 C70.80094783736462 119.46984945923333 77.14259664089627 122.67552922251076 83.0625 127.25 C81.31125682860238 121.26054110610744 77.23710328585872 119.25082006807315 72.09375 116.3046875 C60.580216082147444 110.18451741641206 47.62485571817626 106.5494115344639 35.0625 103.25 C36.62409059367974 102.76787785554353 38.18681927844989 102.28944127124669 39.75 101.8125 C40.6201171875 101.54566406250001 41.490234375 101.27882812500002 42.38671875 101.00390625 C52.65795765385349 98.10996594570258 61.381744761978666 98.54709199946649 71.0625 103.25 C78.0865510457075 107.54443656898366 82.51272860940833 112.70780274465181 86.125 120.125 C86.63417968750002 121.16914062500001 87.14335937499999 122.21328125000002 87.66796875 123.2890625 C89.21815966955614 126.58050428437974 90.6850879730435 129.88299282299516 92.0625 133.25 C91.2258984375 133.2151953125 90.38929687500001 133.18039062499997 89.52734375 133.14453125 C82.83052364918325 132.9887912476554 76.99530566115226 133.30551953896025 70.4375 134.75 C58.43860805925817 137.361157831664 48.97700788817997 136.68459776279508 37.75 131.8125 C33.51687724488909 127.77626667535935 32.02740805126814 122.66773560512712 30.0625 117.25 C29.40130264977006 115.58115600301551 28.736555698694758 113.9136920199602 28.0625 112.25 C27.07249999999999 112.25 26.082499999999982 112.25 25.0625 112.25 C25.095060097616624 120.04814337917253 26.758971023697086 125.43394511422241 32.0625 131.25 C40.65810413522604 138.76295170598002 50.139895234855544 140.7745435434199 61.328125 140.5546875 C66.5432271749089 140.12918753175427 71.5016248345467 139.1021752293122 76.58984375 137.90625 C81.7028586563099 136.9400109625871 85.82101090708812 136.87755327212642 90.8125 138.375 C91.88499999999999 138.66375 92.95749999999998 138.9525 94.0625 139.25 C95.05250000000001 138.59000000000003 96.04250000000002 137.93 97.0625 137.25 C95.74757939134412 125.32179162147895 88.16446499501643 111.05251125498626 78.90625 103.48828125 C64.3393290276681 93.18667446648442 44.391122928571065 92.37640302465707 29.0625 102.25 Z M-169.9375 100.25 C-170.26749999999998 100.57999999999998 -170.5975 100.91 -170.9375 101.25 C-170.69958178438662 108.50650557620816 -170.69958178438662 108.50650557620816 -167.375 111.75 C-166.570625 112.245 -165.76625 112.74000000000001 -164.9375 113.25 C-163.6175 112.59000000000003 -162.2975 111.93 -160.9375 111.25 C-161.38306133731663 106.2003048437447 -163.49563600997612 103.77381313264351 -166.9375 100.25 C-167.9275 100.25 -168.91750000000002 100.25 -169.9375 100.25 Z M-95.9375 107.25 C-95.9375 107.90999999999997 -95.9375 108.57 -95.9375 109.25 C-95.65028076171876 109.24738159179685 -95.65028076171876 109.24738159179685 -94.19677734375 109.234130859375 C-91.56869623032603 109.21321423556276 -88.94063270710342 109.20029341373413 -86.3125 109.1875 C-85.86068359375 109.18331054687502 -85.86068359375 109.18331054687502 -83.57421875 109.162109375 C-78.90845711478244 109.14508104786415 -74.52736714753166 109.28170576787954 -69.9375 110.25 C-70.26749999999998 109.25999999999999 -70.5975 108.26999999999998 -70.9375 107.25 C-78.57055132126038 104.0271561088012 -88.35151641923369 103.87845174188163 -95.9375 107.25 Z M-141.98828125 123.4609375 C-143.5963040804796 126.49169657966934 -143.438944737754 128.92792861237967 -142.9375 132.25 C-141.8125 134.1875 -141.8125 134.1875 -139.9375 135.25 C-136.43877633385668 135.77108650346815 -134.64747601907334 135.69133644428882 -131.625 133.8125 C-129.21041760566493 130.1459119197134 -128.58986315300965 126.62029179073585 -128.9375 122.25 C-130.93118076916443 119.71955902375288 -132.28487493025446 119.40060578532587 -135.375 118.6875 C-138.57006752126608 119.38885628515595 -140.04335588893755 120.87179395940586 -141.98828125 123.4609375 Z M20.0625 124.25 C19.869140625 124.5400390625 19.869140625 124.5400390625 18.890625 126.0078125 C17.81370162498098 127.62319756252856 16.73552188431057 129.2377455786488 15.65625 130.8515625 C14.708841493845057 132.27731941857627 13.768536626247624 133.70790448603736 12.84375 135.1484375 C10.269334532374103 139.14658273381292 10.269334532374103 139.14658273381292 8.0625 140.25 C8.0625 138.93 8.0625 137.61 8.0625 136.25 C7.402500000000003 136.25 6.742500000000007 136.25 6.0625 136.25 C4.08250000000001 140.53999999999996 2.102499999999992 144.82999999999998 0.0625 149.25 C1.052500000000009 149.57999999999998 2.0424999999999898 149.90999999999997 3.0625 150.25 C10.5878359978025 146.48733200109876 16.513146866250167 138.92165638157212 20.0625 131.4375 C21.080320657501204 128.1931966542149 21.024855778174583 127.3308750954061 20.0625 124.25 Z M107.0625 146.25 C107.43580824054197 148.97574270871905 107.85444601150965 150.05822084781863 109.91015625 151.953125 C110.27560546874997 152.208359375 110.27560546874997 152.208359375 112.125 153.5 C112.85847656250002 154.02078125000003 113.59195312499997 154.5415625 114.34765625 155.078125 C114.63060546874999 155.271484375 114.63060546874999 155.271484375 116.0625 156.25 C116.72250000000003 155.91999999999996 117.3825 155.59000000000003 118.0625 155.25 C116.57947598472168 150.800927954165 112.97964498527654 148.50420607643275 109.0625 146.25 C108.40249999999997 146.25 107.7425 146.25 107.0625 146.25 Z M56.38671875 150.375 C51.414113539138725 151.68388785808804 46.891214491110304 152.00778295573292 42.1875 149.75 C37.80664638876215 147.9721390199054 33.745843745939396 147.4277335407893 29.0625 148.25 C25.726496326653773 150.3083852452562 24.2362823997272 151.98932640040914 22.0625 155.25 C19.3046875 155.98828125 19.3046875 155.98828125 15.9375 156.5625 C7.961387970458077 158.23889522744798 2.649818440120697 161.47508750606448 -1.9375 168.25 C-3.150108772922465 171.88782631876745 -3.332945517900214 174.42735999363117 -2.9375 178.25 C-1.25 181.125 -1.25 181.125 2.0625 183.25 C5.366374499352617 183.70687381040983 8.57166760730081 183.87510709821612 11.90625 183.9140625 C15.483243619561676 184.29478211792366 17.267692098178202 185.00136054378072 20.0625 187.25 C21.25 189.58984375 21.25 189.58984375 22.0625 192.1875 C23.463182280442197 196.6521747689094 25.009803017556067 198.80287969092865 29.0625 201.25 C31.83165335150136 201.74710572279156 34.04330803526153 201.9626377954885 36.8125 201.9375 C37.57457763671874 201.93677490234376 38.336655273437486 201.9360498046875 39.121826171875 201.935302734375 C49.59151139915559 201.58006462645562 59.57398249632911 198.15495424114664 69.485595703125 195.006103515625 C73.66036221262004 193.78116255116208 77.29527677542222 193.1137992213503 81.64453125 193.3984375 C97.4281013103826 194.1516827467376 97.4281013103826 194.1516827467376 101.6875 190.5625 C103.32421875 188.65234375 103.32421875 188.65234375 105.0625 186.25 C105.93905804720191 185.18470772887667 106.82100713841027 184.12383847322337 107.70703125 183.06640625 C115.83831625387614 173.12392070276655 115.83831625387614 173.12392070276655 116.0625 168.25 C112.79867603294923 162.5383080576612 108.93147217412456 161.16280643113157 102.828125 159.171875 C96.13030687242815 156.93926895747603 90.23501586717714 153.22353809660115 84.26171875 149.51953125 C75.57377890021155 144.50429066175627 65.28272019853432 147.39933401024632 56.38671875 150.375 Z M178.0625 153.25 C178.72250000000003 153.90999999999997 179.3825 154.57 180.0625 155.25 C180.0625 154.59000000000003 180.0625 153.93 180.0625 153.25 C179.40249999999997 153.25 178.7425 153.25 178.0625 153.25 Z M131.0625 156.25 C131.0625 157.57 131.0625 158.89 131.0625 160.25 C132.3825 160.90999999999997 133.7025 161.57 135.0625 162.25 C135.72250000000003 160.93 136.3825 159.61 137.0625 158.25 C134.0625 156.25 134.0625 156.25 131.0625 156.25 Z M172.0625 156.25 C171.73250000000002 156.745 171.73250000000002 156.745 170.0625 159.25 C170.72250000000003 159.58000000000004 170.72250000000003 159.58000000000004 174.0625 161.25 C174.72250000000003 159.93 175.3825 158.61 176.0625 157.25 C174.7425 156.91999999999996 173.4225 156.59000000000003 172.0625 156.25 Z M149.0625 163.25 C149.0625 164.57 149.0625 165.89 149.0625 167.25 C150.3825 166.91999999999996 151.7025 166.59000000000003 153.0625 166.25 C152.40249999999997 165.26 151.7425 164.26999999999998 151.0625 163.25 C150.40249999999997 163.25 149.7425 163.25 149.0625 163.25 Z M132.8125 174.25 C132.235 174.90999999999997 131.65750000000003 175.57 131.0625 176.25 C131.72250000000003 176.90999999999997 132.3825 177.57 133.0625 178.25 C135.2265625 178.0078125 135.2265625 178.0078125 137.6875 177.375 C138.504765625 177.171328125 139.32203125 176.96765625 140.1640625 176.7578125 C140.79054687500002 176.59023437500002 141.41703124999998 176.42265625 142.0625 176.25 C142.0625 175.59000000000003 142.0625 174.93 142.0625 174.25 C138.3083205507051 171.74721370047007 136.32188176375058 171.1305495433328 132.8125 174.25 Z M-21.9375 179.25 C-22.416270759914084 183.36742853526107 -22.259153742829 184.83006316908438 -19.6875 188.1875 C-16.9375 190.25 -16.9375 190.25 -14.625 190.0625 C-12.9375 189.25 -12.9375 189.25 -12.125 187.0625 C-11.9375 184.25 -11.9375 184.25 -14.0625 181.4375 C-16.9375 179.25 -16.9375 179.25 -19.75 178.9375 C-20.110937500000006 178.9890625 -20.110937500000006 178.9890625 -21.9375 179.25 Z " fill="#000000" transform="translate(243.9375,149.75)"/>
<path d="M0 0 C-2.2147408838922615 2.7039190888296503 -3.390931260339073 3.893824503491544 -6.890625 4.50390625 C-7.444921875000006 4.513574218749994 -7.444921875000006 4.513574218749994 -10.25 4.5625 C-17.126896887831435 4.857121496761863 -23.56724793861281 5.92073621364537 -30.30859375 7.28125 C-33.85161704114691 7.971108503249752 -37.426718536108126 8.489531219444018 -41 9 C-36.05000000000001 9 -31.099999999999994 9 -26 9 C-35.59554522324302 16.67643617859443 -45.68407540724047 24.07648473247724 -57 29 C-46.206370041253166 27.39286024511307 -36.976657763528266 19.790270818968906 -28.6796875 13.13671875 C-22.107250173206324 7.896014350938572 -14.423501119174091 6.14045906947203 -6 7 C-4.978954488452359 7.978501948566475 -3.9793879038009266 8.979804266874055 -3 10 C-0.6728399973293904 10.374007857572053 1.6611786151812566 10.707647326897643 4 11 C4.990000000000009 11.660000000000025 5.980000000000018 12.319999999999993 7 13 C4.415617024671974 21.317554403354507 -4.520315109540718 27.787515613591893 -11.931640625 31.952880859375 C-19.093882147152243 35.578807900039635 -26.473074154606053 36.62509265188328 -34.375 37.4375 C-42.99910536490563 38.405654608298505 -51.402145089447146 39.724103017080665 -59.84716796875 41.730224609375 C-64.35765130238124 42.77640757865396 -68.36634842050097 43.17657804967865 -73 43 C-75.06544451298578 35.851155641947344 -72.29286408098997 31.010181473742705 -69.125 24.5625 C-68.898125 24.063310546875016 -68.898125 24.063310546875016 -67.75 21.537109375 C-61.71395080232466 8.994990755240167 -52.012600276933824 2.7636015225354242 -39.24609375 -2.03515625 C-25.78411935404756 -6.248146781484394 -13.261312390417174 -3.3339326323832097 0 0 Z M-9 13 C-10.3125 14.9375 -10.3125 14.9375 -12 18 C-12.215273437500002 18.385429687499993 -12.215273437500002 18.385429687499993 -13.3046875 20.3359375 C-14.543016943146881 22.553736559195215 -15.77383642033405 24.775458169696947 -17 27 C-13.1953125 26.2578125 -13.1953125 26.2578125 -11.4375 23.9375 C-9.686660020560964 20.35969656375505 -8.335772501337516 16.752884646614916 -7 13 C-7.659999999999997 13 -8.319999999999993 13 -9 13 Z M-24 20 C-24.329999999999984 21.649999999999977 -24.659999999999997 23.30000000000001 -25 25 C-24.340000000000003 25 -23.680000000000007 25 -23 25 C-22.670000000000016 23.680000000000007 -22.340000000000003 22.360000000000014 -22 21 C-22.659999999999997 20.670000000000016 -23.319999999999993 20.339999999999975 -24 20 Z " fill="#000000" transform="translate(252,249)"/>
<path d="M0 0 C2.6875 0.3125 2.6875 0.3125 5 1 C5.329999999999984 1.990000000000009 5.660000000000025 2.9799999999999898 6 4 C3.0299999999999727 3.670000000000016 0.060000000000002274 3.339999999999975 -3 3 C-2.009999999999991 2.009999999999991 -1.0200000000000102 1.0200000000000102 0 0 Z " fill="#000000" transform="translate(253,253)"/>
</svg>
