<svg xmlns="http://www.w3.org/2000/svg" viewBox="0 0 512 512"><path d="M492.53 227.18c-.52-.74-1.03-1.46-1.53-2.18-11.81-16.91-25.1-32.32-41.43-45.05q-2.15-1.62-2.57-1.95c-5.67-4.47-11.21-8.72-17.62-12.06-2.88-1.48-5.36-2.93-7.9-4.94-4.2-3.59-7.7-6.34-12.98-8.12-2.78-.88-5.21-1.7-7.71-3.2-4.75-3.18-9.48-5.46-14.84-7.4q-2.15-.75-2.57-.9c-12.75-4.52-25.51-7.56-38.95-8.89-14.94-1.43-29.53-3.54-44.2-6.77-4.28-.94-8.57-1.87-12.87-2.78-1.95-.41-3.91-.83-5.86-1.24-8.86-1.95-16.8-3.43-25.84-2.25-14.32 2.65-26.1 1.04-40.04-2.5-6.5-1.69-12.67-3.34-19.43-3.09-10.89.73-21.7 1.54-32.44 3.57-.87.17-1.72.34-2.57.51-4.57.91-9.03 1.95-13.45 3.44-2.57.9-5.14 1.74-7.76 2.52-6.59 1.95-12.93 4.17-19.25 6.85-1.08.47-2.12.92-3.17 1.37-14.2 6.08-28.45 12.15-42.17 19.26-5.18 2.69-10.11 5.01-15.83 6.36-12.31 2.69-19.22 8.81-27.96 17.68-15.75 16.29-30.18 34.7-29.88 58.39.95 31.4 15.03 63.91 37.74 85.8.87.81 1.71 1.6 2.55 2.39 28.75 27.58 66.19 45.57 104 57.09l3 .91c15.89 4.87 31.81 9.21 48.12 12.43q1.88.37 2.25.44c5.04 1.01 10.08 1.94 15.15 2.74.84.13 1.66.26 2.47.39 21.41 3.47 42.72 3.44 64.35 3.34 3.94-.02 7.88-.03 11.82-.02 52.29.07 118.72-2.64 162.32-35.35 1.36-1.06 2.71-2.11 4.09-3.14 8.31-6.2 15.99-12.78 23.08-20.37.46-.49.9-.97 1.34-1.45 7.06-7.57 11.87-15.53 16.08-24.91.31-.71.62-1.4.92-2.09 3.5-7.88 6.22-15.09 6.75-23.75.04-3.12-.11-5.5 1.24-8.31.34-.66.68-1.3 1.01-1.94 2.6-18.98-7.04-35.9-17.47-50.82ZM203.12 328c-4.73-.24-8.24-.36-12.7 1.45-3.21 1.46-5.82 2.05-9.32 2.33q-1.7.09-2.04.1c-2.71.14-5.34.17-8.06.12-8.1-1.27-13.51-7.19-18.62-13.12-3.39-4.11-6.57-7.21-11.64-9.08-8.16-2.41-13.39-5.11-18.73-11.8 1.34-3.17 2.34-6.18 3-9.56.46-2.37.99-4.42 1.94-6.65q1.38-2.33 6.06-3.79c4.2-.98 8.52-1.54 11.68-4.64 2.72-3.34 4.59-5.1 8.74-6.55 9.67-2.16 17.21-2.07 26.21 2.32 1.15.64 2.26 1.26 3.38 1.88 2.15-10.19 6.56-14.77 14.94-20.62 15.96-9.67 32.22-9.8 50.09-6.03q2.48.55 2.97.66c-.45-.82-.88-1.62-1.31-2.41-.57-1.09-1.13-2.15-1.69-3.21-2.34-4.39-3.36-7.38-3-12.38 3.55 4.05 5.74 8.24 8 13.06 1.78 3.82 3.3 7.19 6.2 10.29q1.8 1.64 2.55 3.89c.09.59.17 1.17.25 1.75l4 1q0 4-1.56 6.25c-.83.93-1.63 1.84-2.44 2.75-1.65 2.02-3.31 4.01-5.04 5.96-9.23 9.62-21.36 16.67-34.83 17.07-.73 0-1.43-.02-2.13-.03 1.79 4.69 3.69 8.97 2.12 13.94-1.19 3.51-1.09 6.25-.69 9.94.23 1.7.42 3.41.56 5.12-1.35 2.69-3.01 4.74-5 7q-4.36 3.47-13.88 3Zm-88.5-76c-5.61 2.24-10.63 2.62-16.62 2q-3-1-4.44-3.31c-1.64-2.83-3.09-4.55-5.56-6.69-2.13-1.05-4.19-2.1-6.23-3.33q-2.79-2.63-3.59-9.89c-.06-.95-.12-1.87-.18-2.79-.3-2.88-.3-5.07 0-8 2.01-3.6 4.51-5.42 7.94-7.56 1.37-.79 2.72-1.6 4.06-2.44 10.09-8.73 23.78-13.1 37-12.23 3.53.25 6.51.25 9.89-.75 7.81-2.57 14.67 2.25 20.46 7.26.6.54 1.19 1.07 1.78 1.59 2.26 1.97 3.96 3.77 5.88 6.12.5 3.2.48 4.99-.91 7.91-2.09 2.89-3.14 4.38-2.9 8.03.99 3.72 2.13 7.19 1.81 11.06-2.27 5.2-5.95 8.29-10.88 10.94-6.39 2.81-11.25 3.82-18.06 1.62-7.18-2.36-12.39-2.37-19.44.44Zm-2.31 31.56c-3.02 1.88-4.81 1.96-8.31 1.44q-1.88-1.06-3-3c-.5-3.32-.66-5.76.95-8.79 1.94-2.59 3.42-4.07 6.61-4.77 3.09.71 4.44 1.03 6.44 3.56.35 4.37-.27 7.9-2.69 11.56M83 261l-4 2c-.83-.51-1.63-1.01-2.44-1.5Q73.24 258.26 73 251l1-1h3c3.44 3.52 5.55 5.95 6 11m35-69c2.4-1.52 4.1-3 7-3v3l-6 2zm20-9c2.98-1.32 5.7-3 9-3q1.62 1.5 3 3c-.34.51-.67 1.01-1 1.5q-2.49 1.87-10 1.5zm126.62 1.88q.38 2.12-1.44 5-2.39 3.62-2.62 11.38v3.64q-.57 3.11-2.93 5.01c-3.72 1.55-6.59 1.51-10.54.71-6.06-1.33-12.05-2.05-18.22-2.61-4.03-.34-8.06-.56-11.99-1.51-4.13-1.16-7.62-1.69-11.87-1.46q-1.68.13-2.01.16c-5.85.42-10.67 1.35-16 3.81-1.04.49-2.05.96-3.06 1.44-3.54.68-5.17-.13-8.12-2.11-.62-.45-1.21-.89-1.81-1.33-2.02-1.34-3.88-2.7-5.7-4.3q-1.3-1.7-1.55-5.64c.34-3.41.19-4.21-1.25-7.62-1.66-3.8-1.9-6.33-1.5-10.44q2-2 3.99-3.08c3.09-1.56 6.1-2.87 8.4-5.51q1.11-1.6 3.61-4.41c9-4.04 18.85-1.57 27.69 1.56 5.31 1.9 9.65 3.1 15.31 2.44q2.25-1.13 7.36-1.14c.71 0 1.39 0 2.08.01 3.72-.02 6.99-.07 10.56 1.12 2.58 2.28 4.77 4.49 7.96 5.82 5.89 1.96 9.53 4.28 13.67 9.05ZM254 165v-4q4 0 6.19 1.25c2 1.93 2.44 3.04 2.81 5.75q-2.25 0-9-3m10 58q-.29 1.95 0 8 3 0 5.56-1.69c7.17-4.97 13.67-7.89 22.44-8.31l-1 3c-.81.31-1.59.62-2.37.92-5.68 1.53-10.33 3.25-15.13 6.7-2.23 1.7-4.3 3.27-6.78 4.59q-1.44.66-1.72.79 1 2 2.06 5.12.78 2.4.94 2.88h3c1.86-1.86 3.23-3.68 4.75-5.81 2.19-3.11 4.61-5.65 7.58-8.04 7.44-5.13 17.01-6.91 25.79-5.54.64.13 1.26.26 1.88.39v-5q-2.2-1.1-8.31-1.94c-2.24-.3-4.47-.66-6.69-1.06-5.44-1.8-7.61-4.58-10.44-9.5q-.56-2.5.75-5c1.78-2.64 2.44-4.35 2.69-7.5q-2-3-2.81-5.44-.19-2.56 1.02-4.55c4.48-5.01 10.85-7.18 17.42-7.7 2.59-.12 5-.23 7.53-.8 6.52-1.89 12.46-2.59 18.91-.2 7.2 3.09 13.19 5.09 21 5.62 2.28.14 4.54.33 6.81.6 4.74 1.02 8.3 3.3 11.13 7.27q2 3.19 3.8 4.95c1.84 1.69 3.59 3.33 5.2 5.23q.5 2.88 0 5-1 1-2.89 1.43c-3.46.65-6.77 1.46-10.11 2.57q-2.27 2.27-2.69 7-.07 2.62-.31 5-2 3-5.19 4.38c-2.08.81-3.79 1.61-5.62 2.89-3.71 2.87-6.32 4.63-11.2 4.73-4.35-1.61-8.03-2.26-12.62-2.43-5.42-.15-10.79-.33-16.16-1.14-3.08-.58-6.1-1.11-9.22-1.43-7.75.5-15.27 2.93-20.5 8.81-1.98 2.66-4.14 4.68-6.69 6.81-2.18 1.78-3.62 3.01-4.93 5.52-.3.63-.59 1.24-.89 1.85q-2.25 1.12-9 0c1.61-2.51 2.04-4.31 2.38-7.31-.54-5.32-2.6-8.72-6.14-12.65-16.01-14.63-37.76-18.14-58.6-18.93-1.23-.04-2.43-.08-3.63-.11 3.22-2.14 6.14-2.23 9.94-2.23.76.01 1.51.03 2.25.04 12.17.15 25.39.73 35.94 7.56q4.29 3.01 15.88 8.62c.51-3.03.82-4.76 2.69-7.25 2.78-2.1 4.88-2.44 8.31-2.75v11h-3v-7l-3 2Zm16-50v-3q2-1 3-1l2 4-2 1zm129.81 70.22 3.19.78c2.78.66 5.57 1.33 8.35 2.01.84.21 1.65.41 2.47.61 5.15 1.22 9.47 2.39 13.19 6.38q.53 2.4.21 7.54c-.07.84-.14 1.65-.21 2.46l.06 3.31q-1.19 3.02-5.56 5.31-2.47 1.1-4.5 2.38-.87 2.06-1 4l1.38 1.38 1.62 1.62q1.12 2.69 1 6c-2.76 4.79-6.31 8.12-11.5 10.06-5.35 1.37-9.24 1.07-14.25-1.44-9.22-4.88-15.28-6.47-25.5-4.5-4.67.92-9.15 1.9-13.92 1.85-4.47-.69-6.26-1.28-9.2-4.84-1.6-3.08-3.08-4.81-5.62-7.12-3.66-2.47-5.35-4.41-7-8.44q-.95-2.4-2-4.56-2.75-2.56-5-5c-.96-4.71-.12-8.73 2-13 3.84-3.97 8.23-6.99 13.5-8.69 3.24-.9 6.1-2.02 9.12-3.5q8.68-4.44 49.19 5.41ZM390 215l9 3v3c-3.05.93-4.42 1.3-7.31-.19Q390 219 390 215m34 25v-3h2l1 3zm-64 66q-1.43-.98-1.71-1.17l-2.22-1.58q-1.85-1.29-2.21-1.55c-2.06-1.89-2.47-2.98-2.85-5.7h2c3.92 2.25 7.52 4.55 9 9l-2 1Zm16.75 18c3.51-3.12 5.5-2.5 9.25 0v2c-.65.17-1.27.34-1.9.51-.84.21-1.66.41-2.48.62q-2.46.63-4.62.88l-2-2c.6-.68 1.17-1.34 1.75-2ZM375 310v-4q3 0 6 2l-2 4zm18 7v-4h2l2 3zm21-8q1.67-2.51 2-3l4 1-2 4zm8-6h2v2zm-90.39-29.96c-.52-1.08-1.03-2.12-1.54-3.16-3.61-7.42-8.04-12.58-15.06-16.88-9.68-4.7-18.4-5.14-28.68-2.25-.9.27-1.77.54-2.64.81L279 253c12.56 3.3 25.52 6.93 37.03 13.05 5.14 2.95 9.22 4.96 10.97 10.95-5.92-4.57-12.26-7.78-19-11 1.68 3.26 2.89 6.5 4 10q-1.53-1.47-3-3c-5.52-7.54-11.11-10.22-20-13 .46.93.9 1.83 1.35 2.74.58 1.22 1.15 2.39 1.71 3.57 1.89 3.9 3.33 5.51 1.94 9.69-.71-1.15-1.42-2.29-2.12-3.44-.97-1.51-1.93-3.04-2.88-4.56-1.28-2.44-2.6-4.77-4.11-7.08q-2.95-3-10.7-4.58c-.75-.12-1.47-.23-2.2-.34q.18-1.84 1-4c15.33-9.87 35.28-9.06 49.84 1.24 9.26 7.56 16.84 21.83 18.16 33.76l-3 2c-1.1-.3-2.18-.59-3.25-.88-4.99-1.5-9.11-1.43-14.22-.47-5.09 1.2-10.05 2.22-15.26 2.65-11.19.22-20.67-1.79-29.27-9.3-5.3-5.82-6.97-11.2-7-19h3c.67 1.66 1.34 3.33 2 5 1.96 5.42 3.45 10.53 7.69 14.56 11.23 4.87 20.69 5.55 32.69 2.94 6.56-1.44 12.39-1.76 19.09-1.61.86.04 1.7.07 2.54.11a210 210 0 0 0-4.39-9.96m-135.5-46.53c-.72.17-1.42.33-2.11.49l-1-2q2.31-1.16 11.58-2.25 3.17-.36 3.8-.44c1.28-.16 2.53-.32 3.77-.47 1.23-.14 2.43-.28 3.62-.42 3.22-.38 5.39-.78 8.39.5.63.37 1.23.72 1.84 1.08 6.42 1.42 11.37 3.58 17 7l-3 1c-13.22-4.87-29.92-6.96-43.89-4.49M227 232v3l-2-4zm-56 9q1.67-2.51 2-3l3 1v3q-4.17-.84-5-1m3 19c-4.59-.97-8.97-1.1-13.64-1.09q-2.29.02-2.74.03c-2.63.01-5.26.03-7.88.05q-1.45.01-1.74.02v-2c7.59-3.37 17.37-3.22 25 0l1 3Zm0-34c-1.82-1.63-3.39-3.14-5-5q.19-2.31 1-4h4q0 4 1.58 5.82c.76.63 1.49 1.25 2.23 1.86.85.71 1.67 1.4 2.5 2.09.91.75 1.8 1.49 2.69 2.22 6.56 5.86 12.48 10.1 20.76 13.22.76.26 1.5.52 2.24.78l-1 2c-.85.09-1.67.17-2.5.25q-10.02-.72-25.31-15.94c-1.06-1.11-2.12-2.21-3.19-3.31Zm42-9h3l1 3zm11 2 3 1-2 1zm29.78 65.9c.92-1.44 1.87-2.87 2.81-4.3 1.08-1.61 2.16-3.23 3.23-4.84l1.17-1.76c.96 3.08 1.02 3.94 0 7.19-3.55 7.48-9.47 15.05-17 18.81l-3-1 6-13h2v4q2.21-1.1 4.78-5.1Zm-24.97 51.91q-.81 2.19-2.5 3-2.31.19-5.06-1.88c-2.57-3.36-2.73-4.82-2.25-8.94l2.19-.31q2.81.31 5.69 2.5 2.12 2.81 1.94 5.62Zm81.61 7.95c-9.91 3.15-19.89 6.57-30.36 6.93h-2.31c-2.77.03-4.98-.19-7.75-.69-4.05-2.45-5.6-4.6-7-9.06q-.81-2.6-2-4.94c-2.79-2.25-4.58-2.96-8.16-3.34-3.33-.04-6.54-.21-9.84-.66q-3.31-2.12-5-5c-.4-3.82-.21-6.36 1-10 4.59-6.77 9.9-10.01 17.88-11.69q3.37-.57 6.12-1.31c2.17-3.26 3.66-4.94 7-7 4.68-.82 8.74-.28 13.12 1.5 4.7 2.26 9.23 1.93 14.2.62 8.9-2.98 19.19-5.87 27.88-.86 5.97 3.7 11.87 7.42 18.57 9.65 6.1 1.99 9.97 3.37 13.23 9.08q-.22 4.87-8.36 14.82-1.335 1.59-2.64 3.18-1.74 2.4-3.38 4.31-4.26 3.59-20.04 2.84c-4.35-.28-7.98.38-12.16 1.61ZM475 276c-3.35 1.43-6.48 2.62-9.44 4.75q-2.05 2.95-1.56 9.25l6 3c.46 3.9-.31 6.07-2.62 9.21-.47.61-.92 1.2-1.38 1.79-1.84 2.49-3.71 4.93-5.67 7.34-8.89 10.15-16.72 16.3-30.33 17.35-2 .08-4 .18-6 .31-6.87 3.44-13.96 7.2-18.75 13.31-.44.65-.87 1.29-1.3 1.93-2.89 2.61-6.42 3.89-10.13 4.53a166 166 0 0 0 29.2-23.41c3.03-1.65 5.96-3.34 8.79-5.39 3.62-3.24 6.87-7.16 7.45-12.13.14-5.09.97-7.57 4.31-11.52 4.29-4.98 7.84-10.11 10.93-15.91 2.36-5.31 2.83-9.88.78-15.36-1.35-2.93-2.3-4.63-2.02-7.92.43-1.8.83-3.61 1.12-5.43.11-.83.21-1.64.32-2.45.11-.78.22-1.54.32-2.3q-.01-1.95-2.01-3.95c-2.69-1.8-5.3-3.63-7.85-5.63-2.54-2.79-2.8-4.03-2.71-7.74.19-1.54.38-3.08.56-4.62-2.28-4.55-6.8-7.39-11.21-9.63-1.18-.57-2.33-1.13-3.47-1.68-4.42-2.26-6.86-3.56-8.5-8.31-.25-.78-.5-1.54-.75-2.3q-1.59-3.1-8.49-6.02-2.58-1.05-4.66-2.17c-3.69-2.05-7.01-3.22-11.17-4.01-6.19-.97-9.55-3.31-13.75-7.88-1.92-2.55-3.89-4.89-6.12-7.18q-4.33-2.75-13.38-2.19c-4.8.36-7.34-.05-11.68-2.22-5.79-2.92-11.03-5.74-17.62-6.09-2.77-.05-4.91-.21-7.52-1.2-5.23-2.45-9.59-3.56-15.35-3.67-9.95-.03-19.53-1-29.33-2.63-2.56-.43-5.13-.84-7.7-1.2-.94-.13-1.85-.25-2.77-.37-1.8-.25-3.59-.5-5.39-.74-4.46-.57-8.27-1.1-12.38-3.02q-2.75-1.48-5.34-2.25c-.84-.16-1.65-.32-2.46-.48-3.65-.76-6.33-.73-9.94.25-7.08 3.85-14.09 3.48-22 3q-3-1-5.95-.64c-2.24.37-4.46.68-6.73.91-1 .09-1.97.18-2.95.27-2.09.21-4.17.43-6.26.64-6.5.55-11.64 1.1-17.08 4.9-.69.55-1.36 1.09-2.03 1.62-3.46 2.22-7.06 1.89-11.01 1.29q-1.89-.59-4-1c-3.41.25-5.44.59-8.21 2.63-6 5.36-10.54 6.03-18.26 5.64-2.65-.16-5.14-.33-7.77.1-8.48 3.03-14.96 7.62-19.89 15.19q-1.425 2.22-2.88 4.44c-3.72 4.85-6.8 5.66-12.58 6.63-4.25.65-7.15 1.32-10.52 4.11-4.18 4.16-6.35 7.23-6.83 13.2-.03 2.79.19 4.56-1.06 7.06-1.58 1.09-3.15 2.19-4.64 3.4q-2.04 2.39-2.27 8.16l-.09 2.44c-1.14 7.19-.74 12.8 1.12 19.89.3 1.06.59 2.09.88 3.11 1.26 5.21 2.46 8.79 6.38 12.56 1.92 1.73 3.49 3.24 4.91 5.4 2.22 3.91 4.33 6.79 7.78 9.72 2.18 1.74 3.97 3.36 5.74 5.53.91 1.15 1.84 2.26 2.78 3.36 5.2 9.74 10.84 19.24 18.09 27.56 2.88 3.3 5.98 6.37 9.24 9.27-6.51-2.5-11.68-6.91-16.66-12.6-.76-.87-1.5-1.72-2.25-2.57-4.35-4.87-7.46-6.35-13.88-6.74-3.94-.22-7.19-.59-10.81-2.19-2.93-1.66-3.21-1.97-4.19-5.38l-.12-2.94q-2-3-4.24-3.62c-3.65-.52-6.78-.81-10.01-2.66q-2.53-2.48-3-8.5.25-2.21 2.69-4.89c.87-.79 1.72-1.55 2.56-2.31q.31-3.31 0-6h-3c-5.75-.61-8.68-3.42-12.31-7.75-2.36-4.54-2.41-8.27-1.19-13.31q.63-2.42.5-8.94c-.55-.26-1.08-.52-1.61-.77l-2.14-1.04c-3.02-1.46-5.61-3.11-8.25-5.19 4.73-2.1 9.78-4.04 13.69-7.49 2.68-3.65 2.66-7.14 2.31-11.51-4.15-1.81-6.22-2.82-8-7 4.93-2.02 10.65-3.76 14-8 .08-2.74-.19-5.25-.61-7.95q-.33-1.71-.39-2.05c4.38-2.32 8.65-4.56 13.38-6.09 2.26-.72 4.51-1.49 6.74-2.3 4.19-2.33 5.53-5.23 7.24-9.59.22-.68.43-1.35.64-2.01 4.57.74 8.52 1.69 12.81-.31q2.19-1.69 5-2.88c.74-.28 1.47-.54 2.19-.81q0-2 1.75-4.56 3.01-2.91 12.18-3.33c3.42-.12 6.79-.39 10.18-.81 3.49-.54 5.94-1.06 8.17-3.95.95-1.29 1.93-2.57 2.93-3.82q2.24-1.91 6.6-2.03c4.47-.11 6.51-1.13 9.94-4 3.4-2.9 5.58-4.71 10.25-4.5 5.33 2.66 8.09 3.39 14 3q2-1 3.12-3.56c.3-.83.59-1.63.88-2.44 6.14 1.05 12.21 1.22 18.44 1.38 5.46.1 10.77.27 16.14 1.33 10.65 2.3 20.74 2.63 31.62 2.47 2.9-.05 5.79-.08 8.69-.11 1.86-.02 3.73-.03 5.59-.05 6.93-.12 14.41-.76 20.53 2.99 8.18 5.63 13.56 6.98 23.4 5.68 1.86-.27 3.73-.48 5.6-.68l2 2c4.24 3.01 7.09 3.05 12.06 2.44q3.04-.5 5.94-.44c4.61 4.18 7.52 4.47 13.58 4.61 14.81.07 26.58 1.92 39.11 10.45 5.99 4.11 10.69 6.99 18.06 7.56 1.75.07 3.51.19 5.25.38 6.29 2.29 10.29 7.03 13.62 12.57 2.91 4.89 5.41 9.75 10.88 11.99 2.49.79 4.7 1.54 7.04 2.73 7.88 4.62 13.66 8.58 16.52 17.52q.72 2.83 1.94 5.19c3.55 1.17 5.51 1.13 7.4 4.47 1.43 4.43 2.79 8.44 5.59 12.2 4.05 4.66 7.13 8.48 8.62 14.54.92 6.5 2.14 14.18-1.61 19.79Z"/><path d="M252 249c-2.21 2.7-3.39 3.89-6.89 4.5q-.55 0-3.36.06c-6.88.29-13.32 1.36-20.06 2.72-3.54.69-7.12 1.21-10.69 1.72h15c-9.6 7.68-19.68 15.08-31 20 10.79-1.61 20.02-9.21 28.32-15.86 6.57-5.24 14.26-7 22.68-6.14q1.53 1.47 3 3c2.33.37 4.66.71 7 1l3 2c-2.58 8.32-11.52 14.79-18.93 18.95-7.16 3.63-14.54 4.67-22.44 5.48-8.62.97-17.03 2.29-25.47 4.29-4.51 1.05-8.52 1.45-13.15 1.27-2.07-7.15.71-11.99 3.88-18.44q.23-.5 1.38-3.03c6.04-12.54 15.74-18.77 28.5-23.57 13.46-4.21 25.98-1.3 39.25 2.04Zm-9 13q-1.31 1.94-3 5-.22.39-1.3 2.34c-1.24 2.22-2.47 4.44-3.7 6.66q3.8-.74 5.56-3.06c1.75-3.58 3.1-7.18 4.44-10.94zm-15 7-1 5h2l1-4z"/><path d="M253 253q2.69.31 5 1l1 3-9-1z"/></svg>