<?xml version="1.0" encoding="UTF-8"?>
<!-- Generator: visioncortex VTracer 0.6.12 -->
<svg version="1.1" xmlns="http://www.w3.org/2000/svg" width="512" height="512">
  <metadata>
                <![CDATA[
            {
  "prompt": {
    "4": {
      "inputs": {
        "vae_name": "ae.safetensors"
      },
      "class_type": "VAELoader",
      "_meta": {
        "title": "Load VAE"
      }
    },
    "5": {
      "inputs": {
        "clip_name": "qwen3_4b_fp8_scaled.safetensors",
        "type": "lumina2",
        "device": "default"
      },
      "class_type": "CLIPLoader",
      "_meta": {
        "title": "Load CLIP"
      }
    },
    "6": {
      "inputs": {
        "ckpt_name": "zEpicrealism_turboV1Fp8.safetensors"
      },
      "class_type": "CheckpointLoaderSimple",
      "_meta": {
        "title": "Load Checkpoint"
      }
    },
    "7": {
      "inputs": {
        "shift": 6.0,
        "model": [
          "6",
          0
        ]
      },
      "class_type": "ModelSamplingAuraFlow",
      "_meta": {
        "title": "ModelSamplingAuraFlow"
      }
    },
    "8": {
      "inputs": {
        "PowerLoraLoaderHeaderWidget": {
          "type": "PowerLoraLoaderHeaderWidget"
        },
        "lora_1": {
          "on": true,
          "lora": "MinimalistVectorArtZ.safetensors",
          "strength": 0.4
        },
        "lora_2": {
          "on": false,
          "lora": "None",
          "strength": 0.75
        },
        "\u2795 Add Lora": "",
        "model": [
          "7",
          0
        ],
        "clip": [
          "5",
          0
        ]
      },
      "class_type": "Power Lora Loader (rgthree)",
      "_meta": {
        "title": "Power Lora Loader (rgthree)"
      }
    },
    "9": {
      "inputs": {
        "text": "A bold, heavy solid black icon of a thick, squat stone mortar and pestle. Side profile. Highly simplified woodblock print aesthetic. The massive, thick-walled bowl and the short, chunky pestle form a single, substantial contiguous dark mass. The pestle is a thick, heavy black rectangle angled deeply into the bowl. Thick, bold white negative space is used sparingly to create: 1) a very thick, rugged white \"ring\" defining the heavy rim, and 2) three or four large, irregular white \"fleck\" shapes in the bottom of the black bowl mass to represent coarse dry rub. No fine dots, no smooth lines, heavy visual weight. Isolated on white. Optimized for a clean, single-boolean SVG silhouette.",
        "clip": [
          "8",
          1
        ]
      },
      "class_type": "CLIPTextEncode",
      "_meta": {
        "title": "Positive Prompt"
      }
    },
    "10": {
      "inputs": {
        "text": "blurry, bad, shadow",
        "clip": [
          "8",
          1
        ]
      },
      "class_type": "CLIPTextEncode",
      "_meta": {
        "title": "Negative Prompt"
      }
    },
    "11": {
      "inputs": {
        "seed": 765579379567218,
        "steps": 9,
        "cfg": 1.0,
        "sampler_name": "euler",
        "scheduler": "beta",
        "denoise": 1.0,
        "preview_method": "auto",
        "vae_decode": "true",
        "model": [
          "8",
          0
        ],
        "positive": [
          "9",
          0
        ],
        "negative": [
          "10",
          0
        ],
        "latent_image": [
          "27",
          0
        ],
        "optional_vae": [
          "4",
          0
        ]
      },
      "class_type": "KSampler (Efficient)",
      "_meta": {
        "title": "KSampler (Efficient)"
      }
    },
    "13": {
      "inputs": {
        "filename_prefix": [
          "35",
          0
        ],
        "images": [
          "11",
          5
        ]
      },
      "class_type": "SaveImage",
      "_meta": {
        "title": "Save Image"
      }
    },
    "27": {
      "inputs": {
        "dimensions": "512 x 512 (1:1)",
        "invert": false,
        "batch_size": 1
      },
      "class_type": "EmptyLatentImagePresets",
      "_meta": {
        "title": "Empty Latent Image Presets"
      }
    },
    "32": {
      "inputs": {
        "filename_prefix": [
          "35",
          0
        ],
        "svg": [
          "34",
          0
        ]
      },
      "class_type": "SaveSVGNode",
      "_meta": {
        "title": "SaveSVGNode"
      }
    },
    "33": {
      "inputs": {
        "mode": "spline",
        "filter_speckle": 4,
        "corner_threshold": 60,
        "length_threshold": 4.0,
        "splice_threshold": 45,
        "image": [
          "11",
          5
        ]
      },
      "class_type": "TS_ImageToSVGStringBW_Vtracer",
      "_meta": {
        "title": "Image to SVG String BW_Vtracer"
      }
    },
    "34": {
      "inputs": {
        "SVG_String": [
          "33",
          0
        ]
      },
      "class_type": "TS_SVGStringToSVGBytesIO",
      "_meta": {
        "title": "SVG String to SVG BytesIO"
      }
    },
    "35": {
      "inputs": {
        "value": "Icons/sauce-"
      },
      "class_type": "PrimitiveString",
      "_meta": {
        "title": "String"
      }
    }
  },
  "workflow": {
    "id": "b863a6d5-b1c1-49ed-82de-40ff658289d1",
    "revision": 0,
    "last_node_id": 35,
    "last_link_id": 44,
    "nodes": [
      {
        "id": 4,
        "type": "VAELoader",
        "pos": [
          -6219.535543743481,
          -970.8934870343326
        ],
        "size": [
          373.8333435058594,
          123.80000305175781
        ],
        "flags": {},
        "order": 0,
        "mode": 0,
        "inputs": [],
        "outputs": [
          {
            "name": "VAE",
            "type": "VAE",
            "links": [
              13
            ]
          }
        ],
        "properties": {
          "cnr_id": "comfy-core",
          "ver": "0.9.2",
          "Node name for S&R": "VAELoader"
        },
        "widgets_values": [
          "ae.safetensors"
        ]
      },
      {
        "id": 5,
        "type": "CLIPLoader",
        "pos": [
          -6634.5950750000675,
          -1114.7061549982152
        ],
        "size": [
          366.1666564941406,
          406.98333740234375
        ],
        "flags": {},
        "order": 1,
        "mode": 0,
        "inputs": [],
        "outputs": [
          {
            "name": "CLIP",
            "type": "CLIP",
            "links": [
              6
            ]
          }
        ],
        "properties": {
          "cnr_id": "comfy-core",
          "ver": "0.9.2",
          "Node name for S&R": "CLIPLoader"
        },
        "widgets_values": [
          "qwen3_4b_fp8_scaled.safetensors",
          "lumina2",
          "default"
        ]
      },
      {
        "id": 6,
        "type": "CheckpointLoaderSimple",
        "pos": [
          -7142.724710471413,
          -1274.3013669313325
        ],
        "size": [
          456,
          154.6666717529297
        ],
        "flags": {},
        "order": 2,
        "mode": 0,
        "inputs": [],
        "outputs": [
          {
            "name": "MODEL",
            "type": "MODEL",
            "links": [
              4
            ]
          },
          {
            "name": "CLIP",
            "type": "CLIP",
            "links": []
          },
          {
            "name": "VAE",
            "type": "VAE",
            "links": []
          }
        ],
        "properties": {
          "cnr_id": "comfy-core",
          "ver": "0.9.2",
          "Node name for S&R": "CheckpointLoaderSimple"
        },
        "widgets_values": [
          "zEpicrealism_turboV1Fp8.safetensors"
        ],
        "color": "#453f4f",
        "bgcolor": "#312b3b"
      },
      {
        "id": 7,
        "type": "ModelSamplingAuraFlow",
        "pos": [
          -6599.9781895109445,
          -1269.9313776848057
        ],
        "size": [
          270,
          104
        ],
        "flags": {},
        "order": 5,
        "mode": 0,
        "inputs": [
          {
            "name": "model",
            "type": "MODEL",
            "link": 4
          }
        ],
        "outputs": [
          {
            "name": "MODEL",
            "type": "MODEL",
            "links": [
              5
            ]
          }
        ],
        "properties": {
          "cnr_id": "comfy-core",
          "ver": "0.10.0",
          "Node name for S&R": "ModelSamplingAuraFlow"
        },
        "widgets_values": [
          6
        ]
      },
      {
        "id": 8,
        "type": "Power Lora Loader (rgthree)",
        "pos": [
          -6200.015026223777,
          -1269.9313776848057
        ],
        "size": [
          340.48333740234375,
          232
        ],
        "flags": {},
        "order": 6,
        "mode": 0,
        "inputs": [
          {
            "dir": 3,
            "name": "model",
            "type": "MODEL",
            "link": 5
          },
          {
            "dir": 3,
            "name": "clip",
            "type": "CLIP",
            "link": 6
          }
        ],
        "outputs": [
          {
            "dir": 4,
            "name": "MODEL",
            "shape": 3,
            "type": "MODEL",
            "links": [
              33
            ]
          },
          {
            "dir": 4,
            "name": "CLIP",
            "shape": 3,
            "type": "CLIP",
            "links": [
              7,
              8
            ]
          }
        ],
        "properties": {
          "cnr_id": "rgthree-comfy",
          "ver": "8ff50e4521881eca1fe26aec9615fc9362474931",
          "Show Strengths": "Single Strength"
        },
        "widgets_values": [
          {},
          {
            "type": "PowerLoraLoaderHeaderWidget"
          },
          {
            "on": true,
            "lora": "MinimalistVectorArtZ.safetensors",
            "strength": 0.4,
            "strengthTwo": null
          },
          {
            "on": false,
            "lora": "None",
            "strength": 0.75,
            "strengthTwo": null
          },
          {},
          ""
        ]
      },
      {
        "id": 9,
        "type": "CLIPTextEncode",
        "pos": [
          -5665.317947981528,
          -968.8656393627539
        ],
        "size": [
          495.1833190917969,
          389.6333312988281
        ],
        "flags": {},
        "order": 7,
        "mode": 0,
        "inputs": [
          {
            "name": "clip",
            "type": "CLIP",
            "link": 7
          }
        ],
        "outputs": [
          {
            "name": "CONDITIONING",
            "type": "CONDITIONING",
            "links": [
              9
            ]
          }
        ],
        "title": "Positive Prompt",
        "properties": {
          "cnr_id": "comfy-core",
          "ver": "0.9.2",
          "Node name for S&R": "CLIPTextEncode"
        },
        "widgets_values": [
          "A bold, heavy solid black icon of a thick, squat stone mortar and pestle. Side profile. Highly simplified woodblock print aesthetic. The massive, thick-walled bowl and the short, chunky pestle form a single, substantial contiguous dark mass. The pestle is a thick, heavy black rectangle angled deeply into the bowl. Thick, bold white negative space is used sparingly to create: 1) a very thick, rugged white \"ring\" defining the heavy rim, and 2) three or four large, irregular white \"fleck\" shapes in the bottom of the black bowl mass to represent coarse dry rub. No fine dots, no smooth lines, heavy visual weight. Isolated on white. Optimized for a clean, single-boolean SVG silhouette."
        ],
        "color": "#232",
        "bgcolor": "#353"
      },
      {
        "id": 10,
        "type": "CLIPTextEncode",
        "pos": [
          -5666.540362707875,
          -512.285028621371
        ],
        "size": [
          470,
          142
        ],
        "flags": {},
        "order": 8,
        "mode": 0,
        "inputs": [
          {
            "name": "clip",
            "type": "CLIP",
            "link": 8
          }
        ],
        "outputs": [
          {
            "name": "CONDITIONING",
            "type": "CONDITIONING",
            "links": [
              10
            ]
          }
        ],
        "title": "Negative Prompt",
        "properties": {
          "cnr_id": "comfy-core",
          "ver": "0.9.2",
          "Node name for S&R": "CLIPTextEncode"
        },
        "widgets_values": [
          "blurry, bad, shadow"
        ],
        "color": "#322",
        "bgcolor": "#533"
      },
      {
        "id": 11,
        "type": "KSampler (Efficient)",
        "pos": [
          -4910.9017263054975,
          -1342.4877841038808
        ],
        "size": [
          400.1000061035156,
          966.6666870117188
        ],
        "flags": {},
        "order": 9,
        "mode": 0,
        "inputs": [
          {
            "name": "model",
            "type": "MODEL",
            "link": 33
          },
          {
            "name": "positive",
            "type": "CONDITIONING",
            "link": 9
          },
          {
            "name": "negative",
            "type": "CONDITIONING",
            "link": 10
          },
          {
            "name": "latent_image",
            "type": "LATENT",
            "link": 37
          },
          {
            "name": "optional_vae",
            "shape": 7,
            "type": "VAE",
            "link": 13
          },
          {
            "name": "script",
            "shape": 7,
            "type": "SCRIPT",
            "link": null
          }
        ],
        "outputs": [
          {
            "name": "MODEL",
            "type": "MODEL",
            "links": null
          },
          {
            "name": "CONDITIONING+",
            "type": "CONDITIONING",
            "links": null
          },
          {
            "name": "CONDITIONING-",
            "type": "CONDITIONING",
            "links": null
          },
          {
            "name": "LATENT",
            "type": "LATENT",
            "links": null
          },
          {
            "name": "VAE",
            "type": "VAE",
            "links": null
          },
          {
            "name": "IMAGE",
            "type": "IMAGE",
            "links": [
              14,
              39
            ]
          }
        ],
        "properties": {
          "cnr_id": "efficiency-nodes-comfyui",
          "ver": "1.0.8",
          "Node name for S&R": "KSampler (Efficient)"
        },
        "widgets_values": [
          -1,
          null,
          9,
          1,
          "euler",
          "beta",
          1,
          "auto",
          "true"
        ],
        "color": "#223333",
        "bgcolor": "#335555",
        "shape": "box"
      },
      {
        "id": 13,
        "type": "SaveImage",
        "pos": [
          -4410.464751892896,
          -1351.9862052389306
        ],
        "size": [
          461.7833251953125,
          344
        ],
        "flags": {},
        "order": 10,
        "mode": 0,
        "inputs": [
          {
            "name": "images",
            "type": "IMAGE",
            "link": 14
          },
          {
            "name": "filename_prefix",
            "type": "STRING",
            "widget": {
              "name": "filename_prefix"
            },
            "link": 43
          }
        ],
        "outputs": [],
        "properties": {
          "cnr_id": "comfy-core",
          "ver": "0.17.2"
        },
        "widgets_values": [
          "Icons/apps-"
        ]
      },
      {
        "id": 27,
        "type": "EmptyLatentImagePresets",
        "pos": [
          -5662.144089872933,
          -1235.0977881573456
        ],
        "size": [
          285.0833435058594,
          214.6666717529297
        ],
        "flags": {},
        "order": 3,
        "mode": 0,
        "inputs": [],
        "outputs": [
          {
            "name": "Latent",
            "type": "LATENT",
            "links": [
              37
            ]
          },
          {
            "name": "Width",
            "type": "INT",
            "links": null
          },
          {
            "name": "Height",
            "type": "INT",
            "links": null
          }
        ],
        "properties": {
          "cnr_id": "comfyui-kjnodes",
          "ver": "c88ac88a8f8a6a090a0d5d607156090cb2911503",
          "Node name for S&R": "EmptyLatentImagePresets"
        },
        "widgets_values": [
          "512 x 512 (1:1)",
          false,
          1
        ]
      },
      {
        "id": 32,
        "type": "SaveSVGNode",
        "pos": [
          -3813.0751465917647,
          -782.3696102323707
        ],
        "size": [
          270,
          344
        ],
        "flags": {},
        "order": 13,
        "mode": 0,
        "inputs": [
          {
            "name": "svg",
            "type": "SVG",
            "link": 42
          },
          {
            "name": "filename_prefix",
            "type": "STRING",
            "widget": {
              "name": "filename_prefix"
            },
            "link": 44
          }
        ],
        "outputs": [],
        "properties": {
          "cnr_id": "comfy-core",
          "ver": "0.17.2",
          "Node name for S&R": "SaveSVGNode"
        },
        "widgets_values": [
          "Icons/apps-"
        ]
      },
      {
        "id": 33,
        "type": "TS_ImageToSVGStringBW_Vtracer",
        "pos": [
          -4400.388422461708,
          -795.4795779719508
        ],
        "size": [
          314.01666259765625,
          234.66665649414062
        ],
        "flags": {},
        "order": 11,
        "mode": 0,
        "inputs": [
          {
            "name": "image",
            "type": "IMAGE",
            "link": 39
          }
        ],
        "outputs": [
          {
            "name": "STRING",
            "shape": 6,
            "type": "STRING",
            "links": [
              41
            ]
          }
        ],
        "properties": {
          "cnr_id": "comfyui-tosvg",
          "ver": "1.0.1",
          "Node name for S&R": "TS_ImageToSVGStringBW_Vtracer"
        },
        "widgets_values": [
          "spline",
          4,
          60,
          4,
          45
        ]
      },
      {
        "id": 34,
        "type": "TS_SVGStringToSVGBytesIO",
        "pos": [
          -4063.447054927147,
          -778.4329695457014
        ],
        "size": [
          225,
          72
        ],
        "flags": {},
        "order": 12,
        "mode": 0,
        "inputs": [
          {
            "name": "SVG_String",
            "type": "STRING",
            "link": 41
          }
        ],
        "outputs": [
          {
            "name": "SVG",
            "type": "SVG",
            "links": [
              42
            ]
          }
        ],
        "properties": {
          "cnr_id": "comfyui-tosvg",
          "ver": "1.0.1",
          "Node name for S&R": "TS_SVGStringToSVGBytesIO"
        },
        "widgets_values": []
      },
      {
        "id": 35,
        "type": "PrimitiveString",
        "pos": [
          -4406.654485248328,
          -1528.2849375983897
        ],
        "size": [
          270,
          108
        ],
        "flags": {},
        "order": 4,
        "mode": 0,
        "inputs": [],
        "outputs": [
          {
            "name": "STRING",
            "type": "STRING",
            "links": [
              43,
              44
            ]
          }
        ],
        "properties": {
          "cnr_id": "comfy-core",
          "ver": "0.17.2",
          "Node name for S&R": "PrimitiveString"
        },
        "widgets_values": [
          "Icons/sauce-"
        ]
      }
    ],
    "links": [
      [
        4,
        6,
        0,
        7,
        0,
        "MODEL"
      ],
      [
        5,
        7,
        0,
        8,
        0,
        "MODEL"
      ],
      [
        6,
        5,
        0,
        8,
        1,
        "CLIP"
      ],
      [
        7,
        8,
        1,
        9,
        0,
        "CLIP"
      ],
      [
        8,
        8,
        1,
        10,
        0,
        "CLIP"
      ],
      [
        9,
        9,
        0,
        11,
        1,
        "CONDITIONING"
      ],
      [
        10,
        10,
        0,
        11,
        2,
        "CONDITIONING"
      ],
      [
        13,
        4,
        0,
        11,
        4,
        "VAE"
      ],
      [
        14,
        11,
        5,
        13,
        0,
        "IMAGE"
      ],
      [
        33,
        8,
        0,
        11,
        0,
        "MODEL"
      ],
      [
        37,
        27,
        0,
        11,
        3,
        "LATENT"
      ],
      [
        39,
        11,
        5,
        33,
        0,
        "IMAGE"
      ],
      [
        41,
        33,
        0,
        34,
        0,
        "STRING"
      ],
      [
        42,
        34,
        0,
        32,
        0,
        "SVG"
      ],
      [
        43,
        35,
        0,
        13,
        1,
        "STRING"
      ],
      [
        44,
        35,
        0,
        32,
        1,
        "STRING"
      ]
    ],
    "groups": [],
    "config": {},
    "extra": {
      "ds": {
        "scale": 1.1167815779425738,
        "offset": [
          5781.86548918689,
          1292.0600429801973
        ]
      },
      "workflowRendererVersion": "Vue",
      "frontendVersion": "1.41.20",
      "VHS_latentpreview": false,
      "VHS_latentpreviewrate": 0,
      "VHS_MetadataImage": true,
      "VHS_KeepIntermediate": true
    },
    "version": 0.4
  }
}
                ]]>
            </metadata>
            
<path d="M0 0 C5.948932780246935 5.546790471092727 9.784170235512903 14.243258687917631 11.30078125 22.14453125 C12.273233765339114 26.88818979898491 14.200052000030695 30.484071496547145 16.75 34.5625 C17.18989257812501 35.28735595703125 17.629785156249994 36.012211914062505 18.0830078125 36.759033203125 C19.49822397266675 39.078470340188744 20.93359957088245 41.38425618888496 22.375 43.6875 C22.608803710937508 44.06302001953125 22.608803710937508 44.06302001953125 23.7919921875 45.96337890625 C26.748320708792903 50.70306733732487 29.738723051366662 55.42039935567439 32.74365234375 60.12939453125 C34.454158140802406 62.811627356978065 36.15919957875798 65.4972754481388 37.86328125 68.18359375 C43.602957499218064 77.22633574208996 49.37134323539118 86.24898650719149 55.20263671875 95.23291015625 C59.44423242687668 101.77581349594993 63.62951157328939 108.35407131927985 67.807861328125 114.9375 C71.09529021339029 120.11469490885247 74.3971358040618 125.2821738278592 77.71875 130.4375 C78.44968081822799 131.5735322152861 79.18055681539374 132.70959970475613 79.911376953125 133.845703125 C81.31630608125425 136.0282783044159 82.72359304870997 138.20933803544563 84.133544921875 140.388671875 C84.77396728515623 141.38447265625 85.41438964843746 142.3802734375 86.07421875 143.40625 C86.63971435546875 144.28216796875 87.20520996093751 145.1580859375 87.787841796875 146.060546875 C89.48320921816776 148.8666003211022 90.94591884582837 151.73818286431015 92.375 154.6875 C30.514271907984323 155.11474708840097 30.514271907984323 155.11474708840097 6.3583984375 152.90380859375 C3.566489473041486 152.70138377030398 0.8365367834672952 152.66706733166475 -1.9609375 152.70703125 C-11.528393265939627 152.68131760001918 -11.528393265939627 152.68131760001918 -15.029296875 149.35205078125 C-18.11818724754906 145.4026838049194 -20.16857181932218 140.93190531599134 -22.29052734375 136.41455078125 C-24.776495975710077 131.33436973130597 -27.706442853271028 126.50341406107071 -30.5625 121.625 C-31.845704488730462 119.40011573142598 -33.12823327041997 117.17484163873718 -34.41015625 114.94921875 C-38.65194143134556 107.61264928296976 -42.949236240288826 100.30902920383579 -47.268096923828125 93.01760864257813 C-48.073878828273735 91.65701953789073 -48.878824593836384 90.29593481090808 -49.682830810546875 88.93429565429688 C-52.301846251037375 84.50128123281081 -54.945271219319466 80.0841001279778 -57.625 75.6875 C-58.01953369140625 75.03994750976563 -58.414067382812505 74.39239501953125 -58.820556640625 73.7252197265625 C-60.00208789634115 71.79923548110561 -61.19752956496211 69.8826999669476 -62.3984375 67.96875 C-63.096303710937505 66.85048828125 -63.794169921874996 65.7322265625 -64.51318359375 64.580078125 C-67.11534424246327 61.01587010581447 -70.02711931987247 58.877003521349835 -73.60546875 56.3828125 C-77.90029400211866 52.777485305765 -80.05347818693706 47.769635491875164 -81.0625 42.328125 C-81.41077818597452 36.01558287921179 -79.42467979538478 30.86313679647931 -75.2578125 26.13671875 C-70.32022013165047 21.57988599214508 -64.36809892031303 18.26325217820095 -58.60888671875 14.8662109375 C-56.45802616834615 13.588293790398126 -54.32535687961192 12.282501794480126 -52.19140625 10.9765625 C-44.31284126325602 6.216186835212362 -36.464367696095394 1.90941312265916 -27.875 -1.4375 C-27.51200805664064 -1.5790148925781224 -27.51200805664064 -1.5790148925781224 -25.675048828125 -2.295166015625 C-16.197217986641363 -5.798730216546009 -8.415435510011463 -6.113455392923129 0 0 Z " fill="#000000" transform="translate(189.625,36.3125)"/>
<path d="M0 0 C142.02490359332205 -2.6588763633542385 142.02490359332205 -2.6588763633542385 194.23828125 32.3359375 C200.90522038533828 38.767129141160865 203.49091340362133 44.51424948955497 203.65625 53.69921875 C203.66231059406658 57.03098282474389 203.58773024925074 60.35705813212465 203.5 63.6875 C203.47345504702412 65.45212679705642 203.448400634285 67.21677661874656 203.4248046875 68.9814453125 C203.21579407847958 81.71301348601486 202.64441643723433 94.36590925610307 201 107 C200.9302294921875 107.54084228515626 200.9302294921875 107.54084228515626 200.5771484375 110.27783203125 C194.0069204227829 159.93117941635734 177.47653625808925 206.13510888587905 143.171875 243.60546875 C141.31042841296465 245.6577470914616 139.52711630301798 247.7503782812929 137.75 249.875 C134.54799441775577 253.5483288338363 131.0649202442578 256.8725897785507 127.5 260.1875 C126.966005859375 260.6868505859375 126.43201171875 261.186201171875 125.8818359375 261.70068359375 C123.08050157032011 264.2687158614057 120.28077019421545 266.5179992372968 117.109375 268.6171875 C116.08328125000003 269.403515625 115.0571875 270.18984375 114 271 C113.75 274.93749999999983 113.75 274.93749999999983 113.95703125 277.02734375 C114 279 114 279 112.4375 282 C110.52301802901371 285.99544063510183 110.75043073278925 288.8056416205514 112 293 C114.14940222369188 296.67189546547365 117.03574445201815 298.8396393061619 120.375 301.375 C127.55323056370025 306.8295107243907 132.92315299740204 312.5837866095205 134.46875 321.79296875 C135.40723349648147 330.2073264627713 135.21406617406325 337.1960549932718 130.3125 344.3125 C120.94087711999782 355.75406871029395 103.61525084861057 355.6307845720761 90 357 C76.35190947565798 358.23183405178594 62.67563785238815 359.13789416628566 49 360 C47.82211914062498 360.0749267578125 46.64423828125001 360.149853515625 45.4306640625 360.22705078125 C-87.45252717787741 368.2102607644512 -87.45252717787741 368.2102607644512 -115 347 C-120.46726204166674 341.53273795833326 -121.41989201548918 335.2568707297762 -121.4375 327.75 C-121.38859768594995 318.7893701020064 -119.79976613091932 312.861596644884 -113.359375 306.31640625 C-110.6295546066888 303.80190591445 -107.8280960710614 301.40240649851717 -105 299 C-101.33647505810899 295.48200368274365 -99.19141572218246 293.2491347356438 -98.75 288.0625 C-99.01103795969402 284.86478499374834 -99.73341505750605 282.9331440773544 -101 280 C-101.14824218749999 279.2562109375 -101.296484375 278.512421875 -101.44921875 277.74609375 C-103.20043057875614 269.61103170861514 -107.47250606625317 266.7158575630074 -114 262 C-126.57321886847353 251.44343489439132 -138.0232143223859 239.75286905823145 -147.8154296875 226.58154296875 C-148.87765405603014 225.16334646023017 -149.97203371349548 223.76936863819725 -151.0703125 222.37890625 C-161.70689157496616 208.5771912964508 -169.52034819124265 192.09817177416483 -176 176 C-176.46535156250002 174.8591796875 -176.930703125 173.71835937499998 -177.41015625 172.54296875 C-191.61056661047832 136.83894337341894 -196.09771613941223 98.50321690965794 -196.375 60.3125 C-196.388857421875 59.192062988281236 -196.40271484375 58.0716259765625 -196.4169921875 56.917236328125 C-196.37434431051722 49.61042045716741 -195.63413819249084 43.029945115142226 -191.5625 36.80078125 C-186.59101364356565 32.06544049549626 -181.16565469903406 28.971591311132386 -175 26 C-174.52046875 25.758945312500003 -174.52046875 25.758945312500003 -172.09375 24.5390625 C-164.25428695651794 20.871590927677943 -156.21353197004353 18.509667254526192 -147.875 16.25 C-146.79081787109374 15.956174316406248 -145.7066357421875 15.662348632812495 -144.589599609375 15.359619140625 C-137.44422814740122 13.48814788189 -130.30505615223205 12.086973965560276 -123 11 C-122.83500000000001 11.824999999999989 -122.83500000000001 11.824999999999989 -122 16 C-122.6630615234375 16.150336914062507 -123.32612304687501 16.300673828125014 -124.00927734375 16.45556640625 C-158.51289086237526 24.340914598535562 -158.51289086237526 24.340914598535562 -174.3125 32.5625 C-175.0124609375 32.92641845703125 -175.71242187500002 33.29033691406249 -176.43359375 33.665283203125 C-181.4851118786383 36.425665474644376 -186.10291863070296 39.308755892108934 -188 45 C-188 48.65980699166997 -187.06050047759948 50.01806223017064 -185 53 C-145.98542964295376 91.92529216400953 -46.42279715014581 86.22451386919806 4.1875 86.1875 C4.824155883789047 86.18753021240235 4.824155883789047 86.18753021240235 8.0460205078125 86.18768310546875 C28.109529224013727 86.17415516501029 48.00555036367791 85.65267775591741 68 84 C69.94658186034422 83.85373052903648 71.89319434424863 83.70786776893425 73.83984375 83.5625 C84.84783685524286 82.69090226758163 95.79801240299497 81.33053861557914 106.75 79.9375 C107.44701019287112 79.84946105957033 108.14402038574218 79.7614221191406 108.86215209960938 79.67071533203125 C110.8409681710466 79.41907330425514 112.81894388721071 79.16084958703604 114.796875 78.90234375 C115.94510742187498 78.75273193359374 117.09333984375002 78.6031201171875 118.2763671875 78.448974609375 C121.00000000000006 78 121.00000000000006 78 123 77 C125.24026545537328 76.70605598179765 127.48463119276607 76.44311496748867 129.73046875 76.1953125 C137.53247498716382 75.23558032547021 144.82536831033008 73.28170519363616 152.3125 70.875 C153.56490478515627 70.47829101562502 154.8173095703125 70.08158203124998 156.107666015625 69.6728515625 C163.3485863355528 67.32807489163011 170.4673457191128 64.81195565526639 177.4375 61.75 C177.78542602539062 61.59781005859375 177.78542602539062 61.59781005859375 179.546142578125 60.82763671875 C185.33510198942196 58.13863716749023 189.75268463511952 55.143823283388315 193 49.5625 C194.19799729177038 45.29463464806801 194.13786226934116 43.86459717919365 192 40 C164.46480486504174 9.842405328379073 97.95949966512916 9.021107043113858 60 7 C58.38533209386992 6.901110949334765 56.7707397408916 6.800975164950799 55.15625 6.69921875 C37.463883442112945 5.643439001473851 19.71631673746282 5.424220396161914 2 5 C1.670000000000016 4.174999999999997 1.670000000000016 4.174999999999997 0 0 Z M-134 169 C-134.67948838447197 175.93046621377914 -132.02763546570108 182.36487009037177 -129.125 188.5 C-128.92571899414062 188.9297412109375 -128.92571899414062 188.9297412109375 -127.917236328125 191.1044921875 C-119.53961835679408 208.72966800056832 -104.05596866741655 239.44952184875945 -85 247 C-81.2101799383002 246.8569879222 -79.69173926016674 246.69173926016674 -77 244 C-76.18444869156633 240.16690885036166 -76.3124724167514 238.15528828504824 -78.33203125 234.76171875 C-80.07424493496512 232.4033115932998 -81.85772141302914 230.08123055572497 -83.65625 227.765625 C-92.22406511170672 216.50791444624582 -99.62127480902987 204.57091315748903 -106.422607421875 192.1806640625 C-118.41069551410612 170.36012983209196 -118.41069551410612 170.36012983209196 -126 166 C-129.906902875902 165.44443124241764 -131.60430353776167 165.85205484861882 -134 169 Z M-69 260 C-70 262.375 -70 262.375 -70 265 C-67.1618767037993 270.2892297792831 -62.401589528263514 272.05999249337015 -57 274 C-53.964156919363376 274.89756064420845 -51.24815681792404 275.1285970105265 -48.0859375 275.1328125 C-47.16039062499999 275.1341015625 -46.23484375000001 275.135390625 -45.28125 275.13671875 C-44.80171874999999 275.13478515625 -44.80171874999999 275.13478515625 -42.375 275.125 C-41.408203125 275.1288671875 -40.44140625 275.132734375 -39.4453125 275.13671875 C-38.983828125 275.13607421875 -38.983828125 275.13607421875 -36.6484375 275.1328125 C-35.80458496093749 275.1316845703125 -34.96073242187501 275.130556640625 -34.09130859375 275.12939453125 C-32 275 -32 275 -30 274 C-30 273.34 -30 272.68 -30 272 C-31.015781250000003 271.5037109375 -32.03156250000001 271.007421875 -33.078125 270.49609375 C-34.469203914828 269.81081648918973 -35.859794153688995 269.1245467060873 -37.25 268.4375 C-37.975661621093764 268.07978515625 -38.7013232421875 267.7220703125 -39.448974609375 267.353515625 C-43.96959112061262 265.0974350336287 -48.272027400891375 262.6658717928388 -52.5625 260 C-58.225855860181554 256.63426069639144 -63.87831879825035 254.28735558266385 -69 260 Z M-86 301.375 C-87 303 -87 303 -87.1875 305.375 C-85.01768376383595 310.1714358904679 -80.45914483894745 312.01039594563946 -75.73828125 313.91015625 C-55.605449696660685 320.53236034771 -32.877330520413295 319.07874072729675 -11.9375 319.125 C-11.249321899414042 319.1276788330078 -10.561143798828141 319.13035766601564 -9.85211181640625 319.13311767578125 C-2.8192512795632183 319.15395796412116 4.047349189100032 319.11596688174956 11 318 C7.574832015898664 315.7165546772658 4.448487861214062 315.0895208351807 0.4921875 314.30078125 C-1.0556323544442705 313.97908004383174 -2.6034004575006975 313.65712976622575 -4.151123046875 313.3349609375 C-4.96302093505858 313.1683093261719 -5.774918823242189 313.00165771484376 -6.611419677734375 312.8299560546875 C-19.781592514612925 310.118689732559 -32.76256274037968 307.13849227448037 -45.67724609375 303.3798828125 C-51.83375264771854 301.5916685719472 -57.99297085228804 299.96193813912095 -64.25 298.5625 C-64.97147216796876 298.398466796875 -65.69294433593751 298.23443359375 -66.436279296875 298.0654296875 C-74.1354660275183 296.3990278143139 -79.310848149722 296.7762081029339 -86 301.375 Z " fill="#000000" transform="translate(253,121)"/>
<path d="M0 0 C13.021603605412963 -0.09942966553907695 25.992720927792902 0.12957304957095062 39 0.75 C39.44960083007811 0.7712846374511741 39.44960083007811 0.7712846374511741 41.724853515625 0.878997802734375 C72.46994936175884 2.3780746188804756 103.45950308066222 5.417947875789508 133.125 14 C133.91253662109375 14.224780273437489 134.7000732421875 14.449560546875006 135.511474609375 14.68115234375 C140.7701965429256 16.30546358547923 145.71575739218758 18.4765680428913 150 22 C151 24.81250000000003 151 24.81250000000003 151 27 C119.79280351870148 48.84503753690899 66.88143813793715 47.86698971822017 30 49 C29.296171875000027 47.883671875000005 28.592343749999998 46.76734375000001 27.8671875 45.6171875 C22.0933013722302 36.46431074224421 16.306020447466324 27.32003044172552 10.5 18.1875 C10.206657714843743 17.725612792968747 10.206657714843743 17.725612792968747 8.72216796875 15.38818359375 C8.164165039062482 14.511137695312499 7.6061621093750205 13.634091796874998 7.03125 12.73046875 C6.509179687500023 11.909819335937499 5.987109374999989 11.089169921874998 5.44921875 10.24365234375 C4.194728114414943 8.301474287647125 2.9054342894279443 6.39194937005135 1.59375 4.48828125 C0 2 0 2 0 0 Z " fill="#000000" transform="translate(266,141)"/>
<path d="M0 0 C1.654052734375 2.3732910156250284 1.654052734375 2.3732910156250284 3.43359375 5.50390625 C4.0826367187499955 6.637636718750002 4.731679687499991 7.7713671875000045 5.400390625 8.939453125 C6.079449564462806 10.147122776058097 6.758485860478288 11.354805159537108 7.4375 12.5625 C8.11184304558006 13.743288434913637 8.786965217846756 14.923632276904641 9.462890625 16.103515625 C12.81429142932268 21.992547960048682 16.051334030015198 27.89905173985241 19 34 C0.6157526967929243 33.62619829882573 -30.891604480139534 31.565764922942776 -45 18 C-46 15.1875 -46 15.1875 -46 13 C-37.34024995072842 5.386502280101382 -24.73007370634339 3.566064332497234 -13.75 1.125 C-12.737602539062493 0.897561035156258 -11.725205078124986 0.6701220703124875 -10.68212890625 0.435791015625 C-9.729995117187514 0.2326831054687375 -8.777861328124999 0.02957519531250341 -7.796875 -0.1796875 C-6.944482421874994 -0.3625732421874943 -6.092089843749989 -0.5454589843749886 -5.2138671875 -0.73388671875 C-3 -1 -3 -1 0 0 Z " fill="#000000" transform="translate(141,151)"/>
</svg>
