<svg xmlns="http://www.w3.org/2000/svg" width="512" height="512"><path d="M189.625 36.313c5.949 5.546 9.784 14.243 11.3 22.144.973 4.744 2.9 8.34 5.45 12.418l1.333 2.197A706 706 0 0 0 212 80l1.417 2.276c2.956 4.74 5.947 9.457 8.952 14.166q2.564 4.024 5.12 8.054a3161 3161 0 0 0 17.339 27.05c4.241 6.542 8.427 13.12 12.605 19.704q4.93 7.766 9.91 15.5l2.193 3.408q2.108 3.274 4.223 6.543l1.94 3.018 1.714 2.654c1.695 2.806 3.158 5.678 4.587 8.627-61.86.427-61.86.427-86.017-1.784-2.792-.202-5.521-.236-8.319-.196-9.567-.026-9.567-.026-13.068-3.355-3.09-3.95-5.14-8.42-7.262-12.938-2.485-5.08-5.415-9.911-8.272-14.79l-3.847-6.675a2439 2439 0 0 0-12.858-21.932q-1.208-2.04-2.415-4.083c-2.619-4.433-5.262-8.85-7.942-13.247l-1.196-1.962a671 671 0 0 0-3.577-5.757l-2.115-3.388c-2.602-3.565-5.514-5.703-9.092-8.198-4.295-3.605-6.448-8.613-7.457-14.054-.349-6.313 1.637-11.465 5.804-16.192 4.938-4.557 10.89-7.873 16.65-11.27 2.15-1.278 4.283-2.584 6.417-3.89 7.878-4.76 15.727-9.067 24.316-12.414l2.2-.858c9.478-3.503 17.26-3.818 25.675 2.295"/><path d="M253 121c142.025-2.659 142.025-2.659 194.238 32.336 6.667 6.431 9.253 12.178 9.418 21.363.006 3.332-.068 6.658-.156 9.988q-.04 2.648-.075 5.294c-.21 12.732-.78 25.385-2.425 38.019l-.423 3.278c-6.57 49.653-23.1 95.857-57.405 133.327-1.862 2.053-3.645 4.145-5.422 6.27-3.202 3.673-6.685 6.998-10.25 10.313l-1.618 1.513c-2.801 2.568-5.601 4.817-8.773 6.916L367 392c-.25 3.937-.25 3.937-.043 6.027C367 400 367 400 365.437 403c-1.914 3.995-1.687 6.806-.437 11 2.15 3.672 5.036 5.84 8.375 8.375 7.178 5.455 12.548 11.209 14.094 20.418.938 8.414.745 15.403-4.156 22.52C373.94 476.754 356.615 476.63 343 478c-13.648 1.232-27.324 2.138-41 3l-3.57.227C165.548 489.21 165.548 489.21 138 468c-5.467-5.467-6.42-11.743-6.437-19.25.048-8.96 1.637-14.888 8.078-21.434 2.73-2.514 5.53-4.914 8.359-7.316 3.664-3.518 5.809-5.75 6.25-10.937-.261-3.198-.983-5.13-2.25-8.063-.148-.744-.296-1.488-.45-2.254-1.75-8.135-6.023-11.03-12.55-15.746-12.573-10.557-24.023-22.247-33.815-35.418a207 207 0 0 0-3.255-4.203C91.293 329.577 83.48 313.099 77 297l-1.41-3.457c-14.2-35.704-18.688-74.04-18.965-112.23l-.042-3.396c.043-7.307.783-13.887 4.855-20.116C66.409 153.065 71.834 149.97 78 147l2.906-1.46c7.84-3.668 15.88-6.03 24.219-8.29l3.285-.89c7.146-1.872 14.285-3.273 21.59-4.36l1 5-2.01.456c-34.503 7.885-34.503 7.885-50.303 16.107l-2.12 1.102C71.514 157.425 66.896 160.31 65 166c0 3.66.94 5.018 3 8 39.015 38.925 138.577 33.225 189.188 33.188h3.858c20.064-.014 39.96-.535 59.954-2.188l5.84-.437c11.008-.872 21.958-2.232 32.91-3.625l2.112-.267q2.968-.38 5.935-.769l3.48-.453C374 199 374 199 376 198a330 330 0 0 1 6.73-.805c7.802-.96 15.095-2.913 22.582-5.32l3.796-1.202c7.24-2.345 14.36-4.861 21.33-7.923l2.108-.922c5.79-2.69 10.207-5.684 13.454-11.266 1.198-4.267 1.138-5.697-1-9.562-27.535-30.158-94.04-30.979-132-33q-2.423-.148-4.844-.3c-17.692-1.057-35.44-1.276-53.156-1.7zM119 290c-.68 6.93 1.972 13.365 4.875 19.5l1.208 2.604C133.46 329.73 148.944 360.45 168 368c3.79-.143 5.308-.308 8-3 .816-3.833.688-5.845-1.332-9.238a364 364 0 0 0-5.324-6.996c-8.568-11.258-15.965-23.195-22.767-35.585C134.59 291.36 134.59 291.36 127 287c-3.907-.556-5.604-.148-8 3m65 91c-1 2.375-1 2.375-1 5 2.838 5.29 7.598 7.06 13 9 3.036.898 5.752 1.129 8.914 1.133l2.805.004 2.906-.012 2.93.012 2.797-.004 2.557-.004C221 396 221 396 223 395v-2l-3.078-1.504q-2.087-1.027-4.172-2.058l-2.199-1.084A161 161 0 0 1 200.438 381c-5.664-3.366-11.316-5.713-16.438 0m-17 41.375c-1 1.625-1 1.625-1.187 4 2.17 4.796 6.728 6.635 11.449 8.535 20.133 6.622 42.86 5.169 63.8 5.215l2.086.008c7.033.021 13.9-.017 20.852-1.133-3.425-2.283-6.552-2.91-10.508-3.7q-2.321-.481-4.643-.965l-2.46-.505c-13.17-2.711-26.152-5.692-39.066-9.45-6.157-1.788-12.316-3.418-18.573-4.817l-2.186-.498c-7.7-1.666-12.875-1.289-19.564 3.31"/><path d="M266 141c13.022-.1 25.993.13 39 .75l2.725.129c30.745 1.5 61.735 4.539 91.4 13.121l2.386.681c5.26 1.624 10.205 3.796 14.489 7.319 1 2.813 1 2.813 1 5-31.207 21.845-84.119 20.867-121 22l-2.133-3.383a9237 9237 0 0 0-17.367-27.43l-1.778-2.799-1.69-2.658-1.583-2.486a232 232 0 0 0-3.855-5.756C266 143 266 143 266 141m-125 10c1.654 2.373 1.654 2.373 3.434 5.504l1.966 3.435 2.037 3.624 2.026 3.54c3.351 5.89 6.588 11.796 9.537 17.897-18.384-.374-49.892-2.434-64-16-1-2.812-1-2.812-1-5 8.66-7.613 21.27-9.434 32.25-11.875l3.068-.69 2.885-.615 2.583-.554C138 150 138 150 141 151"/></svg>