<?xml version="1.0" encoding="UTF-8"?>
<!-- Generator: visioncortex VTracer 0.6.12 -->
<svg version="1.1" xmlns="http://www.w3.org/2000/svg" width="512" height="512">
  <metadata>
                <![CDATA[
            {
  "prompt": {
    "4": {
      "inputs": {
        "vae_name": "ae.safetensors"
      },
      "class_type": "VAELoader",
      "_meta": {
        "title": "Load VAE"
      }
    },
    "5": {
      "inputs": {
        "clip_name": "qwen3_4b_fp8_scaled.safetensors",
        "type": "lumina2",
        "device": "default"
      },
      "class_type": "CLIPLoader",
      "_meta": {
        "title": "Load CLIP"
      }
    },
    "6": {
      "inputs": {
        "ckpt_name": "zEpicrealism_turboV1Fp8.safetensors"
      },
      "class_type": "CheckpointLoaderSimple",
      "_meta": {
        "title": "Load Checkpoint"
      }
    },
    "7": {
      "inputs": {
        "shift": 6.0,
        "model": [
          "6",
          0
        ]
      },
      "class_type": "ModelSamplingAuraFlow",
      "_meta": {
        "title": "ModelSamplingAuraFlow"
      }
    },
    "8": {
      "inputs": {
        "PowerLoraLoaderHeaderWidget": {
          "type": "PowerLoraLoaderHeaderWidget"
        },
        "lora_1": {
          "on": true,
          "lora": "MinimalistVectorArtZ.safetensors",
          "strength": 0.4
        },
        "lora_2": {
          "on": false,
          "lora": "None",
          "strength": 0.75
        },
        "\u2795 Add Lora": "",
        "model": [
          "7",
          0
        ],
        "clip": [
          "5",
          0
        ]
      },
      "class_type": "Power Lora Loader (rgthree)",
      "_meta": {
        "title": "Power Lora Loader (rgthree)"
      }
    },
    "9": {
      "inputs": {
        "text": "The image shows a black and white silhouette of 3-4 layered whole romain leaves stacked and slightly offset. The background is white.",
        "clip": [
          "8",
          1
        ]
      },
      "class_type": "CLIPTextEncode",
      "_meta": {
        "title": "Positive Prompt"
      }
    },
    "10": {
      "inputs": {
        "text": "blurry, bad, shadow, color, grey, text, watermark, logo, 3d",
        "clip": [
          "8",
          1
        ]
      },
      "class_type": "CLIPTextEncode",
      "_meta": {
        "title": "Negative Prompt"
      }
    },
    "11": {
      "inputs": {
        "seed": 309990382590180,
        "steps": 9,
        "cfg": 1.0,
        "sampler_name": "euler",
        "scheduler": "beta",
        "denoise": 1.0,
        "preview_method": "auto",
        "vae_decode": "true",
        "model": [
          "8",
          0
        ],
        "positive": [
          "9",
          0
        ],
        "negative": [
          "10",
          0
        ],
        "latent_image": [
          "27",
          0
        ],
        "optional_vae": [
          "4",
          0
        ]
      },
      "class_type": "KSampler (Efficient)",
      "_meta": {
        "title": "KSampler (Efficient)"
      }
    },
    "13": {
      "inputs": {
        "filename_prefix": [
          "35",
          0
        ],
        "images": [
          "11",
          5
        ]
      },
      "class_type": "SaveImage",
      "_meta": {
        "title": "Save Image"
      }
    },
    "27": {
      "inputs": {
        "dimensions": "512 x 512 (1:1)",
        "invert": false,
        "batch_size": 1
      },
      "class_type": "EmptyLatentImagePresets",
      "_meta": {
        "title": "Empty Latent Image Presets"
      }
    },
    "32": {
      "inputs": {
        "filename_prefix": [
          "35",
          0
        ],
        "svg": [
          "34",
          0
        ]
      },
      "class_type": "SaveSVGNode",
      "_meta": {
        "title": "SaveSVGNode"
      }
    },
    "33": {
      "inputs": {
        "mode": "spline",
        "filter_speckle": 4,
        "corner_threshold": 60,
        "length_threshold": 4.0,
        "splice_threshold": 45,
        "image": [
          "11",
          5
        ]
      },
      "class_type": "TS_ImageToSVGStringBW_Vtracer",
      "_meta": {
        "title": "Image to SVG String BW_Vtracer"
      }
    },
    "34": {
      "inputs": {
        "SVG_String": [
          "33",
          0
        ]
      },
      "class_type": "TS_SVGStringToSVGBytesIO",
      "_meta": {
        "title": "SVG String to SVG BytesIO"
      }
    },
    "35": {
      "inputs": {
        "value": "Icons/salad-"
      },
      "class_type": "PrimitiveString",
      "_meta": {
        "title": "String"
      }
    }
  },
  "workflow": {
    "id": "b863a6d5-b1c1-49ed-82de-40ff658289d1",
    "revision": 0,
    "last_node_id": 38,
    "last_link_id": 50,
    "nodes": [
      {
        "id": 4,
        "type": "VAELoader",
        "pos": [
          -6219.534823554188,
          -970.9111545414083
        ],
        "size": [
          373.8333435058594,
          123.80000305175781
        ],
        "flags": {},
        "order": 0,
        "mode": 0,
        "inputs": [],
        "outputs": [
          {
            "name": "VAE",
            "type": "VAE",
            "links": [
              13,
              48
            ]
          }
        ],
        "properties": {
          "cnr_id": "comfy-core",
          "ver": "0.9.2",
          "Node name for S&R": "VAELoader"
        },
        "widgets_values": [
          "ae.safetensors"
        ]
      },
      {
        "id": 5,
        "type": "CLIPLoader",
        "pos": [
          -6634.625039036589,
          -1114.7238241585353
        ],
        "size": [
          366.1666564941406,
          558.9833374023438
        ],
        "flags": {},
        "order": 1,
        "mode": 0,
        "inputs": [],
        "outputs": [
          {
            "name": "CLIP",
            "type": "CLIP",
            "links": [
              6
            ]
          }
        ],
        "properties": {
          "cnr_id": "comfy-core",
          "ver": "0.9.2",
          "Node name for S&R": "CLIPLoader"
        },
        "widgets_values": [
          "qwen3_4b_fp8_scaled.safetensors",
          "lumina2",
          "default"
        ]
      },
      {
        "id": 6,
        "type": "CheckpointLoaderSimple",
        "pos": [
          -7142.716749069344,
          -1274.288341946366
        ],
        "size": [
          456,
          154.6666717529297
        ],
        "flags": {},
        "order": 2,
        "mode": 0,
        "inputs": [],
        "outputs": [
          {
            "name": "MODEL",
            "type": "MODEL",
            "links": [
              4
            ]
          },
          {
            "name": "CLIP",
            "type": "CLIP",
            "links": []
          },
          {
            "name": "VAE",
            "type": "VAE",
            "links": []
          }
        ],
        "properties": {
          "cnr_id": "comfy-core",
          "ver": "0.9.2",
          "Node name for S&R": "CheckpointLoaderSimple"
        },
        "widgets_values": [
          "zEpicrealism_turboV1Fp8.safetensors"
        ],
        "color": "#453f4f",
        "bgcolor": "#312b3b"
      },
      {
        "id": 7,
        "type": "ModelSamplingAuraFlow",
        "pos": [
          -6599.982891965006,
          -1269.9382147843737
        ],
        "size": [
          270,
          104
        ],
        "flags": {},
        "order": 7,
        "mode": 0,
        "inputs": [
          {
            "name": "model",
            "type": "MODEL",
            "link": 4
          }
        ],
        "outputs": [
          {
            "name": "MODEL",
            "type": "MODEL",
            "links": [
              5
            ]
          }
        ],
        "properties": {
          "cnr_id": "comfy-core",
          "ver": "0.10.0",
          "Node name for S&R": "ModelSamplingAuraFlow"
        },
        "widgets_values": [
          6
        ]
      },
      {
        "id": 8,
        "type": "Power Lora Loader (rgthree)",
        "pos": [
          -6200.008916456028,
          -1269.9382147843737
        ],
        "size": [
          340.48333740234375,
          232
        ],
        "flags": {},
        "order": 8,
        "mode": 0,
        "inputs": [
          {
            "dir": 3,
            "name": "model",
            "type": "MODEL",
            "link": 5
          },
          {
            "dir": 3,
            "name": "clip",
            "type": "CLIP",
            "link": 6
          }
        ],
        "outputs": [
          {
            "dir": 4,
            "name": "MODEL",
            "shape": 3,
            "type": "MODEL",
            "links": [
              47
            ]
          },
          {
            "dir": 4,
            "name": "CLIP",
            "shape": 3,
            "type": "CLIP",
            "links": [
              7,
              8
            ]
          }
        ],
        "properties": {
          "cnr_id": "rgthree-comfy",
          "ver": "8ff50e4521881eca1fe26aec9615fc9362474931",
          "Show Strengths": "Single Strength"
        },
        "widgets_values": [
          {},
          {
            "type": "PowerLoraLoaderHeaderWidget"
          },
          {
            "on": true,
            "lora": "MinimalistVectorArtZ.safetensors",
            "strength": 0.4,
            "strengthTwo": null
          },
          {
            "on": false,
            "lora": "None",
            "strength": 0.75,
            "strengthTwo": null
          },
          {},
          ""
        ]
      },
      {
        "id": 9,
        "type": "CLIPTextEncode",
        "pos": [
          -5665.2999151795275,
          -968.8850863528279
        ],
        "size": [
          495.1833190917969,
          389.6333312988281
        ],
        "flags": {},
        "order": 10,
        "mode": 0,
        "inputs": [
          {
            "name": "clip",
            "type": "CLIP",
            "link": 7
          }
        ],
        "outputs": [
          {
            "name": "CONDITIONING",
            "type": "CONDITIONING",
            "links": [
              9
            ]
          }
        ],
        "title": "Positive Prompt",
        "properties": {
          "cnr_id": "comfy-core",
          "ver": "0.9.2",
          "Node name for S&R": "CLIPTextEncode"
        },
        "widgets_values": [
          "The image shows a black and white silhouette of 3-4 layered whole romain leaves stacked and slightly offset. The background is white."
        ],
        "color": "#232",
        "bgcolor": "#353"
      },
      {
        "id": 10,
        "type": "CLIPTextEncode",
        "pos": [
          -5666.531450389389,
          -512.2996995468735
        ],
        "size": [
          470,
          142
        ],
        "flags": {},
        "order": 11,
        "mode": 0,
        "inputs": [
          {
            "name": "clip",
            "type": "CLIP",
            "link": 8
          }
        ],
        "outputs": [
          {
            "name": "CONDITIONING",
            "type": "CONDITIONING",
            "links": [
              10
            ]
          }
        ],
        "title": "Negative Prompt",
        "properties": {
          "cnr_id": "comfy-core",
          "ver": "0.9.2",
          "Node name for S&R": "CLIPTextEncode"
        },
        "widgets_values": [
          "blurry, bad, shadow, color, grey, text, watermark, logo, 3d"
        ],
        "color": "#322",
        "bgcolor": "#533"
      },
      {
        "id": 11,
        "type": "KSampler (Efficient)",
        "pos": [
          -4910.919039711857,
          -1342.5000438468037
        ],
        "size": [
          400.1000061035156,
          966.6666870117188
        ],
        "flags": {},
        "order": 12,
        "mode": 0,
        "inputs": [
          {
            "name": "model",
            "type": "MODEL",
            "link": 46
          },
          {
            "name": "positive",
            "type": "CONDITIONING",
            "link": 9
          },
          {
            "name": "negative",
            "type": "CONDITIONING",
            "link": 10
          },
          {
            "name": "latent_image",
            "type": "LATENT",
            "link": 37
          },
          {
            "name": "optional_vae",
            "shape": 7,
            "type": "VAE",
            "link": 13
          },
          {
            "name": "script",
            "shape": 7,
            "type": "SCRIPT",
            "link": null
          }
        ],
        "outputs": [
          {
            "name": "MODEL",
            "type": "MODEL",
            "links": null
          },
          {
            "name": "CONDITIONING+",
            "type": "CONDITIONING",
            "links": null
          },
          {
            "name": "CONDITIONING-",
            "type": "CONDITIONING",
            "links": null
          },
          {
            "name": "LATENT",
            "type": "LATENT",
            "links": null
          },
          {
            "name": "VAE",
            "type": "VAE",
            "links": null
          },
          {
            "name": "IMAGE",
            "type": "IMAGE",
            "links": [
              14,
              39
            ]
          }
        ],
        "properties": {
          "cnr_id": "efficiency-nodes-comfyui",
          "ver": "1.0.8",
          "Node name for S&R": "KSampler (Efficient)"
        },
        "widgets_values": [
          -1,
          null,
          9,
          1,
          "euler",
          "beta",
          1,
          "auto",
          "true"
        ],
        "color": "#223333",
        "bgcolor": "#335555",
        "shape": "box"
      },
      {
        "id": 13,
        "type": "SaveImage",
        "pos": [
          -4410.454991760358,
          -1352.0147262989403
        ],
        "size": [
          461.7833251953125,
          344
        ],
        "flags": {},
        "order": 13,
        "mode": 0,
        "inputs": [
          {
            "name": "images",
            "type": "IMAGE",
            "link": 14
          },
          {
            "name": "filename_prefix",
            "type": "STRING",
            "widget": {
              "name": "filename_prefix"
            },
            "link": 43
          }
        ],
        "outputs": [],
        "properties": {
          "cnr_id": "comfy-core",
          "ver": "0.17.2"
        },
        "widgets_values": [
          "Icons/apps-"
        ]
      },
      {
        "id": 27,
        "type": "EmptyLatentImagePresets",
        "pos": [
          -5667.00817017662,
          -1285.0941541281916
        ],
        "size": [
          285.0833435058594,
          214.6666717529297
        ],
        "flags": {},
        "order": 3,
        "mode": 0,
        "inputs": [],
        "outputs": [
          {
            "name": "Latent",
            "type": "LATENT",
            "links": [
              37
            ]
          },
          {
            "name": "Width",
            "type": "INT",
            "links": null
          },
          {
            "name": "Height",
            "type": "INT",
            "links": null
          }
        ],
        "properties": {
          "cnr_id": "comfyui-kjnodes",
          "ver": "c88ac88a8f8a6a090a0d5d607156090cb2911503",
          "Node name for S&R": "EmptyLatentImagePresets"
        },
        "widgets_values": [
          "512 x 512 (1:1)",
          false,
          1
        ]
      },
      {
        "id": 32,
        "type": "SaveSVGNode",
        "pos": [
          -3794.3447683512736,
          -769.394640792226
        ],
        "size": [
          270,
          344
        ],
        "flags": {},
        "order": 16,
        "mode": 0,
        "inputs": [
          {
            "name": "svg",
            "type": "SVG",
            "link": 42
          },
          {
            "name": "filename_prefix",
            "type": "STRING",
            "widget": {
              "name": "filename_prefix"
            },
            "link": 44
          }
        ],
        "outputs": [],
        "properties": {
          "cnr_id": "comfy-core",
          "ver": "0.17.2",
          "Node name for S&R": "SaveSVGNode"
        },
        "widgets_values": [
          "Icons/apps-"
        ]
      },
      {
        "id": 33,
        "type": "TS_ImageToSVGStringBW_Vtracer",
        "pos": [
          -4400.364259259381,
          -795.4557589508681
        ],
        "size": [
          314.01666259765625,
          234.66665649414062
        ],
        "flags": {},
        "order": 14,
        "mode": 0,
        "inputs": [
          {
            "name": "image",
            "type": "IMAGE",
            "link": 39
          }
        ],
        "outputs": [
          {
            "name": "STRING",
            "shape": 6,
            "type": "STRING",
            "links": [
              41
            ]
          }
        ],
        "properties": {
          "cnr_id": "comfyui-tosvg",
          "ver": "1.0.1",
          "Node name for S&R": "TS_ImageToSVGStringBW_Vtracer"
        },
        "widgets_values": [
          "spline",
          4,
          60,
          4,
          45
        ]
      },
      {
        "id": 34,
        "type": "TS_SVGStringToSVGBytesIO",
        "pos": [
          -4063.4374667320835,
          -778.452498606564
        ],
        "size": [
          225,
          72
        ],
        "flags": {},
        "order": 15,
        "mode": 0,
        "inputs": [
          {
            "name": "SVG_String",
            "type": "STRING",
            "link": 41
          }
        ],
        "outputs": [
          {
            "name": "SVG",
            "type": "SVG",
            "links": [
              42
            ]
          }
        ],
        "properties": {
          "cnr_id": "comfyui-tosvg",
          "ver": "1.0.1",
          "Node name for S&R": "TS_SVGStringToSVGBytesIO"
        },
        "widgets_values": []
      },
      {
        "id": 35,
        "type": "PrimitiveString",
        "pos": [
          -4406.641160719731,
          -1528.3044087956766
        ],
        "size": [
          270,
          108
        ],
        "flags": {},
        "order": 4,
        "mode": 0,
        "inputs": [],
        "outputs": [
          {
            "name": "STRING",
            "type": "STRING",
            "links": [
              43,
              44
            ]
          }
        ],
        "properties": {
          "cnr_id": "comfy-core",
          "ver": "0.17.2",
          "Node name for S&R": "PrimitiveString"
        },
        "widgets_values": [
          "Icons/salad-"
        ]
      },
      {
        "id": 36,
        "type": "ModelPatchLoader",
        "pos": [
          -7059.349162382171,
          -330.05096515266234
        ],
        "size": [
          427.6000061035156,
          106.66667175292969
        ],
        "flags": {},
        "order": 5,
        "mode": 4,
        "inputs": [],
        "outputs": [
          {
            "name": "MODEL_PATCH",
            "type": "MODEL_PATCH",
            "links": [
              45
            ]
          }
        ],
        "properties": {
          "cnr_id": "comfy-core",
          "ver": "0.16.3",
          "Node name for S&R": "ModelPatchLoader"
        },
        "widgets_values": [
          "Z-Image-Turbo-Fun-Controlnet-Union-2.1.safetensors"
        ]
      },
      {
        "id": 37,
        "type": "ZImageFunControlnet",
        "pos": [
          -6611.265442119757,
          -335.79153412026005
        ],
        "size": [
          361.6000061035156,
          224
        ],
        "flags": {},
        "order": 9,
        "mode": 4,
        "inputs": [
          {
            "name": "model",
            "type": "MODEL",
            "link": 47
          },
          {
            "name": "model_patch",
            "type": "MODEL_PATCH",
            "link": 45
          },
          {
            "name": "vae",
            "type": "VAE",
            "link": 48
          },
          {
            "name": "image",
            "shape": 7,
            "type": "IMAGE",
            "link": 50
          },
          {
            "name": "inpaint_image",
            "shape": 7,
            "type": "IMAGE",
            "link": null
          },
          {
            "name": "mask",
            "shape": 7,
            "type": "MASK",
            "link": null
          }
        ],
        "outputs": [
          {
            "name": "MODEL",
            "type": "MODEL",
            "links": [
              46
            ]
          }
        ],
        "properties": {
          "cnr_id": "comfy-core",
          "ver": "0.16.3",
          "Node name for S&R": "ZImageFunControlnet"
        },
        "widgets_values": [
          0.7
        ]
      },
      {
        "id": 38,
        "type": "LoadImage",
        "pos": [
          -6229.446754309989,
          -560.5882460454854
        ],
        "size": [
          458.8333435058594,
          788.2999877929688
        ],
        "flags": {},
        "order": 6,
        "mode": 4,
        "inputs": [],
        "outputs": [
          {
            "name": "IMAGE",
            "type": "IMAGE",
            "links": [
              50
            ]
          },
          {
            "name": "MASK",
            "type": "MASK",
            "links": null
          }
        ],
        "title": "Reference",
        "properties": {
          "cnr_id": "comfy-core",
          "ver": "0.9.2",
          "Node name for S&R": "LoadImage"
        },
        "widgets_values": [
          "drink-_00033_.png",
          "image"
        ],
        "color": "#322",
        "bgcolor": "#533"
      }
    ],
    "links": [
      [
        4,
        6,
        0,
        7,
        0,
        "MODEL"
      ],
      [
        5,
        7,
        0,
        8,
        0,
        "MODEL"
      ],
      [
        6,
        5,
        0,
        8,
        1,
        "CLIP"
      ],
      [
        7,
        8,
        1,
        9,
        0,
        "CLIP"
      ],
      [
        8,
        8,
        1,
        10,
        0,
        "CLIP"
      ],
      [
        9,
        9,
        0,
        11,
        1,
        "CONDITIONING"
      ],
      [
        10,
        10,
        0,
        11,
        2,
        "CONDITIONING"
      ],
      [
        13,
        4,
        0,
        11,
        4,
        "VAE"
      ],
      [
        14,
        11,
        5,
        13,
        0,
        "IMAGE"
      ],
      [
        37,
        27,
        0,
        11,
        3,
        "LATENT"
      ],
      [
        39,
        11,
        5,
        33,
        0,
        "IMAGE"
      ],
      [
        41,
        33,
        0,
        34,
        0,
        "STRING"
      ],
      [
        42,
        34,
        0,
        32,
        0,
        "SVG"
      ],
      [
        43,
        35,
        0,
        13,
        1,
        "STRING"
      ],
      [
        44,
        35,
        0,
        32,
        1,
        "STRING"
      ],
      [
        45,
        36,
        0,
        37,
        1,
        "MODEL_PATCH"
      ],
      [
        46,
        37,
        0,
        11,
        0,
        "MODEL"
      ],
      [
        47,
        8,
        0,
        37,
        0,
        "MODEL"
      ],
      [
        48,
        4,
        0,
        37,
        2,
        "VAE"
      ],
      [
        50,
        38,
        0,
        37,
        3,
        "IMAGE"
      ]
    ],
    "groups": [],
    "config": {},
    "extra": {
      "ds": {
        "scale": 0.8390545288824773,
        "offset": [
          5793.389419323306,
          1404.0033947922807
        ]
      },
      "workflowRendererVersion": "Vue",
      "frontendVersion": "1.41.20",
      "VHS_latentpreview": false,
      "VHS_latentpreviewrate": 0,
      "VHS_MetadataImage": true,
      "VHS_KeepIntermediate": true
    },
    "version": 0.4
  }
}
                ]]>
            </metadata>
            
<path d="M0 0 C4.967718241880334 2.9064601519334587 8.681487335793179 1.6905471045700011 14.0947265625 0.462158203125 C21.261080702007007 -1.029181125991883 28.38448019718328 -1.2679969287401036 35.68304443359375 -1.301910400390625 C37.70435492427282 -1.3122661473309094 39.72551382416776 -1.3447212700704227 41.74658203125 -1.377685546875 C52.06169353499274 -1.3601184968812419 61.682648437683326 0.08324576606050016 69.44140625 7.4140625 C75.26062325987152 14.35906808671318 76.06575918411801 21.727330444680334 76.0625 30.4375 C76.066044921875 31.324536132812497 76.06958984375001 32.211572265624994 76.0732421875 33.12548828125 C76.03652539703302 39.9291095547819 75.27827454851194 46.28443750010223 73.921875 52.9609375 C73.86015937748414 57.126742019822174 75.38843821185526 58.87052942433996 77.875 62.125 C81.71669918538623 71.72924796346564 80.34426446345901 81.14960688524206 76.9453125 90.62890625 C75.87500000000006 93.12499999999983 75.87500000000006 93.12499999999983 73.875 96.125 C74.01600496461407 100.35514893842242 77.00608943867383 102.32439683299111 79.875 105.125 C83.68883702894516 110.5733386127788 84.31369944307431 115.5445083538857 83.875 122.125 C82.85537426136591 126.28085387263968 81.7219571273003 130.00580665321033 79.125 133.4375 C78.71249999999998 133.994375 78.30000000000001 134.55125 77.875 135.125 C78.17817574194976 136.46551234920912 78.51828215430498 137.7977316520569 78.875 139.125 C79.83911761725022 148.27034425505948 78.03569142518046 155.0142850699014 73.875 163.125 C73.35550781249998 164.138203125 72.83601562500002 165.15140625 72.30078125 166.1953125 C67.18051951101518 175.528749982252 60.506375806470714 183.80935916599702 51.875 190.125 C51.214999999999975 190.125 50.55500000000001 190.125 49.875 190.125 C50.01357421875002 190.36734375 50.01357421875002 190.36734375 50.71484375 191.59375 C53.72064166874287 197.15608066813627 56.051491977336354 202.1126863200667 54.19921875 208.4296875 C49.40108259168625 219.35199017310686 37.721489663934165 231.72331067632962 27.3125 237.5625 C24.58804424820454 239.30894599474072 23.45900715292845 240.8379310048863 21.75 243.5625 C18.48662384823126 248.45397810001384 14.805830278230417 252.66399929686924 10.78271484375 256.925537109375 C8.683551237427707 259.1497138775708 6.6736853540678 261.378230667796 4.76953125 263.7734375 C1.869226769962097 267.37340306078937 -1.5871933456259626 270.16967451055757 -5.125 273.125 C-5.502050781249977 273.4459765625 -5.502050781249977 273.4459765625 -7.41015625 275.0703125 C-29.547553861656525 293.4281544218615 -55.658838004311974 302.25853905500736 -84.25 302.375 C-84.87132812499999 302.3853125 -84.87132812499999 302.3853125 -88.015625 302.4375 C-95.52103132482603 302.4688378134648 -102.05925732166492 301.58556898464894 -109.319091796875 299.727294921875 C-115.5462175413947 298.39062745370046 -121.06911791740828 300.6047151047545 -126.9375 302.5625 C-156.70099546638295 312.1189916165966 -189.09435912575657 307.8142896734097 -219.125 301.125 C-219.125 300.465 -219.125 299.805 -219.125 299.125 C-210.41513624113367 295.2973782471366 -200.4729473346373 294.9980302752173 -191.095458984375 294.136962890625 C-178.802919767059 293.0080302239252 -166.74486179363333 291.32847930009353 -154.617431640625 289.036376953125 C-144.96219341263645 287.22205671269865 -135.27932937684463 285.8030002690744 -125.534912109375 284.556884765625 C-119.5223115296449 283.753986148876 -113.9083181300154 282.6521253006459 -108.15283203125 280.71533203125 C-106.12499999999994 280.125 -106.12499999999994 280.125 -103.125 280.125 C-103.125 279.465 -103.125 278.805 -103.125 278.125 C-103.92679687500004 277.978046875 -104.72859374999996 277.83109375 -105.5546875 277.6796875 C-119.12385275984312 275.0027773466976 -131.99678162366752 270.78052793057367 -144.5625 265 C-145.27833251953126 264.67555908203127 -145.9941650390625 264.3511181640625 -146.731689453125 264.016845703125 C-150.54565533392443 262.19514657135545 -152.7537425261671 260.58284050645307 -155.125 257.125 C-147.12445096360594 257.6758020586756 -139.4205073267105 258.93441334853867 -131.5625 260.5 C-103.57063248989164 265.8372113677751 -71.74139575872584 271.17527060839706 -44.125 261.125 C-45.76580927004693 259.48419072995307 -47.807080136441016 259.6644856397391 -50.06640625 259.36328125 C-102.59718965068214 252.03039621045883 -102.59718965068214 252.03039621045883 -120.125 238.125 C-120.45500000000001 237.135 -120.785 236.14499999999998 -121.125 235.125 C-118.58325978231605 235.26962686468664 -116.04161298992102 235.4156656715047 -113.5 235.5625 C-112.72019775390626 235.60689208984377 -111.9403955078125 235.65128417968754 -111.136962890625 235.697021484375 C-106.60416805489132 235.9603892227118 -102.0863232514289 236.29606906353524 -97.5625 236.6875 C-76.99150101526436 238.15685707033822 -50.27160598817329 239.69830299408665 -31.125 230.125 C-31.580321044921902 230.0748876953125 -31.580321044921902 230.0748876953125 -33.884521484375 229.8212890625 C-89.73332030805221 223.5927197304543 -89.73332030805221 223.5927197304543 -105.125 210.125 C-104.8125 208.1875 -104.8125 208.1875 -104.125 206.125 C-100.76470335937307 205.00490111979104 -99.29667817744371 205.25948268103264 -95.85546875 205.8671875 C-94.80907226562499 206.04604492187502 -93.76267578124998 206.22490234375 -92.6845703125 206.4091796875 C-92.1281787109375 206.5066650390625 -92.1281787109375 206.5066650390625 -89.3125 207 C-80.22361005025851 208.51353016126598 -71.34879920608091 209.89212691356767 -62.125 210.125 C-61.363325195312484 210.14546386718746 -60.601650390625025 210.16592773437503 -59.81689453125 210.18701171875 C-28.672091116742592 210.91382391029396 4.581621890299857 207.3817058459876 28.875 186.125 C29.535000000000025 186.125 30.194999999999993 186.125 30.875 186.125 C30.875 185.465 30.875 184.805 30.875 184.125 C31.246250000000032 183.79500000000002 31.246250000000032 183.79500000000002 33.125 182.125 C36.87000965414387 178.5933812093401 38.21989020022505 173.88690808315147 39.875 169.125 C39.05000000000001 169.7540625 38.22500000000002 170.383125 37.375 171.03125 C12.255553876120985 189.81273042541756 -17.91095834767208 198.24841519169286 -49.125 199.125 C-50.29417968749999 199.16496093750004 -51.46335937499998 199.20492187499997 -52.66796875 199.24609375 C-66.7227858609449 199.49786602701374 -80.61522080139821 198.09846447017696 -94.125 194.125 C-89.88979344994414 185.4428265723855 -89.88979344994414 185.4428265723855 -86.125 183.125 C-81.35306382251645 182.81679031370373 -76.83424301146795 183.35732887895247 -72.125 184.125 C-72.125 183.135 -72.125 182.145 -72.125 181.125 C-74.435 180.465 -76.745 179.805 -79.125 179.125 C-79.125 176.12500000000003 -79.125 176.12500000000003 -78.1875 173.875 C-77.50687500000004 173.2975 -76.82624999999996 172.72 -76.125 172.125 C-74.03099969040358 172.32798982593027 -71.93752984101656 172.54352802859972 -69.851806640625 172.81884765625 C-53.17760762996164 174.69094413394467 -36.270899980114166 173.58717693224247 -20.125 169.125 C-19.358974609375025 168.9160107421875 -18.592949218749993 168.707021484375 -17.8037109375 168.49169921875 C-3.1152601960855577 164.3495188765894 11.069146396879262 157.92134660684488 22.875 148.125 C17.99688690174753 149.74093808637764 13.128729673399619 151.37919897928043 8.2734375 153.0625 C-2.7739399089470567 156.86330763760643 -13.535753768233405 160.40367789643415 -25.125 162.125 C-25.956445312500023 162.25390625 -26.78789062499999 162.3828125 -27.64453125 162.515625 C-40.11679211515184 164.17568073686786 -53.25241998833462 163.3998472659249 -65.125 159.125 C-63.758280892905645 157.22505336248625 -62.36701122500233 155.35443827892908 -60.93359375 153.50390625 C-59.125 151.12499999999994 -59.125 151.12499999999994 -57.47265625 148.58984375 C-55.500283480670305 145.86650191751198 -53.927492446273675 144.00612506667684 -51.125 142.125 C-46.00360244970312 141.3710886854893 -41.255918771930965 141.5838484107729 -36.125 142.125 C-36.125 141.465 -36.125 140.805 -36.125 140.125 C-39.754999999999995 139.795 -43.38499999999999 139.465 -47.125 139.125 C-43.90343426883305 132.6818685376661 -43.90343426883305 132.6818685376661 -41.125 130.125 C-38.0423754593113 129.59205577247803 -35.04700445830173 129.85576663116723 -31.9375 130.0625 C-8.144989776213663 130.80628543196866 12.790598903045577 120.85506455880255 30.78125 105.7265625 C32.875 104.125 32.875 104.125 35.875 103.125 C37.06250000000006 101.06249999999989 37.06250000000006 101.06249999999989 37.875 99.125 C34.30825885831632 100.501530981309 30.898210240571814 102.05781513234001 27.48046875 103.76953125 C7.506569457122964 113.65574459927763 -10.481992699691261 120.78237763129928 -33.125 120.125 C-31.524066775184792 115.03383347139518 -28.411624597892057 111.28070875637934 -25.1875 107.125 C-18.66742475002576 98.66061488506341 -18.66742475002576 98.66061488506341 -16.125 94.125 C-21.372325644527848 98.40853113839012 -25.76186610383553 102.95711029632076 -30.125 108.125 C-33.991517989587805 112.61381165743995 -37.88136944618873 116.98487263042804 -42.125 121.125 C-43.419965576340644 122.39247161505952 -44.71130865666288 123.66364963182608 -46 124.9375 C-46.61617187500002 125.54207031249999 -47.232343749999984 126.146640625 -47.8671875 126.76953125 C-50.42257153023729 129.4354422711645 -52.8291985576854 132.20881773963248 -55.25146484375 134.995361328125 C-58.26275463735891 138.4182803885434 -61.37694087852026 141.74174301222342 -64.5 145.0625 C-65.15266845703127 145.75835205078124 -65.80533691406254 146.4542041015625 -66.477783203125 147.171142578125 C-70.70688526670472 151.66420345780924 -75.01439033282725 156.0528345465903 -79.4140625 160.37890625 C-81.125 162.12500000000003 -81.125 162.12500000000003 -83.1875 164.75 C-84.91381140484725 166.8661236575547 -86.55833088161643 168.40519483449532 -88.6328125 170.15625 C-93.6645204489472 174.5151363498258 -98.2773247998075 179.25127568638837 -102.9375 184 C-108.92086320945486 190.04386729219596 -114.83771815429662 195.8456701166371 -121.55859375 201.0625 C-124.72417901253763 203.60653199181104 -127.6648698225537 206.3472964497684 -130.625 209.125 C-135.34813740469366 213.5439540823773 -140.1922872419641 217.7219094643507 -145.23828125 221.7734375 C-148.63089022662035 224.5371054349465 -151.93985315574918 227.38862673377946 -155.25 230.25 C-160.42437583249557 234.7087559103386 -165.68185753915287 238.9963579293575 -171.125 243.125 C-172.02734375 243.823671875 -172.9296875 244.52234375 -173.859375 245.2421875 C-190.9216988314764 258.45033158274185 -208.2361146352014 271.32988213583485 -225.8671875 283.76953125 C-229.3050066851112 286.19614371935864 -232.72493523444388 288.6457448535374 -236.125 291.125 C-236.686064453125 291.5336328125 -237.24712890625 291.942265625 -237.8251953125 292.36328125 C-254.09503432402835 304.3408493428175 -271.3040822690962 318.62462126810925 -276.125 339.125 C-276.390625 342.328125 -276.390625 342.328125 -276.375 345.375 C-276.38015625 346.39078125 -276.3853125 347.4065625 -276.390625 348.453125 C-276.125 351.125 -276.125 351.125 -274.125 354.125 C-269.9338766893261 353.6414088487684 -268.3728408008187 351.4553074858933 -265.75 348.3125 C-260.4485228406021 342.2301178580394 -255.43366021904532 337.8015873739194 -247.039794921875 336.9013671875 C-222.46573624261458 335.6899142893691 -200.68409432930437 343.9116406398375 -179.15478515625 355.0869140625 C-161.2847714052025 364.22611281995177 -145.01753473545844 368.73157357325925 -125.125 371.125 C-125.125 370.465 -125.125 369.805 -125.125 369.125 C-125.48529296875 369.07601562499997 -125.48529296875 369.07601562499997 -127.30859375 368.828125 C-134.01738553920083 367.153253263445 -140.3360670610869 361.8083994083696 -144.125 356.125 C-142.12499999999997 355.125 -142.12499999999997 355.125 -138.9765625 356.1640625 C-138.64587768554688 356.2883361816406 -138.64587768554688 356.2883361816406 -136.972412109375 356.917236328125 C-118.68156271407253 363.7710303836426 -98.62028529575127 366.81864551678103 -79.125 367.125 C-79.9641796875 366.8684765625 -80.80335937500001 366.611953125 -81.66796875 366.34765625 C-104.33268080222598 359.13284437485413 -126.59255239900475 349.20864794750634 -145.49609375 334.609375 C-148.125 333.125 -148.125 333.125 -150.56640625 333.375 C-151.4107421875 333.6225 -152.255078125 333.87 -153.125 334.125 C-161.7105496503635 334.7003203373955 -169.89400800378576 334.0025092244199 -178.375 332.6875 C-194.26541439430991 330.2265760457958 -210.0707867193284 329.95237405074545 -226.125 330.125 C-225.125 327.125 -225.125 327.125 -223.2890625 326.0625 C-205.84719594374457 319.62242619461335 -187.511631723222 319.67860746185085 -169.16796875 319.689208984375 C-153.13814994658262 319.66930440804623 -138.51387725291556 318.07718412231486 -123.3125 312.8125 C-118.82781645512702 311.35919198557565 -115.48523245880443 311.02651458594397 -110.80078125 311.51171875 C-103.28402308377429 312.16451196133283 -95.8495866396803 312.2773135079077 -88.3115234375 312.25537109375 C-86.12688259718664 312.25000462451294 -83.94244723601923 312.25535953558705 -81.7578125 312.26171875 C-74.94530408820805 312.2621500397047 -68.28522471324737 312.0862450773799 -61.49609375 311.41796875 C-55.84795493393551 310.9694092325408 -52.97470736476208 311.32434611079844 -48.1875 314.3125 C-47.02148435410953 314.97526006014823 -45.849366135965 315.6273801708037 -44.671875 316.26953125 C-44.087285156250005 316.5887353515625 -43.50269531250001 316.907939453125 -42.900390625 317.23681640625 C-31.823059128874945 322.778528725131 -19.22065760835619 322.86459832920656 -7.125 323.125 C-7.125 322.465 -7.125 321.805 -7.125 321.125 C-7.49560546875 321.08181640625 -7.49560546875 321.08181640625 -9.37109375 320.86328125 C-22.550586316377235 319.1049401364931 -35.53639907581436 315.8162069218271 -47.125 309.125 C-44.54948631910605 307.40799087940405 -42.4084514159037 306.3428888989 -39.5625 305.21484375 C-38.68335937500001 304.86486328125 -37.80421875000002 304.5148828125 -36.8984375 304.154296875 C-36.44082031250002 303.974150390625 -36.44082031250002 303.974150390625 -34.125 303.0625 C-33.20976562499999 302.69833984375 -32.29453124999998 302.3341796875 -31.3515625 301.958984375 C-24.93071133012404 299.41229780395685 -21.10266842179294 298.0492761183069 -14.125 299.125 C4.336025000397626 300.23608020835724 22.850891892919662 296.813533008851 40.875 293.125 C40.875 292.465 40.875 291.805 40.875 291.125 C40.10542968750002 291.2577734375 39.335859374999984 291.390546875 38.54296875 291.52734375 C29.73118176726979 292.88224253410107 20.970463325485525 293.4640829595161 12.0625 293.8125 C10.918698730468748 293.86075927734373 9.774897460937495 293.9090185546875 8.596435546875 293.958740234375 C1.9270860875076892 294.1875501490976 -4.507640045934863 294.00687731437125 -11.125 293.125 C-4.223647213813649 285.792312664677 1.7834175271421486 281.43460820035074 11.875 279.875 C13.583636001437526 279.5798719633881 15.291974757153696 279.2830174504363 17 278.984375 C17.81468749999999 278.84708984375 18.629374999999982 278.7098046875 19.46875 278.568359375 C22.98622050837764 277.92025401347263 26.41742100069166 277.03741668037304 29.875 276.125 C29.875 275.465 29.875 274.805 29.875 274.125 C23.605000000000018 274.785 17.33499999999998 275.445 10.875 276.125 C12.865836308949497 272.14332738210095 15.083709660700833 269.8416731121423 18.25 266.875 C25.388059665164633 259.9790563387569 31.125760492272263 252.18395941166773 36.875 244.125 C37.35598144531252 243.45291503906253 37.83696289062499 242.780830078125 38.33251953125 242.08837890625 C39.514904958568025 240.43503279239224 40.695178207762126 238.780176488929 41.875 237.125 C52.283546233522884 237.70325256852902 60.81720428467264 242.52536563723606 67.875 250.125 C68.28814453125 250.72916748046873 68.7012890625 251.33333496093752 69.126953125 251.955810546875 C72.95757007737063 257.55486053176196 76.84188232132226 260.3208302599956 82.875 263.3125 C96.79339485690582 270.4209871422646 96.79339485690582 270.4209871422646 99.125 276.25 C98.38345691811224 287.74391776926007 88.32678138520362 297.052804977053 80.875 305.125 C80.36598144531251 305.679296875 79.85696289062503 306.23359375 79.33251953125 306.8046875 C72.35387594508427 314.3204956005276 64.81742791351388 321.81085736216204 54.875 325.125 C54.98843750000003 325.71281250000004 54.98843750000003 325.71281250000004 55.5625 328.6875 C56.202493119296776 334.122665445968 54.609275047923916 337.74697742736197 51.46484375 342.05859375 C41.53917493627131 354.0961069921816 25.672422114581366 364.7358673815641 9.79443359375 366.33447265625 C4.825722109668277 366.7318437582688 -0.14377635499096186 366.9574182300403 -5.125 367.125 C-5.391835937499991 368.0325 -5.658671874999982 368.94 -5.93359375 369.875 C-8.833313196377901 377.785054358644 -15.810586531774902 383.3210534895187 -23.125 387.125 C-32.566389978186464 390.9331895143974 -41.26450324896848 392.31747228022175 -51.375 392.375 C-51.82037109375 392.3853125 -51.82037109375 392.3853125 -54.07421875 392.4375 C-59.82180288319813 392.4708676872755 -64.52095101252979 391.65658757528166 -69.9248046875 389.6748046875 C-72.44637944309227 389.0446908005056 -73.71343013386263 389.20756865898386 -76.125 390.125 C-77.79583818538498 391.4531021473573 -79.4622971322832 392.78672696013035 -81.125 394.125 C-85.59504230008196 396.6083568333789 -90.13668636240197 396.79826932532 -95.125 396.125 C-98.0705123663368 395.1484130122306 -100.89785653564479 394.0445240742061 -103.7421875 392.8046875 C-104.52851562500001 392.580390625 -105.31484375000002 392.35609375 -106.125 392.125 C-107.11500000000001 392.785 -108.10500000000002 393.445 -109.125 394.125 C-137.70635485506065 398.608349781186 -171.68929273553184 382.57638694528646 -197.099365234375 371.37890625 C-214.41065507709752 363.82471095086527 -231.75634306895472 358.7259197428721 -250.75 358.75 C-251.87994384765625 358.74943603515624 -253.0098876953125 358.7488720703125 -254.174072265625 358.748291015625 C-264.7393382363175 358.8858537102274 -274.1401481425622 360.79671604752076 -284.125 364.125 C-286.17578125 364.3984375 -286.17578125 364.3984375 -288.4375 364.5 C-289.1761328125 364.548984375 -289.914765625 364.59796875 -290.67578125 364.6484375 C-295.6350818486201 363.58855507541455 -298.4595929534687 360.14406827204994 -301.109375 356.0859375 C-321.18142405154174 315.3201387625767 -321.18142405154174 315.3201387625767 -319.125 295.125 C-316.6511799607539 289.3527532417591 -312.36802502947364 287.1097604925718 -307.125 284.125 C-294.4022266863477 276.7728296862883 -286.31746768963063 268.46096577928165 -282.2607421875 254.05615234375 C-281.51956567341085 250.85851934790514 -280.84293340635537 247.65375758621542 -280.1875 244.4375 C-275.01467708233713 220.70801460920165 -266.03578800553987 200.31711235146645 -247.125 184.125 C-246.465 184.125 -245.805 184.125 -245.125 184.125 C-244.65801422013726 207.28031028457826 -245.80689390158045 228.95331221666947 -253.125 251.125 C-253.785 251.45499999999998 -254.445 251.78500000000003 -255.125 252.125 C-255.125 241.565 -255.125 231.005 -255.125 220.125 C-255.785 219.79499999999996 -256.445 219.46500000000003 -257.125 219.125 C-258.7465166376 225.5112467847474 -260.3180594836493 231.9060419929259 -261.80859375 238.32421875 C-262.09669921875 239.55333984375 -262.38480468750004 240.7824609375 -262.681640625 242.048828125 C-263.2712794520895 244.56819402256446 -263.85456524810286 247.08905484844945 -264.431640625 249.611328125 C-267.76704551956743 263.7329421663644 -272.4434924637785 275.1706493948431 -285.125 283.125 C-292.7067863609128 287.53670147133255 -300.8498091108392 290.32288204761846 -309.125 293.125 C-308.795 294.775 -308.46500000000003 296.425 -308.125 298.125 C-301.24715213077957 299.79235705920496 -294.9368151595267 299.14698631542615 -288.125 297.5 C-287.38805908203125 297.3232373046875 -286.6511181640625 297.146474609375 -285.891845703125 296.96435546875 C-278.3151580703783 295.0565856265819 -271.2528769633543 292.29384122918356 -264.125 289.125 C-263.19171875 288.7318359375 -262.2584375 288.338671875 -261.296875 287.93359375 C-244.09294920413976 280.09351899445795 -228.80719148892786 267.39821435259574 -214.1044921875 255.69140625 C-211.16018177877237 253.3615227297242 -208.17363235847003 251.08833005390886 -205.1875 248.8125 C-200.43193955992888 245.15985008593043 -195.7624236952833 241.42083122311686 -191.13671875 237.60546875 C-187.4804860596584 234.5941746405747 -183.80319234414955 231.60939642779806 -180.125 228.625 C-178.0771258898309 226.96149095582507 -176.02951037394604 225.2976640615061 -173.98193359375 223.6337890625 C-172.35933631556532 222.31540210757214 -170.7363422313587 220.99750354971536 -169.11328125 219.6796875 C-163.65225678386636 215.231144942186 -158.26002308108298 210.70951261062862 -152.896484375 206.14453125 C-149.6235354135554 203.36701079642603 -146.30899827858093 200.65809347041727 -142.9375 198 C-138.69008711770417 194.6363230238593 -134.68853604681502 191.0571953927187 -130.6875 187.40625 C-128.07974475281335 185.08471179213873 -125.40458856198066 182.87969645341622 -122.6875 180.6875 C-117.85551071613156 176.7768646050048 -113.2510704591266 172.6673561505407 -108.67578125 168.4609375 C-106.51681247528415 166.4838114245328 -104.33602273428016 164.5433211503123 -102.125 162.625 C-97.94492923587529 158.9931352377277 -93.86404684954289 155.25541808465144 -89.7734375 151.5234375 C-87.61928692678066 149.57262857381025 -85.447815311456 147.6510638769978 -83.25 145.75 C-79.04682792178892 142.10033206377557 -74.9790535143083 138.30862430060273 -70.8984375 134.5234375 C-68.05168899763657 131.88755925707088 -65.19153595950911 129.28049163328953 -62.25 126.75 C-57.58393620720682 122.71931510665098 -53.12204797587833 118.46857594119274 -48.626953125 114.249755859375 C-45.382515450071764 111.21073957685383 -42.125464120606466 108.20672325200596 -38.75 105.3125 C-35.170942624385816 102.23698965775145 -31.878561656366855 98.91713278425505 -28.59375 95.53125 C-26.600198819642173 93.58816846977783 -24.580589983094796 91.7762243065348 -22.47119140625 89.964599609375 C-18.188871275609586 86.22870968709685 -14.137794487405813 82.29921810456489 -10.1171875 78.28515625 C-9.388071594238284 77.55936874389647 -8.658955688476567 76.83358123779297 -7.907745361328125 76.08580017089844 C-6.378762102328267 74.56184370056496 -4.851098098859325 73.0365625614678 -3.32470703125 71.510009765625 C-1.0044317685614033 69.19192757974426 1.3237389564048385 66.88197657569668 3.65234375 64.572265625 C5.146323175517409 63.08121981142034 6.639828857839461 61.58969914023601 8.1328125 60.09765625 C8.476634674072272 59.75742683410644 8.476634674072272 59.75742683410644 10.216583251953125 58.03565979003906 C14.549187291855503 53.68268718398569 18.32664027629869 49.13797280980938 21.875 44.125 C7.568359365563879 53.60559918754585 -5.470288325965953 64.60102645216412 -18.5009765625 75.7392578125 C-20.192142207168672 77.18229091519683 -21.88874619096464 78.6187481716081 -23.5859375 80.0546875 C-28.398854602787083 84.14044933273473 -33.19630817497364 88.22084199660145 -37.79296875 92.55078125 C-38.38400390624997 93.10709228515626 -38.9750390625 93.66340332031251 -39.583984375 94.236572265625 C-40.71309927397397 95.30683922706766 -41.83582383148081 96.38389967939142 -42.951171875 97.468505859375 C-46.79869065492187 101.125 -46.79869065492187 101.125 -50.125 101.125 C-48.18099860301777 80.87256753591669 -43.26535120079075 62.03716968550265 -35.780029296875 43.135986328125 C-35.125 41.12500000000006 -35.125 41.12500000000006 -35.125 38.125 C-48.7884035631476 58.36707935281129 -60.31654434753818 81.5565068507866 -62.390625 106.29296875 C-63.259191894858645 115.31006454004535 -67.27386423485143 119.45509453918743 -74.125 125.125 C-74.9951171875 125.8778125 -75.865234375 126.63062500000001 -76.76171875 127.40625 C-79.125 129.125 -79.125 129.125 -82.125 129.125 C-82.60896550057635 127.58483306105882 -83.08692387145146 126.04277806294695 -83.5625 124.5 C-83.82933593749999 123.641484375 -84.09617187499998 122.78296875000001 -84.37109375 121.8984375 C-86.57008753769321 113.80887486133577 -86.40800760580476 105.62665356969649 -86.4375 97.3125 C-86.44078308105469 96.56077514648439 -86.44406616210938 95.80905029296875 -86.44744873046875 95.0345458984375 C-86.46953908591547 79.34705913799309 -85.65345415474985 62.967156199238445 -80.125 48.125 C-97.91127181405227 64.4823535710629 -99.97980225265167 102.59353151756946 -101.125 125.125 C-101.18585964032627 127.1534353635235 -101.23909051329201 129.1821122567336 -101.28515625 131.2109375 C-101.31254882812499 132.21100830078126 -101.33994140624998 133.2110791015625 -101.3681640625 134.241455078125 C-101.41319856043327 136.1549455237615 -101.43596015737558 138.06913689462948 -101.4326171875 139.983154296875 C-101.52865610565425 144.49403488684774 -101.60485348523332 146.47503038138353 -104.50390625 150.09765625 C-105.36886718749997 150.7666796875 -106.233828125 151.435703125 -107.125 152.125 C-107.99125000000004 152.90875 -108.85749999999996 153.6925 -109.75 154.5 C-110.141875 154.768125 -110.141875 154.768125 -112.125 156.125 C-115.125 155.125 -115.125 155.125 -116.37109375 152.81640625 C-119.93888768562778 143.446560537089 -122.26780210746 133.96792289397865 -124.125 124.125 C-124.30297119140624 123.18624023437499 -124.48094238281249 122.24748046875001 -124.664306640625 121.2802734375 C-125.50979699931793 115.48953819863021 -125.31536896657909 109.65443319664999 -125.3125 103.8125 C-125.31286254882812 103.47854217529297 -125.31286254882812 103.47854217529297 -125.314697265625 101.78851318359375 C-125.31345415093293 91.4461097241578 -124.80181943451092 81.33563262800405 -123.125 71.125 C-142.4873199536441 93.74764187023706 -141.80055554869585 132.02770180812755 -143.391357421875 160.168701171875 C-144.58719596831224 180.18095310698635 -144.58719596831224 180.18095310698635 -149.125 185.125 C-149.785 185.125 -150.445 185.125 -151.125 185.125 C-151.76335921974493 182.79467896481464 -152.38533562496778 180.46159648948415 -153 178.125 C-153.1740234375 177.4959375 -153.348046875 176.866875 -153.52734375 176.21875 C-157.0123642061792 162.79496750212456 -157.45217746462347 149.17241323765703 -157.3857421875 135.3896484375 C-157.37503878168442 132.75952971754535 -157.38569857528768 130.13009799445285 -157.3984375 127.5 C-157.40631523081132 116.24823708219614 -156.61317132588695 105.27611520843999 -155.125 94.125 C-162.74687143992304 100.06590556770013 -165.0721476083706 106.91257048581494 -167.109375 116.2421875 C-167.28100662231446 117.02263427734374 -167.4526382446289 117.80308105468748 -167.6294708251953 118.607177734375 C-169.55845575279997 127.70771690271067 -170.696064484214 136.89627722796934 -171.8125 146.125 C-172.12897490755 148.69440023951495 -172.44792662583103 151.26344597301065 -172.7709503173828 153.83203125 C-172.96881793938886 155.40963602250636 -173.16268087787105 156.9877497504724 -173.3519744873047 158.56640625 C-174.01364361632417 163.90228723264838 -174.01364361632417 163.90228723264838 -175.125 166.125 C-175.785 166.125 -176.445 166.125 -177.125 166.125 C-182.32194651271885 152.67097603306289 -184.30925490424758 138.47086202874937 -185.125 124.125 C-185.785 124.125 -186.445 124.125 -187.125 124.125 C-194.3116510401842 139.6495617130193 -193.3445534659127 157.90313413334908 -194.18417358398438 174.68142700195313 C-194.70621516912774 184.97057310180497 -195.36430383541784 195.20092377698353 -196.5625 205.4375 C-196.67263427734375 206.41928222656247 -196.7827685546875 207.401064453125 -196.896240234375 208.41259765625 C-197.61108416119498 214.05851779843317 -198.91609570342968 218.87654494436072 -201.125 224.125 C-201.785 224.125 -202.445 224.125 -203.125 224.125 C-203.29104736328125 223.06176513671875 -203.4570947265625 221.9985302734375 -203.628173828125 220.903076171875 C-204.25377143749608 216.90809934398447 -204.88756840741462 212.9144573275209 -205.523681640625 208.921142578125 C-205.79638148082674 207.2020878332545 -206.06694145602816 205.48269206549907 -206.335205078125 203.762939453125 C-207.7969110671204 194.40203275637418 -209.27686266353052 185.1881844448533 -212.125 176.125 C-220.54446372995685 183.59125378701285 -222.42455728140652 197.20178899578616 -225.125 207.6875 C-225.47173727706888 209.00628112886477 -225.8191581179274 210.32488270859767 -226.167236328125 211.643310546875 C-227.70180758590982 217.48118682254892 -229.19049421988714 223.32749585710133 -230.57421875 229.203125 C-230.78755859375002 230.0995874023438 -231.00089843749998 230.99604980468746 -231.220703125 231.919677734375 C-231.5981623718884 233.52559242627274 -231.96399138537447 235.13431616317428 -232.314453125 236.746337890625 C-233.64931576771022 242.45338712983687 -236.08545649959967 247.1314118957735 -239.125 252.125 C-239.785 251.46499999999997 -240.445 250.805 -241.125 250.125 C-240.908935546875 247.438720703125 -240.908935546875 247.438720703125 -240.26171875 244.05078125 C-240.03419921875002 242.82552734374997 -239.80667968749998 241.6002734375 -239.572265625 240.337890625 C-239.32154296875 239.05076171874998 -239.07082031250002 237.76363281249996 -238.8125 236.4375 C-238.33633569010073 233.91293073430762 -237.8610485948248 231.38819582788358 -237.38671875 228.86328125 C-237.16975341796876 227.73962158203125 -236.9527880859375 226.6159619140625 -236.729248046875 225.458251953125 C-235.58171535432183 219.12804433638615 -235.05862316402897 213.29947795143426 -235.4140625 206.875 C-236.6566881712405 176.7423602070666 -236.6566881712405 176.7423602070666 -230.0625 169.25 C-228.58332041671827 167.66895575675935 -227.07372208919776 166.1385457288304 -225.5185546875 164.63232421875 C-216.3383954450877 154.7026985770798 -214.55038635496675 138.43589903112147 -212.359375 125.70703125 C-209.58469385541093 109.69629688300483 -209.58469385541093 109.69629688300483 -204.1875 104.125 C-201.68692051049533 102.91259782327046 -199.8703995635238 102.89621670303967 -197.125 103.125 C-197.186875 101.825625 -197.24875 100.52625 -197.3125 99.1875 C-197.3125 93.56798188589553 -196.29271173991074 87.88390585079549 -192.75 83.375 C-190.3920419977051 81.56118615208084 -188.1980904894082 81.96895549022824 -185.33203125 82.0859375 C-181.87000870703505 82.14721223527371 -178.54863313682205 81.61409044811745 -175.125 81.125 C-175.0425 79.825625 -174.96 78.52625 -174.875 77.1875 C-173.96304089059217 69.119195101489 -170.28920532236685 62.296855141365256 -165.125 56.125 C-164.238125 55.77437499999999 -163.35125 55.42375 -162.4375 55.0625 C-161.674375 54.753125 -160.91125 54.443749999999994 -160.125 54.125 C-159.06249999999997 51.37499999999994 -159.06249999999997 51.37499999999994 -158.125 48.125 C-153.04303278688525 39.76434426229508 -153.04303278688525 39.76434426229508 -148.875 38.375 C-145.4882722385397 38.06711565804906 -142.46354427104563 38.53584512863901 -139.125 39.125 C-138.761484375 38.52171874999999 -138.39796875 37.91843750000001 -138.0234375 37.296875 C-134.97461179354218 32.45002387691321 -132.4618966588102 28.630073941890487 -127.125 26.125 C-123.07606344086972 25.62776217694892 -120.99147127702571 25.58861301898409 -117.5 27.75 C-115.125 29.125 -115.125 29.125 -112.89453125 28.53515625 C-109.3872395719005 26.749356114888684 -106.46669981220032 24.417108691211922 -103.4375 21.9375 C-102.19416903394779 20.94218298796295 -100.94936933905075 19.948697974751113 -99.703125 18.95703125 C-99.09533203125 18.473149414062505 -98.48753906249999 17.989267578124995 -97.861328125 17.49072265625 C-89.59551979065589 10.98918556087304 -82.43478209411228 5.498067277489838 -71.5546875 5.74609375 C-68.97303254743372 6.148699104339116 -67.44282297591025 6.861839532417349 -65.25 8.25 C-64.734375 8.559375000000003 -64.734375 8.559375000000003 -62.125 10.125 C-58.472939462184115 8.83418549956508 -55.2508709898317 6.325857379049168 -52 4.25 C-36.7657666804169 -5.247609039380798 -15.972950253484385 -11.47959623227299 0 0 Z M-127.125 326.125 C-113.76845785269731 340.5627860354177 -83.5816972948594 343.9400651777637 -65.125 347.125 C-63.85140624999997 347.351875 -62.57781249999999 347.57875 -61.265625 347.8125 C-40.50236708113721 350.9664125952703 -16.108450959286927 351.43214422994595 3.875 344.125 C3.875 343.465 3.875 342.805 3.875 342.125 C3.4400622558594023 342.1203271484375 3.4400622558594023 342.1203271484375 1.239013671875 342.0966796875 C-15.23773006091028 341.8746534161817 -31.145560003958394 341.5672768150536 -47.125 337.125 C-48.56607169164073 336.75909650994384 -50.0074815437423 336.3945223669311 -51.44921875 336.03125 C-63.50710494374084 332.8648627102538 -75.39237277559425 328.149826171466 -85.75 321.125 C-96.79128688577129 314.58201517880224 -115.68726559623195 322.4970503465046 -127.125 326.125 Z " fill="#000000" transform="translate(365.125,62.875)"/>
</svg>
