<svg xmlns="http://www.w3.org/2000/svg" width="512" height="512"><path d="M365.125 62.875c4.968 2.906 8.681 1.69 14.095.462 7.166-1.491 14.29-1.73 21.588-1.764 2.021-.01 4.043-.043 6.064-.076 10.315.018 19.936 1.461 27.694 8.792 5.82 6.945 6.625 14.313 6.622 23.024l.01 2.687c-.036 6.804-.795 13.16-2.151 19.836-.062 4.166 1.466 5.91 3.953 9.164 3.842 9.604 2.47 19.025-.93 28.504C441 156 441 156 439 159c.141 4.23 3.131 6.2 6 9 3.814 5.448 4.439 10.42 4 17-1.02 4.156-2.153 7.88-4.75 11.313L443 198c.303 1.34.643 2.673 1 4 .964 9.145-.84 15.89-5 24l-1.574 3.07c-5.12 9.334-11.795 17.614-20.426 23.93h-2l.84 1.469c3.006 5.562 5.336 10.519 3.484 16.836-4.798 10.922-16.478 23.293-26.887 29.132-2.724 1.747-3.853 3.276-5.562 6-3.263 4.892-6.944 9.102-10.967 13.364-2.1 2.224-4.11 4.452-6.013 6.847-2.9 3.6-6.357 6.397-9.895 9.352l-2.285 1.945c-22.138 18.358-48.249 27.189-76.84 27.305l-3.766.063c-7.505.03-14.043-.852-21.303-2.71-6.227-1.337-11.75.877-17.619 2.834-29.763 9.557-62.156 5.252-92.187-1.437v-2c8.71-3.828 18.652-4.127 28.03-4.988a385 385 0 0 0 36.478-5.1c9.655-1.815 19.338-3.234 29.082-4.48 6.013-.803 11.627-1.905 17.382-3.842C259 343 259 343 262 343v-2l-2.43-.445c-13.569-2.677-26.442-6.9-39.007-12.68l-2.17-.983c-3.814-1.822-6.022-3.434-8.393-6.892 8 .55 15.704 1.81 23.563 3.375 27.991 5.337 59.82 10.675 87.437.625-1.64-1.64-3.682-1.46-5.941-1.762-52.531-7.333-52.531-7.333-70.059-21.238l-1-3a8794 8794 0 0 1 9.988.572c4.533.263 9.05.6 13.575.99 20.57 1.47 47.29 3.011 66.437-6.562l-2.76-.304c-55.848-6.228-55.848-6.228-71.24-19.696.313-1.937.313-1.937 1-4 3.36-1.12 4.828-.866 8.27-.258l3.17.542 3.373.591c9.088 1.514 17.963 2.892 27.187 3.125l2.308.062c31.145.727 64.399-2.805 88.692-24.062h2v-2l2.25-2c3.745-3.532 5.095-8.238 6.75-13l-2.5 1.906C377.38 252.688 347.214 261.123 316 262l-3.543.121c-14.055.252-27.947-1.148-41.457-5.121 4.235-8.682 4.235-8.682 8-11 4.772-.308 9.29.232 14 1v-3l-7-2c0-3 0-3 .938-5.25L289 235c2.094.203 4.187.419 6.273.694 16.674 1.872 33.581.768 49.727-3.694l2.321-.633C362.01 227.225 376.194 220.797 388 211a1114 1114 0 0 0-14.602 4.938c-11.047 3.8-21.809 7.34-33.398 9.062l-2.52.39c-12.472 1.66-25.607.885-37.48-3.39 1.367-1.9 2.758-3.77 4.191-5.621C306 214 306 214 307.652 211.465c1.973-2.723 3.546-4.584 6.348-6.465 5.121-.754 9.87-.541 15 0v-2l-11-1c3.222-6.443 3.222-6.443 6-9 3.083-.533 6.078-.27 9.188-.062 23.792.743 44.728-9.208 62.718-24.336C398 167 398 167 401 166c1.188-2.063 1.188-2.063 2-4-3.567 1.377-6.977 2.933-10.395 4.645C372.632 176.53 354.643 183.657 332 183c1.6-5.091 4.713-8.844 7.938-13 6.52-8.464 6.52-8.464 9.062-13-5.247 4.284-9.637 8.832-14 14-3.867 4.489-7.756 8.86-12 13a1101 1101 0 0 0-3.875 3.813l-1.867 1.832c-2.556 2.665-4.962 5.439-7.384 8.225-3.012 3.423-6.126 6.747-9.249 10.067l-1.978 2.11a477 477 0 0 1-12.936 13.207C284 225 284 225 281.937 227.625c-1.726 2.116-3.37 3.655-5.445 5.406-5.032 4.36-9.644 9.095-14.305 13.844-5.983 6.044-11.9 11.846-18.62 17.063-3.166 2.544-6.107 5.284-9.067 8.062a255 255 0 0 1-14.613 12.648c-3.393 2.764-6.702 5.616-10.012 8.477-5.174 4.459-10.432 8.746-15.875 12.875l-2.734 2.117c-17.063 13.208-34.377 26.088-52.008 38.528A820 820 0 0 0 129 354l-1.7 1.238C111.03 367.216 93.82 381.5 89 402c-.266 3.203-.266 3.203-.25 6.25l-.016 3.078C89 414 89 414 91 417c4.191-.484 5.752-2.67 8.375-5.812 5.301-6.083 10.316-10.511 18.71-11.412 24.574-1.211 46.356 7.01 67.885 18.186 17.87 9.14 34.137 13.645 54.03 16.038v-2l-2.184-.297c-6.708-1.675-13.027-7.02-16.816-12.703 2-1 2-1 5.148.04.331.123.331.123 2.005.752 18.29 6.854 38.352 9.902 57.847 10.208l-2.543-.777c-22.665-7.215-44.925-17.14-63.828-31.739C217 396 217 396 214.559 396.25L212 397c-8.586.575-16.769-.122-25.25-1.437-15.89-2.461-31.696-2.736-47.75-2.563 1-3 1-3 2.836-4.062 17.442-6.44 35.777-6.384 54.121-6.374 16.03-.02 30.654-1.612 45.856-6.877 4.484-1.453 7.827-1.785 12.511-1.3 7.517.653 14.951.765 22.49.743q3.277-.005 6.553.007c6.813 0 13.473-.176 20.262-.844 5.648-.449 8.521-.094 13.308 2.894q1.75.994 3.516 1.958l1.772.967c11.077 5.542 23.68 5.628 35.775 5.888v-2l-2.246-.262C342.574 381.98 329.589 378.691 318 372c2.576-1.717 4.717-2.782 7.563-3.91l2.664-1.06 2.773-1.092 2.773-1.104c6.421-2.547 10.25-3.91 17.227-2.834 18.461 1.111 36.976-2.311 55-6v-2l-2.332.402c-8.812 1.355-17.573 1.937-26.48 2.286l-3.467.146c-6.669.229-13.104.048-19.721-.834 6.901-7.333 12.908-11.69 23-13.25q2.563-.443 5.125-.89l2.469-.417c3.517-.648 6.948-1.53 10.406-2.443v-2l-19 2c1.99-3.982 4.209-6.283 7.375-9.25 7.138-6.896 12.876-14.691 18.625-22.75l1.458-2.037q1.773-2.48 3.542-4.963c10.409.578 18.942 5.4 26 13l1.252 1.83c3.83 5.6 7.715 8.366 13.748 11.358 13.918 7.108 13.918 7.108 16.25 12.937-.742 11.494-10.798 20.803-18.25 28.875l-1.542 1.68c-6.98 7.515-14.516 15.006-24.458 18.32l.688 3.563c.64 5.435-.954 9.059-4.098 13.37-9.926 12.038-25.793 22.678-41.67 24.276-4.97.398-9.939.623-14.92.791l-.809 2.75c-2.9 7.91-9.877 13.446-17.191 17.25-9.441 3.808-18.14 5.192-28.25 5.25l-2.7.063c-5.747.033-10.446-.781-15.85-2.763-2.521-.63-3.788-.467-6.2.45a1049 1049 0 0 0-5 4c-4.47 2.483-9.012 2.673-14 2a101 101 0 0 1-8.617-3.32L259 455l-3 2c-28.581 4.483-62.564-11.549-87.974-22.746-17.312-7.554-34.657-12.653-53.651-12.629l-3.424-.002c-10.565.138-19.966 2.049-29.951 5.377-2.05.273-2.05.273-4.312.375l-2.239.148c-4.96-1.06-7.784-4.504-10.433-8.562C43.944 378.195 43.944 378.195 46 358c2.474-5.772 6.757-8.015 12-11 12.723-7.352 20.808-15.664 24.864-30.069a368 368 0 0 0 2.073-9.618C90.11 283.583 99.09 263.193 118 247h2c.467 23.155-.682 44.828-8 67l-2 1v-32l-2-1a966 966 0 0 0-4.684 19.2l-.873 3.724q-.885 3.78-1.75 7.562C97.358 326.608 92.682 338.046 80 346c-7.582 4.412-15.725 7.198-24 10l1 5c6.878 1.667 13.188 1.022 20-.625l2.233-.536c7.577-1.907 14.64-4.67 21.767-7.839l2.828-1.191c17.204-7.84 32.49-20.536 47.193-32.243 2.944-2.33 5.93-4.603 8.917-6.878a517 517 0 0 0 14.05-11.208c3.657-3.01 7.334-5.996 11.012-8.98l11.012-8.945a979 979 0 0 0 16.217-13.535 356 356 0 0 1 9.958-8.145c4.248-3.364 8.25-6.943 12.25-10.594 2.608-2.321 5.283-4.526 8-6.719 4.832-3.91 9.437-8.02 14.012-12.226A327 327 0 0 1 263 225.5c4.18-3.632 8.261-7.37 12.352-11.102a382 382 0 0 1 6.523-5.773c4.203-3.65 8.27-7.441 12.352-11.227 2.846-2.635 5.706-5.243 8.648-7.773 4.666-4.03 9.128-8.281 13.623-12.5 3.244-3.04 6.502-6.043 9.877-8.937 3.58-3.076 6.871-6.396 10.156-9.782 1.994-1.943 4.013-3.755 6.123-5.566 4.282-3.736 8.333-7.666 12.354-11.68l2.21-2.2q2.293-2.284 4.582-4.575c2.32-2.318 4.649-4.628 6.977-6.938q2.241-2.236 4.48-4.474l2.085-2.062c4.332-4.353 8.11-8.898 11.658-13.911-14.307 9.48-27.345 20.476-40.376 31.614q-2.538 2.163-5.085 4.316c-4.813 4.085-9.61 8.166-14.207 12.496l-1.791 1.686a365 365 0 0 0-3.367 3.232C318.326 164 318.326 164 315 164c1.944-20.252 6.86-39.088 14.345-57.989C330 104 330 104 330 101c-13.663 20.242-25.192 43.432-27.266 68.168-.868 9.017-4.883 13.162-11.734 18.832l-2.637 2.281C286 192 286 192 283 192q-.725-2.31-1.437-4.625l-.81-2.602c-2.198-8.09-2.036-16.271-2.065-24.585l-.01-2.278c-.023-15.688.794-32.068 6.322-46.91-17.786 16.357-19.855 54.469-21 77q-.09 3.042-.16 6.086l-.083 3.03a227 227 0 0 0-.065 5.742c-.096 4.511-.172 6.492-3.07 10.115L258 215l-2.625 2.375L253 219c-3-1-3-1-4.246-3.309-3.568-9.37-5.897-18.848-7.754-28.691l-.54-2.845c-.845-5.79-.65-11.626-.648-17.467l-.002-2.024c.002-10.343.513-20.453 2.19-30.664-19.362 22.623-18.676 60.903-20.266 89.044-1.196 20.012-1.196 20.012-5.734 24.956h-2a729 729 0 0 1-1.875-7l-.527-1.906c-3.485-13.424-3.925-27.047-3.859-40.83.011-2.63 0-5.259-.012-7.889-.008-11.252.785-22.224 2.273-33.375-7.622 5.94-9.947 12.788-11.984 22.117l-.52 2.365c-1.93 9.1-3.067 18.29-4.184 27.518q-.474 3.854-.958 7.707a878 878 0 0 0-.581 4.734c-.662 5.336-.662 5.336-1.773 7.559h-2c-5.197-13.454-7.184-27.654-8-42h-2c-7.187 15.525-6.22 33.778-7.06 50.556-.521 10.29-1.18 20.52-2.377 30.756l-.334 2.976c-.715 5.646-2.02 10.464-4.229 15.712h-2l-.503-3.222q-.94-5.992-1.896-11.982-.409-2.578-.811-5.158c-1.462-9.361-2.942-18.575-5.79-27.638-8.42 7.466-10.3 21.077-13 31.563l-1.042 3.955c-1.535 5.838-3.023 11.684-4.407 17.56l-.647 2.717a295 295 0 0 0-1.093 4.826c-1.335 5.707-3.771 10.385-6.811 15.379l-2-2c.216-2.686.216-2.686.863-6.074l.69-3.713.76-3.9 1.425-7.575.658-3.405c1.147-6.33 1.67-12.159 1.315-18.583-1.243-30.133-1.243-30.133 5.351-37.625a131 131 0 0 1 4.544-4.618c9.18-9.93 10.969-26.196 13.16-38.925 2.774-16.01 2.774-16.01 8.172-21.582 2.5-1.212 4.317-1.229 7.062-1l-.187-3.937c0-5.62 1.02-11.304 4.562-15.813 2.358-1.814 4.552-1.406 7.418-1.29 3.462.062 6.783-.47 10.207-.96l.25-3.937c.912-8.069 4.586-14.891 9.75-21.063l2.688-1.062L205 117c1.063-2.75 1.063-2.75 2-6 5.082-8.36 5.082-8.36 9.25-9.75 3.387-.308 6.411.16 9.75.75l1.102-1.828C230.15 95.325 232.663 91.505 238 89c4.049-.497 6.134-.536 9.625 1.625C250 92 250 92 252.23 91.41c3.508-1.786 6.428-4.118 9.458-6.597q1.865-1.494 3.734-2.981l1.842-1.466c8.265-6.502 15.426-11.993 26.306-11.745 2.582.403 4.112 1.116 6.305 2.504L303 73c3.652-1.29 6.874-3.8 10.125-5.875 15.234-9.498 36.027-15.73 52-4.25M238 389c13.357 14.438 43.543 17.815 62 21l3.86.688c20.763 3.153 45.157 3.62 65.14-3.688v-2l-2.636-.028c-16.477-.222-32.385-.53-48.364-4.972q-2.161-.548-4.324-1.094c-12.058-3.166-23.943-7.881-34.301-14.906-11.041-6.543-29.937 1.372-41.375 5"/></svg>