<svg xmlns="http://www.w3.org/2000/svg" width="512" height="512"><path d="m352.559 75.797 2.388-.017q2.49-.015 4.979-.02a799 799 0 0 0 7.424-.073c14.123-.094 28.299 1.203 41.712 5.938l2.206.76C423.715 86.875 435.115 93.175 445 102l2.508 2.078c14.723 12.517 26.028 30.822 27.8 50.317.415 11.383-1.776 21.811-9.359 30.57L464 187l-1.855 1.941c-12.435 11.905-28.908 19.957-43.652 28.661a1961 1961 0 0 0-24.967 14.977c-20.21 12.339-40.677 24.23-61.203 36.034a1723 1723 0 0 0-20.51 12.012c-10.14 6.015-20.368 11.86-30.66 17.612q-3.272 1.83-6.54 3.666C219.518 332.85 160.935 364.03 96.187 348.25c-20.495-5.897-40.834-16.441-52.79-34.695-7.379-13.481-7.95-26.766-3.793-41.395C44.26 257.4 53.288 243.875 63 232l2.184-2.746c5.942-7.278 12.363-13.983 19.004-20.629l2.555-2.558C91.672 201.182 96.7 196.481 102 192l1.832-1.55c10.354-8.669 21.132-16.674 32.168-24.45l2.385-1.688C162.515 147.305 187.697 132.37 214 119l4.16-2.14A558 558 0 0 1 230 111l2.577-1.245C248.374 102.183 264.441 95.712 281 90l2.931-1.016c21.666-7.377 45.645-13.053 68.628-13.187M357 100v4l2.953 1.04c11.624 4.242 22.586 9.572 33.562 15.248l3.505 1.798 3.128 1.626c2.662 1.202 4.975 1.858 7.852 2.288l1-3c-7.93-12.03-23.651-18.28-37-22-3.678-.729-7.129-1.12-10.875-1.062l-2.367.027zm-19 4-2 2c.188 2.063.188 2.063 1 4l3 1 3-3-2-4zm-93 15v2c.633-.01 1.266-.02 1.917-.032 46.796-.668 86.694 12.05 123.876 40.973l1.806 1.404a511 511 0 0 1 4.764 3.792c2.36 1.667 3.82 2.468 6.637 2.863l2-4c-18.266-27.693-44.89-46.541-77.437-53.812-19.527-3.743-46.232-4.742-63.563 6.812m140 1-2 4 4 2 2-2c-.375-2.125-.375-2.125-1-4zm-119 18-1 5 5 1 1-5zm-41 2-.937 2.875C223 146 223 146 222 148h2v2l5-1-2-2c-.4-2.323-.74-4.657-1-7zm68 11-2 5 2 2c2.625-.375 2.625-.375 5-1 .625-1.875.625-1.875 1-4l-2-2zm-136 20v2q2.531-.215 5.063-.437l2.847-.247q3.157-.325 6.293-.808c35.22-4.71 69.708 2.723 100.797 19.492l2.06 1.107A283 283 0 0 1 300 208q2.622 1.755 5.25 3.5L309 214l4-2c-1.36-10.926-13.728-20.392-21.937-26.875C253.63 156.416 198.897 145.652 157 171m158-12-2 4 2 2c2.625-.375 2.625-.375 5-1l-1-5zm-118 27c-2.437.75-2.437.75-5 2-.812 2.125-.812 2.125-1 4l7 3c.625-3.375.625-3.375 1-7zm23 10c-2 3-2 3-1.687 5.625C219 204 219 204 220 205c2.938.188 2.938.188 6 0 2-2 2-2 2.125-5.125L228 197c-2.789-1.394-4.92-1.257-8-1m21 21-2 2c.375 2.125.375 2.125 1 4l5 1 2-4-2-3zm-127 12v4l2.516-.219c37.25-2.805 68.012 1.209 101.463 18.445l3.005 1.528 2.648 1.385c2.368.861 2.368.861 4.619.689L230 254l1-3c-13.184-18.897-40.555-27.153-61.922-31.61-18.117-2.299-39.539-.75-55.078 9.61m58 22-2 2c.375 2.125.375 2.125 1 4l5-1 1-3-2-2z"/><path d="M473 192c2.296.919 3.71 1.557 5.086 3.652 5.256 13.5 1.192 32.567-4.086 45.348-14.455 27.795-41.325 42.923-67 59l-5.824 3.66a4209 4209 0 0 1-92.95 56.67c-6.835 4.05-13.653 8.122-20.413 12.295-12.47 7.684-25.154 15.01-37.813 22.375l-2.985 1.741C223.555 410.406 199.53 424.278 173 431l-3.41.902c-21.145 4.668-45.825 4.024-66.59-1.902l-2-.535c-24.972-6.785-47.05-22.696-60.242-45.047-7.697-14.967-10.818-32.69-6.258-49.168.472-1.426.96-2.848 1.5-4.25h4c2.005 3.983 3.995 7.966 5.895 12 5.043 10.602 9.59 19.57 21.105 24 2.752.917 4.401 1.129 7.238 1.133l2.487.004 2.588-.012 2.552.012A76 76 0 0 0 95 367c17.625-1.37 30.85 2.679 46.563 10.45 12.576 5.673 26.442 5.748 39.464 1.581 13.816-5.263 26.175-15.847 35.536-27.219 7.582-8.963 17.912-14.81 29.437-16.812q2.583-.128 5.168-.14l2.959-.06a397 397 0 0 1 6.062-.054c7.976-.199 14.798-2.017 20.77-7.566 1.818-1.975 3.43-4.032 5.041-6.18l2.254-2.973c2.73-3.629 5.443-7.27 8.148-10.918C304.398 296.88 317.36 290.784 330 289c5.06-.316 10.126-.478 15.196-.534 11.485-.228 21.266-2.957 29.57-11.224 3.6-4.29 6.208-8.975 8.826-13.897 5.628-10.56 10.997-18.753 22.92-22.615 5.512-1.154 11.084-1.605 16.7-1.96 11.615-.803 20.468-3.82 28.436-12.583 6.987-8.87 11.973-19.188 16.774-29.351C470 194 470 194 473 192"/></svg>