<?xml version="1.0" encoding="UTF-8"?>
<!-- Generator: visioncortex VTracer 0.6.12 -->
<svg version="1.1" xmlns="http://www.w3.org/2000/svg" width="512" height="512">
  <metadata>
                <![CDATA[
            {
  "prompt": {
    "4": {
      "inputs": {
        "vae_name": "ae.safetensors"
      },
      "class_type": "VAELoader",
      "_meta": {
        "title": "Load VAE"
      }
    },
    "5": {
      "inputs": {
        "clip_name": "qwen3_4b_fp8_scaled.safetensors",
        "type": "lumina2",
        "device": "default"
      },
      "class_type": "CLIPLoader",
      "_meta": {
        "title": "Load CLIP"
      }
    },
    "6": {
      "inputs": {
        "ckpt_name": "zEpicrealism_turboV1Fp8.safetensors"
      },
      "class_type": "CheckpointLoaderSimple",
      "_meta": {
        "title": "Load Checkpoint"
      }
    },
    "7": {
      "inputs": {
        "shift": 6.0,
        "model": [
          "6",
          0
        ]
      },
      "class_type": "ModelSamplingAuraFlow",
      "_meta": {
        "title": "ModelSamplingAuraFlow"
      }
    },
    "8": {
      "inputs": {
        "PowerLoraLoaderHeaderWidget": {
          "type": "PowerLoraLoaderHeaderWidget"
        },
        "lora_1": {
          "on": true,
          "lora": "MinimalistVectorArtZ.safetensors",
          "strength": 0.4
        },
        "lora_2": {
          "on": false,
          "lora": "None",
          "strength": 0.75
        },
        "\u2795 Add Lora": "",
        "model": [
          "7",
          0
        ],
        "clip": [
          "5",
          0
        ]
      },
      "class_type": "Power Lora Loader (rgthree)",
      "_meta": {
        "title": "Power Lora Loader (rgthree)"
      }
    },
    "9": {
      "inputs": {
        "text": "A bold, heavy solid black icon of a thick, rectangular artisan sourdough sandwich cut on a diagonal. 3/4 perspective. High-contrast woodblock style. The entire crusty roll and filling form a single, substantial contiguous dark mass. A thick, massive white negative space \"diagonal slash\" defines the sharp cut where the sandwich is divided. Thick, bold white negative space is used sparingly to create: 1) a chunky \"arc\" defining the rustic, bubbly crust of the bread, and 2) two or three horizontal, irregular white \"slashes\" within the cut face to represent layers of filling. No fine lettuce, no gray, heavy visual weight. Isolated on white. Optimized for a clean, single-boolean SVG silhouette.",
        "clip": [
          "8",
          1
        ]
      },
      "class_type": "CLIPTextEncode",
      "_meta": {
        "title": "Positive Prompt"
      }
    },
    "10": {
      "inputs": {
        "text": "blurry, bad, shadow, color, grey, text, watermark, logo,",
        "clip": [
          "8",
          1
        ]
      },
      "class_type": "CLIPTextEncode",
      "_meta": {
        "title": "Negative Prompt"
      }
    },
    "11": {
      "inputs": {
        "seed": 631056839866061,
        "steps": 9,
        "cfg": 0.9,
        "sampler_name": "euler",
        "scheduler": "beta",
        "denoise": 1.0,
        "preview_method": "auto",
        "vae_decode": "true",
        "model": [
          "8",
          0
        ],
        "positive": [
          "9",
          0
        ],
        "negative": [
          "10",
          0
        ],
        "latent_image": [
          "27",
          0
        ],
        "optional_vae": [
          "4",
          0
        ]
      },
      "class_type": "KSampler (Efficient)",
      "_meta": {
        "title": "KSampler (Efficient)"
      }
    },
    "13": {
      "inputs": {
        "filename_prefix": [
          "35",
          0
        ],
        "images": [
          "11",
          5
        ]
      },
      "class_type": "SaveImage",
      "_meta": {
        "title": "Save Image"
      }
    },
    "27": {
      "inputs": {
        "dimensions": "512 x 512 (1:1)",
        "invert": false,
        "batch_size": 1
      },
      "class_type": "EmptyLatentImagePresets",
      "_meta": {
        "title": "Empty Latent Image Presets"
      }
    },
    "32": {
      "inputs": {
        "filename_prefix": [
          "35",
          0
        ],
        "svg": [
          "34",
          0
        ]
      },
      "class_type": "SaveSVGNode",
      "_meta": {
        "title": "SaveSVGNode"
      }
    },
    "33": {
      "inputs": {
        "mode": "spline",
        "filter_speckle": 4,
        "corner_threshold": 60,
        "length_threshold": 4.0,
        "splice_threshold": 45,
        "image": [
          "11",
          5
        ]
      },
      "class_type": "TS_ImageToSVGStringBW_Vtracer",
      "_meta": {
        "title": "Image to SVG String BW_Vtracer"
      }
    },
    "34": {
      "inputs": {
        "SVG_String": [
          "33",
          0
        ]
      },
      "class_type": "TS_SVGStringToSVGBytesIO",
      "_meta": {
        "title": "SVG String to SVG BytesIO"
      }
    },
    "35": {
      "inputs": {
        "value": "Icons/sandwich-"
      },
      "class_type": "PrimitiveString",
      "_meta": {
        "title": "String"
      }
    }
  },
  "workflow": {
    "id": "b863a6d5-b1c1-49ed-82de-40ff658289d1",
    "revision": 0,
    "last_node_id": 38,
    "last_link_id": 50,
    "nodes": [
      {
        "id": 4,
        "type": "VAELoader",
        "pos": [
          -6219.529416223988,
          -970.9071955967029
        ],
        "size": [
          373.8333435058594,
          123.80000305175781
        ],
        "flags": {},
        "order": 0,
        "mode": 0,
        "inputs": [],
        "outputs": [
          {
            "name": "VAE",
            "type": "VAE",
            "links": [
              13,
              48
            ]
          }
        ],
        "properties": {
          "cnr_id": "comfy-core",
          "ver": "0.9.2",
          "Node name for S&R": "VAELoader"
        },
        "widgets_values": [
          "ae.safetensors"
        ]
      },
      {
        "id": 5,
        "type": "CLIPLoader",
        "pos": [
          -6634.625060962726,
          -1114.719863560585
        ],
        "size": [
          366.1666564941406,
          542.9833374023438
        ],
        "flags": {},
        "order": 1,
        "mode": 0,
        "inputs": [],
        "outputs": [
          {
            "name": "CLIP",
            "type": "CLIP",
            "links": [
              6
            ]
          }
        ],
        "properties": {
          "cnr_id": "comfy-core",
          "ver": "0.9.2",
          "Node name for S&R": "CLIPLoader"
        },
        "widgets_values": [
          "qwen3_4b_fp8_scaled.safetensors",
          "lumina2",
          "default"
        ]
      },
      {
        "id": 6,
        "type": "CheckpointLoaderSimple",
        "pos": [
          -7142.718609403837,
          -1274.2970319785854
        ],
        "size": [
          456,
          154.6666717529297
        ],
        "flags": {},
        "order": 2,
        "mode": 0,
        "inputs": [],
        "outputs": [
          {
            "name": "MODEL",
            "type": "MODEL",
            "links": [
              4
            ]
          },
          {
            "name": "CLIP",
            "type": "CLIP",
            "links": []
          },
          {
            "name": "VAE",
            "type": "VAE",
            "links": []
          }
        ],
        "properties": {
          "cnr_id": "comfy-core",
          "ver": "0.9.2",
          "Node name for S&R": "CheckpointLoaderSimple"
        },
        "widgets_values": [
          "zEpicrealism_turboV1Fp8.safetensors"
        ],
        "color": "#453f4f",
        "bgcolor": "#312b3b"
      },
      {
        "id": 7,
        "type": "ModelSamplingAuraFlow",
        "pos": [
          -6599.990108813057,
          -1269.9450961666446
        ],
        "size": [
          270,
          104
        ],
        "flags": {},
        "order": 7,
        "mode": 0,
        "inputs": [
          {
            "name": "model",
            "type": "MODEL",
            "link": 4
          }
        ],
        "outputs": [
          {
            "name": "MODEL",
            "type": "MODEL",
            "links": [
              5
            ]
          }
        ],
        "properties": {
          "cnr_id": "comfy-core",
          "ver": "0.10.0",
          "Node name for S&R": "ModelSamplingAuraFlow"
        },
        "widgets_values": [
          6
        ]
      },
      {
        "id": 8,
        "type": "Power Lora Loader (rgthree)",
        "pos": [
          -6200.008875558856,
          -1269.9450961666446
        ],
        "size": [
          340.48333740234375,
          232
        ],
        "flags": {},
        "order": 8,
        "mode": 0,
        "inputs": [
          {
            "dir": 3,
            "name": "model",
            "type": "MODEL",
            "link": 5
          },
          {
            "dir": 3,
            "name": "clip",
            "type": "CLIP",
            "link": 6
          }
        ],
        "outputs": [
          {
            "dir": 4,
            "name": "MODEL",
            "shape": 3,
            "type": "MODEL",
            "links": [
              47
            ]
          },
          {
            "dir": 4,
            "name": "CLIP",
            "shape": 3,
            "type": "CLIP",
            "links": [
              7,
              8
            ]
          }
        ],
        "properties": {
          "cnr_id": "rgthree-comfy",
          "ver": "8ff50e4521881eca1fe26aec9615fc9362474931",
          "Show Strengths": "Single Strength"
        },
        "widgets_values": [
          {},
          {
            "type": "PowerLoraLoaderHeaderWidget"
          },
          {
            "on": true,
            "lora": "MinimalistVectorArtZ.safetensors",
            "strength": 0.4,
            "strengthTwo": null
          },
          {
            "on": false,
            "lora": "None",
            "strength": 0.75,
            "strengthTwo": null
          },
          {},
          ""
        ]
      },
      {
        "id": 9,
        "type": "CLIPTextEncode",
        "pos": [
          -5665.298067285652,
          -968.8847480145092
        ],
        "size": [
          495.1833190917969,
          389.6333312988281
        ],
        "flags": {},
        "order": 10,
        "mode": 0,
        "inputs": [
          {
            "name": "clip",
            "type": "CLIP",
            "link": 7
          }
        ],
        "outputs": [
          {
            "name": "CONDITIONING",
            "type": "CONDITIONING",
            "links": [
              9
            ]
          }
        ],
        "title": "Positive Prompt",
        "properties": {
          "cnr_id": "comfy-core",
          "ver": "0.9.2",
          "Node name for S&R": "CLIPTextEncode"
        },
        "widgets_values": [
          "A bold, heavy solid black icon of a thick, rectangular artisan sourdough sandwich cut on a diagonal. 3/4 perspective. High-contrast woodblock style. The entire crusty roll and filling form a single, substantial contiguous dark mass. A thick, massive white negative space \"diagonal slash\" defines the sharp cut where the sandwich is divided. Thick, bold white negative space is used sparingly to create: 1) a chunky \"arc\" defining the rustic, bubbly crust of the bread, and 2) two or three horizontal, irregular white \"slashes\" within the cut face to represent layers of filling. No fine lettuce, no gray, heavy visual weight. Isolated on white. Optimized for a clean, single-boolean SVG silhouette."
        ],
        "color": "#232",
        "bgcolor": "#353"
      },
      {
        "id": 10,
        "type": "CLIPTextEncode",
        "pos": [
          -5666.5260314864745,
          -512.2921596736592
        ],
        "size": [
          470,
          142
        ],
        "flags": {},
        "order": 11,
        "mode": 0,
        "inputs": [
          {
            "name": "clip",
            "type": "CLIP",
            "link": 8
          }
        ],
        "outputs": [
          {
            "name": "CONDITIONING",
            "type": "CONDITIONING",
            "links": [
              10
            ]
          }
        ],
        "title": "Negative Prompt",
        "properties": {
          "cnr_id": "comfy-core",
          "ver": "0.9.2",
          "Node name for S&R": "CLIPTextEncode"
        },
        "widgets_values": [
          "blurry, bad, shadow, color, grey, text, watermark, logo,"
        ],
        "color": "#322",
        "bgcolor": "#533"
      },
      {
        "id": 11,
        "type": "KSampler (Efficient)",
        "pos": [
          -4910.913678672515,
          -1342.5015025857194
        ],
        "size": [
          400.1000061035156,
          966.6666870117188
        ],
        "flags": {},
        "order": 12,
        "mode": 0,
        "inputs": [
          {
            "name": "model",
            "type": "MODEL",
            "link": 46
          },
          {
            "name": "positive",
            "type": "CONDITIONING",
            "link": 9
          },
          {
            "name": "negative",
            "type": "CONDITIONING",
            "link": 10
          },
          {
            "name": "latent_image",
            "type": "LATENT",
            "link": 37
          },
          {
            "name": "optional_vae",
            "shape": 7,
            "type": "VAE",
            "link": 13
          },
          {
            "name": "script",
            "shape": 7,
            "type": "SCRIPT",
            "link": null
          }
        ],
        "outputs": [
          {
            "name": "MODEL",
            "type": "MODEL",
            "links": null
          },
          {
            "name": "CONDITIONING+",
            "type": "CONDITIONING",
            "links": null
          },
          {
            "name": "CONDITIONING-",
            "type": "CONDITIONING",
            "links": null
          },
          {
            "name": "LATENT",
            "type": "LATENT",
            "links": null
          },
          {
            "name": "VAE",
            "type": "VAE",
            "links": null
          },
          {
            "name": "IMAGE",
            "type": "IMAGE",
            "links": [
              14,
              39
            ]
          }
        ],
        "properties": {
          "cnr_id": "efficiency-nodes-comfyui",
          "ver": "1.0.8",
          "Node name for S&R": "KSampler (Efficient)"
        },
        "widgets_values": [
          -1,
          null,
          9,
          0.9,
          "euler",
          "beta",
          1,
          "auto",
          "true"
        ],
        "color": "#223333",
        "bgcolor": "#335555",
        "shape": "box"
      },
      {
        "id": 13,
        "type": "SaveImage",
        "pos": [
          -4410.458584695532,
          -1352.0179936878044
        ],
        "size": [
          461.7833251953125,
          344
        ],
        "flags": {},
        "order": 13,
        "mode": 0,
        "inputs": [
          {
            "name": "images",
            "type": "IMAGE",
            "link": 14
          },
          {
            "name": "filename_prefix",
            "type": "STRING",
            "widget": {
              "name": "filename_prefix"
            },
            "link": 43
          }
        ],
        "outputs": [],
        "properties": {
          "cnr_id": "comfy-core",
          "ver": "0.17.2"
        },
        "widgets_values": [
          "Icons/apps-"
        ]
      },
      {
        "id": 27,
        "type": "EmptyLatentImagePresets",
        "pos": [
          -5667.013573414988,
          -1285.095614520352
        ],
        "size": [
          285.0833435058594,
          214.6666717529297
        ],
        "flags": {},
        "order": 3,
        "mode": 0,
        "inputs": [],
        "outputs": [
          {
            "name": "Latent",
            "type": "LATENT",
            "links": [
              37
            ]
          },
          {
            "name": "Width",
            "type": "INT",
            "links": null
          },
          {
            "name": "Height",
            "type": "INT",
            "links": null
          }
        ],
        "properties": {
          "cnr_id": "comfyui-kjnodes",
          "ver": "c88ac88a8f8a6a090a0d5d607156090cb2911503",
          "Node name for S&R": "EmptyLatentImagePresets"
        },
        "widgets_values": [
          "512 x 512 (1:1)",
          false,
          1
        ]
      },
      {
        "id": 32,
        "type": "SaveSVGNode",
        "pos": [
          -3813.087098958786,
          -782.3652587471762
        ],
        "size": [
          270,
          344
        ],
        "flags": {},
        "order": 16,
        "mode": 0,
        "inputs": [
          {
            "name": "svg",
            "type": "SVG",
            "link": 42
          },
          {
            "name": "filename_prefix",
            "type": "STRING",
            "widget": {
              "name": "filename_prefix"
            },
            "link": 44
          }
        ],
        "outputs": [],
        "properties": {
          "cnr_id": "comfy-core",
          "ver": "0.17.2",
          "Node name for S&R": "SaveSVGNode"
        },
        "widgets_values": [
          "Icons/apps-"
        ]
      },
      {
        "id": 33,
        "type": "TS_ImageToSVGStringBW_Vtracer",
        "pos": [
          -4400.364267959555,
          -795.4572061170688
        ],
        "size": [
          314.01666259765625,
          234.66665649414062
        ],
        "flags": {},
        "order": 14,
        "mode": 0,
        "inputs": [
          {
            "name": "image",
            "type": "IMAGE",
            "link": 39
          }
        ],
        "outputs": [
          {
            "name": "STRING",
            "shape": 6,
            "type": "STRING",
            "links": [
              41
            ]
          }
        ],
        "properties": {
          "cnr_id": "comfyui-tosvg",
          "ver": "1.0.1",
          "Node name for S&R": "TS_ImageToSVGStringBW_Vtracer"
        },
        "widgets_values": [
          "spline",
          4,
          60,
          4,
          45
        ]
      },
      {
        "id": 34,
        "type": "TS_SVGStringToSVGBytesIO",
        "pos": [
          -4063.4410199893787,
          -778.4467045599912
        ],
        "size": [
          225,
          72
        ],
        "flags": {},
        "order": 15,
        "mode": 0,
        "inputs": [
          {
            "name": "SVG_String",
            "type": "STRING",
            "link": 41
          }
        ],
        "outputs": [
          {
            "name": "SVG",
            "type": "SVG",
            "links": [
              42
            ]
          }
        ],
        "properties": {
          "cnr_id": "comfyui-tosvg",
          "ver": "1.0.1",
          "Node name for S&R": "TS_SVGStringToSVGBytesIO"
        },
        "widgets_values": []
      },
      {
        "id": 35,
        "type": "PrimitiveString",
        "pos": [
          -4406.648318050964,
          -1528.2986560802276
        ],
        "size": [
          270,
          108
        ],
        "flags": {},
        "order": 4,
        "mode": 0,
        "inputs": [],
        "outputs": [
          {
            "name": "STRING",
            "type": "STRING",
            "links": [
              43,
              44
            ]
          }
        ],
        "properties": {
          "cnr_id": "comfy-core",
          "ver": "0.17.2",
          "Node name for S&R": "PrimitiveString"
        },
        "widgets_values": [
          "Icons/sandwich-"
        ]
      },
      {
        "id": 36,
        "type": "ModelPatchLoader",
        "pos": [
          -7059.345533943512,
          -330.0523924799236
        ],
        "size": [
          427.6000061035156,
          106.66667175292969
        ],
        "flags": {},
        "order": 5,
        "mode": 4,
        "inputs": [],
        "outputs": [
          {
            "name": "MODEL_PATCH",
            "type": "MODEL_PATCH",
            "links": [
              45
            ]
          }
        ],
        "properties": {
          "cnr_id": "comfy-core",
          "ver": "0.16.3",
          "Node name for S&R": "ModelPatchLoader"
        },
        "widgets_values": [
          "Z-Image-Turbo-Fun-Controlnet-Union-2.1.safetensors"
        ]
      },
      {
        "id": 37,
        "type": "ZImageFunControlnet",
        "pos": [
          -6611.258196381201,
          -335.79477340395954
        ],
        "size": [
          361.6000061035156,
          224
        ],
        "flags": {},
        "order": 9,
        "mode": 4,
        "inputs": [
          {
            "name": "model",
            "type": "MODEL",
            "link": 47
          },
          {
            "name": "model_patch",
            "type": "MODEL_PATCH",
            "link": 45
          },
          {
            "name": "vae",
            "type": "VAE",
            "link": 48
          },
          {
            "name": "image",
            "shape": 7,
            "type": "IMAGE",
            "link": 50
          },
          {
            "name": "inpaint_image",
            "shape": 7,
            "type": "IMAGE",
            "link": null
          },
          {
            "name": "mask",
            "shape": 7,
            "type": "MASK",
            "link": null
          }
        ],
        "outputs": [
          {
            "name": "MODEL",
            "type": "MODEL",
            "links": [
              46
            ]
          }
        ],
        "properties": {
          "cnr_id": "comfy-core",
          "ver": "0.16.3",
          "Node name for S&R": "ZImageFunControlnet"
        },
        "widgets_values": [
          0.15
        ]
      },
      {
        "id": 38,
        "type": "LoadImage",
        "pos": [
          -6229.443165549208,
          -560.5968682946624
        ],
        "size": [
          458.8333435058594,
          788.2999877929688
        ],
        "flags": {},
        "order": 6,
        "mode": 4,
        "inputs": [],
        "outputs": [
          {
            "name": "IMAGE",
            "type": "IMAGE",
            "links": [
              50
            ]
          },
          {
            "name": "MASK",
            "type": "MASK",
            "links": null
          }
        ],
        "title": "Reference",
        "properties": {
          "cnr_id": "comfy-core",
          "ver": "0.9.2",
          "Node name for S&R": "LoadImage"
        },
        "widgets_values": [
          "background-removed (1).png",
          "image"
        ],
        "color": "#322",
        "bgcolor": "#533"
      }
    ],
    "links": [
      [
        4,
        6,
        0,
        7,
        0,
        "MODEL"
      ],
      [
        5,
        7,
        0,
        8,
        0,
        "MODEL"
      ],
      [
        6,
        5,
        0,
        8,
        1,
        "CLIP"
      ],
      [
        7,
        8,
        1,
        9,
        0,
        "CLIP"
      ],
      [
        8,
        8,
        1,
        10,
        0,
        "CLIP"
      ],
      [
        9,
        9,
        0,
        11,
        1,
        "CONDITIONING"
      ],
      [
        10,
        10,
        0,
        11,
        2,
        "CONDITIONING"
      ],
      [
        13,
        4,
        0,
        11,
        4,
        "VAE"
      ],
      [
        14,
        11,
        5,
        13,
        0,
        "IMAGE"
      ],
      [
        37,
        27,
        0,
        11,
        3,
        "LATENT"
      ],
      [
        39,
        11,
        5,
        33,
        0,
        "IMAGE"
      ],
      [
        41,
        33,
        0,
        34,
        0,
        "STRING"
      ],
      [
        42,
        34,
        0,
        32,
        0,
        "SVG"
      ],
      [
        43,
        35,
        0,
        13,
        1,
        "STRING"
      ],
      [
        44,
        35,
        0,
        32,
        1,
        "STRING"
      ],
      [
        45,
        36,
        0,
        37,
        1,
        "MODEL_PATCH"
      ],
      [
        46,
        37,
        0,
        11,
        0,
        "MODEL"
      ],
      [
        47,
        8,
        0,
        37,
        0,
        "MODEL"
      ],
      [
        48,
        4,
        0,
        37,
        2,
        "VAE"
      ],
      [
        50,
        38,
        0,
        37,
        3,
        "IMAGE"
      ]
    ],
    "groups": [],
    "config": {},
    "extra": {
      "ds": {
        "scale": 0.9229599817707248,
        "offset": [
          5841.014571571887,
          1361.4575555385977
        ]
      },
      "workflowRendererVersion": "Vue",
      "frontendVersion": "1.41.20",
      "VHS_latentpreview": false,
      "VHS_latentpreviewrate": 0,
      "VHS_MetadataImage": true,
      "VHS_KeepIntermediate": true
    },
    "version": 0.4
  }
}
                ]]>
            </metadata>
            
<path d="M0 0 C0.3926705932617267 -0.0003373718261769909 0.3926705932617267 -0.0003373718261769909 2.37982177734375 -0.002044677734375 C13.90339489920251 0.013704745232018922 24.901698169241286 0.4156019816413732 36.125 3.25 C36.467729492187516 3.3331445312499994 36.467729492187516 3.3331445312499994 38.2021484375 3.75390625 C70.34419715618981 11.697478931049204 97.57594478814087 31.97297205408006 123.125 52.25 C124.23357064239428 53.115614441725825 125.34297691887855 53.98015954794235 126.453125 54.84375 C134.75514756682492 61.313117197098165 142.93023637068205 67.93365408489268 151.083984375 74.58837890625 C153.11933118013093 76.24538492966161 155.16025196307356 77.89525356082038 157.203125 79.54296875 C169.64233407582952 89.58414979460463 181.81170580651906 99.86320114615211 193.51513671875 110.7578125 C195.26381608894064 112.37866908334931 197.02409308586357 113.98636127191088 198.78515625 115.59375 C206.9975593667882 123.12353648943372 214.7391757838996 130.90979971279086 222.125 139.25 C222.61033203124998 139.7906005859375 223.09566406250002 140.331201171875 223.595703125 140.88818359375 C241.59749839271922 160.98307297527185 263.9069614027417 187.35094927176033 263.43359375 215.5859375 C263.0148196617277 220.55821718100503 261.9060446247848 224.12464377411084 259.125 228.25 C258.7086328125 228.8726171875 258.292265625 229.495234375 257.86328125 230.13671875 C250.26182106140715 239.33428606480658 236.09149526554978 241.444150577963 225.01953125 243.609375 C223.9446092224121 243.8215768432617 222.86968719482422 244.03377868652342 221.76219177246094 244.25241088867188 C209.13973168977367 246.69825944957478 196.4506176420433 248.73931512233526 183.750732421875 250.73486328125 C180.367587925358 251.26652931841295 176.98605631555716 251.80777986594285 173.6048231124878 252.35144996643066 C160.33590223257482 254.48102421732415 147.06183076864352 256.48044341762784 133.7109375 258.03125 C132.66736587524417 258.152512512207 131.6237942504883 258.2737750244141 130.54859924316406 258.3987121582031 C104.05824106892334 261.3374473908282 79.46557202058199 258.1516521488226 58.125 241.25 C53.943289469870535 237.62388999458636 50.10185066344158 233.6565640074367 46.25 229.6875 C45.2613113927255 228.6872658514235 44.2717288848462 227.68791448770105 43.28125 226.689453125 C38.56734004664082 221.91544574998636 34.011608409761266 217.04617705159444 29.63671875 211.959716796875 C23.18061948690169 204.65802701336764 15.377877190356315 198.5331525439376 7.69140625 192.586669921875 C0.023374430268489732 186.65292471060945 -7.42201782981715 180.45021205179887 -14.875 174.25 C-15.472319335937499 173.754677734375 -16.069638671874998 173.25935546875 -16.68505859375 172.7490234375 C-29.310289665930952 162.26482868200742 -41.13227663700434 151.0824250676498 -52.75 139.5 C-53.248363647460934 139.0043151855469 -53.74672729492187 138.50863037109374 -54.26019287109375 137.9979248046875 C-59.468985941559055 132.8103763481544 -64.57483607182485 127.57980257080715 -69.36328125 121.99755859375 C-77.06704127632737 113.09195228424556 -85.8009047519909 105.7616293825663 -95.10498046875 98.6220703125 C-114.55055262289673 83.54839920818213 -114.55055262289673 83.54839920818213 -117.875 73.25 C-119.0076419414145 61.72602675886398 -117.52130282749904 52.811024677193075 -110.4375 43.5 C-109.256790687593 42.077668739695355 -108.06990600734832 40.66042558401617 -106.875 39.25 C-106.111875 38.239374999999995 -105.34875 37.22874999999999 -104.5625 36.1875 C-79.72391497664293 9.038348927958552 -35.07514921957903 0.026974553611339047 0 0 Z M-26.875 20.25 C-26.125 25 -26.125 25 -23.875 27.25 C-17.036103047895494 27.801523947750354 -17.036103047895494 27.801523947750354 -13.375 26.0625 C-11.875 24.25 -11.875 24.25 -11.5 21.6875 C-11.875 19.25 -11.875 19.25 -13.875 17.25 C-19.286842544710538 16.806406348794212 -22.394821925345695 16.88986644400927 -26.875 20.25 Z M28.125 27.25 C27.1875 29.0625 27.1875 29.0625 27.125 31.25 C28.75 33.5 28.75 33.5 31.125 35.25 C33.75 35.625 33.75 35.625 36.125 35.25 C36.785 34.59 37.44499999999999 33.93000000000001 38.125 33.25 C37.75 30.625 37.75 30.625 37.125 28.25 C31.5 26.125 31.5 26.125 28.125 27.25 Z M-2.875 37.25 C-2.6408344490372144 41.30886955002171 -2.4218783863897784 43.60661366307086 0.25 46.75 C4.096482951809833 48.75686067050947 6.010465405641156 48.521765238256364 10.125 47.25 C13.114943393958583 44.566717466960256 14.015475251514601 43.04796602467944 14.5625 39.0625 C14.418125000000003 38.134375000000006 14.273750000000007 37.20625 14.125 36.25 C10.918751130834806 34.112500753889876 9.900418968473645 33.9542500103841 6.1875 33.9375 C5.760175781249984 33.92912109375 5.760175781249984 33.92912109375 3.59765625 33.88671875 C0.6828643951533309 34.31495831161254 -0.6882667861416394 35.3270953873496 -2.875 37.25 Z M-44.25 44 C-45.87594740481123 46.25131179127709 -46.70258546936384 47.49136750982149 -46.875 50.25 C-46.3125 52.375 -46.3125 52.375 -44.875 54.25 C-41.22342550077519 56.158777579140235 -39.59283611563035 56.4708726509632 -35.625 55.25 C-32.26760020985125 52.808254698073654 -31.538922636222708 51.316526146863964 -30.875 47.25 C-31.625 44.9375 -31.625 44.9375 -32.875 43.25 C-36.82958869061005 41.272705654694974 -40.70735509520705 41.38963007015256 -44.25 44 Z M6.125 69.25 C5.835605468750003 69.5142578125 5.835605468750003 69.5142578125 4.37109375 70.8515625 C3.125 72.25 3.125 72.25 3.1875 74.1875 C4.434753141921874 76.93145691222816 5.709692451704427 78.43851933877829 8.125 80.25 C12.402946519824724 79.87539465370838 15.712371671768295 78.07827271531178 19.46484375 76.08203125 C20.068250885009775 75.76473556518556 20.67165802001952 75.44743988037109 21.293350219726563 75.12052917480469 C23.219632745012973 74.10717029114264 25.141469433308828 73.08577588161529 27.0625 72.0625 C54.37463605242891 57.53011618178701 54.37463605242891 57.53011618178701 67.375 56.6875 C68.00664062499999 56.645605468750006 68.00664062499999 56.645605468750006 71.203125 56.43359375 C72.16734374999999 56.37300781249999 73.13156249999997 56.312421874999984 74.125 56.25 C73.53830539183622 53.23451588492168 73.23551372877 52.35735619366227 70.9375 50.125 C51.7066193118452 37.30441287456348 20.599587666370383 55.742464526856935 6.125 69.25 Z M-24.75 61.375 C-25.875 63.25 -25.875 63.25 -25.5625 65.9375 C-25.335624999999993 66.700625 -25.108749999999986 67.46375 -24.875 68.25 C-22.5625 68.9375 -22.5625 68.9375 -19.875 69.25 C-18 68.125 -18 68.125 -16.875 66.25 C-17.1875 63.5625 -17.1875 63.5625 -17.875 61.25 C-22.332831325301186 59.92469879518072 -22.332831325301186 59.92469879518072 -24.75 61.375 Z M86.0625 79.375 C85.60270751953124 79.48722900390624 85.60270751953124 79.48722900390624 83.27587890625 80.05517578125 C70.79650053102011 83.21795152344811 59.68858152342446 87.74009246317891 49.125 95.25 C48.450820312500014 95.68183593750001 47.776640625 96.113671875 47.08203125 96.55859375 C45.375 97.75 45.375 97.75 43.125 100.25 C42.875 103.875 42.875 103.875 44.125 107.25 C46.75 109.3125 46.75 109.3125 50.125 110.25 C55.98191472204863 109.04969401992582 60.69231463692438 106.46108877151386 65.875 103.5625 C72.51095330515409 99.96165587536822 79.15707635408722 96.84371270538117 86.25 94.25 C87.00635742187501 93.97196533203123 87.76271484375002 93.69393066406249 88.5419921875 93.407470703125 C95.79133462994002 90.84751670047842 103.00306406618961 89.15496109888346 110.6875 88.625 C111.20376953125003 88.5876171875 111.20376953125003 88.5876171875 113.81640625 88.3984375 C114.5782421875 88.349453125 115.34007812499999 88.30046875 116.125 88.25 C115.55160201848253 83.69339737354085 115.55160201848253 83.69339737354085 113.63671875 81.703125 C113.33572265625003 81.504609375 113.33572265625003 81.504609375 111.8125 80.5 C111.21824218749998 80.09265625 110.62398437500002 79.68531250000001 110.01171875 79.265625 C102.53078705328397 75.2386224303392 93.85866907262908 77.45715675251057 86.0625 79.375 Z M76.125 126.25 C76.36953123827465 129.5919269230867 76.7304355744406 130.8554355744406 79.125 133.25 C84.4185486088549 133.9495879218751 88.04266904285919 132.0964784849909 92.5625 129.625 C110.52352393938793 120.2620519175747 128.7510310752964 113.55163345648955 149.125 113.25 C147.06395167137072 108.75145615943015 144.34268505974615 106.31129353631076 139.84765625 104.16015625 C121.54388644377542 98.04139245537974 87.9494643867464 111.7978768606433 76.125 126.25 Z M146.5 128.875 C145.125 131.25 145.125 131.25 145.0625 134.3125 C146.125 137.25 146.125 137.25 148.3125 139.125 C152.30578499424973 140.7223139976999 155.39410948002393 140.90493154809906 159.4375 139.375 C161.125 138.25 161.125 138.25 162.125 136.25 C162.6855199025183 130.9811129163282 162.6855199025183 130.9811129163282 160.6875 128.375 C155.89111732027823 126.26927101865874 150.99731853446565 126.0909456691403 146.5 128.875 Z M179.375 135.5 C178.125 137.25 178.125 137.25 178.375 139.375 C179.125 141.25 179.125 141.25 180.125 142.25 C182.5625 142.4375 182.5625 142.4375 185.125 142.25 C185.78500000000003 141.59 186.445 140.93 187.125 140.25 C186.7581834241966 137.31546739357293 186.26062754222528 136.38562754222525 184.125 134.25 C181.125 134.25 181.125 134.25 179.375 135.5 Z M101.125 149.25 C99.125 152.25 99.125 152.25 99.3125 155.25 C100.51305970149252 159.68283582089552 100.51305970149252 159.68283582089552 103.125 161.25 C107.27403134204178 161.7878373961906 109.39943581112561 161.69164776714095 113 159.5 C116.03291896869246 156.28867403314916 116.03291896869246 156.28867403314916 116.125 153.25 C115.5 150.625 115.5 150.625 114.125 148.25 C108.91934478028543 145.44695488169214 105.89704089466193 145.94627938061868 101.125 149.25 Z M139.125 156.25 C138.00190418594343 159.88354528077127 137.65528212775894 162.06004805698933 139.0625 165.625 C142.13337502455067 168.04447729207024 145.32056466519674 168.45062451960877 149.125 168.25 C152.74590756254065 166.67569236411276 153.91755283850102 165.56117074224844 156.125 162.25 C155.92237504656322 159.5483339541763 155.46668298300153 157.7815068624468 154 155.5 C148.97098885325613 152.14732590217076 143.79333233080933 152.69317536700242 139.125 156.25 Z M183.125 158.25 C181.56069752386946 161.378604952261 181.76872716353722 163.8060292475267 182.125 167.25 C184.1875 169.75 184.1875 169.75 187.125 171.25 C190.61805788877507 171.18977486398663 193.02866488508857 170.88658167962598 196.0625 169.125 C197.79623060119724 166.06547540965192 197.54645216195672 163.6818247473617 197.125 160.25 C195.5 157.8125 195.5 157.8125 193.125 156.25 C189.2163230667863 155.7614153833483 186.4273517114276 156.0484321923816 183.125 158.25 Z M118.25 177.375 C117.125 179.25 117.125 179.25 117.375 182.375 C118.125 185.25 118.125 185.25 119.125 186.25 C122.5625 186.5 122.5625 186.5 126.125 186.25 C128.125 183.25 128.125 183.25 127.875 180.6875 C127.125 178.25 127.125 178.25 125.125 176.25 C122.29113833164524 175.88668440149297 120.71977849483426 175.89313290309943 118.25 177.375 Z M160.125 180.25 C160.68055555555554 184.80555555555554 160.68055555555554 184.80555555555554 162.125 186.25 C164.5625 186.4375 164.5625 186.4375 167.125 186.25 C167.78500000000003 185.59000000000003 168.445 184.93 169.125 184.25 C168.56944444444446 179.69444444444446 168.56944444444446 179.69444444444446 167.125 178.25 C162.48214285714283 177.8928571428571 162.48214285714283 177.8928571428571 160.125 180.25 Z " fill="#000000" transform="translate(189.875,79.75)"/>
<path d="M0 0 C2.7390844115106177 1.3695422057552946 2.9319000396985615 2.8966472956585108 4.125 5.6875 C6.804630610509662 11.203464765493578 9.953074430741623 13.71995142536531 15 17 C25.53334523353324 24.43316961402519 30.953297699389054 32.105883972284914 35.46484375 44.0703125 C36.96491708508259 48.00470679774759 38.69693449420129 51.78920070491091 40.5625 55.5625 C41.1000390625 56.65691406249999 41.637578125000005 57.751328124999986 42.19140625 58.87890625 C50.08663620346766 72.50371992779841 65.05581829716613 78.20134421175032 79.1875 83.5 C89.29392948450766 87.3227851302924 99.83870231496451 92.45956211139634 105.293701171875 102.34423828125 C106.81132566142955 105.7591431563635 108.17351403412187 109.22269864670511 109.52734375 112.705078125 C111.92524787936938 118.50660075301636 114.42660629093996 122.81695054690363 120 126 C122.60894749736804 126.873086076057 125.14632050237071 127.21437936841244 127.875 127.5 C136.59229537149568 128.7952726862036 142.36631352508658 131.67247655291203 148.1875 138.3125 C151.08460349368673 142.4114238990348 152.40125988640338 146.90235397943673 153.9375 151.625 C157.3977977140434 161.98269931768243 157.3977977140434 161.98269931768243 161.62890625 164.89453125 C165.6226662788792 166.75653139526003 169.78710401216787 168.1763402094075 173.94921875 169.612060546875 C179.40887102458726 171.56654023267345 183.33558678123975 174.22187599562335 187.72265625 178.046875 C200.4375391965263 188.9515773555114 216.40755822085896 191.7478014206065 232.68359375 190.78125 C245.6402323118278 189.33077593064576 258.083295446257 185.46144653941008 270.54296875 181.77734375 C292.8904226450123 175.1755472034297 313.522729148979 170.93738856236894 336.923828125 170.5703125 C348.28879188773624 170.26123699823722 358.96583657506875 168.34420628075708 368 161 C371.1166158175739 157.29426777788467 373.4676457104258 153.59706286872256 375 149 C375.99 149.33000000000004 376.98 149.65999999999997 378 150 C381.09358031163674 157.0412804399544 381.4387778150116 165.6607378248455 379.01953125 172.95703125 C377.81546484049795 175.4281460042704 376.5107181987784 177.7054598951887 375 180 C374.401875 180.92812500000002 373.80375 181.85625 373.1875 182.8125 C363.1479757494746 192.85202425052546 350.24331619565527 193.4076703681627 336.75 193.5 C323.1119461443952 193.59442767259077 310.18731598600647 194.75313642294623 297.5 200.125 C290.342604177923 203.09517437960687 283.87393351447537 204.03391690905585 276.187255859375 204.1376953125 C261.8551150934817 204.42324631516067 249.37613159855704 208.3968555904836 236.65234375 214.921875 C223.92996102663193 220.0932706283499 207.43844787358432 219.88711817218757 194.6796875 215.1796875 C188.08618460481512 212.27700838287774 183.63524502112338 208.74476689124128 178.625 203.5625 C171.958090208823 196.67709676851507 165.39304292775233 192.7833929147888 156.375 189.625 C149.26494933153938 186.98699533502344 144.53430598048644 183.4812966067649 140.76953125 176.82421875 C139.08695532415 172.98846137114663 137.99911567410192 169.08512074912892 137.05078125 165.015625 C136.885458984375 164.31244140625 136.72013671875 163.6092578125 136.5498046875 162.884765625 C136.2330389591095 161.4970905102473 135.9344452467285 160.1050977485844 135.6572265625 158.708984375 C134.5067704090493 153.48151843729812 132.65733946670758 150.74173960824697 129 147 C125.33917330446283 145.2121544045051 122.00148254249797 144.9069635374774 118 144.625 C113.31514317274275 144.19590650681278 110.53950987710746 143.28668774302832 107 140 C104.00732004554749 135.58171613997195 102.44166836508685 130.47709460022207 100.625 125.5 C98.48704766419002 119.86180252903762 96.09800446634131 115.42259887951684 92 111 C91.49984375 110.45859374999998 90.9996875 109.91718750000001 90.484375 109.359375 C83.0402091686878 102.20430298737949 73.33897678121411 99.94069177147293 63.5 98.0625 C52.50699935391788 95.93806586648788 41.84491197341032 92.43154966002038 35 83 C31.381674820262162 77.04246701641227 28.902393985386453 71.00610846710049 27 64.3125 C24.907249984938517 57.10029540263935 21.968267851092065 51.563504053215865 16.25 46.625 C13.474014043934801 45.2370070219674 11.151179684860267 44.43119416466061 8.1875 43.625 C1.4178984165400408 41.72583575486644 -4.801364031719785 38.57487180294453 -8.5 32.375 C-11.133556555311614 26.449497750548886 -12.374542408486718 20.78591637509919 -10.09375 14.50390625 C-7.440943104328525 8.917707113922546 -4.213005264453727 4.506935864299351 0 0 Z " fill="#000000" transform="translate(72,166)"/>
<path d="M0 0 C0.7012500000000017 0.4589062500000125 1.4025000000000034 0.9178124999999966 2.125 1.390625 C10.797706721357315 6.999603803486536 10.797706721357315 6.999603803486536 15.375 8.9375 C22.593068049121115 12.430495853022478 25.085211970628222 21.283612584009518 27.8125 28.3125 C32.582924847332706 40.05683164795718 39.044162567549336 51.47774545490114 50.76171875 57.39453125 C57.09222149068944 60.023635901403 63.43929891759521 61.580325636065766 70.125 62.9375 C80.24098959356257 65.02495997777515 88.8688973923808 68.3792910323989 95.515625 76.671875 C98.36576547318705 81.14209532110391 100.09582273418869 86.0745281391014 102 91 C105.31203486648263 98.86056274978546 108.79416995783419 104.68629775903742 116.8125 108.25 C119.99999999999991 109 119.99999999999991 109 122.421875 109.37890625 C123.29328125 109.52199218750002 124.16468750000001 109.66507812499998 125.0625 109.8125 C125.8784765625 109.92207031250001 126.694453125 110.03164062500002 127.53515625 110.14453125 C131.16106792735093 111.40296969269389 132.64065603517506 112.95493537544763 135 116 C136.30992851379932 119.36415950531386 137.15817835072048 122.80572551332108 138 126.3125 C140.59366565097272 136.98121190734417 144.4135779941216 145.8982129870559 154 152 C156.35914666212466 152.897024370366 158.73634929496515 153.74728622203685 161.125 154.5625 C167.52614407250394 156.78524127215604 171.47618976226562 159.92942339925327 176.0625 164.875 C191.51136772467441 181.43802076741457 212.54290679941664 186.36965263843297 234.59375 187.25390625 C252.04652312118162 187.72675761904134 263.703410451531 184.22298045216678 278.333984375 175.03369140625 C293.48491218654317 165.63318900969762 309.43203581779005 163.37785165045773 326.762451171875 161.448974609375 C362.46881435038034 157.44837797504607 362.46881435038034 157.44837797504607 374.24609375 147.171875 C376 146 376 146 380 146 C383.94482699114513 156.8482742256491 382.5805292780609 168.27661473033658 377.78125 178.62890625 C368.312209504731 195.85729937333667 349.75215575106273 202.66809141440172 331.8955078125 207.91162109375 C313.4871656860507 213.06055725572753 294.90340021514504 216.36712353837981 276 219 C275.083798828125 219.13277343749996 274.16759765625 219.26554687500004 273.2236328125 219.40234375 C237.5485191217113 224.43218156145377 199.9310965624391 223.0105005306234 170 201 C165.49073577291904 197.5282111395755 161.2291192040742 193.80509142107996 157 190 C156.105390625 189.203359375 155.21078125 188.40671874999998 154.2890625 187.5859375 C152.64207081688937 186.1112464852763 151.00104932449733 184.62984987609923 149.3671875 183.140625 C147.72238527911222 181.65324609398266 146.05944048472577 180.18578430021034 144.3828125 178.734375 C143.555234375 178.01765624999996 142.72765625 177.30093750000003 141.875 176.5625 C141.129921875 175.92441406249998 140.38484375 175.286328125 139.6171875 174.62890625 C138 173 138 173 138 171 C137.01 170.66999999999996 136.02 170.34000000000003 135 170 C133.45703124999994 168.43359374999994 133.45703124999994 168.43359374999994 131.8125 166.4375 C129.3622975114091 163.54040523361584 126.85363660959288 160.82354814180235 124.125 158.1875 C120.181446031886 154.30473299093205 116.75069145947356 150.10513540913803 113.2890625 145.79296875 C111.07904702840398 143.096448166056 108.78884677017516 140.5110530800714 106.4375 137.9375 C103.55074982126055 134.76656197983027 100.78720599680946 131.5491450468877 98.125 128.1875 C90.28429149979291 118.31401522196148 82.22585602090408 109.04696879124026 73.3125 100.125 C72.51674560546877 99.32843994140626 71.72099121093748 98.53187988281252 70.901123046875 97.711181640625 C66.66227015672848 93.51195654315671 62.340506655682645 89.46699159373878 57.820068359375 85.57275390625 C55.20294497256053 83.31125037065527 52.66743421902868 80.97023710508739 50.125 78.625 C46.555727342079805 75.3326102704093 42.95981926124868 72.08116139489664 39.3125 68.875 C34.49318080286665 64.54856572075528 29.898951566251142 60.00768930110809 25.3125 55.4375 C24.599406738281246 54.728999023437495 23.886313476562492 54.02049804687499 23.151611328125 53.29052734375 C16.467853787149295 46.58735156471221 10.218926743705097 39.85740158485467 5.1875 31.8125 C4.806582031250002 31.222753906250006 4.4256640625000045 30.63300781250001 4.033203125 30.025390625 C-0.9402754336825154 22.19499268409703 -2.9508958425327094 14.267205245022183 -2 5 C-1.3856001825176492 3.313365752007911 -0.729308309966683 1.6402230370397035 0 0 Z " fill="#000000" transform="translate(66,210)"/>
</svg>
