<?xml version="1.0" encoding="UTF-8"?>
<!-- Generator: visioncortex VTracer 0.6.12 -->
<svg version="1.1" xmlns="http://www.w3.org/2000/svg" width="512" height="512">
  <metadata>
                <![CDATA[
            {
  "prompt": {
    "4": {
      "inputs": {
        "vae_name": "ae.safetensors"
      },
      "class_type": "VAELoader",
      "_meta": {
        "title": "Load VAE"
      }
    },
    "5": {
      "inputs": {
        "clip_name": "qwen3_4b_fp8_scaled.safetensors",
        "type": "lumina2",
        "device": "default"
      },
      "class_type": "CLIPLoader",
      "_meta": {
        "title": "Load CLIP"
      }
    },
    "6": {
      "inputs": {
        "ckpt_name": "zEpicrealism_turboV1Fp8.safetensors"
      },
      "class_type": "CheckpointLoaderSimple",
      "_meta": {
        "title": "Load Checkpoint"
      }
    },
    "7": {
      "inputs": {
        "shift": 6.0,
        "model": [
          "6",
          0
        ]
      },
      "class_type": "ModelSamplingAuraFlow",
      "_meta": {
        "title": "ModelSamplingAuraFlow"
      }
    },
    "8": {
      "inputs": {
        "PowerLoraLoaderHeaderWidget": {
          "type": "PowerLoraLoaderHeaderWidget"
        },
        "lora_1": {
          "on": true,
          "lora": "MinimalistVectorArtZ.safetensors",
          "strength": 0.4
        },
        "lora_2": {
          "on": false,
          "lora": "None",
          "strength": 0.75
        },
        "\u2795 Add Lora": "",
        "model": [
          "7",
          0
        ],
        "clip": [
          "5",
          0
        ]
      },
      "class_type": "Power Lora Loader (rgthree)",
      "_meta": {
        "title": "Power Lora Loader (rgthree)"
      }
    },
    "9": {
      "inputs": {
        "text": "A bold, heavy solid black icon of a thick, artisan sourdough sandwich cut on a diagonal. 3/4 perspective. High-contrast woodblock style. The entire crusty roll and filling form a single, substantial contiguous dark mass. A thick, massive white negative space \"diagonal slash\" defines the sharp cut where the sandwich is divided. Thick, bold white negative space is used sparingly to create: 1) a chunky \"arc\" defining the rustic, bubbly crust of the bread, and 2) two or three horizontal, irregular white \"slashes\" within the cut face to represent layers of filling. No fine lettuce, no gray, heavy visual weight. Isolated on white. Optimized for a clean, single-boolean SVG silhouette.",
        "clip": [
          "8",
          1
        ]
      },
      "class_type": "CLIPTextEncode",
      "_meta": {
        "title": "Positive Prompt"
      }
    },
    "10": {
      "inputs": {
        "text": "blurry, bad, shadow, color, grey, text, watermark, logo,",
        "clip": [
          "8",
          1
        ]
      },
      "class_type": "CLIPTextEncode",
      "_meta": {
        "title": "Negative Prompt"
      }
    },
    "11": {
      "inputs": {
        "seed": 585579860324843,
        "steps": 9,
        "cfg": 0.9,
        "sampler_name": "euler",
        "scheduler": "beta",
        "denoise": 1.0,
        "preview_method": "auto",
        "vae_decode": "true",
        "model": [
          "8",
          0
        ],
        "positive": [
          "9",
          0
        ],
        "negative": [
          "10",
          0
        ],
        "latent_image": [
          "27",
          0
        ],
        "optional_vae": [
          "4",
          0
        ]
      },
      "class_type": "KSampler (Efficient)",
      "_meta": {
        "title": "KSampler (Efficient)"
      }
    },
    "13": {
      "inputs": {
        "filename_prefix": [
          "35",
          0
        ],
        "images": [
          "11",
          5
        ]
      },
      "class_type": "SaveImage",
      "_meta": {
        "title": "Save Image"
      }
    },
    "27": {
      "inputs": {
        "dimensions": "512 x 512 (1:1)",
        "invert": false,
        "batch_size": 1
      },
      "class_type": "EmptyLatentImagePresets",
      "_meta": {
        "title": "Empty Latent Image Presets"
      }
    },
    "32": {
      "inputs": {
        "filename_prefix": [
          "35",
          0
        ],
        "svg": [
          "34",
          0
        ]
      },
      "class_type": "SaveSVGNode",
      "_meta": {
        "title": "SaveSVGNode"
      }
    },
    "33": {
      "inputs": {
        "mode": "spline",
        "filter_speckle": 4,
        "corner_threshold": 60,
        "length_threshold": 4.0,
        "splice_threshold": 45,
        "image": [
          "11",
          5
        ]
      },
      "class_type": "TS_ImageToSVGStringBW_Vtracer",
      "_meta": {
        "title": "Image to SVG String BW_Vtracer"
      }
    },
    "34": {
      "inputs": {
        "SVG_String": [
          "33",
          0
        ]
      },
      "class_type": "TS_SVGStringToSVGBytesIO",
      "_meta": {
        "title": "SVG String to SVG BytesIO"
      }
    },
    "35": {
      "inputs": {
        "value": "Icons/sandwich-"
      },
      "class_type": "PrimitiveString",
      "_meta": {
        "title": "String"
      }
    }
  },
  "workflow": {
    "id": "b863a6d5-b1c1-49ed-82de-40ff658289d1",
    "revision": 0,
    "last_node_id": 38,
    "last_link_id": 50,
    "nodes": [
      {
        "id": 4,
        "type": "VAELoader",
        "pos": [
          -6219.529416223988,
          -970.9071955967029
        ],
        "size": [
          373.8333435058594,
          123.80000305175781
        ],
        "flags": {},
        "order": 0,
        "mode": 0,
        "inputs": [],
        "outputs": [
          {
            "name": "VAE",
            "type": "VAE",
            "links": [
              13,
              48
            ]
          }
        ],
        "properties": {
          "cnr_id": "comfy-core",
          "ver": "0.9.2",
          "Node name for S&R": "VAELoader"
        },
        "widgets_values": [
          "ae.safetensors"
        ]
      },
      {
        "id": 5,
        "type": "CLIPLoader",
        "pos": [
          -6634.625060962726,
          -1114.719863560585
        ],
        "size": [
          366.1666564941406,
          542.9833374023438
        ],
        "flags": {},
        "order": 1,
        "mode": 0,
        "inputs": [],
        "outputs": [
          {
            "name": "CLIP",
            "type": "CLIP",
            "links": [
              6
            ]
          }
        ],
        "properties": {
          "cnr_id": "comfy-core",
          "ver": "0.9.2",
          "Node name for S&R": "CLIPLoader"
        },
        "widgets_values": [
          "qwen3_4b_fp8_scaled.safetensors",
          "lumina2",
          "default"
        ]
      },
      {
        "id": 6,
        "type": "CheckpointLoaderSimple",
        "pos": [
          -7142.718609403837,
          -1274.2970319785854
        ],
        "size": [
          456,
          154.6666717529297
        ],
        "flags": {},
        "order": 2,
        "mode": 0,
        "inputs": [],
        "outputs": [
          {
            "name": "MODEL",
            "type": "MODEL",
            "links": [
              4
            ]
          },
          {
            "name": "CLIP",
            "type": "CLIP",
            "links": []
          },
          {
            "name": "VAE",
            "type": "VAE",
            "links": []
          }
        ],
        "properties": {
          "cnr_id": "comfy-core",
          "ver": "0.9.2",
          "Node name for S&R": "CheckpointLoaderSimple"
        },
        "widgets_values": [
          "zEpicrealism_turboV1Fp8.safetensors"
        ],
        "color": "#453f4f",
        "bgcolor": "#312b3b"
      },
      {
        "id": 7,
        "type": "ModelSamplingAuraFlow",
        "pos": [
          -6599.990108813057,
          -1269.9450961666446
        ],
        "size": [
          270,
          104
        ],
        "flags": {},
        "order": 7,
        "mode": 0,
        "inputs": [
          {
            "name": "model",
            "type": "MODEL",
            "link": 4
          }
        ],
        "outputs": [
          {
            "name": "MODEL",
            "type": "MODEL",
            "links": [
              5
            ]
          }
        ],
        "properties": {
          "cnr_id": "comfy-core",
          "ver": "0.10.0",
          "Node name for S&R": "ModelSamplingAuraFlow"
        },
        "widgets_values": [
          6
        ]
      },
      {
        "id": 8,
        "type": "Power Lora Loader (rgthree)",
        "pos": [
          -6200.008875558856,
          -1269.9450961666446
        ],
        "size": [
          340.48333740234375,
          232
        ],
        "flags": {},
        "order": 8,
        "mode": 0,
        "inputs": [
          {
            "dir": 3,
            "name": "model",
            "type": "MODEL",
            "link": 5
          },
          {
            "dir": 3,
            "name": "clip",
            "type": "CLIP",
            "link": 6
          }
        ],
        "outputs": [
          {
            "dir": 4,
            "name": "MODEL",
            "shape": 3,
            "type": "MODEL",
            "links": [
              47
            ]
          },
          {
            "dir": 4,
            "name": "CLIP",
            "shape": 3,
            "type": "CLIP",
            "links": [
              7,
              8
            ]
          }
        ],
        "properties": {
          "cnr_id": "rgthree-comfy",
          "ver": "8ff50e4521881eca1fe26aec9615fc9362474931",
          "Show Strengths": "Single Strength"
        },
        "widgets_values": [
          {},
          {
            "type": "PowerLoraLoaderHeaderWidget"
          },
          {
            "on": true,
            "lora": "MinimalistVectorArtZ.safetensors",
            "strength": 0.4,
            "strengthTwo": null
          },
          {
            "on": false,
            "lora": "None",
            "strength": 0.75,
            "strengthTwo": null
          },
          {},
          ""
        ]
      },
      {
        "id": 9,
        "type": "CLIPTextEncode",
        "pos": [
          -5665.298067285652,
          -968.8847480145092
        ],
        "size": [
          495.1833190917969,
          389.6333312988281
        ],
        "flags": {},
        "order": 10,
        "mode": 0,
        "inputs": [
          {
            "name": "clip",
            "type": "CLIP",
            "link": 7
          }
        ],
        "outputs": [
          {
            "name": "CONDITIONING",
            "type": "CONDITIONING",
            "links": [
              9
            ]
          }
        ],
        "title": "Positive Prompt",
        "properties": {
          "cnr_id": "comfy-core",
          "ver": "0.9.2",
          "Node name for S&R": "CLIPTextEncode"
        },
        "widgets_values": [
          "A bold, heavy solid black icon of a thick, artisan sourdough sandwich cut on a diagonal. 3/4 perspective. High-contrast woodblock style. The entire crusty roll and filling form a single, substantial contiguous dark mass. A thick, massive white negative space \"diagonal slash\" defines the sharp cut where the sandwich is divided. Thick, bold white negative space is used sparingly to create: 1) a chunky \"arc\" defining the rustic, bubbly crust of the bread, and 2) two or three horizontal, irregular white \"slashes\" within the cut face to represent layers of filling. No fine lettuce, no gray, heavy visual weight. Isolated on white. Optimized for a clean, single-boolean SVG silhouette."
        ],
        "color": "#232",
        "bgcolor": "#353"
      },
      {
        "id": 10,
        "type": "CLIPTextEncode",
        "pos": [
          -5666.5260314864745,
          -512.2921596736592
        ],
        "size": [
          470,
          142
        ],
        "flags": {},
        "order": 11,
        "mode": 0,
        "inputs": [
          {
            "name": "clip",
            "type": "CLIP",
            "link": 8
          }
        ],
        "outputs": [
          {
            "name": "CONDITIONING",
            "type": "CONDITIONING",
            "links": [
              10
            ]
          }
        ],
        "title": "Negative Prompt",
        "properties": {
          "cnr_id": "comfy-core",
          "ver": "0.9.2",
          "Node name for S&R": "CLIPTextEncode"
        },
        "widgets_values": [
          "blurry, bad, shadow, color, grey, text, watermark, logo,"
        ],
        "color": "#322",
        "bgcolor": "#533"
      },
      {
        "id": 11,
        "type": "KSampler (Efficient)",
        "pos": [
          -4910.913678672515,
          -1342.5015025857194
        ],
        "size": [
          400.1000061035156,
          966.6666870117188
        ],
        "flags": {},
        "order": 12,
        "mode": 0,
        "inputs": [
          {
            "name": "model",
            "type": "MODEL",
            "link": 46
          },
          {
            "name": "positive",
            "type": "CONDITIONING",
            "link": 9
          },
          {
            "name": "negative",
            "type": "CONDITIONING",
            "link": 10
          },
          {
            "name": "latent_image",
            "type": "LATENT",
            "link": 37
          },
          {
            "name": "optional_vae",
            "shape": 7,
            "type": "VAE",
            "link": 13
          },
          {
            "name": "script",
            "shape": 7,
            "type": "SCRIPT",
            "link": null
          }
        ],
        "outputs": [
          {
            "name": "MODEL",
            "type": "MODEL",
            "links": null
          },
          {
            "name": "CONDITIONING+",
            "type": "CONDITIONING",
            "links": null
          },
          {
            "name": "CONDITIONING-",
            "type": "CONDITIONING",
            "links": null
          },
          {
            "name": "LATENT",
            "type": "LATENT",
            "links": null
          },
          {
            "name": "VAE",
            "type": "VAE",
            "links": null
          },
          {
            "name": "IMAGE",
            "type": "IMAGE",
            "links": [
              14,
              39
            ]
          }
        ],
        "properties": {
          "cnr_id": "efficiency-nodes-comfyui",
          "ver": "1.0.8",
          "Node name for S&R": "KSampler (Efficient)"
        },
        "widgets_values": [
          -1,
          null,
          9,
          0.9,
          "euler",
          "beta",
          1,
          "auto",
          "true"
        ],
        "color": "#223333",
        "bgcolor": "#335555",
        "shape": "box"
      },
      {
        "id": 13,
        "type": "SaveImage",
        "pos": [
          -4410.458584695532,
          -1352.0179936878044
        ],
        "size": [
          461.7833251953125,
          344
        ],
        "flags": {},
        "order": 13,
        "mode": 0,
        "inputs": [
          {
            "name": "images",
            "type": "IMAGE",
            "link": 14
          },
          {
            "name": "filename_prefix",
            "type": "STRING",
            "widget": {
              "name": "filename_prefix"
            },
            "link": 43
          }
        ],
        "outputs": [],
        "properties": {
          "cnr_id": "comfy-core",
          "ver": "0.17.2"
        },
        "widgets_values": [
          "Icons/apps-"
        ]
      },
      {
        "id": 27,
        "type": "EmptyLatentImagePresets",
        "pos": [
          -5667.013573414988,
          -1285.095614520352
        ],
        "size": [
          285.0833435058594,
          214.6666717529297
        ],
        "flags": {},
        "order": 3,
        "mode": 0,
        "inputs": [],
        "outputs": [
          {
            "name": "Latent",
            "type": "LATENT",
            "links": [
              37
            ]
          },
          {
            "name": "Width",
            "type": "INT",
            "links": null
          },
          {
            "name": "Height",
            "type": "INT",
            "links": null
          }
        ],
        "properties": {
          "cnr_id": "comfyui-kjnodes",
          "ver": "c88ac88a8f8a6a090a0d5d607156090cb2911503",
          "Node name for S&R": "EmptyLatentImagePresets"
        },
        "widgets_values": [
          "512 x 512 (1:1)",
          false,
          1
        ]
      },
      {
        "id": 32,
        "type": "SaveSVGNode",
        "pos": [
          -3813.087098958786,
          -782.3652587471762
        ],
        "size": [
          270,
          344
        ],
        "flags": {},
        "order": 16,
        "mode": 0,
        "inputs": [
          {
            "name": "svg",
            "type": "SVG",
            "link": 42
          },
          {
            "name": "filename_prefix",
            "type": "STRING",
            "widget": {
              "name": "filename_prefix"
            },
            "link": 44
          }
        ],
        "outputs": [],
        "properties": {
          "cnr_id": "comfy-core",
          "ver": "0.17.2",
          "Node name for S&R": "SaveSVGNode"
        },
        "widgets_values": [
          "Icons/apps-"
        ]
      },
      {
        "id": 33,
        "type": "TS_ImageToSVGStringBW_Vtracer",
        "pos": [
          -4400.364267959555,
          -795.4572061170688
        ],
        "size": [
          314.01666259765625,
          234.66665649414062
        ],
        "flags": {},
        "order": 14,
        "mode": 0,
        "inputs": [
          {
            "name": "image",
            "type": "IMAGE",
            "link": 39
          }
        ],
        "outputs": [
          {
            "name": "STRING",
            "shape": 6,
            "type": "STRING",
            "links": [
              41
            ]
          }
        ],
        "properties": {
          "cnr_id": "comfyui-tosvg",
          "ver": "1.0.1",
          "Node name for S&R": "TS_ImageToSVGStringBW_Vtracer"
        },
        "widgets_values": [
          "spline",
          4,
          60,
          4,
          45
        ]
      },
      {
        "id": 34,
        "type": "TS_SVGStringToSVGBytesIO",
        "pos": [
          -4063.4410199893787,
          -778.4467045599912
        ],
        "size": [
          225,
          72
        ],
        "flags": {},
        "order": 15,
        "mode": 0,
        "inputs": [
          {
            "name": "SVG_String",
            "type": "STRING",
            "link": 41
          }
        ],
        "outputs": [
          {
            "name": "SVG",
            "type": "SVG",
            "links": [
              42
            ]
          }
        ],
        "properties": {
          "cnr_id": "comfyui-tosvg",
          "ver": "1.0.1",
          "Node name for S&R": "TS_SVGStringToSVGBytesIO"
        },
        "widgets_values": []
      },
      {
        "id": 35,
        "type": "PrimitiveString",
        "pos": [
          -4406.648318050964,
          -1528.2986560802276
        ],
        "size": [
          270,
          108
        ],
        "flags": {},
        "order": 4,
        "mode": 0,
        "inputs": [],
        "outputs": [
          {
            "name": "STRING",
            "type": "STRING",
            "links": [
              43,
              44
            ]
          }
        ],
        "properties": {
          "cnr_id": "comfy-core",
          "ver": "0.17.2",
          "Node name for S&R": "PrimitiveString"
        },
        "widgets_values": [
          "Icons/sandwich-"
        ]
      },
      {
        "id": 36,
        "type": "ModelPatchLoader",
        "pos": [
          -7059.345533943512,
          -330.0523924799236
        ],
        "size": [
          427.6000061035156,
          106.66667175292969
        ],
        "flags": {},
        "order": 5,
        "mode": 4,
        "inputs": [],
        "outputs": [
          {
            "name": "MODEL_PATCH",
            "type": "MODEL_PATCH",
            "links": [
              45
            ]
          }
        ],
        "properties": {
          "cnr_id": "comfy-core",
          "ver": "0.16.3",
          "Node name for S&R": "ModelPatchLoader"
        },
        "widgets_values": [
          "Z-Image-Turbo-Fun-Controlnet-Union-2.1.safetensors"
        ]
      },
      {
        "id": 37,
        "type": "ZImageFunControlnet",
        "pos": [
          -6611.258196381201,
          -335.79477340395954
        ],
        "size": [
          361.6000061035156,
          224
        ],
        "flags": {},
        "order": 9,
        "mode": 4,
        "inputs": [
          {
            "name": "model",
            "type": "MODEL",
            "link": 47
          },
          {
            "name": "model_patch",
            "type": "MODEL_PATCH",
            "link": 45
          },
          {
            "name": "vae",
            "type": "VAE",
            "link": 48
          },
          {
            "name": "image",
            "shape": 7,
            "type": "IMAGE",
            "link": 50
          },
          {
            "name": "inpaint_image",
            "shape": 7,
            "type": "IMAGE",
            "link": null
          },
          {
            "name": "mask",
            "shape": 7,
            "type": "MASK",
            "link": null
          }
        ],
        "outputs": [
          {
            "name": "MODEL",
            "type": "MODEL",
            "links": [
              46
            ]
          }
        ],
        "properties": {
          "cnr_id": "comfy-core",
          "ver": "0.16.3",
          "Node name for S&R": "ZImageFunControlnet"
        },
        "widgets_values": [
          0.15
        ]
      },
      {
        "id": 38,
        "type": "LoadImage",
        "pos": [
          -6229.443165549208,
          -560.5968682946624
        ],
        "size": [
          458.8333435058594,
          788.2999877929688
        ],
        "flags": {},
        "order": 6,
        "mode": 4,
        "inputs": [],
        "outputs": [
          {
            "name": "IMAGE",
            "type": "IMAGE",
            "links": [
              50
            ]
          },
          {
            "name": "MASK",
            "type": "MASK",
            "links": null
          }
        ],
        "title": "Reference",
        "properties": {
          "cnr_id": "comfy-core",
          "ver": "0.9.2",
          "Node name for S&R": "LoadImage"
        },
        "widgets_values": [
          "background-removed (1).png",
          "image"
        ],
        "color": "#322",
        "bgcolor": "#533"
      }
    ],
    "links": [
      [
        4,
        6,
        0,
        7,
        0,
        "MODEL"
      ],
      [
        5,
        7,
        0,
        8,
        0,
        "MODEL"
      ],
      [
        6,
        5,
        0,
        8,
        1,
        "CLIP"
      ],
      [
        7,
        8,
        1,
        9,
        0,
        "CLIP"
      ],
      [
        8,
        8,
        1,
        10,
        0,
        "CLIP"
      ],
      [
        9,
        9,
        0,
        11,
        1,
        "CONDITIONING"
      ],
      [
        10,
        10,
        0,
        11,
        2,
        "CONDITIONING"
      ],
      [
        13,
        4,
        0,
        11,
        4,
        "VAE"
      ],
      [
        14,
        11,
        5,
        13,
        0,
        "IMAGE"
      ],
      [
        37,
        27,
        0,
        11,
        3,
        "LATENT"
      ],
      [
        39,
        11,
        5,
        33,
        0,
        "IMAGE"
      ],
      [
        41,
        33,
        0,
        34,
        0,
        "STRING"
      ],
      [
        42,
        34,
        0,
        32,
        0,
        "SVG"
      ],
      [
        43,
        35,
        0,
        13,
        1,
        "STRING"
      ],
      [
        44,
        35,
        0,
        32,
        1,
        "STRING"
      ],
      [
        45,
        36,
        0,
        37,
        1,
        "MODEL_PATCH"
      ],
      [
        46,
        37,
        0,
        11,
        0,
        "MODEL"
      ],
      [
        47,
        8,
        0,
        37,
        0,
        "MODEL"
      ],
      [
        48,
        4,
        0,
        37,
        2,
        "VAE"
      ],
      [
        50,
        38,
        0,
        37,
        3,
        "IMAGE"
      ]
    ],
    "groups": [],
    "config": {},
    "extra": {
      "ds": {
        "scale": 0.839054528882477,
        "offset": [
          5463.090178533862,
          1719.5839858982563
        ]
      },
      "workflowRendererVersion": "Vue",
      "frontendVersion": "1.41.20",
      "VHS_latentpreview": false,
      "VHS_latentpreviewrate": 0,
      "VHS_MetadataImage": true,
      "VHS_KeepIntermediate": true
    },
    "version": 0.4
  }
}
                ]]>
            </metadata>
            
<path d="M0 0 C0.39401252746586124 -0.002850036621097729 0.39401252746586124 -0.002850036621097729 2.3879547119140625 -0.01727294921875 C4.047604266510575 -0.02665164067752812 5.7072718434731655 -0.03322823728376534 7.366943359375 -0.037109375 C9.841987229640495 -0.04673147188120197 12.316168643817946 -0.0777885593188472 14.791015625 -0.109375 C28.914818428562057 -0.20385448161059117 43.090402200170786 1.092955856781387 56.50390625 5.828125 C57.231582031250014 6.079008789062499 57.95925781250003 6.329892578124998 58.708984375 6.58837890625 C71.15675554573676 11.078046587340452 82.55648601080173 17.378524924867975 92.44140625 26.203125 C92.85519531249997 26.546015624999995 92.85519531249997 26.546015624999995 94.94921875 28.28125 C109.67223048825042 40.79806120254929 120.97772658009944 59.1026486310939 122.75 78.59765625 C123.16415722877662 89.98070493183045 120.97299773838006 100.4092949997958 113.390625 109.16796875 C112.7473828125 109.8395703125 112.10414062500001 110.511171875 111.44140625 111.203125 C110.8291015625 111.84378906249998 110.216796875 112.48445312500002 109.5859375 113.14453125 C97.15177329607849 125.0495820835419 80.6783932031019 133.1013876501617 65.93408203125 141.805419921875 C57.575881896352485 146.74013389133248 49.25140653814884 151.7237604265865 40.967376708984375 156.781982421875 C20.757274121579087 169.12106227825652 0.2900802383771861 181.01204445751677 -20.236083984375 192.81640625 C-27.10314566039807 196.77024886619557 -33.934272391611216 200.7799812979498 -40.74609375 204.828125 C-50.88564956192022 210.843409640537 -61.11395979335845 216.68891057985945 -71.4052734375 222.4404296875 C-73.58697769934906 223.65999493762 -75.76722266546085 224.88217307040452 -77.9462890625 226.1064453125 C-133.04005352219025 257.0529610857472 -191.62272865284802 288.23213834300344 -256.37109375 272.453125 C-276.8659108048033 266.5558198737273 -297.20460399742177 256.0118995978389 -309.16015625 237.7578125 C-316.5394712487931 224.2771644295791 -317.1101060553652 210.99259010190133 -312.953125 196.36328125 C-308.2993725317144 181.6026488879321 -299.2710416769078 168.07818558657715 -289.55859375 156.203125 C-288.8380078125 155.2969140625 -288.117421875 154.390703125 -287.375 153.45703125 C-281.4323444768969 146.17936418972553 -275.01127834735775 139.47438868240522 -268.37109375 132.828125 C-267.5278051757813 131.98403076171874 -266.6845166015625 131.1399365234375 -265.815673828125 130.270263671875 C-260.886775018363 125.38490209764916 -255.8578672128023 120.68402272612644 -250.55859375 116.203125 C-249.95410400390625 115.69185058593752 -249.3496142578125 115.180576171875 -248.726806640625 114.65380859375 C-238.37212811155763 105.98432233705199 -227.59500327289595 97.97877716385852 -216.55859375 90.203125 C-216.165107421875 89.92460693359374 -216.165107421875 89.92460693359374 -214.173828125 88.51513671875 C-190.04283918019237 71.50858019057421 -164.86148351910063 56.57321611137161 -138.55859375 43.203125 C-137.17170196650943 42.48991971219198 -135.7849663928546 41.77641052026874 -134.3984375 41.0625 C-130.47680824189814 39.05681948591774 -126.52651092488043 37.11544791849697 -122.55859375 35.203125 C-121.708134765625 34.79239746093751 -120.85767578125001 34.381669921875 -119.9814453125 33.95849609375 C-104.18482102332135 26.386400551562332 -88.11747234130826 19.914643469629937 -71.55859375 14.203125 C-70.5913134765625 13.867968750000003 -69.62403320312501 13.532812500000006 -68.62744140625 13.1875 C-46.96163421932664 5.810619548425876 -22.982547042373312 0.13411372026966717 0 0 Z M4.44140625 24.203125 C4.44140625 25.523124999999993 4.44140625 26.843125 4.44140625 28.203125 C4.9286718750000205 28.374570312499998 4.9286718750000205 28.374570312499998 7.39453125 29.2421875 C19.018793448112774 33.485232248859376 29.9805760574626 38.815249696777414 40.9560546875 44.49072265625 C42.112666015624995 45.08417480468751 43.26927734374999 45.677626953125 44.4609375 46.2890625 C44.97708618164063 46.557429199218745 44.97708618164063 46.557429199218745 47.589111328125 47.91552734375 C50.25101987577199 49.11717980290349 52.564859668748284 49.77307979977154 55.44140625 50.203125 C55.60640625000002 49.708124999999995 55.60640625000002 49.708124999999995 56.44140625 47.203125 C48.51197967141235 35.172270880763534 32.79014116272748 28.92326423797323 19.44140625 25.203125 C15.763897571390203 24.474207039405982 12.31244064943462 24.083866903038867 8.56640625 24.140625 C7.785234375000016 24.149648437500005 7.004062499999975 24.158671874999996 6.19921875 24.16796875 C5.9091796875 24.173769531250002 5.9091796875 24.173769531250002 4.44140625 24.203125 Z M-14.55859375 28.203125 C-15.218593750000025 28.863124999999997 -15.878593749999993 29.523124999999993 -16.55859375 30.203125 C-16.37109375 32.265625 -16.37109375 32.265625 -15.55859375 34.203125 C-14.568593749999991 34.533125 -13.578593749999982 34.863125 -12.55859375 35.203125 C-11.568593749999991 34.21312499999999 -10.578593749999982 33.223124999999996 -9.55859375 32.203125 C-10.218593750000025 30.883125000000007 -10.878593749999993 29.563125 -11.55859375 28.203125 C-12.548593750000009 28.203125 -13.538593750000018 28.203125 -14.55859375 28.203125 Z M-107.55859375 43.203125 C-107.55859375 43.863125 -107.55859375 44.52312499999999 -107.55859375 45.203125 C-106.92582519531251 45.192651367187494 -106.293056640625 45.182177734375 -105.64111328125 45.17138671875 C-58.84594081037949 44.502763346494845 -18.947803020398453 57.22076155974986 18.234375 86.14453125 C18.83040527343752 86.6077880859375 19.426435546874984 87.071044921875 20.04052734375 87.54833984375 C21.638206362746928 88.79998407949313 23.222029501658767 90.06925915978235 24.8046875 91.33984375 C27.163584591621202 93.00679769474564 28.623707940257418 93.80824566443039 31.44140625 94.203125 C32.10140624999997 92.883125 32.76140624999999 91.56312500000001 33.44140625 90.203125 C15.175530869551153 62.509701036093645 -11.44917945843224 43.66211605547379 -43.99609375 36.390625 C-63.522096555798555 32.64832457498787 -90.22767284405268 31.649177729368446 -107.55859375 43.203125 Z M32.44140625 44.203125 C31.781406249999975 45.52312499999999 31.121406250000007 46.843125 30.44140625 48.203125 C31.101406250000025 48.533125 31.101406250000025 48.533125 34.44140625 50.203125 C35.101406250000025 49.543125 35.76140624999999 48.88312500000001 36.44140625 48.203125 C36.06640625 46.078125 36.06640625 46.078125 35.44140625 44.203125 C34.45140624999999 44.203125 33.46140624999998 44.203125 32.44140625 44.203125 Z M-86.55859375 62.203125 C-86.88859375000004 63.853125000000006 -87.21859374999997 65.50312500000001 -87.55859375 67.203125 C-86.73359375000001 67.36812500000002 -86.73359375000001 67.36812500000002 -82.55859375 68.203125 C-82.22859374999996 66.553125 -81.89859375000003 64.90312499999999 -81.55859375 63.203125 C-83.20859374999998 62.873125000000016 -84.85859375000001 62.543125 -86.55859375 62.203125 Z M-127.55859375 64.203125 C-127.71328125 64.67750000000001 -127.71328125 64.67750000000001 -128.49609375 67.078125 C-129.55859375 70.203125 -129.55859375 70.203125 -130.55859375 72.203125 C-129.89859375 72.203125 -129.23859375 72.203125 -128.55859375 72.203125 C-128.55859375 72.863125 -128.55859375 73.523125 -128.55859375 74.203125 C-126.90859375 73.87312500000002 -125.25859374999999 73.543125 -123.55859375 73.203125 C-124.21859375 72.543125 -124.87859375 71.883125 -125.55859375 71.203125 C-125.95906819277684 68.88037323189431 -126.29830414685233 66.54573142832908 -126.55859375 64.203125 C-126.88859375000001 64.203125 -127.21859375 64.203125 -127.55859375 64.203125 Z M-59.55859375 75.203125 C-60.21859374999997 76.853125 -60.87859374999999 78.50312500000001 -61.55859375 80.203125 C-60.89859375000003 80.863125 -60.23859375000001 81.523125 -59.55859375 82.203125 C-56.93359375 81.828125 -56.93359375 81.828125 -54.55859375 81.203125 C-53.93359375 79.328125 -53.93359375 79.328125 -53.55859375 77.203125 C-54.218593750000025 76.543125 -54.87859374999999 75.883125 -55.55859375 75.203125 C-56.87859374999999 75.203125 -58.198593749999986 75.203125 -59.55859375 75.203125 Z M-195.55859375 95.203125 C-195.55859375 95.863125 -195.55859375 96.523125 -195.55859375 97.203125 C-193.8708886010325 97.05968532187799 -192.1834388912967 96.91323931249568 -190.49609375 96.765625 C-189.5563671875 96.6844140625 -188.616640625 96.603203125 -187.6484375 96.51953125 C-185.54453804649273 96.3040876902856 -183.44583655542635 96.032140357907 -181.35546875 95.7109375 C-146.13488397634723 91.00036546237155 -111.64768896304759 98.43367159281576 -80.55859375 115.203125 C-79.87877441406249 115.5684130859375 -79.19895507812498 115.93370117187499 -78.49853515625 116.31005859375 C-69.52905366551767 121.16281592038416 -60.96406789449361 126.41753890054338 -52.55859375 132.203125 C-50.81051434151311 133.37266742878796 -49.06068698166189 134.53960430028053 -47.30859375 135.703125 C-46.05859375 136.53645833333334 -44.80859375 137.36979166666666 -43.55859375 138.203125 C-42.89859375000003 137.87312500000002 -42.89859375000003 137.87312500000002 -39.55859375 136.203125 C-40.9195055243174 125.27694761190878 -53.28618516735855 115.81151272940207 -61.49609375 109.328125 C-98.92786708624112 80.61953494051608 -153.66113368755822 69.8555971867556 -195.55859375 95.203125 Z M-37.55859375 83.203125 C-38.218593750000025 84.523125 -38.87859374999999 85.84312499999999 -39.55859375 87.203125 C-38.898593749999975 87.863125 -38.23859375000001 88.523125 -37.55859375 89.203125 C-34.93359375 88.828125 -34.93359375 88.828125 -32.55859375 88.203125 C-32.888593749999984 86.553125 -33.218593750000025 84.90312499999999 -33.55859375 83.203125 C-34.87859374999999 83.203125 -36.198593749999986 83.203125 -37.55859375 83.203125 Z M-155.55859375 110.203125 C-157.99609375 110.953125 -157.99609375 110.953125 -160.55859375 112.203125 C-161.37109375 114.328125 -161.37109375 114.328125 -161.55859375 116.203125 C-160.40359375 116.698125 -160.40359375 116.698125 -154.55859375 119.203125 C-153.93359375 115.828125 -153.93359375 115.828125 -153.55859375 112.203125 C-154.21859375 111.543125 -154.87859375 110.883125 -155.55859375 110.203125 Z M-132.55859375 120.203125 C-134.55859375 123.203125 -134.55859375 123.203125 -134.24609375 125.828125 C-133.55859375 128.203125 -133.55859375 128.203125 -132.55859375 129.203125 C-129.62109375 129.390625 -129.62109375 129.390625 -126.55859375 129.203125 C-124.55859375 127.203125 -124.55859375 127.203125 -124.43359375 124.078125 C-124.47484374999999 123.12937499999998 -124.51609375000001 122.18062500000002 -124.55859375 121.203125 C-127.3472238201357 119.80880996493215 -129.47938242915197 119.94652405659599 -132.55859375 120.203125 Z M-111.55859375 141.203125 C-112.21859375 141.863125 -112.87859375 142.523125 -113.55859375 143.203125 C-113.18359375 145.328125 -113.18359375 145.328125 -112.55859375 147.203125 C-110.90859375 147.533125 -109.25859374999999 147.863125 -107.55859375 148.203125 C-106.89859375 146.883125 -106.23859375 145.563125 -105.55859375 144.203125 C-106.21859375 143.213125 -106.87859375 142.223125 -107.55859375 141.203125 C-108.87859375 141.203125 -110.19859374999999 141.203125 -111.55859375 141.203125 Z M-238.55859375 153.203125 C-238.55859375 154.523125 -238.55859375 155.843125 -238.55859375 157.203125 C-238.14351562500002 157.16703125 -238.14351562500002 157.16703125 -236.04296875 156.984375 C-198.79192601490192 154.17885713710558 -168.0309389601808 158.19286811149385 -134.57958984375 175.429443359375 C-134.08370361328124 175.68149536132813 -134.08370361328124 175.68149536132813 -131.57421875 176.95703125 C-130.700556640625 177.41408447265624 -129.82689453125 177.87113769531248 -128.9267578125 178.342041015625 C-126.55859375 179.203125 -126.55859375 179.203125 -124.3076171875 179.031005859375 C-123.730439453125 178.75780517578124 -123.15326171875 178.4846044921875 -122.55859375 178.203125 C-122.22859375000002 177.213125 -121.89859375 176.223125 -121.55859375 175.203125 C-134.74285205862867 156.3056880909656 -162.11356127773138 148.0499499541095 -183.48046875 143.59375 C-201.59799774198777 141.29457119391017 -223.01953535534895 142.8437527368993 -238.55859375 153.203125 Z M-180.55859375 175.203125 C-181.21859375 175.863125 -181.87859375 176.523125 -182.55859375 177.203125 C-182.18359375 179.328125 -182.18359375 179.328125 -181.55859375 181.203125 C-179.90859375 180.87312499999996 -178.25859375 180.54312500000003 -176.55859375 180.203125 C-176.22859375 179.213125 -175.89859375 178.223125 -175.55859375 177.203125 C-176.21859375 176.543125 -176.87859375 175.883125 -177.55859375 175.203125 C-178.54859375 175.203125 -179.53859375 175.203125 -180.55859375 175.203125 Z " fill="#000000" transform="translate(352.55859375,75.796875)"/>
<path d="M0 0 C2.2963941442629334 0.918557657705179 3.709154944178067 1.5574551848465035 5.0859375 3.65234375 C10.342191078768565 17.1523796510252 6.278263945619983 36.21939649962633 1 49 C-13.454608233653857 76.79480222707139 -40.325279758266106 91.92258072520139 -66 108 C-67.94145280738019 109.21997799582641 -69.88285879330596 110.4400305056073 -71.82421875 111.66015625 C-102.56394155557922 130.94917320220486 -133.5454912345519 149.84345286374094 -164.773193359375 168.330810546875 C-171.60881742767089 172.37952118027812 -178.42660129779756 176.45227684802262 -185.1875 180.625 C-197.65627894497135 188.30870130391907 -210.34100571308005 195.6357443001782 -223 203 C-223.9850048828125 203.574599609375 -224.970009765625 204.14919921875003 -225.98486328125 204.7412109375 C-249.4443443238799 218.40603438769244 -273.470132669303 232.27823434828122 -300 239 C-301.1253515625 239.29777343750004 -302.250703125 239.59554687499997 -303.41015625 239.90234375 C-324.5554270771464 244.5702214402246 -349.23472655150056 243.92592731532892 -370 238 C-370.6601611328125 237.82339843750003 -371.320322265625 237.646796875 -372.00048828125 237.46484375 C-396.9723695112432 230.68003073656791 -419.0503731491998 214.76928172898738 -432.2421875 192.41796875 C-439.9394868681431 177.4509977563884 -443.0603280782825 159.72741183002086 -438.5 143.25 C-438.0275524206021 141.8239082325581 -437.5401606644532 140.401845533938 -437 139 C-435.68 139 -434.36 139 -433 139 C-430.9953444562966 142.9826416123243 -429.0052906269359 146.96625497219298 -427.10546875 151 C-422.062346488918 161.60201838977463 -417.51500259539216 170.56922726220785 -406 175 C-403.2475218773162 175.91749270756122 -401.59876745412123 176.12850040773446 -398.76171875 176.1328125 C-398.35147460937503 176.13345703125003 -398.35147460937503 176.13345703125003 -396.275390625 176.13671875 C-395.42138671875 176.13285156250004 -394.5673828125 176.12898437499996 -393.6875 176.125 C-392.84509765625 176.12886718749996 -392.0026953125 176.13273437500004 -391.134765625 176.13671875 C-386.6191091349453 176.1296575201485 -382.45634953899827 175.76994520830863 -378 175 C-360.37469342800364 173.62916569228662 -347.1502610688458 177.67898273898084 -331.4375 185.44921875 C-318.8612467266988 191.12282391988703 -304.9946207527911 191.19827864089314 -291.97265625 187.03125 C-278.15666388889343 181.76801481481652 -265.7979480516998 171.18354548523916 -256.4375 159.8125 C-248.85479455117311 150.8494476854886 -238.52451548359412 145.00211815862383 -227 143 C-225.27885495252337 142.9139677569991 -223.55529876389565 142.8689089834794 -221.83203125 142.859375 C-220.85556640625 142.8400390625 -219.8791015625 142.82070312500002 -218.873046875 142.80078125 C-216.85240944735665 142.76725440053048 -214.83146071491967 142.7487234361938 -212.810546875 142.74609375 C-204.83545872587058 142.54737024202166 -198.01251113697504 140.7288689708281 -192.041748046875 135.18017578125 C-190.22319326870388 133.20470111885686 -188.6118892856178 131.1480100108123 -187 129 C-186.2562109375 128.01902343749998 -185.51242187499997 127.03804687500002 -184.74609375 126.02734375 C-182.01631650598404 122.39813413563274 -179.30306708483067 118.75678125085813 -176.59765625 115.109375 C-168.601526890211 104.87863709858647 -155.6412277510974 98.78404423906613 -143 97 C-137.9394629330625 96.68371643331642 -132.87408461979777 96.52225090211255 -127.80419921875 96.4658203125 C-116.31944059571225 96.23773296885508 -106.53791058372639 93.50898177583383 -98.234375 85.2421875 C-94.633875641342 80.95187284365517 -92.0257422268786 76.26688255441957 -89.408203125 71.34521484375 C-83.7804214575969 60.785629074357075 -78.41129990593066 52.59238002610766 -66.48828125 48.73046875 C-60.9762715490171 47.576218118327205 -55.404282131963555 47.125042622790914 -49.7880859375 46.77001953125 C-38.173064147358616 45.9665056503797 -29.320261163663133 42.94929189559167 -21.3515625 34.1875 C-14.3653719292775 25.31614689432061 -9.379217009919273 14.998996754642178 -4.578125 4.8359375 C-2.999999999999943 1.9999999999999716 -2.999999999999943 1.9999999999999716 0 0 Z " fill="#000000" transform="translate(473,192)"/>
</svg>
