<svg xmlns="http://www.w3.org/2000/svg" width="512" height="512"><path d="m189.875 79.75 2.38-.002c11.523.016 22.522.418 33.745 3.252l2.077.504C260.22 91.447 287.451 111.723 313 132q1.663 1.298 3.328 2.594c8.302 6.47 16.477 13.09 24.631 19.744q3.053 2.484 6.12 4.955c12.438 10.041 24.608 20.32 36.311 31.215a932 932 0 0 0 5.27 4.836c8.213 7.53 15.954 15.316 23.34 23.656l1.47 1.638c18.002 20.095 40.312 46.463 39.839 74.698-.42 4.972-1.528 8.539-4.309 12.664l-1.262 1.887c-7.601 9.197-21.772 11.307-32.843 13.472l-3.258.643c-12.622 2.446-25.311 4.487-38.011 6.483q-5.074.8-10.146 1.616c-13.27 2.13-26.543 4.13-39.894 5.68l-3.162.368c-26.49 2.938-51.083-.247-72.424-17.149-4.182-3.626-8.023-7.593-11.875-11.562q-1.483-1.5-2.969-2.999c-4.714-4.774-9.27-9.643-13.644-14.73-6.456-7.301-14.26-13.426-21.946-19.372C189.898 266.403 182.453 260.2 175 254l-1.81-1.501c-12.625-10.484-24.447-21.667-36.065-33.249l-1.51-1.502c-5.209-5.188-10.315-10.418-15.103-16-7.704-8.906-16.438-16.236-25.742-23.376C75.324 163.298 75.324 163.298 72 153c-1.133-11.524.354-20.439 7.438-29.75q1.77-2.134 3.562-4.25l2.313-3.062C110.15 88.788 154.8 79.777 189.875 79.75M163 100c.75 4.75.75 4.75 3 7 6.839.552 6.839.552 10.5-1.187 1.5-1.813 1.5-1.813 1.875-4.376C178 99 178 99 176 97c-5.412-.444-8.52-.36-13 3m55 7c-.937 1.813-.937 1.813-1 4 1.625 2.25 1.625 2.25 4 4 2.625.375 2.625.375 5 0l2-2c-.375-2.625-.375-2.625-1-5-5.625-2.125-5.625-2.125-9-1m-31 10c.234 4.059.453 6.357 3.125 9.5 3.846 2.007 5.76 1.772 9.875.5 2.99-2.683 3.89-4.202 4.438-8.187L204 116c-3.206-2.137-4.225-2.296-7.937-2.312l-2.59-.051c-2.915.428-4.286 1.44-6.473 3.363m-41.375 6.75c-1.626 2.251-2.453 3.491-2.625 6.25.563 2.125.563 2.125 2 4 3.652 1.909 5.282 2.22 9.25 1 3.357-2.442 4.086-3.933 4.75-8-.75-2.312-.75-2.312-2-4-3.955-1.977-7.832-1.86-11.375.75M196 149l-1.754 1.602C193 152 193 152 193.062 153.937c1.248 2.744 2.523 4.252 4.938 6.063 4.278-.375 7.587-2.172 11.34-4.168l1.828-.961a1266 1266 0 0 0 5.77-3.059c27.312-14.532 27.312-14.532 40.312-15.375l3.828-.253L264 136c-.587-3.015-.89-3.893-3.187-6.125-19.231-12.82-50.338 5.617-64.813 19.125m-30.875-7.875C164 143 164 143 164.313 145.688L165 148c2.313.688 2.313.688 5 1 1.875-1.125 1.875-1.125 3-3-.312-2.687-.312-2.687-1-5-4.458-1.325-4.458-1.325-6.875.125m110.813 18-2.787.68C260.67 162.968 249.564 167.49 239 175l-2.043 1.309C235.25 177.5 235.25 177.5 233 180c-.25 3.625-.25 3.625 1 7 2.625 2.063 2.625 2.063 6 3 5.857-1.2 10.567-3.789 15.75-6.687 6.636-3.601 13.282-6.72 20.375-9.313l2.292-.843c7.25-2.56 14.461-4.252 22.146-4.782l3.128-.227L306 168c-.573-4.557-.573-4.557-2.488-6.547l-1.825-1.203-1.8-1.234c-7.481-4.027-16.153-1.809-23.95.109M266 206c.245 3.342.605 4.605 3 7 5.294.7 8.918-1.154 13.438-3.625 17.96-9.363 36.188-16.073 56.562-16.375-2.061-4.499-4.782-6.939-9.277-9.09-18.304-6.119-51.899 7.638-63.723 22.09m70.375 2.625C335 211 335 211 334.938 214.063 336 217 336 217 338.188 218.875c3.993 1.597 7.081 1.78 11.125.25C351 218 351 218 352 216c.56-5.269.56-5.269-1.437-7.875-4.797-2.106-9.69-2.284-14.188.5m32.875 6.625c-1.25 1.75-1.25 1.75-1 3.875C369 221 369 221 370 222c2.438.188 2.438.188 5 0l2-2c-.367-2.935-.864-3.864-3-6-3 0-3 0-4.75 1.25M291 229c-2 3-2 3-1.812 6 1.2 4.433 1.2 4.433 3.812 6 4.149.538 6.274.442 9.875-1.75 3.033-3.211 3.033-3.211 3.125-6.25-.625-2.625-.625-2.625-2-5-5.206-2.803-8.228-2.304-13 1m38 7c-1.123 3.634-1.47 5.81-.062 9.375 3.07 2.42 6.258 2.826 10.062 2.625 3.62-1.574 4.793-2.689 7-6-.203-2.702-.658-4.468-2.125-6.75-5.029-3.353-10.207-2.807-14.875.75m44 2c-1.564 3.129-1.356 5.556-1 9 2.063 2.5 2.063 2.5 5 4 3.493-.06 5.904-.363 8.938-2.125 1.733-3.06 1.483-5.443 1.062-8.875-1.625-2.437-1.625-2.437-4-4-3.909-.489-6.698-.202-10 2m-64.875 19.125C307 259 307 259 307.25 262.125 308 265 308 265 309 266c3.438.25 3.438.25 7 0 2-3 2-3 1.75-5.562C317 258 317 258 315 256c-2.834-.363-4.405-.357-6.875 1.125M350 260c.556 4.556.556 4.556 2 6 2.438.188 2.438.188 5 0l2-2c-.556-4.556-.556-4.556-2-6-4.643-.357-4.643-.357-7 2"/><path d="M72 166c2.74 1.37 2.932 2.897 4.125 5.688C78.805 177.203 81.953 179.72 87 183c10.533 7.433 15.953 15.106 20.465 27.07 1.5 3.935 3.232 7.72 5.097 11.493l1.63 3.316c7.895 13.625 22.864 19.322 36.996 24.621 10.106 3.823 20.65 8.96 26.106 18.844 1.517 3.415 2.88 6.879 4.233 10.361 2.398 5.802 4.9 10.112 10.473 13.295 2.609.873 5.146 1.214 7.875 1.5 8.717 1.295 14.491 4.172 20.313 10.813 2.897 4.098 4.213 8.59 5.75 13.312 3.46 10.358 3.46 10.358 7.69 13.27 3.995 1.862 8.16 3.281 12.321 4.717 5.46 1.955 9.387 4.61 13.774 8.435 12.715 10.905 28.685 13.7 44.96 12.734 12.957-1.45 25.4-5.32 37.86-9.004 22.347-6.601 42.98-10.84 66.38-11.207 11.366-.309 22.043-2.226 31.077-9.57 3.117-3.706 5.468-7.403 7-12l3 1c3.094 7.041 3.439 15.66 1.02 22.957A62 62 0 0 1 447 346l-1.812 2.813c-10.04 10.039-22.945 10.595-36.438 10.687-13.638.094-26.563 1.253-39.25 6.625-7.157 2.97-13.626 3.909-21.313 4.013-14.332.285-26.81 4.259-39.535 10.784-12.722 5.171-29.214 4.965-41.972.258-6.594-2.903-11.045-6.435-16.055-11.618-6.667-6.885-13.232-10.779-22.25-13.937-7.11-2.638-11.84-6.144-15.605-12.8-1.683-3.837-2.77-7.74-3.72-11.81l-.5-2.13q-.477-2.082-.893-4.176c-1.15-5.227-3-7.967-6.657-11.709-3.66-1.788-6.999-2.093-11-2.375-4.685-.43-7.46-1.338-11-4.625-2.993-4.418-4.558-9.523-6.375-14.5-2.138-5.638-4.527-10.077-8.625-14.5l-1.516-1.64c-7.444-7.156-17.145-9.42-26.984-11.298-10.993-2.124-21.655-5.63-28.5-15.062-3.618-5.958-6.098-11.994-8-18.687-2.093-7.213-5.032-12.75-10.75-17.688-2.776-1.388-5.099-2.194-8.062-3-6.77-1.9-12.99-5.05-16.688-11.25-2.634-5.926-3.875-11.59-1.594-17.871C64.56 174.918 67.787 170.507 72 166"/><path d="m66 210 2.125 1.39c8.673 5.61 8.673 5.61 13.25 7.548 7.218 3.492 9.71 12.346 12.438 19.375 4.77 11.744 11.231 23.165 22.949 29.082 6.33 2.629 12.677 4.185 19.363 5.543 10.116 2.087 18.744 5.441 25.39 13.734 2.85 4.47 4.58 9.403 6.485 14.328 3.312 7.86 6.794 13.686 14.813 17.25 3.187.75 3.187.75 5.609 1.129l2.64.433 2.473.333c3.626 1.258 5.106 2.81 7.465 5.855 1.31 3.364 2.158 6.806 3 10.313 2.594 10.668 6.414 19.585 16 25.687a220 220 0 0 0 7.125 2.563c6.401 2.222 10.351 5.366 14.938 10.312 15.448 16.563 36.48 21.495 58.53 22.379 17.454.473 29.11-3.031 43.741-12.22 15.15-9.4 31.098-11.656 48.428-13.585 35.707-4 35.707-4 47.484-14.277C442 356 442 356 446 356c3.945 10.848 2.58 22.277-2.219 32.629-9.469 17.228-28.029 24.04-45.885 29.283C379.487 423.06 360.903 426.367 342 429l-2.776.402C303.549 434.432 265.93 433.011 236 411c-4.51-3.472-8.77-7.195-13-11-.895-.797-1.79-1.593-2.71-2.414a749 749 0 0 1-4.923-4.445 307 307 0 0 0-4.984-4.407l-2.508-2.171-2.258-1.934C204 383 204 383 204 381l-3-1c-1.543-1.566-1.543-1.566-3.187-3.562a111 111 0 0 0-7.688-8.25c-3.944-3.883-7.374-8.083-10.836-12.395-2.21-2.697-4.5-5.282-6.851-7.856a186 186 0 0 1-8.313-9.75c-7.84-9.873-15.9-19.14-24.812-28.062l-2.412-2.414c-4.239-4.199-8.56-8.244-13.08-12.138-2.618-2.262-5.154-4.603-7.696-6.948a608 608 0 0 0-10.812-9.75c-4.82-4.326-9.414-8.867-14-13.437l-2.161-2.147c-6.684-6.704-12.933-13.434-17.964-21.478l-1.155-1.788C65.06 232.195 63.05 224.267 64 215a78 78 0 0 1 2-5"/></svg>