<svg xmlns="http://www.w3.org/2000/svg" width="512" height="512"><path d="m254.938 20.813 3.84-.043C262 21 262 21 264 23c.6 2.862 1.09 5.673 1.516 8.563l.413 2.675c.449 2.92.885 5.84 1.321 8.762l.922 6.058a4660 4660 0 0 1 3.287 22.054 6332 6332 0 0 1 2.978 20.45l.398 2.752q.554 3.844 1.099 7.69l.33 2.289c.461 3.288.736 6.376.736 9.707l1.625-.105c5.71-.198 11.086.403 16.688 1.418l2.064.356c4.082.784 7.256 1.874 10.623 4.331 1.577 3.155 1.142 6.537 1.133 10l.003 2.398q0 2.513-.006 5.024-.005 3.852.007 7.703 0 2.438-.004 4.875l.006 2.336c-.024 5.434-.024 5.434-1.139 7.664-2.062 1.125-2.062 1.125-4 2l1.51.807c18.743 10.07 18.743 10.07 25.49 16.193l2.285 2.043c10.188 9.61 18.176 22.52 18.914 36.812q.06 2.382.104 4.763l.06 2.628q.094 4.316.175 8.63l.127 6.106c.413 20.65.586 41.302.704 61.956l.056 9.283q.1 16.273.188 32.546c.054 10.043.12 20.086.189 30.129q.09 13.076.158 26.15.04 7.752.097 15.503.053 7.244.081 14.488.013 2.64.036 5.282c.25 28.33.25 28.33-8.893 38.615-20.197 19.245-58.861 17.587-84.587 17.402-3.523-.024-7.045-.02-10.567-.014-17.468-.02-34.95-.7-52.127-4.135l-2.62-.516c-11.128-2.309-23.792-5.722-31.192-14.925-5.539-8.507-6.504-17.501-6.399-27.472l.005-2.833c.008-3.133.03-6.265.054-9.398l.025-6.842q.033-8.523.09-17.044.044-7.363.08-14.725c.094-19.592.213-39.184.346-58.776q.057-8.593.108-17.187c.116-19.21.253-38.42.446-57.63q.063-6.399.115-12.798.065-7.375.188-14.75.038-2.496.057-4.99c.148-18.624 5.486-32.34 18.267-45.961C184.04 175.11 198.314 163 208 163v-2l-5-1q-.221-8.22-.33-16.443-.044-2.797-.123-5.593a465 465 0 0 1-.133-8.042l-.094-2.523c-.001-2.286.059-4.198.68-6.399 8.66-7.497 22.092-7.173 33-7l.14-2.639c.607-10.279 1.77-20.428 3.11-30.634l.661-5.108q.687-5.298 1.382-10.594.89-6.8 1.765-13.601.678-5.249 1.364-10.495.327-2.511.65-5.022.452-3.481.912-6.963l.268-2.1c.887-6.623 2.135-5.998 8.685-6.032M261 33c-.115 10.197.2 20.287.875 30.465l.269 4.24q.35 5.497.71 10.993.366 5.642.724 11.284.703 11.01 1.422 22.018c4.875 1 4.875 1 6 1a414 414 0 0 0-2.848-31.562l-.533-4.237q-.693-5.484-1.396-10.968-.719-5.632-1.428-11.264Q263.405 43.983 262 33zm6 88v1c23.227 3.848 23.227 3.848 29 0-2.48-2.48-8.903-1.487-12.25-1.625l-3.184-.156-3.082-.133-2.82-.124c-2.68.038-5.06.428-7.664 1.038m16 10c.138 3.813.287 7.625.438 11.438l.119 3.298.127 3.135.11 2.904C284 154 284 154 285 155h9v-25c-3.787 0-7.265.425-11 1m-67 31-1 6c4.29.818 8.34 1.126 12.705 1.13l3.985.009 4.27-.006q2.213 0 4.424.003 4.627.002 9.255-.006 5.904-.006 11.808.004 4.565.005 9.131 0l4.351.002c7.088.01 14.056-.005 21.071-1.136l-2-5c-12.708-2.342-25.342-2.274-38.226-2.206-3.596.019-7.192.02-10.788.02q-3.471.007-6.943.018l-3.214.003c-6.333.04-12.541.406-18.829 1.165m76 23c-.182.955-.364 1.91-.55 2.895-1.518 7.804-3.211 15.469-5.45 23.105 6.805 4.794 11.79 5.65 20 5 5.88-1.125 11.476-2.686 17-5-1.6-4.16-4.647-6.767-7.875-9.687l-1.738-1.586C298.077 185.958 298.077 185.958 292 185m30.813 36.313c-4.791 1.871-9.756 2.767-14.796 3.684-4.923.909-4.923.909-6.017 2.003a151 151 0 0 0-.13 6.801l-.004 2.247c-.002 2.57.005 5.14.013 7.71l.004 2.779c.05 30.872.535 61.743.951 92.612q.138 10.312.269 20.626.146 11.402.298 22.805.063 4.743.123 9.487c.288 22.651.81 45.29 1.476 67.933q2.156.025 4.312.042l2.426.023c2.847-.082 5.162-.69 7.825-1.69l2.566-.914c10.003-5.09 10.003-5.09 11.588-9.42.246-2.357.233-4.592.132-6.96l-.018-2.735c-.03-3.07-.12-6.134-.21-9.201q-.054-3.36-.099-6.719c-.087-5.697-.216-11.392-.363-17.087a3064 3064 0 0 1-.351-15.375c-.437-21.108-.966-42.213-1.533-63.318q-.32-12.036-.628-24.07-.301-11.698-.61-23.395l-.19-7.338c-.45-17.29-.96-34.57-1.847-51.843-2 0-2 0-5.187 1.313"/></svg>