<?xml version="1.0" encoding="UTF-8"?>
<!-- Generator: visioncortex VTracer 0.6.12 -->
<svg version="1.1" xmlns="http://www.w3.org/2000/svg" width="512" height="512">
  <metadata>
                <![CDATA[
            {
  "prompt": {
    "4": {
      "inputs": {
        "vae_name": "ae.safetensors"
      },
      "class_type": "VAELoader",
      "_meta": {
        "title": "Load VAE"
      }
    },
    "5": {
      "inputs": {
        "clip_name": "qwen3_4b_fp8_scaled.safetensors",
        "type": "lumina2",
        "device": "default"
      },
      "class_type": "CLIPLoader",
      "_meta": {
        "title": "Load CLIP"
      }
    },
    "6": {
      "inputs": {
        "ckpt_name": "zEpicrealism_turboV1Fp8.safetensors"
      },
      "class_type": "CheckpointLoaderSimple",
      "_meta": {
        "title": "Load Checkpoint"
      }
    },
    "7": {
      "inputs": {
        "shift": 6.0,
        "model": [
          "6",
          0
        ]
      },
      "class_type": "ModelSamplingAuraFlow",
      "_meta": {
        "title": "ModelSamplingAuraFlow"
      }
    },
    "8": {
      "inputs": {
        "PowerLoraLoaderHeaderWidget": {
          "type": "PowerLoraLoaderHeaderWidget"
        },
        "lora_1": {
          "on": true,
          "lora": "MinimalistVectorArtZ.safetensors",
          "strength": 0.4
        },
        "lora_2": {
          "on": false,
          "lora": "None",
          "strength": 0.75
        },
        "\u2795 Add Lora": "",
        "model": [
          "7",
          0
        ],
        "clip": [
          "5",
          0
        ]
      },
      "class_type": "Power Lora Loader (rgthree)",
      "_meta": {
        "title": "Power Lora Loader (rgthree)"
      }
    },
    "9": {
      "inputs": {
        "text": "A bold, heavy solid black icon of a professional chef's squeeze bottle. High-contrast linocut print style. The bottle and its long, thin conical nozzle form a single, substantial contiguous dark mass. A thick, bold white negative space \"swoosh\" runs vertically down one side to represent a professional highlight. A single, thick, heavy black \"drip\" is suspended from the very tip of the nozzle. No fine lines, no labels, heavy visual weight. Isolated on white. Optimized for a clean, single-boolean SVG silhouette.",
        "clip": [
          "8",
          1
        ]
      },
      "class_type": "CLIPTextEncode",
      "_meta": {
        "title": "Positive Prompt"
      }
    },
    "10": {
      "inputs": {
        "text": "blurry, bad, shadow",
        "clip": [
          "8",
          1
        ]
      },
      "class_type": "CLIPTextEncode",
      "_meta": {
        "title": "Negative Prompt"
      }
    },
    "11": {
      "inputs": {
        "seed": 221912626966043,
        "steps": 9,
        "cfg": 1.0,
        "sampler_name": "euler",
        "scheduler": "beta",
        "denoise": 1.0,
        "preview_method": "auto",
        "vae_decode": "true",
        "model": [
          "8",
          0
        ],
        "positive": [
          "9",
          0
        ],
        "negative": [
          "10",
          0
        ],
        "latent_image": [
          "27",
          0
        ],
        "optional_vae": [
          "4",
          0
        ]
      },
      "class_type": "KSampler (Efficient)",
      "_meta": {
        "title": "KSampler (Efficient)"
      }
    },
    "13": {
      "inputs": {
        "filename_prefix": [
          "35",
          0
        ],
        "images": [
          "11",
          5
        ]
      },
      "class_type": "SaveImage",
      "_meta": {
        "title": "Save Image"
      }
    },
    "27": {
      "inputs": {
        "dimensions": "512 x 512 (1:1)",
        "invert": false,
        "batch_size": 1
      },
      "class_type": "EmptyLatentImagePresets",
      "_meta": {
        "title": "Empty Latent Image Presets"
      }
    },
    "32": {
      "inputs": {
        "filename_prefix": [
          "35",
          0
        ],
        "svg": [
          "34",
          0
        ]
      },
      "class_type": "SaveSVGNode",
      "_meta": {
        "title": "SaveSVGNode"
      }
    },
    "33": {
      "inputs": {
        "mode": "spline",
        "filter_speckle": 4,
        "corner_threshold": 60,
        "length_threshold": 4.0,
        "splice_threshold": 45,
        "image": [
          "11",
          5
        ]
      },
      "class_type": "TS_ImageToSVGStringBW_Vtracer",
      "_meta": {
        "title": "Image to SVG String BW_Vtracer"
      }
    },
    "34": {
      "inputs": {
        "SVG_String": [
          "33",
          0
        ]
      },
      "class_type": "TS_SVGStringToSVGBytesIO",
      "_meta": {
        "title": "SVG String to SVG BytesIO"
      }
    },
    "35": {
      "inputs": {
        "value": "Icons/sauce-"
      },
      "class_type": "PrimitiveString",
      "_meta": {
        "title": "String"
      }
    }
  },
  "workflow": {
    "id": "b863a6d5-b1c1-49ed-82de-40ff658289d1",
    "revision": 0,
    "last_node_id": 35,
    "last_link_id": 44,
    "nodes": [
      {
        "id": 4,
        "type": "VAELoader",
        "pos": [
          -6219.535543743481,
          -970.8934870343326
        ],
        "size": [
          373.8333435058594,
          123.80000305175781
        ],
        "flags": {},
        "order": 0,
        "mode": 0,
        "inputs": [],
        "outputs": [
          {
            "name": "VAE",
            "type": "VAE",
            "links": [
              13
            ]
          }
        ],
        "properties": {
          "cnr_id": "comfy-core",
          "ver": "0.9.2",
          "Node name for S&R": "VAELoader"
        },
        "widgets_values": [
          "ae.safetensors"
        ]
      },
      {
        "id": 5,
        "type": "CLIPLoader",
        "pos": [
          -6634.5950750000675,
          -1114.7061549982152
        ],
        "size": [
          366.1666564941406,
          406.98333740234375
        ],
        "flags": {},
        "order": 1,
        "mode": 0,
        "inputs": [],
        "outputs": [
          {
            "name": "CLIP",
            "type": "CLIP",
            "links": [
              6
            ]
          }
        ],
        "properties": {
          "cnr_id": "comfy-core",
          "ver": "0.9.2",
          "Node name for S&R": "CLIPLoader"
        },
        "widgets_values": [
          "qwen3_4b_fp8_scaled.safetensors",
          "lumina2",
          "default"
        ]
      },
      {
        "id": 6,
        "type": "CheckpointLoaderSimple",
        "pos": [
          -7142.724710471413,
          -1274.3013669313325
        ],
        "size": [
          456,
          154.6666717529297
        ],
        "flags": {},
        "order": 2,
        "mode": 0,
        "inputs": [],
        "outputs": [
          {
            "name": "MODEL",
            "type": "MODEL",
            "links": [
              4
            ]
          },
          {
            "name": "CLIP",
            "type": "CLIP",
            "links": []
          },
          {
            "name": "VAE",
            "type": "VAE",
            "links": []
          }
        ],
        "properties": {
          "cnr_id": "comfy-core",
          "ver": "0.9.2",
          "Node name for S&R": "CheckpointLoaderSimple"
        },
        "widgets_values": [
          "zEpicrealism_turboV1Fp8.safetensors"
        ],
        "color": "#453f4f",
        "bgcolor": "#312b3b"
      },
      {
        "id": 7,
        "type": "ModelSamplingAuraFlow",
        "pos": [
          -6599.9781895109445,
          -1269.9313776848057
        ],
        "size": [
          270,
          104
        ],
        "flags": {},
        "order": 5,
        "mode": 0,
        "inputs": [
          {
            "name": "model",
            "type": "MODEL",
            "link": 4
          }
        ],
        "outputs": [
          {
            "name": "MODEL",
            "type": "MODEL",
            "links": [
              5
            ]
          }
        ],
        "properties": {
          "cnr_id": "comfy-core",
          "ver": "0.10.0",
          "Node name for S&R": "ModelSamplingAuraFlow"
        },
        "widgets_values": [
          6
        ]
      },
      {
        "id": 8,
        "type": "Power Lora Loader (rgthree)",
        "pos": [
          -6200.015026223777,
          -1269.9313776848057
        ],
        "size": [
          340.48333740234375,
          232
        ],
        "flags": {},
        "order": 6,
        "mode": 0,
        "inputs": [
          {
            "dir": 3,
            "name": "model",
            "type": "MODEL",
            "link": 5
          },
          {
            "dir": 3,
            "name": "clip",
            "type": "CLIP",
            "link": 6
          }
        ],
        "outputs": [
          {
            "dir": 4,
            "name": "MODEL",
            "shape": 3,
            "type": "MODEL",
            "links": [
              33
            ]
          },
          {
            "dir": 4,
            "name": "CLIP",
            "shape": 3,
            "type": "CLIP",
            "links": [
              7,
              8
            ]
          }
        ],
        "properties": {
          "cnr_id": "rgthree-comfy",
          "ver": "8ff50e4521881eca1fe26aec9615fc9362474931",
          "Show Strengths": "Single Strength"
        },
        "widgets_values": [
          {},
          {
            "type": "PowerLoraLoaderHeaderWidget"
          },
          {
            "on": true,
            "lora": "MinimalistVectorArtZ.safetensors",
            "strength": 0.4,
            "strengthTwo": null
          },
          {
            "on": false,
            "lora": "None",
            "strength": 0.75,
            "strengthTwo": null
          },
          {},
          ""
        ]
      },
      {
        "id": 9,
        "type": "CLIPTextEncode",
        "pos": [
          -5665.317947981528,
          -968.8656393627539
        ],
        "size": [
          495.1833190917969,
          389.6333312988281
        ],
        "flags": {},
        "order": 7,
        "mode": 0,
        "inputs": [
          {
            "name": "clip",
            "type": "CLIP",
            "link": 7
          }
        ],
        "outputs": [
          {
            "name": "CONDITIONING",
            "type": "CONDITIONING",
            "links": [
              9
            ]
          }
        ],
        "title": "Positive Prompt",
        "properties": {
          "cnr_id": "comfy-core",
          "ver": "0.9.2",
          "Node name for S&R": "CLIPTextEncode"
        },
        "widgets_values": [
          "A bold, heavy solid black icon of a professional chef's squeeze bottle. High-contrast linocut print style. The bottle and its long, thin conical nozzle form a single, substantial contiguous dark mass. A thick, bold white negative space \"swoosh\" runs vertically down one side to represent a professional highlight. A single, thick, heavy black \"drip\" is suspended from the very tip of the nozzle. No fine lines, no labels, heavy visual weight. Isolated on white. Optimized for a clean, single-boolean SVG silhouette."
        ],
        "color": "#232",
        "bgcolor": "#353"
      },
      {
        "id": 10,
        "type": "CLIPTextEncode",
        "pos": [
          -5666.540362707875,
          -512.285028621371
        ],
        "size": [
          470,
          142
        ],
        "flags": {},
        "order": 8,
        "mode": 0,
        "inputs": [
          {
            "name": "clip",
            "type": "CLIP",
            "link": 8
          }
        ],
        "outputs": [
          {
            "name": "CONDITIONING",
            "type": "CONDITIONING",
            "links": [
              10
            ]
          }
        ],
        "title": "Negative Prompt",
        "properties": {
          "cnr_id": "comfy-core",
          "ver": "0.9.2",
          "Node name for S&R": "CLIPTextEncode"
        },
        "widgets_values": [
          "blurry, bad, shadow"
        ],
        "color": "#322",
        "bgcolor": "#533"
      },
      {
        "id": 11,
        "type": "KSampler (Efficient)",
        "pos": [
          -4910.9017263054975,
          -1342.4877841038808
        ],
        "size": [
          400.1000061035156,
          966.6666870117188
        ],
        "flags": {},
        "order": 9,
        "mode": 0,
        "inputs": [
          {
            "name": "model",
            "type": "MODEL",
            "link": 33
          },
          {
            "name": "positive",
            "type": "CONDITIONING",
            "link": 9
          },
          {
            "name": "negative",
            "type": "CONDITIONING",
            "link": 10
          },
          {
            "name": "latent_image",
            "type": "LATENT",
            "link": 37
          },
          {
            "name": "optional_vae",
            "shape": 7,
            "type": "VAE",
            "link": 13
          },
          {
            "name": "script",
            "shape": 7,
            "type": "SCRIPT",
            "link": null
          }
        ],
        "outputs": [
          {
            "name": "MODEL",
            "type": "MODEL",
            "links": null
          },
          {
            "name": "CONDITIONING+",
            "type": "CONDITIONING",
            "links": null
          },
          {
            "name": "CONDITIONING-",
            "type": "CONDITIONING",
            "links": null
          },
          {
            "name": "LATENT",
            "type": "LATENT",
            "links": null
          },
          {
            "name": "VAE",
            "type": "VAE",
            "links": null
          },
          {
            "name": "IMAGE",
            "type": "IMAGE",
            "links": [
              14,
              39
            ]
          }
        ],
        "properties": {
          "cnr_id": "efficiency-nodes-comfyui",
          "ver": "1.0.8",
          "Node name for S&R": "KSampler (Efficient)"
        },
        "widgets_values": [
          -1,
          null,
          9,
          1,
          "euler",
          "beta",
          1,
          "auto",
          "true"
        ],
        "color": "#223333",
        "bgcolor": "#335555",
        "shape": "box"
      },
      {
        "id": 13,
        "type": "SaveImage",
        "pos": [
          -4410.464751892896,
          -1351.9862052389306
        ],
        "size": [
          461.7833251953125,
          344
        ],
        "flags": {},
        "order": 10,
        "mode": 0,
        "inputs": [
          {
            "name": "images",
            "type": "IMAGE",
            "link": 14
          },
          {
            "name": "filename_prefix",
            "type": "STRING",
            "widget": {
              "name": "filename_prefix"
            },
            "link": 43
          }
        ],
        "outputs": [],
        "properties": {
          "cnr_id": "comfy-core",
          "ver": "0.17.2"
        },
        "widgets_values": [
          "Icons/apps-"
        ]
      },
      {
        "id": 27,
        "type": "EmptyLatentImagePresets",
        "pos": [
          -5662.144089872933,
          -1235.0977881573456
        ],
        "size": [
          285.0833435058594,
          214.6666717529297
        ],
        "flags": {},
        "order": 3,
        "mode": 0,
        "inputs": [],
        "outputs": [
          {
            "name": "Latent",
            "type": "LATENT",
            "links": [
              37
            ]
          },
          {
            "name": "Width",
            "type": "INT",
            "links": null
          },
          {
            "name": "Height",
            "type": "INT",
            "links": null
          }
        ],
        "properties": {
          "cnr_id": "comfyui-kjnodes",
          "ver": "c88ac88a8f8a6a090a0d5d607156090cb2911503",
          "Node name for S&R": "EmptyLatentImagePresets"
        },
        "widgets_values": [
          "512 x 512 (1:1)",
          false,
          1
        ]
      },
      {
        "id": 32,
        "type": "SaveSVGNode",
        "pos": [
          -3813.0751465917647,
          -782.3696102323707
        ],
        "size": [
          270,
          344
        ],
        "flags": {},
        "order": 13,
        "mode": 0,
        "inputs": [
          {
            "name": "svg",
            "type": "SVG",
            "link": 42
          },
          {
            "name": "filename_prefix",
            "type": "STRING",
            "widget": {
              "name": "filename_prefix"
            },
            "link": 44
          }
        ],
        "outputs": [],
        "properties": {
          "cnr_id": "comfy-core",
          "ver": "0.17.2",
          "Node name for S&R": "SaveSVGNode"
        },
        "widgets_values": [
          "Icons/apps-"
        ]
      },
      {
        "id": 33,
        "type": "TS_ImageToSVGStringBW_Vtracer",
        "pos": [
          -4400.388422461708,
          -795.4795779719508
        ],
        "size": [
          314.01666259765625,
          234.66665649414062
        ],
        "flags": {},
        "order": 11,
        "mode": 0,
        "inputs": [
          {
            "name": "image",
            "type": "IMAGE",
            "link": 39
          }
        ],
        "outputs": [
          {
            "name": "STRING",
            "shape": 6,
            "type": "STRING",
            "links": [
              41
            ]
          }
        ],
        "properties": {
          "cnr_id": "comfyui-tosvg",
          "ver": "1.0.1",
          "Node name for S&R": "TS_ImageToSVGStringBW_Vtracer"
        },
        "widgets_values": [
          "spline",
          4,
          60,
          4,
          45
        ]
      },
      {
        "id": 34,
        "type": "TS_SVGStringToSVGBytesIO",
        "pos": [
          -4063.447054927147,
          -778.4329695457014
        ],
        "size": [
          225,
          72
        ],
        "flags": {},
        "order": 12,
        "mode": 0,
        "inputs": [
          {
            "name": "SVG_String",
            "type": "STRING",
            "link": 41
          }
        ],
        "outputs": [
          {
            "name": "SVG",
            "type": "SVG",
            "links": [
              42
            ]
          }
        ],
        "properties": {
          "cnr_id": "comfyui-tosvg",
          "ver": "1.0.1",
          "Node name for S&R": "TS_SVGStringToSVGBytesIO"
        },
        "widgets_values": []
      },
      {
        "id": 35,
        "type": "PrimitiveString",
        "pos": [
          -4406.654485248328,
          -1528.2849375983897
        ],
        "size": [
          270,
          108
        ],
        "flags": {},
        "order": 4,
        "mode": 0,
        "inputs": [],
        "outputs": [
          {
            "name": "STRING",
            "type": "STRING",
            "links": [
              43,
              44
            ]
          }
        ],
        "properties": {
          "cnr_id": "comfy-core",
          "ver": "0.17.2",
          "Node name for S&R": "PrimitiveString"
        },
        "widgets_values": [
          "Icons/sauce-"
        ]
      }
    ],
    "links": [
      [
        4,
        6,
        0,
        7,
        0,
        "MODEL"
      ],
      [
        5,
        7,
        0,
        8,
        0,
        "MODEL"
      ],
      [
        6,
        5,
        0,
        8,
        1,
        "CLIP"
      ],
      [
        7,
        8,
        1,
        9,
        0,
        "CLIP"
      ],
      [
        8,
        8,
        1,
        10,
        0,
        "CLIP"
      ],
      [
        9,
        9,
        0,
        11,
        1,
        "CONDITIONING"
      ],
      [
        10,
        10,
        0,
        11,
        2,
        "CONDITIONING"
      ],
      [
        13,
        4,
        0,
        11,
        4,
        "VAE"
      ],
      [
        14,
        11,
        5,
        13,
        0,
        "IMAGE"
      ],
      [
        33,
        8,
        0,
        11,
        0,
        "MODEL"
      ],
      [
        37,
        27,
        0,
        11,
        3,
        "LATENT"
      ],
      [
        39,
        11,
        5,
        33,
        0,
        "IMAGE"
      ],
      [
        41,
        33,
        0,
        34,
        0,
        "STRING"
      ],
      [
        42,
        34,
        0,
        32,
        0,
        "SVG"
      ],
      [
        43,
        35,
        0,
        13,
        1,
        "STRING"
      ],
      [
        44,
        35,
        0,
        32,
        1,
        "STRING"
      ]
    ],
    "groups": [],
    "config": {},
    "extra": {
      "ds": {
        "scale": 0.762776844438613,
        "offset": [
          5904.880501892505,
          1726.9831376956586
        ]
      },
      "workflowRendererVersion": "Vue",
      "frontendVersion": "1.41.20",
      "VHS_latentpreview": false,
      "VHS_latentpreviewrate": 0,
      "VHS_MetadataImage": true,
      "VHS_KeepIntermediate": true
    },
    "version": 0.4
  }
}
                ]]>
            </metadata>
            
<path d="M0 0 C1.2671484374999977 -0.014179687500000426 2.5342968749999955 -0.028359375000000853 3.83984375 -0.04296875 C7.0625 0.1875 7.0625 0.1875 9.0625 2.1875 C9.662959850031143 5.049717191825785 10.15279655763618 7.860677216605932 10.578125 10.75 C10.646352157592787 11.191506423950194 10.646352157592787 11.191506423950194 10.991622924804688 13.425796508789063 C11.440271324693981 16.34515698773219 11.876663378995772 19.266201499143534 12.3125 22.1875 C12.619404365049888 24.207021150485957 12.9267826167453 26.22647033813533 13.234619140625 28.245849609375 C14.192487266307978 34.557494661642544 15.130577803084577 40.87197709870912 16.0625 47.1875 C16.214105834960947 48.21433898925781 16.365711669921893 49.24117797851562 16.52191162109375 50.29913330078125 C17.526276607152965 57.11441872042312 18.517884353829857 63.931474762997794 19.5 70.75 C19.631282958984343 71.65790283203125 19.762565917968743 72.5658056640625 19.8978271484375 73.501220703125 C20.267245322103236 76.06415411777027 20.63248898081747 78.62764237534755 20.99609375 81.19140625 C21.050604476928697 81.56904365539552 21.050604476928697 81.56904365539552 21.326461791992188 83.48011779785156 C21.78793483154294 86.76888248479362 22.0625 89.85666022200698 22.0625 93.1875 C22.330624999999998 93.17009765625 22.330624999999998 93.17009765625 23.6875 93.08203125 C29.397619842108043 92.88480671597982 34.77377754631124 93.48538809586596 40.375 94.5 C40.715634765625 94.55885375976563 40.715634765625 94.55885375976563 42.439453125 94.856689453125 C46.52187848737776 95.6409606971511 49.69575063164427 96.73034145536514 53.0625 99.1875 C54.639768324465194 102.34203664893036 54.20440506099055 105.72490801759926 54.1953125 109.1875 C54.19626922607421 109.97898437499998 54.197225952148415 110.77046875000002 54.198211669921875 111.5859375 C54.19889258769541 113.26041747451012 54.19704443996545 114.93490008771681 54.19287109375 116.609375 C54.187521576123004 119.17714346095988 54.192819033933915 121.74473699995622 54.19921875 124.3125 C54.19855795281967 125.93750038731321 54.19727675764426 127.56250066550388 54.1953125 129.1875 C54.19733673095703 129.958359375 54.19936096191407 130.72921875 54.201446533203125 131.5234375 C54.177460660729025 136.95757867854192 54.177460660729025 136.95757867854192 53.0625 139.1875 C51 140.3125 51 140.3125 49.0625 141.1875 C49.31157104492189 141.3206359863281 49.31157104492189 141.3206359863281 50.572021484375 141.994384765625 C69.31563925864486 152.0650971944644 69.31563925864486 152.0650971944644 76.0625 158.1875 C76.81660156250001 158.8616796875 77.57070312500002 159.535859375 78.34765625 160.23046875 C88.53570838990697 169.8402341240358 96.52331518613909 182.75108654286112 97.26168537139893 197.04291439056396 C97.30106830531258 198.6303798111187 97.33523530462583 200.2179797735281 97.36531066894531 201.80564880371094 C97.38506607890133 202.6727902662754 97.40482148885724 203.53993172883986 97.42517554759979 204.43335020542145 C97.488856655826 207.31021914913606 97.54522066510759 210.18717338987247 97.600830078125 213.064208984375 C97.64292423223105 215.0994209984687 97.68502493146423 217.13463287719946 97.7271318435669 219.16984462738037 C98.14029197351806 239.8202533455285 98.31333058480254 260.47154316545004 98.43168616294861 281.12543416023254 C98.44956360361925 284.2198470927117 98.46837175746197 287.31425314705837 98.48743629455566 290.40865898132324 C98.55406719429783 301.25720064579065 98.61639376854879 312.10575812623534 98.675048828125 322.954345703125 C98.72948826235836 332.99744306466056 98.79468687764563 343.04043509226847 98.86438721418381 353.083437025547 C98.9243477283527 361.8003466605592 98.97635290615176 370.5172811564005 99.0223143696785 379.23427575826645 C99.04972219534415 384.4017513753864 99.08035024059791 389.56915651426715 99.11932945251465 394.73655891418457 C99.15553479393645 399.5657990878074 99.18180656776963 404.3949944889502 99.20060729980469 409.22433280944824 C99.20912698301618 410.9851018813269 99.22111994467792 412.74585840887516 99.23699378967285 414.50657653808594 C99.48590458793126 442.83616983857735 99.48590458793126 442.83616983857735 90.34375 453.12109375 C70.14668345566025 472.3662493711434 31.482445643221354 470.7087373874748 5.756103515625 470.523681640625 C2.2336558252953864 470.49988960483626 -1.2880377785679968 470.5031833185702 -4.810546875 470.509765625 C-22.278290654637487 470.48866802828 -39.76080225488107 469.8096247467872 -56.9375 466.375 C-57.802138671875014 466.2046826171875 -58.66677734375 466.034365234375 -59.5576171875 465.85888671875 C-70.68593157105721 463.54966795144855 -83.3490868877796 460.1368844089465 -90.75 450.93359375 C-96.28848442482061 442.42616214552794 -97.25313641659085 433.43234033809284 -97.148193359375 423.461669921875 C-97.14658517837523 422.526803150177 -97.1449769973755 421.591936378479 -97.14332008361816 420.62874031066895 C-97.13531260090338 417.49586288190807 -97.11261363737552 414.36327114048817 -97.08984375 411.23046875 C-97.08064635442585 408.9497254131768 -97.07228557570579 406.66897857734915 -97.06468200683594 404.3882293701172 C-97.04308727456731 398.70688821678056 -97.01137953997929 393.025664443876 -96.97525376081467 387.3443984389305 C-96.94433026292967 382.4361788673978 -96.9182578495168 377.52795080882885 -96.89483642578125 372.61968994140625 C-96.80098686786727 353.0275549022214 -96.6813045139188 333.4356751906338 -96.5486615896225 313.8437670469284 C-96.51013826659994 308.1146894453302 -96.47447649246936 302.3855985210438 -96.440185546875 296.656494140625 C-96.32466161354438 277.4459033488886 -96.18798029778384 258.235732175647 -95.99496161937714 239.0257476568222 C-95.95219906312457 234.76017432687698 -95.9144727594275 230.49458311775362 -95.87908935546875 226.22894287109375 C-95.83619898572698 221.31170320973956 -95.77388078045803 216.39517966851045 -95.6915111541748 211.4784450531006 C-95.66606523910565 209.8149786090523 -95.64672257888273 208.1514035741369 -95.63452339172363 206.4877872467041 C-95.48632258126406 187.8644685646122 -90.14886625742614 174.1482236379642 -77.3671875 160.52734375 C-70.89750482254658 154.296893711745 -56.62308763777108 142.1875 -46.9375 142.1875 C-46.9375 141.5275 -46.9375 140.8675 -46.9375 140.1875 C-48.587500000000006 139.8575 -50.23750000000001 139.5275 -51.9375 139.1875 C-52.08589809669539 133.70666362871697 -52.194737626557014 128.22699757702014 -52.26708984375 122.74462890625 C-52.297250784149554 120.88016389165853 -52.338186913134706 119.01584063249408 -52.39013671875 117.15185546875 C-52.46298716881526 114.47067321830895 -52.49696117774715 111.79136677041504 -52.5234375 109.109375 C-52.53892135620117 108.69315887451171 -52.53892135620117 108.69315887451171 -52.617279052734375 106.58685302734375 C-52.61860635605029 104.30088276976767 -52.55893625473735 102.38827403358829 -51.9375 100.1875 C-43.27840796120228 92.69025157905024 -29.84504933756554 93.01436429622912 -18.9375 93.1875 C-18.9144580078125 92.75209396362305 -18.9144580078125 92.75209396362305 -18.7978515625 90.54867553710938 C-18.19056396561291 80.26974254129846 -17.028199971882714 70.12044199648967 -15.6875 59.9140625 C-15.466839569864987 58.211574312379355 -15.246467429525836 56.50904873731227 -15.0263671875 54.806488037109375 C-14.56875425081978 51.2748907923374 -14.107873127470157 47.7437406694045 -13.64453125 44.212890625 C-13.049913844581113 39.67975533939394 -12.46346247489899 35.14560606672182 -11.87933349609375 30.611108779907227 C-11.427790651917462 27.112431129943758 -10.972166581155449 23.61429463076483 -10.5152587890625 20.116313934326172 C-10.297122923673157 18.442651781939844 -10.080240272642015 16.76882580552148 -9.8646240234375 15.094837188720703 C-9.564932352114056 12.773109164668618 -9.259796026521968 10.452162621270286 -8.953125 8.13134765625 C-8.864783935546882 7.438501739501952 -8.776442871093764 6.745655822753907 -8.6854248046875 6.0318145751953125 C-7.79818714070251 -0.5913805763840081 -6.550214896553825 0.033249821809917535 0 0 Z M6.0625 12.1875 C5.9479180827974005 22.384438087003957 6.263338502560373 32.474074426594335 6.9375 42.65234375 C7.027594677333923 44.065774676269825 7.117267107151065 45.479232573145566 7.20654296875 46.89271545410156 C7.439101959742743 50.55723381559679 7.677272792923873 54.22136500641163 7.916748046875 57.88543701171875 C8.161533608796503 61.646708629635995 8.400825377943534 65.40832967576608 8.640625 69.169921875 C9.109307001839397 76.50946070382923 9.583937636990527 83.848598055123 10.0625 91.1875 C14.937500000000057 92.1875 14.937500000000057 92.1875 16.0625 92.1875 C15.511271588216232 81.60373948324357 14.571362197668918 71.14061914818978 13.21484375 60.625 C13.036474327484484 59.213027101220916 12.858550863431105 57.80099780333035 12.681045532226563 56.388916015625 C12.22021617203842 52.73234036076272 11.75347239558323 49.076545219241325 11.28533935546875 45.4208984375 C10.80567459293303 41.66648282451449 10.331818856284258 37.91133420500997 9.857421875 34.15625 C8.931350737564856 26.83261867420572 7.9990078574633685 19.50980487167174 7.0625 12.1875 C6.732500000000016 12.1875 6.402500000000032 12.1875 6.0625 12.1875 Z M12.0625 100.1875 C12.0625 100.5175 12.0625 100.8475 12.0625 101.1875 C35.289988151658804 105.03584123222748 35.289988151658804 105.03584123222748 41.0625 101.1875 C38.58222906638525 98.70722906638528 32.15988643289671 99.7001192729365 28.8125 99.5625 C28.287207031249977 99.53671875 28.287207031249977 99.53671875 25.62890625 99.40625 C25.12037109375001 99.3843359375 25.12037109375001 99.3843359375 22.546875 99.2734375 C21.615849609375005 99.2326708984375 20.68482421875001 99.191904296875 19.7255859375 99.14990234375 C17.04571507933514 99.18773697082713 14.666849219996266 99.57738197313351 12.0625 100.1875 Z M28.0625 110.1875 C28.200655289310305 114.00031944742886 28.349305622494683 117.81265716609732 28.5 121.625 C28.53931640625001 122.71361328124999 28.578632812500018 123.80222656249998 28.619140625 124.923828125 C28.661035156250023 125.95830078124999 28.70292968749999 126.9927734375 28.74609375 128.05859375 C28.764422607421864 128.5377624511719 28.764422607421864 128.5377624511719 28.857177734375 130.962646484375 C29.0625 133.1875 29.0625 133.1875 30.0625 134.1875 C33.03250000000003 134.1875 36.0025 134.1875 39.0625 134.1875 C39.0625 125.9375 39.0625 117.6875 39.0625 109.1875 C35.27543268397318 109.1875 31.797368788599556 109.61290480175393 28.0625 110.1875 Z M-38.9375 141.1875 C-39.267499999999984 143.1675 -39.5975 145.1475 -39.9375 147.1875 C-35.647894261669194 148.00506772133133 -31.597151331262125 148.31388257995465 -27.23291015625 148.31689453125 C-25.917794494628907 148.32004669189453 -24.602678833007815 148.32319885253906 -23.247711181640625 148.32644653320313 C-21.82399461198989 148.32465610304754 -20.40027834975149 148.3226049887273 -18.9765625 148.3203125 C-17.5021462405806 148.32098702008005 -16.027730089947227 148.32195828162708 -14.553314208984375 148.32321166992188 C-11.468474706277505 148.32468258677085 -8.38366424047689 148.32255420648167 -5.298828125 148.31787109375 C-1.3628030376538334 148.31218422347752 2.573153691217044 148.31545005494573 6.509176254272461 148.32144355773926 C9.55309555641486 148.32507412417797 12.596998923552519 148.3238989835598 15.640918731689453 148.32131576538086 C17.091254000437345 148.32065286846773 18.541590758022153 148.32145242456298 19.991924285888672 148.32379531860352 C27.07995272101249 148.33273152080613 34.04789918095304 148.31895971884995 41.0625 147.1875 C40.732500000000016 146.3625 40.732500000000016 146.3625 39.0625 142.1875 C26.35453653745452 139.8459658616356 13.720444761736871 139.913584266036 0.836181640625 139.981689453125 C-2.7596745803002705 140.00004939706736 -6.355273417004696 140.00219779387515 -9.951171875 140.001953125 C-12.265627201804165 140.00686640552306 -14.580080807529924 140.01269389321862 -16.89453125 140.01953125 C-17.95517288208009 140.02064407348632 -19.015814514160155 140.02175689697265 -20.108596801757813 140.0229034423828 C-26.441289483525168 140.06282880987732 -32.649652885758655 140.42885538912967 -38.9375 141.1875 Z M37.0625 164.1875 C36.880742187500005 165.1426953125 36.69898437500001 166.097890625 36.51171875 167.08203125 C34.994473665682676 174.88611750420637 33.30104377213382 182.5510492596002 31.0625 190.1875 C37.86722716048109 194.98173959033898 42.85191318268107 195.83717808377148 51.0625 195.1875 C56.94331630610657 194.06247427187526 62.53872972543547 192.50164783815998 68.0625 190.1875 C66.46210016495428 186.0284362311466 63.41523377856396 183.42006337058262 60.1875 180.5 C59.613947753906245 179.97688232421876 59.04039550781249 179.4537646484375 58.449462890625 178.914794921875 C43.140404535022185 165.14566377375644 43.140404535022185 165.14566377375644 37.0625 164.1875 Z M67.875 200.5 C63.08426351685637 202.37193592211722 58.11934180759715 203.2675219290386 53.079345703125 204.184814453125 C48.15651996392353 205.09348003607644 48.15651996392353 205.09348003607644 47.0625 206.1875 C46.960116163049804 208.4526952460744 46.933151529602014 210.72126201236154 46.931884765625 212.98876953125 C46.93068822860721 213.7300899887085 46.92949169158936 214.471410446167 46.92825889587402 215.2351951599121 C46.926644149852166 217.80527367534808 46.93363837243021 220.37524594071505 46.94140625 222.9453125 C46.94274629592894 223.8623306655884 46.94408634185788 224.77934883117675 46.94546699523926 225.7241554260254 C46.99475830187998 256.5961368761283 47.48015754524113 287.4673621637902 47.89672148227692 318.336062669754 C47.9892405279258 325.2115797504 48.07778224994877 332.08714360691687 48.16533273458481 338.962725520134 C48.2622396087354 346.5643664151476 48.362152362937024 354.16596532010925 48.46325874328613 361.76755142211914 C48.50526426480394 364.92996196097687 48.54628978462944 368.0923825576066 48.58637809753418 371.2548179626465 C48.874879129020485 393.9056862054059 49.396453780550814 416.54461251795135 50.0625 439.1875 C51.49987235770021 439.20551085728675 52.93731017127675 439.218346541253 54.374755859375 439.22900390625 C55.175218353271475 439.23670806884763 55.97568084716795 439.2444122314453 56.80039978027344 439.2523498535156 C59.64792583801966 439.17071702128453 61.96287273475957 438.5623218431285 64.625 437.5625 C65.04845703125 437.4116796875 65.04845703125 437.4116796875 67.19140625 436.6484375 C77.19446052177307 431.55844797939716 77.19446052177307 431.55844797939716 78.77967643737793 427.22861671447754 C79.02511554647504 424.8719617805705 79.01214246676273 422.63638053001523 78.911865234375 420.268798828125 C78.90890095710756 419.81742270469664 78.90890095710756 419.81742270469664 78.89389991760254 417.5331859588623 C78.86298970624216 414.4642303596165 78.77316045298937 411.3997979689532 78.68359375 408.33203125 C78.64750458954217 406.09272558061843 78.61469263185165 403.8533651692993 78.58482360839844 401.6139678955078 C78.4974908619364 395.91692583295173 78.36845215517894 390.22180694126934 78.22158259153366 384.526009619236 C78.09020381057877 379.4015307318099 77.97608340891725 374.276865330664 77.87042236328125 369.15179443359375 C77.43323466630335 348.0434732555698 76.90498847395565 326.93825045471567 76.3375209569931 305.83306419849396 C76.12215691058304 297.80977498942536 75.91531824541505 289.7862760477756 75.70923709869385 281.76274394989014 C75.5088809791119 273.9646296190185 75.30481796321305 266.1666128567041 75.10015177726746 258.36861062049866 C75.03609538506998 255.92258016683252 74.97251934336333 253.47653759120863 74.90901374816895 251.03049278259277 C74.45867763466993 233.74107803667192 73.94986636069422 216.46124723386922 73.0625 199.1875 C71.0625 199.1875 71.0625 199.1875 67.875 200.5 Z " fill="#000000" transform="translate(254.9375,20.8125)"/>
</svg>
