<?xml version="1.0" encoding="UTF-8"?>
<!-- Generator: visioncortex VTracer 0.6.12 -->
<svg version="1.1" xmlns="http://www.w3.org/2000/svg" width="512" height="512">
  <metadata>
                <![CDATA[
            {
  "prompt": {
    "4": {
      "inputs": {
        "vae_name": "ae.safetensors"
      },
      "class_type": "VAELoader",
      "_meta": {
        "title": "Load VAE"
      }
    },
    "5": {
      "inputs": {
        "clip_name": "qwen3_4b_fp8_scaled.safetensors",
        "type": "lumina2",
        "device": "default"
      },
      "class_type": "CLIPLoader",
      "_meta": {
        "title": "Load CLIP"
      }
    },
    "6": {
      "inputs": {
        "ckpt_name": "zEpicrealism_turboV1Fp8.safetensors"
      },
      "class_type": "CheckpointLoaderSimple",
      "_meta": {
        "title": "Load Checkpoint"
      }
    },
    "7": {
      "inputs": {
        "shift": 6.0,
        "model": [
          "6",
          0
        ]
      },
      "class_type": "ModelSamplingAuraFlow",
      "_meta": {
        "title": "ModelSamplingAuraFlow"
      }
    },
    "8": {
      "inputs": {
        "PowerLoraLoaderHeaderWidget": {
          "type": "PowerLoraLoaderHeaderWidget"
        },
        "lora_1": {
          "on": true,
          "lora": "MinimalistVectorArtZ.safetensors",
          "strength": 0.4
        },
        "lora_2": {
          "on": false,
          "lora": "None",
          "strength": 0.75
        },
        "\u2795 Add Lora": "",
        "model": [
          "7",
          0
        ],
        "clip": [
          "5",
          0
        ]
      },
      "class_type": "Power Lora Loader (rgthree)",
      "_meta": {
        "title": "Power Lora Loader (rgthree)"
      }
    },
    "9": {
      "inputs": {
        "text": "A bold, heavy solid black icon of a thick, pocket-sized spiral-bound notebook. Front 3/4 view. One single, substantial contiguous dark mass of the cover and the spiral binding. High-contrast woodblock style. The left vertical edge is defined by a rhythmic, repeating pattern of four or five chunky, horizontal white negative space 'slashes' to represent the spiral wire. These are thick, geometric voids, not fine lines. A single, massive diagonal white negative space 'slash' is carved into the bottom-right corner of the black mass to represent a 'dog-eared' or folded page corner. No lines on the page, no text, heavy visual weight. Isolated on white. Optimized for a clean, single-boolean SVG silhouette.",
        "clip": [
          "8",
          1
        ]
      },
      "class_type": "CLIPTextEncode",
      "_meta": {
        "title": "Positive Prompt"
      }
    },
    "10": {
      "inputs": {
        "text": "blurry, bad, shadow, color, grey, text, watermark, logo,",
        "clip": [
          "8",
          1
        ]
      },
      "class_type": "CLIPTextEncode",
      "_meta": {
        "title": "Negative Prompt"
      }
    },
    "11": {
      "inputs": {
        "seed": 30241514223015,
        "steps": 9,
        "cfg": 0.9,
        "sampler_name": "euler",
        "scheduler": "beta",
        "denoise": 1.0,
        "preview_method": "auto",
        "vae_decode": "true",
        "model": [
          "8",
          0
        ],
        "positive": [
          "9",
          0
        ],
        "negative": [
          "10",
          0
        ],
        "latent_image": [
          "27",
          0
        ],
        "optional_vae": [
          "4",
          0
        ]
      },
      "class_type": "KSampler (Efficient)",
      "_meta": {
        "title": "KSampler (Efficient)"
      }
    },
    "13": {
      "inputs": {
        "filename_prefix": [
          "35",
          0
        ],
        "images": [
          "11",
          5
        ]
      },
      "class_type": "SaveImage",
      "_meta": {
        "title": "Save Image"
      }
    },
    "27": {
      "inputs": {
        "dimensions": "512 x 512 (1:1)",
        "invert": false,
        "batch_size": 1
      },
      "class_type": "EmptyLatentImagePresets",
      "_meta": {
        "title": "Empty Latent Image Presets"
      }
    },
    "32": {
      "inputs": {
        "filename_prefix": [
          "35",
          0
        ],
        "svg": [
          "34",
          0
        ]
      },
      "class_type": "SaveSVGNode",
      "_meta": {
        "title": "SaveSVGNode"
      }
    },
    "33": {
      "inputs": {
        "mode": "spline",
        "filter_speckle": 4,
        "corner_threshold": 60,
        "length_threshold": 4.0,
        "splice_threshold": 45,
        "image": [
          "11",
          5
        ]
      },
      "class_type": "TS_ImageToSVGStringBW_Vtracer",
      "_meta": {
        "title": "Image to SVG String BW_Vtracer"
      }
    },
    "34": {
      "inputs": {
        "SVG_String": [
          "33",
          0
        ]
      },
      "class_type": "TS_SVGStringToSVGBytesIO",
      "_meta": {
        "title": "SVG String to SVG BytesIO"
      }
    },
    "35": {
      "inputs": {
        "value": "Icons/scratch-"
      },
      "class_type": "PrimitiveString",
      "_meta": {
        "title": "String"
      }
    }
  },
  "workflow": {
    "id": "b863a6d5-b1c1-49ed-82de-40ff658289d1",
    "revision": 0,
    "last_node_id": 38,
    "last_link_id": 50,
    "nodes": [
      {
        "id": 4,
        "type": "VAELoader",
        "pos": [
          -6219.529416223988,
          -970.9071955967029
        ],
        "size": [
          373.8333435058594,
          123.80000305175781
        ],
        "flags": {},
        "order": 0,
        "mode": 0,
        "inputs": [],
        "outputs": [
          {
            "name": "VAE",
            "type": "VAE",
            "links": [
              13,
              48
            ]
          }
        ],
        "properties": {
          "cnr_id": "comfy-core",
          "ver": "0.9.2",
          "Node name for S&R": "VAELoader"
        },
        "widgets_values": [
          "ae.safetensors"
        ]
      },
      {
        "id": 5,
        "type": "CLIPLoader",
        "pos": [
          -6634.625060962726,
          -1114.719863560585
        ],
        "size": [
          366.1666564941406,
          542.9833374023438
        ],
        "flags": {},
        "order": 1,
        "mode": 0,
        "inputs": [],
        "outputs": [
          {
            "name": "CLIP",
            "type": "CLIP",
            "links": [
              6
            ]
          }
        ],
        "properties": {
          "cnr_id": "comfy-core",
          "ver": "0.9.2",
          "Node name for S&R": "CLIPLoader"
        },
        "widgets_values": [
          "qwen3_4b_fp8_scaled.safetensors",
          "lumina2",
          "default"
        ]
      },
      {
        "id": 6,
        "type": "CheckpointLoaderSimple",
        "pos": [
          -7142.718609403837,
          -1274.2970319785854
        ],
        "size": [
          456,
          154.6666717529297
        ],
        "flags": {},
        "order": 2,
        "mode": 0,
        "inputs": [],
        "outputs": [
          {
            "name": "MODEL",
            "type": "MODEL",
            "links": [
              4
            ]
          },
          {
            "name": "CLIP",
            "type": "CLIP",
            "links": []
          },
          {
            "name": "VAE",
            "type": "VAE",
            "links": []
          }
        ],
        "properties": {
          "cnr_id": "comfy-core",
          "ver": "0.9.2",
          "Node name for S&R": "CheckpointLoaderSimple"
        },
        "widgets_values": [
          "zEpicrealism_turboV1Fp8.safetensors"
        ],
        "color": "#453f4f",
        "bgcolor": "#312b3b"
      },
      {
        "id": 7,
        "type": "ModelSamplingAuraFlow",
        "pos": [
          -6599.990108813057,
          -1269.9450961666446
        ],
        "size": [
          270,
          104
        ],
        "flags": {},
        "order": 7,
        "mode": 0,
        "inputs": [
          {
            "name": "model",
            "type": "MODEL",
            "link": 4
          }
        ],
        "outputs": [
          {
            "name": "MODEL",
            "type": "MODEL",
            "links": [
              5
            ]
          }
        ],
        "properties": {
          "cnr_id": "comfy-core",
          "ver": "0.10.0",
          "Node name for S&R": "ModelSamplingAuraFlow"
        },
        "widgets_values": [
          6
        ]
      },
      {
        "id": 8,
        "type": "Power Lora Loader (rgthree)",
        "pos": [
          -6200.008875558856,
          -1269.9450961666446
        ],
        "size": [
          340.48333740234375,
          232
        ],
        "flags": {},
        "order": 8,
        "mode": 0,
        "inputs": [
          {
            "dir": 3,
            "name": "model",
            "type": "MODEL",
            "link": 5
          },
          {
            "dir": 3,
            "name": "clip",
            "type": "CLIP",
            "link": 6
          }
        ],
        "outputs": [
          {
            "dir": 4,
            "name": "MODEL",
            "shape": 3,
            "type": "MODEL",
            "links": [
              47
            ]
          },
          {
            "dir": 4,
            "name": "CLIP",
            "shape": 3,
            "type": "CLIP",
            "links": [
              7,
              8
            ]
          }
        ],
        "properties": {
          "cnr_id": "rgthree-comfy",
          "ver": "8ff50e4521881eca1fe26aec9615fc9362474931",
          "Show Strengths": "Single Strength"
        },
        "widgets_values": [
          {},
          {
            "type": "PowerLoraLoaderHeaderWidget"
          },
          {
            "on": true,
            "lora": "MinimalistVectorArtZ.safetensors",
            "strength": 0.4,
            "strengthTwo": null
          },
          {
            "on": false,
            "lora": "None",
            "strength": 0.75,
            "strengthTwo": null
          },
          {},
          ""
        ]
      },
      {
        "id": 9,
        "type": "CLIPTextEncode",
        "pos": [
          -5665.298067285652,
          -968.8847480145092
        ],
        "size": [
          495.1833190917969,
          389.6333312988281
        ],
        "flags": {},
        "order": 10,
        "mode": 0,
        "inputs": [
          {
            "name": "clip",
            "type": "CLIP",
            "link": 7
          }
        ],
        "outputs": [
          {
            "name": "CONDITIONING",
            "type": "CONDITIONING",
            "links": [
              9
            ]
          }
        ],
        "title": "Positive Prompt",
        "properties": {
          "cnr_id": "comfy-core",
          "ver": "0.9.2",
          "Node name for S&R": "CLIPTextEncode"
        },
        "widgets_values": [
          "A bold, heavy solid black icon of a thick, pocket-sized spiral-bound notebook. Front 3/4 view. One single, substantial contiguous dark mass of the cover and the spiral binding. High-contrast woodblock style. The left vertical edge is defined by a rhythmic, repeating pattern of four or five chunky, horizontal white negative space 'slashes' to represent the spiral wire. These are thick, geometric voids, not fine lines. A single, massive diagonal white negative space 'slash' is carved into the bottom-right corner of the black mass to represent a 'dog-eared' or folded page corner. No lines on the page, no text, heavy visual weight. Isolated on white. Optimized for a clean, single-boolean SVG silhouette."
        ],
        "color": "#232",
        "bgcolor": "#353"
      },
      {
        "id": 10,
        "type": "CLIPTextEncode",
        "pos": [
          -5666.5260314864745,
          -512.2921596736592
        ],
        "size": [
          470,
          142
        ],
        "flags": {},
        "order": 11,
        "mode": 0,
        "inputs": [
          {
            "name": "clip",
            "type": "CLIP",
            "link": 8
          }
        ],
        "outputs": [
          {
            "name": "CONDITIONING",
            "type": "CONDITIONING",
            "links": [
              10
            ]
          }
        ],
        "title": "Negative Prompt",
        "properties": {
          "cnr_id": "comfy-core",
          "ver": "0.9.2",
          "Node name for S&R": "CLIPTextEncode"
        },
        "widgets_values": [
          "blurry, bad, shadow, color, grey, text, watermark, logo,"
        ],
        "color": "#322",
        "bgcolor": "#533"
      },
      {
        "id": 11,
        "type": "KSampler (Efficient)",
        "pos": [
          -4910.913678672515,
          -1342.5015025857194
        ],
        "size": [
          400.1000061035156,
          966.6666870117188
        ],
        "flags": {},
        "order": 12,
        "mode": 0,
        "inputs": [
          {
            "name": "model",
            "type": "MODEL",
            "link": 46
          },
          {
            "name": "positive",
            "type": "CONDITIONING",
            "link": 9
          },
          {
            "name": "negative",
            "type": "CONDITIONING",
            "link": 10
          },
          {
            "name": "latent_image",
            "type": "LATENT",
            "link": 37
          },
          {
            "name": "optional_vae",
            "shape": 7,
            "type": "VAE",
            "link": 13
          },
          {
            "name": "script",
            "shape": 7,
            "type": "SCRIPT",
            "link": null
          }
        ],
        "outputs": [
          {
            "name": "MODEL",
            "type": "MODEL",
            "links": null
          },
          {
            "name": "CONDITIONING+",
            "type": "CONDITIONING",
            "links": null
          },
          {
            "name": "CONDITIONING-",
            "type": "CONDITIONING",
            "links": null
          },
          {
            "name": "LATENT",
            "type": "LATENT",
            "links": null
          },
          {
            "name": "VAE",
            "type": "VAE",
            "links": null
          },
          {
            "name": "IMAGE",
            "type": "IMAGE",
            "links": [
              14,
              39
            ]
          }
        ],
        "properties": {
          "cnr_id": "efficiency-nodes-comfyui",
          "ver": "1.0.8",
          "Node name for S&R": "KSampler (Efficient)"
        },
        "widgets_values": [
          -1,
          null,
          9,
          0.9,
          "euler",
          "beta",
          1,
          "auto",
          "true"
        ],
        "color": "#223333",
        "bgcolor": "#335555",
        "shape": "box"
      },
      {
        "id": 13,
        "type": "SaveImage",
        "pos": [
          -4410.458584695532,
          -1352.0179936878044
        ],
        "size": [
          461.7833251953125,
          344
        ],
        "flags": {},
        "order": 13,
        "mode": 0,
        "inputs": [
          {
            "name": "images",
            "type": "IMAGE",
            "link": 14
          },
          {
            "name": "filename_prefix",
            "type": "STRING",
            "widget": {
              "name": "filename_prefix"
            },
            "link": 43
          }
        ],
        "outputs": [],
        "properties": {
          "cnr_id": "comfy-core",
          "ver": "0.17.2"
        },
        "widgets_values": [
          "Icons/apps-"
        ]
      },
      {
        "id": 27,
        "type": "EmptyLatentImagePresets",
        "pos": [
          -5667.013573414988,
          -1285.095614520352
        ],
        "size": [
          285.0833435058594,
          214.6666717529297
        ],
        "flags": {},
        "order": 3,
        "mode": 0,
        "inputs": [],
        "outputs": [
          {
            "name": "Latent",
            "type": "LATENT",
            "links": [
              37
            ]
          },
          {
            "name": "Width",
            "type": "INT",
            "links": null
          },
          {
            "name": "Height",
            "type": "INT",
            "links": null
          }
        ],
        "properties": {
          "cnr_id": "comfyui-kjnodes",
          "ver": "c88ac88a8f8a6a090a0d5d607156090cb2911503",
          "Node name for S&R": "EmptyLatentImagePresets"
        },
        "widgets_values": [
          "512 x 512 (1:1)",
          false,
          1
        ]
      },
      {
        "id": 32,
        "type": "SaveSVGNode",
        "pos": [
          -3813.087098958786,
          -782.3652587471762
        ],
        "size": [
          270,
          344
        ],
        "flags": {},
        "order": 16,
        "mode": 0,
        "inputs": [
          {
            "name": "svg",
            "type": "SVG",
            "link": 42
          },
          {
            "name": "filename_prefix",
            "type": "STRING",
            "widget": {
              "name": "filename_prefix"
            },
            "link": 44
          }
        ],
        "outputs": [],
        "properties": {
          "cnr_id": "comfy-core",
          "ver": "0.17.2",
          "Node name for S&R": "SaveSVGNode"
        },
        "widgets_values": [
          "Icons/apps-"
        ]
      },
      {
        "id": 33,
        "type": "TS_ImageToSVGStringBW_Vtracer",
        "pos": [
          -4400.364267959555,
          -795.4572061170688
        ],
        "size": [
          314.01666259765625,
          234.66665649414062
        ],
        "flags": {},
        "order": 14,
        "mode": 0,
        "inputs": [
          {
            "name": "image",
            "type": "IMAGE",
            "link": 39
          }
        ],
        "outputs": [
          {
            "name": "STRING",
            "shape": 6,
            "type": "STRING",
            "links": [
              41
            ]
          }
        ],
        "properties": {
          "cnr_id": "comfyui-tosvg",
          "ver": "1.0.1",
          "Node name for S&R": "TS_ImageToSVGStringBW_Vtracer"
        },
        "widgets_values": [
          "spline",
          4,
          60,
          4,
          45
        ]
      },
      {
        "id": 34,
        "type": "TS_SVGStringToSVGBytesIO",
        "pos": [
          -4063.4410199893787,
          -778.4467045599912
        ],
        "size": [
          225,
          72
        ],
        "flags": {},
        "order": 15,
        "mode": 0,
        "inputs": [
          {
            "name": "SVG_String",
            "type": "STRING",
            "link": 41
          }
        ],
        "outputs": [
          {
            "name": "SVG",
            "type": "SVG",
            "links": [
              42
            ]
          }
        ],
        "properties": {
          "cnr_id": "comfyui-tosvg",
          "ver": "1.0.1",
          "Node name for S&R": "TS_SVGStringToSVGBytesIO"
        },
        "widgets_values": []
      },
      {
        "id": 35,
        "type": "PrimitiveString",
        "pos": [
          -4406.648318050964,
          -1528.2986560802276
        ],
        "size": [
          270,
          108
        ],
        "flags": {},
        "order": 4,
        "mode": 0,
        "inputs": [],
        "outputs": [
          {
            "name": "STRING",
            "type": "STRING",
            "links": [
              43,
              44
            ]
          }
        ],
        "properties": {
          "cnr_id": "comfy-core",
          "ver": "0.17.2",
          "Node name for S&R": "PrimitiveString"
        },
        "widgets_values": [
          "Icons/scratch-"
        ]
      },
      {
        "id": 36,
        "type": "ModelPatchLoader",
        "pos": [
          -7059.345533943512,
          -330.0523924799236
        ],
        "size": [
          427.6000061035156,
          106.66667175292969
        ],
        "flags": {},
        "order": 5,
        "mode": 4,
        "inputs": [],
        "outputs": [
          {
            "name": "MODEL_PATCH",
            "type": "MODEL_PATCH",
            "links": [
              45
            ]
          }
        ],
        "properties": {
          "cnr_id": "comfy-core",
          "ver": "0.16.3",
          "Node name for S&R": "ModelPatchLoader"
        },
        "widgets_values": [
          "Z-Image-Turbo-Fun-Controlnet-Union-2.1.safetensors"
        ]
      },
      {
        "id": 37,
        "type": "ZImageFunControlnet",
        "pos": [
          -6611.258196381201,
          -335.79477340395954
        ],
        "size": [
          361.6000061035156,
          224
        ],
        "flags": {},
        "order": 9,
        "mode": 4,
        "inputs": [
          {
            "name": "model",
            "type": "MODEL",
            "link": 47
          },
          {
            "name": "model_patch",
            "type": "MODEL_PATCH",
            "link": 45
          },
          {
            "name": "vae",
            "type": "VAE",
            "link": 48
          },
          {
            "name": "image",
            "shape": 7,
            "type": "IMAGE",
            "link": 50
          },
          {
            "name": "inpaint_image",
            "shape": 7,
            "type": "IMAGE",
            "link": null
          },
          {
            "name": "mask",
            "shape": 7,
            "type": "MASK",
            "link": null
          }
        ],
        "outputs": [
          {
            "name": "MODEL",
            "type": "MODEL",
            "links": [
              46
            ]
          }
        ],
        "properties": {
          "cnr_id": "comfy-core",
          "ver": "0.16.3",
          "Node name for S&R": "ZImageFunControlnet"
        },
        "widgets_values": [
          0.15
        ]
      },
      {
        "id": 38,
        "type": "LoadImage",
        "pos": [
          -6229.443165549208,
          -560.5968682946624
        ],
        "size": [
          458.8333435058594,
          788.2999877929688
        ],
        "flags": {},
        "order": 6,
        "mode": 4,
        "inputs": [],
        "outputs": [
          {
            "name": "IMAGE",
            "type": "IMAGE",
            "links": [
              50
            ]
          },
          {
            "name": "MASK",
            "type": "MASK",
            "links": null
          }
        ],
        "title": "Reference",
        "properties": {
          "cnr_id": "comfy-core",
          "ver": "0.9.2",
          "Node name for S&R": "LoadImage"
        },
        "widgets_values": [
          "background-removed (1).png",
          "image"
        ],
        "color": "#322",
        "bgcolor": "#533"
      }
    ],
    "links": [
      [
        4,
        6,
        0,
        7,
        0,
        "MODEL"
      ],
      [
        5,
        7,
        0,
        8,
        0,
        "MODEL"
      ],
      [
        6,
        5,
        0,
        8,
        1,
        "CLIP"
      ],
      [
        7,
        8,
        1,
        9,
        0,
        "CLIP"
      ],
      [
        8,
        8,
        1,
        10,
        0,
        "CLIP"
      ],
      [
        9,
        9,
        0,
        11,
        1,
        "CONDITIONING"
      ],
      [
        10,
        10,
        0,
        11,
        2,
        "CONDITIONING"
      ],
      [
        13,
        4,
        0,
        11,
        4,
        "VAE"
      ],
      [
        14,
        11,
        5,
        13,
        0,
        "IMAGE"
      ],
      [
        37,
        27,
        0,
        11,
        3,
        "LATENT"
      ],
      [
        39,
        11,
        5,
        33,
        0,
        "IMAGE"
      ],
      [
        41,
        33,
        0,
        34,
        0,
        "STRING"
      ],
      [
        42,
        34,
        0,
        32,
        0,
        "SVG"
      ],
      [
        43,
        35,
        0,
        13,
        1,
        "STRING"
      ],
      [
        44,
        35,
        0,
        32,
        1,
        "STRING"
      ],
      [
        45,
        36,
        0,
        37,
        1,
        "MODEL_PATCH"
      ],
      [
        46,
        37,
        0,
        11,
        0,
        "MODEL"
      ],
      [
        47,
        8,
        0,
        37,
        0,
        "MODEL"
      ],
      [
        48,
        4,
        0,
        37,
        2,
        "VAE"
      ],
      [
        50,
        38,
        0,
        37,
        3,
        "IMAGE"
      ]
    ],
    "groups": [],
    "config": {},
    "extra": {
      "ds": {
        "scale": 1.1167815779425774,
        "offset": [
          5382.064128510087,
          1723.4292319918648
        ]
      },
      "workflowRendererVersion": "Vue",
      "frontendVersion": "1.41.20",
      "VHS_latentpreview": false,
      "VHS_latentpreviewrate": 0,
      "VHS_MetadataImage": true,
      "VHS_KeepIntermediate": true
    },
    "version": 0.4
  }
}
                ]]>
            </metadata>
            
<path d="M0 0 C38.52353139834807 -0.06785960115039558 77.0470470427951 -0.12155070541346902 115.57062621414661 -0.15319598838686943 C120.12162851376019 -0.1569479802876046 124.67263069281606 -0.16083095969626982 129.2236328125 -0.164794921875 C130.12963197797538 -0.16558185316622342 131.03563114345073 -0.16636878445744685 131.96908482909203 -0.16717956215143204 C146.62707883916778 -0.18022334133615914 161.28503744933485 -0.20387151713570972 175.9430104792118 -0.2314583882689476 C190.9903113413111 -0.2595412000739259 206.0375936991935 -0.2761823389891802 221.08491969108582 -0.28226548433303833 C230.36532889557304 -0.28637596105805585 239.64563802825205 -0.29934527078620476 248.92601642012596 -0.3237494006752968 C255.29522199639052 -0.33964210285667207 261.6643760509292 -0.3443923739694128 268.03360000252724 -0.34050413221120834 C271.7049382828477 -0.33858807264613944 275.3761020347805 -0.3414661152658951 279.0474090576172 -0.3576164245605469 C283.0370288733911 -0.37503785859523475 287.02628071556103 -0.36893399849033415 291.01593017578125 -0.3607635498046875 C291.58987726807595 -0.36513281196355507 291.58987726807595 -0.36513281196355507 294.4943974018097 -0.38724392652511597 C306.9498489063041 -0.3185376632548653 316.7529643166568 1.8189965324503703 325.71484375 10.69921875 C333.2883707700256 18.939364285235655 333.43708555167296 26.624635035191943 333.38768005371094 37.44148254394531 C333.3918551281339 38.92532923341648 333.39733360019125 40.40917272945299 333.4039998650551 41.893010318279266 C333.41845075212655 45.96251911119808 333.41421087383037 50.031825314988225 333.4068330526352 54.10134518146515 C333.4021027339551 58.493430154738206 333.4146101069592 62.885471214844245 333.4248504638672 67.27754211425781 C333.4420471273625 75.8793060815939 333.44287658311566 84.48099702719318 333.43763756006956 93.08277372270823 C333.43359583576466 100.07528266486742 333.4350394534942 107.06777002805751 333.44038581848145 114.06027793884277 C333.4411342405155 115.0555723267421 333.44188266254963 116.05086671464147 333.4426537640393 117.07632153853774 C333.4441852486412 119.09829349341516 333.44572359601193 121.12026544310598 333.4472687318921 123.14223738759756 C333.46099719693416 142.1048050128382 333.4555539021487 161.0673313844455 333.44408351927996 180.02989806979895 C333.43415328170744 197.37242893523737 333.4470875857644 214.7148530780999 333.47101771086454 232.0573674812913 C333.49540961803694 249.8689039457006 333.505016197782 267.6803907067098 333.49836498498917 285.49194353818893 C333.49487264911517 295.4900352678785 333.4971056734678 305.48804494164557 333.51461601257324 315.4861240386963 C333.5293392184877 323.99836469512144 333.5299719820418 332.51046552937487 333.5125451013446 341.02270344644785 C333.5040332530938 345.36422479560866 333.50188996461094 349.7054963818406 333.51719665527344 354.04700469970703 C333.5310485407455 358.0252045964482 333.5262743980231 362.00294088073446 333.50695741921663 365.98111399263144 C333.50319857395493 367.4164688711839 333.5061161041052 368.85186092828474 333.516569070518 370.28718266636133 C333.5822333318964 379.9980123891092 332.42084306427466 387.425292784145 327.3125 395.75 C318.02674302615594 404.78479056914557 309.0631699859185 407.4541867676771 296.42738342285156 407.3607635498047 C295.79348409622907 407.3620451870561 295.79348409622907 407.3620451870561 292.5855693221092 407.3685310482979 C289.0781947146469 407.3752216412448 285.5710962662625 407.3632632438447 282.06375682353973 407.3481968641281 C278.2772053683271 407.3352200477893 274.49066900431194 407.339627123583 270.7041015625 407.34190368652344 C264.14748010791584 407.3434753825788 257.5909483388718 407.3340770415052 251.03434944152832 407.3171901702881 C241.55466755896254 407.2927906580688 232.07502896501035 407.28499392622905 222.59531908482313 407.281226195395 C207.214481771019 407.274663207941 191.83369223653563 407.2547061754396 176.452880859375 407.226318359375 C161.5134301632044 407.19877384826356 146.57399245277318 407.1775421827865 131.634521484375 407.164794921875 C130.7133789152652 407.16400675140324 129.7922363461554 407.1632185809314 128.84318036586046 407.16240652650595 C124.22199687088937 407.1584913636825 119.60081328405636 407.1547002517154 114.97962963581085 407.15097081661224 C76.6530513344398 407.11987965610626 38.32653251659309 407.06622132873554 0 407 C-0.3299999999999983 397.1 -0.6599999999999966 387.2 -1 377 C-8.687499999999545 376.75 -8.687499999999545 376.75 -11.080810546875 376.7021484375 C-15.896326487909818 376.47077960988673 -18.493172398081754 375.5671745396186 -22 372 C-23.600866269292283 368.79826746141543 -23.499170892387085 365.4742294110141 -23 362 C-21.206360891183564 359.1899653961876 -19.981190646530038 357.49059532326504 -17 356 C-14.114266478292492 355.92800066063603 -11.259348849660455 355.9072931955504 -8.375 355.9375 C-5.611249999999998 355.958125 -2.8474999999999966 355.97875 0 356 C-0.3299999999999983 347.42 -0.6599999999999966 338.84 -1 330 C-9.187499999999915 329.875 -9.187499999999915 329.875 -11.739013671875 329.88232421875 C-14.83876244341971 329.76515791548707 -17.138355389369295 329.662754479157 -19.64892578125 327.731689453125 C-22.074716529389192 324.9641102329911 -22.986151660039738 323.0986694222169 -23.5 319.4375 C-22.96980455078848 315.7924062866708 -22.290883722435524 313.86360465304443 -20 311 C-16.380185565571452 308.55488496135956 -12.477272920053593 308.5674804890227 -8.25 308.375 C-5.857500000000002 308.25125 -3.4650000000000034 308.1275 -1 308 C-1 299.75 -1 291.5 -1 283 C-9.187499999999915 282.875 -9.187499999999915 282.875 -11.739013671875 282.88232421875 C-14.839177664100788 282.76514222070796 -17.138327110601068 282.6648103360166 -19.646728515625 280.7294921875 C-22.03044429287253 278.0035450564654 -22.985788023419857 276.0884300764987 -23.5625 272.5 C-22.901505042916057 268.3871424892555 -21.654382245943324 266.185258695132 -19 263 C-15.235088325003858 261.74502944166795 -11.727935254713742 261.8933835194154 -7.8125 261.9375 C-5.234375 261.958125 -2.65625 261.97875 0 262 C-0.16499999999999204 257.71 -0.16499999999999204 257.71 -1 236 C-9.187499999999915 235.875 -9.187499999999915 235.875 -11.739013671875 235.88232421875 C-14.827714888069636 235.76557549810934 -17.134687060539264 235.65722730746586 -19.646728515625 233.749267578125 C-22.036138270299432 231.0436562828819 -23.690071743813036 228.5920552492321 -23.5625 224.9375 C-22.946618459326558 220.62632921528586 -22.135908239523232 218.956713482979 -19 216 C-15.235088325003872 214.74502944166795 -11.727935254713742 214.89338351941547 -7.8125 214.9375 C-5.234375 214.958125 -2.65625 214.97875 0 215 C0 206.41999999999996 0 197.84 0 189 C-7.687500000001563 189.18750000000006 -7.687500000001563 189.18750000000006 -10.080810546875 189.270263671875 C-14.615583493025 189.32358695977385 -17.40484831842322 188.78488075334263 -21 186 C-23.570739388027746 182.57234748262965 -23.430374520899008 179.16028703535713 -23 175 C-19.947368421052616 169.3157894736842 -19.947368421052616 169.3157894736842 -16 168 C-13.42502931527902 167.92964560970708 -10.885500709431227 167.90650660055798 -8.3125 167.9375 C-7.105937499999996 167.9478125 -7.105937499999996 167.9478125 -1 168 C-1 159.42 -1 150.84 -1 142 C-9.249999999997911 141.75000000000003 -9.249999999997911 141.75000000000003 -11.8291015625 141.7021484375 C-15.554927303778172 141.5344774543539 -17.462548895355383 141.41576406208358 -20.484375 139.078125 C-23.297759622873016 135.2205976304937 -23.673466198073513 131.68732473859163 -23 127 C-21.206360891183564 124.18996539618757 -19.981190646530038 122.49059532326501 -17 121 C-14.114266478292464 120.92800066063603 -11.25934884966047 120.90729319555035 -8.375 120.9375 C-5.611249999999998 120.958125 -2.8474999999999966 120.97874999999999 0 121 C0 112.09 0 103.18 0 94 C-8.187499999998764 94.24999999999994 -8.187499999998764 94.24999999999994 -10.739013671875 94.3603515625 C-14.676036789881252 94.41837971733571 -16.56872297208369 94.27286023726992 -19.98828125 92.109375 C-23.051658670649587 88.89728993757132 -23.194931603008357 86.65723014925669 -23.5234375 82.265625 C-22.69130668604396 78.66386476048876 -20.959453105201646 76.13080623574518 -18 74 C-14.850974225667954 73.28198109380051 -11.89592436147862 73.4290083145254 -8.6875 73.625 C-5.820625000000007 73.74875 -2.9537499999999994 73.8725 0 74 C0 65.09 0 56.18000000000001 0 47 C-7.687499999999957 47.1875 -7.687499999999957 47.1875 -10.080810546875 47.270263671875 C-14.61476923931437 47.32357738516326 -17.437124540682845 46.83575801864019 -21 44 C-23.476312206133983 40.28553169079903 -23.538052267166407 37.304418137331254 -23 33 C-21.707975539715463 29.871940780363758 -20.869983154007997 28.46057931682776 -17.875 26.875 C-14.273156717928657 25.778786827195688 -10.907179386126515 25.783176128753183 -7.1875 25.875 C-4.815624999999997 25.916250000000005 -2.4437499999999943 25.957499999999996 0 26 C0 17.42 0 8.840000000000003 0 0 Z M22 26 C21.959192170674953 27.9995836369269 21.95745643701885 30.00045253988587 22 32 C21.66399780273437 31.916976318359374 21.66399780273437 31.916976318359374 19.963623046875 31.496826171875 C14.385060518366643 30.561627659187423 8.696948608376616 31.0592929705074 3.060791015625 31.241943359375 C0.8095701600156673 31.312591945244378 -1.4416671151161182 31.36670139570637 -3.693359375 31.419921875 C-5.122426133571395 31.462537424007195 -6.55146435945781 31.50612324643859 -7.98046875 31.55078125 C-9.278796386718753 31.588566894531255 -10.577124023437506 31.62635253906251 -11.914794921875 31.665283203125 C-15 32 -15 32 -17 34 C-17.25 36.5 -17.25 36.5 -17 39 C-15 41 -15 41 -11.37646484375 41.22705078125 C-9.82125311082109 41.22673356804928 -8.26601949373827 41.21540298568273 -6.7109375 41.1953125 C-5.89251373291016 41.19248260498047 -5.0740899658203205 41.18965270996094 -4.230865478515625 41.186737060546875 C-1.6120960692534254 41.17552531835608 1.0063336400375675 41.15041928884213 3.625 41.125 C5.398432567252527 41.11497146851791 7.171870485193409 41.10584539857226 8.9453125 41.09765625 C13.297006259456424 41.07558277979855 17.64844550008064 41.041046443548794 22 41 C22 43.31 22 45.620000000000005 22 48 C27.61 48 33.22 48 39 48 C39 40.739999999999995 39 33.47999999999999 39 26 C35.136132328774025 25.227226465754796 32.117960553811685 24.864546052557273 28.25 24.875 C27.28578125 24.872421875 26.3215625 24.86984375 25.328125 24.8671875 C23 25 23 25 22 26 Z M22 73 C22 74.98 22 76.95999999999998 22 79 C20.8896337890625 78.9895263671875 19.779267578125 78.97905273437499 18.63525390625 78.96826171875 C14.524121210701338 78.93212051244339 10.413002613173717 78.90912104088093 6.3017578125 78.89013671875 C4.520809330663624 78.88006568574434 2.7398774313951577 78.86640815089083 0.958984375 78.84912109375 C-1.5976978317812893 78.82492087241633 -4.1541618514959 78.81352816050463 -6.7109375 78.8046875 C-7.509944763183597 78.79436492919922 -8.308952026367194 78.78404235839844 -9.132171630859375 78.77340698242188 C-11.08957219540423 78.773007735628 -13.04643076558419 78.87758931491669 -15 79 C-17 81 -17 81 -17.1875 84.0625 C-17 87 -17 87 -16 88 C-13.188366202725604 88.08861992243834 -10.40141744569108 88.11522355106666 -7.58984375 88.09765625 C-7.168826370239259 88.09694877624511 -7.168826370239259 88.09694877624511 -5.0382232666015625 88.09336853027344 C-2.3379466522773527 88.08775263320337 0.36224827509235524 88.075197483934 3.0625 88.0625 C4.888670681026042 88.0574870458592 6.714842656325914 88.0529237851971 8.541015625 88.048828125 C13.027375421402809 88.03777804175812 17.51367384295233 88.02050279126823 22 88 C21.979375000000005 89.134375 21.95875000000001 90.26875000000001 21.9375 91.4375 C22 95 22 95 23 96 C25.698690497049554 96.07325435659743 28.36502556397602 96.09222351158172 31.0625 96.0625 C32.372187499999995 96.0521875 32.372187499999995 96.0521875 39 96 C39 88.41 39 80.82 39 73 C33.39 73 27.78 73 22 73 Z M22 120 C22 121.98000000000002 22 123.95999999999998 22 126 C20.8896337890625 125.9895263671875 19.779267578125 125.97905273437499 18.63525390625 125.96826171875 C14.524121210701338 125.93212051244339 10.413002613173717 125.90912104088093 6.3017578125 125.89013671875 C4.520809330663624 125.88006568574434 2.7398774313951577 125.86640815089083 0.958984375 125.84912109375 C-1.5976978317812893 125.82492087241633 -4.1541618514959 125.81352816050463 -6.7109375 125.8046875 C-7.509944763183597 125.79436492919922 -8.308952026367194 125.78404235839844 -9.132171630859375 125.77340698242188 C-11.08957219540423 125.773007735628 -13.04643076558419 125.87758931491669 -15 126 C-15.659999999999997 126.66 -16.319999999999993 127.32 -17 128 C-16.42307692307692 134.57692307692307 -16.42307692307692 134.57692307692307 -15 136 C-12.333739695693893 136.08855160642113 -9.693528856147765 136.1152467322624 -7.02734375 136.09765625 C-6.229701080322258 136.09624130249023 -5.4320584106445295 136.09482635498046 -4.6102447509765625 136.09336853027344 C-2.052625646122536 136.08775316477562 0.5049071780920542 136.07519811892843 3.0625 136.0625 C4.792316447652368 136.0574869767339 6.522134261937339 136.05292372795262 8.251953125 136.048828125 C12.501335529770856 136.037778748003 16.750653117803537 136.02050386365843 21 136 C21.659999999999997 138.31 22.319999999999993 140.62 23 143 C28.28 143 33.56 143 39 143 C39 135.41 39 127.82 39 120 C33.39 120 27.78 120 22 120 Z M22 167 C22 169.31 22 171.62 22 174 C9.460000000000008 174 -3.0799999999999983 174 -16 174 C-16.33 176.31 -16.659999999999997 178.62 -17 181 C-15 183 -15 183 -11.37646484375 183.22705078125 C-9.82125311082109 183.22673356804927 -8.26601949373827 183.21540298568272 -6.7109375 183.1953125 C-5.89251373291016 183.19248260498046 -5.0740899658203205 183.18965270996094 -4.230865478515625 183.18673706054688 C-1.6120960692534254 183.17552531835608 1.0063336400375675 183.15041928884213 3.625 183.125 C5.398432567252527 183.11497146851792 7.171870485193409 183.10584539857226 8.9453125 183.09765625 C13.297006259456424 183.07558277979854 17.64844550008064 183.0410464435488 22 183 C22 185.31 22 187.62 22 190 C27.61 190 33.22 190 39 190 C39 182.41 39 174.82 39 167 C33.39 167 27.78 167 22 167 Z M22 214 C21.67 215.98000000000002 21.340000000000003 217.96000000000004 21 220 C19.955456542968747 219.98952636718752 18.910913085937494 219.979052734375 17.834716796875 219.96826171875 C13.960239925480025 219.9320682771189 10.08577800962749 219.90910194816263 6.211181640625 219.89013671875 C4.534072746742638 219.8800776347391 2.856981392722986 219.8664287827503 1.179931640625 219.84912109375 C-1.230350023278021 219.8248684815651 -3.6403998557496635 219.8135161029026 -6.05078125 219.8046875 C-6.800879669189456 219.79436492919922 -7.550978088378912 219.78404235839844 -8.323806762695313 219.77340698242188 C-12.103007791755772 219.7725920017881 -13.774143988370142 219.8494293255801 -17 222 C-17.3125 225 -17.3125 225 -17 228 C-15 230 -15 230 -11.37646484375 230.22705078125 C-9.82125311082109 230.22673356804927 -8.26601949373827 230.21540298568272 -6.7109375 230.1953125 C-5.89251373291016 230.19248260498046 -5.0740899658203205 230.1896527099609 -4.230865478515625 230.18673706054688 C-1.6120960692534254 230.1755253183561 1.0063336400375675 230.15041928884216 3.625 230.125 C5.398432567252527 230.11497146851792 7.171870485193409 230.10584539857223 8.9453125 230.09765625 C13.297006259456424 230.07558277979854 17.64844550008064 230.0410464435488 22 230 C22 232.31 22 234.62 22 237 C27.61 237 33.22 237 39 237 C39 229.40999999999997 39 221.82 39 214 C33.39 214 27.78 214 22 214 Z M22 261 C22 262.98 22 264.96 22 267 C21.0317529296875 266.9895263671875 20.063505859375 266.979052734375 19.06591796875 266.96826171875 C15.45413956100063 266.9319062915524 11.842377159738191 266.9090432744961 8.23046875 266.89013671875 C6.67087071414268 266.880114426231 5.111291299967775 266.86649294638465 3.5517578125 266.84912109375 C1.302687455879692 266.82470589830774 -0.9461332229250701 266.81347910061845 -3.1953125 266.8046875 C-3.8861795043945335 266.7943649291992 -4.577046508789067 266.78404235839844 -5.288848876953125 266.7734069824219 C-9.572601624587861 266.77242685320675 -13.017122779615107 267.4339435147058 -17 269 C-17.125 271.875 -17.125 271.875 -17 275 C-15 277 -15 277 -11.37646484375 277.22705078125 C-9.82125311082109 277.22673356804927 -8.26601949373827 277.2154029856827 -6.7109375 277.1953125 C-5.89251373291016 277.19248260498046 -5.0740899658203205 277.1896527099609 -4.230865478515625 277.1867370605469 C-1.6120960692534254 277.17552531835605 1.0063336400375675 277.1504192888421 3.625 277.125 C5.398432567252527 277.1149714685179 7.171870485193409 277.1058453985722 8.9453125 277.09765625 C13.297006259456424 277.07558277979854 17.64844550008064 277.0410464435488 22 277 C22 279.31 22 281.62 22 284 C27.61 284 33.22 284 39 284 C39 276.41 39 268.82 39 261 C33.39 261 27.78 261 22 261 Z M246 302 C241.85631670323534 323.6803429634295 237.72724784931995 345.36257466330187 233.6875 367.0625 C233.52314453125 367.9439468383789 233.35878906250002 368.8253936767578 233.189453125 369.7335510253906 C231.06272203910146 381.1448458899692 228.99541305928238 392.564997299124 227 404 C233.47216881733993 405.1610746060967 240.31548478431768 406.16182620278727 246.22479248046875 402.69464111328125 C251.70278867478333 398.4095663532094 256.2930234014746 393.2118934525818 260.9375 388.0625 C262.38060576831276 386.52538082658543 263.8278477374625 384.9921339061551 265.279296875 383.462890625 C268.4456422709921 380.1221813812054 271.5695157460061 376.74695433397375 274.65904235839844 373.33509826660156 C276 372 276 372 278 371 C278 370.34000000000003 278 369.68 278 369 C278.2784375 368.896875 278.2784375 368.896875 279.6875 368.375 C282.25581884552577 366.847891497255 283.7024255126259 365.00234459587614 285.54296875 362.68359375 C287.0984748394107 360.8862127190724 288.7488895472011 359.41074880992704 290.5625 357.875 C295.87016373533027 353.3544042710495 300.7062455320473 348.3737532208612 305.600341796875 343.416259765625 C308.47076700664843 340.51178799833116 311.34585938218066 337.6187816655048 314.3125 334.8125 C316 333 316 333 316 331 C316.54140625 330.765390625 317.0828125 330.53078125 317.640625 330.2890625 C320.6918038710549 328.62202768634415 323.13189953358983 326.6675694560364 325.75 324.375 C326.73484375 323.557734375 327.7196875 322.74046875 328.734375 321.8984375 C331 318 331 318 331 302 C302.95 302 274.9 302 246 302 Z M22 308 C22 309.98 22 311.96 22 314 C20.996223144531257 313.9895263671875 19.9924462890625 313.979052734375 18.958251953125 313.96826171875 C15.221634817141307 313.93196546579816 11.485033170384 313.90906459918136 7.748291015625 313.89013671875 C6.133355471242567 313.8801010363052 4.518437996374047 313.86646948693783 2.903564453125 313.84912109375 C0.577591250271368 313.824765353406 -1.7481409499421545 313.81349252551837 -4.07421875 313.8046875 C-4.792120819091792 313.7943649291992 -5.510022888183585 313.78404235839844 -6.2496795654296875 313.7734069824219 C-10.284998683079138 313.7725109682886 -13.368211741185803 314.21042317681616 -17 316 C-17.125 318.875 -17.125 318.875 -17 322 C-15 324 -15 324 -11.37646484375 324.22705078125 C-9.82125311082109 324.22673356804927 -8.26601949373827 324.2154029856827 -6.7109375 324.1953125 C-5.89251373291016 324.19248260498046 -5.0740899658203205 324.1896527099609 -4.230865478515625 324.1867370605469 C-1.6120960692534254 324.17552531835605 1.0063336400375675 324.1504192888421 3.625 324.125 C5.398432567252527 324.1149714685179 7.171870485193409 324.1058453985722 8.9453125 324.09765625 C13.297006259456424 324.07558277979854 17.64844550008064 324.0410464435488 22 324 C22 326.31 22 328.62 22 331 C27.61 331 33.22 331 39 331 C39 323.41 39 315.82 39 308 C33.39 308 27.78 308 22 308 Z M22 356 C21.95936167924215 357.66617115107175 21.957278998679072 359.3338809484842 22 361 C20.8896337890625 360.9895263671875 19.779267578125 360.979052734375 18.63525390625 360.96826171875 C14.524121210701338 360.93212051244336 10.413002613173717 360.9091210408809 6.3017578125 360.89013671875 C4.520809330663624 360.88006568574434 2.7398774313951577 360.86640815089083 0.958984375 360.84912109375 C-1.5976978317812893 360.8249208724163 -4.1541618514959 360.81352816050463 -6.7109375 360.8046875 C-7.509944763183597 360.7943649291992 -8.308952026367194 360.78404235839844 -9.132171630859375 360.7734069824219 C-11.08957219540423 360.773007735628 -13.04643076558419 360.8775893149167 -15 361 C-17 363 -17 363 -17.3125 366 C-17.209374999999994 366.99 -17.106250000000003 367.98 -17 369 C-13.211575272614937 371.5256164849234 -10.214666705678056 371.25391573062666 -5.83203125 371.1953125 C-5.037218475341803 371.19248260498046 -4.242405700683591 371.1896527099609 -3.4235076904296875 371.1867370605469 C-0.8863516173829566 371.1755470481973 1.6504507224701541 371.1504449071263 4.1875 371.125 C5.908198024720207 371.1149686621972 7.628901585792434 371.105843079333 9.349609375 371.09765625 C13.566542428421144 371.0756116052931 17.783211249714384 371.04109006352877 22 371 C22 373.31 22 375.62 22 378 C27.61 378 33.22 378 39 378 C39 370.41 39 362.82 39 355 C36.38062500000001 354.979375 33.76124999999999 354.95875 31.0625 354.9375 C30.236291503906244 354.92839599609374 29.410083007812503 354.9192919921875 28.558837890625 354.909912109375 C23.111111111111114 354.8888888888889 23.111111111111114 354.8888888888889 22 356 Z " fill="#000000" transform="translate(90,52)"/>
</svg>
