<svg xmlns="http://www.w3.org/2000/svg" width="512" height="512"><path d="M90 52a122940 122940 0 0 1 129.224-.165l2.745-.002c14.658-.013 29.316-.037 43.974-.064q22.571-.043 45.142-.051 13.92-.005 27.841-.042 9.554-.023 19.108-.017c3.67.002 7.342 0 11.013-.017 3.99-.017 7.98-.01 11.969-.003l3.478-.026c12.456.068 22.259 2.206 31.22 11.086 7.574 8.24 7.723 15.926 7.674 26.742l.016 4.452c.014 4.07.01 8.139.003 12.208-.005 4.392.008 8.784.018 13.177.017 8.601.018 17.203.013 25.805q-.006 10.489.002 20.977l.003 3.016.004 6.066c.014 18.963.009 37.925-.003 56.888-.01 17.342.003 34.685.027 52.027q.037 26.717.027 53.435c-.003 9.998 0 19.996.017 29.994q.022 12.768-.002 25.537c-.009 4.341-.011 8.682.004 13.024q.02 5.967-.01 11.934-.006 2.152.01 4.306c.065 9.711-1.096 17.138-6.204 25.463-9.286 9.035-18.25 11.704-30.886 11.61l-3.841.009c-3.508.006-7.015-.006-10.522-.02-3.787-.014-7.573-.01-11.36-.007q-9.835.001-19.67-.025c-9.48-.024-18.959-.032-28.439-.036q-23.07-.01-46.142-.055-22.41-.041-44.818-.061l-2.792-.003-13.863-.011c-38.327-.031-76.653-.085-114.98-.151l-1-30c-7.687-.25-7.687-.25-10.08-.298-4.816-.231-7.413-1.135-10.92-4.702-1.6-3.202-1.5-6.526-1-10 1.794-2.81 3.019-4.51 6-6 2.886-.072 5.74-.093 8.625-.062L90 408l-1-26c-8.187-.125-8.187-.125-10.739-.118-3.1-.117-5.4-.22-7.91-2.15-2.426-2.768-3.337-4.633-3.851-8.295.53-3.645 1.21-5.573 3.5-8.437 3.62-2.445 7.523-2.433 11.75-2.625L89 360v-25c-8.187-.125-8.187-.125-10.739-.118-3.1-.117-5.4-.217-7.908-2.153-2.383-2.725-3.339-4.64-3.915-8.229.66-4.113 1.908-6.315 4.562-9.5 3.765-1.255 7.272-1.107 11.188-1.062L90 314l-1-26c-8.187-.125-8.187-.125-10.739-.118-3.089-.116-5.396-.225-7.908-2.133-2.39-2.705-4.043-5.157-3.915-8.812.615-4.31 1.426-5.98 4.562-8.937 3.765-1.255 7.272-1.107 11.188-1.062L90 267v-26c-7.688.188-7.688.188-10.08.27-4.536.054-7.325-.485-10.92-3.27-2.57-3.428-2.43-6.84-2-11 3.053-5.684 3.053-5.684 7-7a195 195 0 0 1 7.688-.062L89 220v-26c-8.25-.25-8.25-.25-10.83-.298-3.725-.168-5.633-.286-8.654-2.624-2.814-3.857-3.19-7.39-2.516-12.078 1.794-2.81 3.019-4.51 6-6 2.886-.072 5.74-.093 8.625-.062L90 173v-27c-8.187.25-8.187.25-10.739.36-3.937.058-5.83-.087-9.25-2.25-3.063-3.213-3.206-5.453-3.534-9.844.832-3.602 2.564-6.135 5.523-8.266 3.149-.718 6.104-.571 9.313-.375L90 126V99c-7.687.188-7.687.188-10.08.27-4.535.054-7.357-.434-10.92-3.27-2.476-3.714-2.538-6.696-2-11 1.292-3.128 2.13-4.54 5.125-6.125 3.602-1.096 6.968-1.092 10.688-1L90 78zm22 26c-.04 2-.043 4 0 6l-2.036-.503c-5.579-.935-11.267-.438-16.903-.255a873 873 0 0 1-6.754.178l-4.287.13c-1.299.039-2.597.076-3.935.115C75 84 75 84 73 86c-.25 2.5-.25 2.5 0 5 2 2 2 2 5.624 2.227q2.332-.001 4.665-.032l2.48-.008c2.619-.011 5.237-.037 7.856-.062q2.66-.016 5.32-.027Q105.473 93.063 112 93v7h17V78c-3.864-.773-6.882-1.135-10.75-1.125l-2.922-.008C113 77 113 77 112 78m0 47v6c-1.11-.01-2.22-.02-3.365-.032-4.11-.036-8.222-.059-12.333-.078q-2.671-.016-5.343-.04c-2.557-.025-5.113-.036-7.67-.045l-2.421-.032c-1.958 0-3.914.105-5.868.227-2 2-2 2-2.187 5.063C73 139 73 139 74 140c2.812.089 5.599.115 8.41.098l2.552-.005c2.7-.005 5.4-.018 8.1-.03l5.479-.014q6.73-.017 13.459-.049l-.062 3.438C112 147 112 147 113 148c2.699.073 5.365.092 8.063.063L129 148v-23zm0 47v6c-1.11-.01-2.22-.02-3.365-.032-4.11-.036-8.222-.059-12.333-.078q-2.671-.016-5.343-.04c-2.557-.025-5.113-.036-7.67-.045l-2.421-.032c-1.958 0-3.914.105-5.868.227l-2 2c.577 6.577.577 6.577 2 8 2.666.089 5.306.115 7.973.098l2.417-.005c2.557-.005 5.115-.018 7.672-.03l5.19-.014q6.375-.017 12.748-.049l2 7h16v-23zm0 47v7H74l-1 7c2 2 2 2 5.624 2.227q2.332-.001 4.665-.032l2.48-.008c2.619-.011 5.237-.037 7.856-.062q2.66-.016 5.32-.027 6.528-.035 13.055-.098v7h17v-23zm0 47-1 6a2614 2614 0 0 0-14.789-.11q-2.516-.015-5.031-.04c-2.41-.025-4.82-.036-7.23-.045l-2.274-.032c-3.779 0-5.45.076-8.676 2.227-.312 3-.312 3 0 6 2 2 2 2 5.624 2.227q2.332-.001 4.665-.032l2.48-.008c2.619-.011 5.237-.037 7.856-.062q2.66-.016 5.32-.027 6.528-.035 13.055-.098v7h17v-23zm0 47v6a2243 2243 0 0 0-13.77-.11q-2.34-.015-4.678-.04c-2.25-.025-4.498-.037-6.747-.045l-2.094-.032c-4.284 0-7.728.66-11.711 2.227-.125 2.875-.125 2.875 0 6 2 2 2 2 5.624 2.227q2.332-.001 4.665-.032l2.48-.008c2.619-.011 5.237-.037 7.856-.062q2.66-.016 5.32-.027 6.528-.035 13.055-.098v7h17v-23zm224 41c-4.144 21.68-8.273 43.363-12.312 65.063l-.499 2.67A3029 3029 0 0 0 317 456c6.472 1.161 13.315 2.162 19.225-1.305 5.478-4.285 10.068-9.483 14.712-14.632q2.165-2.306 4.342-4.6c3.167-3.34 6.29-6.716 9.38-10.128C366 424 366 424 368 423v-2l1.688-.625c2.568-1.527 4.014-3.373 5.855-5.691 1.555-1.798 3.206-3.273 5.02-4.809 5.307-4.52 10.143-9.501 15.037-14.459 2.87-2.904 5.746-5.797 8.712-8.603C406 385 406 385 406 383c.541-.235 1.083-.47 1.64-.71 3.052-1.668 5.492-3.622 8.11-5.915l2.984-2.477C421 370 421 370 421 354zm-224 6v6a2412 2412 0 0 0-14.252-.11q-2.423-.016-4.844-.04a955 955 0 0 0-6.978-.045l-2.176-.032c-4.035 0-7.118.437-10.75 2.227-.125 2.875-.125 2.875 0 6 2 2 2 2 5.624 2.227q2.332-.001 4.665-.032l2.48-.008c2.619-.011 5.237-.037 7.856-.062q2.66-.016 5.32-.027 6.528-.035 13.055-.098v7h17v-23zm0 48a100 100 0 0 0 0 5c-1.11-.01-2.22-.02-3.365-.032-4.11-.036-8.222-.059-12.333-.078q-2.671-.016-5.343-.04c-2.557-.025-5.113-.036-7.67-.045l-2.421-.032c-1.958 0-3.914.105-5.868.227-2 2-2 2-2.312 5l.312 3c3.788 2.526 6.785 2.254 11.168 2.195l2.408-.008c2.538-.011 5.074-.037 7.612-.062q2.58-.016 5.162-.027 6.325-.035 12.65-.098v7h17v-23l-7.937-.062-2.504-.028c-5.448-.021-5.448-.021-6.559 1.09"/></svg>