<?xml version="1.0" encoding="UTF-8"?>
<!-- Generator: visioncortex VTracer 0.6.12 -->
<svg version="1.1" xmlns="http://www.w3.org/2000/svg" width="512" height="512">
  <metadata>
                <![CDATA[
            {
  "prompt": {
    "1": {
      "inputs": {
        "image": "apps.jpg"
      },
      "class_type": "LoadImage",
      "_meta": {
        "title": "Load Image"
      },
      "is_changed": [
        "9effa22ebff8b10a924d1df35dd8bf04d3c64ff46b677495dd2580e0b9408069"
      ]
    },
    "4": {
      "inputs": {
        "vae_name": "ae.safetensors"
      },
      "class_type": "VAELoader",
      "_meta": {
        "title": "Load VAE"
      }
    },
    "5": {
      "inputs": {
        "clip_name": "qwen3_4b_fp8_scaled.safetensors",
        "type": "lumina2",
        "device": "default"
      },
      "class_type": "CLIPLoader",
      "_meta": {
        "title": "Load CLIP"
      }
    },
    "6": {
      "inputs": {
        "ckpt_name": "zEpicrealism_turboV1Fp8.safetensors"
      },
      "class_type": "CheckpointLoaderSimple",
      "_meta": {
        "title": "Load Checkpoint"
      }
    },
    "7": {
      "inputs": {
        "shift": 6.0,
        "model": [
          "6",
          0
        ]
      },
      "class_type": "ModelSamplingAuraFlow",
      "_meta": {
        "title": "ModelSamplingAuraFlow"
      }
    },
    "8": {
      "inputs": {
        "PowerLoraLoaderHeaderWidget": {
          "type": "PowerLoraLoaderHeaderWidget"
        },
        "lora_1": {
          "on": true,
          "lora": "MinimalistVectorArtZ.safetensors",
          "strength": 0.4
        },
        "lora_2": {
          "on": false,
          "lora": "None",
          "strength": 0.75
        },
        "\u2795 Add Lora": "",
        "model": [
          "7",
          0
        ],
        "clip": [
          "5",
          0
        ]
      },
      "class_type": "Power Lora Loader (rgthree)",
      "_meta": {
        "title": "Power Lora Loader (rgthree)"
      }
    },
    "9": {
      "inputs": {
        "text": "A heavy, solid black icon of a small round cast-iron cocotte with a lid slightly ajar. Side view. Most of the pot is a solid black mass. Thick white negative space defines the rim, the handle, and a few chunky, abstracted shapes of vegetables peeking from the top. Woodblock print aesthetic, high-contrast stencil, heavy visual weight.",
        "clip": [
          "8",
          1
        ]
      },
      "class_type": "CLIPTextEncode",
      "_meta": {
        "title": "Positive Prompt"
      }
    },
    "10": {
      "inputs": {
        "text": "shading, gradients, 3d, shadows, gray, colorful, textures, detail, photorealistic, ugly, bad, blurry, shadow, color, lighting, 3d, realism",
        "clip": [
          "8",
          1
        ]
      },
      "class_type": "CLIPTextEncode",
      "_meta": {
        "title": "Negative Prompt"
      }
    },
    "11": {
      "inputs": {
        "seed": 324295626113350,
        "steps": 9,
        "cfg": 1.0,
        "sampler_name": "euler",
        "scheduler": "beta",
        "denoise": 1.0,
        "preview_method": "auto",
        "vae_decode": "true",
        "model": [
          "8",
          0
        ],
        "positive": [
          "9",
          0
        ],
        "negative": [
          "10",
          0
        ],
        "latent_image": [
          "27",
          0
        ],
        "optional_vae": [
          "4",
          0
        ]
      },
      "class_type": "KSampler (Efficient)",
      "_meta": {
        "title": "KSampler (Efficient)"
      }
    },
    "13": {
      "inputs": {
        "filename_prefix": [
          "35",
          0
        ],
        "images": [
          "11",
          5
        ]
      },
      "class_type": "SaveImage",
      "_meta": {
        "title": "Save Image"
      }
    },
    "27": {
      "inputs": {
        "dimensions": "512 x 512 (1:1)",
        "invert": false,
        "batch_size": 1
      },
      "class_type": "EmptyLatentImagePresets",
      "_meta": {
        "title": "Empty Latent Image Presets"
      }
    },
    "32": {
      "inputs": {
        "filename_prefix": [
          "35",
          0
        ],
        "svg": [
          "34",
          0
        ]
      },
      "class_type": "SaveSVGNode",
      "_meta": {
        "title": "SaveSVGNode"
      }
    },
    "33": {
      "inputs": {
        "mode": "spline",
        "filter_speckle": 4,
        "corner_threshold": 60,
        "length_threshold": 4.0,
        "splice_threshold": 45,
        "image": [
          "11",
          5
        ]
      },
      "class_type": "TS_ImageToSVGStringBW_Vtracer",
      "_meta": {
        "title": "Image to SVG String BW_Vtracer"
      }
    },
    "34": {
      "inputs": {
        "SVG_String": [
          "33",
          0
        ]
      },
      "class_type": "TS_SVGStringToSVGBytesIO",
      "_meta": {
        "title": "SVG String to SVG BytesIO"
      }
    },
    "35": {
      "inputs": {
        "value": "Icons/soup-"
      },
      "class_type": "PrimitiveString",
      "_meta": {
        "title": "String"
      }
    }
  },
  "workflow": {
    "id": "b863a6d5-b1c1-49ed-82de-40ff658289d1",
    "revision": 0,
    "last_node_id": 35,
    "last_link_id": 44,
    "nodes": [
      {
        "id": 1,
        "type": "LoadImage",
        "pos": [
          -6217.316859373546,
          -939.7122525298151
        ],
        "size": [
          411.5,
          378
        ],
        "flags": {},
        "order": 0,
        "mode": 0,
        "inputs": [],
        "outputs": [
          {
            "name": "IMAGE",
            "type": "IMAGE",
            "links": []
          },
          {
            "name": "MASK",
            "type": "MASK",
            "links": null
          }
        ],
        "properties": {
          "cnr_id": "comfy-core",
          "ver": "0.16.3",
          "Node name for S&R": "LoadImage"
        },
        "widgets_values": [
          "apps.jpg",
          "image"
        ]
      },
      {
        "id": 4,
        "type": "VAELoader",
        "pos": [
          -6617.595563958066,
          -844.5601267331108
        ],
        "size": [
          373.8333435058594,
          123.80000305175781
        ],
        "flags": {},
        "order": 1,
        "mode": 0,
        "inputs": [],
        "outputs": [
          {
            "name": "VAE",
            "type": "VAE",
            "links": [
              13
            ]
          }
        ],
        "properties": {
          "cnr_id": "comfy-core",
          "ver": "0.9.2",
          "Node name for S&R": "VAELoader"
        },
        "widgets_values": [
          "ae.safetensors"
        ]
      },
      {
        "id": 5,
        "type": "CLIPLoader",
        "pos": [
          -6608.368533159864,
          -1107.5438052167356
        ],
        "size": [
          366.1666564941406,
          310.98333740234375
        ],
        "flags": {},
        "order": 2,
        "mode": 0,
        "inputs": [],
        "outputs": [
          {
            "name": "CLIP",
            "type": "CLIP",
            "links": [
              6
            ]
          }
        ],
        "properties": {
          "cnr_id": "comfy-core",
          "ver": "0.9.2",
          "Node name for S&R": "CLIPLoader"
        },
        "widgets_values": [
          "qwen3_4b_fp8_scaled.safetensors",
          "lumina2",
          "default"
        ]
      },
      {
        "id": 6,
        "type": "CheckpointLoaderSimple",
        "pos": [
          -7142.71680538894,
          -1274.2913540650861
        ],
        "size": [
          456,
          154.6666717529297
        ],
        "flags": {},
        "order": 3,
        "mode": 0,
        "inputs": [],
        "outputs": [
          {
            "name": "MODEL",
            "type": "MODEL",
            "links": [
              4
            ]
          },
          {
            "name": "CLIP",
            "type": "CLIP",
            "links": []
          },
          {
            "name": "VAE",
            "type": "VAE",
            "links": []
          }
        ],
        "properties": {
          "cnr_id": "comfy-core",
          "ver": "0.9.2",
          "Node name for S&R": "CheckpointLoaderSimple"
        },
        "widgets_values": [
          "zEpicrealism_turboV1Fp8.safetensors"
        ],
        "color": "#453f4f",
        "bgcolor": "#312b3b"
      },
      {
        "id": 7,
        "type": "ModelSamplingAuraFlow",
        "pos": [
          -6599.987521077401,
          -1269.9290034978649
        ],
        "size": [
          270,
          104
        ],
        "flags": {},
        "order": 6,
        "mode": 0,
        "inputs": [
          {
            "name": "model",
            "type": "MODEL",
            "link": 4
          }
        ],
        "outputs": [
          {
            "name": "MODEL",
            "type": "MODEL",
            "links": [
              5
            ]
          }
        ],
        "properties": {
          "cnr_id": "comfy-core",
          "ver": "0.10.0",
          "Node name for S&R": "ModelSamplingAuraFlow"
        },
        "widgets_values": [
          6
        ]
      },
      {
        "id": 8,
        "type": "Power Lora Loader (rgthree)",
        "pos": [
          -6199.999665682865,
          -1269.9290034978649
        ],
        "size": [
          340.48333740234375,
          232
        ],
        "flags": {},
        "order": 7,
        "mode": 0,
        "inputs": [
          {
            "dir": 3,
            "name": "model",
            "type": "MODEL",
            "link": 5
          },
          {
            "dir": 3,
            "name": "clip",
            "type": "CLIP",
            "link": 6
          }
        ],
        "outputs": [
          {
            "dir": 4,
            "name": "MODEL",
            "shape": 3,
            "type": "MODEL",
            "links": [
              33
            ]
          },
          {
            "dir": 4,
            "name": "CLIP",
            "shape": 3,
            "type": "CLIP",
            "links": [
              7,
              8
            ]
          }
        ],
        "properties": {
          "cnr_id": "rgthree-comfy",
          "ver": "8ff50e4521881eca1fe26aec9615fc9362474931",
          "Show Strengths": "Single Strength"
        },
        "widgets_values": [
          {},
          {
            "type": "PowerLoraLoaderHeaderWidget"
          },
          {
            "on": true,
            "lora": "MinimalistVectorArtZ.safetensors",
            "strength": 0.4,
            "strengthTwo": null
          },
          {
            "on": false,
            "lora": "None",
            "strength": 0.75,
            "strengthTwo": null
          },
          {},
          ""
        ]
      },
      {
        "id": 9,
        "type": "CLIPTextEncode",
        "pos": [
          -5665.307704401808,
          -968.8475182588683
        ],
        "size": [
          496.6499938964844,
          181.21665954589844
        ],
        "flags": {},
        "order": 8,
        "mode": 0,
        "inputs": [
          {
            "name": "clip",
            "type": "CLIP",
            "link": 7
          }
        ],
        "outputs": [
          {
            "name": "CONDITIONING",
            "type": "CONDITIONING",
            "links": [
              9
            ]
          }
        ],
        "title": "Positive Prompt",
        "properties": {
          "cnr_id": "comfy-core",
          "ver": "0.9.2",
          "Node name for S&R": "CLIPTextEncode"
        },
        "widgets_values": [
          "A heavy, solid black icon of a small round cast-iron cocotte with a lid slightly ajar. Side view. Most of the pot is a solid black mass. Thick white negative space defines the rim, the handle, and a few chunky, abstracted shapes of vegetables peeking from the top. Woodblock print aesthetic, high-contrast stencil, heavy visual weight."
        ],
        "color": "#232",
        "bgcolor": "#353"
      },
      {
        "id": 10,
        "type": "CLIPTextEncode",
        "pos": [
          -5663.192560791823,
          -731.9321666339443
        ],
        "size": [
          470,
          142
        ],
        "flags": {},
        "order": 9,
        "mode": 0,
        "inputs": [
          {
            "name": "clip",
            "type": "CLIP",
            "link": 8
          }
        ],
        "outputs": [
          {
            "name": "CONDITIONING",
            "type": "CONDITIONING",
            "links": [
              10
            ]
          }
        ],
        "title": "Negative Prompt",
        "properties": {
          "cnr_id": "comfy-core",
          "ver": "0.9.2",
          "Node name for S&R": "CLIPTextEncode"
        },
        "widgets_values": [
          "shading, gradients, 3d, shadows, gray, colorful, textures, detail, photorealistic, ugly, bad, blurry, shadow, color, lighting, 3d, realism"
        ],
        "color": "#322",
        "bgcolor": "#533"
      },
      {
        "id": 11,
        "type": "KSampler (Efficient)",
        "pos": [
          -4910.911905462519,
          -1342.5026538434545
        ],
        "size": [
          400.1000061035156,
          966.6666870117188
        ],
        "flags": {},
        "order": 10,
        "mode": 0,
        "inputs": [
          {
            "name": "model",
            "type": "MODEL",
            "link": 33
          },
          {
            "name": "positive",
            "type": "CONDITIONING",
            "link": 9
          },
          {
            "name": "negative",
            "type": "CONDITIONING",
            "link": 10
          },
          {
            "name": "latent_image",
            "type": "LATENT",
            "link": 37
          },
          {
            "name": "optional_vae",
            "shape": 7,
            "type": "VAE",
            "link": 13
          },
          {
            "name": "script",
            "shape": 7,
            "type": "SCRIPT",
            "link": null
          }
        ],
        "outputs": [
          {
            "name": "MODEL",
            "type": "MODEL",
            "links": null
          },
          {
            "name": "CONDITIONING+",
            "type": "CONDITIONING",
            "links": null
          },
          {
            "name": "CONDITIONING-",
            "type": "CONDITIONING",
            "links": null
          },
          {
            "name": "LATENT",
            "type": "LATENT",
            "links": null
          },
          {
            "name": "VAE",
            "type": "VAE",
            "links": null
          },
          {
            "name": "IMAGE",
            "type": "IMAGE",
            "links": [
              14,
              39
            ]
          }
        ],
        "properties": {
          "cnr_id": "efficiency-nodes-comfyui",
          "ver": "1.0.8",
          "Node name for S&R": "KSampler (Efficient)"
        },
        "widgets_values": [
          -1,
          null,
          9,
          1,
          "euler",
          "beta",
          1,
          "auto",
          "true"
        ],
        "color": "#223333",
        "bgcolor": "#335555",
        "shape": "box"
      },
      {
        "id": 13,
        "type": "SaveImage",
        "pos": [
          -4410.457657417897,
          -1351.9940775929056
        ],
        "size": [
          461.7833251953125,
          344
        ],
        "flags": {},
        "order": 11,
        "mode": 0,
        "inputs": [
          {
            "name": "images",
            "type": "IMAGE",
            "link": 14
          },
          {
            "name": "filename_prefix",
            "type": "STRING",
            "widget": {
              "name": "filename_prefix"
            },
            "link": 43
          }
        ],
        "outputs": [],
        "properties": {
          "cnr_id": "comfy-core",
          "ver": "0.17.2"
        },
        "widgets_values": [
          "Icons/apps-"
        ]
      },
      {
        "id": 27,
        "type": "EmptyLatentImagePresets",
        "pos": [
          -5662.135085807466,
          -1235.0830630272494
        ],
        "size": [
          285.0833435058594,
          214.6666717529297
        ],
        "flags": {},
        "order": 4,
        "mode": 0,
        "inputs": [],
        "outputs": [
          {
            "name": "Latent",
            "type": "LATENT",
            "links": [
              37
            ]
          },
          {
            "name": "Width",
            "type": "INT",
            "links": null
          },
          {
            "name": "Height",
            "type": "INT",
            "links": null
          }
        ],
        "properties": {
          "cnr_id": "comfyui-kjnodes",
          "ver": "c88ac88a8f8a6a090a0d5d607156090cb2911503",
          "Node name for S&R": "EmptyLatentImagePresets"
        },
        "widgets_values": [
          "512 x 512 (1:1)",
          false,
          1
        ]
      },
      {
        "id": 32,
        "type": "SaveSVGNode",
        "pos": [
          -3813.08014368563,
          -782.3768797405022
        ],
        "size": [
          270,
          344
        ],
        "flags": {},
        "order": 14,
        "mode": 0,
        "inputs": [
          {
            "name": "svg",
            "type": "SVG",
            "link": 42
          },
          {
            "name": "filename_prefix",
            "type": "STRING",
            "widget": {
              "name": "filename_prefix"
            },
            "link": 44
          }
        ],
        "outputs": [],
        "properties": {
          "cnr_id": "comfy-core",
          "ver": "0.17.2",
          "Node name for S&R": "SaveSVGNode"
        },
        "widgets_values": [
          "Icons/apps-"
        ]
      },
      {
        "id": 33,
        "type": "TS_ImageToSVGStringBW_Vtracer",
        "pos": [
          -4400.384632109113,
          -795.4639314421659
        ],
        "size": [
          314.01666259765625,
          234.66665649414062
        ],
        "flags": {},
        "order": 12,
        "mode": 0,
        "inputs": [
          {
            "name": "image",
            "type": "IMAGE",
            "link": 39
          }
        ],
        "outputs": [
          {
            "name": "STRING",
            "shape": 6,
            "type": "STRING",
            "links": [
              41
            ]
          }
        ],
        "properties": {
          "cnr_id": "comfyui-tosvg",
          "ver": "1.0.1",
          "Node name for S&R": "TS_ImageToSVGStringBW_Vtracer"
        },
        "widgets_values": [
          "spline",
          4,
          60,
          4,
          45
        ]
      },
      {
        "id": 34,
        "type": "TS_SVGStringToSVGBytesIO",
        "pos": [
          -4063.452498661662,
          -778.437538531151
        ],
        "size": [
          225,
          72
        ],
        "flags": {},
        "order": 13,
        "mode": 0,
        "inputs": [
          {
            "name": "SVG_String",
            "type": "STRING",
            "link": 41
          }
        ],
        "outputs": [
          {
            "name": "SVG",
            "type": "SVG",
            "links": [
              42
            ]
          }
        ],
        "properties": {
          "cnr_id": "comfyui-tosvg",
          "ver": "1.0.1",
          "Node name for S&R": "TS_SVGStringToSVGBytesIO"
        },
        "widgets_values": []
      },
      {
        "id": 35,
        "type": "PrimitiveString",
        "pos": [
          -4406.6504763764315,
          -1528.2859142578614
        ],
        "size": [
          270,
          108
        ],
        "flags": {},
        "order": 5,
        "mode": 0,
        "inputs": [],
        "outputs": [
          {
            "name": "STRING",
            "type": "STRING",
            "links": [
              43,
              44
            ]
          }
        ],
        "properties": {
          "cnr_id": "comfy-core",
          "ver": "0.17.2",
          "Node name for S&R": "PrimitiveString"
        },
        "widgets_values": [
          "Icons/soup-"
        ]
      }
    ],
    "links": [
      [
        4,
        6,
        0,
        7,
        0,
        "MODEL"
      ],
      [
        5,
        7,
        0,
        8,
        0,
        "MODEL"
      ],
      [
        6,
        5,
        0,
        8,
        1,
        "CLIP"
      ],
      [
        7,
        8,
        1,
        9,
        0,
        "CLIP"
      ],
      [
        8,
        8,
        1,
        10,
        0,
        "CLIP"
      ],
      [
        9,
        9,
        0,
        11,
        1,
        "CONDITIONING"
      ],
      [
        10,
        10,
        0,
        11,
        2,
        "CONDITIONING"
      ],
      [
        13,
        4,
        0,
        11,
        4,
        "VAE"
      ],
      [
        14,
        11,
        5,
        13,
        0,
        "IMAGE"
      ],
      [
        33,
        8,
        0,
        11,
        0,
        "MODEL"
      ],
      [
        37,
        27,
        0,
        11,
        3,
        "LATENT"
      ],
      [
        39,
        11,
        5,
        33,
        0,
        "IMAGE"
      ],
      [
        41,
        33,
        0,
        34,
        0,
        "STRING"
      ],
      [
        42,
        34,
        0,
        32,
        0,
        "SVG"
      ],
      [
        43,
        35,
        0,
        13,
        1,
        "STRING"
      ],
      [
        44,
        35,
        0,
        32,
        1,
        "STRING"
      ]
    ],
    "groups": [],
    "config": {},
    "extra": {
      "ds": {
        "scale": 1.2284597357368294,
        "offset": [
          5921.802311883496,
          1152.1249613316322
        ]
      },
      "workflowRendererVersion": "Vue",
      "frontendVersion": "1.41.20",
      "VHS_latentpreview": false,
      "VHS_latentpreviewrate": 0,
      "VHS_MetadataImage": true,
      "VHS_KeepIntermediate": true
    },
    "version": 0.4
  }
}
                ]]>
            </metadata>
            
<path d="M0 0 C14.324642525851004 -0.33313122153141705 32.33716849746685 0.36526412411065223 45.23828125 7.16015625 C48.99766097547064 11.094390846422755 50.1414678090091 14.738603554508131 50.23828125 20.16015625 C47.11935900714087 28.966524935719804 40.625314749588085 33.90642090500363 32.82421875 38.484375 C30.13955443556523 40.22413480497357 28.255541581178477 41.67298104841666 26.23828125 44.16015625 C25.84765625 47.175781249999986 25.84765625 47.175781249999986 25.98828125 50.41015625 C26.024374999999964 51.48781249999999 26.06046875000004 52.56546875000001 26.09765625 53.67578125 C26.144062500000018 54.49562499999999 26.190468750000036 55.31546875000001 26.23828125 56.16015625 C27.192670898437484 56.2802001953125 28.147060546875025 56.400244140625006 29.13037109375 56.52392578125 C78.46380703649675 62.78841488780155 129.22259908427168 72.52203018682224 163.83984375 111.3125 C165.23828125 113.16015624999997 165.23828125 113.16015624999997 165.23828125 115.16015625 C166.04910156250003 115.30710937499998 166.859921875 115.45406250000002 167.6953125 115.60546875 C180.95681373615196 118.29173326116467 190.0334660539728 123.31807902667833 198.23828125 134.16015625 C201.25043842842632 140.18447060685264 199.2381177033489 149.66121930323203 198.23828125 156.16015625 C199.15609375000003 156.1975390625 200.07390625 156.234921875 201.01953125 156.2734375 C217.80265811897192 157.17253358226634 217.80265811897192 157.17253358226634 223.55078125 163.41015625 C227.96963956195725 169.17754897868534 229.8733407368003 174.551785526364 229.56640625 181.80859375 C228.916587947673 186.46562491667677 226.88598294779922 188.85436893613146 223.26171875 191.7265625 C216.25874039366659 196.51748896282493 208.5746865133898 199.97041975200273 200.851806640625 203.4326171875 C186.31727776935276 210.0774366733341 186.31727776935276 210.0774366733341 183.23828125 217.16015625 C182.84011251183557 218.82581557313074 182.50624711574454 220.5075115748068 182.22021484375 222.196044921875 C182.1329513549805 222.70103767395017 182.1329513549805 222.70103767395017 181.69134521484375 225.25660705566406 C181.50831848144531 226.35270797729493 181.32529174804688 227.4488088989258 181.13671875 228.578125 C180.9391900634766 229.72744003295895 180.74166137695312 230.87675506591796 180.53814697265625 232.06089782714844 C180.1130673373579 234.5349056830811 179.69055137814098 237.009355109519 179.27032470703125 239.48419189453125 C178.16661808005125 245.97406888303163 177.03909612466254 252.45978416698216 175.91015625 258.9453125 C175.68449981689452 260.2424920654297 175.4588433837891 261.5396716308594 175.22634887695313 262.87615966796875 C173.21869130288746 274.3683059599111 171.0913332921612 285.8338554857097 168.86328125 297.28515625 C168.70655944824216 298.1010824584961 168.54983764648438 298.91700866699216 168.38836669921875 299.7576599121094 C160.7402976583652 339.4876323292978 160.7402976583652 339.4876323292978 148.23828125 353.16015625 C147.508671875 353.9812890625 146.7790625 354.802421875 146.02734375 355.6484375 C134.62771747659394 367.8043496588586 120.60725322705628 373.63118882817696 105.23828125 379.16015625 C104.57473632812503 379.4036279296875 103.91119140625 379.647099609375 103.2275390625 379.89794921875 C92.97954620199079 383.5664179939086 82.29180496670966 385.41318182749393 71.61328125 387.34765625 C70.92659362792966 387.47448791503905 70.23990600585938 387.6013195800781 69.53240966796875 387.73199462890625 C48.58205280783557 391.56017859246344 27.62607926017745 392.5180511436143 6.36328125 392.41015625 C5.2682125854491915 392.40705444335936 4.17314392089844 392.40395263671877 3.044891357421875 392.4007568359375 C-12.636766722022145 392.34872431594334 -28.18629162976137 392.1472448893648 -43.76171875 390.16015625 C-44.82148925781249 390.03125 -45.881259765625 389.90234375 -46.97314453125 389.76953125 C-79.12623286636202 385.76372471481085 -115.63673918463522 379.26642292858344 -140.76171875 357.16015625 C-141.17228515624998 356.85335937499997 -141.17228515624998 356.85335937499997 -143.25 355.30078125 C-159.24437694117933 341.6694926593837 -162.959368435843 318.0494946142697 -166.78515625 298.56640625 C-167.0561274471041 297.2047133797321 -167.32751095079743 295.8431025019788 -167.59927368164063 294.4815673828125 C-168.30818367569842 290.92376485852503 -169.01118935799514 287.3648212542936 -169.71295166015625 283.80560302734375 C-170.2697454405071 280.9866691121611 -170.83067037577996 278.16856570051453 -171.39188766479492 275.3505096435547 C-172.0868811257016 271.8602538444036 -172.77986915068578 268.3696005607205 -173.47265625 264.87890625 C-173.6093044281006 264.1908792114258 -173.74595260620117 263.5028521728516 -173.8867416381836 262.7939758300781 C-175.43238886045899 255.00378827183408 -176.94729902077822 247.2090734101361 -178.4072265625 239.40234375 C-178.8065990522254 237.2825698691576 -179.20646941956483 235.162890408223 -179.6064338684082 233.04322814941406 C-179.9775634545697 231.06114648782318 -180.33979128721643 229.07740451388565 -180.70175170898438 227.0936279296875 C-182.9250606308954 215.30007218160245 -182.9250606308954 215.30007218160245 -185.76171875 210.16015625 C-188.2533255466397 208.46431382501436 -190.3042864141033 207.29132794748182 -193.01171875 206.09765625 C-193.71756103515625 205.7645947265625 -194.4234033203125 205.431533203125 -195.150634765625 205.08837890625 C-199.9237945691036 202.87262955965025 -204.79161386381148 200.92926446819502 -209.69921875 199.03515625 C-217.78674291812797 195.87863310421164 -225.9444873098403 192.45848546773846 -229.76171875 184.16015625 C-231.081542405139 176.50517905019376 -227.69852076699004 170.62570700783036 -223.76171875 164.16015625 C-221.70267534203168 161.71803499868875 -220.88951220662594 161.20275406887532 -217.76171875 160.16015625 C-216.13452393326435 160.07871769766095 -214.50420155737493 160.05262605116744 -212.875 160.0625 C-211.93720703125 160.06572265625 -210.9994140625 160.0689453125 -210.033203125 160.072265625 C-209.544970703125 160.07645507812498 -209.544970703125 160.07645507812498 -207.07421875 160.09765625 C-206.08615234375 160.10216796875 -205.0980859375 160.1066796875 -204.080078125 160.111328125 C-201.64056401052798 160.12311321734043 -199.20117185919995 160.13956613805377 -196.76171875 160.16015625 C-195.95874926803765 155.05635022766404 -195.68573805725896 151.2401665365368 -196.88671875 146.16015625 C-197.91561752350165 140.55759101072735 -197.70646777893327 137.0503531933549 -194.76171875 132.16015625 C-194.41496093749998 131.5671875 -194.068203125 130.97421875 -193.7109375 130.36328125 C-189.0173904785453 123.79522164102934 -179.90306827174408 119.33663147488647 -172.1328125 117.55859375 C-171.3916015625 117.44773437499998 -170.650390625 117.33687500000002 -169.88671875 117.22265625 C-164.3765868681076 116.32493813441079 -161.1656808794312 112.3282731431811 -157.76171875 108.16015625 C-157.43171875000002 107.50015625 -157.10171875 106.84015625 -156.76171875 106.16015625 C-156.10171875 106.16015625 -155.44171875 106.16015625 -154.76171875 106.16015625 C-154.76171875 105.50015625 -154.76171875 104.84015625 -154.76171875 104.16015625 C-125.61511115547017 76.53220957221922 -86.82488972520576 64.6596863779456 -47.94921875 59.16015625 C-47.20187469482423 59.0540200805664 -46.454530639648425 58.947883911132806 -45.684539794921875 58.838531494140625 C-38.026942051720084 57.77135485105575 -30.506016198225893 56.882645031250576 -22.76171875 57.16015625 C-22.70748236784783 55.243804080623704 -22.668819121370433 53.32700699754925 -22.63671875 51.41015625 C-22.61351562499999 50.34281250000001 -22.59031250000001 49.27546875 -22.56640625 48.17578125 C-22.767414648329122 45.07221157979845 -22.916398933780755 43.632780253035975 -24.76171875 41.16015625 C-27.5546875 39.265625 -27.5546875 39.265625 -30.94921875 37.34765625 C-37.48219655854163 33.52198187430534 -43.79990238885179 29.407734534652988 -46.76171875 22.16015625 C-47.427089522799804 17.835246226801246 -47.32739493428329 14.26691400185861 -45.32421875 10.34765625 C-33.42482830583799 0.18964001717877466 -14.77493679570702 0.629047153295943 0 0 Z M-31.76171875 10.16015625 C-32.09171875000001 11.480156249999993 -32.42171875 12.80015625 -32.76171875 14.16015625 C-22.670042654410253 18.545759972476617 -10.696570838258168 17.346477143893537 0.12646484375 17.345458984375 C2.7329121222104504 17.347651733066925 5.338939324519174 17.36588596982483 7.9453125 17.384765625 C28.65035098431025 17.454121382844875 28.65035098431025 17.454121382844875 35.23828125 14.16015625 C35.073281250000036 13.665156249999995 35.073281250000036 13.665156249999995 34.23828125 11.16015625 C33.05613037109373 11.165393066406253 31.873979492187516 11.170629882812506 30.656005859375 11.176025390625 C-12.599751680339608 11.351133115594877 -12.599751680339608 11.351133115594877 -31.76171875 10.16015625 Z M-15.92041015625 82.131103515625 C-27.663733557438547 86.54546360699158 -39.16391398313053 90.1788755054574 -51.76171875 87.16015625 C-51.10171875 89.80015624999999 -50.44171875000001 92.44015625 -49.76171875 95.16015625 C-50.79296875 94.93328125 -51.82421875 94.70640624999999 -52.88671875 94.47265625 C-57.47879528233881 94.10232749739203 -58.724659729430385 95.06686638748243 -62.76171875 97.16015625 C-66.14201966361145 97.89572295247291 -69.52383839950664 98.53723153244977 -72.93359375 99.12109375 C-75.76171875 100.16015625 -75.76171875 100.16015625 -77.01953125 102.6796875 C-77.26445312499999 103.49824218750001 -77.509375 104.316796875 -77.76171875 105.16015625 C-79.88671875 106.47265625 -79.88671875 106.47265625 -81.76171875 107.16015625 C-81.43171874999999 109.14015625000002 -81.10171875 111.12015625000001 -80.76171875 113.16015625 C-79.44171875 113.49015624999998 -78.12171875000001 113.82015625 -76.76171875 114.16015625 C-77.60734375000001 115.02640625000001 -78.45296875 115.89265625000002 -79.32421875 116.78515625 C-80.73046875 118.45703125 -80.73046875 118.45703125 -81.76171875 120.16015625 C-81.45668443591583 122.1646674568388 -81.1209119567607 124.16463843466283 -80.76171875 126.16015625 C-81.56904431582282 128.29871014244554 -82.60142559207702 130.20958044408457 -83.703125 132.2109375 C-86.01881062635081 136.47487524003344 -87.04614396260976 140.32492763563388 -86.76171875 145.16015625 C-80.27118538916687 144.86580099554044 -76.2508741167473 143.60433216639046 -70.76171875 140.16015625 C-67.68925466962881 138.97081531566278 -66.3057450275353 139.22634598390616 -62.88671875 139.72265625 C-60.78515625 139.7890625 -60.78515625 139.7890625 -58.76171875 139.16015625 C-56.847510900093596 136.6734341801444 -55.522531973728235 134.18305484142448 -54.18359375 131.34765625 C-53.71437499999999 130.62578125 -53.24515625000001 129.90390625 -52.76171875 129.16015625 C-51.44171875000001 129.16015625 -50.121718750000014 129.16015625 -48.76171875 129.16015625 C-47.01171875 131.66015625 -47.01171875 131.66015625 -45.76171875 134.16015625 C-38.912616582538334 133.63330223711833 -32.855976066371795 130.52290809411176 -28.32421875 125.41015625 C-24.536744654624783 122.08456923942666 -20.66002118982044 122.26478018560783 -15.76171875 122.16015625 C-15.759140624999986 121.32613281249999 -15.756562500000001 120.49210937499998 -15.75390625 119.6328125 C-15.505613834588985 112.40750321153928 -14.688286593170858 107.76290107281736 -10.13671875 102.0625 C-8.663950253889368 100.02489131361966 -8.081499224263723 98.6434514954542 -7.76171875 96.16015625 C-7.926718749999992 95.66515625 -7.926718749999992 95.66515625 -8.76171875 93.16015625 C-7.658335458428212 90.2178008058086 -6.627288711817073 88.59123735303095 -3.77734375 87.171875 C-1.7970279273805545 86.43101216565123 0.2195766687947298 85.78893308676885 2.23828125 85.16015625 C2.279531249999991 85.82015625 2.320781249999982 86.48015625 2.36328125 87.16015625 C3.9146977945054005 92.47929868830411 7.368319252109586 96.6737762003948 11.67578125 100.09765625 C14.23828125 101.16015625 14.23828125 101.16015625 17.30078125 101.41015625 C22.351072267946506 101.86523741865011 26.26353379778527 105.1121108761161 30.37109375 107.859375 C33.23828125 109.16015625 33.23828125 109.16015625 35.9921875 108.4375 C39.95749842858112 106.18244491539821 39.95749842858112 106.18244491539821 41.23828125 104.16015625 C41.48588116949867 101.44193974246042 41.373060583724055 98.90066936905586 41.23828125 96.16015625 C47.93974943923331 97.9643976855628 47.93974943923331 97.9643976855628 50.14453125 99.41015625 C52.23828125 100.16015625 52.23828125 100.16015625 54.81640625 99.04296875 C55.257265625 98.7529296875 55.257265625 98.7529296875 57.48828125 97.28515625 C58.3803125 96.710234375 59.272343750000005 96.1353125 60.19140625 95.54296875 C60.52914062499997 95.31480468749999 60.52914062499997 95.31480468749999 62.23828125 94.16015625 C62.22265625 91.42578125000006 62.22265625 91.42578125000006 61.23828125 88.16015625 C58.88448352906255 86.25936511254594 56.24544016915286 85.12369450666938 53.48828125 83.91015625 C52.77156249999996 83.572421875 52.05484375000003 83.2346875 51.31640625 82.88671875 C49.30271676999149 81.94650344131955 47.27617599773828 81.04643849746176 45.23828125 80.16015625 C44.306289062500014 79.7463671875 43.37429687500003 79.332578125 42.4140625 78.90625 C38.89930878237715 77.70101129252072 35.857008727081734 78.71069747243868 32.3671875 79.6796875 C29.974304001147857 80.21973276671343 27.686225725191434 80.38215972030054 25.23828125 80.53515625 C19.042648950314003 81.04518805874608 13.21548326130926 82.50156092749012 7.23828125 84.16015625 C7.114531250000027 83.3648046875 6.990781249999998 82.569453125 6.86328125 81.75 C6.23828125 79.16015625 6.23828125 79.16015625 4.23828125 77.72265625 C-2.618631799113018 76.43698505329132 -9.578523814375927 79.73788689625354 -15.92041015625 82.131103515625 Z M-79.76171875 87.16015625 C-80.5703125 89.36328125 -80.5703125 89.36328125 -80.76171875 91.16015625 C-70.67328712779232 92.71870309768968 -63.39418897296062 91.67024362635783 -54.76171875 86.16015625 C-54.76171875 85.17015624999999 -54.76171875 84.18015624999998 -54.76171875 83.16015625 C-63.349164415772776 78.3089340971261 -72.38580543047507 81.32368037465903 -79.76171875 87.16015625 Z M-105.51171875 91.41015625 C-106.62031250000001 92.0340625 -107.72890625 92.65796875000001 -108.87109375 93.30078125 C-113.28130594460828 96.13762044545072 -113.28130594460828 96.13762044545072 -114.76171875 98.16015625 C-114.76171875 99.48015625 -114.76171875 100.80015624999999 -114.76171875 102.16015625 C-109.94944723085223 104.56629200957389 -102.00208309280555 103.07390882751753 -96.76171875 102.16015625 C-93.6080885821915 100.98579187788721 -91.01043273833 99.69594010918064 -88.76171875 97.16015625 C-87.9765625 95.12890625 -87.9765625 95.12890625 -87.76171875 93.16015625 C-89.87587294159852 90.07701472058551 -91.36474180049498 89.26035936889679 -94.99609375 88.34375 C-99.54325306885184 88.12205239835475 -101.5999517354982 89.15124853740036 -105.51171875 91.41015625 Z M101.23828125 103.16015625 C100.51034058170461 106.36309519049979 100.65390691381367 108.22826362086568 102.4140625 111.03515625 C105.35380850498768 114.6813528453336 107.67084653786202 116.78394229743441 112.23828125 118.16015625 C115.31640625 118.390625 115.31640625 118.390625 118.48828125 118.34765625 C119.54531250000002 118.3412109375 120.60234374999999 118.33476562499999 121.69140625 118.328125 C124.23828125 118.16015625 124.23828125 118.16015625 125.23828125 117.16015625 C125.91926685138321 112.45162723472183 125.99117378017831 109.1787755555354 123.11328125 105.28515625 C117.40416313466591 101.06537329518787 106.84506135316371 95.84696481109077 101.23828125 103.16015625 Z M56.23828125 107.16015625 C55.908281250000016 108.81015625 55.578281249999975 110.46015625000001 55.23828125 112.16015625 C56.466109867463274 112.78778080383978 57.695619610018696 113.41211689814256 58.92578125 114.03515625 C59.6566796875 114.40640625 60.387578125000005 114.77765625 61.140625 115.16015625 C63.23828125 116.16015625 63.23828125 116.16015625 65.98828125 117.03515625 C68.23828125 118.16015625 68.23828125 118.16015625 70.11328125 121.09765625 C72.7802819132171 124.94127485287169 74.80063534011725 125.80629817579847 79.23828125 127.16015625 C83.17578125 127.34765625 83.17578125 127.34765625 86.23828125 127.16015625 C86.23828125 126.50015625 86.23828125 125.84015625 86.23828125 125.16015625 C87.55828125 124.99515625000001 87.55828125 124.99515625000001 94.23828125 124.16015625 C94.23828125 123.17015624999999 94.23828125 122.18015624999998 94.23828125 121.16015625 C91.26828124999997 120.17015624999999 88.29828125 119.18015624999998 85.23828125 118.16015625 C85.11453125000003 117.21140624999998 84.99078125 116.26265624999999 84.86328125 115.28515625 C84.23828125 112.16015625 84.23828125 112.16015625 82.23828125 110.16015625 C80.21484375 109.7109375 80.21484375 109.7109375 77.86328125 109.47265625 C77.4778515625 109.42947265625 77.4778515625 109.42947265625 75.52734375 109.2109375 C73.23828125 109.16015625 73.23828125 109.16015625 71.30078125 109.73046875 C68.41962934133176 110.33070873097256 66.40938450562709 109.5705312264368 63.61328125 108.72265625 C58.38626331278027 107.16015625 58.38626331278027 107.16015625 56.23828125 107.16015625 Z M-125.32421875 111.84765625 C-126.76171875 114.16015625 -126.76171875 114.16015625 -126.57421875 116.84765625 C-125.76171875 119.16015625 -125.76171875 119.16015625 -124.76171875 120.16015625 C-122.51171875 120.53515625 -122.51171875 120.53515625 -119.76171875 120.16015625 C-116.94921875 117.97265625 -116.94921875 117.97265625 -114.76171875 115.16015625 C-114.44921875 112.34765625 -114.44921875 112.34765625 -114.76171875 110.16015625 C-122.0262927410314 109.67585131726457 -122.0262927410314 109.67585131726457 -125.32421875 111.84765625 Z M-98.76171875 110.16015625 C-98.43171874999999 111.15015625000001 -98.10171875 112.14015625000002 -97.76171875 113.16015625 C-96.77171874999999 112.83015625000002 -95.78171875000001 112.50015625 -94.76171875 112.16015625 C-94.76171875 111.50015625 -94.76171875 110.84015625 -94.76171875 110.16015625 C-96.08171875 110.16015625 -97.40171874999999 110.16015625 -98.76171875 110.16015625 Z M-91.76171875 121.16015625 C-92.09171875000001 122.48015625 -92.42171875 123.80015624999999 -92.76171875 125.16015625 C-91.93671875000001 125.49015624999998 -91.93671875000001 125.49015624999998 -87.76171875 127.16015625 C-88.09171875000001 125.18015624999998 -88.42171875 123.20015625000002 -88.76171875 121.16015625 C-89.75171875000001 121.16015625 -90.74171874999999 121.16015625 -91.76171875 121.16015625 Z M-185.62890625 131.82421875 C-188.05807881110286 134.74210058375078 -189.64534084024504 137.13603064415636 -190.07421875 140.91015625 C-189.58120190575568 146.0375314301408 -187.5340204434392 148.63362295545568 -183.76171875 151.8828125 C-124.39670088629441 196.30893606576655 4.737691420845863 185.1076767360254 73.23828125 179.16015625 C73.89111083984375 179.10657958984376 73.89111083984375 179.10657958984376 77.19482421875 178.83544921875 C169.66190783224107 171.2129781498963 169.66190783224107 171.2129781498963 190.23828125 148.16015625 C191.93689104500226 143.06432686499323 192.00255662794245 138.89714574532377 189.86328125 134.03515625 C185.1171098046887 128.83696847656384 179.24327157499278 125.22531578063396 172.23828125 124.16015625 C173.3258866649046 129.87008467824901 176.01341237407496 131.90446432542566 180.55859375 135.05859375 C181.11289062499998 135.422109375 181.6671875 135.785625 182.23828125 136.16015625 C182.30078125 138.78515624999997 182.30078125 138.78515624999997 181.23828125 142.16015625 C152.595479060503 169.83201599239538 82.8550121438625 166.7277184521377 45.23828125 168.16015625 C44.4182763671875 168.19173828125 43.598271484375005 168.2233203125 42.75341796875 168.255859375 C19.446757831155537 169.13722255982896 -3.7474579001704456 169.26367184320577 -27.0517578125 168.30859375 C-30.30643820345503 168.1783722655501 -33.56060612991891 168.0696797551023 -36.81640625 167.97265625 C-152.77829738962023 164.21245002555747 -152.77829738962023 164.21245002555747 -180.76171875 140.16015625 C-180.69921875 137.84765625 -180.69921875 137.84765625 -179.76171875 135.16015625 C-178.64796875000002 134.68578125 -177.53421875 134.21140625 -176.38671875 133.72265625 C-172.76171875 132.16015625 -172.76171875 132.16015625 -170.82421875 129.09765625 C-169.76171875 126.16015625 -169.76171875 126.16015625 -169.76171875 124.16015625 C-175.07492106248512 124.16015625 -181.75046250439934 128.36769775496677 -185.62890625 131.82421875 Z M111.23828125 133.16015625 C110.90828125000002 133.65515625 110.90828125000002 133.65515625 109.23828125 136.16015625 C109.56828124999998 136.65515625 109.56828124999998 136.65515625 111.23828125 139.16015625 C112.55828125 138.83015625 113.87828124999999 138.50015625 115.23828125 138.16015625 C115.56828124999998 136.84015625 115.89828125000003 135.52015625 116.23828125 134.16015625 C114.58828125000002 133.83015625 112.93828124999999 133.50015625 111.23828125 133.16015625 Z M-190.76171875 158.16015625 C-191.27281692298794 163.52668706637334 -190.02210437686097 165.9395572188888 -186.76171875 170.16015625 C-178.4851565511815 176.65719786061655 -168.66629259895888 180.82053418830398 -158.76171875 184.16015625 C-158.0622412109375 184.3994384765625 -157.362763671875 184.638720703125 -156.64208984375 184.88525390625 C-126.99516733282638 194.69340593535492 -93.77621153713022 198.0525892598443 -62.76171875 200.16015625 C-62.40370178222656 200.18519226074216 -62.40370178222656 200.18519226074216 -60.5919189453125 200.3118896484375 C-18.202694100216974 203.2523557317221 24.88632689501776 203.97554656963626 67.23828125 200.16015625 C67.9703479003906 200.09463562011717 68.70241455078127 200.02911499023435 69.4566650390625 199.96160888671875 C165.7338780962569 191.24005012169806 165.7338780962569 191.24005012169806 189.23828125 169.16015625 C191.74625776026545 165.7008783048063 192.23828125 164.54762249340192 192.23828125 160.16015625 C189.2820938697405 161.2918217315056 186.40759411987995 162.53566184231877 183.55078125 163.89453125 C172.07057863715409 169.30418470304582 160.55730606602526 173.1453001678773 148.23828125 176.16015625 C147.36574707031252 176.377685546875 146.493212890625 176.59521484375 145.59423828125 176.8193359375 C114.45157773965155 184.3638837175977 81.17792856732649 186.71658014908513 49.23828125 188.16015625 C48.90561248779295 188.1754135131836 48.90561248779295 188.1754135131836 47.22210693359375 188.25262451171875 C5.185833165263205 190.1455338424302 -36.86406421799009 188.93323258540923 -78.76171875 185.16015625 C-80.09212221875941 185.04296673973647 -81.42252585655368 184.92577914843432 -82.7529296875 184.80859375 C-117.66301096026734 181.65577989916463 -155.48703144130832 177.18178934259942 -186.76171875 160.16015625 C-188.09235309387248 159.48811870258967 -189.4246750157202 158.81934990504027 -190.76171875 158.16015625 Z M197.55078125 172.41015625 C196.76316406249998 172.6421875 195.97554687500002 172.87421875 195.1640625 173.11328125 C193.23828125 174.16015625 193.23828125 174.16015625 192.46875 176.26953125 C192.3926953125 176.8934375 192.316640625 177.51734375 192.23828125 178.16015625 C198.39050560513198 177.7284212075346 202.05746074041514 176.50610282910688 207.23828125 173.16015625 C206.90828125000002 172.50015625 206.57828124999997 171.84015625 206.23828125 171.16015625 C202.81553878295261 171.16015625 200.73519272567762 171.42062012202084 197.55078125 172.41015625 Z M-148.76171875 212.16015625 C-148.26158160138272 220.02434842990067 -147.262796290886 227.56641315487354 -145.58203125 235.26171875 C-145.36860076904298 236.2642367553711 -145.15517028808594 237.26675476074217 -144.93527221679688 238.29965209960938 C-144.48660219337285 240.39942290193733 -144.0343460203503 242.4984304452172 -143.57861328125 244.5966796875 C-142.88725928640048 247.78266528126676 -142.2083806903898 250.97112076101007 -141.53125 254.16015625 C-141.09057575977556 256.2150008704514 -140.6491934249793 258.2696937900122 -140.20703125 260.32421875 C-140.0069143676758 261.2630288696289 -139.80679748535158 262.2018389892578 -139.60061645507813 263.1690979003906 C-138.60466959124767 267.7323462760769 -137.5256672849385 272.2685394391197 -136.29638671875 276.77490234375 C-136.07481903076172 277.59364837646484 -135.85325134277343 278.4123944091797 -135.62496948242188 279.2559509277344 C-135.34009674072266 279.884338684082 -135.05522399902344 280.5127264404297 -134.76171875 281.16015625 C-133.77171875 281.49015625 -132.78171874999998 281.82015624999997 -131.76171875 282.16015625 C-129.075927734375 280.55078125 -129.075927734375 280.55078125 -126.76171875 278.16015625 C-126.371337890625 275.76953125 -126.371337890625 275.76953125 -126.734375 272.91015625 C-126.80277587890623 272.3339453125 -126.80277587890623 272.3339453125 -127.14892578125 269.41796875 C-127.351485892644 267.99845368729746 -127.55593019878239 266.57920687776317 -127.76171875 265.16015625 C-128.00434973730086 263.3659672962043 -128.24632760691748 261.5716899476319 -128.48779296875 259.77734375 C-129.19366888826212 254.63691683179803 -129.94737107484463 249.5046153492715 -130.718017578125 244.37353515625 C-131.20212156785522 241.14077173015704 -131.67466334086063 237.90645130757997 -132.146484375 234.671875 C-132.45373442272768 232.6053656460831 -132.76165303775332 230.53895555988237 -133.0703125 228.47265625 C-133.209969329834 227.5111767578125 -133.34962615966796 226.549697265625 -133.49351501464844 225.55908203125 C-135.1326070451346 214.7892679548654 -135.1326070451346 214.7892679548654 -138.76171875 211.16015625 C-142.97359738946562 210.06140530057417 -145.0082120406991 210.04779316684363 -148.76171875 212.16015625 Z " fill="#000000" transform="translate(256.76171875,64.83984375)"/>
<path d="M0 0 C-5.259422755190485 3.5912254075369674 -10.58586671206885 6.982685782912938 -16.090576171875 10.1845703125 C-29.75847530435908 18.1490744983426 -42.47828028070603 27.118375820666813 -54 38 C-54 32.367039493094126 -48.62915357321765 28.635034994059595 -44.8359375 24.828125 C-33.40363230492369 14.045817090262489 -20.113009718453213 6.664960199960035 -6 0 C-3.5090718940471106 -1.2454640529764447 -2.589192668788371 -0.776757800636517 0 0 Z " fill="#000000" transform="translate(240,158)"/>
</svg>
