<svg xmlns="http://www.w3.org/2000/svg" width="512" height="512"><path d="M256.762 64.84c14.324-.333 32.337.365 45.238 7.16 3.76 3.934 4.903 7.578 5 13-3.119 8.806-9.613 13.746-17.414 18.324-2.685 1.74-4.569 3.189-6.586 5.676-.39 3.016-.39 3.016-.25 6.25l.11 3.266L283 121l2.892.364c49.334 6.264 100.092 15.998 134.71 54.788C422 178 422 178 422 180l2.457.445c13.262 2.687 22.338 7.713 30.543 18.555 3.012 6.024 1 15.501 0 22l2.781.113c16.783.9 16.783.9 22.531 7.137 4.42 5.767 6.323 11.142 6.016 18.398-.65 4.657-2.68 7.046-6.305 9.918-7.003 4.791-14.687 8.244-22.41 11.706C443.08 274.917 443.08 274.917 440 282a77 77 0 0 0-1.018 5.036l-.529 3.06-.555 3.322-.598 3.483q-.638 3.71-1.268 7.423a5077 5077 0 0 1-3.36 19.461l-.684 3.931a1821 1821 0 0 1-6.363 34.409l-.475 2.473c-7.648 39.73-7.648 39.73-20.15 53.402-.73.821-1.46 1.642-2.21 2.488-11.4 12.156-25.421 17.983-40.79 23.512l-2.01.738c-10.249 3.668-20.936 5.515-31.615 7.45l-2.08.384c-20.951 3.828-41.907 4.786-63.17 4.678l-3.318-.01c-15.682-.051-31.232-.253-46.807-2.24l-3.211-.39C177.635 450.603 141.125 444.105 116 422l-2.488-1.86c-15.995-13.63-19.71-37.25-23.535-56.734l-.815-4.085q-1.061-5.336-2.113-10.676-.836-4.228-1.68-8.455a16890 16890 0 0 1-2.494-12.556c-1.546-7.79-3.06-15.585-4.52-23.392l-1.2-6.359q-.554-2.974-1.095-5.95C73.837 280.14 73.837 280.14 71 275c-2.492-1.696-4.543-2.869-7.25-4.062l-2.139-1.01c-4.773-2.216-9.64-4.159-14.548-6.053C38.975 260.718 30.817 257.298 27 249c-1.32-7.655 2.063-13.534 6-20 2.059-2.442 2.872-2.957 6-4a87 87 0 0 1 4.887-.098l2.842.01 2.959.025 2.994.014q3.66.018 7.318.049c.803-5.104 1.076-8.92-.125-14-1.029-5.603-.82-9.11 2.125-14l1.05-1.797c4.694-6.568 13.809-11.027 21.579-12.805l2.246-.335c5.51-.898 8.721-4.895 12.125-9.063l1-2h2v-2c29.147-27.628 67.937-39.5 106.813-45l2.264-.322c7.658-1.067 15.179-1.956 22.923-1.678.054-1.916.093-3.833.125-5.75l.07-3.234c-.2-3.104-.35-4.543-2.195-7.016-2.793-1.895-2.793-1.895-6.187-3.812C219.28 98.362 212.962 94.248 210 87c-.665-4.325-.566-7.893 1.438-11.812 11.899-10.159 30.549-9.72 45.324-10.348M225 75l-1 4c10.092 4.386 22.065 3.186 32.888 3.185 2.607.002 5.213.02 7.819.04 20.705.069 20.705.069 27.293-3.225l-1-3-3.582.016C244.162 76.19 244.162 76.19 225 75m15.841 71.97c-11.743 4.415-23.243 8.049-35.841 5.03l2 8-3.125-.687c-4.592-.37-5.838.594-9.875 2.687a232 232 0 0 1-10.172 1.96C181 165 181 165 179.742 167.52L179 170c-2.125 1.313-2.125 1.313-4 2l1 6 4 1-2.562 2.625c-1.407 1.672-1.407 1.672-2.438 3.375q.459 3.007 1 6c-.807 2.139-1.84 4.05-2.941 6.05-2.316 4.265-3.343 8.115-3.059 12.95 6.49-.294 10.51-1.556 16-5 3.072-1.19 4.456-.934 7.875-.437 2.102.066 2.102.066 4.125-.563 1.914-2.487 3.24-4.977 4.578-7.812L204 194h4c1.75 2.5 1.75 2.5 3 5 6.85-.527 12.906-3.637 17.438-8.75 3.787-3.326 7.664-3.145 12.562-3.25l.008-2.527c.248-7.226 1.065-11.87 5.617-17.57 1.473-2.038 2.055-3.42 2.375-5.903l-1-3c1.103-2.942 2.134-4.569 4.984-5.988 1.98-.741 3.997-1.383 6.016-2.012l.125 2c1.551 5.32 5.005 9.514 9.313 12.938C271 166 271 166 274.063 166.25c5.05.455 8.962 3.702 13.07 6.45 2.867 1.3 2.867 1.3 5.62.577 3.966-2.255 3.966-2.255 5.247-4.277.248-2.718.135-5.26 0-8 6.701 1.804 6.701 1.804 8.906 3.25 2.094.75 2.094.75 4.672-.367l2.672-1.758 2.703-1.742L319 159c-.016-2.734-.016-2.734-1-6-2.354-1.9-4.993-3.036-7.75-4.25l-2.172-1.023A254 254 0 0 0 302 145l-2.824-1.254c-3.515-1.205-6.557-.195-10.047.774-2.393.54-4.681.702-7.129.855-6.196.51-12.023 1.966-18 3.625l-.375-2.41C263 144 263 144 261 142.562c-6.857-1.285-13.817 2.016-20.159 4.409M177 152c-.809 2.203-.809 2.203-1 4 10.088 1.559 17.368.51 26-5v-3c-8.587-4.851-17.624-1.836-25 4m-25.75 4.25-3.36 1.89c-4.41 2.837-4.41 2.837-5.89 4.86v4c4.812 2.406 12.76.914 18 0 3.154-1.174 5.751-2.464 8-5 .785-2.031.785-2.031 1-4-2.114-3.083-3.603-3.9-7.234-4.816-4.548-.222-6.604.807-10.516 3.066M358 168c-.728 3.203-.584 5.068 1.176 7.875 2.94 3.646 5.257 5.749 9.824 7.125 3.078.23 3.078.23 6.25.188l3.203-.02C381 183 381 183 382 182c.681-4.709.753-7.981-2.125-11.875-5.71-4.22-16.268-9.438-21.875-2.125m-45 4-1 5q1.842.941 3.688 1.875l2.214 1.125c2.098 1 2.098 1 4.848 1.875C325 183 325 183 326.875 185.938c2.667 3.843 4.687 4.708 9.125 6.062 3.938.188 3.938.188 7 0v-2l8-1v-3l-9-3-.375-2.875C341 177 341 177 339 175c-2.023-.45-2.023-.45-4.375-.687l-2.336-.262C330 174 330 174 328.063 174.57c-2.882.6-4.892-.16-7.688-1.008C315.148 172 315.148 172 313 172m-181.562 4.688c-1.438 2.312-1.438 2.312-1.25 5C131 184 131 184 132 185c2.25.375 2.25.375 5 0 2.813-2.187 2.813-2.187 5-5 .313-2.812.313-2.812 0-5-7.265-.484-7.265-.484-10.562 1.688M158 175l1 3 3-1v-2zm7 11-1 4 5 2-1-6zm-93.867 10.664c-2.43 2.918-4.017 5.312-4.445 9.086.493 5.127 2.54 7.723 6.312 10.973 59.365 44.426 188.5 33.225 257 27.277l3.957-.325C426.424 236.053 426.424 236.053 447 213c1.699-5.096 1.764-9.263-.375-14.125-4.746-5.198-10.62-8.81-17.625-9.875 1.088 5.71 3.775 7.744 8.32 10.898L439 201c.063 2.625.063 2.625-1 6-28.643 27.672-98.383 24.568-136 26l-2.485.096c-23.307.881-46.5 1.008-69.805.052a964 964 0 0 0-9.765-.335C103.983 229.053 103.983 229.053 76 205c.063-2.312.063-2.312 1-5l3.375-1.437C84 197 84 197 85.938 193.938 87 191 87 191 87 189c-5.313 0-11.989 4.208-15.867 7.664M368 198l-2 3 2 3 4-1 1-4zM66 223c-.511 5.367.74 7.78 4 12 8.277 6.497 18.095 10.66 28 14l2.12.725c29.647 9.808 62.866 13.167 93.88 15.275l2.17.152c42.389 2.94 85.478 3.663 127.83-.152l2.218-.199C422.496 256.08 422.496 256.08 446 234c2.508-3.46 3-4.613 3-9a120 120 0 0 0-8.687 3.734c-11.48 5.41-22.994 9.251-35.313 12.266l-2.644.66C371.213 249.203 337.94 251.555 306 253l-2.016.092c-42.036 1.893-84.086.681-125.984-3.092l-3.991-.352C139.099 246.496 101.275 242.022 70 225a464 464 0 0 0-4-2m388.313 14.25-2.387.703C450 239 450 239 449.23 241.11L449 243c6.152-.432 9.82-1.654 15-5l-1-2c-3.423 0-5.503.26-8.687 1.25M108 277c.5 7.864 1.499 15.406 3.18 23.102l.646 3.037q.674 3.15 1.357 6.298c.691 3.186 1.37 6.374 2.047 9.563l1.325 6.164.606 2.845c.996 4.563 2.075 9.1 3.304 13.606l.672 2.48L122 346l3 1c2.686-1.61 2.686-1.61 5-4 .39-2.39.39-2.39.027-5.25l-.414-3.492q-.304-2.13-.613-4.258-.365-2.69-.726-5.383a1250 1250 0 0 0-2.23-15.404c-.484-3.232-.957-6.467-1.429-9.701q-.46-3.1-.924-6.2l-.423-2.913c-1.639-10.77-1.639-10.77-5.268-14.399-4.212-1.099-6.246-1.112-10 1"/><path d="M240 158a263 263 0 0 1-16.09 10.185C210.241 176.149 197.521 185.118 186 196c0-5.633 5.37-9.365 9.164-13.172C206.596 172.046 219.887 164.665 234 158c2.49-1.245 3.41-.777 6 0"/></svg>