<svg xmlns="http://www.w3.org/2000/svg" width="512" height="512"><path d="M336.035 32.758c1.902.93 1.902.93 4.965 3.242 1.678 5.163.264 8.559-1.937 13.25-2.912 6.755-4.697 12.494-2.43 19.785 1.844 4.179 4.548 7.51 7.43 11.028 6.4 7.828 8.561 15.448 7.722 25.515-1.269 7.687-4.379 16.562-10.785 21.422h-2l.14-3.516c.32-11.384-.108-22.387-7.456-31.773-3.108-3.158-6.627-5.83-10.09-8.586-6.67-5.465-9.938-11.286-11.094-19.812.252-6.131 3.162-11.74 5.5-17.313l1.27-3.398 1.23-3.227c.36-.962.722-1.923 1.094-2.914 3.81-6.668 10.027-6.092 16.441-3.703"/><path d="m362.438 53.063 2.246.222c5.256 1.622 8.148 5.572 11.128 9.965 2.57 3.65 5.144 6.859 8.375 9.938 5.865 5.61 9.9 11.602 10.125 19.874C394.18 103.208 389.65 110.608 383 118a368 368 0 0 1-3.5 3.188c-6.142 5.891-11.32 16.272-11.598 24.828l.036 3.234.027 3.266L368 155c-3.143-.59-3.86-.839-6.062-3.375-5.113-8.487-6.43-19.303-4.47-28.926 1.057-3.438 2.468-6.57 4.067-9.793C367.958 99.908 367.958 99.908 366 93c-2.87-4.74-7.064-8.083-11.25-11.625-4.148-3.545-6.207-6.718-7.312-12.125.994-5.745 4.236-11.07 8.488-15.055 2.476-1.427 3.699-1.479 6.512-1.133M243.953 93.797l2.706-.017q2.84-.015 5.68-.02a1141 1141 0 0 0 8.657-.073l5.52-.015 2.604-.038c5.045.02 8.512.558 12.88 3.366 5.576 6.922 4.113 16.637 4 25l2.21.227c19.175 2.414 38.363 9.742 52.79 22.773l2.332 2.016c7.902 7.27 13.89 16.321 15.668 26.984H152c6.634-19.901 19.4-31.906 37.5-41.687 11.329-5.461 23.988-9.065 36.5-10.313l-.07-3.035q-.029-2.014-.055-4.028l-.07-3.972c.274-5.574.997-9.588 4.695-13.84 4.333-3.683 7.975-3.301 13.453-3.328M238 107v14h36v-14c-2.904-2.904-5.068-2.259-9.125-2.266l-2.13-.005a682 682 0 0 0-4.458.01c-2.278.011-4.556 0-6.834-.012q-2.164 0-4.328.007l-3.992.007C240 105 240 105 238 107m-100.214 74.626 2.205.002 2.544-.02 2.81.025 2.973-.01c3.308-.008 6.616.007 9.924.02q3.546 0 7.09-.006 8.648-.004 17.294.02c6.707.018 13.414.02 20.12.02q17.945.005 35.889.042a20590 20590 0 0 0 43.51.043l2.15.001q16.586.007 33.172.028l12.043.01q10.438.007 20.877.031 3.476.007 6.95.008 4.723.004 9.445.02l2.817-.003c6.287.029 6.287.029 7.401 1.143a108 108 0 0 1 .098 5.566l-.01 3.409-.026 3.588-.013 3.6A2999 2999 0 0 1 377 208c-5.293 2.168-9.929 2.28-15.547 2.247l-2.892.008c-3.195.005-6.389-.003-9.583-.012l-6.875.006c-6.22.005-12.441-.003-18.662-.013-6.505-.01-13.01-.007-19.515-.007q-16.38-.002-32.762-.023-16.86-.021-33.719-.02h-4.194q-18.222 0-36.442-.013-7.763-.006-15.525-.006-9.13-.002-18.263-.017-3.357-.004-6.716-.004-4.57 0-9.139-.012l-2.708.004c-3.4-.013-6.21-.056-9.458-1.138a1655 1655 0 0 1-.625-11.812l-.195-3.393-.157-3.252-.158-3c.16-3.017.669-5.236 3.921-5.917M151 217c13.93-.048 27.835-.094 41.754.492 19.333.696 38.666.66 58.008.638q7.71-.006 15.42.004c21.326.02 42.618-.127 63.93-.914 9.96-.355 19.922-.31 29.888-.22.843 3.666 1.127 7.053 1.134 10.811l.013 3.521.026 25.806q.014 12.039.012 24.077.001 11.195.026 22.39.019 9.63.018 19.262-.002 5.743.013 11.486.014 5.409.003 10.818c-.002 1.94.006 3.88.015 5.82-.051 14.382-2.827 25.89-12.26 37.009l-1.746 1.227c-2.096 2.964-.834 6.37-.254 9.773a230 230 0 0 0 1.674 7.255l.503 2.048q.536 2.178 1.077 4.354a2181 2181 0 0 1 1.702 6.899c1.4 5.707 2.81 11.413 4.222 17.118q1.795 7.253 3.574 14.51.836 3.393 1.682 6.782l1.021 4.168c.3 1.208.598 2.416.906 3.661C364 469 364 469 364 474h-19c-6.12-12.017-11.769-24.18-17.25-36.5a7622 7622 0 0 0-3.567-7.99q-1.098-2.457-2.19-4.915c-1.664-3.727-3.385-7.398-5.246-11.03C315 410 315 410 315 408l-1.766.427c-2.742.658-5.488 1.303-8.234 1.948l-2.773.672c-15.305 3.564-30.272 4.328-45.914 4.265l-2.807-.004c-13.365-.039-26.407-.413-39.506-3.308l-2.479-.535A399 399 0 0 1 197 408l-.795 2.556c-1.273 3.639-2.817 7.082-4.478 10.553l-.97 2.05a2432 2432 0 0 1-2.063 4.344c-1.808 3.8-3.606 7.606-5.405 11.411l-1.096 2.316A2362 2362 0 0 0 172 463.125l-1.544 3.354L167 474h-20a315 315 0 0 1 4.645-22.09l.762-3.105q1.2-4.872 2.405-9.743l1.58-6.423.786-3.189q.776-3.15 1.547-6.3a711 711 0 0 1 3.847-15.033l.736-2.785a375 375 0 0 1 1.405-5.145c1.475-5.603 1.475-5.603.51-8.6L164 390l-1.586-2.078-1.789-2.172c-8.716-11.071-9.927-21.428-9.852-35.244v-4.378c-.002-3.942.01-7.883.024-11.825.013-4.126.014-8.253.016-12.38q.011-11.707.043-23.416c.022-8.89.033-17.78.043-26.67q.032-27.418.101-54.837m73 73c-.1 1.623-.13 3.25-.133 4.875l-.004 2.984.012 3.141-.012 3.14.004 2.985.004 2.758C224 312 224 312 225 313c2.67.141 5.324.042 8 0l1-6h44v5c1 1 1 1 2.813 1.133l2.187-.008 2.188.008C287 313 287 313 288 312c.1-1.623.13-3.25.133-4.875l.004-2.984-.012-3.141.012-3.14-.004-2.985-.004-2.758C288 290 288 290 287 289c-1.812-.133-1.812-.133-4-.125l-2.187-.008C279 289 279 289 278 290v7l-44-1v-6c-1-1-1-1-2.812-1.133l-2.188.008-2.187-.008C225 289 225 289 224 290"/></svg>