<?xml version="1.0" encoding="UTF-8"?>
<!-- Generator: visioncortex VTracer 0.6.12 -->
<svg version="1.1" xmlns="http://www.w3.org/2000/svg" width="512" height="512">
  <metadata>
                <![CDATA[
            {
  "prompt": {
    "4": {
      "inputs": {
        "vae_name": "ae.safetensors"
      },
      "class_type": "VAELoader",
      "_meta": {
        "title": "Load VAE"
      }
    },
    "5": {
      "inputs": {
        "clip_name": "qwen3_4b_fp8_scaled.safetensors",
        "type": "lumina2",
        "device": "default"
      },
      "class_type": "CLIPLoader",
      "_meta": {
        "title": "Load CLIP"
      }
    },
    "6": {
      "inputs": {
        "ckpt_name": "zEpicrealism_turboV1Fp8.safetensors"
      },
      "class_type": "CheckpointLoaderSimple",
      "_meta": {
        "title": "Load Checkpoint"
      }
    },
    "7": {
      "inputs": {
        "shift": 6.0,
        "model": [
          "6",
          0
        ]
      },
      "class_type": "ModelSamplingAuraFlow",
      "_meta": {
        "title": "ModelSamplingAuraFlow"
      }
    },
    "8": {
      "inputs": {
        "PowerLoraLoaderHeaderWidget": {
          "type": "PowerLoraLoaderHeaderWidget"
        },
        "lora_1": {
          "on": true,
          "lora": "MinimalistVectorArtZ.safetensors",
          "strength": 0.4
        },
        "lora_2": {
          "on": false,
          "lora": "None",
          "strength": 0.75
        },
        "\u2795 Add Lora": "",
        "model": [
          "7",
          0
        ],
        "clip": [
          "5",
          0
        ]
      },
      "class_type": "Power Lora Loader (rgthree)",
      "_meta": {
        "title": "Power Lora Loader (rgthree)"
      }
    },
    "9": {
      "inputs": {
        "text": "A bold, heavy solid black icon of a vertical drum smoker. Front profile. One single, substantial contiguous dark mass of the cylindrical body, the domed lid, and the short, thick legs. High-contrast linocut style. Thick, bold white negative space is used only to define: 1) a chunky 'arc' handle on the lid, and 2) a single horizontal white 'slash' representing the heavy door latch. Rising from the lid are three thick, bold, geometric white 'S-curves' to represent smoke. No fine lines, no gray, heavy visual weight. Isolated on white. Optimized for a clean, single-boolean SVG silhouette.",
        "clip": [
          "8",
          1
        ]
      },
      "class_type": "CLIPTextEncode",
      "_meta": {
        "title": "Positive Prompt"
      }
    },
    "10": {
      "inputs": {
        "text": "blurry, bad, shadow, color, grey, text, watermark, logo,",
        "clip": [
          "8",
          1
        ]
      },
      "class_type": "CLIPTextEncode",
      "_meta": {
        "title": "Negative Prompt"
      }
    },
    "11": {
      "inputs": {
        "seed": 922509242769471,
        "steps": 9,
        "cfg": 0.9,
        "sampler_name": "euler",
        "scheduler": "beta",
        "denoise": 1.0,
        "preview_method": "auto",
        "vae_decode": "true",
        "model": [
          "8",
          0
        ],
        "positive": [
          "9",
          0
        ],
        "negative": [
          "10",
          0
        ],
        "latent_image": [
          "27",
          0
        ],
        "optional_vae": [
          "4",
          0
        ]
      },
      "class_type": "KSampler (Efficient)",
      "_meta": {
        "title": "KSampler (Efficient)"
      }
    },
    "13": {
      "inputs": {
        "filename_prefix": [
          "35",
          0
        ],
        "images": [
          "11",
          5
        ]
      },
      "class_type": "SaveImage",
      "_meta": {
        "title": "Save Image"
      }
    },
    "27": {
      "inputs": {
        "dimensions": "512 x 512 (1:1)",
        "invert": false,
        "batch_size": 1
      },
      "class_type": "EmptyLatentImagePresets",
      "_meta": {
        "title": "Empty Latent Image Presets"
      }
    },
    "32": {
      "inputs": {
        "filename_prefix": [
          "35",
          0
        ],
        "svg": [
          "34",
          0
        ]
      },
      "class_type": "SaveSVGNode",
      "_meta": {
        "title": "SaveSVGNode"
      }
    },
    "33": {
      "inputs": {
        "mode": "spline",
        "filter_speckle": 4,
        "corner_threshold": 60,
        "length_threshold": 4.0,
        "splice_threshold": 45,
        "image": [
          "11",
          5
        ]
      },
      "class_type": "TS_ImageToSVGStringBW_Vtracer",
      "_meta": {
        "title": "Image to SVG String BW_Vtracer"
      }
    },
    "34": {
      "inputs": {
        "SVG_String": [
          "33",
          0
        ]
      },
      "class_type": "TS_SVGStringToSVGBytesIO",
      "_meta": {
        "title": "SVG String to SVG BytesIO"
      }
    },
    "35": {
      "inputs": {
        "value": "Icons/smoking-"
      },
      "class_type": "PrimitiveString",
      "_meta": {
        "title": "String"
      }
    }
  },
  "workflow": {
    "id": "b863a6d5-b1c1-49ed-82de-40ff658289d1",
    "revision": 0,
    "last_node_id": 38,
    "last_link_id": 50,
    "nodes": [
      {
        "id": 4,
        "type": "VAELoader",
        "pos": [
          -6219.529416223988,
          -970.9071955967029
        ],
        "size": [
          373.8333435058594,
          123.80000305175781
        ],
        "flags": {},
        "order": 0,
        "mode": 0,
        "inputs": [],
        "outputs": [
          {
            "name": "VAE",
            "type": "VAE",
            "links": [
              13,
              48
            ]
          }
        ],
        "properties": {
          "cnr_id": "comfy-core",
          "ver": "0.9.2",
          "Node name for S&R": "VAELoader"
        },
        "widgets_values": [
          "ae.safetensors"
        ]
      },
      {
        "id": 5,
        "type": "CLIPLoader",
        "pos": [
          -6634.625060962726,
          -1114.719863560585
        ],
        "size": [
          366.1666564941406,
          542.9833374023438
        ],
        "flags": {},
        "order": 1,
        "mode": 0,
        "inputs": [],
        "outputs": [
          {
            "name": "CLIP",
            "type": "CLIP",
            "links": [
              6
            ]
          }
        ],
        "properties": {
          "cnr_id": "comfy-core",
          "ver": "0.9.2",
          "Node name for S&R": "CLIPLoader"
        },
        "widgets_values": [
          "qwen3_4b_fp8_scaled.safetensors",
          "lumina2",
          "default"
        ]
      },
      {
        "id": 6,
        "type": "CheckpointLoaderSimple",
        "pos": [
          -7142.718609403837,
          -1274.2970319785854
        ],
        "size": [
          456,
          154.6666717529297
        ],
        "flags": {},
        "order": 2,
        "mode": 0,
        "inputs": [],
        "outputs": [
          {
            "name": "MODEL",
            "type": "MODEL",
            "links": [
              4
            ]
          },
          {
            "name": "CLIP",
            "type": "CLIP",
            "links": []
          },
          {
            "name": "VAE",
            "type": "VAE",
            "links": []
          }
        ],
        "properties": {
          "cnr_id": "comfy-core",
          "ver": "0.9.2",
          "Node name for S&R": "CheckpointLoaderSimple"
        },
        "widgets_values": [
          "zEpicrealism_turboV1Fp8.safetensors"
        ],
        "color": "#453f4f",
        "bgcolor": "#312b3b"
      },
      {
        "id": 7,
        "type": "ModelSamplingAuraFlow",
        "pos": [
          -6599.990108813057,
          -1269.9450961666446
        ],
        "size": [
          270,
          104
        ],
        "flags": {},
        "order": 7,
        "mode": 0,
        "inputs": [
          {
            "name": "model",
            "type": "MODEL",
            "link": 4
          }
        ],
        "outputs": [
          {
            "name": "MODEL",
            "type": "MODEL",
            "links": [
              5
            ]
          }
        ],
        "properties": {
          "cnr_id": "comfy-core",
          "ver": "0.10.0",
          "Node name for S&R": "ModelSamplingAuraFlow"
        },
        "widgets_values": [
          6
        ]
      },
      {
        "id": 8,
        "type": "Power Lora Loader (rgthree)",
        "pos": [
          -6200.008875558856,
          -1269.9450961666446
        ],
        "size": [
          340.48333740234375,
          232
        ],
        "flags": {},
        "order": 8,
        "mode": 0,
        "inputs": [
          {
            "dir": 3,
            "name": "model",
            "type": "MODEL",
            "link": 5
          },
          {
            "dir": 3,
            "name": "clip",
            "type": "CLIP",
            "link": 6
          }
        ],
        "outputs": [
          {
            "dir": 4,
            "name": "MODEL",
            "shape": 3,
            "type": "MODEL",
            "links": [
              47
            ]
          },
          {
            "dir": 4,
            "name": "CLIP",
            "shape": 3,
            "type": "CLIP",
            "links": [
              7,
              8
            ]
          }
        ],
        "properties": {
          "cnr_id": "rgthree-comfy",
          "ver": "8ff50e4521881eca1fe26aec9615fc9362474931",
          "Show Strengths": "Single Strength"
        },
        "widgets_values": [
          {},
          {
            "type": "PowerLoraLoaderHeaderWidget"
          },
          {
            "on": true,
            "lora": "MinimalistVectorArtZ.safetensors",
            "strength": 0.4,
            "strengthTwo": null
          },
          {
            "on": false,
            "lora": "None",
            "strength": 0.75,
            "strengthTwo": null
          },
          {},
          ""
        ]
      },
      {
        "id": 9,
        "type": "CLIPTextEncode",
        "pos": [
          -5665.298067285652,
          -968.8847480145092
        ],
        "size": [
          495.1833190917969,
          389.6333312988281
        ],
        "flags": {},
        "order": 10,
        "mode": 0,
        "inputs": [
          {
            "name": "clip",
            "type": "CLIP",
            "link": 7
          }
        ],
        "outputs": [
          {
            "name": "CONDITIONING",
            "type": "CONDITIONING",
            "links": [
              9
            ]
          }
        ],
        "title": "Positive Prompt",
        "properties": {
          "cnr_id": "comfy-core",
          "ver": "0.9.2",
          "Node name for S&R": "CLIPTextEncode"
        },
        "widgets_values": [
          "A bold, heavy solid black icon of a vertical drum smoker. Front profile. One single, substantial contiguous dark mass of the cylindrical body, the domed lid, and the short, thick legs. High-contrast linocut style. Thick, bold white negative space is used only to define: 1) a chunky 'arc' handle on the lid, and 2) a single horizontal white 'slash' representing the heavy door latch. Rising from the lid are three thick, bold, geometric white 'S-curves' to represent smoke. No fine lines, no gray, heavy visual weight. Isolated on white. Optimized for a clean, single-boolean SVG silhouette."
        ],
        "color": "#232",
        "bgcolor": "#353"
      },
      {
        "id": 10,
        "type": "CLIPTextEncode",
        "pos": [
          -5666.5260314864745,
          -512.2921596736592
        ],
        "size": [
          470,
          142
        ],
        "flags": {},
        "order": 11,
        "mode": 0,
        "inputs": [
          {
            "name": "clip",
            "type": "CLIP",
            "link": 8
          }
        ],
        "outputs": [
          {
            "name": "CONDITIONING",
            "type": "CONDITIONING",
            "links": [
              10
            ]
          }
        ],
        "title": "Negative Prompt",
        "properties": {
          "cnr_id": "comfy-core",
          "ver": "0.9.2",
          "Node name for S&R": "CLIPTextEncode"
        },
        "widgets_values": [
          "blurry, bad, shadow, color, grey, text, watermark, logo,"
        ],
        "color": "#322",
        "bgcolor": "#533"
      },
      {
        "id": 11,
        "type": "KSampler (Efficient)",
        "pos": [
          -4910.913678672515,
          -1342.5015025857194
        ],
        "size": [
          400.1000061035156,
          966.6666870117188
        ],
        "flags": {},
        "order": 12,
        "mode": 0,
        "inputs": [
          {
            "name": "model",
            "type": "MODEL",
            "link": 46
          },
          {
            "name": "positive",
            "type": "CONDITIONING",
            "link": 9
          },
          {
            "name": "negative",
            "type": "CONDITIONING",
            "link": 10
          },
          {
            "name": "latent_image",
            "type": "LATENT",
            "link": 37
          },
          {
            "name": "optional_vae",
            "shape": 7,
            "type": "VAE",
            "link": 13
          },
          {
            "name": "script",
            "shape": 7,
            "type": "SCRIPT",
            "link": null
          }
        ],
        "outputs": [
          {
            "name": "MODEL",
            "type": "MODEL",
            "links": null
          },
          {
            "name": "CONDITIONING+",
            "type": "CONDITIONING",
            "links": null
          },
          {
            "name": "CONDITIONING-",
            "type": "CONDITIONING",
            "links": null
          },
          {
            "name": "LATENT",
            "type": "LATENT",
            "links": null
          },
          {
            "name": "VAE",
            "type": "VAE",
            "links": null
          },
          {
            "name": "IMAGE",
            "type": "IMAGE",
            "links": [
              14,
              39
            ]
          }
        ],
        "properties": {
          "cnr_id": "efficiency-nodes-comfyui",
          "ver": "1.0.8",
          "Node name for S&R": "KSampler (Efficient)"
        },
        "widgets_values": [
          -1,
          null,
          9,
          0.9,
          "euler",
          "beta",
          1,
          "auto",
          "true"
        ],
        "color": "#223333",
        "bgcolor": "#335555",
        "shape": "box"
      },
      {
        "id": 13,
        "type": "SaveImage",
        "pos": [
          -4410.458584695532,
          -1352.0179936878044
        ],
        "size": [
          461.7833251953125,
          344
        ],
        "flags": {},
        "order": 13,
        "mode": 0,
        "inputs": [
          {
            "name": "images",
            "type": "IMAGE",
            "link": 14
          },
          {
            "name": "filename_prefix",
            "type": "STRING",
            "widget": {
              "name": "filename_prefix"
            },
            "link": 43
          }
        ],
        "outputs": [],
        "properties": {
          "cnr_id": "comfy-core",
          "ver": "0.17.2"
        },
        "widgets_values": [
          "Icons/apps-"
        ]
      },
      {
        "id": 27,
        "type": "EmptyLatentImagePresets",
        "pos": [
          -5667.013573414988,
          -1285.095614520352
        ],
        "size": [
          285.0833435058594,
          214.6666717529297
        ],
        "flags": {},
        "order": 3,
        "mode": 0,
        "inputs": [],
        "outputs": [
          {
            "name": "Latent",
            "type": "LATENT",
            "links": [
              37
            ]
          },
          {
            "name": "Width",
            "type": "INT",
            "links": null
          },
          {
            "name": "Height",
            "type": "INT",
            "links": null
          }
        ],
        "properties": {
          "cnr_id": "comfyui-kjnodes",
          "ver": "c88ac88a8f8a6a090a0d5d607156090cb2911503",
          "Node name for S&R": "EmptyLatentImagePresets"
        },
        "widgets_values": [
          "512 x 512 (1:1)",
          false,
          1
        ]
      },
      {
        "id": 32,
        "type": "SaveSVGNode",
        "pos": [
          -3813.087098958786,
          -782.3652587471762
        ],
        "size": [
          270,
          344
        ],
        "flags": {},
        "order": 16,
        "mode": 0,
        "inputs": [
          {
            "name": "svg",
            "type": "SVG",
            "link": 42
          },
          {
            "name": "filename_prefix",
            "type": "STRING",
            "widget": {
              "name": "filename_prefix"
            },
            "link": 44
          }
        ],
        "outputs": [],
        "properties": {
          "cnr_id": "comfy-core",
          "ver": "0.17.2",
          "Node name for S&R": "SaveSVGNode"
        },
        "widgets_values": [
          "Icons/apps-"
        ]
      },
      {
        "id": 33,
        "type": "TS_ImageToSVGStringBW_Vtracer",
        "pos": [
          -4400.364267959555,
          -795.4572061170688
        ],
        "size": [
          314.01666259765625,
          234.66665649414062
        ],
        "flags": {},
        "order": 14,
        "mode": 0,
        "inputs": [
          {
            "name": "image",
            "type": "IMAGE",
            "link": 39
          }
        ],
        "outputs": [
          {
            "name": "STRING",
            "shape": 6,
            "type": "STRING",
            "links": [
              41
            ]
          }
        ],
        "properties": {
          "cnr_id": "comfyui-tosvg",
          "ver": "1.0.1",
          "Node name for S&R": "TS_ImageToSVGStringBW_Vtracer"
        },
        "widgets_values": [
          "spline",
          4,
          60,
          4,
          45
        ]
      },
      {
        "id": 34,
        "type": "TS_SVGStringToSVGBytesIO",
        "pos": [
          -4063.4410199893787,
          -778.4467045599912
        ],
        "size": [
          225,
          72
        ],
        "flags": {},
        "order": 15,
        "mode": 0,
        "inputs": [
          {
            "name": "SVG_String",
            "type": "STRING",
            "link": 41
          }
        ],
        "outputs": [
          {
            "name": "SVG",
            "type": "SVG",
            "links": [
              42
            ]
          }
        ],
        "properties": {
          "cnr_id": "comfyui-tosvg",
          "ver": "1.0.1",
          "Node name for S&R": "TS_SVGStringToSVGBytesIO"
        },
        "widgets_values": []
      },
      {
        "id": 35,
        "type": "PrimitiveString",
        "pos": [
          -4406.648318050964,
          -1528.2986560802276
        ],
        "size": [
          270,
          108
        ],
        "flags": {},
        "order": 4,
        "mode": 0,
        "inputs": [],
        "outputs": [
          {
            "name": "STRING",
            "type": "STRING",
            "links": [
              43,
              44
            ]
          }
        ],
        "properties": {
          "cnr_id": "comfy-core",
          "ver": "0.17.2",
          "Node name for S&R": "PrimitiveString"
        },
        "widgets_values": [
          "Icons/smoking-"
        ]
      },
      {
        "id": 36,
        "type": "ModelPatchLoader",
        "pos": [
          -7059.345533943512,
          -330.0523924799236
        ],
        "size": [
          427.6000061035156,
          106.66667175292969
        ],
        "flags": {},
        "order": 5,
        "mode": 4,
        "inputs": [],
        "outputs": [
          {
            "name": "MODEL_PATCH",
            "type": "MODEL_PATCH",
            "links": [
              45
            ]
          }
        ],
        "properties": {
          "cnr_id": "comfy-core",
          "ver": "0.16.3",
          "Node name for S&R": "ModelPatchLoader"
        },
        "widgets_values": [
          "Z-Image-Turbo-Fun-Controlnet-Union-2.1.safetensors"
        ]
      },
      {
        "id": 37,
        "type": "ZImageFunControlnet",
        "pos": [
          -6611.258196381201,
          -335.79477340395954
        ],
        "size": [
          361.6000061035156,
          224
        ],
        "flags": {},
        "order": 9,
        "mode": 4,
        "inputs": [
          {
            "name": "model",
            "type": "MODEL",
            "link": 47
          },
          {
            "name": "model_patch",
            "type": "MODEL_PATCH",
            "link": 45
          },
          {
            "name": "vae",
            "type": "VAE",
            "link": 48
          },
          {
            "name": "image",
            "shape": 7,
            "type": "IMAGE",
            "link": 50
          },
          {
            "name": "inpaint_image",
            "shape": 7,
            "type": "IMAGE",
            "link": null
          },
          {
            "name": "mask",
            "shape": 7,
            "type": "MASK",
            "link": null
          }
        ],
        "outputs": [
          {
            "name": "MODEL",
            "type": "MODEL",
            "links": [
              46
            ]
          }
        ],
        "properties": {
          "cnr_id": "comfy-core",
          "ver": "0.16.3",
          "Node name for S&R": "ZImageFunControlnet"
        },
        "widgets_values": [
          0.15
        ]
      },
      {
        "id": 38,
        "type": "LoadImage",
        "pos": [
          -6229.443165549208,
          -560.5968682946624
        ],
        "size": [
          458.8333435058594,
          788.2999877929688
        ],
        "flags": {},
        "order": 6,
        "mode": 4,
        "inputs": [],
        "outputs": [
          {
            "name": "IMAGE",
            "type": "IMAGE",
            "links": [
              50
            ]
          },
          {
            "name": "MASK",
            "type": "MASK",
            "links": null
          }
        ],
        "title": "Reference",
        "properties": {
          "cnr_id": "comfy-core",
          "ver": "0.9.2",
          "Node name for S&R": "LoadImage"
        },
        "widgets_values": [
          "background-removed (1).png",
          "image"
        ],
        "color": "#322",
        "bgcolor": "#533"
      }
    ],
    "links": [
      [
        4,
        6,
        0,
        7,
        0,
        "MODEL"
      ],
      [
        5,
        7,
        0,
        8,
        0,
        "MODEL"
      ],
      [
        6,
        5,
        0,
        8,
        1,
        "CLIP"
      ],
      [
        7,
        8,
        1,
        9,
        0,
        "CLIP"
      ],
      [
        8,
        8,
        1,
        10,
        0,
        "CLIP"
      ],
      [
        9,
        9,
        0,
        11,
        1,
        "CONDITIONING"
      ],
      [
        10,
        10,
        0,
        11,
        2,
        "CONDITIONING"
      ],
      [
        13,
        4,
        0,
        11,
        4,
        "VAE"
      ],
      [
        14,
        11,
        5,
        13,
        0,
        "IMAGE"
      ],
      [
        37,
        27,
        0,
        11,
        3,
        "LATENT"
      ],
      [
        39,
        11,
        5,
        33,
        0,
        "IMAGE"
      ],
      [
        41,
        33,
        0,
        34,
        0,
        "STRING"
      ],
      [
        42,
        34,
        0,
        32,
        0,
        "SVG"
      ],
      [
        43,
        35,
        0,
        13,
        1,
        "STRING"
      ],
      [
        44,
        35,
        0,
        32,
        1,
        "STRING"
      ],
      [
        45,
        36,
        0,
        37,
        1,
        "MODEL_PATCH"
      ],
      [
        46,
        37,
        0,
        11,
        0,
        "MODEL"
      ],
      [
        47,
        8,
        0,
        37,
        0,
        "MODEL"
      ],
      [
        48,
        4,
        0,
        37,
        2,
        "VAE"
      ],
      [
        50,
        38,
        0,
        37,
        3,
        "IMAGE"
      ]
    ],
    "groups": [],
    "config": {},
    "extra": {
      "ds": {
        "scale": 0.8390545288824771,
        "offset": [
          6062.475961054726,
          1444.1263618866437
        ]
      },
      "workflowRendererVersion": "Vue",
      "frontendVersion": "1.41.20",
      "VHS_latentpreview": false,
      "VHS_latentpreviewrate": 0,
      "VHS_MetadataImage": true,
      "VHS_KeepIntermediate": true
    },
    "version": 0.4
  }
}
                ]]>
            </metadata>
            
<path d="M0 0 C1.90234375 0.9296875 1.90234375 0.9296875 4.96484375 3.2421875 C6.643316223090153 8.40498899088891 5.228898839453109 11.80105160039463 3.02734375 16.4921875 C0.11547950653687167 23.247083489454937 -1.6693853444270417 28.98642602965132 0.59765625 36.27734375 C2.441884470586956 40.4559329164651 5.14581251572929 43.78635378301756 8.02734375 47.3046875 C14.42838667326879 55.13347233923952 16.58889307632967 62.75359558404432 15.75 72.8203125 C14.480985766831509 80.50691299804909 11.371127852470636 89.38224783605675 4.96484375 94.2421875 C4.304843749999975 94.2421875 3.644843750000007 94.2421875 2.96484375 94.2421875 C3.011250000000018 93.08203125 3.0576562499999795 91.921875 3.10546875 90.7265625 C3.4241913279294067 79.34169432361699 2.9970748327504566 68.33923498887128 -4.3515625 58.953125 C-7.459500211280442 55.79471034213266 -10.978501183820697 53.12261733760505 -14.44140625 50.3671875 C-21.111805142105084 44.902282383576534 -24.378996383894048 39.081366512531275 -25.53515625 30.5546875 C-25.283198151402132 24.423707100785336 -22.37295298620353 18.814470131498766 -20.03515625 13.2421875 C-19.6162109375 12.120703124999999 -19.197265625 10.999218749999997 -18.765625 9.84375 C-18.562597656249977 9.311367187499997 -18.562597656249977 9.311367187499997 -17.53515625 6.6171875 C-17.174218750000023 5.655546874999999 -16.81328124999999 4.693906249999998 -16.44140625 3.703125 C-12.63136972524535 -2.964438918320589 -6.414212193863818 -2.388401469500163 0 0 Z " fill="#000000" transform="translate(336.03515625,32.7578125)"/>
<path d="M0 0 C0.37060546875 0.03673828125000256 0.37060546875 0.03673828125000256 2.24609375 0.22265625 C7.502595205082287 1.844814371888802 10.39430909602288 5.794902878349532 13.375 10.1875 C15.944164713892235 13.837652885963863 18.518847376791598 17.04626023637691 21.75 20.125 C27.614051763003317 25.735096765392967 31.64885074065728 31.72769814509438 31.875 40 C31.741337604369505 50.14497582835611 27.212559955449024 57.54543335478509 20.5625 64.9375 C19.40260135539586 66.00738433737324 18.236057901421873 67.07011649310392 17.0625 68.125 C10.920615708075161 74.01676230718581 5.741917136529082 84.39709882398151 5.46484375 92.953125 C5.4764453125000045 94.02046875000002 5.488046875000009 95.08781249999998 5.5 96.1875 C5.509023437499991 97.26515625000002 5.518046874999982 98.34281249999998 5.52734375 99.453125 C5.5389453125000045 100.27296875000002 5.550546875000009 101.09281249999998 5.5625 101.9375 C2.419871744739055 101.34702705015974 1.70232739426217 101.09851336308978 -0.5 98.5625 C-5.612368569077489 90.07556403552357 -6.929309087757531 79.25979627240989 -4.96875 69.63671875 C-3.912741995835404 66.19840697453547 -2.50132959808451 63.06613369384971 -0.90234375 59.84375 C5.52091834956866 46.84537563302412 5.52091834956866 46.84537563302412 3.5625 39.9375 C0.6926886721764731 35.19757138047164 -3.5016407399647846 31.85497718858535 -7.6875 28.3125 C-11.835458438512092 24.767442497318143 -13.894009457092181 21.594564876438227 -15 16.1875 C-14.005755789143507 10.442977892829049 -10.763187053994614 5.116947097252556 -6.51171875 1.1328125 C-4.035282452423928 -0.29428638334891133 -2.8127243948532623 -0.34610646799754363 0 0 Z " fill="#000000" transform="translate(362.4375,53.0625)"/>
<path d="M0 0 C0.8929779052734261 -0.005700073242181247 1.7859558105468807 -0.011400146484376705 2.70599365234375 -0.01727294921875 C4.599068330024238 -0.02672985681650175 6.4921595218842185 -0.03325966603331665 8.38525390625 -0.037109375 C11.271454756798533 -0.046789740086524034 14.156935886838653 -0.07779590900284461 17.04296875 -0.109375 C18.882808274464708 -0.11590763864961673 20.722652891364078 -0.12115708520823887 22.5625 -0.125 C23.42208312988282 -0.13734680175781477 24.281666259765643 -0.14969360351562955 25.16729736328125 -0.16241455078125 C30.211697663011478 -0.14381526730250016 33.67894864035327 0.395534984248755 38.046875 3.203125 C43.62268621962454 10.12482168643048 42.16005367292553 19.840478611616646 42.046875 28.203125 C42.776484374999995 28.277890624999998 43.50609374999999 28.352656249999995 44.2578125 28.4296875 C63.43185269304149 30.844196265049675 82.62019055355017 38.17257130643242 97.046875 51.203125 C97.81644531250004 51.868281249999995 98.58601562499996 52.53343749999999 99.37890625 53.21875 C107.28122213642251 60.488342127203 113.26970693557303 69.54011661343804 115.046875 80.203125 C46.736875 80.203125 -21.573125000000005 80.203125 -91.953125 80.203125 C-85.31935649396988 60.30181948190966 -72.5538966592568 48.296920849123325 -54.453125 38.515625 C-43.124555363758134 33.05499986073286 -30.464936249061253 29.45140315245854 -17.953125 28.203125 C-17.97632812500001 27.2015234375 -17.999531250000018 26.199921875 -18.0234375 25.16796875 C-18.042212890046528 23.82552836167409 -18.06041117585454 22.48307981559499 -18.078125 21.140625 C-18.10132812500001 19.829648437499998 -18.124531250000018 18.518671874999995 -18.1484375 17.16796875 C-17.873876448459328 11.594379403723948 -17.150731947699597 7.580372989854524 -13.453125 3.328125 C-9.120331587732835 -0.3547494004270817 -5.477813231212764 0.026830209424218765 0 0 Z M-5.953125 13.203125 C-5.953125 17.823125000000005 -5.953125 22.44312500000001 -5.953125 27.203125 C5.9268749999999955 27.203125 17.80687499999999 27.203125 30.046875 27.203125 C30.046875 22.583124999999995 30.046875 17.96312499999999 30.046875 13.203125 C27.1424584148682 10.298708414868202 24.979296549159585 10.944447639638966 20.921875 10.9375 C20.570524902343777 10.936543273925778 20.570524902343777 10.936543273925778 18.79248046875 10.93170166015625 C17.306311462958888 10.930340246176925 15.820130551912996 10.934033676674645 14.333984375 10.9423828125 C12.055718543820262 10.95308346328693 9.778241230232368 10.942486608035011 7.5 10.9296875 C6.057289921668769 10.931009103169686 4.614580335040415 10.933571514365141 3.171875 10.9375 C1.8544531250000205 10.939755859374998 0.5370312499999841 10.942011718749995 -0.8203125 10.9443359375 C-3.953125 11.203125 -3.953125 11.203125 -5.953125 13.203125 Z " fill="#000000" transform="translate(243.953125,93.796875)"/>
<path d="M0 0 C0.3638807603716714 0.0002985441684586476 0.3638807603716714 0.0002985441684586476 2.205337941646576 0.0018093585968017578 C2.6250281098485004 -0.00148556351661 2.6250281098485004 -0.00148556351661 4.74891471862793 -0.018159866333007813 C5.676234506964676 -0.010103461742403397 6.60355429530145 -0.002047057151798981 7.5589746832847595 0.006253480911254883 C8.54003053367137 0.002984640598299393 9.521086384058009 -0.00028419971465609706 10.53187119960785 -0.0036520957946777344 C13.840167814620571 -0.010972011718337171 17.148028288551217 0.003261810141736987 20.456298291683197 0.017300844192504883 C22.81947350025223 0.01651053237492306 25.182648583403335 0.014415005296086747 27.545821607112885 0.011105775833129883 C33.310475465069544 0.006492092211033196 39.07498619882415 0.015803674039801763 44.83961821347475 0.031393736600875854 C51.546616490877625 0.04890081590579598 58.25358876188824 0.050352302354411904 64.96060632914305 0.05100932717323303 C76.92339176911128 0.052698579427641334 88.88611661871522 0.06852858305452969 100.8488764166832 0.09249615669250488 C112.468998718661 0.11576050086870282 124.08908258015697 0.12992143854455662 135.7092279791832 0.13351178169250488 C136.0671220234409 0.13362316533923035 136.0671220234409 0.13362316533923035 137.87828279286623 0.13418683409690857 C139.320155296302 0.1346294200714624 140.76202779991036 0.1350714444108121 142.20390030369163 0.13551290333271027 C142.91508875925092 0.13573246940970307 143.62627721481022 0.13595203548669588 144.35901683568954 0.13617825508117676 C145.0683578402177 0.13639424130320776 145.77769884474571 0.13661022752523877 146.50853503122926 0.13683275878429413 C157.5661052501955 0.14053001673562449 168.62366923016032 0.15188953304277675 179.68123262003064 0.16430865228176117 C183.69529045605884 0.1687498507685632 187.70934770268332 0.172185658872138 191.72340703755617 0.17493078112602234 C198.68262097908558 0.1797686201605302 205.6418018180304 0.18985687790720362 212.60099929571152 0.20575833320617676 C214.91782304911135 0.2102962253800058 217.23465084016186 0.21312349464955105 219.5514788031578 0.21416592597961426 C222.69959710081616 0.21590085169714257 225.84763942661283 0.22375506567254888 228.99574226140976 0.23330426216125488 C229.4605175164342 0.23287102103233792 229.4605175164342 0.23287102103233792 231.81256198883057 0.23067855834960938 C238.0996595266716 0.25953903230589503 238.0996595266716 0.25953903230589503 239.2138666510582 1.3737461566925049 C239.3012431023647 3.2274422688190327 239.32084818167334 5.084421564275601 239.3115229010582 6.940152406692505 C239.3083002448082 8.064859437942516 239.30507758855822 9.1895664691925 239.3017572760582 10.348355531692505 C239.29337836980824 11.532359437942517 239.28499946355817 12.716363344192501 239.2763666510582 13.936246156692505 C239.2718549323082 15.12411725044251 239.2673432135582 16.311988344192514 239.2626947760582 17.535855531692505 C239.25086339901043 20.481868416594295 239.23437951742517 23.427782963839974 239.2138666510582 26.373746156692505 C233.92110405139067 28.541989387037546 229.28482150412356 28.653558947012186 223.666945874691 28.620984315872192 C222.71246832311152 28.623398731350903 221.75799077153204 28.625813146829614 220.7745896577835 28.628300726413727 C217.58020653028683 28.633931036698954 214.38602396284978 28.62527961121154 211.1916498541832 28.616666078567505 C208.90009453425785 28.617739105515653 206.60853947993274 28.619678092431997 204.31698554754257 28.622418642044067 C198.09623662678558 28.627266002322074 191.87555943789516 28.61961316366427 185.65481919050217 28.60946559906006 C179.14994093510234 28.60068575054794 172.6450649312635 28.602442514955243 166.14018195867538 28.602826356887817 C155.21933720326695 28.601889843520127 144.2985207687218 28.59326057164907 133.3776850104332 28.579556703567505 C122.13809655501086 28.565460142600415 110.8985324265164 28.558386376556086 99.6589350104332 28.559048891067505 C98.96623759128153 28.55908884726466 98.27354017212986 28.55912880346179 97.55985192209482 28.559169970452785 C96.86835658185186 28.559210324957974 96.17686124160886 28.55925067946316 95.46441149711609 28.559292256832123 C83.31736116819948 28.55994683017076 71.17032260378664 28.55480292342125 59.02327483892441 28.54650044441223 C53.84828752957824 28.54296413864094 48.673303733939974 28.541136704035637 43.498315274715424 28.54060673713684 C37.41052071518513 28.53960454262719 31.322751834230985 28.533518043161678 25.23496574163437 28.52344059944153 C22.996380278719556 28.52051220666806 20.757791860817576 28.519290913831327 18.519204556941986 28.51986813545227 C15.472720960194323 28.52035654501603 12.42631000698367 28.514725692257656 9.37983649969101 28.507458925247192 C8.486076789498327 28.50900752723217 7.592317079305644 28.51055612921715 6.671473741531372 28.512151658535004 C3.272402255507444 28.4986855477606 0.46097235781931545 28.456114725612878 -2.786133348941803 27.373746156692505 C-3.011750685680198 23.43703574945289 -3.2136616174016126 19.49946080274981 -3.411133348941803 15.561246156692505 C-3.443359911441803 15.001470766067513 -3.443359911441803 15.001470766067513 -3.606445848941803 12.168668031692505 C-3.6580083489417916 11.09552350044251 -3.7095708489418087 10.022378969192516 -3.762695848941803 8.916714906692505 C-3.815064013004303 7.9269566059112435 -3.867432177066803 6.937198305130011 -3.921387255191803 5.917447328567505 C-3.7609199457114073 2.89956123203973 -3.2523856799341218 0.6805576127209463 0 0 Z " fill="#000000" transform="translate(137.7861333489418,181.6262538433075)"/>
<path d="M0 0 C13.92971563371242 -0.04847626060436028 27.83468909651475 -0.09357775559908532 41.75390625 0.4921875 C61.0865403095446 1.1875783963448612 80.41953098022464 1.1520562370524203 99.762451171875 1.13037109375 C104.90263089311745 1.1246781945076805 110.04275872935614 1.1280545835106466 115.182936668396 1.1338224411010742 C136.5080969787299 1.1539731852553246 157.79952752820532 1.0074194523749327 179.111328125 0.220458984375 C189.07257598013246 -0.13540511193275506 199.03425259253504 -0.0905062832161434 209 0 C209.84338408109653 3.665578460982431 210.12746128186706 7.052866780645786 210.1337127685547 10.810958862304688 C210.1358452606201 11.39195343017579 210.1358452606201 11.39195343017579 210.14663696289063 14.332138061523438 C210.14618377685548 15.598203887939462 210.14573059082034 16.86426971435546 210.145263671875 18.168701171875 C210.1482576568461 19.52265515546955 210.15166073931618 20.876608286923585 210.1554412841797 22.230560302734375 C210.1642634460693 25.902310740722356 210.1666187132697 29.574037860002306 210.16725707054138 33.245797872543335 C210.16796885293758 35.54330101366756 210.1701056565177 37.84079826608192 210.17275428771973 40.1382999420166 C210.18200345315336 48.16389973757242 210.18608991606197 56.189482942325924 210.185302734375 64.215087890625 C210.18470280811636 71.67846469979253 210.19523899022147 79.14176903016858 210.211046397686 86.60512751340866 C210.2241571788993 93.0257170972946 210.22948511397078 99.44628310526457 210.22884732484818 105.86688596010208 C210.22859327569984 109.69571405600288 210.23139250490658 113.5244777833637 210.2420253753662 117.35329246520996 C210.25176548616764 120.95909828412812 210.25174538578074 124.56477900536942 210.24450874328613 128.17058944702148 C210.2429781920191 130.11047222688302 210.2512691452414 132.05035515010638 210.25994873046875 133.99021911621094 C210.2086513497071 148.3734381320666 207.43282722400397 159.88184097864064 198 171 C197.42378906249996 171.40476562499998 196.84757812500004 171.80953124999996 196.25390625 172.2265625 C194.1580988788096 175.19072619632533 195.419634628959 178.59699411963857 196 182 C196.51821612630192 184.42705511149177 197.07757313801108 186.84562782537938 197.674072265625 189.254638671875 C197.84002899169923 189.93052536010742 198.00598571777346 190.60641204833985 198.17697143554688 191.3027801513672 C198.5340134402877 192.75458664269723 198.8930974569766 194.20589223202722 199.25406074523926 195.65672874450684 C199.8257143635197 197.95539748107058 200.39138848183313 200.2554665435806 200.95555114746094 202.5559844970703 C202.3563599041609 208.2634999154228 203.76599009797349 213.96882561118582 205.177734375 219.67364501953125 C206.374305764547 224.50929212112487 207.56635450641016 229.34600518930222 208.75184440612793 234.18438148498535 C209.30795608405447 236.44610171187048 209.87075909865246 238.70608953615232 210.43373107910156 240.9661102294922 C210.77461767345284 242.3551677611294 211.1151661969311 243.74430831663557 211.455322265625 245.133544921875 C211.75430923461914 246.34185470581053 212.0532962036133 247.55016448974607 212.36134338378906 248.7950897216797 C213 252 213 252 213 257 C206.73000000000002 257 200.46000000000004 257 194 257 C187.87989844184176 244.98336223740614 182.23122478204976 232.8190982227796 176.75 220.5 C175.5623460489321 217.83601275249862 174.37363374351128 215.17250984372617 173.18292236328125 212.5098876953125 C172.4508246665465 210.8723141979798 171.72050281981342 209.23394505325598 170.99237060546875 207.5946044921875 C169.32853734355672 203.8682997611105 167.6081853198699 200.1967840725269 165.7470703125 196.564453125 C164 193 164 193 164 191 C163.41734375 191.1409912109375 162.83468749999997 191.281982421875 162.234375 191.42724609375 C159.49164497551578 192.08543661259733 156.7459038281388 192.73018353376165 154 193.375 C153.084765625 193.59671875000004 152.16953124999998 193.81843749999996 151.2265625 194.046875 C135.92220508205804 197.6109034397947 120.95511930263984 198.3747744984147 105.3125 198.3125 C104.38623809814453 198.31100952148438 103.45997619628906 198.30951904296876 102.50564575195313 198.3079833984375 C89.14069399819732 198.26930005228814 76.09859302288834 197.89489422071415 63 195 C62.18208984375002 194.8235595703125 61.364179687499984 194.64711914062502 60.521484375 194.46533203125 C55.65612922154784 193.40068445436873 50.82219700513653 192.24504955440614 46 191 C45.7375146484375 191.843369140625 45.47502929687499 192.68673828124997 45.20458984375 193.5556640625 C43.93191369392176 197.1946821252841 42.38784286684816 200.63765459798572 40.7265625 204.109375 C40.5664518737793 204.44768844604494 40.5664518737793 204.44768844604494 39.756195068359375 206.15975952148438 C39.07036069982854 207.60819167433942 38.383032627452195 209.05591734796815 37.6943359375 210.50299072265625 C35.885729201232664 214.30343918131393 34.08799314988232 218.10902691888253 32.2890625 221.9140625 C31.927420043945318 222.6782650756836 31.565777587890636 223.44246765136722 31.19317626953125 224.22982788085938 C27.75192322578485 231.50825684732519 24.36663514926971 238.81181100457002 21 246.125 C20.49033691406251 247.231982421875 19.980673828124992 248.33896484374998 19.45556640625 249.4794921875 C18.3026202164302 251.98582666673673 17.151119811107662 254.49282616898904 16 257 C9.400000000000006 257 2.8000000000000114 257 -4 257 C-2.7074411022188087 249.55653929850428 -1.1758338671270678 242.24080529959633 0.64453125 234.91015625 C0.8961955261230514 233.88554794311523 1.1478598022461028 232.86093963623046 1.4071502685546875 231.80528259277344 C2.2058414979275085 228.55691786025204 3.0091196100854347 225.30970779621873 3.8125 222.0625 C4.339488086824019 219.9212966346064 4.866182853153049 217.78002105563456 5.392578125 215.638671875 C5.522164154052746 215.11254806518554 5.522164154052746 215.11254806518554 6.177947998046875 212.45004272460938 C6.694879969625305 210.35009897528573 7.210618378029238 208.2498610320476 7.725128173828125 206.14932250976563 C8.96045098478018 201.12483171288193 10.227053681066025 196.11311290269953 11.57177734375 191.11669921875 C11.814821014404288 190.1978746032715 12.057864685058604 189.27904998779297 12.308273315429688 188.33238220214844 C12.764589216381978 186.61414759634363 13.232127710472923 184.89883922815164 13.712844848632813 183.18727111816406 C15.187999010063322 177.58409123434637 15.187999010063322 177.58409123434637 14.223388671875 174.587158203125 C13.819670410156249 174.06339599609373 13.415952148437498 173.53963378906246 13 173 C12.476640625000016 172.31421875 11.953281250000003 171.62843750000002 11.4140625 170.921875 C10.823671875000002 170.20515624999996 10.233281250000005 169.48843750000003 9.625 168.75 C0.9094711875729331 157.6789228598899 -0.30218646109298675 147.32199387915608 -0.22705078125 133.505859375 C-0.2264858870151727 132.04656990373644 -0.2268047535288531 130.58727986494455 -0.227935791015625 129.12799072265625 C-0.22850725293992014 125.1863909814333 -0.21678654926432728 121.2449141229111 -0.2027878761291504 117.30334281921387 C-0.1902459462078525 113.17672226654292 -0.18910729421864403 109.05009858605246 -0.186737060546875 104.9234619140625 C-0.18053244122003775 97.11802211498639 -0.16413545294793153 89.31263865117592 -0.14403808116912842 81.50722360610962 C-0.12164732971663739 72.61725143391425 -0.11067767466289524 63.727276506046564 -0.1006472110748291 54.83728313446045 C-0.07976828676100922 36.5581568737602 -0.044612179929515605 18.279082974003103 0 0 Z M73 73 C72.90083429600406 74.62257544349563 72.86920223297005 76.24939831215175 72.8671875 77.875 C72.8658984375 78.85984374999998 72.86460937499999 79.84468750000002 72.86328125 80.859375 C72.86714843750002 81.89578125000003 72.87101562499998 82.9321875 72.875 84 C72.87113281249998 85.03640625000003 72.86726562500002 86.0728125 72.86328125 87.140625 C72.8645703125 88.12546874999998 72.86585937500001 89.11031249999996 72.8671875 90.125 C72.8683154296875 91.03507812499998 72.869443359375 91.94515624999997 72.87060546875 92.8828125 C73 95 73 95 74 96 C76.6705885100285 96.14115161258076 79.32432237681067 96.04247107338392 82 96 C82.32999999999998 94.01999999999998 82.66 92.03999999999996 83 90 C97.52000000000001 90 112.04000000000002 90 127 90 C127 91.64999999999998 127 93.30000000000001 127 95 C128 96 128 96 129.8125 96.1328125 C130.534375 96.13023437499999 131.25625000000002 96.12765624999997 132 96.125 C132.721875 96.12757812500001 133.44375000000002 96.13015625000003 134.1875 96.1328125 C136 96 136 96 137 95 C137.09916570399594 93.37742455650437 137.13079776702995 91.75060168784825 137.1328125 90.125 C137.1341015625 89.14015625000002 137.135390625 88.15531250000004 137.13671875 87.140625 C137.13285156249998 86.10421874999997 137.12898437500002 85.0678125 137.125 84 C137.12886718750002 82.96359374999997 137.13273437499998 81.9271875 137.13671875 80.859375 C137.1354296875 79.87453125000002 137.134140625 78.88968749999998 137.1328125 77.875 C137.13224853515624 77.41996093749998 137.13224853515624 77.41996093749998 137.12939453125 75.1171875 C137 73 137 73 136 72 C134.1875 71.8671875 134.1875 71.8671875 132 71.875 C131.278125 71.87242187499999 130.55624999999998 71.86984374999997 129.8125 71.8671875 C128 72 128 72 127 73 C127 75.31 127 77.62 127 80 C119.74000000000001 79.83499999999998 119.74000000000001 79.83499999999998 83 79 C83 77.01999999999998 83 75.04000000000002 83 73 C82 72 82 72 80.1875 71.8671875 C79.46562499999999 71.86976562500001 78.74375 71.87234375000003 78 71.875 C77.27812499999999 71.87242187499999 76.55625 71.86984374999997 75.8125 71.8671875 C74 72 74 72 73 73 Z " fill="#000000" transform="translate(151,217)"/>
</svg>
