<svg xmlns="http://www.w3.org/2000/svg" width="512" height="512"><path d="M466 131c3.896 3.691 5.511 7.724 6 13-.37 6.478-3.327 10.719-8 15a358 358 0 0 1-8.34 6.6c-4.344 3.336-8.53 6.804-12.66 10.4a315 315 0 0 1-13.937 11.438c-5.728 4.433-11.217 9.093-16.666 13.864a383 383 0 0 1-10.96 9.26c-9.304 7.547-18.35 15.394-27.226 23.438-5.688 5.145-11.516 10.13-17.336 15.125l-1.776 1.525a426 426 0 0 1-3.456 2.928C350 255 350 255 348.558 256.451c-4.332 4.184-8.033 4.322-13.745 4.361-.864.025-1.727.05-2.617.074-2.732.068-5.463.097-8.196.114l-2.786.025c-5.405.043-10.808.03-16.214-.025l5-5c-4.452-.857-8.669-1.131-13.2-1.145l-2.117-.01a2009 2009 0 0 0-6.94-.013l-4.933-.013q-7.967-.013-15.935-.006h-5.467c-35.794.009-71.751.146-107.413 3.577-14.177 1.337-28.018.483-42.12-1.077l-2.474-.268c-53.89-5.865-53.89-5.865-64.327-13.443C44 242 44 242 44.157 240.03 45 238 45 238 46.916 236.822c6.125-2.253 12.188-4.021 18.584-5.322l3.106-.632c28.423-5.509 57.55-7.096 86.394-8.868l3.322-.207c6.224-.371 12.446-.605 18.678-.793l4.045-.132c39.608-1.276 79.276-1.386 118.893-.43l2.578.059c8.272.194 16.521.47 24.777 1.038l3.799.235c2.252.147 4.502.324 6.748.54 5.516.355 8.448.022 12.703-3.677A206 206 0 0 0 354 215l2.688-2.125c2.63-2.133 4.929-4.467 7.312-6.875l2.75-2.756 3.015-3.025q8.456-8.48 16.918-16.954 5.106-5.114 10.208-10.231 4.956-4.972 9.918-9.938 1.88-1.882 3.757-3.767c11.84-11.89 11.84-11.89 17.907-17.016 2.172-1.867 4.123-3.922 6.09-6 9.023-9.133 20.126-12.98 31.437-5.313M254 248l1 2 1-2zm165-19q2.872.498 5.746.988c20.107 3.58 20.107 3.58 28.254 9.012 0 2.25 0 2.25-1 5-22.66 15.26-67.422 16.229-94 13v-2c1.477-1.305 1.477-1.305 3.625-2.875a203 203 0 0 0 10.403-8.4 291 291 0 0 1 3.632-3.076c2.904-2.436 5.572-4.827 7.992-7.75C393.54 222.104 405.977 226.49 419 229"/><path d="M456 246h1c.21 8.134-.287 15.852-1.625 23.875l-.536 3.258C448.267 311.215 432.34 345.55 406 374l-1.415 1.548C387.845 393.683 366.154 407.38 344 418h-2l.5 3.5c.502 4.624.679 9.228.75 13.875l.064 2.127c.035 5.036.035 5.036-1.556 7.145-5.867 4.515-16.4 3.898-23.508 4.416l-3.329.249q-4.959.359-9.921.688l-2.72.184c-18.4 1.188-36.85.915-55.28.816v-1l7-1 1-4h-4l-1 4h-4v2c-16.122.247-32.152-.008-48.25-.875l-2.306-.12c-8.265-.433-16.51-1.023-24.74-1.888-.701-.066-1.402-.131-2.123-.2-4.198-.476-7.278-1.232-10.581-3.917-1.916-3.456-2.216-6.181-1.977-10.082l.157-2.822.195-2.909.172-2.966q.21-3.612.453-7.221l-2.937-1.434c-14.485-7.12-28.47-14.36-41.063-24.566l-1.58-1.273C70.177 357.335 47.547 311.37 41 259a490 490 0 0 1-1-12l2.3.928c29.025 11.518 61.82 13.421 92.7 15.697l2.288.171c5.103.376 10.207.7 15.314 1.002q3.684.22 7.367.451c28.675 1.788 57.301 2.113 86.026 2.069q5.425-.007 10.85-.009c33.624-.024 67.121-.322 100.649-3.103q3.7-.303 7.403-.578c23.211-1.755 46.542-4.064 69.29-9.128l2.59-.574C451.59 250.41 451.59 250.41 456 246"/></svg>