<svg xmlns="http://www.w3.org/2000/svg" width="512" height="512"><path d="M447 74a8655 8655 0 0 1-3.261 21.495q-.765 4.995-1.517 9.99C436.356 144.443 429.302 181.232 403 212l-2.047 2.488C386.364 231.606 364.543 244.611 342 247c-23.05 1.633-41.936-2.86-61-16l-.82 2.57c-1.208 3.51-2.611 6.886-4.055 10.305-8.285 20.35-10.527 42.025-10.812 63.813q-.05 2.688-.104 5.376c-.083 4.312-.15 8.624-.209 12.936l2.998-1.286c18.277-7.688 32.43-4.7 51.002 1.286l2.066.646c16.475 5.243 26.22 16.082 36.012 29.725 5.024 6.872 10.566 12.19 17.242 17.473 2.271 1.827 4.376 3.72 6.493 5.719 4.494 4 9.669 6.762 14.917 9.64a102 102 0 0 1 5.813 3.422c2.814 1.575 5.464 2.313 8.582 3.125 19.008 5.702 33.4 21.744 44.875 37.188l1.497 2.01C460 439.756 460 439.756 460 442c-2.948.842-5.61 1.144-8.671 1.196l-2.845.055-3.11.046-3.305.058q-5.48.093-10.96.172l-7.805.126c-29.446.46-58.895.67-88.343.864q-7.86.053-15.717.11a25381 25381 0 0 1-62.433.39c-38.424.208-76.844-.351-115.265-.851q-10.848-.14-21.698-.269-10.593-.127-21.185-.265-6.272-.082-12.544-.156-5.842-.069-11.683-.15-2.134-.028-4.27-.052-2.915-.035-5.832-.078l-3.288-.042c-3.082-.156-6.015-.586-9.046-1.154 1.01-6.75 4.877-12.414 10-16.875 3.829-2.712 7.555-4.643 12-6.125q1.007-1.995 2-4c8.63-9.12 16.858-13.654 28.922-16.497 12.41-2.958 21.5-8.537 31.46-16.268 1.948-1.487 3.97-2.853 5.993-4.235 5.083-3.829 8.754-9.008 12.625-14 2.032-2.565 4.072-5.122 6.129-7.668 1.157-1.442 2.294-2.9 3.398-4.383C173.104 341.06 188.358 332.116 202 330c9.762-.823 16.719.321 25.92 3.827 4.234 1.39 8.13 1.462 12.553 1.33l2.209-.035A494 494 0 0 0 248 335c-4.938-49.81-4.938-49.81-21-70-3.444 1.275-6.323 2.784-9.375 4.813-16.399 9.892-36.103 12.207-54.538 7.722C148.327 273.756 135.46 267.109 124 257l-2.445-2.047C110.575 245.523 102.05 234.605 95 222l-1.578-2.781c-8.677-16.258-13.237-34.813-18.359-52.407-1.018-3.497-2.045-6.99-3.073-10.484l-1.955-6.68-.928-3.159-.841-2.898-.744-2.549C67 139 67 139 67 137c7.708-2.545 15.448-4.17 23.438-5.562l3.733-.656c39.75-6.815 78.907-4.785 112.94 18.83 18.167 13.356 33.007 32.996 37.264 55.45 2.004 15.632.681 31.577-8.375 44.938h-2c-1.305-1.328-1.305-1.328-2.875-3.25-3.243-3.814-6.652-7.398-10.187-10.937l-1.498-1.511c-2.486-2.477-4.808-4.564-7.686-6.618-3.684-3.59-4.025-6.485-4.754-11.434-2.67-14.84-7.897-27.99-15-41.25l.77 3.008q1.37 5.4 2.695 10.811.73 2.97 1.469 5.939c1.762 7.538 2.449 14.506 2.066 22.242-4.614-1.512-8.045-4.167-11.812-7.125C165.634 193.39 142.384 178.904 118 167a608 608 0 0 0 21.813 16.313c6.176 4.421 12.215 8.976 18.125 13.75l2.024 1.624c3.11 2.543 5.825 4.908 8.038 8.313q-3.25.725-6.5 1.438l-3.656.808c-7.039 1.38-13.697 1.897-20.844 1.816l-2.348-.013q-2.826-.02-5.652-.049v2q6.139.037 12.278.054c2.157.008 4.315.026 6.472.045 6.671.038 13.142-.087 19.75-1.12 5.31-.774 8.997-.656 13.39 2.462 3.32 2.701 6.319 5.676 9.296 8.746 2.913 2.912 6.078 5.505 9.251 8.125q1.625 1.368 3.247 2.739L205 236c-3.053 3.053-6.794 3.67-10.875 4.875l-2.663.795c-9.369 2.72-18.87 4.595-28.462 6.33 10.51.282 20.736.34 31.125-1.437l2.39-.4c3.277-.56 6.518-1.17 9.762-1.901 4.373-.804 6.603-1.006 10.395 1.511 2.585 2.302 4.964 4.7 7.328 7.227 5.165 4.976 5.165 4.976 8.188 5.063 2.247-1.318 3.306-2.963 4.812-5.063 4.63 6.112 8.831 12.003 12 19 1.656-1.656 1.643-3.846 2.103-6.065A150.7 150.7 0 0 1 269 220l1.426 1.277 1.887 1.66 1.863 1.653C276 226 276 226 279 227l.719-2.145c1.5-3.344 3.425-5.74 5.781-8.542l2.406-2.887c3.793-4.394 3.793-4.394 7.368-4.773q2.121-.085 4.242-.145l4.703-.192 2.492-.093c17.074-.66 33.997-1.657 50.289-7.223a3854 3854 0 0 1-18.14.11q-3.078.015-6.156.04c-21.877.182-21.877.182-31.704-2.15 2.298-4.268 5.243-7.535 8.656-10.922l1.647-1.653q1.716-1.718 3.44-3.428c1.758-1.748 3.506-3.507 5.253-5.267l3.348-3.34 1.581-1.593c2.353-2.322 3.893-3.736 7.075-4.797a81 81 0 0 1 5.27.34l3.172.284 3.37.314c14.233 1.224 27.955 1.178 42.188.062v-2l-3.242.14c-10.097.29-19.77-.473-29.758-2.015l-3.453-.526c-8.144-1.33-8.144-1.33-11.547-3.599q4.744-4.787 9.5-9.562l2.688-2.713c5.106-5.126 10.311-10.027 15.812-14.725q2.506-2.243 5-4.5a595 595 0 0 1 11.113-9.797c2.383-2.15 4.632-4.42 6.887-6.703-11.907 7-23.138 14.467-34 23l-2.832 2.219A692 692 0 0 0 345 144l-2.664 2.137c-5.93 4.786-11.58 9.768-17.121 14.992C323 163 323 163 321 163c-.206-27.945-.206-27.945 1-41-.965 3.29-1.92 6.582-2.875 9.875l-.816 2.781c-2.543 8.807-4.297 17.333-4.997 26.469-.822 7.43-2.771 10.979-8.312 15.875-2.316 2.247-4.594 4.53-6.875 6.813l-1.86 1.842c-5.164 5.147-9.81 10.57-14.265 16.345l-1.346 1.735A1597 1597 0 0 0 272 215c-11.29-14.177-13.48-34.61-11.798-52.102 2.259-18.506 9.731-35.646 21.798-49.898l2.023-2.43C302.167 89.545 327.243 77.818 354 72l2.196-.5C384.86 65.22 418.648 67.494 447 74"/></svg>