<?xml version="1.0" encoding="UTF-8"?>
<!-- Generator: visioncortex VTracer 0.6.12 -->
<svg version="1.1" xmlns="http://www.w3.org/2000/svg" width="512" height="512">
  <metadata>
                <![CDATA[
            {
  "prompt": {
    "4": {
      "inputs": {
        "vae_name": "ae.safetensors"
      },
      "class_type": "VAELoader",
      "_meta": {
        "title": "Load VAE"
      }
    },
    "5": {
      "inputs": {
        "clip_name": "qwen3_4b_fp8_scaled.safetensors",
        "type": "lumina2",
        "device": "default"
      },
      "class_type": "CLIPLoader",
      "_meta": {
        "title": "Load CLIP"
      }
    },
    "6": {
      "inputs": {
        "ckpt_name": "zEpicrealism_turboV1Fp8.safetensors"
      },
      "class_type": "CheckpointLoaderSimple",
      "_meta": {
        "title": "Load Checkpoint"
      }
    },
    "7": {
      "inputs": {
        "shift": 6.0,
        "model": [
          "6",
          0
        ]
      },
      "class_type": "ModelSamplingAuraFlow",
      "_meta": {
        "title": "ModelSamplingAuraFlow"
      }
    },
    "8": {
      "inputs": {
        "PowerLoraLoaderHeaderWidget": {
          "type": "PowerLoraLoaderHeaderWidget"
        },
        "lora_1": {
          "on": true,
          "lora": "MinimalistVectorArtZ.safetensors",
          "strength": 0.4
        },
        "lora_2": {
          "on": false,
          "lora": "None",
          "strength": 0.75
        },
        "\u2795 Add Lora": "",
        "model": [
          "7",
          0
        ],
        "clip": [
          "5",
          0
        ]
      },
      "class_type": "Power Lora Loader (rgthree)",
      "_meta": {
        "title": "Power Lora Loader (rgthree)"
      }
    },
    "9": {
      "inputs": {
        "text": "A minimalist, heavy solid black icon of a young sprout with two leaves emerging from a small, solid mound of earth. The earth is a single, clean semi-circle of solid black. The sprout and asymmetrical leaves are carved out with thick, bold white negative space. High-contrast linocut style, no small specks or grit, heavy visual weight, isolated on white.",
        "clip": [
          "8",
          1
        ]
      },
      "class_type": "CLIPTextEncode",
      "_meta": {
        "title": "Positive Prompt"
      }
    },
    "10": {
      "inputs": {
        "text": "blurry, bad, shadow",
        "clip": [
          "8",
          1
        ]
      },
      "class_type": "CLIPTextEncode",
      "_meta": {
        "title": "Negative Prompt"
      }
    },
    "11": {
      "inputs": {
        "seed": 780433131246083,
        "steps": 9,
        "cfg": 1.0,
        "sampler_name": "euler",
        "scheduler": "beta",
        "denoise": 1.0,
        "preview_method": "auto",
        "vae_decode": "true",
        "model": [
          "8",
          0
        ],
        "positive": [
          "9",
          0
        ],
        "negative": [
          "10",
          0
        ],
        "latent_image": [
          "27",
          0
        ],
        "optional_vae": [
          "4",
          0
        ]
      },
      "class_type": "KSampler (Efficient)",
      "_meta": {
        "title": "KSampler (Efficient)"
      }
    },
    "13": {
      "inputs": {
        "filename_prefix": [
          "35",
          0
        ],
        "images": [
          "11",
          5
        ]
      },
      "class_type": "SaveImage",
      "_meta": {
        "title": "Save Image"
      }
    },
    "27": {
      "inputs": {
        "dimensions": "512 x 512 (1:1)",
        "invert": false,
        "batch_size": 1
      },
      "class_type": "EmptyLatentImagePresets",
      "_meta": {
        "title": "Empty Latent Image Presets"
      }
    },
    "32": {
      "inputs": {
        "filename_prefix": [
          "35",
          0
        ],
        "svg": [
          "34",
          0
        ]
      },
      "class_type": "SaveSVGNode",
      "_meta": {
        "title": "SaveSVGNode"
      }
    },
    "33": {
      "inputs": {
        "mode": "spline",
        "filter_speckle": 4,
        "corner_threshold": 60,
        "length_threshold": 4.0,
        "splice_threshold": 45,
        "image": [
          "11",
          5
        ]
      },
      "class_type": "TS_ImageToSVGStringBW_Vtracer",
      "_meta": {
        "title": "Image to SVG String BW_Vtracer"
      }
    },
    "34": {
      "inputs": {
        "SVG_String": [
          "33",
          0
        ]
      },
      "class_type": "TS_SVGStringToSVGBytesIO",
      "_meta": {
        "title": "SVG String to SVG BytesIO"
      }
    },
    "35": {
      "inputs": {
        "value": "Icons/vegn-"
      },
      "class_type": "PrimitiveString",
      "_meta": {
        "title": "String"
      }
    }
  },
  "workflow": {
    "id": "b863a6d5-b1c1-49ed-82de-40ff658289d1",
    "revision": 0,
    "last_node_id": 35,
    "last_link_id": 44,
    "nodes": [
      {
        "id": 4,
        "type": "VAELoader",
        "pos": [
          -6219.535543743481,
          -970.8934870343326
        ],
        "size": [
          373.8333435058594,
          123.80000305175781
        ],
        "flags": {},
        "order": 0,
        "mode": 0,
        "inputs": [],
        "outputs": [
          {
            "name": "VAE",
            "type": "VAE",
            "links": [
              13
            ]
          }
        ],
        "properties": {
          "cnr_id": "comfy-core",
          "ver": "0.9.2",
          "Node name for S&R": "VAELoader"
        },
        "widgets_values": [
          "ae.safetensors"
        ]
      },
      {
        "id": 5,
        "type": "CLIPLoader",
        "pos": [
          -6634.5950750000675,
          -1114.7061549982152
        ],
        "size": [
          366.1666564941406,
          406.98333740234375
        ],
        "flags": {},
        "order": 1,
        "mode": 0,
        "inputs": [],
        "outputs": [
          {
            "name": "CLIP",
            "type": "CLIP",
            "links": [
              6
            ]
          }
        ],
        "properties": {
          "cnr_id": "comfy-core",
          "ver": "0.9.2",
          "Node name for S&R": "CLIPLoader"
        },
        "widgets_values": [
          "qwen3_4b_fp8_scaled.safetensors",
          "lumina2",
          "default"
        ]
      },
      {
        "id": 6,
        "type": "CheckpointLoaderSimple",
        "pos": [
          -7142.724710471413,
          -1274.3013669313325
        ],
        "size": [
          456,
          154.6666717529297
        ],
        "flags": {},
        "order": 2,
        "mode": 0,
        "inputs": [],
        "outputs": [
          {
            "name": "MODEL",
            "type": "MODEL",
            "links": [
              4
            ]
          },
          {
            "name": "CLIP",
            "type": "CLIP",
            "links": []
          },
          {
            "name": "VAE",
            "type": "VAE",
            "links": []
          }
        ],
        "properties": {
          "cnr_id": "comfy-core",
          "ver": "0.9.2",
          "Node name for S&R": "CheckpointLoaderSimple"
        },
        "widgets_values": [
          "zEpicrealism_turboV1Fp8.safetensors"
        ],
        "color": "#453f4f",
        "bgcolor": "#312b3b"
      },
      {
        "id": 7,
        "type": "ModelSamplingAuraFlow",
        "pos": [
          -6599.9781895109445,
          -1269.9313776848057
        ],
        "size": [
          270,
          104
        ],
        "flags": {},
        "order": 5,
        "mode": 0,
        "inputs": [
          {
            "name": "model",
            "type": "MODEL",
            "link": 4
          }
        ],
        "outputs": [
          {
            "name": "MODEL",
            "type": "MODEL",
            "links": [
              5
            ]
          }
        ],
        "properties": {
          "cnr_id": "comfy-core",
          "ver": "0.10.0",
          "Node name for S&R": "ModelSamplingAuraFlow"
        },
        "widgets_values": [
          6
        ]
      },
      {
        "id": 8,
        "type": "Power Lora Loader (rgthree)",
        "pos": [
          -6200.015026223777,
          -1269.9313776848057
        ],
        "size": [
          340.48333740234375,
          232
        ],
        "flags": {},
        "order": 6,
        "mode": 0,
        "inputs": [
          {
            "dir": 3,
            "name": "model",
            "type": "MODEL",
            "link": 5
          },
          {
            "dir": 3,
            "name": "clip",
            "type": "CLIP",
            "link": 6
          }
        ],
        "outputs": [
          {
            "dir": 4,
            "name": "MODEL",
            "shape": 3,
            "type": "MODEL",
            "links": [
              33
            ]
          },
          {
            "dir": 4,
            "name": "CLIP",
            "shape": 3,
            "type": "CLIP",
            "links": [
              7,
              8
            ]
          }
        ],
        "properties": {
          "cnr_id": "rgthree-comfy",
          "ver": "8ff50e4521881eca1fe26aec9615fc9362474931",
          "Show Strengths": "Single Strength"
        },
        "widgets_values": [
          {},
          {
            "type": "PowerLoraLoaderHeaderWidget"
          },
          {
            "on": true,
            "lora": "MinimalistVectorArtZ.safetensors",
            "strength": 0.4,
            "strengthTwo": null
          },
          {
            "on": false,
            "lora": "None",
            "strength": 0.75,
            "strengthTwo": null
          },
          {},
          ""
        ]
      },
      {
        "id": 9,
        "type": "CLIPTextEncode",
        "pos": [
          -5665.322287917606,
          -968.8529595656343
        ],
        "size": [
          496.6499938964844,
          181.21665954589844
        ],
        "flags": {},
        "order": 7,
        "mode": 0,
        "inputs": [
          {
            "name": "clip",
            "type": "CLIP",
            "link": 7
          }
        ],
        "outputs": [
          {
            "name": "CONDITIONING",
            "type": "CONDITIONING",
            "links": [
              9
            ]
          }
        ],
        "title": "Positive Prompt",
        "properties": {
          "cnr_id": "comfy-core",
          "ver": "0.9.2",
          "Node name for S&R": "CLIPTextEncode"
        },
        "widgets_values": [
          "A minimalist, heavy solid black icon of a young sprout with two leaves emerging from a small, solid mound of earth. The earth is a single, clean semi-circle of solid black. The sprout and asymmetrical leaves are carved out with thick, bold white negative space. High-contrast linocut style, no small specks or grit, heavy visual weight, isolated on white."
        ],
        "color": "#232",
        "bgcolor": "#353"
      },
      {
        "id": 10,
        "type": "CLIPTextEncode",
        "pos": [
          -5663.1914535981,
          -731.9340672918617
        ],
        "size": [
          470,
          142
        ],
        "flags": {},
        "order": 8,
        "mode": 0,
        "inputs": [
          {
            "name": "clip",
            "type": "CLIP",
            "link": 8
          }
        ],
        "outputs": [
          {
            "name": "CONDITIONING",
            "type": "CONDITIONING",
            "links": [
              10
            ]
          }
        ],
        "title": "Negative Prompt",
        "properties": {
          "cnr_id": "comfy-core",
          "ver": "0.9.2",
          "Node name for S&R": "CLIPTextEncode"
        },
        "widgets_values": [
          "blurry, bad, shadow"
        ],
        "color": "#322",
        "bgcolor": "#533"
      },
      {
        "id": 11,
        "type": "KSampler (Efficient)",
        "pos": [
          -4910.9017263054975,
          -1342.4877841038808
        ],
        "size": [
          400.1000061035156,
          966.6666870117188
        ],
        "flags": {},
        "order": 9,
        "mode": 0,
        "inputs": [
          {
            "name": "model",
            "type": "MODEL",
            "link": 33
          },
          {
            "name": "positive",
            "type": "CONDITIONING",
            "link": 9
          },
          {
            "name": "negative",
            "type": "CONDITIONING",
            "link": 10
          },
          {
            "name": "latent_image",
            "type": "LATENT",
            "link": 37
          },
          {
            "name": "optional_vae",
            "shape": 7,
            "type": "VAE",
            "link": 13
          },
          {
            "name": "script",
            "shape": 7,
            "type": "SCRIPT",
            "link": null
          }
        ],
        "outputs": [
          {
            "name": "MODEL",
            "type": "MODEL",
            "links": null
          },
          {
            "name": "CONDITIONING+",
            "type": "CONDITIONING",
            "links": null
          },
          {
            "name": "CONDITIONING-",
            "type": "CONDITIONING",
            "links": null
          },
          {
            "name": "LATENT",
            "type": "LATENT",
            "links": null
          },
          {
            "name": "VAE",
            "type": "VAE",
            "links": null
          },
          {
            "name": "IMAGE",
            "type": "IMAGE",
            "links": [
              14,
              39
            ]
          }
        ],
        "properties": {
          "cnr_id": "efficiency-nodes-comfyui",
          "ver": "1.0.8",
          "Node name for S&R": "KSampler (Efficient)"
        },
        "widgets_values": [
          -1,
          null,
          9,
          1,
          "euler",
          "beta",
          1,
          "auto",
          "true"
        ],
        "color": "#223333",
        "bgcolor": "#335555",
        "shape": "box"
      },
      {
        "id": 13,
        "type": "SaveImage",
        "pos": [
          -4410.464751892896,
          -1351.9862052389306
        ],
        "size": [
          461.7833251953125,
          344
        ],
        "flags": {},
        "order": 10,
        "mode": 0,
        "inputs": [
          {
            "name": "images",
            "type": "IMAGE",
            "link": 14
          },
          {
            "name": "filename_prefix",
            "type": "STRING",
            "widget": {
              "name": "filename_prefix"
            },
            "link": 43
          }
        ],
        "outputs": [],
        "properties": {
          "cnr_id": "comfy-core",
          "ver": "0.17.2"
        },
        "widgets_values": [
          "Icons/apps-"
        ]
      },
      {
        "id": 27,
        "type": "EmptyLatentImagePresets",
        "pos": [
          -5662.144089872933,
          -1235.0977881573456
        ],
        "size": [
          285.0833435058594,
          214.6666717529297
        ],
        "flags": {},
        "order": 3,
        "mode": 0,
        "inputs": [],
        "outputs": [
          {
            "name": "Latent",
            "type": "LATENT",
            "links": [
              37
            ]
          },
          {
            "name": "Width",
            "type": "INT",
            "links": null
          },
          {
            "name": "Height",
            "type": "INT",
            "links": null
          }
        ],
        "properties": {
          "cnr_id": "comfyui-kjnodes",
          "ver": "c88ac88a8f8a6a090a0d5d607156090cb2911503",
          "Node name for S&R": "EmptyLatentImagePresets"
        },
        "widgets_values": [
          "512 x 512 (1:1)",
          false,
          1
        ]
      },
      {
        "id": 32,
        "type": "SaveSVGNode",
        "pos": [
          -3813.0751465917647,
          -782.3696102323707
        ],
        "size": [
          270,
          344
        ],
        "flags": {},
        "order": 13,
        "mode": 0,
        "inputs": [
          {
            "name": "svg",
            "type": "SVG",
            "link": 42
          },
          {
            "name": "filename_prefix",
            "type": "STRING",
            "widget": {
              "name": "filename_prefix"
            },
            "link": 44
          }
        ],
        "outputs": [],
        "properties": {
          "cnr_id": "comfy-core",
          "ver": "0.17.2",
          "Node name for S&R": "SaveSVGNode"
        },
        "widgets_values": [
          "Icons/apps-"
        ]
      },
      {
        "id": 33,
        "type": "TS_ImageToSVGStringBW_Vtracer",
        "pos": [
          -4400.388422461708,
          -795.4795779719508
        ],
        "size": [
          314.01666259765625,
          234.66665649414062
        ],
        "flags": {},
        "order": 11,
        "mode": 0,
        "inputs": [
          {
            "name": "image",
            "type": "IMAGE",
            "link": 39
          }
        ],
        "outputs": [
          {
            "name": "STRING",
            "shape": 6,
            "type": "STRING",
            "links": [
              41
            ]
          }
        ],
        "properties": {
          "cnr_id": "comfyui-tosvg",
          "ver": "1.0.1",
          "Node name for S&R": "TS_ImageToSVGStringBW_Vtracer"
        },
        "widgets_values": [
          "spline",
          4,
          60,
          4,
          45
        ]
      },
      {
        "id": 34,
        "type": "TS_SVGStringToSVGBytesIO",
        "pos": [
          -4063.447054927147,
          -778.4329695457014
        ],
        "size": [
          225,
          72
        ],
        "flags": {},
        "order": 12,
        "mode": 0,
        "inputs": [
          {
            "name": "SVG_String",
            "type": "STRING",
            "link": 41
          }
        ],
        "outputs": [
          {
            "name": "SVG",
            "type": "SVG",
            "links": [
              42
            ]
          }
        ],
        "properties": {
          "cnr_id": "comfyui-tosvg",
          "ver": "1.0.1",
          "Node name for S&R": "TS_SVGStringToSVGBytesIO"
        },
        "widgets_values": []
      },
      {
        "id": 35,
        "type": "PrimitiveString",
        "pos": [
          -4406.654485248328,
          -1528.2849375983897
        ],
        "size": [
          270,
          108
        ],
        "flags": {},
        "order": 4,
        "mode": 0,
        "inputs": [],
        "outputs": [
          {
            "name": "STRING",
            "type": "STRING",
            "links": [
              43,
              44
            ]
          }
        ],
        "properties": {
          "cnr_id": "comfy-core",
          "ver": "0.17.2",
          "Node name for S&R": "PrimitiveString"
        },
        "widgets_values": [
          "Icons/vegn-"
        ]
      }
    ],
    "links": [
      [
        4,
        6,
        0,
        7,
        0,
        "MODEL"
      ],
      [
        5,
        7,
        0,
        8,
        0,
        "MODEL"
      ],
      [
        6,
        5,
        0,
        8,
        1,
        "CLIP"
      ],
      [
        7,
        8,
        1,
        9,
        0,
        "CLIP"
      ],
      [
        8,
        8,
        1,
        10,
        0,
        "CLIP"
      ],
      [
        9,
        9,
        0,
        11,
        1,
        "CONDITIONING"
      ],
      [
        10,
        10,
        0,
        11,
        2,
        "CONDITIONING"
      ],
      [
        13,
        4,
        0,
        11,
        4,
        "VAE"
      ],
      [
        14,
        11,
        5,
        13,
        0,
        "IMAGE"
      ],
      [
        33,
        8,
        0,
        11,
        0,
        "MODEL"
      ],
      [
        37,
        27,
        0,
        11,
        3,
        "LATENT"
      ],
      [
        39,
        11,
        5,
        33,
        0,
        "IMAGE"
      ],
      [
        41,
        33,
        0,
        34,
        0,
        "STRING"
      ],
      [
        42,
        34,
        0,
        32,
        0,
        "SVG"
      ],
      [
        43,
        35,
        0,
        13,
        1,
        "STRING"
      ],
      [
        44,
        35,
        0,
        32,
        1,
        "STRING"
      ]
    ],
    "groups": [],
    "config": {},
    "extra": {
      "ds": {
        "scale": 1.0152559799477934,
        "offset": [
          5816.162489453682,
          1417.1861194708613
        ]
      },
      "workflowRendererVersion": "Vue",
      "frontendVersion": "1.41.20",
      "VHS_latentpreview": false,
      "VHS_latentpreviewrate": 0,
      "VHS_MetadataImage": true,
      "VHS_KeepIntermediate": true
    },
    "version": 0.4
  }
}
                ]]>
            </metadata>
            
<path d="M0 0 C-1.0783146031046158 7.166382596082514 -2.164988762114376 14.331450340317033 -3.2613019943237305 21.495102882385254 C-3.770563742084903 24.82438603052104 -4.276505390950547 28.154089410682957 -4.777587890625 31.484619140625 C-10.643788556730101 70.44296308754394 -17.69874827340243 107.23155093815973 -44 138 C-44.67546874999999 138.8211328125 -45.350937499999986 139.642265625 -46.046875 140.48828125 C-60.635860371368665 157.60637904888694 -82.45711394815396 170.61061538717016 -105 173 C-128.05072587579423 174.63290374457463 -146.93634305816278 170.13925893837398 -166 157 C-166.270703125 157.848203125 -166.54140625000002 158.69640625 -166.8203125 159.5703125 C-168.02775072453858 163.08067925875793 -169.43095499134404 166.45568098986638 -170.875 169.875 C-179.1604689291657 190.22421257854148 -181.40219428853698 211.89958541597332 -181.6875 233.6875 C-181.72080280004764 235.47984045329463 -181.7553034604644 237.2721590591973 -181.791015625 239.064453125 C-181.87439874386575 243.376177153429 -181.9418797738649 247.6878645482426 -182 252 C-181.50536254882815 251.7877880859375 -181.50536254882815 251.7877880859375 -179.002197265625 250.7138671875 C-160.72482009949698 243.02596288128098 -146.57134992808437 246.01413188660786 -128 252 C-127.31824707031251 252.21317871093748 -126.63649414062502 252.42635742187503 -125.93408203125 252.64599609375 C-109.45895556908096 257.8894755872933 -99.71335276432876 268.7275423690845 -89.921875 282.37109375 C-84.8984276414634 289.24259796198197 -79.35647922219573 294.56021833907545 -72.6796875 299.84375 C-70.40900243681068 301.6708901674643 -68.30413581421811 303.5639597462318 -66.1875 305.5625 C-61.69304474679029 309.56275166727585 -56.51811587943973 312.3245365151117 -51.26953125 315.203125 C-49.299171863777474 316.28599873675313 -47.3515699721097 317.41435774439685 -45.45703125 318.625 C-42.642738146427064 320.1999303218723 -39.992748098997026 320.93800663760766 -36.875 321.75 C-17.86743333886733 327.45226999833983 -3.4748154576187176 343.4938688676869 8 358.9375 C8.493872070312477 359.601044921875 8.987744140625011 360.26458984375 9.49658203125 360.9482421875 C13 365.75597906703865 13 365.75597906703865 13 368 C10.052396771851363 368.841681202348 7.389949096692476 369.1441296352414 4.32855224609375 369.19639587402344 C3.3899208831787178 369.2145453453064 2.4512895202636855 369.23269481658934 1.4842147827148438 369.2513942718506 C0.4578516387939544 369.26632234573367 -0.5685115051269349 369.2812504196167 -1.6259765625 369.296630859375 C-2.7165108489990075 369.31589944839476 -3.807045135498072 369.3351680374146 -4.930625915527344 369.3550205230713 C-8.583893221275332 369.41766985654266 -12.237227700469305 369.472834911623 -15.890625 369.52734375 C-18.492533814109947 369.5690587626726 -21.094442170367472 369.6108023417117 -23.69635009765625 369.65257263183594 C-53.142254346819016 370.11385033135326 -82.5907055781986 370.3230340652234 -112.03935670852661 370.51740968227386 C-117.2782062652152 370.5521642977893 -122.51703558529226 370.58925152492657 -127.755859375 370.627685546875 C-146.31103027637175 370.76365473983986 -164.86620205149268 370.88635256558325 -183.421630859375 370.9816246032715 C-185.67732925311543 370.9932079115485 -187.93302614664123 371.005090934192 -190.188720703125 371.0173988342285 C-228.61336570030608 371.2249019972139 -267.0331158925095 370.66592656708053 -305.4536488056183 370.1657779812813 C-312.6864199608229 370.0720438474654 -319.9192531038724 369.98402781298245 -327.1521096229553 369.8971672654152 C-334.21383776532304 369.8121487348766 -341.27551527763137 369.72357390835583 -348.33716344833374 369.63215440511703 C-352.5184395329812 369.5780663868964 -356.6997210693218 369.52532524650536 -360.8810577392578 369.4761219024658 C-364.77550777374336 369.4301555785368 -368.6698753298841 369.3797495086883 -372.56422424316406 369.3259105682373 C-373.98722312155576 369.30698050662755 -375.41024385383116 369.28961675947284 -376.8332824707031 369.2739562988281 C-378.77745714911794 369.2523118414789 -380.7215589430386 369.2243940073462 -382.6656494140625 369.19618225097656 C-383.20821002960207 369.1892688035965 -383.20821002960207 369.1892688035965 -385.95389556884766 369.15428256988525 C-389.0360468009775 368.9981742605296 -391.96889520285094 368.5677144061784 -395 368 C-393.9898120938912 361.2495678744731 -390.12345860014904 355.5860589394438 -385 351.125 C-381.1713037488998 348.41300682213733 -377.4452019268079 346.48173397560265 -373 345 C-372.3275173288025 343.669590559579 -371.6619511088765 342.3356807072348 -371 341 C-362.36910486090835 331.87964010821884 -354.14230530968956 327.3455599595565 -342.077880859375 324.5029296875 C-329.66763999244216 321.5447334971781 -320.57813388795813 315.96616122896154 -310.6181640625 308.23486328125 C-308.6700129816018 306.74817828318373 -306.64803354524605 305.38227192434147 -304.625 304 C-299.54215294241226 300.1713619566222 -295.87136994266115 294.99202966290517 -292 290 C-289.96772100933816 287.4350977050941 -287.9275716770457 284.8775741031657 -285.87109375 282.33203125 C-284.71417443140143 280.89010884247733 -283.5768850767651 279.4318789393905 -282.47265625 277.94921875 C-273.8956884221376 267.0588702866328 -258.6416704503024 258.1161024945499 -245 256 C-235.238073820811 255.17670502103226 -228.28120757834313 256.3211010390747 -219.08056640625 259.82666015625 C-214.8455491696029 261.2170731254177 -210.94923268194984 261.28861901989603 -206.52734375 261.15625 C-206.16284118652345 261.1506103515625 -206.16284118652345 261.1506103515625 -204.3182373046875 261.1220703125 C-202.5452630331821 261.09299324367663 -200.77255826420887 261.0481709802306 -199 261 C-203.9375709263939 211.18992632781442 -203.9375709263939 211.18992632781442 -220 191 C-223.44354366517572 192.2747152865826 -226.32349198692725 193.78351484744815 -229.375 195.8125 C-245.7736192199022 205.70488239076695 -265.4781180279182 208.01974815404492 -283.91259765625 203.53466796875 C-298.6732094889886 199.7563295370635 -311.5401463682487 193.10936583002973 -323 183 C-323.806953125 182.32453125 -324.61390625 181.6490625 -325.4453125 180.953125 C-336.42487608772313 171.5224026707331 -344.94881356816256 160.60477574540855 -352 148 C-352.52078125 147.0821875 -353.0415625 146.164375 -353.578125 145.21875 C-362.2547913000971 128.96141735350227 -366.81530918621286 110.40619075775282 -371.936767578125 92.8115234375 C-372.95490977859475 89.31521467589667 -373.98178704936294 85.82155301902452 -375.009765625 82.328125 C-375.6619590512433 80.10170911628327 -376.3136707623201 77.87515205122048 -376.96484375 75.6484375 C-377.27099105834964 74.60593841552736 -377.5771383666992 73.56343933105467 -377.89256286621094 72.48934936523438 C-378.1702803039551 71.53299591064453 -378.4479977416992 70.57664245605469 -378.734130859375 69.59130859375 C-378.979490814209 68.75006439208983 -379.224850769043 67.90882019042971 -379.47764587402344 67.04208374023438 C-380 65 -380 65 -380 63 C-372.2917172589381 60.45544374711423 -364.55218481609626 58.83026758788566 -356.5625 57.4375 C-355.33055908203124 57.22134033203125 -354.0986181640625 57.00518066406249 -352.829345703125 56.782470703125 C-313.07860115193705 49.966798139042766 -273.9216365765266 51.99731737036572 -239.888671875 75.611328125 C-221.72221905868443 88.96846147805104 -206.88197213699755 108.60847091118902 -202.625 131.0625 C-200.6214947646329 146.6940148051037 -201.94402023619418 162.63871838127008 -211 176 C-211.66 176 -212.32 176 -213 176 C-214.3046874999999 174.67187500000014 -214.3046874999999 174.67187500000014 -215.875 172.75 C-219.1179049480746 168.9360174510066 -222.52661758920024 165.35166956519467 -226.0625 161.8125 C-226.5566943359375 161.313955078125 -227.050888671875 160.81541015625 -227.56005859375 160.3017578125 C-230.04551502931602 157.8253513672654 -232.36780258506604 155.73753678346068 -235.24609375 153.68359375 C-238.93000843100407 150.09373646510667 -239.27114311591572 147.19913307102328 -240 142.25 C-242.6693269805296 127.4107151950098 -247.89730423189414 114.25976635998464 -255 101 C-254.7460546875 101.992578125 -254.492109375 102.98515624999999 -254.23046875 104.0078125 C-253.31492073223777 107.60754028133812 -252.41904412586732 111.21182791928527 -251.53466796875 114.8193359375 C-251.04909238076283 116.7997748196467 -250.55805553893748 118.77887268427673 -250.06640625 120.7578125 C-248.30407833375781 128.29619124220343 -247.61744958981262 135.26398059398878 -248 143 C-252.61354880842657 141.48821564469637 -256.04530493901626 138.8325955076627 -259.8125 135.875 C-281.3663973645366 119.38992171907262 -304.61603124328354 104.90360629844963 -329 93 C-321.8414182634043 98.60291821433196 -314.5900782510591 104.03552490677598 -307.1875 109.3125 C-301.01090974792413 113.73442956447323 -294.97193518691955 118.28863263660989 -289.0625 123.0625 C-288.39436279296876 123.59850830078125 -287.7262255859375 124.1345166015625 -287.037841796875 124.686767578125 C-283.92824555284204 127.23032107847754 -281.2128285995963 129.59502019914513 -279 133 C-281.1656754381949 133.4836269588104 -283.3325974143022 133.96167317183736 -285.5 134.4375 C-286.7065625 134.7043359375 -287.913125 134.971171875 -289.15625 135.24609375 C-296.1945787447465 136.6265789611139 -302.8530614058855 137.14301143996835 -310 137.0625 C-310.7747265625 137.05798828125 -311.549453125 137.0534765625 -312.34765625 137.048828125 C-314.2318052364086 137.03719757570119 -316.11591364959094 137.01926906494737 -318 137 C-318 137.66 -318 138.32 -318 139 C-313.90739466504556 139.0252127141287 -309.81483437554596 139.04205745686488 -305.72216796875 139.05355834960938 C-303.56469264643255 139.06249092180923 -301.4074127742797 139.08046493004287 -299.25 139.098876953125 C-292.57881976054114 139.13686708075235 -286.107975914643 139.01160674941352 -279.500732421875 137.979248046875 C-274.19076398196114 137.20494514441043 -270.5032638138831 137.3234098758412 -266.109375 140.44140625 C-262.78947746639903 143.14249521859566 -259.7911326996792 146.11733987383852 -256.81396484375 149.18701171875 C-253.9006369008364 152.09877124823538 -250.73619086127533 154.69197312778314 -247.5625 157.3125 C-246.47954692268885 158.224166516086 -245.3974193043282 159.13681517810122 -244.31640625 160.05078125 C-243.5519921875 160.6940234375 -242.787578125 161.337265625 -242 162 C-245.05286202791802 165.05286202791802 -248.7936759557671 165.6696070744314 -252.875 166.875 C-253.753818359375 167.1374853515625 -254.63263671875 167.399970703125 -255.5380859375 167.67041015625 C-264.90654407403105 170.38915865700048 -274.4080243301572 172.2652809958795 -284 174 C-273.490912494891 174.2823336941671 -263.2636558606022 174.3406150940978 -252.875 172.5625 C-252.4807080078125 172.49671752929686 -252.4807080078125 172.49671752929686 -250.4853515625 172.163818359375 C-247.2082352893596 171.6024540423277 -243.96708217696437 170.9925846620337 -240.72265625 170.26171875 C-236.35029229976362 169.4583811939257 -234.1203893003103 169.25634979189928 -230.328125 171.7734375 C-227.7434392946567 174.07518423759862 -225.36409048192303 176.4738716818819 -223 179 C-217.8350312191916 183.976141965166 -217.8350312191916 183.976141965166 -214.8125 184.0625 C-212.56450768983947 182.74471140438868 -211.50579476670347 181.09962932258654 -210 179 C-205.3708141251339 185.1123230969106 -201.1685347495697 191.00281909470027 -198 198 C-196.34389360288392 196.3438936028839 -196.3566983672689 194.1542616970736 -195.897216796875 191.9345703125 C-192.48686043947845 175.72858588021936 -186.4538269975926 160.23941484907002 -178 146 C-177.5294921875 146.4215234375 -177.05898437500002 146.843046875 -176.57421875 147.27734375 C-176.26291015624997 147.55126953125 -176.26291015624997 147.55126953125 -174.6875 148.9375 C-174.0726171875 149.4827734375 -173.45773437499997 150.028046875 -172.82421875 150.58984375 C-171 152 -171 152 -168 153 C-167.88140625 152.64615234375 -167.88140625 152.64615234375 -167.28125 150.85546875 C-165.78074987740126 147.5113663426229 -163.85576037792146 145.11570187827343 -161.5 142.3125 C-160.7059375 141.3598828125 -159.911875 140.407265625 -159.09375 139.42578125 C-155.30132713773315 135.0319480457692 -155.30132713773315 135.0319480457692 -151.7255859375 134.65283203125 C-150.31218078146475 134.59560571169297 -148.89836780555947 134.54797881154462 -147.484375 134.5078125 C-145.91672356759983 134.44461474295665 -144.34909740365254 134.38078776712322 -142.781494140625 134.31640625 C-141.9590823364258 134.2856298828125 -141.13667053222656 134.254853515625 -140.28933715820313 134.22314453125 C-123.21526083821476 133.56323719616506 -106.29189672437673 132.56641012737848 -90 127 C-91.27004882812503 127.0104736328125 -92.54009765625 127.02094726562501 -93.8486328125 127.03173828125 C-98.6122754112468 127.06825198399551 -103.37590592782715 127.09101339794171 -108.1396484375 127.10986328125 C-110.19175301403845 127.11984997542154 -112.24384362551791 127.13344400643675 -114.2958984375 127.15087890625 C-136.17271329723923 127.33194309934427 -136.17271329723923 127.33194309934427 -146 125 C-143.70249042360456 120.73179864896221 -140.7572180441008 117.46511673489096 -137.34375 114.078125 C-136.80020874023438 113.53267028808594 -136.25666748046876 112.98721557617188 -135.6966552734375 112.42523193359375 C-134.55266807109263 111.2798897826566 -133.40617547754908 110.13704515954393 -132.25732421875 108.99658203125 C-130.4986065217176 107.24861503978434 -128.7508633670667 105.49018095974958 -127.00390625 103.73046875 C-125.8886618991296 102.61654530443357 -124.77279767709234 101.5032420453083 -123.65625 100.390625 C-123.39527526855466 100.12762603759765 -123.39527526855466 100.12762603759765 -122.0745849609375 98.79669189453125 C-119.72225941655961 96.4745937044267 -118.18198945751317 95.06066315250439 -115 94 C-113.24058190358005 94.05108275100378 -111.48282896562887 94.17432891640141 -109.73046875 94.33984375 C-108.6835888671875 94.43354248046876 -107.63670898437499 94.52724121093752 -106.55810546875 94.623779296875 C-105.4458056640625 94.72730712890626 -104.33350585937501 94.8308349609375 -103.1875 94.9375 C-88.95465351418926 96.16244982171764 -75.23347041149663 96.11635062050954 -61 95 C-61 94.34 -61 93.68 -61 93 C-62.06992187499998 93.04640625000002 -63.13984375000001 93.09281249999998 -64.2421875 93.140625 C-74.3394532351158 93.43033747327178 -84.01261643644523 92.66664869358166 -94 91.125 C-95.13937011718753 90.951298828125 -96.278740234375 90.77759765625001 -97.45263671875 90.5986328125 C-105.5973524652639 89.26843168982407 -105.5973524652639 89.26843168982407 -109 87 C-105.8376041828148 83.80823907879812 -102.66931241421065 80.62239189939288 -99.5 77.4375 C-98.61312500000003 76.54224609375001 -97.72625 75.64699218750002 -96.8125 74.724609375 C-91.70585275315608 69.59918768974853 -86.50053663871034 64.69772615251128 -81 60 C-79.32947538445546 58.50429772794266 -77.66219168428154 57.00495733576841 -76 55.5 C-72.33370782804235 52.18851029629633 -68.63428382627637 48.92229152972982 -64.88671875 45.703125 C-62.50426810455156 43.552507026054855 -60.255466956184364 41.2826412568613 -58 39 C-69.90654001209998 46.00060454415137 -81.13799893926438 53.4671254192217 -92 62 C-92.9345703125 62.73218750000001 -93.869140625 63.46437500000002 -94.83203125 64.21875 C-97.23689146184444 66.12748944373169 -99.62076165722146 68.05945842806602 -102 70 C-102.4395703125 70.35255859374999 -102.4395703125 70.35255859374999 -104.6640625 72.13671875 C-110.5942630699613 76.92264118181384 -116.243148297721 81.90494753458063 -121.78515625 87.12890625 C-124 89 -124 89 -126 89 C-126.2063895266474 61.05485809193431 -126.2063895266474 61.05485809193431 -125 48 C-125.96520573714582 51.28968992067672 -126.92085401435259 54.58208687744002 -127.875 57.875 C-128.00970703125 58.333906249999984 -128.00970703125 58.333906249999984 -128.69140625 60.65625 C-131.23434272755793 69.46349341007871 -132.98825386521338 77.98939465460626 -133.6875 87.125 C-134.50983872583805 94.55529488890087 -136.45904187840227 98.10397306960465 -142 103 C-144.31583295735248 105.24660572923779 -146.59370325350778 107.53089988957868 -148.875 109.8125 C-149.48859375 110.42037353515624 -150.1021875 111.02824707031249 -150.734375 111.654541015625 C-155.89887977141962 116.80187655575668 -160.5450363124205 122.2253432990442 -165 128 C-165.44424316406253 128.572666015625 -165.888486328125 129.14533203125 -166.34619140625 129.7353515625 C-169.24843959704526 133.47691200881513 -172.1311588059059 137.2327742983608 -175 141 C-186.2894540742543 126.82254604628528 -188.48004217028472 106.39029358230874 -186.7978515625 88.89794921875 C-184.53944305241487 70.39178288044877 -177.06687733962542 53.251826322932104 -165 39 C-164.332265625 38.19820312499999 -163.66453124999998 37.39640625 -162.9765625 36.5703125 C-144.83317834437514 15.544946745647735 -119.75647787978244 3.81781317720872 -93 -2 C-92.27522460937502 -2.1651611328125 -91.55044921874997 -2.330322265625 -90.8037109375 -2.50048828125 C-62.140870008981096 -8.779819313845778 -28.35177840214743 -6.506478340734077 0 0 Z " fill="#000000" transform="translate(447,74)"/>
</svg>
